%TF.GenerationSoftware,KiCad,Pcbnew,9.0.2-9.0.2-0~ubuntu24.04.1*%
%TF.CreationDate,2025-05-23T01:49:29+02:00*%
%TF.ProjectId,Pilot6Axis,50696c6f-7436-4417-9869-732e6b696361,rev?*%
%TF.SameCoordinates,Original*%
%TF.FileFunction,Legend,Bot*%
%TF.FilePolarity,Positive*%
%FSLAX46Y46*%
G04 Gerber Fmt 4.6, Leading zero omitted, Abs format (unit mm)*
G04 Created by KiCad (PCBNEW 9.0.2-9.0.2-0~ubuntu24.04.1) date 2025-05-23 01:49:29*
%MOMM*%
%LPD*%
G01*
G04 APERTURE LIST*
G04 Aperture macros list*
%AMRoundRect*
0 Rectangle with rounded corners*
0 $1 Rounding radius*
0 $2 $3 $4 $5 $6 $7 $8 $9 X,Y pos of 4 corners*
0 Add a 4 corners polygon primitive as box body*
4,1,4,$2,$3,$4,$5,$6,$7,$8,$9,$2,$3,0*
0 Add four circle primitives for the rounded corners*
1,1,$1+$1,$2,$3*
1,1,$1+$1,$4,$5*
1,1,$1+$1,$6,$7*
1,1,$1+$1,$8,$9*
0 Add four rect primitives between the rounded corners*
20,1,$1+$1,$2,$3,$4,$5,0*
20,1,$1+$1,$4,$5,$6,$7,0*
20,1,$1+$1,$6,$7,$8,$9,0*
20,1,$1+$1,$8,$9,$2,$3,0*%
G04 Aperture macros list end*
%ADD10C,0.150000*%
%ADD11C,0.200000*%
%ADD12C,0.300000*%
%ADD13C,0.100000*%
%ADD14R,1.700000X1.700000*%
%ADD15O,1.700000X1.700000*%
%ADD16C,0.650000*%
%ADD17O,1.000000X2.100000*%
%ADD18O,1.000000X1.600000*%
%ADD19RoundRect,0.250000X-0.620000X-0.845000X0.620000X-0.845000X0.620000X0.845000X-0.620000X0.845000X0*%
%ADD20O,1.740000X2.190000*%
%ADD21RoundRect,0.250000X0.845000X-0.620000X0.845000X0.620000X-0.845000X0.620000X-0.845000X-0.620000X0*%
%ADD22O,2.190000X1.740000*%
%ADD23C,1.700000*%
%ADD24RoundRect,0.244000X0.244000X0.269000X-0.244000X0.269000X-0.244000X-0.269000X0.244000X-0.269000X0*%
%ADD25RoundRect,0.244000X-0.244000X-0.269000X0.244000X-0.269000X0.244000X0.269000X-0.244000X0.269000X0*%
G04 APERTURE END LIST*
D10*
X183011200Y-90065800D02*
X186401200Y-90065800D01*
X186401200Y-95095800D01*
X183011200Y-95095800D01*
X183011200Y-90065800D01*
D11*
X122218700Y-108040800D02*
X122218699Y-115540799D01*
D12*
X127251200Y-115540799D02*
X117186199Y-115540800D01*
X117186200Y-108040800D01*
X127251201Y-108040799D01*
X127251200Y-115540799D01*
D10*
X172006200Y-90910800D02*
X183026200Y-90910800D01*
X183026200Y-93410800D01*
X172006200Y-93410800D01*
X172006200Y-90910800D01*
D12*
X146780791Y-115540799D02*
X127186200Y-115540800D01*
X127186200Y-108040800D01*
X146780791Y-108040799D01*
X146780791Y-115540799D01*
D10*
X182128230Y-91985034D02*
X182042516Y-92013605D01*
X182042516Y-92013605D02*
X181899658Y-92013605D01*
X181899658Y-92013605D02*
X181842516Y-91985034D01*
X181842516Y-91985034D02*
X181813944Y-91956462D01*
X181813944Y-91956462D02*
X181785373Y-91899319D01*
X181785373Y-91899319D02*
X181785373Y-91842176D01*
X181785373Y-91842176D02*
X181813944Y-91785034D01*
X181813944Y-91785034D02*
X181842516Y-91756462D01*
X181842516Y-91756462D02*
X181899658Y-91727891D01*
X181899658Y-91727891D02*
X182013944Y-91699319D01*
X182013944Y-91699319D02*
X182071087Y-91670748D01*
X182071087Y-91670748D02*
X182099658Y-91642176D01*
X182099658Y-91642176D02*
X182128230Y-91585034D01*
X182128230Y-91585034D02*
X182128230Y-91527891D01*
X182128230Y-91527891D02*
X182099658Y-91470748D01*
X182099658Y-91470748D02*
X182071087Y-91442176D01*
X182071087Y-91442176D02*
X182013944Y-91413605D01*
X182013944Y-91413605D02*
X181871087Y-91413605D01*
X181871087Y-91413605D02*
X181785373Y-91442176D01*
X181528229Y-92013605D02*
X181528229Y-91413605D01*
X181528229Y-91699319D02*
X181185372Y-91699319D01*
X181185372Y-92013605D02*
X181185372Y-91413605D01*
X180785373Y-91413605D02*
X180671087Y-91413605D01*
X180671087Y-91413605D02*
X180613944Y-91442176D01*
X180613944Y-91442176D02*
X180556801Y-91499319D01*
X180556801Y-91499319D02*
X180528230Y-91613605D01*
X180528230Y-91613605D02*
X180528230Y-91813605D01*
X180528230Y-91813605D02*
X180556801Y-91927891D01*
X180556801Y-91927891D02*
X180613944Y-91985034D01*
X180613944Y-91985034D02*
X180671087Y-92013605D01*
X180671087Y-92013605D02*
X180785373Y-92013605D01*
X180785373Y-92013605D02*
X180842516Y-91985034D01*
X180842516Y-91985034D02*
X180899658Y-91927891D01*
X180899658Y-91927891D02*
X180928230Y-91813605D01*
X180928230Y-91813605D02*
X180928230Y-91613605D01*
X180928230Y-91613605D02*
X180899658Y-91499319D01*
X180899658Y-91499319D02*
X180842516Y-91442176D01*
X180842516Y-91442176D02*
X180785373Y-91413605D01*
X179928230Y-92013605D02*
X180128230Y-91727891D01*
X180271087Y-92013605D02*
X180271087Y-91413605D01*
X180271087Y-91413605D02*
X180042516Y-91413605D01*
X180042516Y-91413605D02*
X179985373Y-91442176D01*
X179985373Y-91442176D02*
X179956802Y-91470748D01*
X179956802Y-91470748D02*
X179928230Y-91527891D01*
X179928230Y-91527891D02*
X179928230Y-91613605D01*
X179928230Y-91613605D02*
X179956802Y-91670748D01*
X179956802Y-91670748D02*
X179985373Y-91699319D01*
X179985373Y-91699319D02*
X180042516Y-91727891D01*
X180042516Y-91727891D02*
X180271087Y-91727891D01*
X179756802Y-91413605D02*
X179413945Y-91413605D01*
X179585373Y-92013605D02*
X179585373Y-91413605D01*
X178842516Y-91413605D02*
X178499659Y-91413605D01*
X178671087Y-92013605D02*
X178671087Y-91413605D01*
X178299658Y-92013605D02*
X178299658Y-91413605D01*
X178299658Y-91699319D02*
X177956801Y-91699319D01*
X177956801Y-92013605D02*
X177956801Y-91413605D01*
X177671087Y-92013605D02*
X177671087Y-91413605D01*
X177413945Y-91985034D02*
X177328231Y-92013605D01*
X177328231Y-92013605D02*
X177185373Y-92013605D01*
X177185373Y-92013605D02*
X177128231Y-91985034D01*
X177128231Y-91985034D02*
X177099659Y-91956462D01*
X177099659Y-91956462D02*
X177071088Y-91899319D01*
X177071088Y-91899319D02*
X177071088Y-91842176D01*
X177071088Y-91842176D02*
X177099659Y-91785034D01*
X177099659Y-91785034D02*
X177128231Y-91756462D01*
X177128231Y-91756462D02*
X177185373Y-91727891D01*
X177185373Y-91727891D02*
X177299659Y-91699319D01*
X177299659Y-91699319D02*
X177356802Y-91670748D01*
X177356802Y-91670748D02*
X177385373Y-91642176D01*
X177385373Y-91642176D02*
X177413945Y-91585034D01*
X177413945Y-91585034D02*
X177413945Y-91527891D01*
X177413945Y-91527891D02*
X177385373Y-91470748D01*
X177385373Y-91470748D02*
X177356802Y-91442176D01*
X177356802Y-91442176D02*
X177299659Y-91413605D01*
X177299659Y-91413605D02*
X177156802Y-91413605D01*
X177156802Y-91413605D02*
X177071088Y-91442176D01*
X176356801Y-92013605D02*
X176356801Y-91413605D01*
X176356801Y-91413605D02*
X176128230Y-91413605D01*
X176128230Y-91413605D02*
X176071087Y-91442176D01*
X176071087Y-91442176D02*
X176042516Y-91470748D01*
X176042516Y-91470748D02*
X176013944Y-91527891D01*
X176013944Y-91527891D02*
X176013944Y-91613605D01*
X176013944Y-91613605D02*
X176042516Y-91670748D01*
X176042516Y-91670748D02*
X176071087Y-91699319D01*
X176071087Y-91699319D02*
X176128230Y-91727891D01*
X176128230Y-91727891D02*
X176356801Y-91727891D01*
X175756801Y-92013605D02*
X175756801Y-91413605D01*
X175471087Y-92013605D02*
X175471087Y-91413605D01*
X175471087Y-91413605D02*
X175128230Y-92013605D01*
X175128230Y-92013605D02*
X175128230Y-91413605D01*
X174871088Y-91985034D02*
X174785374Y-92013605D01*
X174785374Y-92013605D02*
X174642516Y-92013605D01*
X174642516Y-92013605D02*
X174585374Y-91985034D01*
X174585374Y-91985034D02*
X174556802Y-91956462D01*
X174556802Y-91956462D02*
X174528231Y-91899319D01*
X174528231Y-91899319D02*
X174528231Y-91842176D01*
X174528231Y-91842176D02*
X174556802Y-91785034D01*
X174556802Y-91785034D02*
X174585374Y-91756462D01*
X174585374Y-91756462D02*
X174642516Y-91727891D01*
X174642516Y-91727891D02*
X174756802Y-91699319D01*
X174756802Y-91699319D02*
X174813945Y-91670748D01*
X174813945Y-91670748D02*
X174842516Y-91642176D01*
X174842516Y-91642176D02*
X174871088Y-91585034D01*
X174871088Y-91585034D02*
X174871088Y-91527891D01*
X174871088Y-91527891D02*
X174842516Y-91470748D01*
X174842516Y-91470748D02*
X174813945Y-91442176D01*
X174813945Y-91442176D02*
X174756802Y-91413605D01*
X174756802Y-91413605D02*
X174613945Y-91413605D01*
X174613945Y-91413605D02*
X174528231Y-91442176D01*
X182185373Y-92379571D02*
X181842516Y-92379571D01*
X182013944Y-92979571D02*
X182013944Y-92379571D01*
X181528230Y-92379571D02*
X181413944Y-92379571D01*
X181413944Y-92379571D02*
X181356801Y-92408142D01*
X181356801Y-92408142D02*
X181299658Y-92465285D01*
X181299658Y-92465285D02*
X181271087Y-92579571D01*
X181271087Y-92579571D02*
X181271087Y-92779571D01*
X181271087Y-92779571D02*
X181299658Y-92893857D01*
X181299658Y-92893857D02*
X181356801Y-92951000D01*
X181356801Y-92951000D02*
X181413944Y-92979571D01*
X181413944Y-92979571D02*
X181528230Y-92979571D01*
X181528230Y-92979571D02*
X181585373Y-92951000D01*
X181585373Y-92951000D02*
X181642515Y-92893857D01*
X181642515Y-92893857D02*
X181671087Y-92779571D01*
X181671087Y-92779571D02*
X181671087Y-92579571D01*
X181671087Y-92579571D02*
X181642515Y-92465285D01*
X181642515Y-92465285D02*
X181585373Y-92408142D01*
X181585373Y-92408142D02*
X181528230Y-92379571D01*
X180556801Y-92979571D02*
X180556801Y-92379571D01*
X180556801Y-92379571D02*
X180328230Y-92379571D01*
X180328230Y-92379571D02*
X180271087Y-92408142D01*
X180271087Y-92408142D02*
X180242516Y-92436714D01*
X180242516Y-92436714D02*
X180213944Y-92493857D01*
X180213944Y-92493857D02*
X180213944Y-92579571D01*
X180213944Y-92579571D02*
X180242516Y-92636714D01*
X180242516Y-92636714D02*
X180271087Y-92665285D01*
X180271087Y-92665285D02*
X180328230Y-92693857D01*
X180328230Y-92693857D02*
X180556801Y-92693857D01*
X179842516Y-92379571D02*
X179728230Y-92379571D01*
X179728230Y-92379571D02*
X179671087Y-92408142D01*
X179671087Y-92408142D02*
X179613944Y-92465285D01*
X179613944Y-92465285D02*
X179585373Y-92579571D01*
X179585373Y-92579571D02*
X179585373Y-92779571D01*
X179585373Y-92779571D02*
X179613944Y-92893857D01*
X179613944Y-92893857D02*
X179671087Y-92951000D01*
X179671087Y-92951000D02*
X179728230Y-92979571D01*
X179728230Y-92979571D02*
X179842516Y-92979571D01*
X179842516Y-92979571D02*
X179899659Y-92951000D01*
X179899659Y-92951000D02*
X179956801Y-92893857D01*
X179956801Y-92893857D02*
X179985373Y-92779571D01*
X179985373Y-92779571D02*
X179985373Y-92579571D01*
X179985373Y-92579571D02*
X179956801Y-92465285D01*
X179956801Y-92465285D02*
X179899659Y-92408142D01*
X179899659Y-92408142D02*
X179842516Y-92379571D01*
X179385373Y-92379571D02*
X179242516Y-92979571D01*
X179242516Y-92979571D02*
X179128230Y-92551000D01*
X179128230Y-92551000D02*
X179013945Y-92979571D01*
X179013945Y-92979571D02*
X178871088Y-92379571D01*
X178642516Y-92665285D02*
X178442516Y-92665285D01*
X178356802Y-92979571D02*
X178642516Y-92979571D01*
X178642516Y-92979571D02*
X178642516Y-92379571D01*
X178642516Y-92379571D02*
X178356802Y-92379571D01*
X177756802Y-92979571D02*
X177956802Y-92693857D01*
X178099659Y-92979571D02*
X178099659Y-92379571D01*
X178099659Y-92379571D02*
X177871088Y-92379571D01*
X177871088Y-92379571D02*
X177813945Y-92408142D01*
X177813945Y-92408142D02*
X177785374Y-92436714D01*
X177785374Y-92436714D02*
X177756802Y-92493857D01*
X177756802Y-92493857D02*
X177756802Y-92579571D01*
X177756802Y-92579571D02*
X177785374Y-92636714D01*
X177785374Y-92636714D02*
X177813945Y-92665285D01*
X177813945Y-92665285D02*
X177871088Y-92693857D01*
X177871088Y-92693857D02*
X178099659Y-92693857D01*
X176928231Y-92379571D02*
X176813945Y-92379571D01*
X176813945Y-92379571D02*
X176756802Y-92408142D01*
X176756802Y-92408142D02*
X176699659Y-92465285D01*
X176699659Y-92465285D02*
X176671088Y-92579571D01*
X176671088Y-92579571D02*
X176671088Y-92779571D01*
X176671088Y-92779571D02*
X176699659Y-92893857D01*
X176699659Y-92893857D02*
X176756802Y-92951000D01*
X176756802Y-92951000D02*
X176813945Y-92979571D01*
X176813945Y-92979571D02*
X176928231Y-92979571D01*
X176928231Y-92979571D02*
X176985374Y-92951000D01*
X176985374Y-92951000D02*
X177042516Y-92893857D01*
X177042516Y-92893857D02*
X177071088Y-92779571D01*
X177071088Y-92779571D02*
X177071088Y-92579571D01*
X177071088Y-92579571D02*
X177042516Y-92465285D01*
X177042516Y-92465285D02*
X176985374Y-92408142D01*
X176985374Y-92408142D02*
X176928231Y-92379571D01*
X176413945Y-92979571D02*
X176413945Y-92379571D01*
X176413945Y-92379571D02*
X176071088Y-92979571D01*
X176071088Y-92979571D02*
X176071088Y-92379571D01*
X175356803Y-92951000D02*
X175271089Y-92979571D01*
X175271089Y-92979571D02*
X175128231Y-92979571D01*
X175128231Y-92979571D02*
X175071089Y-92951000D01*
X175071089Y-92951000D02*
X175042517Y-92922428D01*
X175042517Y-92922428D02*
X175013946Y-92865285D01*
X175013946Y-92865285D02*
X175013946Y-92808142D01*
X175013946Y-92808142D02*
X175042517Y-92751000D01*
X175042517Y-92751000D02*
X175071089Y-92722428D01*
X175071089Y-92722428D02*
X175128231Y-92693857D01*
X175128231Y-92693857D02*
X175242517Y-92665285D01*
X175242517Y-92665285D02*
X175299660Y-92636714D01*
X175299660Y-92636714D02*
X175328231Y-92608142D01*
X175328231Y-92608142D02*
X175356803Y-92551000D01*
X175356803Y-92551000D02*
X175356803Y-92493857D01*
X175356803Y-92493857D02*
X175328231Y-92436714D01*
X175328231Y-92436714D02*
X175299660Y-92408142D01*
X175299660Y-92408142D02*
X175242517Y-92379571D01*
X175242517Y-92379571D02*
X175099660Y-92379571D01*
X175099660Y-92379571D02*
X175013946Y-92408142D01*
X174642517Y-92693857D02*
X174642517Y-92979571D01*
X174842517Y-92379571D02*
X174642517Y-92693857D01*
X174642517Y-92693857D02*
X174442517Y-92379571D01*
X174271088Y-92951000D02*
X174185374Y-92979571D01*
X174185374Y-92979571D02*
X174042516Y-92979571D01*
X174042516Y-92979571D02*
X173985374Y-92951000D01*
X173985374Y-92951000D02*
X173956802Y-92922428D01*
X173956802Y-92922428D02*
X173928231Y-92865285D01*
X173928231Y-92865285D02*
X173928231Y-92808142D01*
X173928231Y-92808142D02*
X173956802Y-92751000D01*
X173956802Y-92751000D02*
X173985374Y-92722428D01*
X173985374Y-92722428D02*
X174042516Y-92693857D01*
X174042516Y-92693857D02*
X174156802Y-92665285D01*
X174156802Y-92665285D02*
X174213945Y-92636714D01*
X174213945Y-92636714D02*
X174242516Y-92608142D01*
X174242516Y-92608142D02*
X174271088Y-92551000D01*
X174271088Y-92551000D02*
X174271088Y-92493857D01*
X174271088Y-92493857D02*
X174242516Y-92436714D01*
X174242516Y-92436714D02*
X174213945Y-92408142D01*
X174213945Y-92408142D02*
X174156802Y-92379571D01*
X174156802Y-92379571D02*
X174013945Y-92379571D01*
X174013945Y-92379571D02*
X173928231Y-92408142D01*
X173756802Y-92379571D02*
X173413945Y-92379571D01*
X173585373Y-92979571D02*
X173585373Y-92379571D01*
X173213944Y-92665285D02*
X173013944Y-92665285D01*
X172928230Y-92979571D02*
X173213944Y-92979571D01*
X173213944Y-92979571D02*
X173213944Y-92379571D01*
X173213944Y-92379571D02*
X172928230Y-92379571D01*
X172671087Y-92979571D02*
X172671087Y-92379571D01*
X172671087Y-92379571D02*
X172471087Y-92808142D01*
X172471087Y-92808142D02*
X172271087Y-92379571D01*
X172271087Y-92379571D02*
X172271087Y-92979571D01*
D12*
G36*
X149188695Y-92337692D02*
G01*
X147055361Y-92337692D01*
X147055361Y-91449596D01*
X147222028Y-91449596D01*
X147222028Y-91806739D01*
X147223486Y-91821550D01*
X147223206Y-91825500D01*
X147224387Y-91830694D01*
X147224910Y-91836003D01*
X147226427Y-91839665D01*
X147229726Y-91854173D01*
X147301154Y-92068459D01*
X147313143Y-92095310D01*
X147351490Y-92139524D01*
X147403838Y-92165698D01*
X147462218Y-92169847D01*
X147517742Y-92151339D01*
X147561956Y-92112991D01*
X147588130Y-92060644D01*
X147592279Y-92002264D01*
X147585759Y-91973590D01*
X147522028Y-91782398D01*
X147522028Y-91485006D01*
X147566735Y-91395591D01*
X147603739Y-91358587D01*
X147693152Y-91313882D01*
X147765190Y-91313882D01*
X147854601Y-91358587D01*
X147891606Y-91395592D01*
X147944786Y-91501952D01*
X148012221Y-91771690D01*
X148012991Y-91773845D01*
X148013068Y-91774929D01*
X148017735Y-91787125D01*
X148022114Y-91799381D01*
X148022758Y-91800251D01*
X148023578Y-91802392D01*
X148095007Y-91945250D01*
X148102935Y-91957845D01*
X148104451Y-91961504D01*
X148107830Y-91965621D01*
X148110672Y-91970136D01*
X148113666Y-91972732D01*
X148123106Y-91984235D01*
X148194535Y-92055663D01*
X148206035Y-92065101D01*
X148208632Y-92068095D01*
X148213144Y-92070935D01*
X148217265Y-92074317D01*
X148220924Y-92075832D01*
X148233518Y-92083760D01*
X148376374Y-92155189D01*
X148403838Y-92165698D01*
X148409212Y-92166079D01*
X148414193Y-92168143D01*
X148443457Y-92171025D01*
X148586314Y-92171025D01*
X148615578Y-92168143D01*
X148620558Y-92166079D01*
X148625933Y-92165698D01*
X148653396Y-92155189D01*
X148796253Y-92083760D01*
X148808848Y-92075831D01*
X148812505Y-92074317D01*
X148816622Y-92070937D01*
X148821139Y-92068095D01*
X148823736Y-92065100D01*
X148835236Y-92055663D01*
X148906665Y-91984235D01*
X148916104Y-91972732D01*
X148919100Y-91970135D01*
X148921941Y-91965620D01*
X148925320Y-91961504D01*
X148926835Y-91957845D01*
X148934764Y-91945249D01*
X149006193Y-91802391D01*
X149016702Y-91774928D01*
X149017083Y-91769552D01*
X149019146Y-91764574D01*
X149022028Y-91735310D01*
X149022028Y-91378168D01*
X149020569Y-91363362D01*
X149020851Y-91359408D01*
X149019668Y-91354206D01*
X149019146Y-91348904D01*
X149017630Y-91345246D01*
X149014331Y-91330734D01*
X148942903Y-91116448D01*
X148930915Y-91089597D01*
X148892567Y-91045383D01*
X148840220Y-91019209D01*
X148781840Y-91015059D01*
X148726315Y-91033567D01*
X148682101Y-91071915D01*
X148655927Y-91124262D01*
X148651777Y-91182642D01*
X148658297Y-91211316D01*
X148722028Y-91402510D01*
X148722028Y-91699900D01*
X148677322Y-91789312D01*
X148640318Y-91826317D01*
X148550904Y-91871025D01*
X148478867Y-91871025D01*
X148389453Y-91826317D01*
X148352448Y-91789313D01*
X148299269Y-91682954D01*
X148231835Y-91413216D01*
X148231063Y-91411057D01*
X148230987Y-91409977D01*
X148226326Y-91397796D01*
X148221942Y-91385525D01*
X148221297Y-91384655D01*
X148220478Y-91382513D01*
X148149049Y-91239657D01*
X148141121Y-91227063D01*
X148139606Y-91223404D01*
X148136224Y-91219283D01*
X148133384Y-91214771D01*
X148130390Y-91212174D01*
X148120952Y-91200674D01*
X148049524Y-91129245D01*
X148038021Y-91119805D01*
X148035425Y-91116811D01*
X148030910Y-91113969D01*
X148026793Y-91110590D01*
X148023134Y-91109074D01*
X148010539Y-91101146D01*
X147867682Y-91029718D01*
X147840218Y-91019208D01*
X147834842Y-91018826D01*
X147829864Y-91016764D01*
X147800600Y-91013882D01*
X147657742Y-91013882D01*
X147628478Y-91016764D01*
X147623499Y-91018826D01*
X147618124Y-91019208D01*
X147590661Y-91029718D01*
X147447803Y-91101146D01*
X147435208Y-91109074D01*
X147431549Y-91110590D01*
X147427428Y-91113971D01*
X147422918Y-91116811D01*
X147420323Y-91119802D01*
X147408818Y-91129245D01*
X147337390Y-91200674D01*
X147327952Y-91212173D01*
X147324958Y-91214771D01*
X147322115Y-91219287D01*
X147318736Y-91223405D01*
X147317221Y-91227061D01*
X147309293Y-91239657D01*
X147237864Y-91382514D01*
X147227355Y-91409977D01*
X147226973Y-91415351D01*
X147224910Y-91420332D01*
X147222028Y-91449596D01*
X147055361Y-91449596D01*
X147055361Y-90163882D01*
X147222028Y-90163882D01*
X147222028Y-90306739D01*
X147223486Y-90321550D01*
X147223206Y-90325500D01*
X147224387Y-90330694D01*
X147224910Y-90336003D01*
X147226427Y-90339665D01*
X147229726Y-90354173D01*
X147301154Y-90568459D01*
X147313143Y-90595310D01*
X147316673Y-90599380D01*
X147318736Y-90604360D01*
X147337391Y-90627091D01*
X147408819Y-90698519D01*
X147431549Y-90717174D01*
X147485622Y-90739570D01*
X147544148Y-90739570D01*
X147598220Y-90717174D01*
X147639606Y-90675788D01*
X147662002Y-90621716D01*
X147662002Y-90563190D01*
X147639606Y-90509117D01*
X147620951Y-90486387D01*
X147574561Y-90439997D01*
X147522028Y-90282398D01*
X147522028Y-90188222D01*
X147574561Y-90030623D01*
X147675168Y-89930016D01*
X147781527Y-89876837D01*
X148033349Y-89813882D01*
X148210707Y-89813882D01*
X148462528Y-89876836D01*
X148568888Y-89930017D01*
X148669494Y-90030622D01*
X148722028Y-90188224D01*
X148722028Y-90282396D01*
X148669494Y-90439998D01*
X148623106Y-90486386D01*
X148604451Y-90509117D01*
X148582053Y-90563189D01*
X148582053Y-90621715D01*
X148604450Y-90675787D01*
X148645835Y-90717173D01*
X148699907Y-90739571D01*
X148758433Y-90739571D01*
X148812505Y-90717174D01*
X148835236Y-90698520D01*
X148906665Y-90627092D01*
X148925320Y-90604361D01*
X148927381Y-90599384D01*
X148930915Y-90595310D01*
X148942903Y-90568459D01*
X149014331Y-90354173D01*
X149017630Y-90339660D01*
X149019146Y-90336003D01*
X149019668Y-90330700D01*
X149020851Y-90325499D01*
X149020569Y-90321544D01*
X149022028Y-90306739D01*
X149022028Y-90163882D01*
X149020569Y-90149076D01*
X149020851Y-90145122D01*
X149019668Y-90139920D01*
X149019146Y-90134618D01*
X149017630Y-90130960D01*
X149014331Y-90116448D01*
X148942903Y-89902162D01*
X148930915Y-89875311D01*
X148927383Y-89871239D01*
X148925321Y-89866260D01*
X148906666Y-89843530D01*
X148763808Y-89700673D01*
X148752306Y-89691233D01*
X148749710Y-89688240D01*
X148745196Y-89685399D01*
X148741077Y-89682018D01*
X148737417Y-89680502D01*
X148724824Y-89672575D01*
X148581967Y-89601146D01*
X148579826Y-89600326D01*
X148578956Y-89599682D01*
X148566678Y-89595295D01*
X148554504Y-89590637D01*
X148553423Y-89590560D01*
X148551265Y-89589789D01*
X148265551Y-89518361D01*
X148260479Y-89517611D01*
X148258435Y-89516764D01*
X148247412Y-89515678D01*
X148236462Y-89514059D01*
X148234274Y-89514384D01*
X148229171Y-89513882D01*
X148014885Y-89513882D01*
X148009781Y-89514384D01*
X148007594Y-89514059D01*
X147996643Y-89515678D01*
X147985621Y-89516764D01*
X147983576Y-89517611D01*
X147978505Y-89518361D01*
X147692791Y-89589789D01*
X147690632Y-89590560D01*
X147689552Y-89590637D01*
X147677371Y-89595297D01*
X147665100Y-89599682D01*
X147664230Y-89600326D01*
X147662088Y-89601146D01*
X147519232Y-89672575D01*
X147506640Y-89680501D01*
X147502978Y-89682018D01*
X147498855Y-89685401D01*
X147494346Y-89688240D01*
X147491750Y-89691232D01*
X147480248Y-89700673D01*
X147337391Y-89843530D01*
X147318736Y-89866261D01*
X147316673Y-89871240D01*
X147313143Y-89875311D01*
X147301154Y-89902162D01*
X147229726Y-90116448D01*
X147226427Y-90130955D01*
X147224910Y-90134618D01*
X147224387Y-90139926D01*
X147223206Y-90145121D01*
X147223486Y-90149070D01*
X147222028Y-90163882D01*
X147055361Y-90163882D01*
X147055361Y-89347215D01*
X149188695Y-89347215D01*
X149188695Y-92337692D01*
G37*
G36*
X152038695Y-84250548D02*
G01*
X149905361Y-84250548D01*
X149905361Y-83904617D01*
X150074910Y-83904617D01*
X150074910Y-83963145D01*
X150097308Y-84017217D01*
X150138692Y-84058601D01*
X150192764Y-84080999D01*
X150222028Y-84083881D01*
X151722028Y-84083881D01*
X151751292Y-84080999D01*
X151805364Y-84058601D01*
X151846748Y-84017217D01*
X151869146Y-83963145D01*
X151869146Y-83904617D01*
X151846748Y-83850545D01*
X151805364Y-83809161D01*
X151751292Y-83786763D01*
X151722028Y-83783881D01*
X150222028Y-83783881D01*
X150192764Y-83786763D01*
X150138692Y-83809161D01*
X150097308Y-83850545D01*
X150074910Y-83904617D01*
X149905361Y-83904617D01*
X149905361Y-82719596D01*
X150072028Y-82719596D01*
X150072028Y-83076739D01*
X150073486Y-83091550D01*
X150073206Y-83095500D01*
X150074387Y-83100694D01*
X150074910Y-83106003D01*
X150076427Y-83109665D01*
X150079726Y-83124173D01*
X150151154Y-83338459D01*
X150163143Y-83365310D01*
X150201490Y-83409524D01*
X150253838Y-83435698D01*
X150312218Y-83439847D01*
X150367742Y-83421339D01*
X150411956Y-83382991D01*
X150438130Y-83330644D01*
X150442279Y-83272264D01*
X150435759Y-83243590D01*
X150372028Y-83052398D01*
X150372028Y-82755006D01*
X150416735Y-82665591D01*
X150453739Y-82628587D01*
X150543152Y-82583882D01*
X150615190Y-82583882D01*
X150704601Y-82628587D01*
X150741606Y-82665592D01*
X150794786Y-82771952D01*
X150862221Y-83041690D01*
X150862991Y-83043845D01*
X150863068Y-83044929D01*
X150867735Y-83057125D01*
X150872114Y-83069381D01*
X150872758Y-83070251D01*
X150873578Y-83072392D01*
X150945007Y-83215250D01*
X150952935Y-83227845D01*
X150954451Y-83231504D01*
X150957830Y-83235621D01*
X150960672Y-83240136D01*
X150963666Y-83242732D01*
X150973106Y-83254235D01*
X151044535Y-83325663D01*
X151056035Y-83335101D01*
X151058632Y-83338095D01*
X151063144Y-83340935D01*
X151067265Y-83344317D01*
X151070924Y-83345832D01*
X151083518Y-83353760D01*
X151226374Y-83425189D01*
X151253838Y-83435698D01*
X151259212Y-83436079D01*
X151264193Y-83438143D01*
X151293457Y-83441025D01*
X151436314Y-83441025D01*
X151465578Y-83438143D01*
X151470558Y-83436079D01*
X151475933Y-83435698D01*
X151503396Y-83425189D01*
X151646253Y-83353760D01*
X151658848Y-83345831D01*
X151662505Y-83344317D01*
X151666622Y-83340937D01*
X151671139Y-83338095D01*
X151673736Y-83335100D01*
X151685236Y-83325663D01*
X151756665Y-83254235D01*
X151766104Y-83242732D01*
X151769100Y-83240135D01*
X151771941Y-83235620D01*
X151775320Y-83231504D01*
X151776835Y-83227845D01*
X151784764Y-83215249D01*
X151856193Y-83072391D01*
X151866702Y-83044928D01*
X151867083Y-83039552D01*
X151869146Y-83034574D01*
X151872028Y-83005310D01*
X151872028Y-82648168D01*
X151870569Y-82633362D01*
X151870851Y-82629408D01*
X151869668Y-82624206D01*
X151869146Y-82618904D01*
X151867630Y-82615246D01*
X151864331Y-82600734D01*
X151792903Y-82386448D01*
X151780915Y-82359597D01*
X151742567Y-82315383D01*
X151690220Y-82289209D01*
X151631840Y-82285059D01*
X151576315Y-82303567D01*
X151532101Y-82341915D01*
X151505927Y-82394262D01*
X151501777Y-82452642D01*
X151508297Y-82481316D01*
X151572028Y-82672510D01*
X151572028Y-82969900D01*
X151527322Y-83059312D01*
X151490318Y-83096317D01*
X151400904Y-83141025D01*
X151328867Y-83141025D01*
X151239453Y-83096317D01*
X151202448Y-83059313D01*
X151149269Y-82952954D01*
X151081835Y-82683216D01*
X151081063Y-82681057D01*
X151080987Y-82679977D01*
X151076326Y-82667796D01*
X151071942Y-82655525D01*
X151071297Y-82654655D01*
X151070478Y-82652513D01*
X150999049Y-82509657D01*
X150991121Y-82497063D01*
X150989606Y-82493404D01*
X150986224Y-82489283D01*
X150983384Y-82484771D01*
X150980390Y-82482174D01*
X150970952Y-82470674D01*
X150899524Y-82399245D01*
X150888021Y-82389805D01*
X150885425Y-82386811D01*
X150880910Y-82383969D01*
X150876793Y-82380590D01*
X150873134Y-82379074D01*
X150860539Y-82371146D01*
X150717682Y-82299718D01*
X150690218Y-82289208D01*
X150684842Y-82288826D01*
X150679864Y-82286764D01*
X150650600Y-82283882D01*
X150507742Y-82283882D01*
X150478478Y-82286764D01*
X150473499Y-82288826D01*
X150468124Y-82289208D01*
X150440661Y-82299718D01*
X150297803Y-82371146D01*
X150285208Y-82379074D01*
X150281549Y-82380590D01*
X150277428Y-82383971D01*
X150272918Y-82386811D01*
X150270323Y-82389802D01*
X150258818Y-82399245D01*
X150187390Y-82470674D01*
X150177952Y-82482173D01*
X150174958Y-82484771D01*
X150172115Y-82489287D01*
X150168736Y-82493405D01*
X150167221Y-82497061D01*
X150159293Y-82509657D01*
X150087864Y-82652514D01*
X150077355Y-82679977D01*
X150076973Y-82685351D01*
X150074910Y-82690332D01*
X150072028Y-82719596D01*
X149905361Y-82719596D01*
X149905361Y-82117215D01*
X152038695Y-82117215D01*
X152038695Y-84250548D01*
G37*
G36*
X146928118Y-95681628D02*
G01*
X146745318Y-95681628D01*
X146587715Y-95629094D01*
X146487110Y-95528488D01*
X146433929Y-95422128D01*
X146370975Y-95170307D01*
X146370975Y-94992948D01*
X146433929Y-94741127D01*
X146487110Y-94634767D01*
X146587716Y-94534161D01*
X146745318Y-94481628D01*
X146928118Y-94481628D01*
X146928118Y-95681628D01*
G37*
G36*
X145441433Y-95253057D02*
G01*
X145143374Y-95253057D01*
X145292403Y-94805969D01*
X145441433Y-95253057D01*
G37*
G36*
X148894784Y-96148295D02*
G01*
X144476914Y-96148295D01*
X144476914Y-95812867D01*
X144643581Y-95812867D01*
X144647730Y-95871248D01*
X144673904Y-95923595D01*
X144718118Y-95961942D01*
X144773642Y-95980450D01*
X144832023Y-95976301D01*
X144884370Y-95950127D01*
X144922717Y-95905913D01*
X144934705Y-95879062D01*
X145043374Y-95553057D01*
X145541433Y-95553057D01*
X145650101Y-95879062D01*
X145662089Y-95905913D01*
X145700436Y-95950128D01*
X145752784Y-95976301D01*
X145811164Y-95980451D01*
X145866688Y-95961942D01*
X145910902Y-95923595D01*
X145937076Y-95871248D01*
X145941226Y-95812868D01*
X145934706Y-95784194D01*
X145664802Y-94974485D01*
X146070975Y-94974485D01*
X146070975Y-95188771D01*
X146071477Y-95193874D01*
X146071152Y-95196062D01*
X146072771Y-95207012D01*
X146073857Y-95218035D01*
X146074704Y-95220079D01*
X146075454Y-95225151D01*
X146146882Y-95510865D01*
X146147653Y-95513023D01*
X146147730Y-95514104D01*
X146152388Y-95526278D01*
X146156775Y-95538556D01*
X146157419Y-95539426D01*
X146158239Y-95541567D01*
X146229668Y-95684424D01*
X146237595Y-95697017D01*
X146239111Y-95700677D01*
X146242492Y-95704796D01*
X146245333Y-95709310D01*
X146248326Y-95711906D01*
X146257766Y-95723408D01*
X146400623Y-95866266D01*
X146423353Y-95884921D01*
X146428332Y-95886983D01*
X146432404Y-95890515D01*
X146459255Y-95902503D01*
X146673541Y-95973931D01*
X146688053Y-95977230D01*
X146691711Y-95978746D01*
X146697013Y-95979268D01*
X146702215Y-95980451D01*
X146706169Y-95980169D01*
X146720975Y-95981628D01*
X147078118Y-95981628D01*
X147107382Y-95978746D01*
X147161454Y-95956348D01*
X147202838Y-95914964D01*
X147225236Y-95860892D01*
X147228118Y-95831628D01*
X147228118Y-95403057D01*
X147570974Y-95403057D01*
X147570974Y-95545914D01*
X147573856Y-95575178D01*
X147575919Y-95580158D01*
X147576301Y-95585533D01*
X147586810Y-95612996D01*
X147658239Y-95755853D01*
X147666166Y-95768446D01*
X147667682Y-95772106D01*
X147671063Y-95776225D01*
X147673904Y-95780739D01*
X147676897Y-95783335D01*
X147686337Y-95794837D01*
X147757766Y-95866266D01*
X147769270Y-95875707D01*
X147771865Y-95878699D01*
X147776374Y-95881537D01*
X147780497Y-95884921D01*
X147784158Y-95886437D01*
X147796750Y-95894364D01*
X147939608Y-95965792D01*
X147967071Y-95976302D01*
X147972446Y-95976683D01*
X147977425Y-95978746D01*
X148006689Y-95981628D01*
X148363832Y-95981628D01*
X148378637Y-95980169D01*
X148382592Y-95980451D01*
X148387793Y-95979268D01*
X148393096Y-95978746D01*
X148396753Y-95977230D01*
X148411266Y-95973931D01*
X148625551Y-95902503D01*
X148652402Y-95890514D01*
X148696616Y-95852167D01*
X148722790Y-95799820D01*
X148726939Y-95741440D01*
X148708431Y-95685915D01*
X148670084Y-95641701D01*
X148617737Y-95615527D01*
X148559357Y-95611378D01*
X148530683Y-95617897D01*
X148339489Y-95681628D01*
X148042099Y-95681628D01*
X147952685Y-95636921D01*
X147915681Y-95599917D01*
X147870974Y-95510503D01*
X147870974Y-95438467D01*
X147915681Y-95349053D01*
X147952686Y-95312048D01*
X148059045Y-95258869D01*
X148328783Y-95191435D01*
X148330941Y-95190663D01*
X148332022Y-95190587D01*
X148344196Y-95185928D01*
X148356474Y-95181542D01*
X148357344Y-95180897D01*
X148359485Y-95180078D01*
X148502342Y-95108649D01*
X148514937Y-95100720D01*
X148518594Y-95099206D01*
X148522711Y-95095826D01*
X148527228Y-95092984D01*
X148529825Y-95089989D01*
X148541325Y-95080552D01*
X148612754Y-95009124D01*
X148622196Y-94997618D01*
X148625188Y-94995024D01*
X148628027Y-94990513D01*
X148631409Y-94986393D01*
X148632924Y-94982733D01*
X148640853Y-94970139D01*
X148712281Y-94827281D01*
X148722791Y-94799818D01*
X148723172Y-94794442D01*
X148725235Y-94789464D01*
X148728117Y-94760200D01*
X148728117Y-94617342D01*
X148725235Y-94588078D01*
X148723172Y-94583099D01*
X148722791Y-94577724D01*
X148712281Y-94550261D01*
X148640853Y-94407403D01*
X148632924Y-94394808D01*
X148631409Y-94391149D01*
X148628027Y-94387028D01*
X148625188Y-94382518D01*
X148622196Y-94379923D01*
X148612754Y-94368418D01*
X148541325Y-94296990D01*
X148529825Y-94287552D01*
X148527228Y-94284558D01*
X148522711Y-94281715D01*
X148518594Y-94278336D01*
X148514937Y-94276821D01*
X148502342Y-94268893D01*
X148359485Y-94197464D01*
X148332022Y-94186955D01*
X148326647Y-94186573D01*
X148321667Y-94184510D01*
X148292403Y-94181628D01*
X147935260Y-94181628D01*
X147920448Y-94183086D01*
X147916499Y-94182806D01*
X147911304Y-94183987D01*
X147905996Y-94184510D01*
X147902334Y-94186026D01*
X147887825Y-94189326D01*
X147673540Y-94260755D01*
X147646689Y-94272743D01*
X147602474Y-94311091D01*
X147576301Y-94363438D01*
X147572152Y-94421818D01*
X147590660Y-94477342D01*
X147629008Y-94521557D01*
X147681355Y-94547730D01*
X147739735Y-94551879D01*
X147768408Y-94545359D01*
X147959603Y-94481628D01*
X148256993Y-94481628D01*
X148346407Y-94526335D01*
X148383411Y-94563339D01*
X148428117Y-94652751D01*
X148428117Y-94724790D01*
X148383411Y-94814202D01*
X148346407Y-94851206D01*
X148240046Y-94904387D01*
X147970309Y-94971821D01*
X147968150Y-94972592D01*
X147967070Y-94972669D01*
X147954889Y-94977329D01*
X147942618Y-94981714D01*
X147941748Y-94982358D01*
X147939606Y-94983178D01*
X147796750Y-95054607D01*
X147784156Y-95062534D01*
X147780497Y-95064050D01*
X147776377Y-95067431D01*
X147771864Y-95070272D01*
X147769267Y-95073266D01*
X147757766Y-95082705D01*
X147686337Y-95154134D01*
X147676897Y-95165635D01*
X147673904Y-95168232D01*
X147671063Y-95172745D01*
X147667682Y-95176865D01*
X147666166Y-95180524D01*
X147658239Y-95193118D01*
X147586810Y-95335975D01*
X147576301Y-95363438D01*
X147575919Y-95368812D01*
X147573856Y-95373793D01*
X147570974Y-95403057D01*
X147228118Y-95403057D01*
X147228118Y-94331628D01*
X147225236Y-94302364D01*
X147202838Y-94248292D01*
X147161454Y-94206908D01*
X147107382Y-94184510D01*
X147078118Y-94181628D01*
X146720975Y-94181628D01*
X146706163Y-94183086D01*
X146702214Y-94182806D01*
X146697019Y-94183987D01*
X146691711Y-94184510D01*
X146688049Y-94186026D01*
X146673540Y-94189326D01*
X146459255Y-94260755D01*
X146432404Y-94272743D01*
X146428334Y-94276272D01*
X146423353Y-94278336D01*
X146400623Y-94296991D01*
X146257766Y-94439848D01*
X146248326Y-94451349D01*
X146245333Y-94453946D01*
X146242492Y-94458459D01*
X146239111Y-94462579D01*
X146237595Y-94466238D01*
X146229668Y-94478832D01*
X146158239Y-94621689D01*
X146157419Y-94623829D01*
X146156775Y-94624700D01*
X146152388Y-94636977D01*
X146147730Y-94649152D01*
X146147653Y-94650232D01*
X146146882Y-94652391D01*
X146075454Y-94938105D01*
X146074704Y-94943176D01*
X146073857Y-94945221D01*
X146072771Y-94956243D01*
X146071152Y-94967194D01*
X146071477Y-94969381D01*
X146070975Y-94974485D01*
X145664802Y-94974485D01*
X145434705Y-94284194D01*
X145422717Y-94257343D01*
X145415694Y-94249246D01*
X145410902Y-94239661D01*
X145396693Y-94227337D01*
X145384370Y-94213129D01*
X145374784Y-94208336D01*
X145366688Y-94201314D01*
X145348844Y-94195365D01*
X145332023Y-94186955D01*
X145321334Y-94186195D01*
X145311164Y-94182805D01*
X145292398Y-94184138D01*
X145273642Y-94182806D01*
X145263474Y-94186195D01*
X145252784Y-94186955D01*
X145235960Y-94195366D01*
X145218118Y-94201314D01*
X145210023Y-94208334D01*
X145200436Y-94213128D01*
X145188110Y-94227339D01*
X145173904Y-94239661D01*
X145169111Y-94249245D01*
X145162089Y-94257343D01*
X145150101Y-94284194D01*
X144650101Y-95784194D01*
X144643581Y-95812867D01*
X144476914Y-95812867D01*
X144476914Y-94014961D01*
X148894784Y-94014961D01*
X148894784Y-96148295D01*
G37*
G36*
X159063331Y-99148295D02*
G01*
X154790022Y-99148295D01*
X154790022Y-98188771D01*
X154956689Y-98188771D01*
X154956689Y-98545914D01*
X154959571Y-98575178D01*
X154961634Y-98580158D01*
X154962016Y-98585533D01*
X154972525Y-98612996D01*
X155043954Y-98755853D01*
X155051881Y-98768446D01*
X155053397Y-98772106D01*
X155056778Y-98776225D01*
X155059619Y-98780739D01*
X155062612Y-98783335D01*
X155072052Y-98794837D01*
X155143481Y-98866266D01*
X155154985Y-98875707D01*
X155157580Y-98878699D01*
X155162089Y-98881537D01*
X155166212Y-98884921D01*
X155169873Y-98886437D01*
X155182465Y-98894364D01*
X155325323Y-98965792D01*
X155352786Y-98976302D01*
X155358161Y-98976683D01*
X155363140Y-98978746D01*
X155392404Y-98981628D01*
X155820975Y-98981628D01*
X155850239Y-98978746D01*
X155855217Y-98976683D01*
X155860593Y-98976302D01*
X155888057Y-98965792D01*
X156030914Y-98894364D01*
X156043507Y-98886436D01*
X156047167Y-98884921D01*
X156051286Y-98881539D01*
X156055800Y-98878699D01*
X156058396Y-98875705D01*
X156069898Y-98866266D01*
X156141327Y-98794837D01*
X156159982Y-98772106D01*
X156182379Y-98718034D01*
X156182379Y-98659508D01*
X156159982Y-98605436D01*
X156118596Y-98564050D01*
X156064524Y-98541653D01*
X156005998Y-98541653D01*
X155951926Y-98564050D01*
X155929195Y-98582705D01*
X155874977Y-98636922D01*
X155785565Y-98681628D01*
X155427814Y-98681628D01*
X155338400Y-98636921D01*
X155301396Y-98599917D01*
X155256689Y-98510503D01*
X155256689Y-98224181D01*
X155301396Y-98134767D01*
X155338400Y-98097763D01*
X155427814Y-98053057D01*
X155606689Y-98053057D01*
X155622166Y-98051532D01*
X155626101Y-98051795D01*
X155628811Y-98050878D01*
X155635953Y-98050175D01*
X155658467Y-98040848D01*
X155681543Y-98033045D01*
X155685350Y-98029713D01*
X155690025Y-98027777D01*
X155707254Y-98010547D01*
X155725590Y-97994504D01*
X155727832Y-97989969D01*
X155731409Y-97986393D01*
X155740735Y-97963876D01*
X155751534Y-97942041D01*
X155751870Y-97936996D01*
X155753807Y-97932321D01*
X155753807Y-97907945D01*
X155755427Y-97883645D01*
X155753807Y-97878854D01*
X155753807Y-97873793D01*
X155744482Y-97851281D01*
X155736677Y-97828202D01*
X155732504Y-97822365D01*
X155731409Y-97819721D01*
X155728618Y-97816930D01*
X155719575Y-97804281D01*
X155437254Y-97481628D01*
X156035261Y-97481628D01*
X156064525Y-97478746D01*
X156118597Y-97456348D01*
X156159981Y-97414964D01*
X156182379Y-97360892D01*
X156182379Y-97350389D01*
X156243581Y-97350389D01*
X156250101Y-97379062D01*
X156750101Y-98879062D01*
X156762089Y-98905913D01*
X156769111Y-98914010D01*
X156773904Y-98923595D01*
X156788110Y-98935916D01*
X156800436Y-98950128D01*
X156810023Y-98954921D01*
X156818118Y-98961942D01*
X156835960Y-98967889D01*
X156852784Y-98976301D01*
X156863474Y-98977060D01*
X156873642Y-98980450D01*
X156892398Y-98979117D01*
X156911164Y-98980451D01*
X156921334Y-98977060D01*
X156932023Y-98976301D01*
X156948844Y-98967890D01*
X156966688Y-98961942D01*
X156974784Y-98954919D01*
X156984370Y-98950127D01*
X156996693Y-98935918D01*
X157010902Y-98923595D01*
X157015694Y-98914009D01*
X157022717Y-98905913D01*
X157034705Y-98879062D01*
X157264802Y-98188771D01*
X157670974Y-98188771D01*
X157670974Y-98545914D01*
X157673856Y-98575178D01*
X157675919Y-98580158D01*
X157676301Y-98585533D01*
X157686810Y-98612996D01*
X157758239Y-98755853D01*
X157766166Y-98768446D01*
X157767682Y-98772106D01*
X157771063Y-98776225D01*
X157773904Y-98780739D01*
X157776897Y-98783335D01*
X157786337Y-98794837D01*
X157857766Y-98866266D01*
X157869270Y-98875707D01*
X157871865Y-98878699D01*
X157876374Y-98881537D01*
X157880497Y-98884921D01*
X157884158Y-98886437D01*
X157896750Y-98894364D01*
X158039608Y-98965792D01*
X158067071Y-98976302D01*
X158072446Y-98976683D01*
X158077425Y-98978746D01*
X158106689Y-98981628D01*
X158535260Y-98981628D01*
X158564524Y-98978746D01*
X158569502Y-98976683D01*
X158574878Y-98976302D01*
X158602342Y-98965792D01*
X158745199Y-98894364D01*
X158757792Y-98886436D01*
X158761452Y-98884921D01*
X158765571Y-98881539D01*
X158770085Y-98878699D01*
X158772681Y-98875705D01*
X158784183Y-98866266D01*
X158855612Y-98794837D01*
X158874267Y-98772106D01*
X158896664Y-98718034D01*
X158896664Y-98659508D01*
X158874267Y-98605436D01*
X158832881Y-98564050D01*
X158778809Y-98541653D01*
X158720283Y-98541653D01*
X158666211Y-98564050D01*
X158643480Y-98582705D01*
X158589262Y-98636922D01*
X158499850Y-98681628D01*
X158142099Y-98681628D01*
X158052685Y-98636921D01*
X158015681Y-98599917D01*
X157970974Y-98510503D01*
X157970974Y-98224181D01*
X158015681Y-98134767D01*
X158052685Y-98097763D01*
X158142099Y-98053057D01*
X158320974Y-98053057D01*
X158336451Y-98051532D01*
X158340386Y-98051795D01*
X158343096Y-98050878D01*
X158350238Y-98050175D01*
X158372752Y-98040848D01*
X158395828Y-98033045D01*
X158399635Y-98029713D01*
X158404310Y-98027777D01*
X158421539Y-98010547D01*
X158439875Y-97994504D01*
X158442117Y-97989969D01*
X158445694Y-97986393D01*
X158455020Y-97963876D01*
X158465819Y-97942041D01*
X158466155Y-97936996D01*
X158468092Y-97932321D01*
X158468092Y-97907945D01*
X158469712Y-97883645D01*
X158468092Y-97878854D01*
X158468092Y-97873793D01*
X158458767Y-97851281D01*
X158450962Y-97828202D01*
X158446789Y-97822365D01*
X158445694Y-97819721D01*
X158442903Y-97816930D01*
X158433860Y-97804281D01*
X158151539Y-97481628D01*
X158749546Y-97481628D01*
X158778810Y-97478746D01*
X158832882Y-97456348D01*
X158874266Y-97414964D01*
X158896664Y-97360892D01*
X158896664Y-97302364D01*
X158874266Y-97248292D01*
X158832882Y-97206908D01*
X158778810Y-97184510D01*
X158749546Y-97181628D01*
X157820974Y-97181628D01*
X157805501Y-97183151D01*
X157801562Y-97182889D01*
X157798847Y-97183807D01*
X157791710Y-97184510D01*
X157769201Y-97193833D01*
X157746120Y-97201640D01*
X157742312Y-97204971D01*
X157737638Y-97206908D01*
X157720408Y-97224137D01*
X157702073Y-97240181D01*
X157699830Y-97244715D01*
X157696254Y-97248292D01*
X157686927Y-97270808D01*
X157676129Y-97292644D01*
X157675792Y-97297688D01*
X157673856Y-97302364D01*
X157673856Y-97326730D01*
X157672235Y-97351040D01*
X157673856Y-97355832D01*
X157673856Y-97360892D01*
X157683179Y-97383400D01*
X157690986Y-97406482D01*
X157695157Y-97412318D01*
X157696254Y-97414964D01*
X157699043Y-97417753D01*
X157708087Y-97430404D01*
X158015021Y-97781186D01*
X157896750Y-97840321D01*
X157884158Y-97848247D01*
X157880497Y-97849764D01*
X157876374Y-97853147D01*
X157871865Y-97855986D01*
X157869270Y-97858977D01*
X157857766Y-97868419D01*
X157786337Y-97939848D01*
X157776897Y-97951349D01*
X157773904Y-97953946D01*
X157771063Y-97958459D01*
X157767682Y-97962579D01*
X157766166Y-97966238D01*
X157758239Y-97978832D01*
X157686810Y-98121689D01*
X157676301Y-98149152D01*
X157675919Y-98154526D01*
X157673856Y-98159507D01*
X157670974Y-98188771D01*
X157264802Y-98188771D01*
X157534706Y-97379062D01*
X157541226Y-97350388D01*
X157537076Y-97292008D01*
X157510902Y-97239661D01*
X157466688Y-97201314D01*
X157411164Y-97182805D01*
X157352784Y-97186955D01*
X157300436Y-97213128D01*
X157262089Y-97257343D01*
X157250101Y-97284194D01*
X156892403Y-98357286D01*
X156534705Y-97284194D01*
X156522717Y-97257343D01*
X156484370Y-97213129D01*
X156432023Y-97186955D01*
X156373642Y-97182806D01*
X156318118Y-97201314D01*
X156273904Y-97239661D01*
X156247730Y-97292008D01*
X156243581Y-97350389D01*
X156182379Y-97350389D01*
X156182379Y-97302364D01*
X156159981Y-97248292D01*
X156118597Y-97206908D01*
X156064525Y-97184510D01*
X156035261Y-97181628D01*
X155106689Y-97181628D01*
X155091216Y-97183151D01*
X155087277Y-97182889D01*
X155084562Y-97183807D01*
X155077425Y-97184510D01*
X155054916Y-97193833D01*
X155031835Y-97201640D01*
X155028027Y-97204971D01*
X155023353Y-97206908D01*
X155006123Y-97224137D01*
X154987788Y-97240181D01*
X154985545Y-97244715D01*
X154981969Y-97248292D01*
X154972642Y-97270808D01*
X154961844Y-97292644D01*
X154961507Y-97297688D01*
X154959571Y-97302364D01*
X154959571Y-97326730D01*
X154957950Y-97351040D01*
X154959571Y-97355832D01*
X154959571Y-97360892D01*
X154968894Y-97383400D01*
X154976701Y-97406482D01*
X154980872Y-97412318D01*
X154981969Y-97414964D01*
X154984758Y-97417753D01*
X154993802Y-97430404D01*
X155300736Y-97781186D01*
X155182465Y-97840321D01*
X155169873Y-97848247D01*
X155166212Y-97849764D01*
X155162089Y-97853147D01*
X155157580Y-97855986D01*
X155154985Y-97858977D01*
X155143481Y-97868419D01*
X155072052Y-97939848D01*
X155062612Y-97951349D01*
X155059619Y-97953946D01*
X155056778Y-97958459D01*
X155053397Y-97962579D01*
X155051881Y-97966238D01*
X155043954Y-97978832D01*
X154972525Y-98121689D01*
X154962016Y-98149152D01*
X154961634Y-98154526D01*
X154959571Y-98159507D01*
X154956689Y-98188771D01*
X154790022Y-98188771D01*
X154790022Y-97014961D01*
X159063331Y-97014961D01*
X159063331Y-99148295D01*
G37*
G36*
X151957038Y-93542931D02*
G01*
X149823704Y-93542931D01*
X149823704Y-92586289D01*
X149990371Y-92586289D01*
X149990371Y-93014860D01*
X149993253Y-93044124D01*
X149995316Y-93049104D01*
X149995698Y-93054479D01*
X150006207Y-93081942D01*
X150077636Y-93224799D01*
X150085564Y-93237394D01*
X150087079Y-93241051D01*
X150090458Y-93245168D01*
X150093301Y-93249685D01*
X150096295Y-93252282D01*
X150105733Y-93263782D01*
X150177161Y-93335211D01*
X150199892Y-93353866D01*
X150253964Y-93376263D01*
X150312490Y-93376264D01*
X150366562Y-93353867D01*
X150407948Y-93312482D01*
X150430345Y-93258410D01*
X150430346Y-93199884D01*
X150407949Y-93145811D01*
X150389295Y-93123081D01*
X150335078Y-93068864D01*
X150290371Y-92979449D01*
X150290371Y-92621699D01*
X150335078Y-92532284D01*
X150372082Y-92495280D01*
X150461495Y-92450574D01*
X150747818Y-92450574D01*
X150837231Y-92495281D01*
X150874235Y-92532285D01*
X150918942Y-92621698D01*
X150918942Y-92800574D01*
X150920465Y-92816046D01*
X150920203Y-92819986D01*
X150921121Y-92822700D01*
X150921824Y-92829838D01*
X150931147Y-92852346D01*
X150938954Y-92875428D01*
X150942285Y-92879235D01*
X150944222Y-92883910D01*
X150961451Y-92901139D01*
X150977495Y-92919475D01*
X150982029Y-92921717D01*
X150985606Y-92925294D01*
X151008122Y-92934620D01*
X151029958Y-92945419D01*
X151035002Y-92945755D01*
X151039678Y-92947692D01*
X151064045Y-92947692D01*
X151088354Y-92949313D01*
X151093147Y-92947692D01*
X151098206Y-92947692D01*
X151120714Y-92938368D01*
X151143796Y-92930562D01*
X151149632Y-92926390D01*
X151152278Y-92925294D01*
X151155067Y-92922504D01*
X151167718Y-92913461D01*
X151490371Y-92631139D01*
X151490371Y-93229146D01*
X151493253Y-93258410D01*
X151515651Y-93312482D01*
X151557035Y-93353866D01*
X151611107Y-93376264D01*
X151669635Y-93376264D01*
X151723707Y-93353866D01*
X151765091Y-93312482D01*
X151787489Y-93258410D01*
X151790371Y-93229146D01*
X151790371Y-92300574D01*
X151788846Y-92285096D01*
X151789109Y-92281162D01*
X151788192Y-92278451D01*
X151787489Y-92271310D01*
X151778162Y-92248795D01*
X151770359Y-92225720D01*
X151767027Y-92221912D01*
X151765091Y-92217238D01*
X151747861Y-92200008D01*
X151731818Y-92181673D01*
X151727283Y-92179430D01*
X151723707Y-92175854D01*
X151701190Y-92166527D01*
X151679355Y-92155729D01*
X151674310Y-92155392D01*
X151669635Y-92153456D01*
X151645259Y-92153456D01*
X151620959Y-92151836D01*
X151616169Y-92153456D01*
X151611107Y-92153456D01*
X151588595Y-92162780D01*
X151565516Y-92170586D01*
X151559679Y-92174758D01*
X151557035Y-92175854D01*
X151554244Y-92178644D01*
X151541595Y-92187688D01*
X151190812Y-92494621D01*
X151131678Y-92376350D01*
X151123751Y-92363758D01*
X151122235Y-92360097D01*
X151118851Y-92355974D01*
X151116013Y-92351465D01*
X151113021Y-92348870D01*
X151103580Y-92337366D01*
X151032151Y-92265937D01*
X151020649Y-92256497D01*
X151018053Y-92253504D01*
X151013539Y-92250663D01*
X151009420Y-92247282D01*
X151005760Y-92245766D01*
X150993167Y-92237839D01*
X150850310Y-92166410D01*
X150822847Y-92155901D01*
X150817472Y-92155519D01*
X150812492Y-92153456D01*
X150783228Y-92150574D01*
X150426085Y-92150574D01*
X150396821Y-92153456D01*
X150391840Y-92155519D01*
X150386466Y-92155901D01*
X150359002Y-92166410D01*
X150216146Y-92237839D01*
X150203549Y-92245767D01*
X150199892Y-92247283D01*
X150195774Y-92250662D01*
X150191260Y-92253504D01*
X150188662Y-92256498D01*
X150177161Y-92265938D01*
X150105733Y-92337367D01*
X150096295Y-92348866D01*
X150093301Y-92351464D01*
X150090458Y-92355980D01*
X150087079Y-92360098D01*
X150085564Y-92363754D01*
X150077636Y-92376350D01*
X150006207Y-92519207D01*
X149995698Y-92546670D01*
X149995316Y-92552044D01*
X149993253Y-92557025D01*
X149990371Y-92586289D01*
X149823704Y-92586289D01*
X149823704Y-91353242D01*
X149991549Y-91353242D01*
X149992882Y-91372003D01*
X149991549Y-91390764D01*
X149994938Y-91400931D01*
X149995698Y-91411623D01*
X150004109Y-91428446D01*
X150010057Y-91446288D01*
X150017079Y-91454384D01*
X150021872Y-91463970D01*
X150036080Y-91476293D01*
X150048404Y-91490502D01*
X150057989Y-91495294D01*
X150066086Y-91502317D01*
X150092937Y-91514305D01*
X151592937Y-92014306D01*
X151621611Y-92020826D01*
X151679991Y-92016676D01*
X151732338Y-91990502D01*
X151770685Y-91946288D01*
X151789194Y-91890764D01*
X151785044Y-91832384D01*
X151758871Y-91780036D01*
X151714656Y-91741689D01*
X151687805Y-91729701D01*
X150614711Y-91372003D01*
X151687805Y-91014305D01*
X151714656Y-91002317D01*
X151758871Y-90963970D01*
X151785044Y-90911622D01*
X151789194Y-90853242D01*
X151770685Y-90797718D01*
X151732338Y-90753504D01*
X151679991Y-90727330D01*
X151621611Y-90723180D01*
X151592937Y-90729700D01*
X150092937Y-91229701D01*
X150066086Y-91241689D01*
X150057989Y-91248711D01*
X150048404Y-91253504D01*
X150036080Y-91267712D01*
X150021872Y-91280036D01*
X150017079Y-91289621D01*
X150010057Y-91297718D01*
X150004109Y-91315559D01*
X149995698Y-91332383D01*
X149994938Y-91343074D01*
X149991549Y-91353242D01*
X149823704Y-91353242D01*
X149823704Y-89872004D01*
X149990371Y-89872004D01*
X149990371Y-90300575D01*
X149993253Y-90329839D01*
X149995316Y-90334819D01*
X149995698Y-90340194D01*
X150006207Y-90367657D01*
X150077636Y-90510514D01*
X150085564Y-90523109D01*
X150087079Y-90526766D01*
X150090458Y-90530883D01*
X150093301Y-90535400D01*
X150096295Y-90537997D01*
X150105733Y-90549497D01*
X150177161Y-90620926D01*
X150199892Y-90639581D01*
X150253964Y-90661978D01*
X150312490Y-90661979D01*
X150366562Y-90639582D01*
X150407948Y-90598197D01*
X150430345Y-90544125D01*
X150430346Y-90485599D01*
X150407949Y-90431526D01*
X150389295Y-90408796D01*
X150335078Y-90354579D01*
X150290371Y-90265164D01*
X150290371Y-89907414D01*
X150335078Y-89817999D01*
X150372082Y-89780995D01*
X150461495Y-89736289D01*
X150747818Y-89736289D01*
X150837231Y-89780996D01*
X150874235Y-89818000D01*
X150918942Y-89907413D01*
X150918942Y-90086289D01*
X150920465Y-90101761D01*
X150920203Y-90105701D01*
X150921121Y-90108415D01*
X150921824Y-90115553D01*
X150931147Y-90138061D01*
X150938954Y-90161143D01*
X150942285Y-90164950D01*
X150944222Y-90169625D01*
X150961451Y-90186854D01*
X150977495Y-90205190D01*
X150982029Y-90207432D01*
X150985606Y-90211009D01*
X151008122Y-90220335D01*
X151029958Y-90231134D01*
X151035002Y-90231470D01*
X151039678Y-90233407D01*
X151064045Y-90233407D01*
X151088354Y-90235028D01*
X151093147Y-90233407D01*
X151098206Y-90233407D01*
X151120714Y-90224083D01*
X151143796Y-90216277D01*
X151149632Y-90212105D01*
X151152278Y-90211009D01*
X151155067Y-90208219D01*
X151167718Y-90199176D01*
X151490371Y-89916854D01*
X151490371Y-90514861D01*
X151493253Y-90544125D01*
X151515651Y-90598197D01*
X151557035Y-90639581D01*
X151611107Y-90661979D01*
X151669635Y-90661979D01*
X151723707Y-90639581D01*
X151765091Y-90598197D01*
X151787489Y-90544125D01*
X151790371Y-90514861D01*
X151790371Y-89586289D01*
X151788846Y-89570811D01*
X151789109Y-89566877D01*
X151788192Y-89564166D01*
X151787489Y-89557025D01*
X151778162Y-89534510D01*
X151770359Y-89511435D01*
X151767027Y-89507627D01*
X151765091Y-89502953D01*
X151747861Y-89485723D01*
X151731818Y-89467388D01*
X151727283Y-89465145D01*
X151723707Y-89461569D01*
X151701190Y-89452242D01*
X151679355Y-89441444D01*
X151674310Y-89441107D01*
X151669635Y-89439171D01*
X151645259Y-89439171D01*
X151620959Y-89437551D01*
X151616169Y-89439171D01*
X151611107Y-89439171D01*
X151588595Y-89448495D01*
X151565516Y-89456301D01*
X151559679Y-89460473D01*
X151557035Y-89461569D01*
X151554244Y-89464359D01*
X151541595Y-89473403D01*
X151190812Y-89780336D01*
X151131678Y-89662065D01*
X151123751Y-89649473D01*
X151122235Y-89645812D01*
X151118851Y-89641689D01*
X151116013Y-89637180D01*
X151113021Y-89634585D01*
X151103580Y-89623081D01*
X151032151Y-89551652D01*
X151020649Y-89542212D01*
X151018053Y-89539219D01*
X151013539Y-89536378D01*
X151009420Y-89532997D01*
X151005760Y-89531481D01*
X150993167Y-89523554D01*
X150850310Y-89452125D01*
X150822847Y-89441616D01*
X150817472Y-89441234D01*
X150812492Y-89439171D01*
X150783228Y-89436289D01*
X150426085Y-89436289D01*
X150396821Y-89439171D01*
X150391840Y-89441234D01*
X150386466Y-89441616D01*
X150359002Y-89452125D01*
X150216146Y-89523554D01*
X150203549Y-89531482D01*
X150199892Y-89532998D01*
X150195774Y-89536377D01*
X150191260Y-89539219D01*
X150188662Y-89542213D01*
X150177161Y-89551653D01*
X150105733Y-89623082D01*
X150096295Y-89634581D01*
X150093301Y-89637179D01*
X150090458Y-89641695D01*
X150087079Y-89645813D01*
X150085564Y-89649469D01*
X150077636Y-89662065D01*
X150006207Y-89804922D01*
X149995698Y-89832385D01*
X149995316Y-89837759D01*
X149993253Y-89842740D01*
X149990371Y-89872004D01*
X149823704Y-89872004D01*
X149823704Y-89269622D01*
X151957038Y-89269622D01*
X151957038Y-93542931D01*
G37*
D11*
X145646644Y-110656584D02*
X145646644Y-109856584D01*
X145646644Y-109856584D02*
X145341882Y-109856584D01*
X145341882Y-109856584D02*
X145265692Y-109894679D01*
X145265692Y-109894679D02*
X145227597Y-109932774D01*
X145227597Y-109932774D02*
X145189501Y-110008965D01*
X145189501Y-110008965D02*
X145189501Y-110123250D01*
X145189501Y-110123250D02*
X145227597Y-110199441D01*
X145227597Y-110199441D02*
X145265692Y-110237536D01*
X145265692Y-110237536D02*
X145341882Y-110275631D01*
X145341882Y-110275631D02*
X145646644Y-110275631D01*
X144846644Y-110656584D02*
X144846644Y-110123250D01*
X144846644Y-109856584D02*
X144884740Y-109894679D01*
X144884740Y-109894679D02*
X144846644Y-109932774D01*
X144846644Y-109932774D02*
X144808549Y-109894679D01*
X144808549Y-109894679D02*
X144846644Y-109856584D01*
X144846644Y-109856584D02*
X144846644Y-109932774D01*
X144351407Y-110656584D02*
X144427597Y-110618489D01*
X144427597Y-110618489D02*
X144465692Y-110542298D01*
X144465692Y-110542298D02*
X144465692Y-109856584D01*
X143932359Y-110656584D02*
X144008549Y-110618489D01*
X144008549Y-110618489D02*
X144046644Y-110580393D01*
X144046644Y-110580393D02*
X144084740Y-110504203D01*
X144084740Y-110504203D02*
X144084740Y-110275631D01*
X144084740Y-110275631D02*
X144046644Y-110199441D01*
X144046644Y-110199441D02*
X144008549Y-110161346D01*
X144008549Y-110161346D02*
X143932359Y-110123250D01*
X143932359Y-110123250D02*
X143818073Y-110123250D01*
X143818073Y-110123250D02*
X143741882Y-110161346D01*
X143741882Y-110161346D02*
X143703787Y-110199441D01*
X143703787Y-110199441D02*
X143665692Y-110275631D01*
X143665692Y-110275631D02*
X143665692Y-110504203D01*
X143665692Y-110504203D02*
X143703787Y-110580393D01*
X143703787Y-110580393D02*
X143741882Y-110618489D01*
X143741882Y-110618489D02*
X143818073Y-110656584D01*
X143818073Y-110656584D02*
X143932359Y-110656584D01*
X143437120Y-110123250D02*
X143132358Y-110123250D01*
X143322834Y-109856584D02*
X143322834Y-110542298D01*
X143322834Y-110542298D02*
X143284739Y-110618489D01*
X143284739Y-110618489D02*
X143208549Y-110656584D01*
X143208549Y-110656584D02*
X143132358Y-110656584D01*
X141913310Y-109856584D02*
X142065691Y-109856584D01*
X142065691Y-109856584D02*
X142141882Y-109894679D01*
X142141882Y-109894679D02*
X142179977Y-109932774D01*
X142179977Y-109932774D02*
X142256167Y-110047060D01*
X142256167Y-110047060D02*
X142294263Y-110199441D01*
X142294263Y-110199441D02*
X142294263Y-110504203D01*
X142294263Y-110504203D02*
X142256167Y-110580393D01*
X142256167Y-110580393D02*
X142218072Y-110618489D01*
X142218072Y-110618489D02*
X142141882Y-110656584D01*
X142141882Y-110656584D02*
X141989501Y-110656584D01*
X141989501Y-110656584D02*
X141913310Y-110618489D01*
X141913310Y-110618489D02*
X141875215Y-110580393D01*
X141875215Y-110580393D02*
X141837120Y-110504203D01*
X141837120Y-110504203D02*
X141837120Y-110313727D01*
X141837120Y-110313727D02*
X141875215Y-110237536D01*
X141875215Y-110237536D02*
X141913310Y-110199441D01*
X141913310Y-110199441D02*
X141989501Y-110161346D01*
X141989501Y-110161346D02*
X142141882Y-110161346D01*
X142141882Y-110161346D02*
X142218072Y-110199441D01*
X142218072Y-110199441D02*
X142256167Y-110237536D01*
X142256167Y-110237536D02*
X142294263Y-110313727D01*
X140541881Y-110656584D02*
X140541881Y-110237536D01*
X140541881Y-110237536D02*
X140579976Y-110161346D01*
X140579976Y-110161346D02*
X140656167Y-110123250D01*
X140656167Y-110123250D02*
X140808548Y-110123250D01*
X140808548Y-110123250D02*
X140884738Y-110161346D01*
X140541881Y-110618489D02*
X140618072Y-110656584D01*
X140618072Y-110656584D02*
X140808548Y-110656584D01*
X140808548Y-110656584D02*
X140884738Y-110618489D01*
X140884738Y-110618489D02*
X140922834Y-110542298D01*
X140922834Y-110542298D02*
X140922834Y-110466108D01*
X140922834Y-110466108D02*
X140884738Y-110389917D01*
X140884738Y-110389917D02*
X140808548Y-110351822D01*
X140808548Y-110351822D02*
X140618072Y-110351822D01*
X140618072Y-110351822D02*
X140541881Y-110313727D01*
X140237119Y-110656584D02*
X139818071Y-110123250D01*
X140237119Y-110123250D02*
X139818071Y-110656584D01*
X139513309Y-110656584D02*
X139513309Y-110123250D01*
X139513309Y-109856584D02*
X139551405Y-109894679D01*
X139551405Y-109894679D02*
X139513309Y-109932774D01*
X139513309Y-109932774D02*
X139475214Y-109894679D01*
X139475214Y-109894679D02*
X139513309Y-109856584D01*
X139513309Y-109856584D02*
X139513309Y-109932774D01*
X139170453Y-110618489D02*
X139094262Y-110656584D01*
X139094262Y-110656584D02*
X138941881Y-110656584D01*
X138941881Y-110656584D02*
X138865691Y-110618489D01*
X138865691Y-110618489D02*
X138827595Y-110542298D01*
X138827595Y-110542298D02*
X138827595Y-110504203D01*
X138827595Y-110504203D02*
X138865691Y-110428012D01*
X138865691Y-110428012D02*
X138941881Y-110389917D01*
X138941881Y-110389917D02*
X139056167Y-110389917D01*
X139056167Y-110389917D02*
X139132357Y-110351822D01*
X139132357Y-110351822D02*
X139170453Y-110275631D01*
X139170453Y-110275631D02*
X139170453Y-110237536D01*
X139170453Y-110237536D02*
X139132357Y-110161346D01*
X139132357Y-110161346D02*
X139056167Y-110123250D01*
X139056167Y-110123250D02*
X138941881Y-110123250D01*
X138941881Y-110123250D02*
X138865691Y-110161346D01*
X145303787Y-111944539D02*
X145303787Y-111144539D01*
X145303787Y-111906444D02*
X145379978Y-111944539D01*
X145379978Y-111944539D02*
X145532359Y-111944539D01*
X145532359Y-111944539D02*
X145608549Y-111906444D01*
X145608549Y-111906444D02*
X145646644Y-111868348D01*
X145646644Y-111868348D02*
X145684740Y-111792158D01*
X145684740Y-111792158D02*
X145684740Y-111563586D01*
X145684740Y-111563586D02*
X145646644Y-111487396D01*
X145646644Y-111487396D02*
X145608549Y-111449301D01*
X145608549Y-111449301D02*
X145532359Y-111411205D01*
X145532359Y-111411205D02*
X145379978Y-111411205D01*
X145379978Y-111411205D02*
X145303787Y-111449301D01*
X144618072Y-111906444D02*
X144694263Y-111944539D01*
X144694263Y-111944539D02*
X144846644Y-111944539D01*
X144846644Y-111944539D02*
X144922834Y-111906444D01*
X144922834Y-111906444D02*
X144960930Y-111830253D01*
X144960930Y-111830253D02*
X144960930Y-111525491D01*
X144960930Y-111525491D02*
X144922834Y-111449301D01*
X144922834Y-111449301D02*
X144846644Y-111411205D01*
X144846644Y-111411205D02*
X144694263Y-111411205D01*
X144694263Y-111411205D02*
X144618072Y-111449301D01*
X144618072Y-111449301D02*
X144579977Y-111525491D01*
X144579977Y-111525491D02*
X144579977Y-111601682D01*
X144579977Y-111601682D02*
X144960930Y-111677872D01*
X144275216Y-111906444D02*
X144199025Y-111944539D01*
X144199025Y-111944539D02*
X144046644Y-111944539D01*
X144046644Y-111944539D02*
X143970454Y-111906444D01*
X143970454Y-111906444D02*
X143932358Y-111830253D01*
X143932358Y-111830253D02*
X143932358Y-111792158D01*
X143932358Y-111792158D02*
X143970454Y-111715967D01*
X143970454Y-111715967D02*
X144046644Y-111677872D01*
X144046644Y-111677872D02*
X144160930Y-111677872D01*
X144160930Y-111677872D02*
X144237120Y-111639777D01*
X144237120Y-111639777D02*
X144275216Y-111563586D01*
X144275216Y-111563586D02*
X144275216Y-111525491D01*
X144275216Y-111525491D02*
X144237120Y-111449301D01*
X144237120Y-111449301D02*
X144160930Y-111411205D01*
X144160930Y-111411205D02*
X144046644Y-111411205D01*
X144046644Y-111411205D02*
X143970454Y-111449301D01*
X143589501Y-111944539D02*
X143589501Y-111411205D01*
X143589501Y-111144539D02*
X143627597Y-111182634D01*
X143627597Y-111182634D02*
X143589501Y-111220729D01*
X143589501Y-111220729D02*
X143551406Y-111182634D01*
X143551406Y-111182634D02*
X143589501Y-111144539D01*
X143589501Y-111144539D02*
X143589501Y-111220729D01*
X142865692Y-111411205D02*
X142865692Y-112058824D01*
X142865692Y-112058824D02*
X142903787Y-112135015D01*
X142903787Y-112135015D02*
X142941883Y-112173110D01*
X142941883Y-112173110D02*
X143018073Y-112211205D01*
X143018073Y-112211205D02*
X143132359Y-112211205D01*
X143132359Y-112211205D02*
X143208549Y-112173110D01*
X142865692Y-111906444D02*
X142941883Y-111944539D01*
X142941883Y-111944539D02*
X143094264Y-111944539D01*
X143094264Y-111944539D02*
X143170454Y-111906444D01*
X143170454Y-111906444D02*
X143208549Y-111868348D01*
X143208549Y-111868348D02*
X143246645Y-111792158D01*
X143246645Y-111792158D02*
X143246645Y-111563586D01*
X143246645Y-111563586D02*
X143208549Y-111487396D01*
X143208549Y-111487396D02*
X143170454Y-111449301D01*
X143170454Y-111449301D02*
X143094264Y-111411205D01*
X143094264Y-111411205D02*
X142941883Y-111411205D01*
X142941883Y-111411205D02*
X142865692Y-111449301D01*
X142484739Y-111411205D02*
X142484739Y-111944539D01*
X142484739Y-111487396D02*
X142446644Y-111449301D01*
X142446644Y-111449301D02*
X142370454Y-111411205D01*
X142370454Y-111411205D02*
X142256168Y-111411205D01*
X142256168Y-111411205D02*
X142179977Y-111449301D01*
X142179977Y-111449301D02*
X142141882Y-111525491D01*
X142141882Y-111525491D02*
X142141882Y-111944539D01*
X141456167Y-111906444D02*
X141532358Y-111944539D01*
X141532358Y-111944539D02*
X141684739Y-111944539D01*
X141684739Y-111944539D02*
X141760929Y-111906444D01*
X141760929Y-111906444D02*
X141799025Y-111830253D01*
X141799025Y-111830253D02*
X141799025Y-111525491D01*
X141799025Y-111525491D02*
X141760929Y-111449301D01*
X141760929Y-111449301D02*
X141684739Y-111411205D01*
X141684739Y-111411205D02*
X141532358Y-111411205D01*
X141532358Y-111411205D02*
X141456167Y-111449301D01*
X141456167Y-111449301D02*
X141418072Y-111525491D01*
X141418072Y-111525491D02*
X141418072Y-111601682D01*
X141418072Y-111601682D02*
X141799025Y-111677872D01*
X140732358Y-111944539D02*
X140732358Y-111144539D01*
X140732358Y-111906444D02*
X140808549Y-111944539D01*
X140808549Y-111944539D02*
X140960930Y-111944539D01*
X140960930Y-111944539D02*
X141037120Y-111906444D01*
X141037120Y-111906444D02*
X141075215Y-111868348D01*
X141075215Y-111868348D02*
X141113311Y-111792158D01*
X141113311Y-111792158D02*
X141113311Y-111563586D01*
X141113311Y-111563586D02*
X141075215Y-111487396D01*
X141075215Y-111487396D02*
X141037120Y-111449301D01*
X141037120Y-111449301D02*
X140960930Y-111411205D01*
X140960930Y-111411205D02*
X140808549Y-111411205D01*
X140808549Y-111411205D02*
X140732358Y-111449301D01*
X139741881Y-111944539D02*
X139741881Y-111144539D01*
X139741881Y-111449301D02*
X139665691Y-111411205D01*
X139665691Y-111411205D02*
X139513310Y-111411205D01*
X139513310Y-111411205D02*
X139437119Y-111449301D01*
X139437119Y-111449301D02*
X139399024Y-111487396D01*
X139399024Y-111487396D02*
X139360929Y-111563586D01*
X139360929Y-111563586D02*
X139360929Y-111792158D01*
X139360929Y-111792158D02*
X139399024Y-111868348D01*
X139399024Y-111868348D02*
X139437119Y-111906444D01*
X139437119Y-111906444D02*
X139513310Y-111944539D01*
X139513310Y-111944539D02*
X139665691Y-111944539D01*
X139665691Y-111944539D02*
X139741881Y-111906444D01*
X139094262Y-111411205D02*
X138903786Y-111944539D01*
X138713309Y-111411205D02*
X138903786Y-111944539D01*
X138903786Y-111944539D02*
X138979976Y-112135015D01*
X138979976Y-112135015D02*
X139018071Y-112173110D01*
X139018071Y-112173110D02*
X139094262Y-112211205D01*
X137799023Y-111944539D02*
X137799023Y-111144539D01*
X137799023Y-111144539D02*
X137494261Y-111144539D01*
X137494261Y-111144539D02*
X137418071Y-111182634D01*
X137418071Y-111182634D02*
X137379976Y-111220729D01*
X137379976Y-111220729D02*
X137341880Y-111296920D01*
X137341880Y-111296920D02*
X137341880Y-111411205D01*
X137341880Y-111411205D02*
X137379976Y-111487396D01*
X137379976Y-111487396D02*
X137418071Y-111525491D01*
X137418071Y-111525491D02*
X137494261Y-111563586D01*
X137494261Y-111563586D02*
X137799023Y-111563586D01*
X136656166Y-111944539D02*
X136656166Y-111525491D01*
X136656166Y-111525491D02*
X136694261Y-111449301D01*
X136694261Y-111449301D02*
X136770452Y-111411205D01*
X136770452Y-111411205D02*
X136922833Y-111411205D01*
X136922833Y-111411205D02*
X136999023Y-111449301D01*
X136656166Y-111906444D02*
X136732357Y-111944539D01*
X136732357Y-111944539D02*
X136922833Y-111944539D01*
X136922833Y-111944539D02*
X136999023Y-111906444D01*
X136999023Y-111906444D02*
X137037119Y-111830253D01*
X137037119Y-111830253D02*
X137037119Y-111754063D01*
X137037119Y-111754063D02*
X136999023Y-111677872D01*
X136999023Y-111677872D02*
X136922833Y-111639777D01*
X136922833Y-111639777D02*
X136732357Y-111639777D01*
X136732357Y-111639777D02*
X136656166Y-111601682D01*
X136389499Y-111411205D02*
X136084737Y-111411205D01*
X136275213Y-111144539D02*
X136275213Y-111830253D01*
X136275213Y-111830253D02*
X136237118Y-111906444D01*
X136237118Y-111906444D02*
X136160928Y-111944539D01*
X136160928Y-111944539D02*
X136084737Y-111944539D01*
X135818070Y-111944539D02*
X135818070Y-111411205D01*
X135818070Y-111563586D02*
X135779975Y-111487396D01*
X135779975Y-111487396D02*
X135741880Y-111449301D01*
X135741880Y-111449301D02*
X135665689Y-111411205D01*
X135665689Y-111411205D02*
X135589499Y-111411205D01*
X135399023Y-111411205D02*
X135208547Y-111944539D01*
X135018070Y-111411205D02*
X135208547Y-111944539D01*
X135208547Y-111944539D02*
X135284737Y-112135015D01*
X135284737Y-112135015D02*
X135322832Y-112173110D01*
X135322832Y-112173110D02*
X135399023Y-112211205D01*
X134713308Y-111944539D02*
X134713308Y-111144539D01*
X134637118Y-111639777D02*
X134408546Y-111944539D01*
X134408546Y-111411205D02*
X134713308Y-111715967D01*
X133456165Y-111944539D02*
X133456165Y-111144539D01*
X133456165Y-111144539D02*
X133265689Y-111144539D01*
X133265689Y-111144539D02*
X133151403Y-111182634D01*
X133151403Y-111182634D02*
X133075213Y-111258824D01*
X133075213Y-111258824D02*
X133037118Y-111335015D01*
X133037118Y-111335015D02*
X132999022Y-111487396D01*
X132999022Y-111487396D02*
X132999022Y-111601682D01*
X132999022Y-111601682D02*
X133037118Y-111754063D01*
X133037118Y-111754063D02*
X133075213Y-111830253D01*
X133075213Y-111830253D02*
X133151403Y-111906444D01*
X133151403Y-111906444D02*
X133265689Y-111944539D01*
X133265689Y-111944539D02*
X133456165Y-111944539D01*
X132313308Y-111411205D02*
X132313308Y-111944539D01*
X132656165Y-111411205D02*
X132656165Y-111830253D01*
X132656165Y-111830253D02*
X132618070Y-111906444D01*
X132618070Y-111906444D02*
X132541880Y-111944539D01*
X132541880Y-111944539D02*
X132427594Y-111944539D01*
X132427594Y-111944539D02*
X132351403Y-111906444D01*
X132351403Y-111906444D02*
X132313308Y-111868348D01*
X131589498Y-111944539D02*
X131589498Y-111144539D01*
X131589498Y-111906444D02*
X131665689Y-111944539D01*
X131665689Y-111944539D02*
X131818070Y-111944539D01*
X131818070Y-111944539D02*
X131894260Y-111906444D01*
X131894260Y-111906444D02*
X131932355Y-111868348D01*
X131932355Y-111868348D02*
X131970451Y-111792158D01*
X131970451Y-111792158D02*
X131970451Y-111563586D01*
X131970451Y-111563586D02*
X131932355Y-111487396D01*
X131932355Y-111487396D02*
X131894260Y-111449301D01*
X131894260Y-111449301D02*
X131818070Y-111411205D01*
X131818070Y-111411205D02*
X131665689Y-111411205D01*
X131665689Y-111411205D02*
X131589498Y-111449301D01*
X131284736Y-111411205D02*
X130865688Y-111411205D01*
X130865688Y-111411205D02*
X131284736Y-111944539D01*
X131284736Y-111944539D02*
X130865688Y-111944539D01*
X130560926Y-111944539D02*
X130560926Y-111411205D01*
X130560926Y-111144539D02*
X130599022Y-111182634D01*
X130599022Y-111182634D02*
X130560926Y-111220729D01*
X130560926Y-111220729D02*
X130522831Y-111182634D01*
X130522831Y-111182634D02*
X130560926Y-111144539D01*
X130560926Y-111144539D02*
X130560926Y-111220729D01*
X130179974Y-111411205D02*
X130179974Y-111944539D01*
X130179974Y-111487396D02*
X130141879Y-111449301D01*
X130141879Y-111449301D02*
X130065689Y-111411205D01*
X130065689Y-111411205D02*
X129951403Y-111411205D01*
X129951403Y-111411205D02*
X129875212Y-111449301D01*
X129875212Y-111449301D02*
X129837117Y-111525491D01*
X129837117Y-111525491D02*
X129837117Y-111944539D01*
X129951403Y-111106444D02*
X130065689Y-111220729D01*
X129494260Y-111906444D02*
X129418069Y-111944539D01*
X129418069Y-111944539D02*
X129265688Y-111944539D01*
X129265688Y-111944539D02*
X129189498Y-111906444D01*
X129189498Y-111906444D02*
X129151402Y-111830253D01*
X129151402Y-111830253D02*
X129151402Y-111792158D01*
X129151402Y-111792158D02*
X129189498Y-111715967D01*
X129189498Y-111715967D02*
X129265688Y-111677872D01*
X129265688Y-111677872D02*
X129379974Y-111677872D01*
X129379974Y-111677872D02*
X129456164Y-111639777D01*
X129456164Y-111639777D02*
X129494260Y-111563586D01*
X129494260Y-111563586D02*
X129494260Y-111525491D01*
X129494260Y-111525491D02*
X129456164Y-111449301D01*
X129456164Y-111449301D02*
X129379974Y-111411205D01*
X129379974Y-111411205D02*
X129265688Y-111411205D01*
X129265688Y-111411205D02*
X129189498Y-111449301D01*
X128808545Y-111944539D02*
X128808545Y-111144539D01*
X128732355Y-111639777D02*
X128503783Y-111944539D01*
X128503783Y-111411205D02*
X128808545Y-111715967D01*
X128160926Y-111944539D02*
X128160926Y-111411205D01*
X128160926Y-111144539D02*
X128199022Y-111182634D01*
X128199022Y-111182634D02*
X128160926Y-111220729D01*
X128160926Y-111220729D02*
X128122831Y-111182634D01*
X128122831Y-111182634D02*
X128160926Y-111144539D01*
X128160926Y-111144539D02*
X128160926Y-111220729D01*
X145189501Y-113232494D02*
X145456168Y-112851541D01*
X145646644Y-113232494D02*
X145646644Y-112432494D01*
X145646644Y-112432494D02*
X145341882Y-112432494D01*
X145341882Y-112432494D02*
X145265692Y-112470589D01*
X145265692Y-112470589D02*
X145227597Y-112508684D01*
X145227597Y-112508684D02*
X145189501Y-112584875D01*
X145189501Y-112584875D02*
X145189501Y-112699160D01*
X145189501Y-112699160D02*
X145227597Y-112775351D01*
X145227597Y-112775351D02*
X145265692Y-112813446D01*
X145265692Y-112813446D02*
X145341882Y-112851541D01*
X145341882Y-112851541D02*
X145646644Y-112851541D01*
X144846644Y-112813446D02*
X144579978Y-112813446D01*
X144465692Y-113232494D02*
X144846644Y-113232494D01*
X144846644Y-113232494D02*
X144846644Y-112432494D01*
X144846644Y-112432494D02*
X144465692Y-112432494D01*
X144237120Y-112432494D02*
X143970453Y-113232494D01*
X143970453Y-113232494D02*
X143703787Y-112432494D01*
X142865692Y-112508684D02*
X142827596Y-112470589D01*
X142827596Y-112470589D02*
X142751406Y-112432494D01*
X142751406Y-112432494D02*
X142560930Y-112432494D01*
X142560930Y-112432494D02*
X142484739Y-112470589D01*
X142484739Y-112470589D02*
X142446644Y-112508684D01*
X142446644Y-112508684D02*
X142408549Y-112584875D01*
X142408549Y-112584875D02*
X142408549Y-112661065D01*
X142408549Y-112661065D02*
X142446644Y-112775351D01*
X142446644Y-112775351D02*
X142903787Y-113232494D01*
X142903787Y-113232494D02*
X142408549Y-113232494D01*
X142065691Y-113156303D02*
X142027596Y-113194399D01*
X142027596Y-113194399D02*
X142065691Y-113232494D01*
X142065691Y-113232494D02*
X142103787Y-113194399D01*
X142103787Y-113194399D02*
X142065691Y-113156303D01*
X142065691Y-113156303D02*
X142065691Y-113232494D01*
X141532358Y-112432494D02*
X141456168Y-112432494D01*
X141456168Y-112432494D02*
X141379977Y-112470589D01*
X141379977Y-112470589D02*
X141341882Y-112508684D01*
X141341882Y-112508684D02*
X141303787Y-112584875D01*
X141303787Y-112584875D02*
X141265692Y-112737256D01*
X141265692Y-112737256D02*
X141265692Y-112927732D01*
X141265692Y-112927732D02*
X141303787Y-113080113D01*
X141303787Y-113080113D02*
X141341882Y-113156303D01*
X141341882Y-113156303D02*
X141379977Y-113194399D01*
X141379977Y-113194399D02*
X141456168Y-113232494D01*
X141456168Y-113232494D02*
X141532358Y-113232494D01*
X141532358Y-113232494D02*
X141608549Y-113194399D01*
X141608549Y-113194399D02*
X141646644Y-113156303D01*
X141646644Y-113156303D02*
X141684739Y-113080113D01*
X141684739Y-113080113D02*
X141722835Y-112927732D01*
X141722835Y-112927732D02*
X141722835Y-112737256D01*
X141722835Y-112737256D02*
X141684739Y-112584875D01*
X141684739Y-112584875D02*
X141646644Y-112508684D01*
X141646644Y-112508684D02*
X141608549Y-112470589D01*
X141608549Y-112470589D02*
X141532358Y-112432494D01*
X138065691Y-113232494D02*
X138522834Y-113232494D01*
X138294262Y-113232494D02*
X138294262Y-112432494D01*
X138294262Y-112432494D02*
X138370453Y-112546779D01*
X138370453Y-112546779D02*
X138446643Y-112622970D01*
X138446643Y-112622970D02*
X138522834Y-112661065D01*
X137799024Y-112432494D02*
X137265690Y-112432494D01*
X137265690Y-112432494D02*
X137608548Y-113232494D01*
X136960928Y-113156303D02*
X136922833Y-113194399D01*
X136922833Y-113194399D02*
X136960928Y-113232494D01*
X136960928Y-113232494D02*
X136999024Y-113194399D01*
X136999024Y-113194399D02*
X136960928Y-113156303D01*
X136960928Y-113156303D02*
X136960928Y-113232494D01*
X136427595Y-112432494D02*
X136351405Y-112432494D01*
X136351405Y-112432494D02*
X136275214Y-112470589D01*
X136275214Y-112470589D02*
X136237119Y-112508684D01*
X136237119Y-112508684D02*
X136199024Y-112584875D01*
X136199024Y-112584875D02*
X136160929Y-112737256D01*
X136160929Y-112737256D02*
X136160929Y-112927732D01*
X136160929Y-112927732D02*
X136199024Y-113080113D01*
X136199024Y-113080113D02*
X136237119Y-113156303D01*
X136237119Y-113156303D02*
X136275214Y-113194399D01*
X136275214Y-113194399D02*
X136351405Y-113232494D01*
X136351405Y-113232494D02*
X136427595Y-113232494D01*
X136427595Y-113232494D02*
X136503786Y-113194399D01*
X136503786Y-113194399D02*
X136541881Y-113156303D01*
X136541881Y-113156303D02*
X136579976Y-113080113D01*
X136579976Y-113080113D02*
X136618072Y-112927732D01*
X136618072Y-112927732D02*
X136618072Y-112737256D01*
X136618072Y-112737256D02*
X136579976Y-112584875D01*
X136579976Y-112584875D02*
X136541881Y-112508684D01*
X136541881Y-112508684D02*
X136503786Y-112470589D01*
X136503786Y-112470589D02*
X136427595Y-112432494D01*
X135437119Y-112432494D02*
X135818071Y-112432494D01*
X135818071Y-112432494D02*
X135856167Y-112813446D01*
X135856167Y-112813446D02*
X135818071Y-112775351D01*
X135818071Y-112775351D02*
X135741881Y-112737256D01*
X135741881Y-112737256D02*
X135551405Y-112737256D01*
X135551405Y-112737256D02*
X135475214Y-112775351D01*
X135475214Y-112775351D02*
X135437119Y-112813446D01*
X135437119Y-112813446D02*
X135399024Y-112889637D01*
X135399024Y-112889637D02*
X135399024Y-113080113D01*
X135399024Y-113080113D02*
X135437119Y-113156303D01*
X135437119Y-113156303D02*
X135475214Y-113194399D01*
X135475214Y-113194399D02*
X135551405Y-113232494D01*
X135551405Y-113232494D02*
X135741881Y-113232494D01*
X135741881Y-113232494D02*
X135818071Y-113194399D01*
X135818071Y-113194399D02*
X135856167Y-113156303D01*
X135056166Y-113156303D02*
X135018071Y-113194399D01*
X135018071Y-113194399D02*
X135056166Y-113232494D01*
X135056166Y-113232494D02*
X135094262Y-113194399D01*
X135094262Y-113194399D02*
X135056166Y-113156303D01*
X135056166Y-113156303D02*
X135056166Y-113232494D01*
X134713310Y-112508684D02*
X134675214Y-112470589D01*
X134675214Y-112470589D02*
X134599024Y-112432494D01*
X134599024Y-112432494D02*
X134408548Y-112432494D01*
X134408548Y-112432494D02*
X134332357Y-112470589D01*
X134332357Y-112470589D02*
X134294262Y-112508684D01*
X134294262Y-112508684D02*
X134256167Y-112584875D01*
X134256167Y-112584875D02*
X134256167Y-112661065D01*
X134256167Y-112661065D02*
X134294262Y-112775351D01*
X134294262Y-112775351D02*
X134751405Y-113232494D01*
X134751405Y-113232494D02*
X134256167Y-113232494D01*
X133760928Y-112432494D02*
X133684738Y-112432494D01*
X133684738Y-112432494D02*
X133608547Y-112470589D01*
X133608547Y-112470589D02*
X133570452Y-112508684D01*
X133570452Y-112508684D02*
X133532357Y-112584875D01*
X133532357Y-112584875D02*
X133494262Y-112737256D01*
X133494262Y-112737256D02*
X133494262Y-112927732D01*
X133494262Y-112927732D02*
X133532357Y-113080113D01*
X133532357Y-113080113D02*
X133570452Y-113156303D01*
X133570452Y-113156303D02*
X133608547Y-113194399D01*
X133608547Y-113194399D02*
X133684738Y-113232494D01*
X133684738Y-113232494D02*
X133760928Y-113232494D01*
X133760928Y-113232494D02*
X133837119Y-113194399D01*
X133837119Y-113194399D02*
X133875214Y-113156303D01*
X133875214Y-113156303D02*
X133913309Y-113080113D01*
X133913309Y-113080113D02*
X133951405Y-112927732D01*
X133951405Y-112927732D02*
X133951405Y-112737256D01*
X133951405Y-112737256D02*
X133913309Y-112584875D01*
X133913309Y-112584875D02*
X133875214Y-112508684D01*
X133875214Y-112508684D02*
X133837119Y-112470589D01*
X133837119Y-112470589D02*
X133760928Y-112432494D01*
X133189500Y-112508684D02*
X133151404Y-112470589D01*
X133151404Y-112470589D02*
X133075214Y-112432494D01*
X133075214Y-112432494D02*
X132884738Y-112432494D01*
X132884738Y-112432494D02*
X132808547Y-112470589D01*
X132808547Y-112470589D02*
X132770452Y-112508684D01*
X132770452Y-112508684D02*
X132732357Y-112584875D01*
X132732357Y-112584875D02*
X132732357Y-112661065D01*
X132732357Y-112661065D02*
X132770452Y-112775351D01*
X132770452Y-112775351D02*
X133227595Y-113232494D01*
X133227595Y-113232494D02*
X132732357Y-113232494D01*
X132008547Y-112432494D02*
X132389499Y-112432494D01*
X132389499Y-112432494D02*
X132427595Y-112813446D01*
X132427595Y-112813446D02*
X132389499Y-112775351D01*
X132389499Y-112775351D02*
X132313309Y-112737256D01*
X132313309Y-112737256D02*
X132122833Y-112737256D01*
X132122833Y-112737256D02*
X132046642Y-112775351D01*
X132046642Y-112775351D02*
X132008547Y-112813446D01*
X132008547Y-112813446D02*
X131970452Y-112889637D01*
X131970452Y-112889637D02*
X131970452Y-113080113D01*
X131970452Y-113080113D02*
X132008547Y-113156303D01*
X132008547Y-113156303D02*
X132046642Y-113194399D01*
X132046642Y-113194399D02*
X132122833Y-113232494D01*
X132122833Y-113232494D02*
X132313309Y-113232494D01*
X132313309Y-113232494D02*
X132389499Y-113194399D01*
X132389499Y-113194399D02*
X132427595Y-113156303D01*
D12*
G36*
X148931054Y-83219325D02*
G01*
X149027321Y-83315592D01*
X149072028Y-83405005D01*
X149072028Y-83619900D01*
X149027321Y-83709312D01*
X148931054Y-83805579D01*
X148703563Y-83862453D01*
X148240492Y-83862453D01*
X148013001Y-83805579D01*
X147916735Y-83709313D01*
X147872028Y-83619899D01*
X147872028Y-83405006D01*
X147916735Y-83315592D01*
X148013002Y-83219325D01*
X148240492Y-83162453D01*
X148703564Y-83162453D01*
X148931054Y-83219325D01*
G37*
G36*
X149538695Y-84329120D02*
G01*
X147405361Y-84329120D01*
X147405361Y-83369596D01*
X147572028Y-83369596D01*
X147572028Y-83655310D01*
X147574910Y-83684574D01*
X147576973Y-83689554D01*
X147577355Y-83694929D01*
X147587864Y-83722392D01*
X147659293Y-83865249D01*
X147667220Y-83877842D01*
X147668736Y-83881502D01*
X147672117Y-83885621D01*
X147674958Y-83890135D01*
X147677951Y-83892731D01*
X147687391Y-83904233D01*
X147830248Y-84047090D01*
X147852978Y-84065745D01*
X147863281Y-84070012D01*
X147872242Y-84076652D01*
X147899933Y-84086545D01*
X148185647Y-84157974D01*
X148190719Y-84158724D01*
X148192764Y-84159571D01*
X148203783Y-84160656D01*
X148214736Y-84162276D01*
X148216924Y-84161950D01*
X148222028Y-84162453D01*
X148722028Y-84162453D01*
X148727131Y-84161950D01*
X148729319Y-84162276D01*
X148740270Y-84160656D01*
X148751292Y-84159571D01*
X148753336Y-84158724D01*
X148758409Y-84157974D01*
X149044122Y-84086545D01*
X149071813Y-84076652D01*
X149080773Y-84070012D01*
X149091077Y-84065745D01*
X149113808Y-84047090D01*
X149256666Y-83904233D01*
X149266109Y-83892726D01*
X149269099Y-83890134D01*
X149271935Y-83885628D01*
X149275321Y-83881503D01*
X149276838Y-83877839D01*
X149284764Y-83865249D01*
X149356192Y-83722391D01*
X149366702Y-83694928D01*
X149367083Y-83689552D01*
X149369146Y-83684574D01*
X149372028Y-83655310D01*
X149372028Y-83369596D01*
X149369146Y-83340332D01*
X149367083Y-83335353D01*
X149366702Y-83329978D01*
X149356192Y-83302515D01*
X149284764Y-83159657D01*
X149276837Y-83147065D01*
X149275321Y-83143404D01*
X149271937Y-83139281D01*
X149269099Y-83134772D01*
X149266107Y-83132177D01*
X149256666Y-83120673D01*
X149113808Y-82977815D01*
X149091077Y-82959160D01*
X149080773Y-82954892D01*
X149071813Y-82948253D01*
X149044122Y-82938360D01*
X148758408Y-82866932D01*
X148753336Y-82866182D01*
X148751292Y-82865335D01*
X148740269Y-82864249D01*
X148729319Y-82862630D01*
X148727131Y-82862955D01*
X148722028Y-82862453D01*
X148222028Y-82862453D01*
X148216924Y-82862955D01*
X148214737Y-82862630D01*
X148203786Y-82864249D01*
X148192764Y-82865335D01*
X148190719Y-82866182D01*
X148185648Y-82866932D01*
X147899934Y-82938360D01*
X147872243Y-82948253D01*
X147863283Y-82954891D01*
X147852978Y-82959160D01*
X147830248Y-82977815D01*
X147687391Y-83120673D01*
X147677951Y-83132174D01*
X147674958Y-83134771D01*
X147672117Y-83139284D01*
X147668736Y-83143404D01*
X147667220Y-83147063D01*
X147659293Y-83159657D01*
X147587864Y-83302514D01*
X147577355Y-83329977D01*
X147576973Y-83335351D01*
X147574910Y-83340332D01*
X147572028Y-83369596D01*
X147405361Y-83369596D01*
X147405361Y-81869596D01*
X147572028Y-81869596D01*
X147572028Y-82226739D01*
X147573486Y-82241550D01*
X147573206Y-82245500D01*
X147574387Y-82250694D01*
X147574910Y-82256003D01*
X147576427Y-82259665D01*
X147579726Y-82274173D01*
X147651154Y-82488459D01*
X147663143Y-82515310D01*
X147701490Y-82559524D01*
X147753838Y-82585698D01*
X147812218Y-82589847D01*
X147867742Y-82571339D01*
X147911956Y-82532991D01*
X147938130Y-82480644D01*
X147942279Y-82422264D01*
X147935759Y-82393590D01*
X147872028Y-82202398D01*
X147872028Y-81905006D01*
X147916735Y-81815591D01*
X147953739Y-81778587D01*
X148043152Y-81733882D01*
X148115190Y-81733882D01*
X148204601Y-81778587D01*
X148241606Y-81815592D01*
X148294786Y-81921952D01*
X148362221Y-82191690D01*
X148362991Y-82193845D01*
X148363068Y-82194929D01*
X148367735Y-82207125D01*
X148372114Y-82219381D01*
X148372758Y-82220251D01*
X148373578Y-82222392D01*
X148445007Y-82365250D01*
X148452935Y-82377845D01*
X148454451Y-82381504D01*
X148457830Y-82385621D01*
X148460672Y-82390136D01*
X148463666Y-82392732D01*
X148473106Y-82404235D01*
X148544535Y-82475663D01*
X148556035Y-82485101D01*
X148558632Y-82488095D01*
X148563144Y-82490935D01*
X148567265Y-82494317D01*
X148570924Y-82495832D01*
X148583518Y-82503760D01*
X148726374Y-82575189D01*
X148753838Y-82585698D01*
X148759212Y-82586079D01*
X148764193Y-82588143D01*
X148793457Y-82591025D01*
X148936314Y-82591025D01*
X148965578Y-82588143D01*
X148970558Y-82586079D01*
X148975933Y-82585698D01*
X149003396Y-82575189D01*
X149146253Y-82503760D01*
X149158848Y-82495831D01*
X149162505Y-82494317D01*
X149166622Y-82490937D01*
X149171139Y-82488095D01*
X149173736Y-82485100D01*
X149185236Y-82475663D01*
X149256665Y-82404235D01*
X149266104Y-82392732D01*
X149269100Y-82390135D01*
X149271941Y-82385620D01*
X149275320Y-82381504D01*
X149276835Y-82377845D01*
X149284764Y-82365249D01*
X149356193Y-82222391D01*
X149366702Y-82194928D01*
X149367083Y-82189552D01*
X149369146Y-82184574D01*
X149372028Y-82155310D01*
X149372028Y-81798168D01*
X149370569Y-81783362D01*
X149370851Y-81779408D01*
X149369668Y-81774206D01*
X149369146Y-81768904D01*
X149367630Y-81765246D01*
X149364331Y-81750734D01*
X149292903Y-81536448D01*
X149280915Y-81509597D01*
X149242567Y-81465383D01*
X149190220Y-81439209D01*
X149131840Y-81435059D01*
X149076315Y-81453567D01*
X149032101Y-81491915D01*
X149005927Y-81544262D01*
X149001777Y-81602642D01*
X149008297Y-81631316D01*
X149072028Y-81822510D01*
X149072028Y-82119900D01*
X149027322Y-82209312D01*
X148990318Y-82246317D01*
X148900904Y-82291025D01*
X148828867Y-82291025D01*
X148739453Y-82246317D01*
X148702448Y-82209313D01*
X148649269Y-82102954D01*
X148581835Y-81833216D01*
X148581063Y-81831057D01*
X148580987Y-81829977D01*
X148576326Y-81817796D01*
X148571942Y-81805525D01*
X148571297Y-81804655D01*
X148570478Y-81802513D01*
X148499049Y-81659657D01*
X148491121Y-81647063D01*
X148489606Y-81643404D01*
X148486224Y-81639283D01*
X148483384Y-81634771D01*
X148480390Y-81632174D01*
X148470952Y-81620674D01*
X148399524Y-81549245D01*
X148388021Y-81539805D01*
X148385425Y-81536811D01*
X148380910Y-81533969D01*
X148376793Y-81530590D01*
X148373134Y-81529074D01*
X148360539Y-81521146D01*
X148217682Y-81449718D01*
X148190218Y-81439208D01*
X148184842Y-81438826D01*
X148179864Y-81436764D01*
X148150600Y-81433882D01*
X148007742Y-81433882D01*
X147978478Y-81436764D01*
X147973499Y-81438826D01*
X147968124Y-81439208D01*
X147940661Y-81449718D01*
X147797803Y-81521146D01*
X147785208Y-81529074D01*
X147781549Y-81530590D01*
X147777428Y-81533971D01*
X147772918Y-81536811D01*
X147770323Y-81539802D01*
X147758818Y-81549245D01*
X147687390Y-81620674D01*
X147677952Y-81632173D01*
X147674958Y-81634771D01*
X147672115Y-81639287D01*
X147668736Y-81643405D01*
X147667221Y-81647061D01*
X147659293Y-81659657D01*
X147587864Y-81802514D01*
X147577355Y-81829977D01*
X147576973Y-81835351D01*
X147574910Y-81840332D01*
X147572028Y-81869596D01*
X147405361Y-81869596D01*
X147405361Y-81267215D01*
X149538695Y-81267215D01*
X149538695Y-84329120D01*
G37*
G36*
X158994784Y-96248295D02*
G01*
X154650047Y-96248295D01*
X154650047Y-95902364D01*
X154816714Y-95902364D01*
X154816714Y-95960892D01*
X154839112Y-96014964D01*
X154880496Y-96056348D01*
X154934568Y-96078746D01*
X154963832Y-96081628D01*
X155678118Y-96081628D01*
X155707382Y-96078746D01*
X155761454Y-96056348D01*
X155802838Y-96014964D01*
X155825236Y-95960892D01*
X155828118Y-95931628D01*
X155828118Y-94545222D01*
X156173857Y-94545222D01*
X156173857Y-94603748D01*
X156196254Y-94657820D01*
X156237640Y-94699206D01*
X156291712Y-94721603D01*
X156350238Y-94721603D01*
X156404310Y-94699206D01*
X156427041Y-94680551D01*
X156473430Y-94634161D01*
X156631032Y-94581628D01*
X156725206Y-94581628D01*
X156882804Y-94634161D01*
X156983411Y-94734768D01*
X157036590Y-94841127D01*
X157099546Y-95092948D01*
X157099546Y-95270307D01*
X157036590Y-95522128D01*
X156983411Y-95628488D01*
X156882805Y-95729094D01*
X156725203Y-95781628D01*
X156631032Y-95781628D01*
X156473429Y-95729094D01*
X156427042Y-95682706D01*
X156404311Y-95664051D01*
X156350239Y-95641653D01*
X156291713Y-95641653D01*
X156237641Y-95664050D01*
X156196255Y-95705435D01*
X156173857Y-95759507D01*
X156173857Y-95818033D01*
X156196254Y-95872105D01*
X156214908Y-95894836D01*
X156286336Y-95966265D01*
X156309067Y-95984920D01*
X156314043Y-95986981D01*
X156318118Y-95990515D01*
X156344969Y-96002503D01*
X156559255Y-96073931D01*
X156573767Y-96077230D01*
X156577425Y-96078746D01*
X156582727Y-96079268D01*
X156587929Y-96080451D01*
X156591883Y-96080169D01*
X156606689Y-96081628D01*
X156749546Y-96081628D01*
X156764351Y-96080169D01*
X156768306Y-96080451D01*
X156773507Y-96079268D01*
X156778810Y-96078746D01*
X156782467Y-96077230D01*
X156796980Y-96073931D01*
X157011266Y-96002503D01*
X157038117Y-95990515D01*
X157042188Y-95986983D01*
X157047168Y-95984921D01*
X157069898Y-95966266D01*
X157212755Y-95823408D01*
X157222193Y-95811906D01*
X157225188Y-95809310D01*
X157228028Y-95804796D01*
X157231410Y-95800677D01*
X157232925Y-95797017D01*
X157240853Y-95784424D01*
X157312282Y-95641568D01*
X157313101Y-95639425D01*
X157313746Y-95638556D01*
X157318130Y-95626284D01*
X157322791Y-95614104D01*
X157322867Y-95613023D01*
X157323639Y-95610865D01*
X157350591Y-95503057D01*
X157670974Y-95503057D01*
X157670974Y-95645914D01*
X157673856Y-95675178D01*
X157675919Y-95680158D01*
X157676301Y-95685533D01*
X157686810Y-95712996D01*
X157758239Y-95855853D01*
X157766166Y-95868446D01*
X157767682Y-95872106D01*
X157771063Y-95876225D01*
X157773904Y-95880739D01*
X157776897Y-95883335D01*
X157786337Y-95894837D01*
X157857766Y-95966266D01*
X157869270Y-95975707D01*
X157871865Y-95978699D01*
X157876374Y-95981537D01*
X157880497Y-95984921D01*
X157884158Y-95986437D01*
X157896750Y-95994364D01*
X158039608Y-96065792D01*
X158067071Y-96076302D01*
X158072446Y-96076683D01*
X158077425Y-96078746D01*
X158106689Y-96081628D01*
X158463832Y-96081628D01*
X158478637Y-96080169D01*
X158482592Y-96080451D01*
X158487793Y-96079268D01*
X158493096Y-96078746D01*
X158496753Y-96077230D01*
X158511266Y-96073931D01*
X158725551Y-96002503D01*
X158752402Y-95990514D01*
X158796616Y-95952167D01*
X158822790Y-95899820D01*
X158826939Y-95841440D01*
X158808431Y-95785915D01*
X158770084Y-95741701D01*
X158717737Y-95715527D01*
X158659357Y-95711378D01*
X158630683Y-95717897D01*
X158439489Y-95781628D01*
X158142099Y-95781628D01*
X158052685Y-95736921D01*
X158015681Y-95699917D01*
X157970974Y-95610503D01*
X157970974Y-95538467D01*
X158015681Y-95449053D01*
X158052686Y-95412048D01*
X158159045Y-95358869D01*
X158428783Y-95291435D01*
X158430941Y-95290663D01*
X158432022Y-95290587D01*
X158444196Y-95285928D01*
X158456474Y-95281542D01*
X158457344Y-95280897D01*
X158459485Y-95280078D01*
X158602342Y-95208649D01*
X158614937Y-95200720D01*
X158618594Y-95199206D01*
X158622711Y-95195826D01*
X158627228Y-95192984D01*
X158629825Y-95189989D01*
X158641325Y-95180552D01*
X158712754Y-95109124D01*
X158722196Y-95097618D01*
X158725188Y-95095024D01*
X158728027Y-95090513D01*
X158731409Y-95086393D01*
X158732924Y-95082733D01*
X158740853Y-95070139D01*
X158812281Y-94927281D01*
X158822791Y-94899818D01*
X158823172Y-94894442D01*
X158825235Y-94889464D01*
X158828117Y-94860200D01*
X158828117Y-94717342D01*
X158825235Y-94688078D01*
X158823172Y-94683099D01*
X158822791Y-94677724D01*
X158812281Y-94650261D01*
X158740853Y-94507403D01*
X158732924Y-94494808D01*
X158731409Y-94491149D01*
X158728027Y-94487028D01*
X158725188Y-94482518D01*
X158722196Y-94479923D01*
X158712754Y-94468418D01*
X158641325Y-94396990D01*
X158629825Y-94387552D01*
X158627228Y-94384558D01*
X158622711Y-94381715D01*
X158618594Y-94378336D01*
X158614937Y-94376821D01*
X158602342Y-94368893D01*
X158459485Y-94297464D01*
X158432022Y-94286955D01*
X158426647Y-94286573D01*
X158421667Y-94284510D01*
X158392403Y-94281628D01*
X158035260Y-94281628D01*
X158020448Y-94283086D01*
X158016499Y-94282806D01*
X158011304Y-94283987D01*
X158005996Y-94284510D01*
X158002334Y-94286026D01*
X157987825Y-94289326D01*
X157773540Y-94360755D01*
X157746689Y-94372743D01*
X157702474Y-94411091D01*
X157676301Y-94463438D01*
X157672152Y-94521818D01*
X157690660Y-94577342D01*
X157729008Y-94621557D01*
X157781355Y-94647730D01*
X157839735Y-94651879D01*
X157868408Y-94645359D01*
X158059603Y-94581628D01*
X158356993Y-94581628D01*
X158446407Y-94626335D01*
X158483411Y-94663339D01*
X158528117Y-94752751D01*
X158528117Y-94824790D01*
X158483411Y-94914202D01*
X158446407Y-94951206D01*
X158340046Y-95004387D01*
X158070309Y-95071821D01*
X158068150Y-95072592D01*
X158067070Y-95072669D01*
X158054889Y-95077329D01*
X158042618Y-95081714D01*
X158041748Y-95082358D01*
X158039606Y-95083178D01*
X157896750Y-95154607D01*
X157884156Y-95162534D01*
X157880497Y-95164050D01*
X157876377Y-95167431D01*
X157871864Y-95170272D01*
X157869267Y-95173266D01*
X157857766Y-95182705D01*
X157786337Y-95254134D01*
X157776897Y-95265635D01*
X157773904Y-95268232D01*
X157771063Y-95272745D01*
X157767682Y-95276865D01*
X157766166Y-95280524D01*
X157758239Y-95293118D01*
X157686810Y-95435975D01*
X157676301Y-95463438D01*
X157675919Y-95468812D01*
X157673856Y-95473793D01*
X157670974Y-95503057D01*
X157350591Y-95503057D01*
X157395067Y-95325151D01*
X157395816Y-95320079D01*
X157396664Y-95318035D01*
X157397749Y-95307012D01*
X157399369Y-95296062D01*
X157399043Y-95293874D01*
X157399546Y-95288771D01*
X157399546Y-95074485D01*
X157399043Y-95069381D01*
X157399369Y-95067194D01*
X157397749Y-95056243D01*
X157396664Y-95045221D01*
X157395816Y-95043176D01*
X157395067Y-95038105D01*
X157323639Y-94752391D01*
X157322867Y-94750232D01*
X157322791Y-94749152D01*
X157318130Y-94736971D01*
X157313746Y-94724700D01*
X157313101Y-94723830D01*
X157312282Y-94721688D01*
X157240853Y-94578832D01*
X157232926Y-94566240D01*
X157231410Y-94562578D01*
X157228026Y-94558455D01*
X157225188Y-94553946D01*
X157222195Y-94551350D01*
X157212755Y-94539848D01*
X157069898Y-94396991D01*
X157047167Y-94378336D01*
X157042187Y-94376273D01*
X157038117Y-94372743D01*
X157011266Y-94360754D01*
X156796980Y-94289326D01*
X156782472Y-94286027D01*
X156778810Y-94284510D01*
X156773501Y-94283987D01*
X156768307Y-94282806D01*
X156764357Y-94283086D01*
X156749546Y-94281628D01*
X156606689Y-94281628D01*
X156591877Y-94283086D01*
X156587928Y-94282806D01*
X156582733Y-94283987D01*
X156577425Y-94284510D01*
X156573763Y-94286026D01*
X156559254Y-94289326D01*
X156344969Y-94360755D01*
X156318118Y-94372743D01*
X156314047Y-94376272D01*
X156309067Y-94378336D01*
X156286337Y-94396991D01*
X156214909Y-94468419D01*
X156196254Y-94491150D01*
X156173857Y-94545222D01*
X155828118Y-94545222D01*
X155828118Y-94431628D01*
X155825236Y-94402364D01*
X155802838Y-94348292D01*
X155761454Y-94306908D01*
X155707382Y-94284510D01*
X155648854Y-94284510D01*
X155594782Y-94306908D01*
X155553398Y-94348292D01*
X155531000Y-94402364D01*
X155528118Y-94431628D01*
X155528118Y-95781628D01*
X154963832Y-95781628D01*
X154934568Y-95784510D01*
X154880496Y-95806908D01*
X154839112Y-95848292D01*
X154816714Y-95902364D01*
X154650047Y-95902364D01*
X154650047Y-94114961D01*
X158994784Y-94114961D01*
X158994784Y-96248295D01*
G37*
G36*
X180455260Y-87011628D02*
G01*
X180272460Y-87011628D01*
X180114857Y-86959094D01*
X180014252Y-86858488D01*
X179961071Y-86752128D01*
X179898117Y-86500307D01*
X179898117Y-86322948D01*
X179961071Y-86071127D01*
X180014252Y-85964767D01*
X180114858Y-85864161D01*
X180272460Y-85811628D01*
X180455260Y-85811628D01*
X180455260Y-87011628D01*
G37*
G36*
X183493356Y-87478295D02*
G01*
X179431450Y-87478295D01*
X179431450Y-86304485D01*
X179598117Y-86304485D01*
X179598117Y-86518771D01*
X179598619Y-86523874D01*
X179598294Y-86526062D01*
X179599913Y-86537012D01*
X179600999Y-86548035D01*
X179601846Y-86550079D01*
X179602596Y-86555151D01*
X179674024Y-86840865D01*
X179674795Y-86843023D01*
X179674872Y-86844104D01*
X179679530Y-86856278D01*
X179683917Y-86868556D01*
X179684561Y-86869426D01*
X179685381Y-86871567D01*
X179756810Y-87014424D01*
X179764737Y-87027017D01*
X179766253Y-87030677D01*
X179769634Y-87034796D01*
X179772475Y-87039310D01*
X179775468Y-87041906D01*
X179784908Y-87053408D01*
X179927765Y-87196266D01*
X179950495Y-87214921D01*
X179955474Y-87216983D01*
X179959546Y-87220515D01*
X179986397Y-87232503D01*
X180200683Y-87303931D01*
X180215195Y-87307230D01*
X180218853Y-87308746D01*
X180224155Y-87309268D01*
X180229357Y-87310451D01*
X180233311Y-87310169D01*
X180248117Y-87311628D01*
X180605260Y-87311628D01*
X180634524Y-87308746D01*
X180688596Y-87286348D01*
X180729980Y-87244964D01*
X180752378Y-87190892D01*
X180755260Y-87161628D01*
X180755260Y-85661628D01*
X180752378Y-85632364D01*
X181100999Y-85632364D01*
X181100999Y-85690892D01*
X181123397Y-85744964D01*
X181164781Y-85786348D01*
X181218853Y-85808746D01*
X181248117Y-85811628D01*
X181812403Y-85811628D01*
X181812403Y-86225914D01*
X181462403Y-86225914D01*
X181433139Y-86228796D01*
X181379067Y-86251194D01*
X181337683Y-86292578D01*
X181315285Y-86346650D01*
X181315285Y-86405178D01*
X181337683Y-86459250D01*
X181379067Y-86500634D01*
X181433139Y-86523032D01*
X181462403Y-86525914D01*
X181812403Y-86525914D01*
X181812403Y-87011628D01*
X181248117Y-87011628D01*
X181218853Y-87014510D01*
X181164781Y-87036908D01*
X181123397Y-87078292D01*
X181100999Y-87132364D01*
X181100999Y-87190892D01*
X181123397Y-87244964D01*
X181164781Y-87286348D01*
X181218853Y-87308746D01*
X181248117Y-87311628D01*
X181962403Y-87311628D01*
X181991667Y-87308746D01*
X182045739Y-87286348D01*
X182087123Y-87244964D01*
X182109521Y-87190892D01*
X182112403Y-87161628D01*
X182112403Y-87132364D01*
X182315285Y-87132364D01*
X182315285Y-87190892D01*
X182337683Y-87244964D01*
X182379067Y-87286348D01*
X182433139Y-87308746D01*
X182462403Y-87311628D01*
X183176689Y-87311628D01*
X183205953Y-87308746D01*
X183260025Y-87286348D01*
X183301409Y-87244964D01*
X183323807Y-87190892D01*
X183326689Y-87161628D01*
X183326689Y-85661628D01*
X183323807Y-85632364D01*
X183301409Y-85578292D01*
X183260025Y-85536908D01*
X183205953Y-85514510D01*
X183147425Y-85514510D01*
X183093353Y-85536908D01*
X183051969Y-85578292D01*
X183029571Y-85632364D01*
X183026689Y-85661628D01*
X183026689Y-87011628D01*
X182462403Y-87011628D01*
X182433139Y-87014510D01*
X182379067Y-87036908D01*
X182337683Y-87078292D01*
X182315285Y-87132364D01*
X182112403Y-87132364D01*
X182112403Y-85661628D01*
X182109521Y-85632364D01*
X182087123Y-85578292D01*
X182045739Y-85536908D01*
X181991667Y-85514510D01*
X181962403Y-85511628D01*
X181248117Y-85511628D01*
X181218853Y-85514510D01*
X181164781Y-85536908D01*
X181123397Y-85578292D01*
X181100999Y-85632364D01*
X180752378Y-85632364D01*
X180729980Y-85578292D01*
X180688596Y-85536908D01*
X180634524Y-85514510D01*
X180605260Y-85511628D01*
X180248117Y-85511628D01*
X180233305Y-85513086D01*
X180229356Y-85512806D01*
X180224161Y-85513987D01*
X180218853Y-85514510D01*
X180215191Y-85516026D01*
X180200682Y-85519326D01*
X179986397Y-85590755D01*
X179959546Y-85602743D01*
X179955476Y-85606272D01*
X179950495Y-85608336D01*
X179927765Y-85626991D01*
X179784908Y-85769848D01*
X179775468Y-85781349D01*
X179772475Y-85783946D01*
X179769634Y-85788459D01*
X179766253Y-85792579D01*
X179764737Y-85796238D01*
X179756810Y-85808832D01*
X179685381Y-85951689D01*
X179684561Y-85953829D01*
X179683917Y-85954700D01*
X179679530Y-85966977D01*
X179674872Y-85979152D01*
X179674795Y-85980232D01*
X179674024Y-85982391D01*
X179602596Y-86268105D01*
X179601846Y-86273176D01*
X179600999Y-86275221D01*
X179599913Y-86286243D01*
X179598294Y-86297194D01*
X179598619Y-86299381D01*
X179598117Y-86304485D01*
X179431450Y-86304485D01*
X179431450Y-85344961D01*
X183493356Y-85344961D01*
X183493356Y-87478295D01*
G37*
G36*
X179925260Y-89321628D02*
G01*
X179742460Y-89321628D01*
X179584857Y-89269094D01*
X179484252Y-89168488D01*
X179431071Y-89062128D01*
X179368117Y-88810307D01*
X179368117Y-88632948D01*
X179431071Y-88381127D01*
X179484252Y-88274767D01*
X179584858Y-88174161D01*
X179742460Y-88121628D01*
X179925260Y-88121628D01*
X179925260Y-89321628D01*
G37*
G36*
X183534784Y-89788295D02*
G01*
X178901450Y-89788295D01*
X178901450Y-88614485D01*
X179068117Y-88614485D01*
X179068117Y-88828771D01*
X179068619Y-88833874D01*
X179068294Y-88836062D01*
X179069913Y-88847012D01*
X179070999Y-88858035D01*
X179071846Y-88860079D01*
X179072596Y-88865151D01*
X179144024Y-89150865D01*
X179144795Y-89153023D01*
X179144872Y-89154104D01*
X179149530Y-89166278D01*
X179153917Y-89178556D01*
X179154561Y-89179426D01*
X179155381Y-89181567D01*
X179226810Y-89324424D01*
X179234737Y-89337017D01*
X179236253Y-89340677D01*
X179239634Y-89344796D01*
X179242475Y-89349310D01*
X179245468Y-89351906D01*
X179254908Y-89363408D01*
X179397765Y-89506266D01*
X179420495Y-89524921D01*
X179425474Y-89526983D01*
X179429546Y-89530515D01*
X179456397Y-89542503D01*
X179670683Y-89613931D01*
X179685195Y-89617230D01*
X179688853Y-89618746D01*
X179694155Y-89619268D01*
X179699357Y-89620451D01*
X179703311Y-89620169D01*
X179718117Y-89621628D01*
X180075260Y-89621628D01*
X180104524Y-89618746D01*
X180158596Y-89596348D01*
X180199980Y-89554964D01*
X180222378Y-89500892D01*
X180225260Y-89471628D01*
X180225260Y-87971628D01*
X180639546Y-87971628D01*
X180639546Y-89471628D01*
X180640287Y-89479153D01*
X180639912Y-89482105D01*
X180640954Y-89485925D01*
X180642428Y-89500892D01*
X180650063Y-89519324D01*
X180655312Y-89538569D01*
X180661166Y-89546128D01*
X180664826Y-89554964D01*
X180678933Y-89569071D01*
X180691147Y-89584843D01*
X180699449Y-89589587D01*
X180706210Y-89596348D01*
X180724640Y-89603982D01*
X180741963Y-89613881D01*
X180751448Y-89615086D01*
X180760282Y-89618746D01*
X180780232Y-89618746D01*
X180800023Y-89621262D01*
X180809248Y-89618746D01*
X180818810Y-89618746D01*
X180837242Y-89611110D01*
X180856487Y-89605862D01*
X180864046Y-89600007D01*
X180872882Y-89596348D01*
X180886989Y-89582240D01*
X180902761Y-89570027D01*
X180911466Y-89557763D01*
X180914266Y-89554964D01*
X180915404Y-89552216D01*
X180919782Y-89546049D01*
X181496689Y-88536463D01*
X181496689Y-89471628D01*
X181499571Y-89500892D01*
X181521969Y-89554964D01*
X181563353Y-89596348D01*
X181617425Y-89618746D01*
X181675953Y-89618746D01*
X181730025Y-89596348D01*
X181771409Y-89554964D01*
X181793807Y-89500892D01*
X181796689Y-89471628D01*
X181796689Y-88828771D01*
X182139546Y-88828771D01*
X182139546Y-89328771D01*
X182142428Y-89358035D01*
X182164826Y-89412107D01*
X182164829Y-89412110D01*
X182183479Y-89434836D01*
X182254907Y-89506265D01*
X182277638Y-89524920D01*
X182282614Y-89526981D01*
X182286689Y-89530515D01*
X182313540Y-89542503D01*
X182527826Y-89613931D01*
X182542338Y-89617230D01*
X182545996Y-89618746D01*
X182551298Y-89619268D01*
X182556500Y-89620451D01*
X182560454Y-89620169D01*
X182575260Y-89621628D01*
X182718117Y-89621628D01*
X182732922Y-89620169D01*
X182736877Y-89620451D01*
X182742078Y-89619268D01*
X182747381Y-89618746D01*
X182751038Y-89617230D01*
X182765551Y-89613931D01*
X182979837Y-89542503D01*
X183006688Y-89530515D01*
X183010759Y-89526983D01*
X183015739Y-89524921D01*
X183038469Y-89506266D01*
X183181326Y-89363408D01*
X183190764Y-89351906D01*
X183193759Y-89349310D01*
X183196599Y-89344796D01*
X183199981Y-89340677D01*
X183201496Y-89337017D01*
X183209424Y-89324424D01*
X183280853Y-89181568D01*
X183281672Y-89179425D01*
X183282317Y-89178556D01*
X183286701Y-89166284D01*
X183291362Y-89154104D01*
X183291438Y-89153023D01*
X183292210Y-89150865D01*
X183363638Y-88865151D01*
X183364387Y-88860079D01*
X183365235Y-88858035D01*
X183366320Y-88847012D01*
X183367940Y-88836062D01*
X183367614Y-88833874D01*
X183368117Y-88828771D01*
X183368117Y-88614485D01*
X183367614Y-88609381D01*
X183367940Y-88607194D01*
X183366320Y-88596243D01*
X183365235Y-88585221D01*
X183364387Y-88583176D01*
X183363638Y-88578105D01*
X183292210Y-88292391D01*
X183291438Y-88290232D01*
X183291362Y-88289152D01*
X183286701Y-88276971D01*
X183282317Y-88264700D01*
X183281672Y-88263830D01*
X183280853Y-88261688D01*
X183209424Y-88118832D01*
X183201497Y-88106240D01*
X183199981Y-88102578D01*
X183196597Y-88098455D01*
X183193759Y-88093946D01*
X183190766Y-88091350D01*
X183181326Y-88079848D01*
X183038469Y-87936991D01*
X183015738Y-87918336D01*
X183010758Y-87916273D01*
X183006688Y-87912743D01*
X182979837Y-87900754D01*
X182765551Y-87829326D01*
X182751043Y-87826027D01*
X182747381Y-87824510D01*
X182742072Y-87823987D01*
X182736878Y-87822806D01*
X182732928Y-87823086D01*
X182718117Y-87821628D01*
X182503832Y-87821628D01*
X182474568Y-87824510D01*
X182469590Y-87826571D01*
X182464213Y-87826954D01*
X182436750Y-87837464D01*
X182293892Y-87908893D01*
X182269006Y-87924558D01*
X182230660Y-87968773D01*
X182212152Y-88024295D01*
X182216300Y-88082676D01*
X182242475Y-88135025D01*
X182286690Y-88173371D01*
X182342212Y-88191879D01*
X182400593Y-88187731D01*
X182428056Y-88177221D01*
X182539242Y-88121628D01*
X182693777Y-88121628D01*
X182851375Y-88174161D01*
X182951982Y-88274768D01*
X183005161Y-88381127D01*
X183068117Y-88632948D01*
X183068117Y-88810307D01*
X183005161Y-89062128D01*
X182951982Y-89168488D01*
X182851376Y-89269094D01*
X182693774Y-89321628D01*
X182599603Y-89321628D01*
X182442000Y-89269094D01*
X182439546Y-89266639D01*
X182439546Y-88978771D01*
X182575260Y-88978771D01*
X182604524Y-88975889D01*
X182658596Y-88953491D01*
X182699980Y-88912107D01*
X182722378Y-88858035D01*
X182722378Y-88799507D01*
X182699980Y-88745435D01*
X182658596Y-88704051D01*
X182604524Y-88681653D01*
X182575260Y-88678771D01*
X182289546Y-88678771D01*
X182260282Y-88681653D01*
X182206210Y-88704051D01*
X182164826Y-88745435D01*
X182142428Y-88799507D01*
X182139546Y-88828771D01*
X181796689Y-88828771D01*
X181796689Y-87971628D01*
X181795947Y-87964101D01*
X181796323Y-87961150D01*
X181795280Y-87957328D01*
X181793807Y-87942364D01*
X181786171Y-87923931D01*
X181780923Y-87904687D01*
X181775068Y-87897127D01*
X181771409Y-87888292D01*
X181757301Y-87874184D01*
X181745088Y-87858413D01*
X181736785Y-87853668D01*
X181730025Y-87846908D01*
X181711594Y-87839273D01*
X181694272Y-87829375D01*
X181684786Y-87828169D01*
X181675953Y-87824510D01*
X181656003Y-87824510D01*
X181636212Y-87821994D01*
X181626987Y-87824510D01*
X181617425Y-87824510D01*
X181598996Y-87832143D01*
X181579748Y-87837393D01*
X181572186Y-87843249D01*
X181563353Y-87846908D01*
X181549247Y-87861013D01*
X181533474Y-87873229D01*
X181524768Y-87885492D01*
X181521969Y-87888292D01*
X181520830Y-87891039D01*
X181516453Y-87897207D01*
X180939546Y-88906794D01*
X180939546Y-87971628D01*
X180936664Y-87942364D01*
X180914266Y-87888292D01*
X180872882Y-87846908D01*
X180818810Y-87824510D01*
X180760282Y-87824510D01*
X180706210Y-87846908D01*
X180664826Y-87888292D01*
X180642428Y-87942364D01*
X180639546Y-87971628D01*
X180225260Y-87971628D01*
X180222378Y-87942364D01*
X180199980Y-87888292D01*
X180158596Y-87846908D01*
X180104524Y-87824510D01*
X180075260Y-87821628D01*
X179718117Y-87821628D01*
X179703305Y-87823086D01*
X179699356Y-87822806D01*
X179694161Y-87823987D01*
X179688853Y-87824510D01*
X179685191Y-87826026D01*
X179670682Y-87829326D01*
X179456397Y-87900755D01*
X179429546Y-87912743D01*
X179425476Y-87916272D01*
X179420495Y-87918336D01*
X179397765Y-87936991D01*
X179254908Y-88079848D01*
X179245468Y-88091349D01*
X179242475Y-88093946D01*
X179239634Y-88098459D01*
X179236253Y-88102579D01*
X179234737Y-88106238D01*
X179226810Y-88118832D01*
X179155381Y-88261689D01*
X179154561Y-88263829D01*
X179153917Y-88264700D01*
X179149530Y-88276977D01*
X179144872Y-88289152D01*
X179144795Y-88290232D01*
X179144024Y-88292391D01*
X179072596Y-88578105D01*
X179071846Y-88583176D01*
X179070999Y-88585221D01*
X179069913Y-88596243D01*
X179068294Y-88607194D01*
X179068619Y-88609381D01*
X179068117Y-88614485D01*
X178901450Y-88614485D01*
X178901450Y-87654961D01*
X183534784Y-87654961D01*
X183534784Y-89788295D01*
G37*
D13*
G36*
X122123544Y-109711473D02*
G01*
X119182275Y-109711473D01*
X119182275Y-108313217D01*
X119293386Y-108313217D01*
X119293386Y-109313217D01*
X119297192Y-109332351D01*
X119302046Y-109337205D01*
X119303854Y-109343832D01*
X119315098Y-109350257D01*
X119324252Y-109359411D01*
X119331118Y-109359411D01*
X119337080Y-109362818D01*
X119349573Y-109359411D01*
X119362520Y-109359411D01*
X119367374Y-109354556D01*
X119374001Y-109352749D01*
X119386798Y-109338024D01*
X119864814Y-108501495D01*
X119864814Y-109313217D01*
X119868620Y-109332351D01*
X119895680Y-109359411D01*
X119933948Y-109359411D01*
X119961008Y-109332351D01*
X119964814Y-109313217D01*
X119964814Y-108313217D01*
X119961008Y-108294083D01*
X119956153Y-108289228D01*
X119954346Y-108282602D01*
X119943101Y-108276176D01*
X119942226Y-108275301D01*
X120199099Y-108275301D01*
X120206545Y-108293333D01*
X121063688Y-109579047D01*
X121077468Y-109592857D01*
X121114994Y-109600362D01*
X121146835Y-109579134D01*
X121154340Y-109541609D01*
X121146893Y-109523577D01*
X120816177Y-109027502D01*
X121341005Y-109027502D01*
X121341005Y-109122740D01*
X121341493Y-109125196D01*
X121341131Y-109126285D01*
X121343247Y-109134012D01*
X121344811Y-109141874D01*
X121345622Y-109142685D01*
X121346284Y-109145101D01*
X121393902Y-109240338D01*
X121398813Y-109246666D01*
X121403268Y-109253333D01*
X121450887Y-109300953D01*
X121457553Y-109305407D01*
X121463882Y-109310319D01*
X121559120Y-109357938D01*
X121561535Y-109358599D01*
X121562347Y-109359411D01*
X121570208Y-109360974D01*
X121577936Y-109363091D01*
X121579024Y-109362728D01*
X121581481Y-109363217D01*
X121819576Y-109363217D01*
X121827438Y-109361653D01*
X121835387Y-109360651D01*
X121978244Y-109313032D01*
X121995192Y-109303371D01*
X122012307Y-109269142D01*
X122000205Y-109232838D01*
X121965977Y-109215724D01*
X121946621Y-109218164D01*
X121811463Y-109263217D01*
X121593285Y-109263217D01*
X121515862Y-109224506D01*
X121479716Y-109188359D01*
X121441005Y-109110937D01*
X121441005Y-109039305D01*
X121479716Y-108961881D01*
X121515861Y-108925737D01*
X121598933Y-108884201D01*
X121784084Y-108837914D01*
X121789036Y-108835574D01*
X121794318Y-108834128D01*
X121889555Y-108786510D01*
X121895888Y-108781594D01*
X121902550Y-108777143D01*
X121950169Y-108729525D01*
X121954623Y-108722858D01*
X121959535Y-108716530D01*
X122007154Y-108621292D01*
X122007815Y-108618876D01*
X122008627Y-108618065D01*
X122010190Y-108610203D01*
X122012307Y-108602476D01*
X122011944Y-108601387D01*
X122012433Y-108598931D01*
X122012433Y-108503693D01*
X122011944Y-108501236D01*
X122012307Y-108500148D01*
X122010190Y-108492420D01*
X122008627Y-108484559D01*
X122007815Y-108483747D01*
X122007154Y-108481332D01*
X121959535Y-108386094D01*
X121954623Y-108379765D01*
X121950169Y-108373099D01*
X121902550Y-108325481D01*
X121895888Y-108321029D01*
X121889555Y-108316114D01*
X121794318Y-108268496D01*
X121791902Y-108267834D01*
X121791091Y-108267023D01*
X121783229Y-108265459D01*
X121775502Y-108263343D01*
X121774413Y-108263705D01*
X121771957Y-108263217D01*
X121533862Y-108263217D01*
X121526000Y-108264780D01*
X121518050Y-108265783D01*
X121375194Y-108313402D01*
X121358245Y-108323063D01*
X121341131Y-108357292D01*
X121353232Y-108393596D01*
X121387461Y-108410710D01*
X121406816Y-108408270D01*
X121541975Y-108363217D01*
X121760154Y-108363217D01*
X121837577Y-108401928D01*
X121873721Y-108438073D01*
X121912433Y-108515496D01*
X121912433Y-108587127D01*
X121873721Y-108664550D01*
X121837577Y-108700695D01*
X121754506Y-108742231D01*
X121569354Y-108788519D01*
X121564401Y-108790858D01*
X121559120Y-108792305D01*
X121463882Y-108839924D01*
X121457553Y-108844835D01*
X121450887Y-108849290D01*
X121403269Y-108896909D01*
X121398817Y-108903570D01*
X121393902Y-108909904D01*
X121346284Y-109005141D01*
X121345622Y-109007556D01*
X121344811Y-109008368D01*
X121343247Y-109016229D01*
X121341131Y-109023957D01*
X121341493Y-109025045D01*
X121341005Y-109027502D01*
X120816177Y-109027502D01*
X120289751Y-108237863D01*
X120275970Y-108224054D01*
X120238445Y-108216549D01*
X120206604Y-108237776D01*
X120199099Y-108275301D01*
X119942226Y-108275301D01*
X119933948Y-108267023D01*
X119927082Y-108267023D01*
X119921120Y-108263616D01*
X119908628Y-108267023D01*
X119895680Y-108267023D01*
X119890824Y-108271878D01*
X119884200Y-108273685D01*
X119871402Y-108288410D01*
X119393386Y-109124938D01*
X119393386Y-108313217D01*
X119389580Y-108294083D01*
X119362520Y-108267023D01*
X119324252Y-108267023D01*
X119297192Y-108294083D01*
X119293386Y-108313217D01*
X119182275Y-108313217D01*
X119182275Y-108105438D01*
X122123544Y-108105438D01*
X122123544Y-109711473D01*
G37*
G36*
X126739959Y-108421930D02*
G01*
X126819665Y-108501636D01*
X126862433Y-108672706D01*
X126862433Y-108993729D01*
X126819665Y-109164798D01*
X126739957Y-109244507D01*
X126662535Y-109283218D01*
X126495666Y-109283218D01*
X126473031Y-109271901D01*
X126561098Y-109183834D01*
X126638523Y-109145122D01*
X126721957Y-109145122D01*
X126741091Y-109141316D01*
X126768151Y-109114256D01*
X126768151Y-109075988D01*
X126741091Y-109048928D01*
X126721957Y-109045122D01*
X126626719Y-109045122D01*
X126624262Y-109045610D01*
X126623174Y-109045248D01*
X126615446Y-109047364D01*
X126607585Y-109048928D01*
X126606773Y-109049739D01*
X126604358Y-109050401D01*
X126509120Y-109098020D01*
X126502785Y-109102935D01*
X126496126Y-109107386D01*
X126388624Y-109214888D01*
X126338534Y-109164797D01*
X126295767Y-108993729D01*
X126295767Y-108672706D01*
X126338534Y-108501636D01*
X126418240Y-108421930D01*
X126495666Y-108383218D01*
X126662535Y-108383218D01*
X126739959Y-108421930D01*
G37*
G36*
X127073544Y-109589441D02*
G01*
X125088462Y-109589441D01*
X125088462Y-109432001D01*
X126148274Y-109432001D01*
X126165388Y-109466229D01*
X126201693Y-109478330D01*
X126220509Y-109473177D01*
X126315746Y-109425559D01*
X126322079Y-109420643D01*
X126328741Y-109416192D01*
X126398496Y-109346436D01*
X126461501Y-109377939D01*
X126463916Y-109378600D01*
X126464728Y-109379412D01*
X126472589Y-109380975D01*
X126480317Y-109383092D01*
X126481405Y-109382729D01*
X126483862Y-109383218D01*
X126674338Y-109383218D01*
X126676794Y-109382729D01*
X126677883Y-109383092D01*
X126685610Y-109380975D01*
X126693472Y-109379412D01*
X126694283Y-109378600D01*
X126696699Y-109377939D01*
X126791936Y-109330321D01*
X126798263Y-109325410D01*
X126804932Y-109320954D01*
X126900170Y-109225715D01*
X126903179Y-109221211D01*
X126904988Y-109220126D01*
X126907603Y-109214589D01*
X126911008Y-109209494D01*
X126911008Y-109207383D01*
X126913321Y-109202487D01*
X126960940Y-109012011D01*
X126961237Y-109005893D01*
X126962433Y-108999884D01*
X126962433Y-108666551D01*
X126961237Y-108660541D01*
X126960940Y-108654424D01*
X126913321Y-108463948D01*
X126911008Y-108459051D01*
X126911008Y-108456941D01*
X126907604Y-108451847D01*
X126904988Y-108446309D01*
X126903177Y-108445222D01*
X126900169Y-108440720D01*
X126804931Y-108345482D01*
X126798269Y-108341030D01*
X126791936Y-108336115D01*
X126696699Y-108288497D01*
X126694283Y-108287835D01*
X126693472Y-108287024D01*
X126685610Y-108285460D01*
X126677883Y-108283344D01*
X126676794Y-108283706D01*
X126674338Y-108283218D01*
X126483862Y-108283218D01*
X126481405Y-108283706D01*
X126480317Y-108283344D01*
X126472589Y-108285460D01*
X126464728Y-108287024D01*
X126463916Y-108287835D01*
X126461501Y-108288497D01*
X126366263Y-108336116D01*
X126359928Y-108341031D01*
X126353269Y-108345482D01*
X126258031Y-108440720D01*
X126255022Y-108445222D01*
X126253212Y-108446309D01*
X126250595Y-108451847D01*
X126247192Y-108456941D01*
X126247192Y-108459051D01*
X126244879Y-108463948D01*
X126197260Y-108654424D01*
X126196962Y-108660541D01*
X126195767Y-108666551D01*
X126195767Y-108999884D01*
X126196962Y-109005893D01*
X126197260Y-109012011D01*
X126244879Y-109202487D01*
X126247192Y-109207383D01*
X126247192Y-109209494D01*
X126250596Y-109214589D01*
X126253212Y-109220126D01*
X126255020Y-109221211D01*
X126258030Y-109225715D01*
X126317914Y-109285599D01*
X126263769Y-109339744D01*
X126175787Y-109383735D01*
X126160375Y-109395696D01*
X126148274Y-109432001D01*
X125088462Y-109432001D01*
X125088462Y-108409322D01*
X125199573Y-108409322D01*
X125199573Y-108447590D01*
X125226633Y-108474650D01*
X125264901Y-108474650D01*
X125281122Y-108463811D01*
X125320395Y-108424538D01*
X125444356Y-108383218D01*
X125523368Y-108383218D01*
X125647329Y-108424538D01*
X125728482Y-108505691D01*
X125770019Y-108588765D01*
X125814814Y-108767944D01*
X125814814Y-108898491D01*
X125770019Y-109077669D01*
X125728482Y-109160743D01*
X125647328Y-109241897D01*
X125523368Y-109283218D01*
X125444356Y-109283218D01*
X125320396Y-109241898D01*
X125281123Y-109202624D01*
X125264902Y-109191785D01*
X125226633Y-109191785D01*
X125199573Y-109218844D01*
X125199573Y-109257113D01*
X125210411Y-109273334D01*
X125258030Y-109320954D01*
X125260112Y-109322345D01*
X125260626Y-109323372D01*
X125267584Y-109327338D01*
X125274251Y-109331793D01*
X125275400Y-109331793D01*
X125277575Y-109333033D01*
X125420431Y-109380652D01*
X125428381Y-109381654D01*
X125436243Y-109383218D01*
X125531481Y-109383218D01*
X125539343Y-109381654D01*
X125547292Y-109380652D01*
X125690149Y-109333033D01*
X125692324Y-109331793D01*
X125693473Y-109331793D01*
X125700143Y-109327335D01*
X125707097Y-109323372D01*
X125707609Y-109322346D01*
X125709694Y-109320954D01*
X125804932Y-109225715D01*
X125809385Y-109219049D01*
X125814297Y-109212721D01*
X125861916Y-109117483D01*
X125863362Y-109112201D01*
X125865702Y-109107249D01*
X125913321Y-108916773D01*
X125913618Y-108910655D01*
X125914814Y-108904646D01*
X125914814Y-108761789D01*
X125913618Y-108755779D01*
X125913321Y-108749662D01*
X125865702Y-108559186D01*
X125863362Y-108554233D01*
X125861916Y-108548952D01*
X125814297Y-108453714D01*
X125809381Y-108447379D01*
X125804931Y-108440720D01*
X125709693Y-108345482D01*
X125707610Y-108344090D01*
X125707097Y-108343064D01*
X125700136Y-108339096D01*
X125693472Y-108334643D01*
X125692324Y-108334643D01*
X125690149Y-108333403D01*
X125547292Y-108285784D01*
X125539343Y-108284781D01*
X125531481Y-108283218D01*
X125436243Y-108283218D01*
X125428381Y-108284781D01*
X125420431Y-108285784D01*
X125277575Y-108333403D01*
X125275400Y-108334643D01*
X125274251Y-108334643D01*
X125267584Y-108339097D01*
X125260626Y-108343064D01*
X125260112Y-108344090D01*
X125258030Y-108345482D01*
X125210412Y-108393101D01*
X125199573Y-108409322D01*
X125088462Y-108409322D01*
X125088462Y-108172107D01*
X127073544Y-108172107D01*
X127073544Y-109589441D01*
G37*
D12*
G36*
X154172028Y-93059539D02*
G01*
X154119494Y-93217141D01*
X154018888Y-93317746D01*
X153912528Y-93370927D01*
X153660707Y-93433882D01*
X153483349Y-93433882D01*
X153231527Y-93370926D01*
X153125168Y-93317747D01*
X153024561Y-93217140D01*
X152972028Y-93059541D01*
X152972028Y-92876739D01*
X154172028Y-92876739D01*
X154172028Y-93059539D01*
G37*
G36*
X154638695Y-93900549D02*
G01*
X152505361Y-93900549D01*
X152505361Y-92726739D01*
X152672028Y-92726739D01*
X152672028Y-93083882D01*
X152673486Y-93098693D01*
X152673206Y-93102643D01*
X152674387Y-93107837D01*
X152674910Y-93113146D01*
X152676427Y-93116808D01*
X152679726Y-93131316D01*
X152751154Y-93345602D01*
X152763143Y-93372453D01*
X152766673Y-93376523D01*
X152768736Y-93381503D01*
X152787391Y-93404234D01*
X152930248Y-93547091D01*
X152941750Y-93556531D01*
X152944346Y-93559524D01*
X152948855Y-93562362D01*
X152952978Y-93565746D01*
X152956640Y-93567262D01*
X152969232Y-93575189D01*
X153112088Y-93646618D01*
X153114230Y-93647437D01*
X153115100Y-93648082D01*
X153127371Y-93652466D01*
X153139552Y-93657127D01*
X153140632Y-93657203D01*
X153142791Y-93657975D01*
X153428505Y-93729403D01*
X153433576Y-93730152D01*
X153435621Y-93731000D01*
X153446643Y-93732085D01*
X153457594Y-93733705D01*
X153459781Y-93733379D01*
X153464885Y-93733882D01*
X153679171Y-93733882D01*
X153684274Y-93733379D01*
X153686462Y-93733705D01*
X153697412Y-93732085D01*
X153708435Y-93731000D01*
X153710479Y-93730152D01*
X153715551Y-93729403D01*
X154001265Y-93657975D01*
X154003423Y-93657203D01*
X154004504Y-93657127D01*
X154016678Y-93652468D01*
X154028956Y-93648082D01*
X154029826Y-93647437D01*
X154031967Y-93646618D01*
X154174824Y-93575189D01*
X154187417Y-93567261D01*
X154191077Y-93565746D01*
X154195196Y-93562364D01*
X154199710Y-93559524D01*
X154202306Y-93556530D01*
X154213808Y-93547091D01*
X154356666Y-93404234D01*
X154375321Y-93381504D01*
X154377383Y-93376524D01*
X154380915Y-93372453D01*
X154392903Y-93345602D01*
X154464331Y-93131316D01*
X154467630Y-93116803D01*
X154469146Y-93113146D01*
X154469668Y-93107843D01*
X154470851Y-93102642D01*
X154470569Y-93098687D01*
X154472028Y-93083882D01*
X154472028Y-92726739D01*
X154469146Y-92697475D01*
X154446748Y-92643403D01*
X154405364Y-92602019D01*
X154351292Y-92579621D01*
X154322028Y-92576739D01*
X152822028Y-92576739D01*
X152792764Y-92579621D01*
X152738692Y-92602019D01*
X152697308Y-92643403D01*
X152674910Y-92697475D01*
X152672028Y-92726739D01*
X152505361Y-92726739D01*
X152505361Y-91165787D01*
X152672394Y-91165787D01*
X152674910Y-91175011D01*
X152674910Y-91184574D01*
X152682545Y-91203006D01*
X152687794Y-91222251D01*
X152693648Y-91229810D01*
X152697308Y-91238646D01*
X152711415Y-91252753D01*
X152723629Y-91268525D01*
X152735892Y-91277230D01*
X152738692Y-91280030D01*
X152741439Y-91281168D01*
X152747607Y-91285546D01*
X153757193Y-91862453D01*
X152822028Y-91862453D01*
X152792764Y-91865335D01*
X152738692Y-91887733D01*
X152697308Y-91929117D01*
X152674910Y-91983189D01*
X152674910Y-92041717D01*
X152697308Y-92095789D01*
X152738692Y-92137173D01*
X152792764Y-92159571D01*
X152822028Y-92162453D01*
X154322028Y-92162453D01*
X154329554Y-92161711D01*
X154332506Y-92162087D01*
X154336327Y-92161044D01*
X154351292Y-92159571D01*
X154369724Y-92151935D01*
X154388969Y-92146687D01*
X154396528Y-92140832D01*
X154405364Y-92137173D01*
X154419471Y-92123065D01*
X154435243Y-92110852D01*
X154439987Y-92102549D01*
X154446748Y-92095789D01*
X154454382Y-92077358D01*
X154464281Y-92060036D01*
X154465486Y-92050550D01*
X154469146Y-92041717D01*
X154469146Y-92021767D01*
X154471662Y-92001976D01*
X154469146Y-91992750D01*
X154469146Y-91983189D01*
X154461512Y-91964760D01*
X154456263Y-91945512D01*
X154450406Y-91937950D01*
X154446748Y-91929117D01*
X154432642Y-91915011D01*
X154420427Y-91899238D01*
X154408163Y-91890532D01*
X154405364Y-91887733D01*
X154402616Y-91886594D01*
X154396449Y-91882217D01*
X153386862Y-91305310D01*
X154322028Y-91305310D01*
X154351292Y-91302428D01*
X154405364Y-91280030D01*
X154446748Y-91238646D01*
X154469146Y-91184574D01*
X154469146Y-91126046D01*
X154446748Y-91071974D01*
X154405364Y-91030590D01*
X154351292Y-91008192D01*
X154322028Y-91005310D01*
X152822028Y-91005310D01*
X152814502Y-91006051D01*
X152811551Y-91005676D01*
X152807730Y-91006718D01*
X152792764Y-91008192D01*
X152774331Y-91015827D01*
X152755087Y-91021076D01*
X152747527Y-91026930D01*
X152738692Y-91030590D01*
X152724584Y-91044697D01*
X152708813Y-91056911D01*
X152704068Y-91065213D01*
X152697308Y-91071974D01*
X152689673Y-91090404D01*
X152679775Y-91107727D01*
X152678569Y-91117212D01*
X152674910Y-91126046D01*
X152674910Y-91145995D01*
X152672394Y-91165787D01*
X152505361Y-91165787D01*
X152505361Y-90083882D01*
X152672028Y-90083882D01*
X152672028Y-90298168D01*
X152674910Y-90327432D01*
X152676973Y-90332412D01*
X152677355Y-90337787D01*
X152687864Y-90365250D01*
X152759293Y-90508107D01*
X152774958Y-90532993D01*
X152819173Y-90571339D01*
X152874696Y-90589847D01*
X152933076Y-90585698D01*
X152985425Y-90559524D01*
X153023772Y-90515308D01*
X153042279Y-90459786D01*
X153038130Y-90401406D01*
X153027621Y-90373942D01*
X152972028Y-90262757D01*
X152972028Y-90108222D01*
X153024561Y-89950623D01*
X153125168Y-89850016D01*
X153231527Y-89796837D01*
X153483349Y-89733882D01*
X153660707Y-89733882D01*
X153912528Y-89796836D01*
X154018888Y-89850017D01*
X154119494Y-89950622D01*
X154172028Y-90108224D01*
X154172028Y-90202396D01*
X154119494Y-90359998D01*
X154117040Y-90362453D01*
X153829171Y-90362453D01*
X153829171Y-90226739D01*
X153826289Y-90197475D01*
X153803891Y-90143403D01*
X153762507Y-90102019D01*
X153708435Y-90079621D01*
X153649907Y-90079621D01*
X153595835Y-90102019D01*
X153554451Y-90143403D01*
X153532053Y-90197475D01*
X153529171Y-90226739D01*
X153529171Y-90512453D01*
X153532053Y-90541715D01*
X153532053Y-90541717D01*
X153554451Y-90595789D01*
X153595835Y-90637173D01*
X153649907Y-90659571D01*
X153679171Y-90662453D01*
X154179171Y-90662453D01*
X154208435Y-90659571D01*
X154262507Y-90637173D01*
X154262510Y-90637169D01*
X154285236Y-90618520D01*
X154356665Y-90547092D01*
X154375320Y-90524361D01*
X154377381Y-90519384D01*
X154380915Y-90515310D01*
X154392903Y-90488459D01*
X154464331Y-90274173D01*
X154467630Y-90259660D01*
X154469146Y-90256003D01*
X154469668Y-90250700D01*
X154470851Y-90245499D01*
X154470569Y-90241544D01*
X154472028Y-90226739D01*
X154472028Y-90083882D01*
X154470569Y-90069076D01*
X154470851Y-90065122D01*
X154469668Y-90059920D01*
X154469146Y-90054618D01*
X154467630Y-90050960D01*
X154464331Y-90036448D01*
X154392903Y-89822162D01*
X154380915Y-89795311D01*
X154377383Y-89791239D01*
X154375321Y-89786260D01*
X154356666Y-89763530D01*
X154213808Y-89620673D01*
X154202306Y-89611233D01*
X154199710Y-89608240D01*
X154195196Y-89605399D01*
X154191077Y-89602018D01*
X154187417Y-89600502D01*
X154174824Y-89592575D01*
X154031967Y-89521146D01*
X154029826Y-89520326D01*
X154028956Y-89519682D01*
X154016678Y-89515295D01*
X154004504Y-89510637D01*
X154003423Y-89510560D01*
X154001265Y-89509789D01*
X153715551Y-89438361D01*
X153710479Y-89437611D01*
X153708435Y-89436764D01*
X153697412Y-89435678D01*
X153686462Y-89434059D01*
X153684274Y-89434384D01*
X153679171Y-89433882D01*
X153464885Y-89433882D01*
X153459781Y-89434384D01*
X153457594Y-89434059D01*
X153446643Y-89435678D01*
X153435621Y-89436764D01*
X153433576Y-89437611D01*
X153428505Y-89438361D01*
X153142791Y-89509789D01*
X153140632Y-89510560D01*
X153139552Y-89510637D01*
X153127371Y-89515297D01*
X153115100Y-89519682D01*
X153114230Y-89520326D01*
X153112088Y-89521146D01*
X152969232Y-89592575D01*
X152956640Y-89600501D01*
X152952978Y-89602018D01*
X152948855Y-89605401D01*
X152944346Y-89608240D01*
X152941750Y-89611232D01*
X152930248Y-89620673D01*
X152787391Y-89763530D01*
X152768736Y-89786261D01*
X152766673Y-89791240D01*
X152763143Y-89795311D01*
X152751154Y-89822162D01*
X152679726Y-90036448D01*
X152676427Y-90050955D01*
X152674910Y-90054618D01*
X152674387Y-90059926D01*
X152673206Y-90065121D01*
X152673486Y-90069070D01*
X152672028Y-90083882D01*
X152505361Y-90083882D01*
X152505361Y-89267215D01*
X154638695Y-89267215D01*
X154638695Y-93900549D01*
G37*
G36*
X181730975Y-100351628D02*
G01*
X181344956Y-100351628D01*
X181255542Y-100306921D01*
X181218537Y-100269916D01*
X181173832Y-100180504D01*
X181173832Y-100037037D01*
X181218537Y-99947625D01*
X181247715Y-99918447D01*
X181405318Y-99865914D01*
X181730975Y-99865914D01*
X181730975Y-100351628D01*
G37*
G36*
X181730975Y-99565914D02*
G01*
X181416385Y-99565914D01*
X181326971Y-99521206D01*
X181289967Y-99484203D01*
X181245260Y-99394789D01*
X181245260Y-99322752D01*
X181289967Y-99233338D01*
X181326971Y-99196335D01*
X181416385Y-99151628D01*
X181730975Y-99151628D01*
X181730975Y-99565914D01*
G37*
G36*
X180244290Y-99923057D02*
G01*
X179946231Y-99923057D01*
X180095260Y-99475969D01*
X180244290Y-99923057D01*
G37*
G36*
X183696464Y-100818295D02*
G01*
X176495762Y-100818295D01*
X176495762Y-99900936D01*
X176662429Y-99900936D01*
X176662429Y-99959464D01*
X176684827Y-100013536D01*
X176726211Y-100054920D01*
X176780283Y-100077318D01*
X176809547Y-100080200D01*
X177230975Y-100080200D01*
X177230975Y-100501628D01*
X177233857Y-100530892D01*
X177256255Y-100584964D01*
X177297639Y-100626348D01*
X177351711Y-100648746D01*
X177410239Y-100648746D01*
X177464311Y-100626348D01*
X177505695Y-100584964D01*
X177528093Y-100530892D01*
X177530975Y-100501628D01*
X177530975Y-100080200D01*
X177952404Y-100080200D01*
X177981668Y-100077318D01*
X178035740Y-100054920D01*
X178077124Y-100013536D01*
X178099522Y-99959464D01*
X178099522Y-99900936D01*
X178077124Y-99846864D01*
X178035740Y-99805480D01*
X177981668Y-99783082D01*
X177952404Y-99780200D01*
X177530975Y-99780200D01*
X177530975Y-99358771D01*
X177528093Y-99329507D01*
X177505695Y-99275435D01*
X177464311Y-99234051D01*
X177410239Y-99211653D01*
X177351711Y-99211653D01*
X177297639Y-99234051D01*
X177256255Y-99275435D01*
X177233857Y-99329507D01*
X177230975Y-99358771D01*
X177230975Y-99780200D01*
X176809547Y-99780200D01*
X176780283Y-99783082D01*
X176726211Y-99805480D01*
X176684827Y-99846864D01*
X176662429Y-99900936D01*
X176495762Y-99900936D01*
X176495762Y-98972364D01*
X178305286Y-98972364D01*
X178305286Y-99030892D01*
X178327684Y-99084964D01*
X178369068Y-99126348D01*
X178423140Y-99148746D01*
X178452404Y-99151628D01*
X178730975Y-99151628D01*
X178730975Y-100501628D01*
X178733857Y-100530892D01*
X178756255Y-100584964D01*
X178797639Y-100626348D01*
X178851711Y-100648746D01*
X178910239Y-100648746D01*
X178964311Y-100626348D01*
X179005695Y-100584964D01*
X179028093Y-100530892D01*
X179030975Y-100501628D01*
X179030975Y-100482867D01*
X179446438Y-100482867D01*
X179450587Y-100541248D01*
X179476761Y-100593595D01*
X179520975Y-100631942D01*
X179576499Y-100650450D01*
X179634880Y-100646301D01*
X179687227Y-100620127D01*
X179725574Y-100575913D01*
X179737562Y-100549062D01*
X179846231Y-100223057D01*
X180344290Y-100223057D01*
X180452958Y-100549062D01*
X180464946Y-100575913D01*
X180503293Y-100620128D01*
X180555641Y-100646301D01*
X180614021Y-100650451D01*
X180669545Y-100631942D01*
X180713759Y-100593595D01*
X180739933Y-100541248D01*
X180744083Y-100482868D01*
X180737563Y-100454194D01*
X180586707Y-100001628D01*
X180873832Y-100001628D01*
X180873832Y-100215914D01*
X180876714Y-100245178D01*
X180878776Y-100250156D01*
X180879158Y-100255532D01*
X180889668Y-100282996D01*
X180961096Y-100425853D01*
X180969023Y-100438446D01*
X180970539Y-100442106D01*
X180973920Y-100446225D01*
X180976761Y-100450739D01*
X180979754Y-100453335D01*
X180989194Y-100464837D01*
X181060623Y-100536266D01*
X181072127Y-100545707D01*
X181074722Y-100548699D01*
X181079231Y-100551537D01*
X181083354Y-100554921D01*
X181087015Y-100556437D01*
X181099607Y-100564364D01*
X181242465Y-100635792D01*
X181269928Y-100646302D01*
X181275303Y-100646683D01*
X181280282Y-100648746D01*
X181309546Y-100651628D01*
X181880975Y-100651628D01*
X181910239Y-100648746D01*
X181964311Y-100626348D01*
X182005695Y-100584964D01*
X182028093Y-100530892D01*
X182030975Y-100501628D01*
X182030975Y-99020389D01*
X182232152Y-99020389D01*
X182238672Y-99049062D01*
X182738672Y-100549062D01*
X182750660Y-100575913D01*
X182757682Y-100584010D01*
X182762475Y-100593595D01*
X182776681Y-100605916D01*
X182789007Y-100620128D01*
X182798594Y-100624921D01*
X182806689Y-100631942D01*
X182824531Y-100637889D01*
X182841355Y-100646301D01*
X182852045Y-100647060D01*
X182862213Y-100650450D01*
X182880969Y-100649117D01*
X182899735Y-100650451D01*
X182909905Y-100647060D01*
X182920594Y-100646301D01*
X182937415Y-100637890D01*
X182955259Y-100631942D01*
X182963355Y-100624919D01*
X182972941Y-100620127D01*
X182985264Y-100605918D01*
X182999473Y-100593595D01*
X183004265Y-100584009D01*
X183011288Y-100575913D01*
X183023276Y-100549062D01*
X183523277Y-99049062D01*
X183529797Y-99020388D01*
X183525647Y-98962008D01*
X183499473Y-98909661D01*
X183455259Y-98871314D01*
X183399735Y-98852805D01*
X183341355Y-98856955D01*
X183289007Y-98883128D01*
X183250660Y-98927343D01*
X183238672Y-98954194D01*
X182880974Y-100027286D01*
X182523276Y-98954194D01*
X182511288Y-98927343D01*
X182472941Y-98883129D01*
X182420594Y-98856955D01*
X182362213Y-98852806D01*
X182306689Y-98871314D01*
X182262475Y-98909661D01*
X182236301Y-98962008D01*
X182232152Y-99020389D01*
X182030975Y-99020389D01*
X182030975Y-99001628D01*
X182028093Y-98972364D01*
X182005695Y-98918292D01*
X181964311Y-98876908D01*
X181910239Y-98854510D01*
X181880975Y-98851628D01*
X181380975Y-98851628D01*
X181351711Y-98854510D01*
X181346730Y-98856573D01*
X181341356Y-98856955D01*
X181313892Y-98867464D01*
X181171036Y-98938893D01*
X181158442Y-98946820D01*
X181154783Y-98948336D01*
X181150662Y-98951717D01*
X181146150Y-98954558D01*
X181143553Y-98957551D01*
X181132053Y-98966990D01*
X181060624Y-99038418D01*
X181051184Y-99049920D01*
X181048190Y-99052517D01*
X181045348Y-99057031D01*
X181041969Y-99061149D01*
X181040453Y-99064807D01*
X181032525Y-99077403D01*
X180961096Y-99220260D01*
X180950587Y-99247723D01*
X180950205Y-99253097D01*
X180948142Y-99258078D01*
X180945260Y-99287342D01*
X180945260Y-99430200D01*
X180948142Y-99459464D01*
X180950205Y-99464444D01*
X180950587Y-99469819D01*
X180961096Y-99497282D01*
X181032525Y-99640139D01*
X181040453Y-99652734D01*
X181041969Y-99656393D01*
X181045348Y-99660510D01*
X181048190Y-99665025D01*
X181051184Y-99667621D01*
X181060624Y-99679124D01*
X181061805Y-99680305D01*
X181060623Y-99681276D01*
X180989194Y-99752705D01*
X180979754Y-99764206D01*
X180976761Y-99766803D01*
X180973920Y-99771316D01*
X180970539Y-99775436D01*
X180969023Y-99779095D01*
X180961096Y-99791689D01*
X180889668Y-99934546D01*
X180879158Y-99962010D01*
X180878776Y-99967385D01*
X180876714Y-99972364D01*
X180873832Y-100001628D01*
X180586707Y-100001628D01*
X180237562Y-98954194D01*
X180225574Y-98927343D01*
X180218551Y-98919246D01*
X180213759Y-98909661D01*
X180199550Y-98897337D01*
X180187227Y-98883129D01*
X180177641Y-98878336D01*
X180169545Y-98871314D01*
X180151701Y-98865365D01*
X180134880Y-98856955D01*
X180124191Y-98856195D01*
X180114021Y-98852805D01*
X180095255Y-98854138D01*
X180076499Y-98852806D01*
X180066331Y-98856195D01*
X180055641Y-98856955D01*
X180038817Y-98865366D01*
X180020975Y-98871314D01*
X180012880Y-98878334D01*
X180003293Y-98883128D01*
X179990967Y-98897339D01*
X179976761Y-98909661D01*
X179971968Y-98919245D01*
X179964946Y-98927343D01*
X179952958Y-98954194D01*
X179452958Y-100454194D01*
X179446438Y-100482867D01*
X179030975Y-100482867D01*
X179030975Y-99151628D01*
X179309546Y-99151628D01*
X179338810Y-99148746D01*
X179392882Y-99126348D01*
X179434266Y-99084964D01*
X179456664Y-99030892D01*
X179456664Y-98972364D01*
X179434266Y-98918292D01*
X179392882Y-98876908D01*
X179338810Y-98854510D01*
X179309546Y-98851628D01*
X178452404Y-98851628D01*
X178423140Y-98854510D01*
X178369068Y-98876908D01*
X178327684Y-98918292D01*
X178305286Y-98972364D01*
X176495762Y-98972364D01*
X176495762Y-98684961D01*
X183696464Y-98684961D01*
X183696464Y-100818295D01*
G37*
D10*
X166995849Y-72833952D02*
X166995849Y-73643476D01*
X166995849Y-73643476D02*
X167043468Y-73738714D01*
X167043468Y-73738714D02*
X167091087Y-73786333D01*
X167091087Y-73786333D02*
X167186325Y-73833952D01*
X167186325Y-73833952D02*
X167329182Y-73833952D01*
X167329182Y-73833952D02*
X167424420Y-73786333D01*
X166995849Y-73453000D02*
X167091087Y-73500619D01*
X167091087Y-73500619D02*
X167281563Y-73500619D01*
X167281563Y-73500619D02*
X167376801Y-73453000D01*
X167376801Y-73453000D02*
X167424420Y-73405380D01*
X167424420Y-73405380D02*
X167472039Y-73310142D01*
X167472039Y-73310142D02*
X167472039Y-73024428D01*
X167472039Y-73024428D02*
X167424420Y-72929190D01*
X167424420Y-72929190D02*
X167376801Y-72881571D01*
X167376801Y-72881571D02*
X167281563Y-72833952D01*
X167281563Y-72833952D02*
X167091087Y-72833952D01*
X167091087Y-72833952D02*
X166995849Y-72881571D01*
X166519658Y-73500619D02*
X166519658Y-72833952D01*
X166519658Y-72500619D02*
X166567277Y-72548238D01*
X166567277Y-72548238D02*
X166519658Y-72595857D01*
X166519658Y-72595857D02*
X166472039Y-72548238D01*
X166472039Y-72548238D02*
X166519658Y-72500619D01*
X166519658Y-72500619D02*
X166519658Y-72595857D01*
X166186325Y-72833952D02*
X165805373Y-72833952D01*
X166043468Y-72500619D02*
X166043468Y-73357761D01*
X166043468Y-73357761D02*
X165995849Y-73453000D01*
X165995849Y-73453000D02*
X165900611Y-73500619D01*
X165900611Y-73500619D02*
X165805373Y-73500619D01*
X165472039Y-73500619D02*
X165472039Y-72500619D01*
X165043468Y-73500619D02*
X165043468Y-72976809D01*
X165043468Y-72976809D02*
X165091087Y-72881571D01*
X165091087Y-72881571D02*
X165186325Y-72833952D01*
X165186325Y-72833952D02*
X165329182Y-72833952D01*
X165329182Y-72833952D02*
X165424420Y-72881571D01*
X165424420Y-72881571D02*
X165472039Y-72929190D01*
X164138706Y-72833952D02*
X164138706Y-73500619D01*
X164567277Y-72833952D02*
X164567277Y-73357761D01*
X164567277Y-73357761D02*
X164519658Y-73453000D01*
X164519658Y-73453000D02*
X164424420Y-73500619D01*
X164424420Y-73500619D02*
X164281563Y-73500619D01*
X164281563Y-73500619D02*
X164186325Y-73453000D01*
X164186325Y-73453000D02*
X164138706Y-73405380D01*
X163662515Y-73500619D02*
X163662515Y-72500619D01*
X163662515Y-72881571D02*
X163567277Y-72833952D01*
X163567277Y-72833952D02*
X163376801Y-72833952D01*
X163376801Y-72833952D02*
X163281563Y-72881571D01*
X163281563Y-72881571D02*
X163233944Y-72929190D01*
X163233944Y-72929190D02*
X163186325Y-73024428D01*
X163186325Y-73024428D02*
X163186325Y-73310142D01*
X163186325Y-73310142D02*
X163233944Y-73405380D01*
X163233944Y-73405380D02*
X163281563Y-73453000D01*
X163281563Y-73453000D02*
X163376801Y-73500619D01*
X163376801Y-73500619D02*
X163567277Y-73500619D01*
X163567277Y-73500619D02*
X163662515Y-73453000D01*
X162757753Y-73405380D02*
X162710134Y-73453000D01*
X162710134Y-73453000D02*
X162757753Y-73500619D01*
X162757753Y-73500619D02*
X162805372Y-73453000D01*
X162805372Y-73453000D02*
X162757753Y-73405380D01*
X162757753Y-73405380D02*
X162757753Y-73500619D01*
X161852992Y-73453000D02*
X161948230Y-73500619D01*
X161948230Y-73500619D02*
X162138706Y-73500619D01*
X162138706Y-73500619D02*
X162233944Y-73453000D01*
X162233944Y-73453000D02*
X162281563Y-73405380D01*
X162281563Y-73405380D02*
X162329182Y-73310142D01*
X162329182Y-73310142D02*
X162329182Y-73024428D01*
X162329182Y-73024428D02*
X162281563Y-72929190D01*
X162281563Y-72929190D02*
X162233944Y-72881571D01*
X162233944Y-72881571D02*
X162138706Y-72833952D01*
X162138706Y-72833952D02*
X161948230Y-72833952D01*
X161948230Y-72833952D02*
X161852992Y-72881571D01*
X161281563Y-73500619D02*
X161376801Y-73453000D01*
X161376801Y-73453000D02*
X161424420Y-73405380D01*
X161424420Y-73405380D02*
X161472039Y-73310142D01*
X161472039Y-73310142D02*
X161472039Y-73024428D01*
X161472039Y-73024428D02*
X161424420Y-72929190D01*
X161424420Y-72929190D02*
X161376801Y-72881571D01*
X161376801Y-72881571D02*
X161281563Y-72833952D01*
X161281563Y-72833952D02*
X161138706Y-72833952D01*
X161138706Y-72833952D02*
X161043468Y-72881571D01*
X161043468Y-72881571D02*
X160995849Y-72929190D01*
X160995849Y-72929190D02*
X160948230Y-73024428D01*
X160948230Y-73024428D02*
X160948230Y-73310142D01*
X160948230Y-73310142D02*
X160995849Y-73405380D01*
X160995849Y-73405380D02*
X161043468Y-73453000D01*
X161043468Y-73453000D02*
X161138706Y-73500619D01*
X161138706Y-73500619D02*
X161281563Y-73500619D01*
X160519658Y-73500619D02*
X160519658Y-72833952D01*
X160519658Y-72929190D02*
X160472039Y-72881571D01*
X160472039Y-72881571D02*
X160376801Y-72833952D01*
X160376801Y-72833952D02*
X160233944Y-72833952D01*
X160233944Y-72833952D02*
X160138706Y-72881571D01*
X160138706Y-72881571D02*
X160091087Y-72976809D01*
X160091087Y-72976809D02*
X160091087Y-73500619D01*
X160091087Y-72976809D02*
X160043468Y-72881571D01*
X160043468Y-72881571D02*
X159948230Y-72833952D01*
X159948230Y-72833952D02*
X159805373Y-72833952D01*
X159805373Y-72833952D02*
X159710134Y-72881571D01*
X159710134Y-72881571D02*
X159662515Y-72976809D01*
X159662515Y-72976809D02*
X159662515Y-73500619D01*
X158472040Y-72453000D02*
X159329182Y-73738714D01*
X158233944Y-72500619D02*
X157567278Y-73500619D01*
X157567278Y-72500619D02*
X158233944Y-73500619D01*
X157186325Y-73119666D02*
X156424421Y-73119666D01*
X155472040Y-73500619D02*
X155948230Y-73500619D01*
X155948230Y-73500619D02*
X155948230Y-72500619D01*
X154757754Y-73453000D02*
X154852992Y-73500619D01*
X154852992Y-73500619D02*
X155043468Y-73500619D01*
X155043468Y-73500619D02*
X155138706Y-73453000D01*
X155138706Y-73453000D02*
X155186325Y-73357761D01*
X155186325Y-73357761D02*
X155186325Y-72976809D01*
X155186325Y-72976809D02*
X155138706Y-72881571D01*
X155138706Y-72881571D02*
X155043468Y-72833952D01*
X155043468Y-72833952D02*
X154852992Y-72833952D01*
X154852992Y-72833952D02*
X154757754Y-72881571D01*
X154757754Y-72881571D02*
X154710135Y-72976809D01*
X154710135Y-72976809D02*
X154710135Y-73072047D01*
X154710135Y-73072047D02*
X155186325Y-73167285D01*
X154281563Y-73500619D02*
X154281563Y-72833952D01*
X154281563Y-72929190D02*
X154233944Y-72881571D01*
X154233944Y-72881571D02*
X154138706Y-72833952D01*
X154138706Y-72833952D02*
X153995849Y-72833952D01*
X153995849Y-72833952D02*
X153900611Y-72881571D01*
X153900611Y-72881571D02*
X153852992Y-72976809D01*
X153852992Y-72976809D02*
X153852992Y-73500619D01*
X153852992Y-72976809D02*
X153805373Y-72881571D01*
X153805373Y-72881571D02*
X153710135Y-72833952D01*
X153710135Y-72833952D02*
X153567278Y-72833952D01*
X153567278Y-72833952D02*
X153472039Y-72881571D01*
X153472039Y-72881571D02*
X153424420Y-72976809D01*
X153424420Y-72976809D02*
X153424420Y-73500619D01*
X152805373Y-73500619D02*
X152900611Y-73453000D01*
X152900611Y-73453000D02*
X152948230Y-73405380D01*
X152948230Y-73405380D02*
X152995849Y-73310142D01*
X152995849Y-73310142D02*
X152995849Y-73024428D01*
X152995849Y-73024428D02*
X152948230Y-72929190D01*
X152948230Y-72929190D02*
X152900611Y-72881571D01*
X152900611Y-72881571D02*
X152805373Y-72833952D01*
X152805373Y-72833952D02*
X152662516Y-72833952D01*
X152662516Y-72833952D02*
X152567278Y-72881571D01*
X152567278Y-72881571D02*
X152519659Y-72929190D01*
X152519659Y-72929190D02*
X152472040Y-73024428D01*
X152472040Y-73024428D02*
X152472040Y-73310142D01*
X152472040Y-73310142D02*
X152519659Y-73405380D01*
X152519659Y-73405380D02*
X152567278Y-73453000D01*
X152567278Y-73453000D02*
X152662516Y-73500619D01*
X152662516Y-73500619D02*
X152805373Y-73500619D01*
X152043468Y-72833952D02*
X152043468Y-73500619D01*
X152043468Y-72929190D02*
X151995849Y-72881571D01*
X151995849Y-72881571D02*
X151900611Y-72833952D01*
X151900611Y-72833952D02*
X151757754Y-72833952D01*
X151757754Y-72833952D02*
X151662516Y-72881571D01*
X151662516Y-72881571D02*
X151614897Y-72976809D01*
X151614897Y-72976809D02*
X151614897Y-73500619D01*
X151138706Y-73119666D02*
X150376802Y-73119666D01*
X149995849Y-72500619D02*
X149329183Y-73500619D01*
X149329183Y-72500619D02*
X149995849Y-73500619D01*
X148233945Y-72453000D02*
X149091087Y-73738714D01*
X147900611Y-73500619D02*
X147900611Y-72500619D01*
X147900611Y-72500619D02*
X147519659Y-72500619D01*
X147519659Y-72500619D02*
X147424421Y-72548238D01*
X147424421Y-72548238D02*
X147376802Y-72595857D01*
X147376802Y-72595857D02*
X147329183Y-72691095D01*
X147329183Y-72691095D02*
X147329183Y-72833952D01*
X147329183Y-72833952D02*
X147376802Y-72929190D01*
X147376802Y-72929190D02*
X147424421Y-72976809D01*
X147424421Y-72976809D02*
X147519659Y-73024428D01*
X147519659Y-73024428D02*
X147900611Y-73024428D01*
X146900611Y-73500619D02*
X146900611Y-72833952D01*
X146900611Y-72500619D02*
X146948230Y-72548238D01*
X146948230Y-72548238D02*
X146900611Y-72595857D01*
X146900611Y-72595857D02*
X146852992Y-72548238D01*
X146852992Y-72548238D02*
X146900611Y-72500619D01*
X146900611Y-72500619D02*
X146900611Y-72595857D01*
X146281564Y-73500619D02*
X146376802Y-73453000D01*
X146376802Y-73453000D02*
X146424421Y-73357761D01*
X146424421Y-73357761D02*
X146424421Y-72500619D01*
X145757754Y-73500619D02*
X145852992Y-73453000D01*
X145852992Y-73453000D02*
X145900611Y-73405380D01*
X145900611Y-73405380D02*
X145948230Y-73310142D01*
X145948230Y-73310142D02*
X145948230Y-73024428D01*
X145948230Y-73024428D02*
X145900611Y-72929190D01*
X145900611Y-72929190D02*
X145852992Y-72881571D01*
X145852992Y-72881571D02*
X145757754Y-72833952D01*
X145757754Y-72833952D02*
X145614897Y-72833952D01*
X145614897Y-72833952D02*
X145519659Y-72881571D01*
X145519659Y-72881571D02*
X145472040Y-72929190D01*
X145472040Y-72929190D02*
X145424421Y-73024428D01*
X145424421Y-73024428D02*
X145424421Y-73310142D01*
X145424421Y-73310142D02*
X145472040Y-73405380D01*
X145472040Y-73405380D02*
X145519659Y-73453000D01*
X145519659Y-73453000D02*
X145614897Y-73500619D01*
X145614897Y-73500619D02*
X145757754Y-73500619D01*
X145138706Y-72833952D02*
X144757754Y-72833952D01*
X144995849Y-72500619D02*
X144995849Y-73357761D01*
X144995849Y-73357761D02*
X144948230Y-73453000D01*
X144948230Y-73453000D02*
X144852992Y-73500619D01*
X144852992Y-73500619D02*
X144757754Y-73500619D01*
X144662516Y-73595857D02*
X143900611Y-73595857D01*
X143233944Y-72500619D02*
X143424420Y-72500619D01*
X143424420Y-72500619D02*
X143519658Y-72548238D01*
X143519658Y-72548238D02*
X143567277Y-72595857D01*
X143567277Y-72595857D02*
X143662515Y-72738714D01*
X143662515Y-72738714D02*
X143710134Y-72929190D01*
X143710134Y-72929190D02*
X143710134Y-73310142D01*
X143710134Y-73310142D02*
X143662515Y-73405380D01*
X143662515Y-73405380D02*
X143614896Y-73453000D01*
X143614896Y-73453000D02*
X143519658Y-73500619D01*
X143519658Y-73500619D02*
X143329182Y-73500619D01*
X143329182Y-73500619D02*
X143233944Y-73453000D01*
X143233944Y-73453000D02*
X143186325Y-73405380D01*
X143186325Y-73405380D02*
X143138706Y-73310142D01*
X143138706Y-73310142D02*
X143138706Y-73072047D01*
X143138706Y-73072047D02*
X143186325Y-72976809D01*
X143186325Y-72976809D02*
X143233944Y-72929190D01*
X143233944Y-72929190D02*
X143329182Y-72881571D01*
X143329182Y-72881571D02*
X143519658Y-72881571D01*
X143519658Y-72881571D02*
X143614896Y-72929190D01*
X143614896Y-72929190D02*
X143662515Y-72976809D01*
X143662515Y-72976809D02*
X143710134Y-73072047D01*
X142948230Y-73595857D02*
X142186325Y-73595857D01*
X141519658Y-73500619D02*
X141519658Y-72976809D01*
X141519658Y-72976809D02*
X141567277Y-72881571D01*
X141567277Y-72881571D02*
X141662515Y-72833952D01*
X141662515Y-72833952D02*
X141852991Y-72833952D01*
X141852991Y-72833952D02*
X141948229Y-72881571D01*
X141519658Y-73453000D02*
X141614896Y-73500619D01*
X141614896Y-73500619D02*
X141852991Y-73500619D01*
X141852991Y-73500619D02*
X141948229Y-73453000D01*
X141948229Y-73453000D02*
X141995848Y-73357761D01*
X141995848Y-73357761D02*
X141995848Y-73262523D01*
X141995848Y-73262523D02*
X141948229Y-73167285D01*
X141948229Y-73167285D02*
X141852991Y-73119666D01*
X141852991Y-73119666D02*
X141614896Y-73119666D01*
X141614896Y-73119666D02*
X141519658Y-73072047D01*
X141138705Y-73500619D02*
X140614896Y-72833952D01*
X141138705Y-72833952D02*
X140614896Y-73500619D01*
X140233943Y-73500619D02*
X140233943Y-72833952D01*
X140233943Y-72500619D02*
X140281562Y-72548238D01*
X140281562Y-72548238D02*
X140233943Y-72595857D01*
X140233943Y-72595857D02*
X140186324Y-72548238D01*
X140186324Y-72548238D02*
X140233943Y-72500619D01*
X140233943Y-72500619D02*
X140233943Y-72595857D01*
X139805372Y-73453000D02*
X139710134Y-73500619D01*
X139710134Y-73500619D02*
X139519658Y-73500619D01*
X139519658Y-73500619D02*
X139424420Y-73453000D01*
X139424420Y-73453000D02*
X139376801Y-73357761D01*
X139376801Y-73357761D02*
X139376801Y-73310142D01*
X139376801Y-73310142D02*
X139424420Y-73214904D01*
X139424420Y-73214904D02*
X139519658Y-73167285D01*
X139519658Y-73167285D02*
X139662515Y-73167285D01*
X139662515Y-73167285D02*
X139757753Y-73119666D01*
X139757753Y-73119666D02*
X139805372Y-73024428D01*
X139805372Y-73024428D02*
X139805372Y-72976809D01*
X139805372Y-72976809D02*
X139757753Y-72881571D01*
X139757753Y-72881571D02*
X139662515Y-72833952D01*
X139662515Y-72833952D02*
X139519658Y-72833952D01*
X139519658Y-72833952D02*
X139424420Y-72881571D01*
D12*
G36*
X183073356Y-108358295D02*
G01*
X178871475Y-108358295D01*
X178871475Y-106655222D01*
X179038142Y-106655222D01*
X179038142Y-106713748D01*
X179060539Y-106767820D01*
X179101925Y-106809206D01*
X179155997Y-106831603D01*
X179214523Y-106831603D01*
X179268595Y-106809206D01*
X179291326Y-106790551D01*
X179337715Y-106744161D01*
X179495317Y-106691628D01*
X179589491Y-106691628D01*
X179747089Y-106744161D01*
X179847696Y-106844768D01*
X179900875Y-106951127D01*
X179963831Y-107202948D01*
X179963831Y-107380307D01*
X179900875Y-107632128D01*
X179847696Y-107738488D01*
X179747090Y-107839094D01*
X179589488Y-107891628D01*
X179495317Y-107891628D01*
X179337714Y-107839094D01*
X179291327Y-107792706D01*
X179268596Y-107774051D01*
X179214524Y-107751653D01*
X179155998Y-107751653D01*
X179101926Y-107774050D01*
X179060540Y-107815435D01*
X179038142Y-107869507D01*
X179038142Y-107928033D01*
X179060539Y-107982105D01*
X179079193Y-108004836D01*
X179150621Y-108076265D01*
X179173352Y-108094920D01*
X179178328Y-108096981D01*
X179182403Y-108100515D01*
X179209254Y-108112503D01*
X179423540Y-108183931D01*
X179438052Y-108187230D01*
X179441710Y-108188746D01*
X179447012Y-108189268D01*
X179452214Y-108190451D01*
X179456168Y-108190169D01*
X179470974Y-108191628D01*
X179613831Y-108191628D01*
X179628636Y-108190169D01*
X179632591Y-108190451D01*
X179637792Y-108189268D01*
X179643095Y-108188746D01*
X179646752Y-108187230D01*
X179661265Y-108183931D01*
X179875551Y-108112503D01*
X179902402Y-108100515D01*
X179906473Y-108096983D01*
X179911453Y-108094921D01*
X179934183Y-108076266D01*
X180077040Y-107933408D01*
X180086478Y-107921906D01*
X180089473Y-107919310D01*
X180092313Y-107914796D01*
X180095695Y-107910677D01*
X180097210Y-107907017D01*
X180105138Y-107894424D01*
X180176567Y-107751568D01*
X180177386Y-107749425D01*
X180178031Y-107748556D01*
X180182415Y-107736284D01*
X180187076Y-107724104D01*
X180187152Y-107723023D01*
X180187924Y-107720865D01*
X180259352Y-107435151D01*
X180260101Y-107430079D01*
X180260949Y-107428035D01*
X180262034Y-107417012D01*
X180263654Y-107406062D01*
X180263328Y-107403874D01*
X180263831Y-107398771D01*
X180263831Y-107184485D01*
X180263328Y-107179381D01*
X180263654Y-107177194D01*
X180262034Y-107166243D01*
X180260949Y-107155221D01*
X180260101Y-107153176D01*
X180259352Y-107148105D01*
X180187924Y-106862391D01*
X180187152Y-106860232D01*
X180187076Y-106859152D01*
X180182415Y-106846971D01*
X180178031Y-106834700D01*
X180177386Y-106833830D01*
X180176567Y-106831688D01*
X180105138Y-106688832D01*
X180097211Y-106676240D01*
X180095695Y-106672578D01*
X180092311Y-106668455D01*
X180089473Y-106663946D01*
X180086480Y-106661350D01*
X180077040Y-106649848D01*
X179939556Y-106512364D01*
X180395285Y-106512364D01*
X180395285Y-106570892D01*
X180417683Y-106624964D01*
X180459067Y-106666348D01*
X180513139Y-106688746D01*
X180542403Y-106691628D01*
X180820974Y-106691628D01*
X180820974Y-108041628D01*
X180823856Y-108070892D01*
X180846254Y-108124964D01*
X180887638Y-108166348D01*
X180941710Y-108188746D01*
X181000238Y-108188746D01*
X181054310Y-108166348D01*
X181095694Y-108124964D01*
X181118092Y-108070892D01*
X181120974Y-108041628D01*
X181120974Y-106691628D01*
X181399545Y-106691628D01*
X181428809Y-106688746D01*
X181482881Y-106666348D01*
X181524265Y-106624964D01*
X181546663Y-106570892D01*
X181546663Y-106541628D01*
X181749546Y-106541628D01*
X181749546Y-108041628D01*
X181750287Y-108049153D01*
X181749912Y-108052105D01*
X181750954Y-108055925D01*
X181752428Y-108070892D01*
X181760063Y-108089324D01*
X181765312Y-108108569D01*
X181771166Y-108116128D01*
X181774826Y-108124964D01*
X181788933Y-108139071D01*
X181801147Y-108154843D01*
X181809449Y-108159587D01*
X181816210Y-108166348D01*
X181834640Y-108173982D01*
X181851963Y-108183881D01*
X181861448Y-108185086D01*
X181870282Y-108188746D01*
X181890232Y-108188746D01*
X181910023Y-108191262D01*
X181919248Y-108188746D01*
X181928810Y-108188746D01*
X181947242Y-108181110D01*
X181966487Y-108175862D01*
X181974046Y-108170007D01*
X181982882Y-108166348D01*
X181996989Y-108152240D01*
X182012761Y-108140027D01*
X182021466Y-108127763D01*
X182024266Y-108124964D01*
X182025404Y-108122216D01*
X182029782Y-108116049D01*
X182606689Y-107106463D01*
X182606689Y-108041628D01*
X182609571Y-108070892D01*
X182631969Y-108124964D01*
X182673353Y-108166348D01*
X182727425Y-108188746D01*
X182785953Y-108188746D01*
X182840025Y-108166348D01*
X182881409Y-108124964D01*
X182903807Y-108070892D01*
X182906689Y-108041628D01*
X182906689Y-106541628D01*
X182905947Y-106534101D01*
X182906323Y-106531150D01*
X182905280Y-106527328D01*
X182903807Y-106512364D01*
X182896171Y-106493931D01*
X182890923Y-106474687D01*
X182885068Y-106467127D01*
X182881409Y-106458292D01*
X182867301Y-106444184D01*
X182855088Y-106428413D01*
X182846785Y-106423668D01*
X182840025Y-106416908D01*
X182821594Y-106409273D01*
X182804272Y-106399375D01*
X182794786Y-106398169D01*
X182785953Y-106394510D01*
X182766003Y-106394510D01*
X182746212Y-106391994D01*
X182736987Y-106394510D01*
X182727425Y-106394510D01*
X182708996Y-106402143D01*
X182689748Y-106407393D01*
X182682186Y-106413249D01*
X182673353Y-106416908D01*
X182659247Y-106431013D01*
X182643474Y-106443229D01*
X182634768Y-106455492D01*
X182631969Y-106458292D01*
X182630830Y-106461039D01*
X182626453Y-106467207D01*
X182049546Y-107476794D01*
X182049546Y-106541628D01*
X182046664Y-106512364D01*
X182024266Y-106458292D01*
X181982882Y-106416908D01*
X181928810Y-106394510D01*
X181870282Y-106394510D01*
X181816210Y-106416908D01*
X181774826Y-106458292D01*
X181752428Y-106512364D01*
X181749546Y-106541628D01*
X181546663Y-106541628D01*
X181546663Y-106512364D01*
X181524265Y-106458292D01*
X181482881Y-106416908D01*
X181428809Y-106394510D01*
X181399545Y-106391628D01*
X180542403Y-106391628D01*
X180513139Y-106394510D01*
X180459067Y-106416908D01*
X180417683Y-106458292D01*
X180395285Y-106512364D01*
X179939556Y-106512364D01*
X179934183Y-106506991D01*
X179911452Y-106488336D01*
X179906472Y-106486273D01*
X179902402Y-106482743D01*
X179875551Y-106470754D01*
X179661265Y-106399326D01*
X179646757Y-106396027D01*
X179643095Y-106394510D01*
X179637786Y-106393987D01*
X179632592Y-106392806D01*
X179628642Y-106393086D01*
X179613831Y-106391628D01*
X179470974Y-106391628D01*
X179456162Y-106393086D01*
X179452213Y-106392806D01*
X179447018Y-106393987D01*
X179441710Y-106394510D01*
X179438048Y-106396026D01*
X179423539Y-106399326D01*
X179209254Y-106470755D01*
X179182403Y-106482743D01*
X179178332Y-106486272D01*
X179173352Y-106488336D01*
X179150622Y-106506991D01*
X179079194Y-106578419D01*
X179060539Y-106601150D01*
X179038142Y-106655222D01*
X178871475Y-106655222D01*
X178871475Y-106224961D01*
X183073356Y-106224961D01*
X183073356Y-108358295D01*
G37*
G36*
X180105260Y-103171628D02*
G01*
X179922460Y-103171628D01*
X179764857Y-103119094D01*
X179664252Y-103018488D01*
X179611071Y-102912128D01*
X179548117Y-102660307D01*
X179548117Y-102482948D01*
X179611071Y-102231127D01*
X179664252Y-102124767D01*
X179764858Y-102024161D01*
X179922460Y-101971628D01*
X180105260Y-101971628D01*
X180105260Y-103171628D01*
G37*
G36*
X183714784Y-103638295D02*
G01*
X179081450Y-103638295D01*
X179081450Y-102464485D01*
X179248117Y-102464485D01*
X179248117Y-102678771D01*
X179248619Y-102683874D01*
X179248294Y-102686062D01*
X179249913Y-102697012D01*
X179250999Y-102708035D01*
X179251846Y-102710079D01*
X179252596Y-102715151D01*
X179324024Y-103000865D01*
X179324795Y-103003023D01*
X179324872Y-103004104D01*
X179329530Y-103016278D01*
X179333917Y-103028556D01*
X179334561Y-103029426D01*
X179335381Y-103031567D01*
X179406810Y-103174424D01*
X179414737Y-103187017D01*
X179416253Y-103190677D01*
X179419634Y-103194796D01*
X179422475Y-103199310D01*
X179425468Y-103201906D01*
X179434908Y-103213408D01*
X179577765Y-103356266D01*
X179600495Y-103374921D01*
X179605474Y-103376983D01*
X179609546Y-103380515D01*
X179636397Y-103392503D01*
X179850683Y-103463931D01*
X179865195Y-103467230D01*
X179868853Y-103468746D01*
X179874155Y-103469268D01*
X179879357Y-103470451D01*
X179883311Y-103470169D01*
X179898117Y-103471628D01*
X180255260Y-103471628D01*
X180284524Y-103468746D01*
X180338596Y-103446348D01*
X180379980Y-103404964D01*
X180402378Y-103350892D01*
X180405260Y-103321628D01*
X180405260Y-101821628D01*
X180819546Y-101821628D01*
X180819546Y-103321628D01*
X180820287Y-103329153D01*
X180819912Y-103332105D01*
X180820954Y-103335925D01*
X180822428Y-103350892D01*
X180830063Y-103369324D01*
X180835312Y-103388569D01*
X180841166Y-103396128D01*
X180844826Y-103404964D01*
X180858933Y-103419071D01*
X180871147Y-103434843D01*
X180879449Y-103439587D01*
X180886210Y-103446348D01*
X180904640Y-103453982D01*
X180921963Y-103463881D01*
X180931448Y-103465086D01*
X180940282Y-103468746D01*
X180960232Y-103468746D01*
X180980023Y-103471262D01*
X180989248Y-103468746D01*
X180998810Y-103468746D01*
X181017242Y-103461110D01*
X181036487Y-103455862D01*
X181044046Y-103450007D01*
X181052882Y-103446348D01*
X181066989Y-103432240D01*
X181082761Y-103420027D01*
X181091466Y-103407763D01*
X181094266Y-103404964D01*
X181095404Y-103402216D01*
X181099782Y-103396049D01*
X181676689Y-102386463D01*
X181676689Y-103321628D01*
X181679571Y-103350892D01*
X181701969Y-103404964D01*
X181743353Y-103446348D01*
X181797425Y-103468746D01*
X181855953Y-103468746D01*
X181910025Y-103446348D01*
X181951409Y-103404964D01*
X181973807Y-103350892D01*
X181976689Y-103321628D01*
X181976689Y-102678771D01*
X182319546Y-102678771D01*
X182319546Y-103178771D01*
X182322428Y-103208035D01*
X182344826Y-103262107D01*
X182344829Y-103262110D01*
X182363479Y-103284836D01*
X182434907Y-103356265D01*
X182457638Y-103374920D01*
X182462614Y-103376981D01*
X182466689Y-103380515D01*
X182493540Y-103392503D01*
X182707826Y-103463931D01*
X182722338Y-103467230D01*
X182725996Y-103468746D01*
X182731298Y-103469268D01*
X182736500Y-103470451D01*
X182740454Y-103470169D01*
X182755260Y-103471628D01*
X182898117Y-103471628D01*
X182912922Y-103470169D01*
X182916877Y-103470451D01*
X182922078Y-103469268D01*
X182927381Y-103468746D01*
X182931038Y-103467230D01*
X182945551Y-103463931D01*
X183159837Y-103392503D01*
X183186688Y-103380515D01*
X183190759Y-103376983D01*
X183195739Y-103374921D01*
X183218469Y-103356266D01*
X183361326Y-103213408D01*
X183370764Y-103201906D01*
X183373759Y-103199310D01*
X183376599Y-103194796D01*
X183379981Y-103190677D01*
X183381496Y-103187017D01*
X183389424Y-103174424D01*
X183460853Y-103031568D01*
X183461672Y-103029425D01*
X183462317Y-103028556D01*
X183466701Y-103016284D01*
X183471362Y-103004104D01*
X183471438Y-103003023D01*
X183472210Y-103000865D01*
X183543638Y-102715151D01*
X183544387Y-102710079D01*
X183545235Y-102708035D01*
X183546320Y-102697012D01*
X183547940Y-102686062D01*
X183547614Y-102683874D01*
X183548117Y-102678771D01*
X183548117Y-102464485D01*
X183547614Y-102459381D01*
X183547940Y-102457194D01*
X183546320Y-102446243D01*
X183545235Y-102435221D01*
X183544387Y-102433176D01*
X183543638Y-102428105D01*
X183472210Y-102142391D01*
X183471438Y-102140232D01*
X183471362Y-102139152D01*
X183466701Y-102126971D01*
X183462317Y-102114700D01*
X183461672Y-102113830D01*
X183460853Y-102111688D01*
X183389424Y-101968832D01*
X183381497Y-101956240D01*
X183379981Y-101952578D01*
X183376597Y-101948455D01*
X183373759Y-101943946D01*
X183370766Y-101941350D01*
X183361326Y-101929848D01*
X183218469Y-101786991D01*
X183195738Y-101768336D01*
X183190758Y-101766273D01*
X183186688Y-101762743D01*
X183159837Y-101750754D01*
X182945551Y-101679326D01*
X182931043Y-101676027D01*
X182927381Y-101674510D01*
X182922072Y-101673987D01*
X182916878Y-101672806D01*
X182912928Y-101673086D01*
X182898117Y-101671628D01*
X182683832Y-101671628D01*
X182654568Y-101674510D01*
X182649590Y-101676571D01*
X182644213Y-101676954D01*
X182616750Y-101687464D01*
X182473892Y-101758893D01*
X182449006Y-101774558D01*
X182410660Y-101818773D01*
X182392152Y-101874295D01*
X182396300Y-101932676D01*
X182422475Y-101985025D01*
X182466690Y-102023371D01*
X182522212Y-102041879D01*
X182580593Y-102037731D01*
X182608056Y-102027221D01*
X182719242Y-101971628D01*
X182873777Y-101971628D01*
X183031375Y-102024161D01*
X183131982Y-102124768D01*
X183185161Y-102231127D01*
X183248117Y-102482948D01*
X183248117Y-102660307D01*
X183185161Y-102912128D01*
X183131982Y-103018488D01*
X183031376Y-103119094D01*
X182873774Y-103171628D01*
X182779603Y-103171628D01*
X182622000Y-103119094D01*
X182619546Y-103116639D01*
X182619546Y-102828771D01*
X182755260Y-102828771D01*
X182784524Y-102825889D01*
X182838596Y-102803491D01*
X182879980Y-102762107D01*
X182902378Y-102708035D01*
X182902378Y-102649507D01*
X182879980Y-102595435D01*
X182838596Y-102554051D01*
X182784524Y-102531653D01*
X182755260Y-102528771D01*
X182469546Y-102528771D01*
X182440282Y-102531653D01*
X182386210Y-102554051D01*
X182344826Y-102595435D01*
X182322428Y-102649507D01*
X182319546Y-102678771D01*
X181976689Y-102678771D01*
X181976689Y-101821628D01*
X181975947Y-101814101D01*
X181976323Y-101811150D01*
X181975280Y-101807328D01*
X181973807Y-101792364D01*
X181966171Y-101773931D01*
X181960923Y-101754687D01*
X181955068Y-101747127D01*
X181951409Y-101738292D01*
X181937301Y-101724184D01*
X181925088Y-101708413D01*
X181916785Y-101703668D01*
X181910025Y-101696908D01*
X181891594Y-101689273D01*
X181874272Y-101679375D01*
X181864786Y-101678169D01*
X181855953Y-101674510D01*
X181836003Y-101674510D01*
X181816212Y-101671994D01*
X181806987Y-101674510D01*
X181797425Y-101674510D01*
X181778996Y-101682143D01*
X181759748Y-101687393D01*
X181752186Y-101693249D01*
X181743353Y-101696908D01*
X181729247Y-101711013D01*
X181713474Y-101723229D01*
X181704768Y-101735492D01*
X181701969Y-101738292D01*
X181700830Y-101741039D01*
X181696453Y-101747207D01*
X181119546Y-102756794D01*
X181119546Y-101821628D01*
X181116664Y-101792364D01*
X181094266Y-101738292D01*
X181052882Y-101696908D01*
X180998810Y-101674510D01*
X180940282Y-101674510D01*
X180886210Y-101696908D01*
X180844826Y-101738292D01*
X180822428Y-101792364D01*
X180819546Y-101821628D01*
X180405260Y-101821628D01*
X180402378Y-101792364D01*
X180379980Y-101738292D01*
X180338596Y-101696908D01*
X180284524Y-101674510D01*
X180255260Y-101671628D01*
X179898117Y-101671628D01*
X179883305Y-101673086D01*
X179879356Y-101672806D01*
X179874161Y-101673987D01*
X179868853Y-101674510D01*
X179865191Y-101676026D01*
X179850682Y-101679326D01*
X179636397Y-101750755D01*
X179609546Y-101762743D01*
X179605476Y-101766272D01*
X179600495Y-101768336D01*
X179577765Y-101786991D01*
X179434908Y-101929848D01*
X179425468Y-101941349D01*
X179422475Y-101943946D01*
X179419634Y-101948459D01*
X179416253Y-101952579D01*
X179414737Y-101956238D01*
X179406810Y-101968832D01*
X179335381Y-102111689D01*
X179334561Y-102113829D01*
X179333917Y-102114700D01*
X179329530Y-102126977D01*
X179324872Y-102139152D01*
X179324795Y-102140232D01*
X179324024Y-102142391D01*
X179252596Y-102428105D01*
X179251846Y-102433176D01*
X179250999Y-102435221D01*
X179249913Y-102446243D01*
X179248294Y-102457194D01*
X179248619Y-102459381D01*
X179248117Y-102464485D01*
X179081450Y-102464485D01*
X179081450Y-101504961D01*
X183714784Y-101504961D01*
X183714784Y-103638295D01*
G37*
G36*
X145385260Y-98481628D02*
G01*
X145202460Y-98481628D01*
X145044857Y-98429094D01*
X144944252Y-98328488D01*
X144891071Y-98222128D01*
X144828117Y-97970307D01*
X144828117Y-97792948D01*
X144891071Y-97541127D01*
X144944252Y-97434767D01*
X145044858Y-97334161D01*
X145202460Y-97281628D01*
X145385260Y-97281628D01*
X145385260Y-98481628D01*
G37*
G36*
X148994784Y-98948295D02*
G01*
X144361450Y-98948295D01*
X144361450Y-97774485D01*
X144528117Y-97774485D01*
X144528117Y-97988771D01*
X144528619Y-97993874D01*
X144528294Y-97996062D01*
X144529913Y-98007012D01*
X144530999Y-98018035D01*
X144531846Y-98020079D01*
X144532596Y-98025151D01*
X144604024Y-98310865D01*
X144604795Y-98313023D01*
X144604872Y-98314104D01*
X144609530Y-98326278D01*
X144613917Y-98338556D01*
X144614561Y-98339426D01*
X144615381Y-98341567D01*
X144686810Y-98484424D01*
X144694737Y-98497017D01*
X144696253Y-98500677D01*
X144699634Y-98504796D01*
X144702475Y-98509310D01*
X144705468Y-98511906D01*
X144714908Y-98523408D01*
X144857765Y-98666266D01*
X144880495Y-98684921D01*
X144885474Y-98686983D01*
X144889546Y-98690515D01*
X144916397Y-98702503D01*
X145130683Y-98773931D01*
X145145195Y-98777230D01*
X145148853Y-98778746D01*
X145154155Y-98779268D01*
X145159357Y-98780451D01*
X145163311Y-98780169D01*
X145178117Y-98781628D01*
X145535260Y-98781628D01*
X145564524Y-98778746D01*
X145618596Y-98756348D01*
X145659980Y-98714964D01*
X145682378Y-98660892D01*
X145685260Y-98631628D01*
X145685260Y-97131628D01*
X146099546Y-97131628D01*
X146099546Y-98631628D01*
X146100287Y-98639153D01*
X146099912Y-98642105D01*
X146100954Y-98645925D01*
X146102428Y-98660892D01*
X146110063Y-98679324D01*
X146115312Y-98698569D01*
X146121166Y-98706128D01*
X146124826Y-98714964D01*
X146138933Y-98729071D01*
X146151147Y-98744843D01*
X146159449Y-98749587D01*
X146166210Y-98756348D01*
X146184640Y-98763982D01*
X146201963Y-98773881D01*
X146211448Y-98775086D01*
X146220282Y-98778746D01*
X146240232Y-98778746D01*
X146260023Y-98781262D01*
X146269248Y-98778746D01*
X146278810Y-98778746D01*
X146297242Y-98771110D01*
X146316487Y-98765862D01*
X146324046Y-98760007D01*
X146332882Y-98756348D01*
X146346989Y-98742240D01*
X146362761Y-98730027D01*
X146371466Y-98717763D01*
X146374266Y-98714964D01*
X146375404Y-98712216D01*
X146379782Y-98706049D01*
X146956689Y-97696463D01*
X146956689Y-98631628D01*
X146959571Y-98660892D01*
X146981969Y-98714964D01*
X147023353Y-98756348D01*
X147077425Y-98778746D01*
X147135953Y-98778746D01*
X147190025Y-98756348D01*
X147231409Y-98714964D01*
X147253807Y-98660892D01*
X147256689Y-98631628D01*
X147256689Y-97988771D01*
X147599546Y-97988771D01*
X147599546Y-98488771D01*
X147602428Y-98518035D01*
X147624826Y-98572107D01*
X147624829Y-98572110D01*
X147643479Y-98594836D01*
X147714907Y-98666265D01*
X147737638Y-98684920D01*
X147742614Y-98686981D01*
X147746689Y-98690515D01*
X147773540Y-98702503D01*
X147987826Y-98773931D01*
X148002338Y-98777230D01*
X148005996Y-98778746D01*
X148011298Y-98779268D01*
X148016500Y-98780451D01*
X148020454Y-98780169D01*
X148035260Y-98781628D01*
X148178117Y-98781628D01*
X148192922Y-98780169D01*
X148196877Y-98780451D01*
X148202078Y-98779268D01*
X148207381Y-98778746D01*
X148211038Y-98777230D01*
X148225551Y-98773931D01*
X148439837Y-98702503D01*
X148466688Y-98690515D01*
X148470759Y-98686983D01*
X148475739Y-98684921D01*
X148498469Y-98666266D01*
X148641326Y-98523408D01*
X148650764Y-98511906D01*
X148653759Y-98509310D01*
X148656599Y-98504796D01*
X148659981Y-98500677D01*
X148661496Y-98497017D01*
X148669424Y-98484424D01*
X148740853Y-98341568D01*
X148741672Y-98339425D01*
X148742317Y-98338556D01*
X148746701Y-98326284D01*
X148751362Y-98314104D01*
X148751438Y-98313023D01*
X148752210Y-98310865D01*
X148823638Y-98025151D01*
X148824387Y-98020079D01*
X148825235Y-98018035D01*
X148826320Y-98007012D01*
X148827940Y-97996062D01*
X148827614Y-97993874D01*
X148828117Y-97988771D01*
X148828117Y-97774485D01*
X148827614Y-97769381D01*
X148827940Y-97767194D01*
X148826320Y-97756243D01*
X148825235Y-97745221D01*
X148824387Y-97743176D01*
X148823638Y-97738105D01*
X148752210Y-97452391D01*
X148751438Y-97450232D01*
X148751362Y-97449152D01*
X148746701Y-97436971D01*
X148742317Y-97424700D01*
X148741672Y-97423830D01*
X148740853Y-97421688D01*
X148669424Y-97278832D01*
X148661497Y-97266240D01*
X148659981Y-97262578D01*
X148656597Y-97258455D01*
X148653759Y-97253946D01*
X148650766Y-97251350D01*
X148641326Y-97239848D01*
X148498469Y-97096991D01*
X148475738Y-97078336D01*
X148470758Y-97076273D01*
X148466688Y-97072743D01*
X148439837Y-97060754D01*
X148225551Y-96989326D01*
X148211043Y-96986027D01*
X148207381Y-96984510D01*
X148202072Y-96983987D01*
X148196878Y-96982806D01*
X148192928Y-96983086D01*
X148178117Y-96981628D01*
X147963832Y-96981628D01*
X147934568Y-96984510D01*
X147929590Y-96986571D01*
X147924213Y-96986954D01*
X147896750Y-96997464D01*
X147753892Y-97068893D01*
X147729006Y-97084558D01*
X147690660Y-97128773D01*
X147672152Y-97184295D01*
X147676300Y-97242676D01*
X147702475Y-97295025D01*
X147746690Y-97333371D01*
X147802212Y-97351879D01*
X147860593Y-97347731D01*
X147888056Y-97337221D01*
X147999242Y-97281628D01*
X148153777Y-97281628D01*
X148311375Y-97334161D01*
X148411982Y-97434768D01*
X148465161Y-97541127D01*
X148528117Y-97792948D01*
X148528117Y-97970307D01*
X148465161Y-98222128D01*
X148411982Y-98328488D01*
X148311376Y-98429094D01*
X148153774Y-98481628D01*
X148059603Y-98481628D01*
X147902000Y-98429094D01*
X147899546Y-98426639D01*
X147899546Y-98138771D01*
X148035260Y-98138771D01*
X148064524Y-98135889D01*
X148118596Y-98113491D01*
X148159980Y-98072107D01*
X148182378Y-98018035D01*
X148182378Y-97959507D01*
X148159980Y-97905435D01*
X148118596Y-97864051D01*
X148064524Y-97841653D01*
X148035260Y-97838771D01*
X147749546Y-97838771D01*
X147720282Y-97841653D01*
X147666210Y-97864051D01*
X147624826Y-97905435D01*
X147602428Y-97959507D01*
X147599546Y-97988771D01*
X147256689Y-97988771D01*
X147256689Y-97131628D01*
X147255947Y-97124101D01*
X147256323Y-97121150D01*
X147255280Y-97117328D01*
X147253807Y-97102364D01*
X147246171Y-97083931D01*
X147240923Y-97064687D01*
X147235068Y-97057127D01*
X147231409Y-97048292D01*
X147217301Y-97034184D01*
X147205088Y-97018413D01*
X147196785Y-97013668D01*
X147190025Y-97006908D01*
X147171594Y-96999273D01*
X147154272Y-96989375D01*
X147144786Y-96988169D01*
X147135953Y-96984510D01*
X147116003Y-96984510D01*
X147096212Y-96981994D01*
X147086987Y-96984510D01*
X147077425Y-96984510D01*
X147058996Y-96992143D01*
X147039748Y-96997393D01*
X147032186Y-97003249D01*
X147023353Y-97006908D01*
X147009247Y-97021013D01*
X146993474Y-97033229D01*
X146984768Y-97045492D01*
X146981969Y-97048292D01*
X146980830Y-97051039D01*
X146976453Y-97057207D01*
X146399546Y-98066794D01*
X146399546Y-97131628D01*
X146396664Y-97102364D01*
X146374266Y-97048292D01*
X146332882Y-97006908D01*
X146278810Y-96984510D01*
X146220282Y-96984510D01*
X146166210Y-97006908D01*
X146124826Y-97048292D01*
X146102428Y-97102364D01*
X146099546Y-97131628D01*
X145685260Y-97131628D01*
X145682378Y-97102364D01*
X145659980Y-97048292D01*
X145618596Y-97006908D01*
X145564524Y-96984510D01*
X145535260Y-96981628D01*
X145178117Y-96981628D01*
X145163305Y-96983086D01*
X145159356Y-96982806D01*
X145154161Y-96983987D01*
X145148853Y-96984510D01*
X145145191Y-96986026D01*
X145130682Y-96989326D01*
X144916397Y-97060755D01*
X144889546Y-97072743D01*
X144885476Y-97076272D01*
X144880495Y-97078336D01*
X144857765Y-97096991D01*
X144714908Y-97239848D01*
X144705468Y-97251349D01*
X144702475Y-97253946D01*
X144699634Y-97258459D01*
X144696253Y-97262579D01*
X144694737Y-97266238D01*
X144686810Y-97278832D01*
X144615381Y-97421689D01*
X144614561Y-97423829D01*
X144613917Y-97424700D01*
X144609530Y-97436977D01*
X144604872Y-97449152D01*
X144604795Y-97450232D01*
X144604024Y-97452391D01*
X144532596Y-97738105D01*
X144531846Y-97743176D01*
X144530999Y-97745221D01*
X144529913Y-97756243D01*
X144528294Y-97767194D01*
X144528619Y-97769381D01*
X144528117Y-97774485D01*
X144361450Y-97774485D01*
X144361450Y-96814961D01*
X148994784Y-96814961D01*
X148994784Y-98948295D01*
G37*
G36*
X179535260Y-110481628D02*
G01*
X179352460Y-110481628D01*
X179194857Y-110429094D01*
X179094252Y-110328488D01*
X179041071Y-110222128D01*
X178978117Y-109970307D01*
X178978117Y-109792948D01*
X179041071Y-109541127D01*
X179094252Y-109434767D01*
X179194858Y-109334161D01*
X179352460Y-109281628D01*
X179535260Y-109281628D01*
X179535260Y-110481628D01*
G37*
G36*
X183144784Y-110948295D02*
G01*
X178511450Y-110948295D01*
X178511450Y-109774485D01*
X178678117Y-109774485D01*
X178678117Y-109988771D01*
X178678619Y-109993874D01*
X178678294Y-109996062D01*
X178679913Y-110007012D01*
X178680999Y-110018035D01*
X178681846Y-110020079D01*
X178682596Y-110025151D01*
X178754024Y-110310865D01*
X178754795Y-110313023D01*
X178754872Y-110314104D01*
X178759530Y-110326278D01*
X178763917Y-110338556D01*
X178764561Y-110339426D01*
X178765381Y-110341567D01*
X178836810Y-110484424D01*
X178844737Y-110497017D01*
X178846253Y-110500677D01*
X178849634Y-110504796D01*
X178852475Y-110509310D01*
X178855468Y-110511906D01*
X178864908Y-110523408D01*
X179007765Y-110666266D01*
X179030495Y-110684921D01*
X179035474Y-110686983D01*
X179039546Y-110690515D01*
X179066397Y-110702503D01*
X179280683Y-110773931D01*
X179295195Y-110777230D01*
X179298853Y-110778746D01*
X179304155Y-110779268D01*
X179309357Y-110780451D01*
X179313311Y-110780169D01*
X179328117Y-110781628D01*
X179685260Y-110781628D01*
X179714524Y-110778746D01*
X179768596Y-110756348D01*
X179809980Y-110714964D01*
X179832378Y-110660892D01*
X179835260Y-110631628D01*
X179835260Y-109131628D01*
X180249546Y-109131628D01*
X180249546Y-110631628D01*
X180250287Y-110639153D01*
X180249912Y-110642105D01*
X180250954Y-110645925D01*
X180252428Y-110660892D01*
X180260063Y-110679324D01*
X180265312Y-110698569D01*
X180271166Y-110706128D01*
X180274826Y-110714964D01*
X180288933Y-110729071D01*
X180301147Y-110744843D01*
X180309449Y-110749587D01*
X180316210Y-110756348D01*
X180334640Y-110763982D01*
X180351963Y-110773881D01*
X180361448Y-110775086D01*
X180370282Y-110778746D01*
X180390232Y-110778746D01*
X180410023Y-110781262D01*
X180419248Y-110778746D01*
X180428810Y-110778746D01*
X180447242Y-110771110D01*
X180466487Y-110765862D01*
X180474046Y-110760007D01*
X180482882Y-110756348D01*
X180496989Y-110742240D01*
X180512761Y-110730027D01*
X180521466Y-110717763D01*
X180524266Y-110714964D01*
X180525404Y-110712216D01*
X180529782Y-110706049D01*
X181106689Y-109696463D01*
X181106689Y-110631628D01*
X181109571Y-110660892D01*
X181131969Y-110714964D01*
X181173353Y-110756348D01*
X181227425Y-110778746D01*
X181285953Y-110778746D01*
X181340025Y-110756348D01*
X181381409Y-110714964D01*
X181403807Y-110660892D01*
X181406689Y-110631628D01*
X181406689Y-109988771D01*
X181749546Y-109988771D01*
X181749546Y-110488771D01*
X181752428Y-110518035D01*
X181774826Y-110572107D01*
X181774829Y-110572110D01*
X181793479Y-110594836D01*
X181864907Y-110666265D01*
X181887638Y-110684920D01*
X181892614Y-110686981D01*
X181896689Y-110690515D01*
X181923540Y-110702503D01*
X182137826Y-110773931D01*
X182152338Y-110777230D01*
X182155996Y-110778746D01*
X182161298Y-110779268D01*
X182166500Y-110780451D01*
X182170454Y-110780169D01*
X182185260Y-110781628D01*
X182328117Y-110781628D01*
X182342922Y-110780169D01*
X182346877Y-110780451D01*
X182352078Y-110779268D01*
X182357381Y-110778746D01*
X182361038Y-110777230D01*
X182375551Y-110773931D01*
X182589837Y-110702503D01*
X182616688Y-110690515D01*
X182620759Y-110686983D01*
X182625739Y-110684921D01*
X182648469Y-110666266D01*
X182791326Y-110523408D01*
X182800764Y-110511906D01*
X182803759Y-110509310D01*
X182806599Y-110504796D01*
X182809981Y-110500677D01*
X182811496Y-110497017D01*
X182819424Y-110484424D01*
X182890853Y-110341568D01*
X182891672Y-110339425D01*
X182892317Y-110338556D01*
X182896701Y-110326284D01*
X182901362Y-110314104D01*
X182901438Y-110313023D01*
X182902210Y-110310865D01*
X182973638Y-110025151D01*
X182974387Y-110020079D01*
X182975235Y-110018035D01*
X182976320Y-110007012D01*
X182977940Y-109996062D01*
X182977614Y-109993874D01*
X182978117Y-109988771D01*
X182978117Y-109774485D01*
X182977614Y-109769381D01*
X182977940Y-109767194D01*
X182976320Y-109756243D01*
X182975235Y-109745221D01*
X182974387Y-109743176D01*
X182973638Y-109738105D01*
X182902210Y-109452391D01*
X182901438Y-109450232D01*
X182901362Y-109449152D01*
X182896701Y-109436971D01*
X182892317Y-109424700D01*
X182891672Y-109423830D01*
X182890853Y-109421688D01*
X182819424Y-109278832D01*
X182811497Y-109266240D01*
X182809981Y-109262578D01*
X182806597Y-109258455D01*
X182803759Y-109253946D01*
X182800766Y-109251350D01*
X182791326Y-109239848D01*
X182648469Y-109096991D01*
X182625738Y-109078336D01*
X182620758Y-109076273D01*
X182616688Y-109072743D01*
X182589837Y-109060754D01*
X182375551Y-108989326D01*
X182361043Y-108986027D01*
X182357381Y-108984510D01*
X182352072Y-108983987D01*
X182346878Y-108982806D01*
X182342928Y-108983086D01*
X182328117Y-108981628D01*
X182113832Y-108981628D01*
X182084568Y-108984510D01*
X182079590Y-108986571D01*
X182074213Y-108986954D01*
X182046750Y-108997464D01*
X181903892Y-109068893D01*
X181879006Y-109084558D01*
X181840660Y-109128773D01*
X181822152Y-109184295D01*
X181826300Y-109242676D01*
X181852475Y-109295025D01*
X181896690Y-109333371D01*
X181952212Y-109351879D01*
X182010593Y-109347731D01*
X182038056Y-109337221D01*
X182149242Y-109281628D01*
X182303777Y-109281628D01*
X182461375Y-109334161D01*
X182561982Y-109434768D01*
X182615161Y-109541127D01*
X182678117Y-109792948D01*
X182678117Y-109970307D01*
X182615161Y-110222128D01*
X182561982Y-110328488D01*
X182461376Y-110429094D01*
X182303774Y-110481628D01*
X182209603Y-110481628D01*
X182052000Y-110429094D01*
X182049546Y-110426639D01*
X182049546Y-110138771D01*
X182185260Y-110138771D01*
X182214524Y-110135889D01*
X182268596Y-110113491D01*
X182309980Y-110072107D01*
X182332378Y-110018035D01*
X182332378Y-109959507D01*
X182309980Y-109905435D01*
X182268596Y-109864051D01*
X182214524Y-109841653D01*
X182185260Y-109838771D01*
X181899546Y-109838771D01*
X181870282Y-109841653D01*
X181816210Y-109864051D01*
X181774826Y-109905435D01*
X181752428Y-109959507D01*
X181749546Y-109988771D01*
X181406689Y-109988771D01*
X181406689Y-109131628D01*
X181405947Y-109124101D01*
X181406323Y-109121150D01*
X181405280Y-109117328D01*
X181403807Y-109102364D01*
X181396171Y-109083931D01*
X181390923Y-109064687D01*
X181385068Y-109057127D01*
X181381409Y-109048292D01*
X181367301Y-109034184D01*
X181355088Y-109018413D01*
X181346785Y-109013668D01*
X181340025Y-109006908D01*
X181321594Y-108999273D01*
X181304272Y-108989375D01*
X181294786Y-108988169D01*
X181285953Y-108984510D01*
X181266003Y-108984510D01*
X181246212Y-108981994D01*
X181236987Y-108984510D01*
X181227425Y-108984510D01*
X181208996Y-108992143D01*
X181189748Y-108997393D01*
X181182186Y-109003249D01*
X181173353Y-109006908D01*
X181159247Y-109021013D01*
X181143474Y-109033229D01*
X181134768Y-109045492D01*
X181131969Y-109048292D01*
X181130830Y-109051039D01*
X181126453Y-109057207D01*
X180549546Y-110066794D01*
X180549546Y-109131628D01*
X180546664Y-109102364D01*
X180524266Y-109048292D01*
X180482882Y-109006908D01*
X180428810Y-108984510D01*
X180370282Y-108984510D01*
X180316210Y-109006908D01*
X180274826Y-109048292D01*
X180252428Y-109102364D01*
X180249546Y-109131628D01*
X179835260Y-109131628D01*
X179832378Y-109102364D01*
X179809980Y-109048292D01*
X179768596Y-109006908D01*
X179714524Y-108984510D01*
X179685260Y-108981628D01*
X179328117Y-108981628D01*
X179313305Y-108983086D01*
X179309356Y-108982806D01*
X179304161Y-108983987D01*
X179298853Y-108984510D01*
X179295191Y-108986026D01*
X179280682Y-108989326D01*
X179066397Y-109060755D01*
X179039546Y-109072743D01*
X179035476Y-109076272D01*
X179030495Y-109078336D01*
X179007765Y-109096991D01*
X178864908Y-109239848D01*
X178855468Y-109251349D01*
X178852475Y-109253946D01*
X178849634Y-109258459D01*
X178846253Y-109262579D01*
X178844737Y-109266238D01*
X178836810Y-109278832D01*
X178765381Y-109421689D01*
X178764561Y-109423829D01*
X178763917Y-109424700D01*
X178759530Y-109436977D01*
X178754872Y-109449152D01*
X178754795Y-109450232D01*
X178754024Y-109452391D01*
X178682596Y-109738105D01*
X178681846Y-109743176D01*
X178680999Y-109745221D01*
X178679913Y-109756243D01*
X178678294Y-109767194D01*
X178678619Y-109769381D01*
X178678117Y-109774485D01*
X178511450Y-109774485D01*
X178511450Y-108814961D01*
X183144784Y-108814961D01*
X183144784Y-110948295D01*
G37*
G36*
X154598695Y-84223381D02*
G01*
X152465361Y-84223381D01*
X152465361Y-83166046D01*
X152634910Y-83166046D01*
X152634910Y-83224574D01*
X152657308Y-83278646D01*
X152698692Y-83320030D01*
X152752764Y-83342428D01*
X152782028Y-83345310D01*
X154132028Y-83345310D01*
X154132028Y-83909596D01*
X154134910Y-83938860D01*
X154157308Y-83992932D01*
X154198692Y-84034316D01*
X154252764Y-84056714D01*
X154311292Y-84056714D01*
X154365364Y-84034316D01*
X154406748Y-83992932D01*
X154429146Y-83938860D01*
X154432028Y-83909596D01*
X154432028Y-83195310D01*
X154429146Y-83166046D01*
X154406748Y-83111974D01*
X154365364Y-83070590D01*
X154311292Y-83048192D01*
X154282028Y-83045310D01*
X152782028Y-83045310D01*
X152752764Y-83048192D01*
X152698692Y-83070590D01*
X152657308Y-83111974D01*
X152634910Y-83166046D01*
X152465361Y-83166046D01*
X152465361Y-82123882D01*
X152632028Y-82123882D01*
X152632028Y-82266739D01*
X152633486Y-82281550D01*
X152633206Y-82285500D01*
X152634387Y-82290694D01*
X152634910Y-82296003D01*
X152636427Y-82299665D01*
X152639726Y-82314173D01*
X152711154Y-82528459D01*
X152723143Y-82555310D01*
X152726673Y-82559380D01*
X152728736Y-82564360D01*
X152747391Y-82587091D01*
X152818819Y-82658519D01*
X152841549Y-82677174D01*
X152895622Y-82699570D01*
X152954148Y-82699570D01*
X153008220Y-82677174D01*
X153049606Y-82635788D01*
X153072002Y-82581716D01*
X153072002Y-82523190D01*
X153049606Y-82469117D01*
X153030951Y-82446387D01*
X152984561Y-82399997D01*
X152932028Y-82242398D01*
X152932028Y-82148222D01*
X152984561Y-81990623D01*
X153085168Y-81890016D01*
X153191527Y-81836837D01*
X153443349Y-81773882D01*
X153620707Y-81773882D01*
X153872528Y-81836836D01*
X153978888Y-81890017D01*
X154079494Y-81990622D01*
X154132028Y-82148224D01*
X154132028Y-82242396D01*
X154079494Y-82399998D01*
X154033106Y-82446386D01*
X154014451Y-82469117D01*
X153992053Y-82523189D01*
X153992053Y-82581715D01*
X154014450Y-82635787D01*
X154055835Y-82677173D01*
X154109907Y-82699571D01*
X154168433Y-82699571D01*
X154222505Y-82677174D01*
X154245236Y-82658520D01*
X154316665Y-82587092D01*
X154335320Y-82564361D01*
X154337381Y-82559384D01*
X154340915Y-82555310D01*
X154352903Y-82528459D01*
X154424331Y-82314173D01*
X154427630Y-82299660D01*
X154429146Y-82296003D01*
X154429668Y-82290700D01*
X154430851Y-82285499D01*
X154430569Y-82281544D01*
X154432028Y-82266739D01*
X154432028Y-82123882D01*
X154430569Y-82109076D01*
X154430851Y-82105122D01*
X154429668Y-82099920D01*
X154429146Y-82094618D01*
X154427630Y-82090960D01*
X154424331Y-82076448D01*
X154352903Y-81862162D01*
X154340915Y-81835311D01*
X154337383Y-81831239D01*
X154335321Y-81826260D01*
X154316666Y-81803530D01*
X154173808Y-81660673D01*
X154162306Y-81651233D01*
X154159710Y-81648240D01*
X154155196Y-81645399D01*
X154151077Y-81642018D01*
X154147417Y-81640502D01*
X154134824Y-81632575D01*
X153991967Y-81561146D01*
X153989826Y-81560326D01*
X153988956Y-81559682D01*
X153976678Y-81555295D01*
X153964504Y-81550637D01*
X153963423Y-81550560D01*
X153961265Y-81549789D01*
X153675551Y-81478361D01*
X153670479Y-81477611D01*
X153668435Y-81476764D01*
X153657412Y-81475678D01*
X153646462Y-81474059D01*
X153644274Y-81474384D01*
X153639171Y-81473882D01*
X153424885Y-81473882D01*
X153419781Y-81474384D01*
X153417594Y-81474059D01*
X153406643Y-81475678D01*
X153395621Y-81476764D01*
X153393576Y-81477611D01*
X153388505Y-81478361D01*
X153102791Y-81549789D01*
X153100632Y-81550560D01*
X153099552Y-81550637D01*
X153087371Y-81555297D01*
X153075100Y-81559682D01*
X153074230Y-81560326D01*
X153072088Y-81561146D01*
X152929232Y-81632575D01*
X152916640Y-81640501D01*
X152912978Y-81642018D01*
X152908855Y-81645401D01*
X152904346Y-81648240D01*
X152901750Y-81651232D01*
X152890248Y-81660673D01*
X152747391Y-81803530D01*
X152728736Y-81826261D01*
X152726673Y-81831240D01*
X152723143Y-81835311D01*
X152711154Y-81862162D01*
X152639726Y-82076448D01*
X152636427Y-82090955D01*
X152634910Y-82094618D01*
X152634387Y-82099926D01*
X152633206Y-82105121D01*
X152633486Y-82109070D01*
X152632028Y-82123882D01*
X152465361Y-82123882D01*
X152465361Y-81307215D01*
X154598695Y-81307215D01*
X154598695Y-84223381D01*
G37*
D10*
X171084057Y-102090380D02*
X171131676Y-102138000D01*
X171131676Y-102138000D02*
X171274533Y-102185619D01*
X171274533Y-102185619D02*
X171369771Y-102185619D01*
X171369771Y-102185619D02*
X171512628Y-102138000D01*
X171512628Y-102138000D02*
X171607866Y-102042761D01*
X171607866Y-102042761D02*
X171655485Y-101947523D01*
X171655485Y-101947523D02*
X171703104Y-101757047D01*
X171703104Y-101757047D02*
X171703104Y-101614190D01*
X171703104Y-101614190D02*
X171655485Y-101423714D01*
X171655485Y-101423714D02*
X171607866Y-101328476D01*
X171607866Y-101328476D02*
X171512628Y-101233238D01*
X171512628Y-101233238D02*
X171369771Y-101185619D01*
X171369771Y-101185619D02*
X171274533Y-101185619D01*
X171274533Y-101185619D02*
X171131676Y-101233238D01*
X171131676Y-101233238D02*
X171084057Y-101280857D01*
X170750723Y-101185619D02*
X170131676Y-101185619D01*
X170131676Y-101185619D02*
X170465009Y-101566571D01*
X170465009Y-101566571D02*
X170322152Y-101566571D01*
X170322152Y-101566571D02*
X170226914Y-101614190D01*
X170226914Y-101614190D02*
X170179295Y-101661809D01*
X170179295Y-101661809D02*
X170131676Y-101757047D01*
X170131676Y-101757047D02*
X170131676Y-101995142D01*
X170131676Y-101995142D02*
X170179295Y-102090380D01*
X170179295Y-102090380D02*
X170226914Y-102138000D01*
X170226914Y-102138000D02*
X170322152Y-102185619D01*
X170322152Y-102185619D02*
X170607866Y-102185619D01*
X170607866Y-102185619D02*
X170703104Y-102138000D01*
X170703104Y-102138000D02*
X170750723Y-102090380D01*
X169274533Y-101185619D02*
X169465009Y-101185619D01*
X169465009Y-101185619D02*
X169560247Y-101233238D01*
X169560247Y-101233238D02*
X169607866Y-101280857D01*
X169607866Y-101280857D02*
X169703104Y-101423714D01*
X169703104Y-101423714D02*
X169750723Y-101614190D01*
X169750723Y-101614190D02*
X169750723Y-101995142D01*
X169750723Y-101995142D02*
X169703104Y-102090380D01*
X169703104Y-102090380D02*
X169655485Y-102138000D01*
X169655485Y-102138000D02*
X169560247Y-102185619D01*
X169560247Y-102185619D02*
X169369771Y-102185619D01*
X169369771Y-102185619D02*
X169274533Y-102138000D01*
X169274533Y-102138000D02*
X169226914Y-102090380D01*
X169226914Y-102090380D02*
X169179295Y-101995142D01*
X169179295Y-101995142D02*
X169179295Y-101757047D01*
X169179295Y-101757047D02*
X169226914Y-101661809D01*
X169226914Y-101661809D02*
X169274533Y-101614190D01*
X169274533Y-101614190D02*
X169369771Y-101566571D01*
X169369771Y-101566571D02*
X169560247Y-101566571D01*
X169560247Y-101566571D02*
X169655485Y-101614190D01*
X169655485Y-101614190D02*
X169703104Y-101661809D01*
X169703104Y-101661809D02*
X169750723Y-101757047D01*
%LPC*%
D14*
%TO.C,J3*%
X124160000Y-89880000D03*
D15*
X126700000Y-89880000D03*
X124160000Y-87340000D03*
X126700000Y-87340000D03*
X124160000Y-84800001D03*
X126700000Y-84800000D03*
%TD*%
D16*
%TO.C,J2*%
X149110000Y-119955000D03*
X154890000Y-119955000D03*
D17*
X147680000Y-119455000D03*
D18*
X147680000Y-123635000D03*
D17*
X156320000Y-119455000D03*
D18*
X156320000Y-123635000D03*
%TD*%
D19*
%TO.C,J7*%
X152851200Y-79880800D03*
D20*
X155391200Y-79880800D03*
%TD*%
D19*
%TO.C,J10*%
X159119999Y-86800002D03*
D20*
X161659999Y-86800002D03*
%TD*%
D21*
%TO.C,J15*%
X184931200Y-93920800D03*
D22*
X184931200Y-91380800D03*
X184931200Y-88840800D03*
X184931200Y-86300800D03*
%TD*%
D19*
%TO.C,J14*%
X140560000Y-79900000D03*
D20*
X143100000Y-79900000D03*
%TD*%
D19*
%TO.C,J6*%
X146701200Y-79890800D03*
D20*
X149241200Y-79890800D03*
%TD*%
D14*
%TO.C,J19*%
X132810000Y-89800000D03*
D15*
X135350000Y-89800000D03*
X132810000Y-87260000D03*
X135350000Y-87260000D03*
X132810000Y-84720001D03*
X135350000Y-84720000D03*
%TD*%
D19*
%TO.C,J12*%
X165329998Y-86800001D03*
D20*
X167869998Y-86800001D03*
%TD*%
D19*
%TO.C,J13*%
X171529999Y-79850800D03*
D20*
X174069999Y-79850800D03*
%TD*%
D14*
%TO.C,TH1*%
X184761200Y-107455800D03*
D23*
X184761200Y-109995800D03*
%TD*%
D14*
%TO.C,J5*%
X153200000Y-95560000D03*
D15*
X150660000Y-95560000D03*
X153200000Y-98100000D03*
X150660000Y-98100000D03*
%TD*%
D21*
%TO.C,J1*%
X184971200Y-102375800D03*
D22*
X184971200Y-99835800D03*
%TD*%
D14*
%TO.C,J16*%
X148361200Y-85510800D03*
D23*
X148361200Y-88050800D03*
X150901200Y-85510800D03*
X150901200Y-88050800D03*
X153441200Y-85510800D03*
X153441200Y-88050800D03*
%TD*%
D19*
%TO.C,J9*%
X159111200Y-79860800D03*
D20*
X161651200Y-79860800D03*
%TD*%
D19*
%TO.C,J11*%
X165329999Y-79900002D03*
D20*
X167869999Y-79900002D03*
%TD*%
D19*
%TO.C,J8*%
X140551200Y-86790800D03*
D20*
X143091200Y-86790800D03*
%TD*%
D24*
%TO.C,C36*%
X173941200Y-101730800D03*
X172381200Y-101730800D03*
%TD*%
D25*
%TO.C,C35*%
X172081200Y-105130800D03*
X173641200Y-105130800D03*
%TD*%
%LPD*%
M02*
