%TF.GenerationSoftware,KiCad,Pcbnew,9.0.2-9.0.2-0~ubuntu24.04.1*%
%TF.CreationDate,2025-05-21T01:19:16+02:00*%
%TF.ProjectId,Pilot6Axis,50696c6f-7436-4417-9869-732e6b696361,rev?*%
%TF.SameCoordinates,Original*%
%TF.FileFunction,Copper,L2,Bot*%
%TF.FilePolarity,Positive*%
%FSLAX46Y46*%
G04 Gerber Fmt 4.6, Leading zero omitted, Abs format (unit mm)*
G04 Created by KiCad (PCBNEW 9.0.2-9.0.2-0~ubuntu24.04.1) date 2025-05-21 01:19:16*
%MOMM*%
%LPD*%
G01*
G04 APERTURE LIST*
G04 Aperture macros list*
%AMRoundRect*
0 Rectangle with rounded corners*
0 $1 Rounding radius*
0 $2 $3 $4 $5 $6 $7 $8 $9 X,Y pos of 4 corners*
0 Add a 4 corners polygon primitive as box body*
4,1,4,$2,$3,$4,$5,$6,$7,$8,$9,$2,$3,0*
0 Add four circle primitives for the rounded corners*
1,1,$1+$1,$2,$3*
1,1,$1+$1,$4,$5*
1,1,$1+$1,$6,$7*
1,1,$1+$1,$8,$9*
0 Add four rect primitives between the rounded corners*
20,1,$1+$1,$2,$3,$4,$5,0*
20,1,$1+$1,$4,$5,$6,$7,0*
20,1,$1+$1,$6,$7,$8,$9,0*
20,1,$1+$1,$8,$9,$2,$3,0*%
G04 Aperture macros list end*
%TA.AperFunction,ComponentPad*%
%ADD10R,1.700000X1.700000*%
%TD*%
%TA.AperFunction,ComponentPad*%
%ADD11O,1.700000X1.700000*%
%TD*%
%TA.AperFunction,HeatsinkPad*%
%ADD12O,1.000000X2.100000*%
%TD*%
%TA.AperFunction,HeatsinkPad*%
%ADD13O,1.000000X1.600000*%
%TD*%
%TA.AperFunction,ComponentPad*%
%ADD14RoundRect,0.250000X-0.620000X-0.845000X0.620000X-0.845000X0.620000X0.845000X-0.620000X0.845000X0*%
%TD*%
%TA.AperFunction,ComponentPad*%
%ADD15O,1.740000X2.190000*%
%TD*%
%TA.AperFunction,ComponentPad*%
%ADD16RoundRect,0.250000X0.845000X-0.620000X0.845000X0.620000X-0.845000X0.620000X-0.845000X-0.620000X0*%
%TD*%
%TA.AperFunction,ComponentPad*%
%ADD17O,2.190000X1.740000*%
%TD*%
%TA.AperFunction,ComponentPad*%
%ADD18C,1.700000*%
%TD*%
%TA.AperFunction,HeatsinkPad*%
%ADD19C,0.600000*%
%TD*%
%TA.AperFunction,ViaPad*%
%ADD20C,0.550000*%
%TD*%
%TA.AperFunction,ViaPad*%
%ADD21C,0.800000*%
%TD*%
%TA.AperFunction,Conductor*%
%ADD22C,0.250000*%
%TD*%
%TA.AperFunction,Conductor*%
%ADD23C,0.254000*%
%TD*%
G04 APERTURE END LIST*
D10*
%TO.P,J3,1,Pin_1*%
%TO.N,/MCU/JOYSTICK2_BTN*%
X124160000Y-89880000D03*
D11*
%TO.P,J3,2,Pin_2*%
%TO.N,/MCU/JOYSTICK2_Z*%
X126700000Y-89880000D03*
%TO.P,J3,3,Pin_3*%
%TO.N,+3.3V*%
X124160000Y-87340000D03*
%TO.P,J3,4,Pin_4*%
%TO.N,/MCU/JOYSTICK2_Y*%
X126700000Y-87340000D03*
%TO.P,J3,5,Pin_5*%
%TO.N,GND*%
X124160000Y-84800001D03*
%TO.P,J3,6,Pin_6*%
%TO.N,/MCU/JOYSTICK2_X*%
X126700000Y-84800000D03*
%TD*%
D12*
%TO.P,J2,S1,SHIELD*%
%TO.N,Net-(J2-SHIELD)*%
X147680000Y-119455000D03*
D13*
X147680000Y-123635000D03*
D12*
X156320000Y-119455000D03*
D13*
X156320000Y-123635000D03*
%TD*%
D14*
%TO.P,J7,1*%
%TO.N,/MCU/BTN2*%
X152851200Y-79880800D03*
D15*
%TO.P,J7,2*%
%TO.N,GND*%
X155391200Y-79880800D03*
%TD*%
D14*
%TO.P,J10,1*%
%TO.N,/MCU/BTN5*%
X159119999Y-86800002D03*
D15*
%TO.P,J10,2*%
%TO.N,GND*%
X161659999Y-86800002D03*
%TD*%
D16*
%TO.P,J15,1,Pin_1*%
%TO.N,/Power/VPOWER_ENABLE*%
X184931200Y-93920800D03*
D17*
%TO.P,J15,2,Pin_2*%
%TO.N,/PD/VCC_OUT*%
X184931200Y-91380800D03*
%TO.P,J15,3,Pin_3*%
%TO.N,GND*%
X184931200Y-88840800D03*
%TO.P,J15,4,Pin_4*%
%TO.N,Net-(J15-Pin_4)*%
X184931200Y-86300800D03*
%TD*%
D14*
%TO.P,J14,1*%
%TO.N,/MCU/BTN9*%
X140560000Y-79900000D03*
D15*
%TO.P,J14,2*%
%TO.N,GND*%
X143100000Y-79900000D03*
%TD*%
D14*
%TO.P,J6,1*%
%TO.N,/MCU/BTN1*%
X146701200Y-79890800D03*
D15*
%TO.P,J6,2*%
%TO.N,GND*%
X149241200Y-79890800D03*
%TD*%
D10*
%TO.P,J19,1,Pin_1*%
%TO.N,/MCU/JOYSTICK1_BTN*%
X132810000Y-89800000D03*
D11*
%TO.P,J19,2,Pin_2*%
%TO.N,/MCU/JOYSTICK1_Z*%
X135350000Y-89800000D03*
%TO.P,J19,3,Pin_3*%
%TO.N,+3.3V*%
X132810000Y-87260000D03*
%TO.P,J19,4,Pin_4*%
%TO.N,/MCU/JOYSTICK1_Y*%
X135350000Y-87260000D03*
%TO.P,J19,5,Pin_5*%
%TO.N,GND*%
X132810000Y-84720001D03*
%TO.P,J19,6,Pin_6*%
%TO.N,/MCU/JOYSTICK1_X*%
X135350000Y-84720000D03*
%TD*%
D14*
%TO.P,J12,1*%
%TO.N,/MCU/BTN7*%
X165329998Y-86800001D03*
D15*
%TO.P,J12,2*%
%TO.N,GND*%
X167869998Y-86800001D03*
%TD*%
D14*
%TO.P,J13,1*%
%TO.N,/MCU/BTN8*%
X171529999Y-79850800D03*
D15*
%TO.P,J13,2*%
%TO.N,GND*%
X174069999Y-79850800D03*
%TD*%
D10*
%TO.P,TH1,1*%
%TO.N,/PD/TS_1*%
X184761200Y-107455800D03*
D18*
%TO.P,TH1,2*%
%TO.N,GND*%
X184761200Y-109995800D03*
%TD*%
D10*
%TO.P,J5,1,Pin_1*%
%TO.N,/MCU/SCL*%
X153200000Y-95560000D03*
D11*
%TO.P,J5,2,Pin_2*%
%TO.N,/MCU/SDA*%
X150660000Y-95560000D03*
%TO.P,J5,3,Pin_3*%
%TO.N,+3.3V*%
X153200000Y-98100000D03*
%TO.P,J5,4,Pin_4*%
%TO.N,GND*%
X150660000Y-98100000D03*
%TD*%
D19*
%TO.P,U4,39,GND*%
%TO.N,GND*%
X133695000Y-108360000D03*
X133695000Y-109760000D03*
X134395000Y-107660000D03*
X134395000Y-109060000D03*
X134395000Y-110460000D03*
X135095000Y-108360000D03*
X135095000Y-109760000D03*
X135795000Y-107660000D03*
X135795000Y-109060000D03*
X135795000Y-110460000D03*
X136495000Y-108360000D03*
X136495000Y-109760000D03*
%TD*%
D16*
%TO.P,J1,1*%
%TO.N,GND*%
X184971200Y-102375800D03*
D17*
%TO.P,J1,2*%
%TO.N,/BAT+*%
X184971200Y-99835800D03*
%TD*%
D10*
%TO.P,J16,1,Pin_1*%
%TO.N,/MCU/MISO*%
X148361200Y-85510800D03*
D18*
%TO.P,J16,2,Pin_2*%
%TO.N,/MCU/CS*%
X148361200Y-88050800D03*
%TO.P,J16,3,Pin_3*%
%TO.N,/MCU/MOSI*%
X150901200Y-85510800D03*
%TO.P,J16,4,Pin_4*%
%TO.N,+3.3V*%
X150901200Y-88050800D03*
%TO.P,J16,5,Pin_5*%
%TO.N,/MCU/MCLK*%
X153441200Y-85510800D03*
%TO.P,J16,6,Pin_6*%
%TO.N,GND*%
X153441200Y-88050800D03*
%TD*%
D14*
%TO.P,J9,1*%
%TO.N,/MCU/BTN4*%
X159111200Y-79860800D03*
D15*
%TO.P,J9,2*%
%TO.N,GND*%
X161651200Y-79860800D03*
%TD*%
D14*
%TO.P,J11,1*%
%TO.N,/MCU/BTN6*%
X165329999Y-79900002D03*
D15*
%TO.P,J11,2*%
%TO.N,GND*%
X167869999Y-79900002D03*
%TD*%
D14*
%TO.P,J8,1*%
%TO.N,/MCU/BTN3*%
X140551200Y-86790800D03*
D15*
%TO.P,J8,2*%
%TO.N,GND*%
X143091200Y-86790800D03*
%TD*%
D20*
%TO.N,GND*%
X153321184Y-116432371D03*
X151565033Y-116396189D03*
%TO.N,/PD/VBUS*%
X154461200Y-117730800D03*
X154461200Y-117030800D03*
X149661200Y-117130800D03*
X149661200Y-117830800D03*
%TO.N,GND*%
X172761200Y-87430800D03*
X186761200Y-97430800D03*
X174761200Y-93430800D03*
X168761200Y-81430800D03*
X118761200Y-83430800D03*
X140761200Y-83430800D03*
X140761200Y-89430800D03*
X122761200Y-95430800D03*
X150761200Y-111430800D03*
X124761200Y-97430800D03*
X116761200Y-95430800D03*
X118761200Y-117430800D03*
X148761200Y-123430800D03*
X118761200Y-89430800D03*
X156761200Y-83430800D03*
X170761200Y-83430800D03*
X132761200Y-123430800D03*
X156761200Y-77430800D03*
X116761200Y-87430800D03*
X186761200Y-79430800D03*
X138761200Y-79430800D03*
X176761200Y-73430800D03*
X178761200Y-73430800D03*
X186761200Y-119430800D03*
X172761200Y-91430800D03*
X170761200Y-73430800D03*
X132761200Y-113430800D03*
X116761200Y-107430800D03*
X134761200Y-83430800D03*
X146691200Y-119480800D03*
X118761200Y-99430800D03*
X152761200Y-89430800D03*
X148761200Y-73430800D03*
X124761200Y-77430800D03*
X164761200Y-121430800D03*
X172761200Y-77430800D03*
X164761200Y-123430800D03*
X124761200Y-81430800D03*
X154761200Y-77430800D03*
X180761200Y-123430800D03*
X176761200Y-91430800D03*
X174761200Y-87430800D03*
X184761200Y-115430800D03*
X148761200Y-77430800D03*
X172761200Y-83430800D03*
X162761200Y-81430800D03*
X184761200Y-79430800D03*
X120761200Y-113430800D03*
X186761200Y-113430800D03*
X142761200Y-83430800D03*
X158761200Y-115430800D03*
X186761200Y-109430800D03*
X184761200Y-95430800D03*
X122761200Y-121430800D03*
X144761200Y-79430800D03*
X182761200Y-91430800D03*
X118761200Y-109430800D03*
X174761200Y-81430800D03*
X128761200Y-97430800D03*
X178761200Y-77430800D03*
X136761200Y-81430800D03*
X130761200Y-73430800D03*
X136761200Y-73430800D03*
X174761200Y-75430800D03*
X162761200Y-121430800D03*
X118761200Y-79430800D03*
X180761200Y-93430800D03*
X120761200Y-95430800D03*
X156761200Y-81430800D03*
X182761200Y-81430800D03*
X182761200Y-109430800D03*
X164761200Y-91430800D03*
X126761200Y-75430800D03*
X154761200Y-81430800D03*
X186761200Y-105430800D03*
X180761200Y-81430800D03*
X160761200Y-81430800D03*
X120761200Y-85430800D03*
X130761200Y-87430800D03*
X120761200Y-83430800D03*
X174761200Y-83430800D03*
X146431200Y-123500800D03*
X132761200Y-73430800D03*
X118761200Y-97430800D03*
X148761200Y-95430800D03*
X186761200Y-107430800D03*
X120761200Y-87430800D03*
X176761200Y-81430800D03*
X150761200Y-79430800D03*
X138761200Y-77430800D03*
X182761200Y-115430800D03*
X124761200Y-123430800D03*
X158761200Y-83430800D03*
X120761200Y-73430800D03*
X118761200Y-101430800D03*
X172761200Y-73430800D03*
X152761200Y-77430800D03*
X142761200Y-77430800D03*
X116761200Y-119430800D03*
X170761200Y-91430800D03*
X168761200Y-83430800D03*
X146761200Y-73430800D03*
X178761200Y-81430800D03*
X120761200Y-81430800D03*
X120761200Y-97430800D03*
X130761200Y-85430800D03*
X186761200Y-93430800D03*
X184761200Y-83430800D03*
X164761200Y-119430800D03*
X176761200Y-93430800D03*
X166761200Y-73430800D03*
X172761200Y-111430800D03*
X186761200Y-101430800D03*
X136761200Y-101430800D03*
X178761200Y-93430800D03*
X182761200Y-83430800D03*
X116761200Y-77430800D03*
X162761200Y-73430800D03*
X144761200Y-121430800D03*
X128761200Y-73430800D03*
X150761200Y-109430800D03*
X134761200Y-81430800D03*
X144761200Y-73430800D03*
X180761200Y-121430800D03*
X186761200Y-81430800D03*
X146761200Y-101430800D03*
X146761200Y-83430800D03*
X168761200Y-73430800D03*
X130761200Y-77430800D03*
X178761200Y-121430800D03*
X134761200Y-101430800D03*
X162761200Y-77430800D03*
X128761200Y-93430800D03*
X158761200Y-73430800D03*
X158761200Y-101430800D03*
X166761200Y-119430800D03*
X182761200Y-89430800D03*
X116761200Y-79430800D03*
X124761200Y-73430800D03*
X176761200Y-87430800D03*
X182761200Y-79430800D03*
X164761200Y-83430800D03*
X126761200Y-93430800D03*
X134761200Y-103430800D03*
X160761200Y-73430800D03*
X116761200Y-89430800D03*
X138761200Y-73430800D03*
X126761200Y-83430800D03*
X116761200Y-113430800D03*
X150761200Y-73430800D03*
X116761200Y-123430800D03*
X136761200Y-83430800D03*
X116761200Y-81430800D03*
X118761200Y-95430800D03*
X116761200Y-101430800D03*
X176761200Y-123430800D03*
X128761200Y-119430800D03*
X142761200Y-123430800D03*
X116761200Y-97430800D03*
X178761200Y-79430800D03*
X146761200Y-85430800D03*
X118761200Y-87430800D03*
X174761200Y-73430800D03*
X116761200Y-105430800D03*
X180761200Y-75430800D03*
X116761200Y-83430800D03*
X182761200Y-85430800D03*
X140761200Y-123430800D03*
X122761200Y-77430800D03*
X124761200Y-121430800D03*
X178761200Y-75430800D03*
X158761200Y-103430800D03*
X166761200Y-91430800D03*
X186761200Y-95430800D03*
X156761200Y-79430800D03*
X160761200Y-83430800D03*
X150761200Y-81430800D03*
X176761200Y-83430800D03*
X178761200Y-123430800D03*
X142761200Y-73430800D03*
X130761200Y-79430800D03*
X180761200Y-73430800D03*
X130761200Y-123430800D03*
X182761200Y-101430800D03*
X128761200Y-83430800D03*
X126761200Y-73430800D03*
X160761200Y-77430800D03*
X152761200Y-123430800D03*
X120761200Y-93430800D03*
X154761200Y-95430800D03*
X148761200Y-83430800D03*
X180761200Y-79430800D03*
X158761200Y-99430800D03*
X156761200Y-115430800D03*
X136761200Y-97430800D03*
X116761200Y-103430800D03*
X126761200Y-81430800D03*
X182761200Y-107430800D03*
X186761200Y-85430800D03*
X168761200Y-77430800D03*
X172761200Y-81430800D03*
X126761200Y-95430800D03*
X186761200Y-115430800D03*
X136761200Y-103430800D03*
X184761200Y-81430800D03*
X126761200Y-91430800D03*
X136761200Y-105430800D03*
X186761200Y-103430800D03*
X180761200Y-83430800D03*
X182761200Y-117430800D03*
X154761200Y-121430800D03*
X130761200Y-83430800D03*
X120761200Y-89430800D03*
X144761200Y-77430800D03*
X142761200Y-81430800D03*
X118761200Y-113430800D03*
X176761200Y-75430800D03*
X176761200Y-77430800D03*
X140761200Y-81430800D03*
X140761200Y-77430800D03*
X166761200Y-81430800D03*
X184761200Y-97430800D03*
X128761200Y-95430800D03*
X174761200Y-123430800D03*
X184761200Y-117430800D03*
X184761200Y-113430800D03*
X126761200Y-79430800D03*
X158761200Y-123430800D03*
X120761200Y-91430800D03*
X170761200Y-87430800D03*
X182761200Y-113430800D03*
X132761200Y-111430800D03*
X134761200Y-123430800D03*
X134761200Y-105430800D03*
X168761200Y-121430800D03*
X156761200Y-113430800D03*
X146761200Y-81430800D03*
X136761200Y-123430800D03*
X120761200Y-79430800D03*
X170761200Y-77430800D03*
X162761200Y-119430800D03*
X146761200Y-77430800D03*
X116761200Y-109430800D03*
X118761200Y-85430800D03*
X180761200Y-77430800D03*
X134761200Y-111430800D03*
X168761200Y-123430800D03*
X128761200Y-85430800D03*
X118761200Y-93430800D03*
X122761200Y-79430800D03*
X130761200Y-113430800D03*
X146761200Y-121430800D03*
X166761200Y-77430800D03*
X124761200Y-91430800D03*
X116761200Y-73430800D03*
X136761200Y-79430800D03*
X150761200Y-77430800D03*
X182761200Y-105430800D03*
X178761200Y-83430800D03*
X128761200Y-123430800D03*
X136761200Y-93430800D03*
X132761200Y-77430800D03*
X186761200Y-89430800D03*
X162761200Y-83430800D03*
X176761200Y-79430800D03*
X116761200Y-117430800D03*
X122761200Y-97430800D03*
X180761200Y-99430800D03*
X186761200Y-87430800D03*
X134761200Y-95430800D03*
X186761200Y-117430800D03*
X138761200Y-117430800D03*
X122761200Y-99430800D03*
X154761200Y-85430800D03*
X160761200Y-119430800D03*
X182761200Y-73430800D03*
X118761200Y-91430800D03*
X164761200Y-77430800D03*
X152761200Y-83430800D03*
X118761200Y-81430800D03*
X120761200Y-99430800D03*
X128761200Y-79430800D03*
X128761200Y-77430800D03*
X176761200Y-121430800D03*
X138761200Y-123430800D03*
X134761200Y-73430800D03*
X182761200Y-119430800D03*
X116761200Y-99430800D03*
X124761200Y-93430800D03*
X186761200Y-73430800D03*
X116761200Y-115430800D03*
X124761200Y-99430800D03*
X122761200Y-73430800D03*
X124761200Y-83430800D03*
X120761200Y-119430800D03*
X122761200Y-119430800D03*
X116761200Y-111430800D03*
X128761200Y-81430800D03*
X156761200Y-101430800D03*
X116761200Y-85430800D03*
X148761200Y-81430800D03*
X124761200Y-75430800D03*
X186761200Y-83430800D03*
X136761200Y-95430800D03*
X172761200Y-123430800D03*
X116761200Y-93430800D03*
X182761200Y-97430800D03*
X154761200Y-101430800D03*
X160761200Y-123430800D03*
X158761200Y-77430800D03*
X134761200Y-77430800D03*
X150761200Y-83430800D03*
X156761200Y-73430800D03*
X166761200Y-83430800D03*
X164761200Y-73430800D03*
X126761200Y-119430800D03*
X140761200Y-73430800D03*
X160761200Y-121430800D03*
X122761200Y-75430800D03*
X154761200Y-73430800D03*
X132761200Y-79430800D03*
X144761200Y-123430800D03*
X130761200Y-81430800D03*
X126761200Y-123430800D03*
X162761200Y-123430800D03*
X186761200Y-99430800D03*
X154761200Y-87430800D03*
X132761200Y-83430800D03*
X126761200Y-99430800D03*
X122761200Y-123430800D03*
X116761200Y-91430800D03*
X152761200Y-73430800D03*
X148761200Y-121430800D03*
X134761200Y-97430800D03*
%TO.N,+3.3V*%
X123500000Y-112600000D03*
X123600000Y-101800000D03*
%TO.N,/MCU/JOYSTICK1_Y*%
X129000000Y-110385000D03*
%TO.N,/MCU/JOYSTICK2_X*%
X129000000Y-107845000D03*
%TO.N,/MCU/IO0*%
X121000000Y-107500000D03*
X126102000Y-116200000D03*
X123800000Y-107700000D03*
%TO.N,GND*%
X153253840Y-109726639D03*
X164434380Y-113158800D03*
X161861200Y-107330800D03*
X162961200Y-103630800D03*
X163481200Y-117080800D03*
X175461200Y-114130800D03*
X153250000Y-110517677D03*
X175361200Y-102630800D03*
X162541200Y-117050800D03*
X178961200Y-104130800D03*
X170861200Y-115730800D03*
X170961200Y-118730800D03*
X174661200Y-115030800D03*
X158261200Y-112230800D03*
X169421200Y-110510800D03*
X179761200Y-105330800D03*
X174661200Y-113230800D03*
X162961200Y-102730800D03*
X175361200Y-103430800D03*
X174561200Y-103430800D03*
X162261200Y-113130800D03*
X174561200Y-107930800D03*
X123600000Y-114400000D03*
X162942479Y-106551598D03*
X123600000Y-116000000D03*
X169541200Y-112520800D03*
X175461200Y-114130800D03*
X161861200Y-109630800D03*
X170751200Y-111550800D03*
X169461200Y-118730800D03*
X164341200Y-117050800D03*
X161861200Y-108830800D03*
X162961200Y-104630800D03*
X168711200Y-112540800D03*
X172161200Y-96330800D03*
X153261200Y-109030800D03*
X175661200Y-109530800D03*
X173761200Y-102630800D03*
X168561200Y-110510800D03*
X167751200Y-110490800D03*
X174561200Y-102630800D03*
X174561200Y-104130800D03*
X176361200Y-115030800D03*
X173761200Y-103430800D03*
X174561200Y-108630800D03*
X173731200Y-104160800D03*
X171161200Y-96330800D03*
X174561200Y-109430800D03*
X170261200Y-96330800D03*
X176261200Y-113230800D03*
X175161200Y-98230800D03*
X175361200Y-104130800D03*
X170061200Y-116430800D03*
X165111200Y-117040800D03*
X152500000Y-114200000D03*
X161864210Y-108067626D03*
X162961200Y-105630800D03*
X169161200Y-96330800D03*
%TO.N,/MCU/JOYSTICK1_Z*%
X129000000Y-109115000D03*
%TO.N,/MCU/JOYSTICK1_X*%
X129000000Y-111655000D03*
%TO.N,/MCU/JOYSTICK2_BTN*%
X146600000Y-102800000D03*
%TO.N,/MCU/JOYSTICK1_BTN*%
X144100000Y-110385000D03*
%TO.N,/MCU/SCL*%
X145345000Y-104035000D03*
%TO.N,/MCU/SDA*%
X144200000Y-107800000D03*
%TO.N,/MCU/JOYSTICK2_Y*%
X129000000Y-106575000D03*
%TO.N,/MCU/JOYSTICK2_Z*%
X128949000Y-105305000D03*
%TO.N,/USB/RTS*%
X148403137Y-102918001D03*
X125500000Y-110900000D03*
D21*
%TO.N,Net-(U3-~{RST})*%
X155163174Y-107330780D03*
X155503751Y-104366001D03*
D20*
%TO.N,/MCU/BTN5*%
X144200000Y-115465000D03*
%TO.N,/MCU/BTN3*%
X129100000Y-114195000D03*
%TO.N,/MCU/BTN6*%
X144100000Y-114300000D03*
%TO.N,/MCU/BTN9*%
X129100000Y-112925000D03*
%TO.N,/MCU/BTN8*%
X144100000Y-111655000D03*
%TO.N,/MCU/MOSI*%
X132300000Y-117900000D03*
%TO.N,/MCU/BTN1*%
X129200000Y-115465000D03*
%TO.N,/MCU/BTN2*%
X142300000Y-117900000D03*
%TO.N,/MCU/BTN7*%
X144100000Y-112925000D03*
%TO.N,/MCU/CS*%
X141021200Y-117860800D03*
%TO.N,/MCU/MCLK*%
X129200000Y-116735000D03*
%TO.N,/MCU/BTN4*%
X144100000Y-116735000D03*
%TO.N,/MCU/MISO*%
X129121200Y-117940800D03*
%TO.N,/PD/VBUS*%
X168761200Y-118030800D03*
X152500000Y-111900000D03*
X154761200Y-111930800D03*
X167961200Y-118030800D03*
X173751200Y-117890800D03*
X173781200Y-117170800D03*
X167961200Y-117230800D03*
X168861200Y-117230800D03*
X174491200Y-117920800D03*
X174481200Y-117150800D03*
%TO.N,/PD/LDO_3V3*%
X178761200Y-112250800D03*
X174741200Y-110330800D03*
%TO.N,/PD/CC2*%
X173281200Y-122430800D03*
X153750000Y-121330800D03*
%TO.N,/PD/CC1*%
X171421200Y-123730800D03*
X150661200Y-122040800D03*
%TO.N,/PD/BTST1*%
X174061200Y-106530800D03*
X170461200Y-106230800D03*
%TO.N,/PD/SW2*%
X169936200Y-103005800D03*
X176361200Y-98130800D03*
%TO.N,/PD/STAT_1*%
X172761200Y-107230800D03*
X176687760Y-108105800D03*
%TO.N,/Power/VPOWER_ENABLE*%
X165961200Y-113330800D03*
%TO.N,/PD/ILIM_HIZ*%
X179161200Y-107530800D03*
X178561200Y-100630800D03*
%TO.N,/PD/TS_1*%
X177361200Y-103930800D03*
X177461200Y-101830800D03*
%TD*%
D22*
%TO.N,/Power/VPOWER_ENABLE*%
X165961200Y-113330800D02*
X165961200Y-113130800D01*
X165961200Y-113130800D02*
X166461200Y-112630800D01*
X166461200Y-112630800D02*
X166461200Y-108930800D01*
X166461200Y-108930800D02*
X178061200Y-97330800D01*
X178061200Y-97330800D02*
X181521200Y-97330800D01*
X181521200Y-97330800D02*
X184931200Y-93920800D01*
D23*
%TO.N,/PD/CC2*%
X153750000Y-123319600D02*
X155161200Y-124730800D01*
X153750000Y-121330800D02*
X153750000Y-123319600D01*
X155161200Y-124730800D02*
X169361200Y-124730800D01*
X171661200Y-122430800D02*
X173281200Y-122430800D01*
X169361200Y-124730800D02*
X171661200Y-122430800D01*
%TO.N,/MCU/JOYSTICK1_X*%
X129000000Y-111655000D02*
X129745000Y-111655000D01*
X129745000Y-111655000D02*
X132270000Y-109130000D01*
X132270000Y-109130000D02*
X132270000Y-96022000D01*
X132270000Y-96022000D02*
X137600000Y-90692000D01*
X137600000Y-90692000D02*
X137600000Y-86870000D01*
X137600000Y-86870000D02*
X135450000Y-84720000D01*
%TO.N,/MCU/BTN9*%
X140660000Y-79900000D02*
X138500000Y-82060000D01*
X138500000Y-82060000D02*
X138500000Y-90592000D01*
X138500000Y-90592000D02*
X132724000Y-96368000D01*
X132724000Y-96368000D02*
X132724000Y-110176000D01*
X132724000Y-110176000D02*
X129975000Y-112925000D01*
X129975000Y-112925000D02*
X129100000Y-112925000D01*
%TO.N,/MCU/BTN3*%
X140551200Y-86790800D02*
X140551200Y-87710800D01*
X140551200Y-87710800D02*
X139811200Y-88450800D01*
X139811200Y-88450800D02*
X139811200Y-90690800D01*
X139811200Y-90690800D02*
X137500000Y-93002000D01*
X134514000Y-114195000D02*
X129100000Y-114195000D01*
X137500000Y-93002000D02*
X137500000Y-111209000D01*
X137500000Y-111209000D02*
X134514000Y-114195000D01*
D22*
%TO.N,/MCU/MISO*%
X129121200Y-117940800D02*
X130721200Y-117940800D01*
X130721200Y-117940800D02*
X131341200Y-117320800D01*
X131341200Y-117320800D02*
X136291200Y-117320800D01*
X136291200Y-117320800D02*
X139011200Y-114600800D01*
X139011200Y-114600800D02*
X139011200Y-94520800D01*
X139011200Y-94520800D02*
X146036200Y-87495800D01*
D23*
%TO.N,/MCU/JOYSTICK1_BTN*%
X132910000Y-89800000D02*
X131511200Y-88401200D01*
X131511200Y-88401200D02*
X131511200Y-82788800D01*
X172622000Y-93178000D02*
X146884000Y-93178000D01*
X131511200Y-82788800D02*
X138700000Y-75600000D01*
X175691200Y-78391200D02*
X175691200Y-90108800D01*
X138700000Y-75600000D02*
X172900000Y-75600000D01*
X172900000Y-75600000D02*
X175691200Y-78391200D01*
X143421200Y-96640800D02*
X143421200Y-110070800D01*
X175691200Y-90108800D02*
X172622000Y-93178000D01*
X146884000Y-93178000D02*
X143421200Y-96640800D01*
X143421200Y-110070800D02*
X143735400Y-110385000D01*
X143735400Y-110385000D02*
X144100000Y-110385000D01*
%TO.N,/MCU/SCL*%
X145345000Y-104035000D02*
X145299200Y-104080800D01*
X145299200Y-104080800D02*
X144688200Y-104080800D01*
X144688200Y-104080800D02*
X144321200Y-103713800D01*
X144321200Y-103713800D02*
X144321200Y-98178800D01*
X144321200Y-98178800D02*
X145600000Y-96900000D01*
X145600000Y-96900000D02*
X151960000Y-96900000D01*
X151960000Y-96900000D02*
X153300000Y-95560000D01*
%TO.N,+3.3V*%
X121700000Y-101800000D02*
X119200000Y-104300000D01*
X119200000Y-108300000D02*
X123500000Y-112600000D01*
X119200000Y-104300000D02*
X119200000Y-108300000D01*
X123600000Y-101800000D02*
X121700000Y-101800000D01*
%TO.N,/MCU/JOYSTICK1_Y*%
X136900000Y-90600000D02*
X131816000Y-95684000D01*
X131816000Y-108284000D02*
X129715000Y-110385000D01*
X131816000Y-95684000D02*
X131816000Y-108284000D01*
X136900000Y-88000000D02*
X136900000Y-90600000D01*
X136160000Y-87260000D02*
X136900000Y-88000000D01*
X129715000Y-110385000D02*
X129000000Y-110385000D01*
X135450000Y-87260000D02*
X136160000Y-87260000D01*
%TO.N,/MCU/JOYSTICK2_X*%
X130908000Y-106092000D02*
X130908000Y-88908000D01*
X130908000Y-88908000D02*
X126800000Y-84800000D01*
X129000000Y-107845000D02*
X129155000Y-107845000D01*
X129155000Y-107845000D02*
X130908000Y-106092000D01*
%TO.N,/MCU/IO0*%
X126102000Y-109902000D02*
X126102000Y-116200000D01*
X123900000Y-107700000D02*
X126102000Y-109902000D01*
X123800000Y-107700000D02*
X123900000Y-107700000D01*
X123800000Y-107700000D02*
X123600000Y-107500000D01*
X123600000Y-107500000D02*
X121000000Y-107500000D01*
%TO.N,/MCU/JOYSTICK1_Z*%
X131362000Y-93888000D02*
X135450000Y-89800000D01*
X131362000Y-106938000D02*
X131362000Y-93888000D01*
X129185000Y-109115000D02*
X131362000Y-106938000D01*
X129000000Y-109115000D02*
X129185000Y-109115000D01*
%TO.N,/MCU/JOYSTICK2_BTN*%
X146600000Y-102800000D02*
X149400000Y-100000000D01*
X149400000Y-100000000D02*
X155292000Y-100000000D01*
X172780229Y-93560001D02*
X176101200Y-90239030D01*
X155292000Y-100000000D02*
X156361200Y-98930800D01*
X129654000Y-75146000D02*
X122500000Y-82300000D01*
X156361200Y-98930800D02*
X156361200Y-94530800D01*
X176101200Y-90239030D02*
X176101200Y-78159147D01*
X122500000Y-88220000D02*
X124160000Y-89880000D01*
X156361200Y-94530800D02*
X157331999Y-93560001D01*
X176101200Y-78159147D02*
X173088053Y-75146000D01*
X173088053Y-75146000D02*
X129654000Y-75146000D01*
X122500000Y-82300000D02*
X122500000Y-88220000D01*
X157331999Y-93560001D02*
X172780229Y-93560001D01*
%TO.N,/MCU/SDA*%
X143901200Y-104232061D02*
X143898200Y-104229061D01*
X144245000Y-107845000D02*
X143901200Y-107501200D01*
X150120000Y-96200000D02*
X150760000Y-95560000D01*
X143901200Y-107501200D02*
X143901200Y-104232061D01*
X143898200Y-103770939D02*
X143901200Y-103767939D01*
X145432000Y-96200000D02*
X150120000Y-96200000D01*
X143901200Y-97730800D02*
X145432000Y-96200000D01*
X143898200Y-104229061D02*
X143898200Y-103770939D01*
X143901200Y-103767939D02*
X143901200Y-97730800D01*
%TO.N,/MCU/JOYSTICK2_Y*%
X129000000Y-106575000D02*
X129225000Y-106575000D01*
X129225000Y-106575000D02*
X130454000Y-105346000D01*
X130454000Y-90994000D02*
X126800000Y-87340000D01*
X130454000Y-105346000D02*
X130454000Y-90994000D01*
%TO.N,/MCU/JOYSTICK2_Z*%
X129720000Y-92800000D02*
X129560000Y-92640000D01*
X130000000Y-104254000D02*
X130000000Y-93080000D01*
X128949000Y-105305000D02*
X130000000Y-104254000D01*
X130000000Y-93080000D02*
X129720000Y-92800000D01*
X129720000Y-92800000D02*
X126800000Y-89880000D01*
%TO.N,/USB/RTS*%
X148403137Y-116696863D02*
X148403137Y-102918001D01*
X142700000Y-122400000D02*
X148403137Y-116696863D01*
X127700000Y-122400000D02*
X142700000Y-122400000D01*
X125500000Y-110900000D02*
X125500000Y-120200000D01*
X125500000Y-120200000D02*
X127700000Y-122400000D01*
D22*
%TO.N,Net-(U3-~{RST})*%
X155561200Y-104423450D02*
X155561200Y-106932754D01*
X155561200Y-106932754D02*
X155163174Y-107330780D01*
X155503751Y-104366001D02*
X155561200Y-104423450D01*
D23*
%TO.N,/MCU/BTN5*%
X155838000Y-91362000D02*
X146130000Y-91362000D01*
X141751200Y-95740800D02*
X141751200Y-114730800D01*
X159219999Y-87980001D02*
X155838000Y-91362000D01*
X146130000Y-91362000D02*
X141751200Y-95740800D01*
X144195800Y-115460800D02*
X144200000Y-115465000D01*
X159219999Y-86800002D02*
X159219999Y-87980001D01*
X141751200Y-114730800D02*
X142481200Y-115460800D01*
X142481200Y-115460800D02*
X144195800Y-115460800D01*
%TO.N,/MCU/BTN6*%
X142149199Y-95952801D02*
X142149199Y-113678799D01*
X163600000Y-81730001D02*
X163600000Y-88500000D01*
X160284000Y-91816000D02*
X146286000Y-91816000D01*
X165429999Y-79900002D02*
X163600000Y-81730001D01*
X146286000Y-91816000D02*
X142149199Y-95952801D01*
X163600000Y-88500000D02*
X160284000Y-91816000D01*
X142770400Y-114300000D02*
X144100000Y-114300000D01*
X142149199Y-113678799D02*
X142770400Y-114300000D01*
%TO.N,/MCU/BTN8*%
X142941200Y-111341200D02*
X142941200Y-96470800D01*
X142941200Y-96470800D02*
X146688000Y-92724000D01*
X169361200Y-90138800D02*
X169361200Y-82019599D01*
X166776000Y-92724000D02*
X169361200Y-90138800D01*
X169361200Y-82019599D02*
X171529999Y-79850800D01*
X146688000Y-92724000D02*
X166776000Y-92724000D01*
X144100000Y-111655000D02*
X143255000Y-111655000D01*
X143255000Y-111655000D02*
X142941200Y-111341200D01*
%TO.N,/MCU/MOSI*%
X139571200Y-94890800D02*
X147521200Y-86940800D01*
X139571200Y-115320800D02*
X139571200Y-94890800D01*
X132339200Y-117860800D02*
X137031200Y-117860800D01*
X147521200Y-86940800D02*
X149701200Y-86940800D01*
X137031200Y-117860800D02*
X139571200Y-115320800D01*
X150901200Y-85740800D02*
X150901200Y-85510800D01*
X149701200Y-86940800D02*
X150901200Y-85740800D01*
X132250000Y-117950000D02*
X132339200Y-117860800D01*
%TO.N,/MCU/BTN1*%
X144791200Y-87040800D02*
X144791200Y-81978800D01*
X134635000Y-115465000D02*
X137954000Y-112146000D01*
X129200000Y-115465000D02*
X134635000Y-115465000D01*
X137954000Y-93878000D02*
X144791200Y-87040800D01*
X137954000Y-112146000D02*
X137954000Y-93878000D01*
X144791200Y-81978800D02*
X146869999Y-79900001D01*
%TO.N,/MCU/BTN2*%
X145688000Y-90454000D02*
X153678000Y-90454000D01*
X155431200Y-83720800D02*
X152851200Y-81140800D01*
X140901200Y-95240800D02*
X145688000Y-90454000D01*
X140901200Y-116501200D02*
X140901200Y-95240800D01*
X152401200Y-80330800D02*
X152851200Y-79880800D01*
X155431200Y-88700800D02*
X155431200Y-83720800D01*
X152851200Y-81140800D02*
X152851200Y-79880800D01*
X153678000Y-90454000D02*
X155431200Y-88700800D01*
X142300000Y-117900000D02*
X140901200Y-116501200D01*
%TO.N,/MCU/BTN7*%
X165429998Y-86800001D02*
X165429998Y-87895001D01*
X142825000Y-112925000D02*
X144100000Y-112925000D01*
X165429998Y-87895001D02*
X161054999Y-92270000D01*
X146502000Y-92270000D02*
X142531200Y-96240800D01*
X142531200Y-96240800D02*
X142531200Y-112631200D01*
X142531200Y-112631200D02*
X142825000Y-112925000D01*
X161054999Y-92270000D02*
X146502000Y-92270000D01*
D22*
%TO.N,/MCU/CS*%
X147251200Y-88050800D02*
X148591200Y-88050800D01*
X140251200Y-95050800D02*
X147251200Y-88050800D01*
X140251200Y-116790800D02*
X140251200Y-95050800D01*
X141021200Y-117860800D02*
X141021200Y-117560800D01*
X141021200Y-117560800D02*
X140251200Y-116790800D01*
D23*
%TO.N,/MCU/MCLK*%
X138408000Y-113774000D02*
X135447000Y-116735000D01*
X146001200Y-84730800D02*
X146001200Y-86670800D01*
X152981200Y-84040800D02*
X146691200Y-84040800D01*
X146001200Y-86670800D02*
X138408000Y-94264000D01*
X135447000Y-116735000D02*
X129200000Y-116735000D01*
X153441200Y-84500800D02*
X152981200Y-84040800D01*
X146691200Y-84040800D02*
X146001200Y-84730800D01*
X138408000Y-94264000D02*
X138408000Y-113774000D01*
X153441200Y-85510800D02*
X153441200Y-84500800D01*
%TO.N,/MCU/BTN4*%
X157400000Y-87800000D02*
X154292000Y-90908000D01*
X141835000Y-116735000D02*
X144100000Y-116735000D01*
X154292000Y-90908000D02*
X145914000Y-90908000D01*
X145914000Y-90908000D02*
X141351200Y-95470800D01*
X157400000Y-81740001D02*
X157400000Y-87800000D01*
X159111200Y-80028801D02*
X157400000Y-81740001D01*
X141351200Y-95470800D02*
X141351200Y-116251200D01*
X159111200Y-79860800D02*
X159111200Y-80028801D01*
X141351200Y-116251200D02*
X141835000Y-116735000D01*
D22*
%TO.N,/MCU/MISO*%
X146121200Y-87410800D02*
X146121200Y-87380800D01*
X146036200Y-87495800D02*
X146121200Y-87410800D01*
X148021200Y-85510800D02*
X148361200Y-85510800D01*
X146036200Y-87495800D02*
X148021200Y-85510800D01*
D23*
%TO.N,/PD/VBUS*%
X152500000Y-111900000D02*
X154730400Y-111900000D01*
X154730400Y-111900000D02*
X154761200Y-111930800D01*
D22*
%TO.N,/PD/LDO_3V3*%
X176841200Y-110330800D02*
X178761200Y-112250800D01*
X174741200Y-110330800D02*
X176841200Y-110330800D01*
D23*
%TO.N,/PD/CC1*%
X152071200Y-125140800D02*
X150661200Y-123730800D01*
X170011200Y-125140800D02*
X152071200Y-125140800D01*
X150661200Y-123730800D02*
X150661200Y-122040800D01*
X171421200Y-123730800D02*
X170011200Y-125140800D01*
D22*
%TO.N,/PD/BTST1*%
X174061200Y-106530800D02*
X170761200Y-106530800D01*
X170761200Y-106530800D02*
X170461200Y-106230800D01*
D23*
%TO.N,/PD/SW2*%
X171486200Y-103005800D02*
X176361200Y-98130800D01*
X169936200Y-103005800D02*
X171486200Y-103005800D01*
D22*
%TO.N,/PD/STAT_1*%
X175812760Y-107230800D02*
X176687760Y-108105800D01*
X172761200Y-107230800D02*
X175812760Y-107230800D01*
%TO.N,/PD/ILIM_HIZ*%
X178561200Y-100630800D02*
X177301200Y-100630800D01*
X177301200Y-100630800D02*
X176810200Y-101121800D01*
X176810200Y-101121800D02*
X176810200Y-105179800D01*
X176810200Y-105179800D02*
X179161200Y-107530800D01*
%TO.N,/PD/TS_1*%
X177361200Y-101930800D02*
X177461200Y-101830800D01*
X177361200Y-103930800D02*
X177361200Y-101930800D01*
%TD*%
%TA.AperFunction,Conductor*%
%TO.N,GND*%
G36*
X147503198Y-84314985D02*
G01*
X147548953Y-84367789D01*
X147558897Y-84436947D01*
X147529872Y-84500503D01*
X147471094Y-84538277D01*
X147461753Y-84540572D01*
X147461452Y-84540697D01*
X147419277Y-84568877D01*
X147391098Y-84611050D01*
X147383700Y-84648241D01*
X147383700Y-85739848D01*
X147364015Y-85806887D01*
X147347381Y-85827529D01*
X146467381Y-86707529D01*
X146406058Y-86741014D01*
X146336366Y-86736030D01*
X146280433Y-86694158D01*
X146256016Y-86628694D01*
X146255700Y-86619848D01*
X146255700Y-84887579D01*
X146275385Y-84820540D01*
X146292019Y-84799898D01*
X146760298Y-84331619D01*
X146821621Y-84298134D01*
X146847979Y-84295300D01*
X147436159Y-84295300D01*
X147503198Y-84314985D01*
G37*
%TD.AperFunction*%
%TA.AperFunction,Conductor*%
G36*
X187065243Y-71831565D02*
G01*
X187287990Y-71846164D01*
X187304048Y-71848279D01*
X187490075Y-71885282D01*
X187518971Y-71891030D01*
X187534638Y-71895228D01*
X187687769Y-71947209D01*
X187742144Y-71965667D01*
X187757121Y-71971870D01*
X187947991Y-72065996D01*
X187953660Y-72068792D01*
X187967708Y-72076902D01*
X188149912Y-72198648D01*
X188162773Y-72208516D01*
X188267695Y-72300530D01*
X188327528Y-72353002D01*
X188338997Y-72364471D01*
X188449360Y-72490317D01*
X188483480Y-72529223D01*
X188493354Y-72542091D01*
X188615097Y-72724292D01*
X188623207Y-72738339D01*
X188720126Y-72934871D01*
X188726333Y-72949857D01*
X188796771Y-73157361D01*
X188800969Y-73173028D01*
X188843718Y-73387940D01*
X188845836Y-73404021D01*
X188860435Y-73626756D01*
X188860700Y-73634866D01*
X188860700Y-123590878D01*
X188860699Y-123590881D01*
X188860699Y-123600378D01*
X188860699Y-123606808D01*
X188860699Y-123626700D01*
X188860434Y-123634807D01*
X188845840Y-123857538D01*
X188843723Y-123873620D01*
X188800975Y-124088546D01*
X188796777Y-124104213D01*
X188726344Y-124311715D01*
X188720137Y-124326701D01*
X188623220Y-124523237D01*
X188615110Y-124537284D01*
X188493363Y-124719496D01*
X188483491Y-124732361D01*
X188427414Y-124796307D01*
X188339013Y-124897112D01*
X188327544Y-124908581D01*
X188162787Y-125053072D01*
X188149925Y-125062941D01*
X187967720Y-125184691D01*
X187953672Y-125192801D01*
X187757135Y-125289723D01*
X187742150Y-125295930D01*
X187534646Y-125366369D01*
X187518979Y-125370567D01*
X187304062Y-125413318D01*
X187287980Y-125415436D01*
X187065243Y-125430035D01*
X187057133Y-125430300D01*
X170380980Y-125430300D01*
X170313941Y-125410615D01*
X170268186Y-125357811D01*
X170258242Y-125288653D01*
X170287267Y-125225097D01*
X170293299Y-125218619D01*
X171319297Y-124192619D01*
X171380620Y-124159134D01*
X171406978Y-124156300D01*
X171477216Y-124156300D01*
X171477218Y-124156300D01*
X171585437Y-124127303D01*
X171682463Y-124071285D01*
X171761685Y-123992063D01*
X171817703Y-123895037D01*
X171846700Y-123786818D01*
X171846700Y-123674782D01*
X171817703Y-123566563D01*
X171761685Y-123469537D01*
X171682463Y-123390315D01*
X171585437Y-123334297D01*
X171477218Y-123305300D01*
X171445979Y-123305300D01*
X171378940Y-123285615D01*
X171333185Y-123232811D01*
X171323241Y-123163653D01*
X171352266Y-123100097D01*
X171358298Y-123093619D01*
X171730298Y-122721619D01*
X171791621Y-122688134D01*
X171817979Y-122685300D01*
X172882590Y-122685300D01*
X172949629Y-122704985D01*
X172970271Y-122721619D01*
X173019937Y-122771285D01*
X173116963Y-122827303D01*
X173225182Y-122856300D01*
X173225184Y-122856300D01*
X173337216Y-122856300D01*
X173337218Y-122856300D01*
X173445437Y-122827303D01*
X173542463Y-122771285D01*
X173621685Y-122692063D01*
X173677703Y-122595037D01*
X173706700Y-122486818D01*
X173706700Y-122374782D01*
X173677703Y-122266563D01*
X173621685Y-122169537D01*
X173542463Y-122090315D01*
X173445437Y-122034297D01*
X173337218Y-122005300D01*
X173225182Y-122005300D01*
X173116963Y-122034297D01*
X173116960Y-122034298D01*
X173019940Y-122090313D01*
X173019934Y-122090317D01*
X172970271Y-122139981D01*
X172908948Y-122173466D01*
X172882590Y-122176300D01*
X171610577Y-122176300D01*
X171610575Y-122176300D01*
X171610573Y-122176301D01*
X171517039Y-122215042D01*
X171517037Y-122215044D01*
X169292101Y-124439981D01*
X169230778Y-124473466D01*
X169204420Y-124476300D01*
X156944991Y-124476300D01*
X156877952Y-124456615D01*
X156832197Y-124403811D01*
X156822253Y-124334653D01*
X156841889Y-124283409D01*
X156876079Y-124232239D01*
X156876079Y-124232238D01*
X156876083Y-124232233D01*
X156923385Y-124118035D01*
X156932685Y-124071282D01*
X156947500Y-123996805D01*
X156947500Y-123273194D01*
X156923386Y-123151970D01*
X156923385Y-123151969D01*
X156923385Y-123151965D01*
X156901901Y-123100097D01*
X156876086Y-123037773D01*
X156876079Y-123037760D01*
X156807411Y-122934992D01*
X156807408Y-122934988D01*
X156720011Y-122847591D01*
X156720007Y-122847588D01*
X156617239Y-122778920D01*
X156617226Y-122778913D01*
X156503039Y-122731616D01*
X156503029Y-122731613D01*
X156381805Y-122707500D01*
X156381803Y-122707500D01*
X156258197Y-122707500D01*
X156258195Y-122707500D01*
X156136970Y-122731613D01*
X156136960Y-122731616D01*
X156022773Y-122778913D01*
X156022760Y-122778920D01*
X155919992Y-122847588D01*
X155919988Y-122847591D01*
X155832591Y-122934988D01*
X155832588Y-122934992D01*
X155763920Y-123037760D01*
X155763913Y-123037773D01*
X155716616Y-123151960D01*
X155716613Y-123151970D01*
X155692500Y-123273194D01*
X155692500Y-123273197D01*
X155692500Y-123996803D01*
X155692500Y-123996805D01*
X155692499Y-123996805D01*
X155716613Y-124118029D01*
X155716616Y-124118039D01*
X155763913Y-124232226D01*
X155763920Y-124232239D01*
X155798111Y-124283409D01*
X155818989Y-124350087D01*
X155800504Y-124417467D01*
X155748525Y-124464157D01*
X155695009Y-124476300D01*
X155317979Y-124476300D01*
X155250940Y-124456615D01*
X155230298Y-124439981D01*
X154040819Y-123250501D01*
X154007334Y-123189178D01*
X154004500Y-123162820D01*
X154004500Y-121729410D01*
X154024185Y-121662371D01*
X154040819Y-121641729D01*
X154090485Y-121592063D01*
X154146503Y-121495037D01*
X154148770Y-121486578D01*
X182610700Y-121486578D01*
X182610700Y-121775021D01*
X182610701Y-121775038D01*
X182648349Y-122061006D01*
X182648350Y-122061011D01*
X182648351Y-122061017D01*
X182723009Y-122339644D01*
X182723014Y-122339660D01*
X182833391Y-122606136D01*
X182833399Y-122606152D01*
X182977620Y-122855948D01*
X182977631Y-122855964D01*
X183153224Y-123084802D01*
X183153230Y-123084809D01*
X183357190Y-123288769D01*
X183357197Y-123288775D01*
X183463346Y-123370226D01*
X183586044Y-123464375D01*
X183586051Y-123464379D01*
X183835847Y-123608600D01*
X183835863Y-123608608D01*
X184102339Y-123718985D01*
X184102345Y-123718986D01*
X184102355Y-123718991D01*
X184380983Y-123793649D01*
X184666972Y-123831300D01*
X184666979Y-123831300D01*
X184955421Y-123831300D01*
X184955428Y-123831300D01*
X185241417Y-123793649D01*
X185520045Y-123718991D01*
X185520057Y-123718985D01*
X185520060Y-123718985D01*
X185786536Y-123608608D01*
X185786539Y-123608606D01*
X185786545Y-123608604D01*
X186036356Y-123464375D01*
X186265204Y-123288774D01*
X186469174Y-123084804D01*
X186644775Y-122855956D01*
X186779942Y-122621839D01*
X186789000Y-122606152D01*
X186789008Y-122606136D01*
X186899385Y-122339660D01*
X186899385Y-122339657D01*
X186899391Y-122339645D01*
X186974049Y-122061017D01*
X187011700Y-121775028D01*
X187011700Y-121486572D01*
X186974049Y-121200583D01*
X186899391Y-120921955D01*
X186899386Y-120921945D01*
X186899385Y-120921939D01*
X186789008Y-120655463D01*
X186789000Y-120655447D01*
X186644779Y-120405651D01*
X186644775Y-120405644D01*
X186477798Y-120188035D01*
X186469175Y-120176797D01*
X186469169Y-120176790D01*
X186265209Y-119972830D01*
X186265202Y-119972824D01*
X186036364Y-119797231D01*
X186036362Y-119797229D01*
X186036356Y-119797225D01*
X186036351Y-119797222D01*
X186036348Y-119797220D01*
X185786552Y-119652999D01*
X185786536Y-119652991D01*
X185520060Y-119542614D01*
X185520048Y-119542610D01*
X185520045Y-119542609D01*
X185241417Y-119467951D01*
X185241411Y-119467950D01*
X185241406Y-119467949D01*
X184955438Y-119430301D01*
X184955433Y-119430300D01*
X184955428Y-119430300D01*
X184666972Y-119430300D01*
X184666966Y-119430300D01*
X184666961Y-119430301D01*
X184380993Y-119467949D01*
X184380986Y-119467950D01*
X184380983Y-119467951D01*
X184187741Y-119519730D01*
X184102355Y-119542609D01*
X184102339Y-119542614D01*
X183835863Y-119652991D01*
X183835847Y-119652999D01*
X183586051Y-119797220D01*
X183586035Y-119797231D01*
X183357197Y-119972824D01*
X183357190Y-119972830D01*
X183153230Y-120176790D01*
X183153224Y-120176797D01*
X182977631Y-120405635D01*
X182977620Y-120405651D01*
X182833399Y-120655447D01*
X182833391Y-120655463D01*
X182723014Y-120921939D01*
X182723009Y-120921955D01*
X182657468Y-121166560D01*
X182648352Y-121200580D01*
X182648349Y-121200593D01*
X182610701Y-121486561D01*
X182610700Y-121486578D01*
X154148770Y-121486578D01*
X154175500Y-121386818D01*
X154175500Y-121274782D01*
X154146503Y-121166563D01*
X154090485Y-121069537D01*
X154011263Y-120990315D01*
X153914237Y-120934297D01*
X153806018Y-120905300D01*
X153693982Y-120905300D01*
X153585763Y-120934297D01*
X153585760Y-120934298D01*
X153488740Y-120990313D01*
X153488734Y-120990317D01*
X153409517Y-121069534D01*
X153409513Y-121069540D01*
X153353498Y-121166560D01*
X153353497Y-121166563D01*
X153324500Y-121274782D01*
X153324500Y-121386818D01*
X153353497Y-121495037D01*
X153409515Y-121592063D01*
X153409517Y-121592065D01*
X153459181Y-121641729D01*
X153492666Y-121703052D01*
X153495500Y-121729410D01*
X153495500Y-123370221D01*
X153495501Y-123370226D01*
X153534242Y-123463760D01*
X153534244Y-123463762D01*
X153534245Y-123463763D01*
X154229616Y-124159134D01*
X154745102Y-124674619D01*
X154778587Y-124735942D01*
X154773603Y-124805634D01*
X154731731Y-124861567D01*
X154666267Y-124885984D01*
X154657421Y-124886300D01*
X152227979Y-124886300D01*
X152160940Y-124866615D01*
X152140298Y-124849981D01*
X150952019Y-123661701D01*
X150918534Y-123600378D01*
X150915700Y-123574020D01*
X150915700Y-122439410D01*
X150935385Y-122372371D01*
X150952019Y-122351729D01*
X150964104Y-122339644D01*
X151001685Y-122302063D01*
X151057703Y-122205037D01*
X151086700Y-122096818D01*
X151086700Y-121984782D01*
X151057703Y-121876563D01*
X151001685Y-121779537D01*
X150922463Y-121700315D01*
X150825437Y-121644297D01*
X150717218Y-121615300D01*
X150605182Y-121615300D01*
X150496963Y-121644297D01*
X150496960Y-121644298D01*
X150399940Y-121700313D01*
X150399934Y-121700317D01*
X150320717Y-121779534D01*
X150320713Y-121779540D01*
X150264698Y-121876560D01*
X150264697Y-121876563D01*
X150235700Y-121984782D01*
X150235700Y-122096818D01*
X150256998Y-122176301D01*
X150264697Y-122205036D01*
X150264698Y-122205039D01*
X150270475Y-122215045D01*
X150320715Y-122302063D01*
X150320717Y-122302065D01*
X150370381Y-122351729D01*
X150403866Y-122413052D01*
X150406700Y-122439410D01*
X150406700Y-123781421D01*
X150406701Y-123781426D01*
X150445442Y-123874960D01*
X150445444Y-123874962D01*
X150445445Y-123874963D01*
X151132982Y-124562500D01*
X151789102Y-125218619D01*
X151822587Y-125279942D01*
X151817603Y-125349634D01*
X151775731Y-125405567D01*
X151710267Y-125429984D01*
X151701421Y-125430300D01*
X117065267Y-125430300D01*
X117057157Y-125430035D01*
X116834421Y-125415436D01*
X116818340Y-125413318D01*
X116603428Y-125370569D01*
X116587761Y-125366371D01*
X116380257Y-125295933D01*
X116365271Y-125289726D01*
X116168739Y-125192807D01*
X116154692Y-125184697D01*
X115972491Y-125062954D01*
X115959623Y-125053080D01*
X115794871Y-124908597D01*
X115783402Y-124897128D01*
X115703164Y-124805634D01*
X115638916Y-124732373D01*
X115629045Y-124719508D01*
X115507302Y-124537307D01*
X115499192Y-124523260D01*
X115440286Y-124403811D01*
X115402270Y-124326721D01*
X115396066Y-124311742D01*
X115325628Y-124104238D01*
X115321430Y-124088571D01*
X115309409Y-124028137D01*
X115303177Y-123996805D01*
X147052499Y-123996805D01*
X147076613Y-124118029D01*
X147076616Y-124118039D01*
X147123913Y-124232226D01*
X147123920Y-124232239D01*
X147192588Y-124335007D01*
X147192591Y-124335011D01*
X147279988Y-124422408D01*
X147279992Y-124422411D01*
X147382760Y-124491079D01*
X147382773Y-124491086D01*
X147478049Y-124530550D01*
X147496965Y-124538385D01*
X147496969Y-124538385D01*
X147496970Y-124538386D01*
X147618194Y-124562500D01*
X147618197Y-124562500D01*
X147741805Y-124562500D01*
X147823361Y-124546276D01*
X147863035Y-124538385D01*
X147977233Y-124491083D01*
X148080008Y-124422411D01*
X148167411Y-124335008D01*
X148236083Y-124232233D01*
X148283385Y-124118035D01*
X148292685Y-124071282D01*
X148307500Y-123996805D01*
X148307500Y-123273194D01*
X148283386Y-123151970D01*
X148283385Y-123151969D01*
X148283385Y-123151965D01*
X148261901Y-123100097D01*
X148236086Y-123037773D01*
X148236079Y-123037760D01*
X148167411Y-122934992D01*
X148167408Y-122934988D01*
X148080011Y-122847591D01*
X148080007Y-122847588D01*
X147977239Y-122778920D01*
X147977226Y-122778913D01*
X147863039Y-122731616D01*
X147863029Y-122731613D01*
X147741805Y-122707500D01*
X147741803Y-122707500D01*
X147618197Y-122707500D01*
X147618195Y-122707500D01*
X147496970Y-122731613D01*
X147496960Y-122731616D01*
X147382773Y-122778913D01*
X147382760Y-122778920D01*
X147279992Y-122847588D01*
X147279988Y-122847591D01*
X147192591Y-122934988D01*
X147192588Y-122934992D01*
X147123920Y-123037760D01*
X147123913Y-123037773D01*
X147076616Y-123151960D01*
X147076613Y-123151970D01*
X147052500Y-123273194D01*
X147052500Y-123273197D01*
X147052500Y-123996803D01*
X147052500Y-123996805D01*
X147052499Y-123996805D01*
X115303177Y-123996805D01*
X115278679Y-123873648D01*
X115276564Y-123857590D01*
X115261965Y-123634843D01*
X115261700Y-123626733D01*
X115261700Y-121486578D01*
X116860700Y-121486578D01*
X116860700Y-121775021D01*
X116860701Y-121775038D01*
X116898349Y-122061006D01*
X116898350Y-122061011D01*
X116898351Y-122061017D01*
X116973009Y-122339644D01*
X116973014Y-122339660D01*
X117083391Y-122606136D01*
X117083399Y-122606152D01*
X117227620Y-122855948D01*
X117227631Y-122855964D01*
X117403224Y-123084802D01*
X117403230Y-123084809D01*
X117607190Y-123288769D01*
X117607197Y-123288775D01*
X117713346Y-123370226D01*
X117836044Y-123464375D01*
X117836051Y-123464379D01*
X118085847Y-123608600D01*
X118085863Y-123608608D01*
X118352339Y-123718985D01*
X118352345Y-123718986D01*
X118352355Y-123718991D01*
X118630983Y-123793649D01*
X118916972Y-123831300D01*
X118916979Y-123831300D01*
X119205421Y-123831300D01*
X119205428Y-123831300D01*
X119491417Y-123793649D01*
X119770045Y-123718991D01*
X119770057Y-123718985D01*
X119770060Y-123718985D01*
X120036536Y-123608608D01*
X120036539Y-123608606D01*
X120036545Y-123608604D01*
X120286356Y-123464375D01*
X120515204Y-123288774D01*
X120559256Y-123244722D01*
X120624555Y-123179424D01*
X120719169Y-123084809D01*
X120719174Y-123084804D01*
X120894775Y-122855956D01*
X121029942Y-122621839D01*
X121039000Y-122606152D01*
X121039008Y-122606136D01*
X121149385Y-122339660D01*
X121149385Y-122339657D01*
X121149391Y-122339645D01*
X121224049Y-122061017D01*
X121261700Y-121775028D01*
X121261700Y-121486572D01*
X121224049Y-121200583D01*
X121149391Y-120921955D01*
X121149386Y-120921945D01*
X121149385Y-120921939D01*
X121039008Y-120655463D01*
X121039000Y-120655447D01*
X120894779Y-120405651D01*
X120894775Y-120405644D01*
X120727798Y-120188035D01*
X120719175Y-120176797D01*
X120719169Y-120176790D01*
X120515209Y-119972830D01*
X120515202Y-119972824D01*
X120286364Y-119797231D01*
X120286362Y-119797229D01*
X120286356Y-119797225D01*
X120286351Y-119797222D01*
X120286348Y-119797220D01*
X120036552Y-119652999D01*
X120036536Y-119652991D01*
X119770060Y-119542614D01*
X119770048Y-119542610D01*
X119770045Y-119542609D01*
X119491417Y-119467951D01*
X119491411Y-119467950D01*
X119491406Y-119467949D01*
X119205438Y-119430301D01*
X119205433Y-119430300D01*
X119205428Y-119430300D01*
X118916972Y-119430300D01*
X118916966Y-119430300D01*
X118916961Y-119430301D01*
X118630993Y-119467949D01*
X118630986Y-119467950D01*
X118630983Y-119467951D01*
X118437741Y-119519730D01*
X118352355Y-119542609D01*
X118352339Y-119542614D01*
X118085863Y-119652991D01*
X118085847Y-119652999D01*
X117836051Y-119797220D01*
X117836035Y-119797231D01*
X117607197Y-119972824D01*
X117607190Y-119972830D01*
X117403230Y-120176790D01*
X117403224Y-120176797D01*
X117227631Y-120405635D01*
X117227620Y-120405651D01*
X117083399Y-120655447D01*
X117083391Y-120655463D01*
X116973014Y-120921939D01*
X116973009Y-120921955D01*
X116907468Y-121166560D01*
X116898352Y-121200580D01*
X116898349Y-121200593D01*
X116860701Y-121486561D01*
X116860700Y-121486578D01*
X115261700Y-121486578D01*
X115261700Y-104249378D01*
X118945500Y-104249378D01*
X118945500Y-108350621D01*
X118945501Y-108350626D01*
X118984242Y-108444160D01*
X118984244Y-108444162D01*
X118984245Y-108444163D01*
X121014582Y-110474500D01*
X123038181Y-112498098D01*
X123071666Y-112559421D01*
X123074500Y-112585779D01*
X123074500Y-112656018D01*
X123102566Y-112760760D01*
X123103497Y-112764236D01*
X123103498Y-112764239D01*
X123122169Y-112796579D01*
X123159515Y-112861263D01*
X123238737Y-112940485D01*
X123335763Y-112996503D01*
X123443982Y-113025500D01*
X123443984Y-113025500D01*
X123556016Y-113025500D01*
X123556018Y-113025500D01*
X123664237Y-112996503D01*
X123761263Y-112940485D01*
X123840485Y-112861263D01*
X123896503Y-112764237D01*
X123925500Y-112656018D01*
X123925500Y-112543982D01*
X123896503Y-112435763D01*
X123840485Y-112338737D01*
X123761263Y-112259515D01*
X123664237Y-112203497D01*
X123556018Y-112174500D01*
X123485779Y-112174500D01*
X123418740Y-112154815D01*
X123398098Y-112138181D01*
X119490819Y-108230901D01*
X119457334Y-108169578D01*
X119454500Y-108143220D01*
X119454500Y-107443982D01*
X120574500Y-107443982D01*
X120574500Y-107556018D01*
X120602527Y-107660615D01*
X120603497Y-107664236D01*
X120603498Y-107664239D01*
X120613038Y-107680763D01*
X120659515Y-107761263D01*
X120738737Y-107840485D01*
X120835763Y-107896503D01*
X120943982Y-107925500D01*
X120943984Y-107925500D01*
X121056016Y-107925500D01*
X121056018Y-107925500D01*
X121164237Y-107896503D01*
X121261263Y-107840485D01*
X121310929Y-107790819D01*
X121372252Y-107757334D01*
X121398610Y-107754500D01*
X123278945Y-107754500D01*
X123345984Y-107774185D01*
X123391739Y-107826989D01*
X123398718Y-107846401D01*
X123403497Y-107864237D01*
X123459515Y-107961263D01*
X123538737Y-108040485D01*
X123635763Y-108096503D01*
X123743982Y-108125500D01*
X123743984Y-108125500D01*
X123856017Y-108125500D01*
X123856018Y-108125500D01*
X123873275Y-108120876D01*
X123943125Y-108122537D01*
X123993051Y-108152969D01*
X125811181Y-109971098D01*
X125844666Y-110032421D01*
X125847500Y-110058779D01*
X125847500Y-110394529D01*
X125827815Y-110461568D01*
X125775011Y-110507323D01*
X125705853Y-110517267D01*
X125672161Y-110505608D01*
X125671747Y-110506608D01*
X125664239Y-110503498D01*
X125664237Y-110503497D01*
X125556018Y-110474500D01*
X125443982Y-110474500D01*
X125335763Y-110503497D01*
X125335760Y-110503498D01*
X125238740Y-110559513D01*
X125238734Y-110559517D01*
X125159517Y-110638734D01*
X125159513Y-110638740D01*
X125103498Y-110735760D01*
X125103497Y-110735763D01*
X125074500Y-110843982D01*
X125074500Y-110956018D01*
X125103497Y-111064237D01*
X125159515Y-111161263D01*
X125159517Y-111161265D01*
X125209181Y-111210929D01*
X125242666Y-111272252D01*
X125245500Y-111298610D01*
X125245500Y-120250621D01*
X125245501Y-120250626D01*
X125284242Y-120344160D01*
X125284245Y-120344163D01*
X127555837Y-122615755D01*
X127649377Y-122654501D01*
X127649378Y-122654501D01*
X127765057Y-122654501D01*
X127765065Y-122654500D01*
X142750621Y-122654500D01*
X142750623Y-122654500D01*
X142808447Y-122630549D01*
X142844160Y-122615757D01*
X142844161Y-122615755D01*
X142844163Y-122615755D01*
X146875284Y-118584633D01*
X146936605Y-118551150D01*
X147006297Y-118556134D01*
X147062230Y-118598006D01*
X147086647Y-118663470D01*
X147078127Y-118716060D01*
X147078383Y-118716138D01*
X147077807Y-118718036D01*
X147077528Y-118719759D01*
X147076617Y-118721957D01*
X147076613Y-118721970D01*
X147052500Y-118843194D01*
X147052500Y-118843197D01*
X147052500Y-120066803D01*
X147052500Y-120066805D01*
X147052499Y-120066805D01*
X147076613Y-120188029D01*
X147076616Y-120188039D01*
X147123913Y-120302226D01*
X147123920Y-120302239D01*
X147192588Y-120405007D01*
X147192591Y-120405011D01*
X147279988Y-120492408D01*
X147279992Y-120492411D01*
X147382760Y-120561079D01*
X147382773Y-120561086D01*
X147496960Y-120608383D01*
X147496965Y-120608385D01*
X147496969Y-120608385D01*
X147496970Y-120608386D01*
X147618194Y-120632500D01*
X147618197Y-120632500D01*
X147741805Y-120632500D01*
X147823361Y-120616276D01*
X147863035Y-120608385D01*
X147977233Y-120561083D01*
X148080008Y-120492411D01*
X148167411Y-120405008D01*
X148236083Y-120302233D01*
X148283385Y-120188035D01*
X148304580Y-120081483D01*
X148336965Y-120019572D01*
X148397680Y-119984998D01*
X148467450Y-119988737D01*
X148524122Y-120029604D01*
X148545971Y-120073579D01*
X148573719Y-120177135D01*
X148649485Y-120308365D01*
X148756635Y-120415515D01*
X148887865Y-120491281D01*
X149034234Y-120530500D01*
X149034236Y-120530500D01*
X149185764Y-120530500D01*
X149185766Y-120530500D01*
X149332135Y-120491281D01*
X149463365Y-120415515D01*
X149570515Y-120308365D01*
X149646281Y-120177135D01*
X149685500Y-120030766D01*
X149685500Y-119879234D01*
X149646281Y-119732865D01*
X149646280Y-119732863D01*
X149644177Y-119725014D01*
X149645963Y-119724535D01*
X149639595Y-119665278D01*
X149670873Y-119602800D01*
X149730963Y-119567150D01*
X149761624Y-119563300D01*
X149837200Y-119563300D01*
X149865366Y-119560272D01*
X149916877Y-119549066D01*
X149975480Y-119519731D01*
X150028284Y-119473976D01*
X150068648Y-119411170D01*
X150088333Y-119344131D01*
X150093700Y-119306800D01*
X150093700Y-117887300D01*
X150113385Y-117820261D01*
X150166189Y-117774506D01*
X150217700Y-117763300D01*
X153804700Y-117763300D01*
X153871739Y-117782985D01*
X153917494Y-117835789D01*
X153928700Y-117887300D01*
X153928700Y-119406802D01*
X153931727Y-119434965D01*
X153942934Y-119486478D01*
X153972269Y-119545081D01*
X153991393Y-119567150D01*
X154018024Y-119597884D01*
X154018026Y-119597885D01*
X154018027Y-119597886D01*
X154023860Y-119601635D01*
X154080830Y-119638248D01*
X154147869Y-119657933D01*
X154185200Y-119663300D01*
X154210760Y-119663300D01*
X154277799Y-119682985D01*
X154323554Y-119735789D01*
X154333498Y-119804947D01*
X154330538Y-119819376D01*
X154314500Y-119879234D01*
X154314500Y-120030766D01*
X154331599Y-120094582D01*
X154353719Y-120177136D01*
X154360012Y-120188035D01*
X154429485Y-120308365D01*
X154536635Y-120415515D01*
X154667865Y-120491281D01*
X154814234Y-120530500D01*
X154814236Y-120530500D01*
X154965764Y-120530500D01*
X154965766Y-120530500D01*
X155112135Y-120491281D01*
X155243365Y-120415515D01*
X155350515Y-120308365D01*
X155426281Y-120177135D01*
X155454028Y-120073578D01*
X155490391Y-120013921D01*
X155553238Y-119983391D01*
X155622614Y-119991685D01*
X155676492Y-120036170D01*
X155695419Y-120081482D01*
X155716613Y-120188029D01*
X155716616Y-120188039D01*
X155763913Y-120302226D01*
X155763920Y-120302239D01*
X155832588Y-120405007D01*
X155832591Y-120405011D01*
X155919988Y-120492408D01*
X155919992Y-120492411D01*
X156022760Y-120561079D01*
X156022773Y-120561086D01*
X156136960Y-120608383D01*
X156136965Y-120608385D01*
X156136969Y-120608385D01*
X156136970Y-120608386D01*
X156258194Y-120632500D01*
X156258197Y-120632500D01*
X156381805Y-120632500D01*
X156463361Y-120616276D01*
X156503035Y-120608385D01*
X156617233Y-120561083D01*
X156720008Y-120492411D01*
X156807411Y-120405008D01*
X156876083Y-120302233D01*
X156923385Y-120188035D01*
X156934750Y-120130901D01*
X156947500Y-120066805D01*
X156947500Y-118843194D01*
X156923386Y-118721970D01*
X156923385Y-118721969D01*
X156923385Y-118721965D01*
X156899156Y-118663470D01*
X156876086Y-118607773D01*
X156876079Y-118607760D01*
X156807411Y-118504992D01*
X156807408Y-118504988D01*
X156720011Y-118417591D01*
X156720007Y-118417588D01*
X156617239Y-118348920D01*
X156617226Y-118348913D01*
X156503039Y-118301616D01*
X156503029Y-118301613D01*
X156381805Y-118277500D01*
X156381803Y-118277500D01*
X156258197Y-118277500D01*
X156258195Y-118277500D01*
X156136970Y-118301613D01*
X156136960Y-118301616D01*
X156022773Y-118348913D01*
X156022760Y-118348920D01*
X155919992Y-118417588D01*
X155919988Y-118417591D01*
X155832591Y-118504988D01*
X155832588Y-118504992D01*
X155763920Y-118607760D01*
X155763913Y-118607773D01*
X155716616Y-118721960D01*
X155716613Y-118721970D01*
X155692500Y-118843194D01*
X155692500Y-119784536D01*
X155672815Y-119851575D01*
X155620011Y-119897330D01*
X155550853Y-119907274D01*
X155487297Y-119878249D01*
X155449523Y-119819471D01*
X155448725Y-119816629D01*
X155445595Y-119804947D01*
X155426281Y-119732865D01*
X155350515Y-119601635D01*
X155243365Y-119494485D01*
X155112135Y-119418719D01*
X154985606Y-119384816D01*
X154925946Y-119348451D01*
X154895417Y-119285604D01*
X154893700Y-119265041D01*
X154893700Y-116954796D01*
X167528700Y-116954796D01*
X167528700Y-118206802D01*
X167531727Y-118234965D01*
X167542934Y-118286478D01*
X167572269Y-118345081D01*
X167575596Y-118348920D01*
X167618024Y-118397884D01*
X167618026Y-118397885D01*
X167618027Y-118397886D01*
X167652017Y-118419731D01*
X167680830Y-118438248D01*
X167747869Y-118457933D01*
X167785200Y-118463300D01*
X167785202Y-118463300D01*
X169293682Y-118463300D01*
X169293689Y-118463300D01*
X169310983Y-118462167D01*
X169343076Y-118457942D01*
X169343088Y-118457939D01*
X169343104Y-118457937D01*
X169353153Y-118455937D01*
X169360075Y-118454560D01*
X169406857Y-118442025D01*
X169438950Y-118437800D01*
X169483450Y-118437800D01*
X169515543Y-118442025D01*
X169562325Y-118454560D01*
X169565742Y-118455239D01*
X169579295Y-118457937D01*
X169579315Y-118457940D01*
X169579324Y-118457942D01*
X169611417Y-118462167D01*
X169628711Y-118463300D01*
X169628718Y-118463300D01*
X170793682Y-118463300D01*
X170793689Y-118463300D01*
X170810983Y-118462167D01*
X170843076Y-118457942D01*
X170843088Y-118457939D01*
X170843104Y-118457937D01*
X170853153Y-118455937D01*
X170860075Y-118454560D01*
X170906857Y-118442025D01*
X170938950Y-118437800D01*
X170983450Y-118437800D01*
X171015543Y-118442025D01*
X171062325Y-118454560D01*
X171065742Y-118455239D01*
X171079295Y-118457937D01*
X171079315Y-118457940D01*
X171079324Y-118457942D01*
X171111417Y-118462167D01*
X171128711Y-118463300D01*
X171128718Y-118463300D01*
X174737200Y-118463300D01*
X174765366Y-118460272D01*
X174816877Y-118449066D01*
X174875480Y-118419731D01*
X174928284Y-118373976D01*
X174968648Y-118311170D01*
X174988333Y-118244131D01*
X174993700Y-118206800D01*
X174993700Y-116954800D01*
X174990672Y-116926634D01*
X174979466Y-116875123D01*
X174950131Y-116816520D01*
X174950130Y-116816518D01*
X174914260Y-116775123D01*
X174904376Y-116763716D01*
X174904373Y-116763714D01*
X174904372Y-116763713D01*
X174841574Y-116723354D01*
X174841572Y-116723353D01*
X174841571Y-116723352D01*
X174841570Y-116723352D01*
X174789541Y-116708074D01*
X174774528Y-116703666D01*
X174737203Y-116698300D01*
X174737200Y-116698300D01*
X170228711Y-116698300D01*
X170219592Y-116698897D01*
X170211426Y-116699432D01*
X170211402Y-116699434D01*
X170179332Y-116703656D01*
X170179295Y-116703662D01*
X170162331Y-116707038D01*
X170115543Y-116719575D01*
X170083450Y-116723800D01*
X170038950Y-116723800D01*
X170006857Y-116719575D01*
X169960078Y-116707041D01*
X169960053Y-116707035D01*
X169943074Y-116703657D01*
X169910997Y-116699434D01*
X169910973Y-116699432D01*
X169903551Y-116698946D01*
X169893689Y-116698300D01*
X167785200Y-116698300D01*
X167785197Y-116698300D01*
X167757034Y-116701327D01*
X167705521Y-116712534D01*
X167646918Y-116741869D01*
X167594116Y-116787624D01*
X167594113Y-116787627D01*
X167553754Y-116850425D01*
X167553753Y-116850427D01*
X167534066Y-116917471D01*
X167528700Y-116954796D01*
X154893700Y-116954796D01*
X154893700Y-116854800D01*
X154890672Y-116826634D01*
X154879466Y-116775123D01*
X154850131Y-116716520D01*
X154850130Y-116716518D01*
X154830777Y-116694184D01*
X154804376Y-116663716D01*
X154804373Y-116663714D01*
X154804372Y-116663713D01*
X154741574Y-116623354D01*
X154741572Y-116623353D01*
X154741571Y-116623352D01*
X154741570Y-116623352D01*
X154674531Y-116603667D01*
X154674528Y-116603666D01*
X154637203Y-116598300D01*
X154637200Y-116598300D01*
X153675865Y-116598300D01*
X153667366Y-116598755D01*
X153661694Y-116599059D01*
X153635352Y-116601891D01*
X153635332Y-116601895D01*
X153586011Y-116617339D01*
X153586008Y-116617340D01*
X153524690Y-116650822D01*
X153524676Y-116650832D01*
X153516683Y-116656815D01*
X153504378Y-116664931D01*
X153448416Y-116697240D01*
X153418513Y-116709626D01*
X153375527Y-116721145D01*
X153343431Y-116725371D01*
X153298936Y-116725371D01*
X153266841Y-116721145D01*
X153223854Y-116709626D01*
X153193949Y-116697239D01*
X153148263Y-116670862D01*
X153132460Y-116660029D01*
X153116683Y-116647315D01*
X153116675Y-116647310D01*
X153070872Y-116623351D01*
X153070871Y-116623350D01*
X153003832Y-116603666D01*
X153003835Y-116603666D01*
X152966506Y-116598300D01*
X152966503Y-116598300D01*
X151869695Y-116598300D01*
X151846833Y-116601309D01*
X151835401Y-116602814D01*
X151773403Y-116619426D01*
X151773397Y-116619428D01*
X151741438Y-116632666D01*
X151692263Y-116661059D01*
X151662357Y-116673446D01*
X151619377Y-116684963D01*
X151587282Y-116689189D01*
X151542784Y-116689189D01*
X151510691Y-116684964D01*
X151488365Y-116678982D01*
X151467709Y-116673447D01*
X151437802Y-116661059D01*
X151388628Y-116632668D01*
X151388623Y-116632665D01*
X151376790Y-116627764D01*
X151366134Y-116623350D01*
X151356655Y-116619424D01*
X151294666Y-116602815D01*
X151294668Y-116602815D01*
X151260377Y-116598300D01*
X151260371Y-116598300D01*
X149385200Y-116598300D01*
X149385197Y-116598300D01*
X149357034Y-116601327D01*
X149305521Y-116612534D01*
X149246918Y-116641869D01*
X149194116Y-116687624D01*
X149194113Y-116687627D01*
X149153754Y-116750425D01*
X149153753Y-116750427D01*
X149134066Y-116817471D01*
X149128700Y-116854796D01*
X149128700Y-119259039D01*
X149109015Y-119326078D01*
X149056211Y-119371833D01*
X149036794Y-119378814D01*
X149034234Y-119379500D01*
X148887865Y-119418719D01*
X148887863Y-119418719D01*
X148887863Y-119418720D01*
X148756635Y-119494485D01*
X148756632Y-119494487D01*
X148649487Y-119601632D01*
X148649485Y-119601635D01*
X148573719Y-119732863D01*
X148551275Y-119816629D01*
X148514910Y-119876290D01*
X148452063Y-119906819D01*
X148382688Y-119898524D01*
X148328810Y-119854039D01*
X148307535Y-119787487D01*
X148307500Y-119784536D01*
X148307500Y-118843194D01*
X148283386Y-118721970D01*
X148283385Y-118721969D01*
X148283385Y-118721965D01*
X148259156Y-118663470D01*
X148236086Y-118607773D01*
X148236079Y-118607760D01*
X148167411Y-118504992D01*
X148167408Y-118504988D01*
X148080011Y-118417591D01*
X148080007Y-118417588D01*
X147977239Y-118348920D01*
X147977226Y-118348913D01*
X147863039Y-118301616D01*
X147863029Y-118301613D01*
X147741805Y-118277500D01*
X147741803Y-118277500D01*
X147618197Y-118277500D01*
X147618195Y-118277500D01*
X147496970Y-118301613D01*
X147496957Y-118301617D01*
X147494759Y-118302528D01*
X147493516Y-118302661D01*
X147491138Y-118303383D01*
X147491001Y-118302931D01*
X147425289Y-118309991D01*
X147362812Y-118278710D01*
X147327165Y-118218618D01*
X147329665Y-118148793D01*
X147359633Y-118100284D01*
X148618892Y-116841026D01*
X148657638Y-116747486D01*
X148657638Y-116646240D01*
X148657638Y-116636251D01*
X148657637Y-116636237D01*
X148657637Y-113274782D01*
X165535700Y-113274782D01*
X165535700Y-113386818D01*
X165564697Y-113495037D01*
X165620715Y-113592063D01*
X165699937Y-113671285D01*
X165796963Y-113727303D01*
X165905182Y-113756300D01*
X165905184Y-113756300D01*
X166017216Y-113756300D01*
X166017218Y-113756300D01*
X166125437Y-113727303D01*
X166222463Y-113671285D01*
X166301685Y-113592063D01*
X166357703Y-113495037D01*
X166386700Y-113386818D01*
X166386700Y-113274782D01*
X166360344Y-113176419D01*
X166362007Y-113106574D01*
X166392434Y-113056653D01*
X166675259Y-112773830D01*
X166713700Y-112681025D01*
X166713700Y-112580575D01*
X166713700Y-110274782D01*
X174315700Y-110274782D01*
X174315700Y-110386818D01*
X174337660Y-110468772D01*
X174344697Y-110495036D01*
X174344698Y-110495039D01*
X174351790Y-110507323D01*
X174400715Y-110592063D01*
X174479937Y-110671285D01*
X174576963Y-110727303D01*
X174685182Y-110756300D01*
X174685184Y-110756300D01*
X174797216Y-110756300D01*
X174797218Y-110756300D01*
X174905437Y-110727303D01*
X175002463Y-110671285D01*
X175035014Y-110638734D01*
X175054131Y-110619618D01*
X175115454Y-110586134D01*
X175141811Y-110583300D01*
X176685249Y-110583300D01*
X176752288Y-110602985D01*
X176772930Y-110619619D01*
X178299381Y-112146070D01*
X178332866Y-112207393D01*
X178335700Y-112233751D01*
X178335700Y-112306818D01*
X178364697Y-112415037D01*
X178420715Y-112512063D01*
X178499937Y-112591285D01*
X178596963Y-112647303D01*
X178705182Y-112676300D01*
X178705184Y-112676300D01*
X178817216Y-112676300D01*
X178817218Y-112676300D01*
X178925437Y-112647303D01*
X179022463Y-112591285D01*
X179101685Y-112512063D01*
X179157703Y-112415037D01*
X179186700Y-112306818D01*
X179186700Y-112194782D01*
X179157703Y-112086563D01*
X179101685Y-111989537D01*
X179022463Y-111910315D01*
X178925437Y-111854297D01*
X178817218Y-111825300D01*
X178744151Y-111825300D01*
X178677112Y-111805615D01*
X178656470Y-111788981D01*
X176984230Y-110116741D01*
X176891426Y-110078300D01*
X176891425Y-110078300D01*
X175141811Y-110078300D01*
X175112487Y-110069689D01*
X175082596Y-110063248D01*
X175077445Y-110059399D01*
X175074772Y-110058615D01*
X175054301Y-110042152D01*
X175054043Y-110041895D01*
X175002463Y-109990315D01*
X175001985Y-109990039D01*
X175001984Y-109990038D01*
X174905439Y-109934298D01*
X174905438Y-109934297D01*
X174905437Y-109934297D01*
X174797218Y-109905300D01*
X174685182Y-109905300D01*
X174576963Y-109934297D01*
X174576960Y-109934298D01*
X174479940Y-109990313D01*
X174479934Y-109990317D01*
X174400717Y-110069534D01*
X174400713Y-110069540D01*
X174344698Y-110166560D01*
X174344697Y-110166563D01*
X174315700Y-110274782D01*
X166713700Y-110274782D01*
X166713700Y-109902228D01*
X183811200Y-109902228D01*
X183811200Y-110089371D01*
X183847706Y-110272897D01*
X183847708Y-110272905D01*
X183919319Y-110445790D01*
X183919326Y-110445802D01*
X183934673Y-110468771D01*
X183934674Y-110468772D01*
X184278237Y-110125209D01*
X184295275Y-110188793D01*
X184361101Y-110302807D01*
X184454193Y-110395899D01*
X184568207Y-110461725D01*
X184631790Y-110478762D01*
X184288227Y-110822324D01*
X184288227Y-110822325D01*
X184311207Y-110837679D01*
X184484094Y-110909291D01*
X184484102Y-110909293D01*
X184667628Y-110945799D01*
X184667631Y-110945800D01*
X184854769Y-110945800D01*
X184854771Y-110945799D01*
X185038297Y-110909293D01*
X185038305Y-110909291D01*
X185211192Y-110837679D01*
X185211198Y-110837676D01*
X185234171Y-110822325D01*
X185234172Y-110822324D01*
X184890610Y-110478762D01*
X184954193Y-110461725D01*
X185068207Y-110395899D01*
X185161299Y-110302807D01*
X185227125Y-110188793D01*
X185244162Y-110125210D01*
X185587724Y-110468772D01*
X185587725Y-110468771D01*
X185603076Y-110445798D01*
X185603079Y-110445792D01*
X185674691Y-110272905D01*
X185674693Y-110272897D01*
X185711199Y-110089371D01*
X185711200Y-110089369D01*
X185711200Y-109902230D01*
X185711199Y-109902228D01*
X185674693Y-109718702D01*
X185674691Y-109718694D01*
X185603079Y-109545807D01*
X185587724Y-109522827D01*
X185244162Y-109866389D01*
X185227125Y-109802807D01*
X185161299Y-109688793D01*
X185068207Y-109595701D01*
X184954193Y-109529875D01*
X184890609Y-109512837D01*
X185234172Y-109169274D01*
X185234171Y-109169273D01*
X185211202Y-109153926D01*
X185211190Y-109153919D01*
X185038305Y-109082308D01*
X185038297Y-109082306D01*
X184854770Y-109045800D01*
X184667630Y-109045800D01*
X184484102Y-109082306D01*
X184484094Y-109082308D01*
X184311205Y-109153921D01*
X184288227Y-109169273D01*
X184288227Y-109169274D01*
X184631791Y-109512837D01*
X184568207Y-109529875D01*
X184454193Y-109595701D01*
X184361101Y-109688793D01*
X184295275Y-109802807D01*
X184278237Y-109866390D01*
X183934674Y-109522827D01*
X183934673Y-109522827D01*
X183919321Y-109545805D01*
X183847708Y-109718694D01*
X183847706Y-109718702D01*
X183811200Y-109902228D01*
X166713700Y-109902228D01*
X166713700Y-109086751D01*
X166733385Y-109019712D01*
X166750019Y-108999070D01*
X168329589Y-107419500D01*
X169574306Y-106174782D01*
X170035700Y-106174782D01*
X170035700Y-106286818D01*
X170064697Y-106395037D01*
X170120715Y-106492063D01*
X170199937Y-106571285D01*
X170296963Y-106627303D01*
X170405182Y-106656300D01*
X170405184Y-106656300D01*
X170478249Y-106656300D01*
X170545288Y-106675985D01*
X170565930Y-106692619D01*
X170618170Y-106744859D01*
X170710975Y-106783300D01*
X170811425Y-106783300D01*
X172313465Y-106783300D01*
X172380504Y-106802985D01*
X172426259Y-106855789D01*
X172436203Y-106924947D01*
X172420852Y-106969300D01*
X172364698Y-107066560D01*
X172364697Y-107066563D01*
X172335700Y-107174782D01*
X172335700Y-107286818D01*
X172364697Y-107395037D01*
X172420715Y-107492063D01*
X172499937Y-107571285D01*
X172596963Y-107627303D01*
X172705182Y-107656300D01*
X172705184Y-107656300D01*
X172817216Y-107656300D01*
X172817218Y-107656300D01*
X172925437Y-107627303D01*
X173022463Y-107571285D01*
X173059362Y-107534386D01*
X173074131Y-107519618D01*
X173135454Y-107486134D01*
X173161811Y-107483300D01*
X175656809Y-107483300D01*
X175723848Y-107502985D01*
X175744490Y-107519619D01*
X176225941Y-108001070D01*
X176259426Y-108062393D01*
X176262260Y-108088751D01*
X176262260Y-108161818D01*
X176291257Y-108270037D01*
X176347275Y-108367063D01*
X176426497Y-108446285D01*
X176523523Y-108502303D01*
X176631742Y-108531300D01*
X176631744Y-108531300D01*
X176743776Y-108531300D01*
X176743778Y-108531300D01*
X176851997Y-108502303D01*
X176949023Y-108446285D01*
X177028245Y-108367063D01*
X177084263Y-108270037D01*
X177113260Y-108161818D01*
X177113260Y-108049782D01*
X177084263Y-107941563D01*
X177028245Y-107844537D01*
X176949023Y-107765315D01*
X176851997Y-107709297D01*
X176743778Y-107680300D01*
X176670711Y-107680300D01*
X176603672Y-107660615D01*
X176583030Y-107643981D01*
X175955790Y-107016741D01*
X175862986Y-106978300D01*
X175862985Y-106978300D01*
X174508935Y-106978300D01*
X174441896Y-106958615D01*
X174396141Y-106905811D01*
X174386197Y-106836653D01*
X174401548Y-106792300D01*
X174428938Y-106744859D01*
X174457703Y-106695037D01*
X174486700Y-106586818D01*
X174486700Y-106474782D01*
X174457703Y-106366563D01*
X174401685Y-106269537D01*
X174322463Y-106190315D01*
X174225437Y-106134297D01*
X174117218Y-106105300D01*
X174005182Y-106105300D01*
X173896963Y-106134297D01*
X173896960Y-106134298D01*
X173799940Y-106190313D01*
X173799933Y-106190318D01*
X173748269Y-106241982D01*
X173686946Y-106275466D01*
X173660589Y-106278300D01*
X171009073Y-106278300D01*
X170942034Y-106258615D01*
X170896279Y-106205811D01*
X170889563Y-106182428D01*
X170888803Y-106182632D01*
X170886700Y-106174782D01*
X170857703Y-106066563D01*
X170801685Y-105969537D01*
X170722463Y-105890315D01*
X170625437Y-105834297D01*
X170517218Y-105805300D01*
X170405182Y-105805300D01*
X170296963Y-105834297D01*
X170296956Y-105834300D01*
X170208420Y-105885416D01*
X170140520Y-105901889D01*
X170128602Y-105897764D01*
X170132113Y-105907175D01*
X170117261Y-105975448D01*
X170115816Y-105978020D01*
X170064700Y-106066556D01*
X170064697Y-106066563D01*
X170035700Y-106174782D01*
X169574306Y-106174782D01*
X169920750Y-105828338D01*
X169982071Y-105794855D01*
X170028828Y-105798198D01*
X170024662Y-105754561D01*
X170056678Y-105692459D01*
X170058697Y-105690391D01*
X174677516Y-101071573D01*
X176557700Y-101071573D01*
X176557700Y-105230026D01*
X176596141Y-105322830D01*
X178699381Y-107426070D01*
X178732866Y-107487393D01*
X178735700Y-107513751D01*
X178735700Y-107586818D01*
X178764697Y-107695037D01*
X178820715Y-107792063D01*
X178899937Y-107871285D01*
X178996963Y-107927303D01*
X179105182Y-107956300D01*
X179105184Y-107956300D01*
X179217216Y-107956300D01*
X179217218Y-107956300D01*
X179325437Y-107927303D01*
X179422463Y-107871285D01*
X179501685Y-107792063D01*
X179557703Y-107695037D01*
X179586700Y-107586818D01*
X179586700Y-107474782D01*
X179557703Y-107366563D01*
X179501685Y-107269537D01*
X179422463Y-107190315D01*
X179325437Y-107134297D01*
X179217218Y-107105300D01*
X179144151Y-107105300D01*
X179077112Y-107085615D01*
X179056470Y-107068981D01*
X178580730Y-106593241D01*
X183783700Y-106593241D01*
X183783700Y-108318358D01*
X183791098Y-108355549D01*
X183819277Y-108397722D01*
X183861450Y-108425901D01*
X183861452Y-108425902D01*
X183889405Y-108431462D01*
X183898641Y-108433300D01*
X183898642Y-108433300D01*
X185623759Y-108433300D01*
X185631157Y-108431828D01*
X185660948Y-108425902D01*
X185703122Y-108397722D01*
X185731302Y-108355548D01*
X185738700Y-108318358D01*
X185738700Y-106593242D01*
X185731302Y-106556052D01*
X185731301Y-106556050D01*
X185703122Y-106513877D01*
X185660949Y-106485698D01*
X185623759Y-106478300D01*
X185623758Y-106478300D01*
X183898642Y-106478300D01*
X183898641Y-106478300D01*
X183861450Y-106485698D01*
X183819277Y-106513877D01*
X183791098Y-106556050D01*
X183783700Y-106593241D01*
X178580730Y-106593241D01*
X177099019Y-105111530D01*
X177065534Y-105050207D01*
X177062700Y-105023849D01*
X177062700Y-104452926D01*
X177082385Y-104385887D01*
X177135189Y-104340132D01*
X177204347Y-104330188D01*
X177218769Y-104333145D01*
X177305182Y-104356300D01*
X177305185Y-104356300D01*
X177417216Y-104356300D01*
X177417218Y-104356300D01*
X177525437Y-104327303D01*
X177622463Y-104271285D01*
X177701685Y-104192063D01*
X177757703Y-104095037D01*
X177786700Y-103986818D01*
X177786700Y-103874782D01*
X177757703Y-103766563D01*
X177701685Y-103669537D01*
X177676849Y-103644701D01*
X177650018Y-103617869D01*
X177616534Y-103556546D01*
X177613700Y-103530189D01*
X177613700Y-102305670D01*
X177633385Y-102238631D01*
X177675698Y-102198284D01*
X177722463Y-102171285D01*
X177801685Y-102092063D01*
X177857703Y-101995037D01*
X177886700Y-101886818D01*
X177886700Y-101774782D01*
X177872713Y-101722580D01*
X183776200Y-101722580D01*
X183776200Y-102125800D01*
X184428491Y-102125800D01*
X184416748Y-102146139D01*
X184376200Y-102297467D01*
X184376200Y-102454133D01*
X184416748Y-102605461D01*
X184428491Y-102625800D01*
X183776201Y-102625800D01*
X183776201Y-103029017D01*
X183786112Y-103097049D01*
X183837415Y-103201991D01*
X183920011Y-103284587D01*
X184024948Y-103335887D01*
X184024951Y-103335888D01*
X184092980Y-103345799D01*
X184721199Y-103345799D01*
X184721200Y-103345798D01*
X184721200Y-102918509D01*
X184741539Y-102930252D01*
X184892867Y-102970800D01*
X185049533Y-102970800D01*
X185200861Y-102930252D01*
X185221200Y-102918509D01*
X185221200Y-103345799D01*
X185849418Y-103345799D01*
X185917449Y-103335887D01*
X186022391Y-103284584D01*
X186104987Y-103201988D01*
X186156287Y-103097051D01*
X186156288Y-103097048D01*
X186166200Y-103029019D01*
X186166200Y-102625800D01*
X185513909Y-102625800D01*
X185525652Y-102605461D01*
X185566200Y-102454133D01*
X185566200Y-102297467D01*
X185525652Y-102146139D01*
X185513909Y-102125800D01*
X186166199Y-102125800D01*
X186166199Y-101722582D01*
X186156287Y-101654550D01*
X186104984Y-101549608D01*
X186022388Y-101467012D01*
X185917451Y-101415712D01*
X185917448Y-101415711D01*
X185849420Y-101405800D01*
X185221200Y-101405800D01*
X185221200Y-101833090D01*
X185200861Y-101821348D01*
X185049533Y-101780800D01*
X184892867Y-101780800D01*
X184741539Y-101821348D01*
X184721200Y-101833090D01*
X184721200Y-101405800D01*
X184092982Y-101405800D01*
X184024950Y-101415712D01*
X183920008Y-101467015D01*
X183837412Y-101549611D01*
X183786112Y-101654548D01*
X183786111Y-101654551D01*
X183776200Y-101722580D01*
X177872713Y-101722580D01*
X177857703Y-101666563D01*
X177801685Y-101569537D01*
X177722463Y-101490315D01*
X177625437Y-101434297D01*
X177517218Y-101405300D01*
X177405182Y-101405300D01*
X177296963Y-101434297D01*
X177296962Y-101434297D01*
X177248699Y-101462162D01*
X177242797Y-101463593D01*
X177238211Y-101467568D01*
X177209248Y-101471732D01*
X177180799Y-101478634D01*
X177175061Y-101476648D01*
X177169053Y-101477512D01*
X177142431Y-101465354D01*
X177114772Y-101455781D01*
X177111019Y-101451008D01*
X177105497Y-101448487D01*
X177089673Y-101423864D01*
X177071582Y-101400859D01*
X177070165Y-101393509D01*
X177067723Y-101389709D01*
X177062700Y-101354774D01*
X177062700Y-101277751D01*
X177082385Y-101210712D01*
X177099019Y-101190070D01*
X177369470Y-100919619D01*
X177430793Y-100886134D01*
X177457151Y-100883300D01*
X178160589Y-100883300D01*
X178227628Y-100902985D01*
X178248269Y-100919618D01*
X178299933Y-100971281D01*
X178299937Y-100971285D01*
X178396963Y-101027303D01*
X178505182Y-101056300D01*
X178505184Y-101056300D01*
X178617216Y-101056300D01*
X178617218Y-101056300D01*
X178725437Y-101027303D01*
X178822463Y-100971285D01*
X178901685Y-100892063D01*
X178957703Y-100795037D01*
X178986700Y-100686818D01*
X178986700Y-100574782D01*
X178957703Y-100466563D01*
X178901685Y-100369537D01*
X178822463Y-100290315D01*
X178725437Y-100234297D01*
X178617218Y-100205300D01*
X178505182Y-100205300D01*
X178396963Y-100234297D01*
X178396960Y-100234298D01*
X178299940Y-100290313D01*
X178299933Y-100290318D01*
X178248269Y-100341982D01*
X178186946Y-100375466D01*
X178160589Y-100378300D01*
X177250973Y-100378300D01*
X177158169Y-100416741D01*
X176596141Y-100978769D01*
X176557700Y-101071573D01*
X174677516Y-101071573D01*
X175815042Y-99934047D01*
X183748699Y-99934047D01*
X183787032Y-100126754D01*
X183787035Y-100126764D01*
X183862223Y-100308286D01*
X183862230Y-100308299D01*
X183971391Y-100471668D01*
X183971394Y-100471672D01*
X184110327Y-100610605D01*
X184110331Y-100610608D01*
X184273700Y-100719769D01*
X184273713Y-100719776D01*
X184455235Y-100794964D01*
X184455240Y-100794966D01*
X184455244Y-100794966D01*
X184455245Y-100794967D01*
X184647952Y-100833300D01*
X184647955Y-100833300D01*
X185294447Y-100833300D01*
X185424096Y-100807510D01*
X185487160Y-100794966D01*
X185668693Y-100719773D01*
X185832069Y-100610608D01*
X185971008Y-100471669D01*
X186080173Y-100308293D01*
X186087619Y-100290318D01*
X186102455Y-100254498D01*
X186155366Y-100126760D01*
X186193700Y-99934045D01*
X186193700Y-99737555D01*
X186193700Y-99737552D01*
X186155367Y-99544845D01*
X186155366Y-99544844D01*
X186155366Y-99544840D01*
X186155364Y-99544835D01*
X186080176Y-99363313D01*
X186080169Y-99363300D01*
X185971008Y-99199931D01*
X185971005Y-99199927D01*
X185832072Y-99060994D01*
X185832068Y-99060991D01*
X185668699Y-98951830D01*
X185668686Y-98951823D01*
X185487164Y-98876635D01*
X185487154Y-98876632D01*
X185294447Y-98838300D01*
X185294445Y-98838300D01*
X184647955Y-98838300D01*
X184647953Y-98838300D01*
X184455245Y-98876632D01*
X184455235Y-98876635D01*
X184273713Y-98951823D01*
X184273700Y-98951830D01*
X184110331Y-99060991D01*
X184110327Y-99060994D01*
X183971394Y-99199927D01*
X183971391Y-99199931D01*
X183862230Y-99363300D01*
X183862223Y-99363313D01*
X183787035Y-99544835D01*
X183787032Y-99544845D01*
X183748700Y-99737552D01*
X183748700Y-99737555D01*
X183748700Y-99934045D01*
X183748700Y-99934047D01*
X183748699Y-99934047D01*
X175815042Y-99934047D01*
X178129470Y-97619619D01*
X178190793Y-97586134D01*
X178217151Y-97583300D01*
X181571423Y-97583300D01*
X181571425Y-97583300D01*
X181664230Y-97544859D01*
X184254470Y-94954617D01*
X184315793Y-94921133D01*
X184342151Y-94918299D01*
X185812026Y-94918299D01*
X185885404Y-94907609D01*
X185998590Y-94852276D01*
X186087676Y-94763190D01*
X186143009Y-94650004D01*
X186153700Y-94576627D01*
X186153699Y-93264974D01*
X186143009Y-93191596D01*
X186087676Y-93078410D01*
X186087674Y-93078408D01*
X186087674Y-93078407D01*
X185998592Y-92989325D01*
X185885402Y-92933990D01*
X185812027Y-92923300D01*
X184050374Y-92923300D01*
X183976995Y-92933991D01*
X183863807Y-92989325D01*
X183774725Y-93078407D01*
X183719390Y-93191597D01*
X183708700Y-93264972D01*
X183708700Y-94576625D01*
X183712091Y-94599898D01*
X183719391Y-94650004D01*
X183719392Y-94650006D01*
X183719392Y-94650007D01*
X183721720Y-94654769D01*
X183733478Y-94723642D01*
X183706134Y-94787939D01*
X183698000Y-94796909D01*
X181452930Y-97041981D01*
X181391607Y-97075466D01*
X181365249Y-97078300D01*
X178010973Y-97078300D01*
X177918169Y-97116741D01*
X177918168Y-97116742D01*
X176975217Y-98059692D01*
X176913894Y-98093177D01*
X176844202Y-98088193D01*
X176788269Y-98046321D01*
X176767762Y-98004106D01*
X176757703Y-97966563D01*
X176701685Y-97869537D01*
X176622463Y-97790315D01*
X176525437Y-97734297D01*
X176417218Y-97705300D01*
X176305182Y-97705300D01*
X176196963Y-97734297D01*
X176196960Y-97734298D01*
X176099940Y-97790313D01*
X176099934Y-97790317D01*
X176020717Y-97869534D01*
X176020713Y-97869540D01*
X175964698Y-97966560D01*
X175964697Y-97966563D01*
X175935700Y-98074782D01*
X175935700Y-98145020D01*
X175916015Y-98212059D01*
X175899381Y-98232701D01*
X171417101Y-102714981D01*
X171355778Y-102748466D01*
X171329420Y-102751300D01*
X170334810Y-102751300D01*
X170267771Y-102731615D01*
X170247129Y-102714981D01*
X170197465Y-102665317D01*
X170197463Y-102665315D01*
X170100437Y-102609297D01*
X169992218Y-102580300D01*
X169880182Y-102580300D01*
X169771963Y-102609297D01*
X169771960Y-102609298D01*
X169674940Y-102665313D01*
X169674934Y-102665317D01*
X169595717Y-102744534D01*
X169595713Y-102744540D01*
X169539698Y-102841560D01*
X169539697Y-102841563D01*
X169510700Y-102949782D01*
X169510700Y-103061818D01*
X169539697Y-103170037D01*
X169595715Y-103267063D01*
X169674937Y-103346285D01*
X169771963Y-103402303D01*
X169880182Y-103431300D01*
X169880184Y-103431300D01*
X169992216Y-103431300D01*
X169992218Y-103431300D01*
X170100437Y-103402303D01*
X170197463Y-103346285D01*
X170247129Y-103296619D01*
X170308452Y-103263134D01*
X170334810Y-103260300D01*
X171475248Y-103260300D01*
X171542287Y-103279985D01*
X171588042Y-103332789D01*
X171597986Y-103401947D01*
X171568961Y-103465503D01*
X171562929Y-103471981D01*
X166318170Y-108716741D01*
X166247142Y-108787768D01*
X166247141Y-108787769D01*
X166208700Y-108880573D01*
X166208700Y-112474849D01*
X166189015Y-112541888D01*
X166172381Y-112562530D01*
X165818172Y-112916738D01*
X165818130Y-112916781D01*
X165817101Y-112917809D01*
X165791463Y-112937472D01*
X165699937Y-112990315D01*
X165699934Y-112990317D01*
X165620717Y-113069534D01*
X165620713Y-113069540D01*
X165564698Y-113166560D01*
X165564697Y-113166563D01*
X165535700Y-113274782D01*
X148657637Y-113274782D01*
X148657637Y-111843982D01*
X152074500Y-111843982D01*
X152074500Y-111956018D01*
X152101360Y-112056259D01*
X152103497Y-112064236D01*
X152103498Y-112064239D01*
X152112886Y-112080499D01*
X152159515Y-112161263D01*
X152238737Y-112240485D01*
X152335763Y-112296503D01*
X152443982Y-112325500D01*
X152443984Y-112325500D01*
X152556016Y-112325500D01*
X152556018Y-112325500D01*
X152664237Y-112296503D01*
X152761263Y-112240485D01*
X152810929Y-112190819D01*
X152872252Y-112157334D01*
X152898610Y-112154500D01*
X154331790Y-112154500D01*
X154398829Y-112174185D01*
X154419471Y-112190819D01*
X154420715Y-112192063D01*
X154499937Y-112271285D01*
X154596963Y-112327303D01*
X154705182Y-112356300D01*
X154705184Y-112356300D01*
X154817216Y-112356300D01*
X154817218Y-112356300D01*
X154925437Y-112327303D01*
X155022463Y-112271285D01*
X155101685Y-112192063D01*
X155157703Y-112095037D01*
X155186700Y-111986818D01*
X155186700Y-111874782D01*
X155157703Y-111766563D01*
X155101685Y-111669537D01*
X155022463Y-111590315D01*
X154925437Y-111534297D01*
X154817218Y-111505300D01*
X154705182Y-111505300D01*
X154596963Y-111534297D01*
X154596960Y-111534298D01*
X154499940Y-111590313D01*
X154499934Y-111590317D01*
X154481071Y-111609181D01*
X154419748Y-111642666D01*
X154393390Y-111645500D01*
X152898610Y-111645500D01*
X152831571Y-111625815D01*
X152810929Y-111609181D01*
X152761265Y-111559517D01*
X152761263Y-111559515D01*
X152664237Y-111503497D01*
X152556018Y-111474500D01*
X152443982Y-111474500D01*
X152335763Y-111503497D01*
X152335760Y-111503498D01*
X152238740Y-111559513D01*
X152238734Y-111559517D01*
X152159517Y-111638734D01*
X152159513Y-111638740D01*
X152103498Y-111735760D01*
X152103497Y-111735763D01*
X152074500Y-111843982D01*
X148657637Y-111843982D01*
X148657637Y-107261333D01*
X154635674Y-107261333D01*
X154635674Y-107400227D01*
X154663619Y-107504517D01*
X154671622Y-107534386D01*
X154671623Y-107534389D01*
X154741066Y-107654669D01*
X154741068Y-107654672D01*
X154741069Y-107654673D01*
X154839281Y-107752885D01*
X154839282Y-107752886D01*
X154839284Y-107752887D01*
X154860807Y-107765313D01*
X154959567Y-107822332D01*
X155093727Y-107858280D01*
X155093729Y-107858280D01*
X155232619Y-107858280D01*
X155232621Y-107858280D01*
X155366781Y-107822332D01*
X155487067Y-107752885D01*
X155585279Y-107654673D01*
X155654726Y-107534387D01*
X155690674Y-107400227D01*
X155690674Y-107261333D01*
X155687867Y-107250857D01*
X155689528Y-107181010D01*
X155719958Y-107131083D01*
X155775259Y-107075784D01*
X155813700Y-106982979D01*
X155813700Y-106882529D01*
X155813700Y-104853412D01*
X155833385Y-104786373D01*
X155850019Y-104765731D01*
X155925856Y-104689894D01*
X155995303Y-104569608D01*
X156031251Y-104435448D01*
X156031251Y-104296554D01*
X155995303Y-104162394D01*
X155954093Y-104091016D01*
X155925858Y-104042111D01*
X155925854Y-104042106D01*
X155827645Y-103943897D01*
X155827640Y-103943893D01*
X155707360Y-103874450D01*
X155707359Y-103874449D01*
X155707358Y-103874449D01*
X155573198Y-103838501D01*
X155434304Y-103838501D01*
X155300144Y-103874449D01*
X155300141Y-103874450D01*
X155179861Y-103943893D01*
X155179856Y-103943897D01*
X155081647Y-104042106D01*
X155081643Y-104042111D01*
X155012200Y-104162391D01*
X155012199Y-104162394D01*
X154976251Y-104296554D01*
X154976251Y-104435448D01*
X154982964Y-104460499D01*
X155012199Y-104569607D01*
X155012200Y-104569610D01*
X155081643Y-104689890D01*
X155081645Y-104689893D01*
X155081646Y-104689894D01*
X155179858Y-104788106D01*
X155246700Y-104826697D01*
X155294915Y-104877263D01*
X155308700Y-104934084D01*
X155308700Y-106679280D01*
X155289015Y-106746319D01*
X155236211Y-106792074D01*
X155184700Y-106803280D01*
X155093727Y-106803280D01*
X154959567Y-106839228D01*
X154959564Y-106839229D01*
X154839284Y-106908672D01*
X154839279Y-106908676D01*
X154741070Y-107006885D01*
X154741066Y-107006890D01*
X154671623Y-107127170D01*
X154671622Y-107127173D01*
X154635674Y-107261333D01*
X148657637Y-107261333D01*
X148657637Y-103316611D01*
X148677322Y-103249572D01*
X148693956Y-103228930D01*
X148701331Y-103221555D01*
X148743622Y-103179264D01*
X148799640Y-103082238D01*
X148828637Y-102974019D01*
X148828637Y-102861983D01*
X148799640Y-102753764D01*
X148743622Y-102656738D01*
X148664400Y-102577516D01*
X148567374Y-102521498D01*
X148459155Y-102492501D01*
X148347119Y-102492501D01*
X148238900Y-102521498D01*
X148238897Y-102521499D01*
X148141877Y-102577514D01*
X148141871Y-102577518D01*
X148062654Y-102656735D01*
X148062650Y-102656741D01*
X148006635Y-102753761D01*
X148006634Y-102753764D01*
X147977637Y-102861983D01*
X147977637Y-102974019D01*
X148001163Y-103061817D01*
X148006634Y-103082237D01*
X148006635Y-103082240D01*
X148015185Y-103097049D01*
X148062652Y-103179264D01*
X148062654Y-103179266D01*
X148112318Y-103228930D01*
X148145803Y-103290253D01*
X148148637Y-103316611D01*
X148148637Y-116540083D01*
X148128952Y-116607122D01*
X148112318Y-116627764D01*
X142630901Y-122109181D01*
X142569578Y-122142666D01*
X142543220Y-122145500D01*
X127856780Y-122145500D01*
X127789741Y-122125815D01*
X127769099Y-122109181D01*
X125790819Y-120130901D01*
X125757334Y-120069578D01*
X125754500Y-120043220D01*
X125754500Y-116705470D01*
X125774185Y-116638431D01*
X125826989Y-116592676D01*
X125896147Y-116582732D01*
X125929838Y-116594393D01*
X125930253Y-116593392D01*
X125937756Y-116596499D01*
X125937763Y-116596503D01*
X126045982Y-116625500D01*
X126045984Y-116625500D01*
X126158016Y-116625500D01*
X126158018Y-116625500D01*
X126266237Y-116596503D01*
X126363263Y-116540485D01*
X126442485Y-116461263D01*
X126498503Y-116364237D01*
X126527500Y-116256018D01*
X126527500Y-116143982D01*
X126498503Y-116035763D01*
X126442485Y-115938737D01*
X126392819Y-115889071D01*
X126359334Y-115827748D01*
X126356500Y-115801390D01*
X126356500Y-109851378D01*
X126356498Y-109851373D01*
X126317757Y-109757839D01*
X126239098Y-109679180D01*
X126239091Y-109679174D01*
X124256900Y-107696982D01*
X124224807Y-107641395D01*
X124196503Y-107535763D01*
X124140485Y-107438737D01*
X124061263Y-107359515D01*
X123964237Y-107303497D01*
X123856018Y-107274500D01*
X123745301Y-107274500D01*
X123697849Y-107265061D01*
X123650626Y-107245501D01*
X123650624Y-107245500D01*
X123650623Y-107245500D01*
X123650621Y-107245500D01*
X121398610Y-107245500D01*
X121331571Y-107225815D01*
X121310929Y-107209181D01*
X121261265Y-107159517D01*
X121261263Y-107159515D01*
X121196579Y-107122169D01*
X121164239Y-107103498D01*
X121164238Y-107103497D01*
X121164237Y-107103497D01*
X121056018Y-107074500D01*
X120943982Y-107074500D01*
X120835763Y-107103497D01*
X120835760Y-107103498D01*
X120738740Y-107159513D01*
X120738734Y-107159517D01*
X120659517Y-107238734D01*
X120659513Y-107238740D01*
X120603498Y-107335760D01*
X120603497Y-107335763D01*
X120574500Y-107443982D01*
X119454500Y-107443982D01*
X119454500Y-104456780D01*
X119474185Y-104389741D01*
X119490819Y-104369099D01*
X121769099Y-102090819D01*
X121830422Y-102057334D01*
X121856780Y-102054500D01*
X123201390Y-102054500D01*
X123268429Y-102074185D01*
X123289071Y-102090819D01*
X123338737Y-102140485D01*
X123435763Y-102196503D01*
X123543982Y-102225500D01*
X123543984Y-102225500D01*
X123656016Y-102225500D01*
X123656018Y-102225500D01*
X123764237Y-102196503D01*
X123861263Y-102140485D01*
X123940485Y-102061263D01*
X123996503Y-101964237D01*
X124025500Y-101856018D01*
X124025500Y-101743982D01*
X123996503Y-101635763D01*
X123940485Y-101538737D01*
X123861263Y-101459515D01*
X123764237Y-101403497D01*
X123656018Y-101374500D01*
X123543982Y-101374500D01*
X123435763Y-101403497D01*
X123435760Y-101403498D01*
X123338740Y-101459513D01*
X123338734Y-101459517D01*
X123289071Y-101509181D01*
X123227748Y-101542666D01*
X123201390Y-101545500D01*
X121765065Y-101545500D01*
X121765057Y-101545499D01*
X121750623Y-101545499D01*
X121649377Y-101545499D01*
X121649376Y-101545499D01*
X121555835Y-101584246D01*
X118984242Y-104155839D01*
X118945501Y-104249373D01*
X118945500Y-104249378D01*
X115261700Y-104249378D01*
X115261700Y-82249378D01*
X122245500Y-82249378D01*
X122245500Y-88270621D01*
X122245501Y-88270626D01*
X122284242Y-88364160D01*
X122284244Y-88364162D01*
X122284245Y-88364163D01*
X122730156Y-88810074D01*
X123146181Y-89226098D01*
X123179666Y-89287421D01*
X123182500Y-89313779D01*
X123182500Y-90742558D01*
X123189898Y-90779749D01*
X123218077Y-90821922D01*
X123260250Y-90850101D01*
X123260252Y-90850102D01*
X123288205Y-90855662D01*
X123297441Y-90857500D01*
X123297442Y-90857500D01*
X125022559Y-90857500D01*
X125029957Y-90856028D01*
X125059748Y-90850102D01*
X125101922Y-90821922D01*
X125130102Y-90779748D01*
X125137500Y-90742558D01*
X125137500Y-89017442D01*
X125130102Y-88980252D01*
X125127995Y-88977098D01*
X125101922Y-88938077D01*
X125059749Y-88909898D01*
X125022559Y-88902500D01*
X125022558Y-88902500D01*
X123593779Y-88902500D01*
X123526740Y-88882815D01*
X123506098Y-88866181D01*
X122790819Y-88150901D01*
X122757334Y-88089578D01*
X122754500Y-88063220D01*
X122754500Y-87243720D01*
X123182500Y-87243720D01*
X123182500Y-87436279D01*
X123220062Y-87625118D01*
X123220066Y-87625132D01*
X123293746Y-87803013D01*
X123293753Y-87803026D01*
X123400725Y-87963119D01*
X123400728Y-87963123D01*
X123536876Y-88099271D01*
X123536880Y-88099274D01*
X123696973Y-88206246D01*
X123696986Y-88206253D01*
X123792462Y-88245800D01*
X123874874Y-88279936D01*
X124009112Y-88306637D01*
X124063720Y-88317499D01*
X124063724Y-88317500D01*
X124063725Y-88317500D01*
X124256276Y-88317500D01*
X124256277Y-88317499D01*
X124445126Y-88279936D01*
X124623020Y-88206250D01*
X124783120Y-88099274D01*
X124919274Y-87963120D01*
X125026250Y-87803020D01*
X125099936Y-87625126D01*
X125137500Y-87436275D01*
X125137500Y-87243725D01*
X125099936Y-87054874D01*
X125073138Y-86990177D01*
X125026253Y-86876986D01*
X125026246Y-86876973D01*
X124919274Y-86716880D01*
X124919271Y-86716876D01*
X124783123Y-86580728D01*
X124783119Y-86580725D01*
X124623026Y-86473753D01*
X124623013Y-86473746D01*
X124445132Y-86400066D01*
X124445128Y-86400064D01*
X124445126Y-86400064D01*
X124445122Y-86400063D01*
X124445118Y-86400062D01*
X124256279Y-86362500D01*
X124256275Y-86362500D01*
X124063725Y-86362500D01*
X124063720Y-86362500D01*
X123874881Y-86400062D01*
X123874867Y-86400066D01*
X123696986Y-86473746D01*
X123696973Y-86473753D01*
X123536880Y-86580725D01*
X123536876Y-86580728D01*
X123400728Y-86716876D01*
X123400725Y-86716880D01*
X123293753Y-86876973D01*
X123293746Y-86876986D01*
X123220066Y-87054867D01*
X123220062Y-87054881D01*
X123182500Y-87243720D01*
X122754500Y-87243720D01*
X122754500Y-84550000D01*
X123241115Y-84550000D01*
X123241116Y-84550001D01*
X123726988Y-84550001D01*
X123694075Y-84607008D01*
X123660000Y-84734175D01*
X123660000Y-84865827D01*
X123694075Y-84992994D01*
X123726988Y-85050001D01*
X123241116Y-85050001D01*
X123246506Y-85077101D01*
X123246507Y-85077104D01*
X123318119Y-85249992D01*
X123318124Y-85250001D01*
X123422086Y-85405590D01*
X123422089Y-85405594D01*
X123554406Y-85537911D01*
X123554410Y-85537914D01*
X123709999Y-85641876D01*
X123710012Y-85641883D01*
X123882889Y-85713490D01*
X123882896Y-85713492D01*
X123910000Y-85718883D01*
X123910000Y-85233013D01*
X123967007Y-85265926D01*
X124094174Y-85300001D01*
X124225826Y-85300001D01*
X124352993Y-85265926D01*
X124410000Y-85233013D01*
X124410000Y-85718882D01*
X124437103Y-85713492D01*
X124437110Y-85713490D01*
X124609987Y-85641883D01*
X124610000Y-85641876D01*
X124765589Y-85537914D01*
X124765593Y-85537911D01*
X124897910Y-85405594D01*
X124897913Y-85405590D01*
X125001875Y-85250001D01*
X125001880Y-85249992D01*
X125073492Y-85077104D01*
X125073493Y-85077101D01*
X125078884Y-85050001D01*
X124593012Y-85050001D01*
X124625925Y-84992994D01*
X124660000Y-84865827D01*
X124660000Y-84734175D01*
X124651839Y-84703720D01*
X125722500Y-84703720D01*
X125722500Y-84896279D01*
X125760062Y-85085118D01*
X125760066Y-85085132D01*
X125833746Y-85263013D01*
X125833753Y-85263026D01*
X125940725Y-85423119D01*
X125940728Y-85423123D01*
X126076876Y-85559271D01*
X126076880Y-85559274D01*
X126236973Y-85666246D01*
X126236986Y-85666253D01*
X126351032Y-85713492D01*
X126414874Y-85739936D01*
X126603720Y-85777499D01*
X126603724Y-85777500D01*
X126603725Y-85777500D01*
X126796276Y-85777500D01*
X126796277Y-85777499D01*
X126985126Y-85739936D01*
X127163020Y-85666250D01*
X127164312Y-85665386D01*
X127165092Y-85665142D01*
X127168387Y-85663381D01*
X127168721Y-85664005D01*
X127230988Y-85644506D01*
X127298368Y-85662988D01*
X127320887Y-85680805D01*
X130617181Y-88977098D01*
X130650666Y-89038421D01*
X130653500Y-89064779D01*
X130653500Y-90534220D01*
X130633815Y-90601259D01*
X130581011Y-90647014D01*
X130511853Y-90656958D01*
X130448297Y-90627933D01*
X130441819Y-90621901D01*
X127641440Y-87821522D01*
X127607955Y-87760199D01*
X127612939Y-87690507D01*
X127614560Y-87686388D01*
X127616863Y-87680828D01*
X127639936Y-87625126D01*
X127677500Y-87436275D01*
X127677500Y-87243725D01*
X127639936Y-87054874D01*
X127613138Y-86990177D01*
X127566253Y-86876986D01*
X127566246Y-86876973D01*
X127459274Y-86716880D01*
X127459271Y-86716876D01*
X127323123Y-86580728D01*
X127323119Y-86580725D01*
X127163026Y-86473753D01*
X127163013Y-86473746D01*
X126985132Y-86400066D01*
X126985128Y-86400064D01*
X126985126Y-86400064D01*
X126985122Y-86400063D01*
X126985118Y-86400062D01*
X126796279Y-86362500D01*
X126796275Y-86362500D01*
X126603725Y-86362500D01*
X126603720Y-86362500D01*
X126414881Y-86400062D01*
X126414867Y-86400066D01*
X126236986Y-86473746D01*
X126236973Y-86473753D01*
X126076880Y-86580725D01*
X126076876Y-86580728D01*
X125940728Y-86716876D01*
X125940725Y-86716880D01*
X125833753Y-86876973D01*
X125833746Y-86876986D01*
X125760066Y-87054867D01*
X125760062Y-87054881D01*
X125722500Y-87243720D01*
X125722500Y-87436279D01*
X125760062Y-87625118D01*
X125760066Y-87625132D01*
X125833746Y-87803013D01*
X125833753Y-87803026D01*
X125940725Y-87963119D01*
X125940728Y-87963123D01*
X126076876Y-88099271D01*
X126076880Y-88099274D01*
X126236973Y-88206246D01*
X126236986Y-88206253D01*
X126332462Y-88245800D01*
X126414874Y-88279936D01*
X126549112Y-88306637D01*
X126603720Y-88317499D01*
X126603724Y-88317500D01*
X126603725Y-88317500D01*
X126796276Y-88317500D01*
X126796277Y-88317499D01*
X126985126Y-88279936D01*
X127163020Y-88206250D01*
X127164312Y-88205386D01*
X127165092Y-88205142D01*
X127168387Y-88203381D01*
X127168721Y-88204005D01*
X127230988Y-88184506D01*
X127298368Y-88202988D01*
X127320887Y-88220805D01*
X130163181Y-91063098D01*
X130196666Y-91124421D01*
X130199500Y-91150779D01*
X130199500Y-92620220D01*
X130179815Y-92687259D01*
X130127011Y-92733014D01*
X130057853Y-92742958D01*
X129994297Y-92713933D01*
X129987819Y-92707901D01*
X127641440Y-90361522D01*
X127607955Y-90300199D01*
X127612939Y-90230507D01*
X127614560Y-90226388D01*
X127620997Y-90210848D01*
X127639936Y-90165126D01*
X127677500Y-89976275D01*
X127677500Y-89783725D01*
X127639936Y-89594874D01*
X127583714Y-89459141D01*
X127566253Y-89416986D01*
X127566246Y-89416973D01*
X127459274Y-89256880D01*
X127459271Y-89256876D01*
X127323123Y-89120728D01*
X127323119Y-89120725D01*
X127163026Y-89013753D01*
X127163013Y-89013746D01*
X126985132Y-88940066D01*
X126985128Y-88940064D01*
X126985126Y-88940064D01*
X126985122Y-88940063D01*
X126985118Y-88940062D01*
X126796279Y-88902500D01*
X126796275Y-88902500D01*
X126603725Y-88902500D01*
X126603720Y-88902500D01*
X126414881Y-88940062D01*
X126414867Y-88940066D01*
X126236986Y-89013746D01*
X126236973Y-89013753D01*
X126076880Y-89120725D01*
X126076876Y-89120728D01*
X125940728Y-89256876D01*
X125940725Y-89256880D01*
X125833753Y-89416973D01*
X125833746Y-89416986D01*
X125760066Y-89594867D01*
X125760062Y-89594881D01*
X125722500Y-89783720D01*
X125722500Y-89976279D01*
X125760062Y-90165118D01*
X125760066Y-90165132D01*
X125833746Y-90343013D01*
X125833753Y-90343026D01*
X125940725Y-90503119D01*
X125940728Y-90503123D01*
X126076876Y-90639271D01*
X126076880Y-90639274D01*
X126236973Y-90746246D01*
X126236986Y-90746253D01*
X126385466Y-90807755D01*
X126414874Y-90819936D01*
X126566527Y-90850101D01*
X126603720Y-90857499D01*
X126603724Y-90857500D01*
X126603725Y-90857500D01*
X126796276Y-90857500D01*
X126796277Y-90857499D01*
X126985126Y-90819936D01*
X127163020Y-90746250D01*
X127164312Y-90745386D01*
X127165092Y-90745142D01*
X127168387Y-90743381D01*
X127168721Y-90744005D01*
X127230988Y-90724506D01*
X127298368Y-90742988D01*
X127320887Y-90760805D01*
X129709181Y-93149099D01*
X129742666Y-93210422D01*
X129745500Y-93236780D01*
X129745500Y-104097220D01*
X129725815Y-104164259D01*
X129709181Y-104184901D01*
X129050901Y-104843181D01*
X128989578Y-104876666D01*
X128963220Y-104879500D01*
X128892982Y-104879500D01*
X128784763Y-104908497D01*
X128784760Y-104908498D01*
X128687740Y-104964513D01*
X128687734Y-104964517D01*
X128608517Y-105043734D01*
X128608513Y-105043740D01*
X128552498Y-105140760D01*
X128552497Y-105140763D01*
X128523500Y-105248982D01*
X128523500Y-105361018D01*
X128552497Y-105469237D01*
X128608515Y-105566263D01*
X128687737Y-105645485D01*
X128784763Y-105701503D01*
X128892982Y-105730500D01*
X128892984Y-105730500D01*
X129005016Y-105730500D01*
X129005018Y-105730500D01*
X129113237Y-105701503D01*
X129210263Y-105645485D01*
X129289485Y-105566263D01*
X129345503Y-105469237D01*
X129374500Y-105361018D01*
X129374500Y-105290778D01*
X129394185Y-105223739D01*
X129410819Y-105203097D01*
X129987819Y-104626097D01*
X130049142Y-104592612D01*
X130118834Y-104597596D01*
X130174767Y-104639468D01*
X130199184Y-104704932D01*
X130199500Y-104713778D01*
X130199500Y-105189219D01*
X130179815Y-105256258D01*
X130163181Y-105276900D01*
X129291634Y-106148446D01*
X129230311Y-106181931D01*
X129171860Y-106180540D01*
X129164238Y-106178497D01*
X129164237Y-106178497D01*
X129056018Y-106149500D01*
X128943982Y-106149500D01*
X128835763Y-106178497D01*
X128835760Y-106178498D01*
X128738740Y-106234513D01*
X128738734Y-106234517D01*
X128659517Y-106313734D01*
X128659513Y-106313740D01*
X128603498Y-106410760D01*
X128603497Y-106410763D01*
X128574500Y-106518982D01*
X128574500Y-106631018D01*
X128603497Y-106739237D01*
X128659515Y-106836263D01*
X128738737Y-106915485D01*
X128835763Y-106971503D01*
X128943982Y-107000500D01*
X128943984Y-107000500D01*
X129056016Y-107000500D01*
X129056018Y-107000500D01*
X129164237Y-106971503D01*
X129261263Y-106915485D01*
X129340485Y-106836263D01*
X129355312Y-106810580D01*
X129375016Y-106784902D01*
X129640936Y-106518982D01*
X130441819Y-105718096D01*
X130461255Y-105707484D01*
X130477989Y-105692984D01*
X130491320Y-105691067D01*
X130503142Y-105684612D01*
X130525228Y-105686191D01*
X130547147Y-105683040D01*
X130559398Y-105688635D01*
X130572833Y-105689596D01*
X130590559Y-105702865D01*
X130610703Y-105712065D01*
X130617984Y-105723395D01*
X130628767Y-105731467D01*
X130636505Y-105752214D01*
X130648477Y-105770843D01*
X130651628Y-105792761D01*
X130653184Y-105796932D01*
X130653500Y-105805778D01*
X130653500Y-105935220D01*
X130633815Y-106002259D01*
X130617181Y-106022901D01*
X129236428Y-107403653D01*
X129175105Y-107437138D01*
X129116655Y-107435747D01*
X129056019Y-107419500D01*
X129056018Y-107419500D01*
X128943982Y-107419500D01*
X128835763Y-107448497D01*
X128835760Y-107448498D01*
X128738740Y-107504513D01*
X128738734Y-107504517D01*
X128659517Y-107583734D01*
X128659513Y-107583740D01*
X128603498Y-107680760D01*
X128603497Y-107680763D01*
X128574500Y-107788982D01*
X128574500Y-107901018D01*
X128603497Y-108009237D01*
X128659515Y-108106263D01*
X128738737Y-108185485D01*
X128835763Y-108241503D01*
X128943982Y-108270500D01*
X128943984Y-108270500D01*
X129056016Y-108270500D01*
X129056018Y-108270500D01*
X129164237Y-108241503D01*
X129261263Y-108185485D01*
X129340485Y-108106263D01*
X129396503Y-108009237D01*
X129404675Y-107978735D01*
X129436767Y-107923149D01*
X130895819Y-106464096D01*
X130915255Y-106453484D01*
X130931989Y-106438984D01*
X130945320Y-106437067D01*
X130957142Y-106430612D01*
X130979228Y-106432191D01*
X131001147Y-106429040D01*
X131013398Y-106434635D01*
X131026834Y-106435596D01*
X131044560Y-106448866D01*
X131064703Y-106458065D01*
X131071985Y-106469396D01*
X131082767Y-106477468D01*
X131090504Y-106498213D01*
X131102477Y-106516843D01*
X131105628Y-106538761D01*
X131107184Y-106542932D01*
X131107500Y-106551778D01*
X131107500Y-106781219D01*
X131087815Y-106848258D01*
X131071181Y-106868900D01*
X129260087Y-108679993D01*
X129198764Y-108713478D01*
X129140314Y-108712087D01*
X129056018Y-108689500D01*
X128943982Y-108689500D01*
X128835763Y-108718497D01*
X128835760Y-108718498D01*
X128738740Y-108774513D01*
X128738734Y-108774517D01*
X128659517Y-108853734D01*
X128659513Y-108853740D01*
X128603498Y-108950760D01*
X128603497Y-108950763D01*
X128574500Y-109058982D01*
X128574500Y-109171018D01*
X128603497Y-109279237D01*
X128659515Y-109376263D01*
X128738737Y-109455485D01*
X128835763Y-109511503D01*
X128943982Y-109540500D01*
X128943984Y-109540500D01*
X129056016Y-109540500D01*
X129056018Y-109540500D01*
X129164237Y-109511503D01*
X129261263Y-109455485D01*
X129340485Y-109376263D01*
X129396503Y-109279237D01*
X129396505Y-109279228D01*
X129398249Y-109275020D01*
X129425129Y-109234787D01*
X131349820Y-107310096D01*
X131411142Y-107276613D01*
X131480834Y-107281597D01*
X131536767Y-107323469D01*
X131561184Y-107388933D01*
X131561500Y-107397779D01*
X131561500Y-108127220D01*
X131541815Y-108194259D01*
X131525181Y-108214901D01*
X129645901Y-110094181D01*
X129618973Y-110108884D01*
X129593155Y-110125477D01*
X129586954Y-110126368D01*
X129584578Y-110127666D01*
X129558220Y-110130500D01*
X129398610Y-110130500D01*
X129331571Y-110110815D01*
X129310929Y-110094181D01*
X129261265Y-110044517D01*
X129261263Y-110044515D01*
X129176888Y-109995801D01*
X129164239Y-109988498D01*
X129164238Y-109988497D01*
X129164237Y-109988497D01*
X129056018Y-109959500D01*
X128943982Y-109959500D01*
X128835763Y-109988497D01*
X128835760Y-109988498D01*
X128738740Y-110044513D01*
X128738734Y-110044517D01*
X128659517Y-110123734D01*
X128659513Y-110123740D01*
X128603498Y-110220760D01*
X128603497Y-110220763D01*
X128574500Y-110328982D01*
X128574500Y-110441018D01*
X128603497Y-110549237D01*
X128659515Y-110646263D01*
X128738737Y-110725485D01*
X128835763Y-110781503D01*
X128943982Y-110810500D01*
X128943984Y-110810500D01*
X129056016Y-110810500D01*
X129056018Y-110810500D01*
X129164237Y-110781503D01*
X129261263Y-110725485D01*
X129310929Y-110675819D01*
X129372252Y-110642334D01*
X129398610Y-110639500D01*
X129765621Y-110639500D01*
X129765623Y-110639500D01*
X129813623Y-110619618D01*
X129859160Y-110600757D01*
X129859161Y-110600755D01*
X129859163Y-110600755D01*
X131803819Y-108656099D01*
X131823255Y-108645486D01*
X131839989Y-108630986D01*
X131853320Y-108629069D01*
X131865142Y-108622614D01*
X131887228Y-108624193D01*
X131909147Y-108621042D01*
X131921398Y-108626637D01*
X131934834Y-108627598D01*
X131952560Y-108640868D01*
X131972703Y-108650067D01*
X131979985Y-108661398D01*
X131990767Y-108669470D01*
X131998504Y-108690215D01*
X132010477Y-108708845D01*
X132013628Y-108730763D01*
X132015184Y-108734934D01*
X132015500Y-108743780D01*
X132015500Y-108973220D01*
X131995815Y-109040259D01*
X131979181Y-109060901D01*
X129675901Y-111364181D01*
X129614578Y-111397666D01*
X129588220Y-111400500D01*
X129398610Y-111400500D01*
X129331571Y-111380815D01*
X129310929Y-111364181D01*
X129261265Y-111314517D01*
X129261263Y-111314515D01*
X129164237Y-111258497D01*
X129056018Y-111229500D01*
X128943982Y-111229500D01*
X128835763Y-111258497D01*
X128835760Y-111258498D01*
X128738740Y-111314513D01*
X128738734Y-111314517D01*
X128659517Y-111393734D01*
X128659513Y-111393740D01*
X128603498Y-111490760D01*
X128603497Y-111490763D01*
X128574500Y-111598982D01*
X128574500Y-111711018D01*
X128596225Y-111792095D01*
X128603497Y-111819236D01*
X128603498Y-111819239D01*
X128618359Y-111844979D01*
X128659515Y-111916263D01*
X128738737Y-111995485D01*
X128835763Y-112051503D01*
X128943982Y-112080500D01*
X128943984Y-112080500D01*
X129056016Y-112080500D01*
X129056018Y-112080500D01*
X129164237Y-112051503D01*
X129261263Y-111995485D01*
X129310929Y-111945819D01*
X129372252Y-111912334D01*
X129398610Y-111909500D01*
X129795621Y-111909500D01*
X129795623Y-111909500D01*
X129842393Y-111890127D01*
X129889160Y-111870757D01*
X129889161Y-111870755D01*
X129889163Y-111870755D01*
X132257819Y-109502096D01*
X132319142Y-109468612D01*
X132388834Y-109473596D01*
X132444767Y-109515468D01*
X132469184Y-109580932D01*
X132469500Y-109589778D01*
X132469500Y-110019220D01*
X132449815Y-110086259D01*
X132433181Y-110106901D01*
X129905901Y-112634181D01*
X129844578Y-112667666D01*
X129818220Y-112670500D01*
X129498610Y-112670500D01*
X129431571Y-112650815D01*
X129410929Y-112634181D01*
X129361265Y-112584517D01*
X129361263Y-112584515D01*
X129277991Y-112536438D01*
X129264239Y-112528498D01*
X129264238Y-112528497D01*
X129264237Y-112528497D01*
X129156018Y-112499500D01*
X129043982Y-112499500D01*
X128935763Y-112528497D01*
X128935760Y-112528498D01*
X128838740Y-112584513D01*
X128838734Y-112584517D01*
X128759517Y-112663734D01*
X128759513Y-112663740D01*
X128703498Y-112760760D01*
X128703497Y-112760763D01*
X128674500Y-112868982D01*
X128674500Y-112981018D01*
X128698220Y-113069540D01*
X128703497Y-113089236D01*
X128703498Y-113089239D01*
X128720624Y-113118902D01*
X128759515Y-113186263D01*
X128838737Y-113265485D01*
X128935763Y-113321503D01*
X129043982Y-113350500D01*
X129043984Y-113350500D01*
X129156016Y-113350500D01*
X129156018Y-113350500D01*
X129264237Y-113321503D01*
X129361263Y-113265485D01*
X129410929Y-113215819D01*
X129472252Y-113182334D01*
X129498610Y-113179500D01*
X130025621Y-113179500D01*
X130025623Y-113179500D01*
X130072393Y-113160127D01*
X130119160Y-113140757D01*
X130119161Y-113140755D01*
X130119163Y-113140755D01*
X132850721Y-110409194D01*
X132850724Y-110409193D01*
X132868162Y-110391755D01*
X132868163Y-110391755D01*
X132939755Y-110320163D01*
X132939755Y-110320161D01*
X132939757Y-110320160D01*
X132959333Y-110272897D01*
X132978500Y-110226623D01*
X132978500Y-96524778D01*
X132998185Y-96457739D01*
X133014814Y-96437102D01*
X138644161Y-90807755D01*
X138644163Y-90807755D01*
X138715755Y-90736163D01*
X138727213Y-90708500D01*
X138754501Y-90642623D01*
X138754501Y-90541376D01*
X138754501Y-90531387D01*
X138754500Y-90531373D01*
X138754500Y-82216778D01*
X138774185Y-82149739D01*
X138790814Y-82129101D01*
X139767001Y-81152914D01*
X139828322Y-81119431D01*
X139872554Y-81117893D01*
X139904173Y-81122500D01*
X141215826Y-81122499D01*
X141289204Y-81111809D01*
X141402390Y-81056476D01*
X141491476Y-80967390D01*
X141546809Y-80854204D01*
X141557500Y-80780827D01*
X141557500Y-80220539D01*
X142129999Y-80220539D01*
X142167275Y-80407932D01*
X142167277Y-80407938D01*
X142240397Y-80584465D01*
X142346553Y-80743341D01*
X142481658Y-80878446D01*
X142640536Y-80984604D01*
X142817056Y-81057720D01*
X142817063Y-81057722D01*
X142850000Y-81064273D01*
X142850000Y-80442709D01*
X142870339Y-80454452D01*
X143021667Y-80495000D01*
X143178333Y-80495000D01*
X143329661Y-80454452D01*
X143350000Y-80442709D01*
X143350000Y-81064273D01*
X143382936Y-81057722D01*
X143382943Y-81057720D01*
X143559463Y-80984604D01*
X143718341Y-80878446D01*
X143853446Y-80743341D01*
X143959602Y-80584465D01*
X144032722Y-80407938D01*
X144032724Y-80407932D01*
X144070000Y-80220539D01*
X144070000Y-80150000D01*
X143642709Y-80150000D01*
X143654452Y-80129661D01*
X143695000Y-79978333D01*
X143695000Y-79821667D01*
X143654452Y-79670339D01*
X143642709Y-79650000D01*
X144070000Y-79650000D01*
X144070000Y-79579460D01*
X144032724Y-79392067D01*
X144032722Y-79392061D01*
X143959602Y-79215534D01*
X143853446Y-79056658D01*
X143718341Y-78921553D01*
X143559465Y-78815397D01*
X143382936Y-78742276D01*
X143382931Y-78742274D01*
X143350000Y-78735724D01*
X143350000Y-79357290D01*
X143329661Y-79345548D01*
X143178333Y-79305000D01*
X143021667Y-79305000D01*
X142870339Y-79345548D01*
X142850000Y-79357290D01*
X142850000Y-78735725D01*
X142849999Y-78735724D01*
X142817068Y-78742274D01*
X142817063Y-78742276D01*
X142640534Y-78815397D01*
X142481658Y-78921553D01*
X142346553Y-79056658D01*
X142240397Y-79215534D01*
X142167277Y-79392061D01*
X142167275Y-79392067D01*
X142130000Y-79579460D01*
X142130000Y-79650000D01*
X142557291Y-79650000D01*
X142545548Y-79670339D01*
X142505000Y-79821667D01*
X142505000Y-79978333D01*
X142545548Y-80129661D01*
X142557291Y-80150000D01*
X142130000Y-80150000D01*
X142130000Y-80220539D01*
X142129999Y-80220539D01*
X141557500Y-80220539D01*
X141557499Y-79019174D01*
X141546809Y-78945796D01*
X141491476Y-78832610D01*
X141491474Y-78832608D01*
X141491474Y-78832607D01*
X141402392Y-78743525D01*
X141289202Y-78688190D01*
X141215827Y-78677500D01*
X139904174Y-78677500D01*
X139830795Y-78688191D01*
X139717607Y-78743525D01*
X139628525Y-78832607D01*
X139573191Y-78945796D01*
X139562500Y-79019172D01*
X139562500Y-80586219D01*
X139542815Y-80653258D01*
X139526181Y-80673900D01*
X138338395Y-81861685D01*
X138338396Y-81861686D01*
X138284242Y-81915839D01*
X138245501Y-82009373D01*
X138245500Y-82009378D01*
X138245500Y-90435219D01*
X138236855Y-90464659D01*
X138230332Y-90494646D01*
X138226577Y-90499661D01*
X138225815Y-90502258D01*
X138209181Y-90522900D01*
X138066181Y-90665900D01*
X138004858Y-90699385D01*
X137935166Y-90694401D01*
X137879233Y-90652529D01*
X137854816Y-90587065D01*
X137854500Y-90578219D01*
X137854500Y-86819378D01*
X137854498Y-86819373D01*
X137852671Y-86814963D01*
X137845220Y-86796973D01*
X137815757Y-86725839D01*
X137737098Y-86647180D01*
X137737091Y-86647174D01*
X136291440Y-85201522D01*
X136257955Y-85140199D01*
X136262939Y-85070507D01*
X136264560Y-85066388D01*
X136272268Y-85047780D01*
X136289936Y-85005126D01*
X136327500Y-84816275D01*
X136327500Y-84623725D01*
X136289936Y-84434874D01*
X136247543Y-84332528D01*
X136216253Y-84256986D01*
X136216246Y-84256973D01*
X136109274Y-84096880D01*
X136109271Y-84096876D01*
X135973123Y-83960728D01*
X135973119Y-83960725D01*
X135813026Y-83853753D01*
X135813013Y-83853746D01*
X135635132Y-83780066D01*
X135635128Y-83780064D01*
X135635126Y-83780064D01*
X135635122Y-83780063D01*
X135635118Y-83780062D01*
X135446279Y-83742500D01*
X135446275Y-83742500D01*
X135253725Y-83742500D01*
X135253720Y-83742500D01*
X135064881Y-83780062D01*
X135064867Y-83780066D01*
X134886986Y-83853746D01*
X134886973Y-83853753D01*
X134726880Y-83960725D01*
X134726876Y-83960728D01*
X134590728Y-84096876D01*
X134590725Y-84096880D01*
X134483753Y-84256973D01*
X134483746Y-84256986D01*
X134410066Y-84434867D01*
X134410062Y-84434881D01*
X134372500Y-84623720D01*
X134372500Y-84816279D01*
X134410062Y-85005118D01*
X134410066Y-85005132D01*
X134483746Y-85183013D01*
X134483753Y-85183026D01*
X134590725Y-85343119D01*
X134590728Y-85343123D01*
X134726876Y-85479271D01*
X134726880Y-85479274D01*
X134886973Y-85586246D01*
X134886986Y-85586253D01*
X135022239Y-85642276D01*
X135064874Y-85659936D01*
X135253720Y-85697499D01*
X135253724Y-85697500D01*
X135253725Y-85697500D01*
X135446276Y-85697500D01*
X135446277Y-85697499D01*
X135635126Y-85659936D01*
X135813020Y-85586250D01*
X135814312Y-85585387D01*
X135815090Y-85585143D01*
X135818393Y-85583378D01*
X135818727Y-85584004D01*
X135880989Y-85564506D01*
X135948369Y-85582988D01*
X135970888Y-85600805D01*
X137309181Y-86939098D01*
X137342666Y-87000421D01*
X137345500Y-87026779D01*
X137345500Y-87790901D01*
X137325815Y-87857940D01*
X137273011Y-87903695D01*
X137203853Y-87913639D01*
X137140297Y-87884614D01*
X137118400Y-87859795D01*
X137115755Y-87855837D01*
X136330225Y-87070307D01*
X136296740Y-87008984D01*
X136296304Y-87006891D01*
X136289936Y-86974874D01*
X136225528Y-86819378D01*
X136216253Y-86796986D01*
X136216246Y-86796973D01*
X136109274Y-86636880D01*
X136109271Y-86636876D01*
X135973123Y-86500728D01*
X135973119Y-86500725D01*
X135813026Y-86393753D01*
X135813013Y-86393746D01*
X135635132Y-86320066D01*
X135635128Y-86320064D01*
X135635126Y-86320064D01*
X135635122Y-86320063D01*
X135635118Y-86320062D01*
X135446279Y-86282500D01*
X135446275Y-86282500D01*
X135253725Y-86282500D01*
X135253720Y-86282500D01*
X135064881Y-86320062D01*
X135064867Y-86320066D01*
X134886986Y-86393746D01*
X134886973Y-86393753D01*
X134726880Y-86500725D01*
X134726876Y-86500728D01*
X134590728Y-86636876D01*
X134590725Y-86636880D01*
X134483753Y-86796973D01*
X134483746Y-86796986D01*
X134410066Y-86974867D01*
X134410062Y-86974881D01*
X134372500Y-87163720D01*
X134372500Y-87356279D01*
X134410062Y-87545118D01*
X134410066Y-87545132D01*
X134483746Y-87723013D01*
X134483753Y-87723026D01*
X134590725Y-87883119D01*
X134590728Y-87883123D01*
X134726876Y-88019271D01*
X134726880Y-88019274D01*
X134886973Y-88126246D01*
X134886986Y-88126253D01*
X134978469Y-88164146D01*
X135064874Y-88199936D01*
X135237044Y-88234182D01*
X135253720Y-88237499D01*
X135253724Y-88237500D01*
X135253725Y-88237500D01*
X135446276Y-88237500D01*
X135446277Y-88237499D01*
X135635126Y-88199936D01*
X135813020Y-88126250D01*
X135973120Y-88019274D01*
X136109274Y-87883120D01*
X136151073Y-87820564D01*
X136204685Y-87775759D01*
X136274010Y-87767052D01*
X136337038Y-87797206D01*
X136341856Y-87801774D01*
X136609181Y-88069099D01*
X136642666Y-88130422D01*
X136645500Y-88156780D01*
X136645500Y-90443220D01*
X136625815Y-90510259D01*
X136609181Y-90530901D01*
X131828181Y-95311901D01*
X131766858Y-95345386D01*
X131697166Y-95340402D01*
X131641233Y-95298530D01*
X131616816Y-95233066D01*
X131616500Y-95224220D01*
X131616500Y-94044779D01*
X131636185Y-93977740D01*
X131652814Y-93957103D01*
X134868479Y-90741437D01*
X134929800Y-90707954D01*
X134999492Y-90712938D01*
X135003547Y-90714533D01*
X135064874Y-90739936D01*
X135216527Y-90770101D01*
X135253720Y-90777499D01*
X135253724Y-90777500D01*
X135253725Y-90777500D01*
X135446276Y-90777500D01*
X135446277Y-90777499D01*
X135635126Y-90739936D01*
X135813020Y-90666250D01*
X135973120Y-90559274D01*
X136109274Y-90423120D01*
X136216250Y-90263020D01*
X136289936Y-90085126D01*
X136327500Y-89896275D01*
X136327500Y-89703725D01*
X136289936Y-89514874D01*
X136240387Y-89395252D01*
X136216253Y-89336986D01*
X136216246Y-89336973D01*
X136109274Y-89176880D01*
X136109271Y-89176876D01*
X135973123Y-89040728D01*
X135973119Y-89040725D01*
X135813026Y-88933753D01*
X135813013Y-88933746D01*
X135635132Y-88860066D01*
X135635128Y-88860064D01*
X135635126Y-88860064D01*
X135635122Y-88860063D01*
X135635118Y-88860062D01*
X135446279Y-88822500D01*
X135446275Y-88822500D01*
X135253725Y-88822500D01*
X135253720Y-88822500D01*
X135064881Y-88860062D01*
X135064867Y-88860066D01*
X134886986Y-88933746D01*
X134886973Y-88933753D01*
X134726880Y-89040725D01*
X134726876Y-89040728D01*
X134590728Y-89176876D01*
X134590725Y-89176880D01*
X134483753Y-89336973D01*
X134483746Y-89336986D01*
X134410066Y-89514867D01*
X134410062Y-89514881D01*
X134372500Y-89703720D01*
X134372500Y-89896279D01*
X134410062Y-90085118D01*
X134410066Y-90085132D01*
X134483748Y-90263017D01*
X134484612Y-90264310D01*
X134484856Y-90265091D01*
X134486620Y-90268390D01*
X134485994Y-90268724D01*
X134505493Y-90330987D01*
X134487011Y-90398367D01*
X134469194Y-90420886D01*
X131374181Y-93515900D01*
X131312858Y-93549385D01*
X131243166Y-93544401D01*
X131187233Y-93502529D01*
X131162816Y-93437065D01*
X131162500Y-93428219D01*
X131162500Y-88857378D01*
X131162498Y-88857373D01*
X131162287Y-88856864D01*
X131142907Y-88810074D01*
X131123757Y-88763839D01*
X131045098Y-88685180D01*
X131045091Y-88685174D01*
X127641440Y-85281522D01*
X127607955Y-85220199D01*
X127612939Y-85150507D01*
X127614560Y-85146388D01*
X127625449Y-85120100D01*
X127639936Y-85085126D01*
X127677500Y-84896275D01*
X127677500Y-84703725D01*
X127639936Y-84514874D01*
X127612159Y-84447814D01*
X127566253Y-84336986D01*
X127566246Y-84336973D01*
X127459274Y-84176880D01*
X127459271Y-84176876D01*
X127323123Y-84040728D01*
X127323119Y-84040725D01*
X127163026Y-83933753D01*
X127163013Y-83933746D01*
X126985132Y-83860066D01*
X126985128Y-83860064D01*
X126985126Y-83860064D01*
X126985122Y-83860063D01*
X126985118Y-83860062D01*
X126796279Y-83822500D01*
X126796275Y-83822500D01*
X126603725Y-83822500D01*
X126603720Y-83822500D01*
X126414881Y-83860062D01*
X126414867Y-83860066D01*
X126236986Y-83933746D01*
X126236973Y-83933753D01*
X126076880Y-84040725D01*
X126076876Y-84040728D01*
X125940728Y-84176876D01*
X125940725Y-84176880D01*
X125833753Y-84336973D01*
X125833746Y-84336986D01*
X125760066Y-84514867D01*
X125760062Y-84514881D01*
X125722500Y-84703720D01*
X124651839Y-84703720D01*
X124625925Y-84607008D01*
X124593012Y-84550001D01*
X125078884Y-84550001D01*
X125078884Y-84550000D01*
X125073493Y-84522900D01*
X125073492Y-84522897D01*
X125001880Y-84350009D01*
X125001875Y-84350000D01*
X124897913Y-84194411D01*
X124897910Y-84194407D01*
X124765593Y-84062090D01*
X124765589Y-84062087D01*
X124610000Y-83958125D01*
X124609991Y-83958120D01*
X124437103Y-83886508D01*
X124437100Y-83886507D01*
X124410000Y-83881116D01*
X124410000Y-84366989D01*
X124352993Y-84334076D01*
X124225826Y-84300001D01*
X124094174Y-84300001D01*
X123967007Y-84334076D01*
X123910000Y-84366989D01*
X123910000Y-83881117D01*
X123909999Y-83881116D01*
X123882899Y-83886507D01*
X123882896Y-83886508D01*
X123710008Y-83958120D01*
X123709999Y-83958125D01*
X123554410Y-84062087D01*
X123554406Y-84062090D01*
X123422089Y-84194407D01*
X123422086Y-84194411D01*
X123318124Y-84350000D01*
X123318119Y-84350009D01*
X123246507Y-84522897D01*
X123246506Y-84522900D01*
X123241115Y-84550000D01*
X122754500Y-84550000D01*
X122754500Y-82456780D01*
X122774185Y-82389741D01*
X122790819Y-82369099D01*
X129723099Y-75436819D01*
X129784422Y-75403334D01*
X129810780Y-75400500D01*
X138240220Y-75400500D01*
X138307259Y-75420185D01*
X138353014Y-75472989D01*
X138362958Y-75542147D01*
X138333933Y-75605703D01*
X138327901Y-75612180D01*
X134773747Y-79166334D01*
X131349596Y-82590485D01*
X131349595Y-82590485D01*
X131349596Y-82590486D01*
X131295442Y-82644639D01*
X131256701Y-82738173D01*
X131256700Y-82738178D01*
X131256700Y-88451821D01*
X131256701Y-88451826D01*
X131295442Y-88545360D01*
X131796181Y-89046099D01*
X131829666Y-89107422D01*
X131832500Y-89133780D01*
X131832500Y-90662558D01*
X131839898Y-90699749D01*
X131868077Y-90741922D01*
X131910250Y-90770101D01*
X131910252Y-90770102D01*
X131938205Y-90775662D01*
X131947441Y-90777500D01*
X131947442Y-90777500D01*
X133672559Y-90777500D01*
X133679957Y-90776028D01*
X133709748Y-90770102D01*
X133751922Y-90741922D01*
X133780102Y-90699748D01*
X133787500Y-90662558D01*
X133787500Y-88937442D01*
X133780102Y-88900252D01*
X133764782Y-88877324D01*
X133751922Y-88858077D01*
X133709749Y-88829898D01*
X133672559Y-88822500D01*
X133672558Y-88822500D01*
X132343780Y-88822500D01*
X132276741Y-88802815D01*
X132256099Y-88786181D01*
X131802019Y-88332101D01*
X131768534Y-88270778D01*
X131765700Y-88244420D01*
X131765700Y-87865322D01*
X131785385Y-87798283D01*
X131838189Y-87752528D01*
X131907347Y-87742584D01*
X131970903Y-87771609D01*
X131992802Y-87796431D01*
X132050725Y-87883119D01*
X132050728Y-87883123D01*
X132186876Y-88019271D01*
X132186880Y-88019274D01*
X132346973Y-88126246D01*
X132346986Y-88126253D01*
X132438469Y-88164146D01*
X132524874Y-88199936D01*
X132697044Y-88234182D01*
X132713720Y-88237499D01*
X132713724Y-88237500D01*
X132713725Y-88237500D01*
X132906276Y-88237500D01*
X132906277Y-88237499D01*
X133095126Y-88199936D01*
X133273020Y-88126250D01*
X133433120Y-88019274D01*
X133569274Y-87883120D01*
X133676250Y-87723020D01*
X133749936Y-87545126D01*
X133787500Y-87356275D01*
X133787500Y-87163725D01*
X133749936Y-86974874D01*
X133712303Y-86884019D01*
X133676253Y-86796986D01*
X133676246Y-86796973D01*
X133569274Y-86636880D01*
X133569271Y-86636876D01*
X133433123Y-86500728D01*
X133433119Y-86500725D01*
X133273026Y-86393753D01*
X133273013Y-86393746D01*
X133095132Y-86320066D01*
X133095128Y-86320064D01*
X133095126Y-86320064D01*
X133095122Y-86320063D01*
X133095118Y-86320062D01*
X132906279Y-86282500D01*
X132906275Y-86282500D01*
X132713725Y-86282500D01*
X132713720Y-86282500D01*
X132524881Y-86320062D01*
X132524867Y-86320066D01*
X132346986Y-86393746D01*
X132346973Y-86393753D01*
X132186880Y-86500725D01*
X132186876Y-86500728D01*
X132050728Y-86636876D01*
X132050725Y-86636880D01*
X131992802Y-86723568D01*
X131939189Y-86768373D01*
X131869864Y-86777080D01*
X131806837Y-86746925D01*
X131770118Y-86687482D01*
X131765700Y-86654677D01*
X131765700Y-85275824D01*
X131785385Y-85208785D01*
X131838189Y-85163030D01*
X131907347Y-85153086D01*
X131970903Y-85182111D01*
X131992802Y-85206933D01*
X132072086Y-85325590D01*
X132072089Y-85325594D01*
X132204406Y-85457911D01*
X132204410Y-85457914D01*
X132359999Y-85561876D01*
X132360012Y-85561883D01*
X132532889Y-85633490D01*
X132532896Y-85633492D01*
X132560000Y-85638883D01*
X132560000Y-85153013D01*
X132617007Y-85185926D01*
X132744174Y-85220001D01*
X132875826Y-85220001D01*
X133002993Y-85185926D01*
X133060000Y-85153013D01*
X133060000Y-85638882D01*
X133087103Y-85633492D01*
X133087110Y-85633490D01*
X133259987Y-85561883D01*
X133260000Y-85561876D01*
X133415589Y-85457914D01*
X133415593Y-85457911D01*
X133547910Y-85325594D01*
X133547913Y-85325590D01*
X133651875Y-85170001D01*
X133651880Y-85169992D01*
X133723492Y-84997104D01*
X133723493Y-84997101D01*
X133728884Y-84970001D01*
X133243012Y-84970001D01*
X133275925Y-84912994D01*
X133310000Y-84785827D01*
X133310000Y-84654175D01*
X133275925Y-84527008D01*
X133243012Y-84470001D01*
X133728884Y-84470001D01*
X133728884Y-84470000D01*
X133723493Y-84442900D01*
X133723492Y-84442897D01*
X133651880Y-84270009D01*
X133651875Y-84270000D01*
X133547913Y-84114411D01*
X133547910Y-84114407D01*
X133415593Y-83982090D01*
X133415589Y-83982087D01*
X133260000Y-83878125D01*
X133259991Y-83878120D01*
X133087103Y-83806508D01*
X133087100Y-83806507D01*
X133060000Y-83801116D01*
X133060000Y-84286989D01*
X133002993Y-84254076D01*
X132875826Y-84220001D01*
X132744174Y-84220001D01*
X132617007Y-84254076D01*
X132560000Y-84286989D01*
X132560000Y-83801117D01*
X132559999Y-83801116D01*
X132532899Y-83806507D01*
X132532896Y-83806508D01*
X132360008Y-83878120D01*
X132359999Y-83878125D01*
X132204410Y-83982087D01*
X132204406Y-83982090D01*
X132072089Y-84114407D01*
X132072086Y-84114411D01*
X131992802Y-84233068D01*
X131939190Y-84277873D01*
X131869865Y-84286580D01*
X131806837Y-84256425D01*
X131770118Y-84196982D01*
X131765700Y-84164177D01*
X131765700Y-82945579D01*
X131785385Y-82878540D01*
X131802019Y-82857898D01*
X138769098Y-75890819D01*
X138830421Y-75857334D01*
X138856779Y-75854500D01*
X172743220Y-75854500D01*
X172810259Y-75874185D01*
X172830901Y-75890819D01*
X175400381Y-78460299D01*
X175433866Y-78521622D01*
X175436700Y-78547980D01*
X175436700Y-89952020D01*
X175417015Y-90019059D01*
X175400381Y-90039701D01*
X172552901Y-92887181D01*
X172491578Y-92920666D01*
X172465220Y-92923500D01*
X167235780Y-92923500D01*
X167168741Y-92903815D01*
X167122986Y-92851011D01*
X167113042Y-92781853D01*
X167142067Y-92718297D01*
X167148099Y-92711819D01*
X168334737Y-91525181D01*
X169576955Y-90282963D01*
X169615701Y-90189423D01*
X169615701Y-90088177D01*
X169615701Y-90078188D01*
X169615700Y-90078174D01*
X169615700Y-82176378D01*
X169635385Y-82109339D01*
X169652014Y-82088701D01*
X170655790Y-81084925D01*
X170717111Y-81051442D01*
X170786803Y-81056426D01*
X170797921Y-81061204D01*
X170800795Y-81062609D01*
X170874172Y-81073300D01*
X172185825Y-81073299D01*
X172259203Y-81062609D01*
X172372389Y-81007276D01*
X172461475Y-80918190D01*
X172516808Y-80805004D01*
X172527499Y-80731627D01*
X172527499Y-80171339D01*
X173099998Y-80171339D01*
X173137274Y-80358732D01*
X173137276Y-80358738D01*
X173210396Y-80535265D01*
X173316552Y-80694141D01*
X173451657Y-80829246D01*
X173610535Y-80935404D01*
X173787055Y-81008520D01*
X173787062Y-81008522D01*
X173819999Y-81015073D01*
X173819999Y-80393509D01*
X173840338Y-80405252D01*
X173991666Y-80445800D01*
X174148332Y-80445800D01*
X174299660Y-80405252D01*
X174319999Y-80393509D01*
X174319999Y-81015073D01*
X174352935Y-81008522D01*
X174352942Y-81008520D01*
X174529462Y-80935404D01*
X174688340Y-80829246D01*
X174823445Y-80694141D01*
X174929601Y-80535265D01*
X175002721Y-80358738D01*
X175002723Y-80358732D01*
X175039999Y-80171339D01*
X175039999Y-80100800D01*
X174612708Y-80100800D01*
X174624451Y-80080461D01*
X174664999Y-79929133D01*
X174664999Y-79772467D01*
X174624451Y-79621139D01*
X174612708Y-79600800D01*
X175039999Y-79600800D01*
X175039999Y-79530260D01*
X175002723Y-79342867D01*
X175002721Y-79342861D01*
X174929601Y-79166334D01*
X174823445Y-79007458D01*
X174688340Y-78872353D01*
X174529464Y-78766197D01*
X174352935Y-78693076D01*
X174352930Y-78693074D01*
X174319999Y-78686524D01*
X174319999Y-79308090D01*
X174299660Y-79296348D01*
X174148332Y-79255800D01*
X173991666Y-79255800D01*
X173840338Y-79296348D01*
X173819999Y-79308090D01*
X173819999Y-78686525D01*
X173819998Y-78686524D01*
X173787067Y-78693074D01*
X173787062Y-78693076D01*
X173610533Y-78766197D01*
X173451657Y-78872353D01*
X173316552Y-79007458D01*
X173210396Y-79166334D01*
X173137276Y-79342861D01*
X173137274Y-79342867D01*
X173099999Y-79530260D01*
X173099999Y-79600800D01*
X173527290Y-79600800D01*
X173515547Y-79621139D01*
X173474999Y-79772467D01*
X173474999Y-79929133D01*
X173515547Y-80080461D01*
X173527290Y-80100800D01*
X173099999Y-80100800D01*
X173099999Y-80171339D01*
X173099998Y-80171339D01*
X172527499Y-80171339D01*
X172527498Y-78969974D01*
X172516808Y-78896596D01*
X172461475Y-78783410D01*
X172461473Y-78783408D01*
X172461473Y-78783407D01*
X172372391Y-78694325D01*
X172259201Y-78638990D01*
X172185826Y-78628300D01*
X170874173Y-78628300D01*
X170800794Y-78638991D01*
X170687606Y-78694325D01*
X170598524Y-78783407D01*
X170543189Y-78896597D01*
X170532499Y-78969972D01*
X170532499Y-80437019D01*
X170512814Y-80504058D01*
X170496180Y-80524700D01*
X169217037Y-81803844D01*
X169145444Y-81875436D01*
X169145442Y-81875438D01*
X169106701Y-81968972D01*
X169106700Y-81968977D01*
X169106700Y-89982020D01*
X169087015Y-90049059D01*
X169070381Y-90069701D01*
X166706901Y-92433181D01*
X166645578Y-92466666D01*
X166619220Y-92469500D01*
X161514779Y-92469500D01*
X161447740Y-92449815D01*
X161401985Y-92397011D01*
X161392041Y-92327853D01*
X161421066Y-92264297D01*
X161427098Y-92257819D01*
X165626099Y-88058819D01*
X165687422Y-88025334D01*
X165713780Y-88022500D01*
X165985824Y-88022500D01*
X166059202Y-88011810D01*
X166172388Y-87956477D01*
X166261474Y-87867391D01*
X166316807Y-87754205D01*
X166327498Y-87680828D01*
X166327498Y-87120540D01*
X166899997Y-87120540D01*
X166937273Y-87307933D01*
X166937275Y-87307939D01*
X167010395Y-87484466D01*
X167116551Y-87643342D01*
X167251656Y-87778447D01*
X167410534Y-87884605D01*
X167587054Y-87957721D01*
X167587061Y-87957723D01*
X167619998Y-87964274D01*
X167619998Y-87342710D01*
X167640337Y-87354453D01*
X167791665Y-87395001D01*
X167948331Y-87395001D01*
X168099659Y-87354453D01*
X168119998Y-87342710D01*
X168119998Y-87964274D01*
X168152934Y-87957723D01*
X168152941Y-87957721D01*
X168329461Y-87884605D01*
X168488339Y-87778447D01*
X168623444Y-87643342D01*
X168729600Y-87484466D01*
X168802720Y-87307939D01*
X168802722Y-87307933D01*
X168839998Y-87120540D01*
X168839998Y-87050001D01*
X168412707Y-87050001D01*
X168424450Y-87029662D01*
X168464998Y-86878334D01*
X168464998Y-86721668D01*
X168424450Y-86570340D01*
X168412707Y-86550001D01*
X168839998Y-86550001D01*
X168839998Y-86479461D01*
X168802722Y-86292068D01*
X168802720Y-86292062D01*
X168729600Y-86115535D01*
X168623444Y-85956659D01*
X168488339Y-85821554D01*
X168329463Y-85715398D01*
X168152934Y-85642277D01*
X168152929Y-85642275D01*
X168119998Y-85635725D01*
X168119998Y-86257291D01*
X168099659Y-86245549D01*
X167948331Y-86205001D01*
X167791665Y-86205001D01*
X167640337Y-86245549D01*
X167619998Y-86257291D01*
X167619998Y-85635726D01*
X167619997Y-85635725D01*
X167587066Y-85642275D01*
X167587061Y-85642277D01*
X167410532Y-85715398D01*
X167251656Y-85821554D01*
X167116551Y-85956659D01*
X167010395Y-86115535D01*
X166937275Y-86292062D01*
X166937273Y-86292068D01*
X166899998Y-86479461D01*
X166899998Y-86550001D01*
X167327289Y-86550001D01*
X167315546Y-86570340D01*
X167274998Y-86721668D01*
X167274998Y-86878334D01*
X167315546Y-87029662D01*
X167327289Y-87050001D01*
X166899998Y-87050001D01*
X166899998Y-87120540D01*
X166899997Y-87120540D01*
X166327498Y-87120540D01*
X166327497Y-85919175D01*
X166316807Y-85845797D01*
X166261474Y-85732611D01*
X166261472Y-85732609D01*
X166261472Y-85732608D01*
X166172390Y-85643526D01*
X166059200Y-85588191D01*
X165985825Y-85577501D01*
X164674172Y-85577501D01*
X164600793Y-85588192D01*
X164487605Y-85643526D01*
X164398523Y-85732608D01*
X164343189Y-85845797D01*
X164332498Y-85919173D01*
X164332498Y-87680826D01*
X164342485Y-87749374D01*
X164343189Y-87754205D01*
X164361128Y-87790901D01*
X164398523Y-87867393D01*
X164487605Y-87956475D01*
X164487606Y-87956475D01*
X164487608Y-87956477D01*
X164600794Y-88011810D01*
X164611014Y-88013299D01*
X164663888Y-88021003D01*
X164727389Y-88050147D01*
X164765053Y-88108996D01*
X164764921Y-88178865D01*
X164733691Y-88231388D01*
X160985900Y-91979181D01*
X160958972Y-91993884D01*
X160933154Y-92010477D01*
X160926953Y-92011368D01*
X160924577Y-92012666D01*
X160898219Y-92015500D01*
X160743780Y-92015500D01*
X160676741Y-91995815D01*
X160630986Y-91943011D01*
X160621042Y-91873853D01*
X160650067Y-91810297D01*
X160656099Y-91803819D01*
X161110099Y-91349819D01*
X163726721Y-88733194D01*
X163726724Y-88733193D01*
X163744162Y-88715755D01*
X163744163Y-88715755D01*
X163815755Y-88644163D01*
X163815755Y-88644161D01*
X163815757Y-88644160D01*
X163837859Y-88590799D01*
X163854500Y-88550623D01*
X163854500Y-81886779D01*
X163874185Y-81819740D01*
X163890815Y-81799102D01*
X164537000Y-81152916D01*
X164598321Y-81119433D01*
X164642553Y-81117895D01*
X164674172Y-81122502D01*
X165985825Y-81122501D01*
X166059203Y-81111811D01*
X166172389Y-81056478D01*
X166261475Y-80967392D01*
X166316808Y-80854206D01*
X166327499Y-80780829D01*
X166327499Y-80220541D01*
X166899998Y-80220541D01*
X166937274Y-80407934D01*
X166937276Y-80407940D01*
X167010396Y-80584467D01*
X167116552Y-80743343D01*
X167251657Y-80878448D01*
X167410535Y-80984606D01*
X167587055Y-81057722D01*
X167587062Y-81057724D01*
X167619999Y-81064275D01*
X167619999Y-80442711D01*
X167640338Y-80454454D01*
X167791666Y-80495002D01*
X167948332Y-80495002D01*
X168099660Y-80454454D01*
X168119999Y-80442711D01*
X168119999Y-81064275D01*
X168152935Y-81057724D01*
X168152942Y-81057722D01*
X168329462Y-80984606D01*
X168488340Y-80878448D01*
X168623445Y-80743343D01*
X168729601Y-80584467D01*
X168802721Y-80407940D01*
X168802723Y-80407934D01*
X168839999Y-80220541D01*
X168839999Y-80150002D01*
X168412708Y-80150002D01*
X168424451Y-80129663D01*
X168464999Y-79978335D01*
X168464999Y-79821669D01*
X168424451Y-79670341D01*
X168412708Y-79650002D01*
X168839999Y-79650002D01*
X168839999Y-79579462D01*
X168802723Y-79392069D01*
X168802721Y-79392063D01*
X168729601Y-79215536D01*
X168623445Y-79056660D01*
X168488340Y-78921555D01*
X168329464Y-78815399D01*
X168152935Y-78742278D01*
X168152930Y-78742276D01*
X168119999Y-78735726D01*
X168119999Y-79357292D01*
X168099660Y-79345550D01*
X167948332Y-79305002D01*
X167791666Y-79305002D01*
X167640338Y-79345550D01*
X167619999Y-79357292D01*
X167619999Y-78735727D01*
X167619998Y-78735726D01*
X167587067Y-78742276D01*
X167587062Y-78742278D01*
X167410533Y-78815399D01*
X167251657Y-78921555D01*
X167116552Y-79056660D01*
X167010396Y-79215536D01*
X166937276Y-79392063D01*
X166937274Y-79392069D01*
X166899999Y-79579462D01*
X166899999Y-79650002D01*
X167327290Y-79650002D01*
X167315547Y-79670341D01*
X167274999Y-79821669D01*
X167274999Y-79978335D01*
X167315547Y-80129663D01*
X167327290Y-80150002D01*
X166899999Y-80150002D01*
X166899999Y-80220541D01*
X166899998Y-80220541D01*
X166327499Y-80220541D01*
X166327498Y-79019176D01*
X166316808Y-78945798D01*
X166261475Y-78832612D01*
X166261473Y-78832610D01*
X166261473Y-78832609D01*
X166172391Y-78743527D01*
X166059201Y-78688192D01*
X165985826Y-78677502D01*
X164674173Y-78677502D01*
X164600794Y-78688193D01*
X164487606Y-78743527D01*
X164398524Y-78832609D01*
X164343189Y-78945799D01*
X164332499Y-79019174D01*
X164332499Y-80586221D01*
X164312814Y-80653260D01*
X164296180Y-80673902D01*
X163438395Y-81531686D01*
X163438396Y-81531687D01*
X163384242Y-81585840D01*
X163345501Y-81679374D01*
X163345500Y-81679379D01*
X163345500Y-88343220D01*
X163325815Y-88410259D01*
X163309181Y-88430901D01*
X160214901Y-91525181D01*
X160153578Y-91558666D01*
X160127220Y-91561500D01*
X156297780Y-91561500D01*
X156230741Y-91541815D01*
X156184986Y-91489011D01*
X156175042Y-91419853D01*
X156204067Y-91356297D01*
X156210099Y-91349819D01*
X157786396Y-89773522D01*
X159435754Y-88124164D01*
X159446158Y-88099046D01*
X159489998Y-88044645D01*
X159556292Y-88022580D01*
X159560718Y-88022501D01*
X159775825Y-88022501D01*
X159849203Y-88011811D01*
X159962389Y-87956478D01*
X160051475Y-87867392D01*
X160106808Y-87754206D01*
X160117499Y-87680829D01*
X160117499Y-87120541D01*
X160689998Y-87120541D01*
X160727274Y-87307934D01*
X160727276Y-87307940D01*
X160800396Y-87484467D01*
X160906552Y-87643343D01*
X161041657Y-87778448D01*
X161200535Y-87884606D01*
X161377055Y-87957722D01*
X161377062Y-87957724D01*
X161409999Y-87964275D01*
X161409999Y-87342711D01*
X161430338Y-87354454D01*
X161581666Y-87395002D01*
X161738332Y-87395002D01*
X161889660Y-87354454D01*
X161909999Y-87342711D01*
X161909999Y-87964275D01*
X161942935Y-87957724D01*
X161942942Y-87957722D01*
X162119462Y-87884606D01*
X162278340Y-87778448D01*
X162413445Y-87643343D01*
X162519601Y-87484467D01*
X162592721Y-87307940D01*
X162592723Y-87307934D01*
X162629999Y-87120541D01*
X162629999Y-87050002D01*
X162202708Y-87050002D01*
X162214451Y-87029663D01*
X162254999Y-86878335D01*
X162254999Y-86721669D01*
X162214451Y-86570341D01*
X162202708Y-86550002D01*
X162629999Y-86550002D01*
X162629999Y-86479462D01*
X162592723Y-86292069D01*
X162592721Y-86292063D01*
X162519601Y-86115536D01*
X162413445Y-85956660D01*
X162278340Y-85821555D01*
X162119464Y-85715399D01*
X161942935Y-85642278D01*
X161942930Y-85642276D01*
X161909999Y-85635726D01*
X161909999Y-86257292D01*
X161889660Y-86245550D01*
X161738332Y-86205002D01*
X161581666Y-86205002D01*
X161430338Y-86245550D01*
X161409999Y-86257292D01*
X161409999Y-85635727D01*
X161409998Y-85635726D01*
X161377067Y-85642276D01*
X161377062Y-85642278D01*
X161200533Y-85715399D01*
X161041657Y-85821555D01*
X160906552Y-85956660D01*
X160800396Y-86115536D01*
X160727276Y-86292063D01*
X160727274Y-86292069D01*
X160689999Y-86479462D01*
X160689999Y-86550002D01*
X161117290Y-86550002D01*
X161105547Y-86570341D01*
X161064999Y-86721669D01*
X161064999Y-86878335D01*
X161105547Y-87029663D01*
X161117290Y-87050002D01*
X160689999Y-87050002D01*
X160689999Y-87120541D01*
X160689998Y-87120541D01*
X160117499Y-87120541D01*
X160117498Y-85919176D01*
X160106808Y-85845798D01*
X160051475Y-85732612D01*
X160051473Y-85732610D01*
X160051473Y-85732609D01*
X159962391Y-85643527D01*
X159952889Y-85638882D01*
X159849203Y-85588193D01*
X159849201Y-85588192D01*
X159775826Y-85577502D01*
X158464173Y-85577502D01*
X158390794Y-85588193D01*
X158277606Y-85643527D01*
X158188524Y-85732609D01*
X158133189Y-85845799D01*
X158122499Y-85919174D01*
X158122499Y-87680827D01*
X158133190Y-87754206D01*
X158188524Y-87867394D01*
X158277606Y-87956476D01*
X158277607Y-87956476D01*
X158277609Y-87956478D01*
X158390795Y-88011811D01*
X158464172Y-88022502D01*
X158518217Y-88022501D01*
X158585255Y-88042184D01*
X158631010Y-88094988D01*
X158640955Y-88164146D01*
X158611931Y-88227702D01*
X158605898Y-88234182D01*
X155768901Y-91071181D01*
X155707578Y-91104666D01*
X155681220Y-91107500D01*
X154751780Y-91107500D01*
X154684741Y-91087815D01*
X154638986Y-91035011D01*
X154629042Y-90965853D01*
X154658067Y-90902297D01*
X154664099Y-90895819D01*
X156124118Y-89435800D01*
X157615755Y-87944163D01*
X157654501Y-87850623D01*
X157654501Y-87749377D01*
X157654501Y-87739388D01*
X157654500Y-87739374D01*
X157654500Y-81896779D01*
X157674185Y-81829740D01*
X157690815Y-81809102D01*
X158380300Y-81119616D01*
X158441621Y-81086133D01*
X158467969Y-81083299D01*
X159767026Y-81083299D01*
X159840404Y-81072609D01*
X159953590Y-81017276D01*
X160042676Y-80928190D01*
X160098009Y-80815004D01*
X160108700Y-80741627D01*
X160108700Y-80181339D01*
X160681199Y-80181339D01*
X160718475Y-80368732D01*
X160718477Y-80368738D01*
X160791597Y-80545265D01*
X160897753Y-80704141D01*
X161032858Y-80839246D01*
X161191736Y-80945404D01*
X161368256Y-81018520D01*
X161368263Y-81018522D01*
X161401200Y-81025073D01*
X161401200Y-80403509D01*
X161421539Y-80415252D01*
X161572867Y-80455800D01*
X161729533Y-80455800D01*
X161880861Y-80415252D01*
X161901200Y-80403509D01*
X161901200Y-81025073D01*
X161934136Y-81018522D01*
X161934143Y-81018520D01*
X162110663Y-80945404D01*
X162269541Y-80839246D01*
X162404646Y-80704141D01*
X162510802Y-80545265D01*
X162583922Y-80368738D01*
X162583924Y-80368732D01*
X162621200Y-80181339D01*
X162621200Y-80110800D01*
X162193909Y-80110800D01*
X162205652Y-80090461D01*
X162246200Y-79939133D01*
X162246200Y-79782467D01*
X162205652Y-79631139D01*
X162193909Y-79610800D01*
X162621200Y-79610800D01*
X162621200Y-79540260D01*
X162583924Y-79352867D01*
X162583922Y-79352861D01*
X162510802Y-79176334D01*
X162404646Y-79017458D01*
X162269541Y-78882353D01*
X162110665Y-78776197D01*
X161934136Y-78703076D01*
X161934131Y-78703074D01*
X161901200Y-78696524D01*
X161901200Y-79318090D01*
X161880861Y-79306348D01*
X161729533Y-79265800D01*
X161572867Y-79265800D01*
X161421539Y-79306348D01*
X161401200Y-79318090D01*
X161401200Y-78696525D01*
X161401199Y-78696524D01*
X161368268Y-78703074D01*
X161368263Y-78703076D01*
X161191734Y-78776197D01*
X161032858Y-78882353D01*
X160897753Y-79017458D01*
X160791597Y-79176334D01*
X160718477Y-79352861D01*
X160718475Y-79352867D01*
X160681200Y-79540260D01*
X160681200Y-79610800D01*
X161108491Y-79610800D01*
X161096748Y-79631139D01*
X161056200Y-79782467D01*
X161056200Y-79939133D01*
X161096748Y-80090461D01*
X161108491Y-80110800D01*
X160681200Y-80110800D01*
X160681200Y-80181339D01*
X160681199Y-80181339D01*
X160108700Y-80181339D01*
X160108699Y-78979974D01*
X160098009Y-78906596D01*
X160042676Y-78793410D01*
X160042674Y-78793408D01*
X160042674Y-78793407D01*
X159953592Y-78704325D01*
X159840402Y-78648990D01*
X159767027Y-78638300D01*
X158455374Y-78638300D01*
X158381995Y-78648991D01*
X158268807Y-78704325D01*
X158179725Y-78793407D01*
X158124390Y-78906597D01*
X158113700Y-78979972D01*
X158113700Y-80615020D01*
X158094015Y-80682059D01*
X158077381Y-80702701D01*
X157238395Y-81541686D01*
X157238396Y-81541687D01*
X157184242Y-81595840D01*
X157145501Y-81689374D01*
X157145500Y-81689379D01*
X157145500Y-87643220D01*
X157125815Y-87710259D01*
X157109181Y-87730901D01*
X155836109Y-89003972D01*
X155774786Y-89037457D01*
X155705094Y-89032473D01*
X155649161Y-88990601D01*
X155624744Y-88925137D01*
X155639596Y-88856864D01*
X155645331Y-88847393D01*
X155646952Y-88844965D01*
X155646955Y-88844963D01*
X155685700Y-88751423D01*
X155685700Y-83670177D01*
X155676921Y-83648982D01*
X155646957Y-83576639D01*
X153385298Y-81314980D01*
X153351813Y-81253657D01*
X153356797Y-81183965D01*
X153398669Y-81128032D01*
X153464133Y-81103615D01*
X153472979Y-81103299D01*
X153507026Y-81103299D01*
X153580404Y-81092609D01*
X153693590Y-81037276D01*
X153782676Y-80948190D01*
X153838009Y-80835004D01*
X153848700Y-80761627D01*
X153848700Y-80201339D01*
X154421199Y-80201339D01*
X154458475Y-80388732D01*
X154458477Y-80388738D01*
X154531597Y-80565265D01*
X154637753Y-80724141D01*
X154772858Y-80859246D01*
X154931736Y-80965404D01*
X155108256Y-81038520D01*
X155108263Y-81038522D01*
X155141200Y-81045073D01*
X155141200Y-80423509D01*
X155161539Y-80435252D01*
X155312867Y-80475800D01*
X155469533Y-80475800D01*
X155620861Y-80435252D01*
X155641200Y-80423509D01*
X155641200Y-81045073D01*
X155674136Y-81038522D01*
X155674143Y-81038520D01*
X155850663Y-80965404D01*
X156009541Y-80859246D01*
X156144646Y-80724141D01*
X156250802Y-80565265D01*
X156323922Y-80388738D01*
X156323924Y-80388732D01*
X156361200Y-80201339D01*
X156361200Y-80130800D01*
X155933909Y-80130800D01*
X155945652Y-80110461D01*
X155986200Y-79959133D01*
X155986200Y-79802467D01*
X155945652Y-79651139D01*
X155933909Y-79630800D01*
X156361200Y-79630800D01*
X156361200Y-79560260D01*
X156323924Y-79372867D01*
X156323922Y-79372861D01*
X156250802Y-79196334D01*
X156144646Y-79037458D01*
X156009541Y-78902353D01*
X155850665Y-78796197D01*
X155674136Y-78723076D01*
X155674131Y-78723074D01*
X155641200Y-78716524D01*
X155641200Y-79338090D01*
X155620861Y-79326348D01*
X155469533Y-79285800D01*
X155312867Y-79285800D01*
X155161539Y-79326348D01*
X155141200Y-79338090D01*
X155141200Y-78716525D01*
X155141199Y-78716524D01*
X155108268Y-78723074D01*
X155108263Y-78723076D01*
X154931734Y-78796197D01*
X154772858Y-78902353D01*
X154637753Y-79037458D01*
X154531597Y-79196334D01*
X154458477Y-79372861D01*
X154458475Y-79372867D01*
X154421200Y-79560260D01*
X154421200Y-79630800D01*
X154848491Y-79630800D01*
X154836748Y-79651139D01*
X154796200Y-79802467D01*
X154796200Y-79959133D01*
X154836748Y-80110461D01*
X154848491Y-80130800D01*
X154421200Y-80130800D01*
X154421200Y-80201339D01*
X154421199Y-80201339D01*
X153848700Y-80201339D01*
X153848699Y-78999974D01*
X153838009Y-78926596D01*
X153782676Y-78813410D01*
X153782674Y-78813408D01*
X153782674Y-78813407D01*
X153693592Y-78724325D01*
X153580402Y-78668990D01*
X153507027Y-78658300D01*
X152195374Y-78658300D01*
X152121995Y-78668991D01*
X152008807Y-78724325D01*
X151919725Y-78813407D01*
X151864390Y-78926597D01*
X151853700Y-78999972D01*
X151853700Y-80761625D01*
X151864391Y-80835004D01*
X151919725Y-80948192D01*
X152008807Y-81037274D01*
X152008808Y-81037274D01*
X152008810Y-81037276D01*
X152121996Y-81092609D01*
X152195373Y-81103300D01*
X152477407Y-81103299D01*
X152544445Y-81122983D01*
X152590200Y-81175787D01*
X152591660Y-81180291D01*
X152592026Y-81180140D01*
X152635442Y-81284960D01*
X155140381Y-83789899D01*
X155173866Y-83851222D01*
X155176700Y-83877580D01*
X155176700Y-88544020D01*
X155157015Y-88611059D01*
X155140381Y-88631701D01*
X153608901Y-90163181D01*
X153547578Y-90196666D01*
X153521220Y-90199500D01*
X145758951Y-90199500D01*
X145691912Y-90179815D01*
X145646157Y-90127011D01*
X145636213Y-90057853D01*
X145665238Y-89994297D01*
X145671270Y-89987819D01*
X146452951Y-89206138D01*
X147261308Y-88397780D01*
X147322629Y-88364297D01*
X147392321Y-88369281D01*
X147448254Y-88411153D01*
X147463548Y-88438010D01*
X147494948Y-88513816D01*
X147494953Y-88513826D01*
X147601925Y-88673919D01*
X147601928Y-88673923D01*
X147738076Y-88810071D01*
X147738080Y-88810074D01*
X147898173Y-88917046D01*
X147898186Y-88917053D01*
X148012230Y-88964291D01*
X148076074Y-88990736D01*
X148264920Y-89028299D01*
X148264924Y-89028300D01*
X148264925Y-89028300D01*
X148457476Y-89028300D01*
X148457477Y-89028299D01*
X148646326Y-88990736D01*
X148824220Y-88917050D01*
X148984320Y-88810074D01*
X149120474Y-88673920D01*
X149227450Y-88513820D01*
X149301136Y-88335926D01*
X149338700Y-88147075D01*
X149338700Y-87954525D01*
X149338699Y-87954520D01*
X149923700Y-87954520D01*
X149923700Y-88147079D01*
X149961262Y-88335918D01*
X149961266Y-88335932D01*
X150034946Y-88513813D01*
X150034953Y-88513826D01*
X150141925Y-88673919D01*
X150141928Y-88673923D01*
X150278076Y-88810071D01*
X150278080Y-88810074D01*
X150438173Y-88917046D01*
X150438186Y-88917053D01*
X150552230Y-88964291D01*
X150616074Y-88990736D01*
X150804920Y-89028299D01*
X150804924Y-89028300D01*
X150804925Y-89028300D01*
X150997476Y-89028300D01*
X150997477Y-89028299D01*
X151186326Y-88990736D01*
X151364220Y-88917050D01*
X151524320Y-88810074D01*
X151548213Y-88786181D01*
X151590962Y-88743433D01*
X151660471Y-88673923D01*
X151660474Y-88673920D01*
X151767450Y-88513820D01*
X151841136Y-88335926D01*
X151878700Y-88147075D01*
X151878700Y-87957228D01*
X152491200Y-87957228D01*
X152491200Y-88144371D01*
X152527706Y-88327897D01*
X152527708Y-88327905D01*
X152599319Y-88500790D01*
X152599326Y-88500802D01*
X152614673Y-88523771D01*
X152614674Y-88523772D01*
X152958237Y-88180209D01*
X152975275Y-88243793D01*
X153041101Y-88357807D01*
X153134193Y-88450899D01*
X153248207Y-88516725D01*
X153311790Y-88533762D01*
X152968227Y-88877324D01*
X152968227Y-88877325D01*
X152991207Y-88892679D01*
X153164094Y-88964291D01*
X153164102Y-88964293D01*
X153347628Y-89000799D01*
X153347631Y-89000800D01*
X153534769Y-89000800D01*
X153534771Y-89000799D01*
X153718297Y-88964293D01*
X153718305Y-88964291D01*
X153891192Y-88892679D01*
X153891198Y-88892676D01*
X153914171Y-88877325D01*
X153914172Y-88877324D01*
X153570610Y-88533762D01*
X153634193Y-88516725D01*
X153748207Y-88450899D01*
X153841299Y-88357807D01*
X153907125Y-88243793D01*
X153924162Y-88180210D01*
X154267724Y-88523772D01*
X154267725Y-88523771D01*
X154283076Y-88500798D01*
X154283079Y-88500792D01*
X154354691Y-88327905D01*
X154354693Y-88327897D01*
X154391199Y-88144371D01*
X154391200Y-88144369D01*
X154391200Y-87957230D01*
X154391199Y-87957228D01*
X154354693Y-87773702D01*
X154354691Y-87773694D01*
X154283079Y-87600807D01*
X154267724Y-87577827D01*
X153924162Y-87921389D01*
X153907125Y-87857807D01*
X153841299Y-87743793D01*
X153748207Y-87650701D01*
X153634193Y-87584875D01*
X153570609Y-87567837D01*
X153914172Y-87224274D01*
X153914171Y-87224273D01*
X153891202Y-87208926D01*
X153891190Y-87208919D01*
X153718305Y-87137308D01*
X153718297Y-87137306D01*
X153534770Y-87100800D01*
X153347630Y-87100800D01*
X153164102Y-87137306D01*
X153164094Y-87137308D01*
X152991205Y-87208921D01*
X152968227Y-87224273D01*
X152968227Y-87224274D01*
X153311791Y-87567837D01*
X153248207Y-87584875D01*
X153134193Y-87650701D01*
X153041101Y-87743793D01*
X152975275Y-87857807D01*
X152958237Y-87921390D01*
X152614674Y-87577827D01*
X152614673Y-87577827D01*
X152599321Y-87600805D01*
X152527708Y-87773694D01*
X152527706Y-87773702D01*
X152491200Y-87957228D01*
X151878700Y-87957228D01*
X151878700Y-87954525D01*
X151841136Y-87765674D01*
X151788596Y-87638830D01*
X151767453Y-87587786D01*
X151767446Y-87587773D01*
X151660474Y-87427680D01*
X151660471Y-87427676D01*
X151524323Y-87291528D01*
X151524319Y-87291525D01*
X151364226Y-87184553D01*
X151364213Y-87184546D01*
X151186332Y-87110866D01*
X151186328Y-87110864D01*
X151186326Y-87110864D01*
X151186322Y-87110863D01*
X151186318Y-87110862D01*
X150997479Y-87073300D01*
X150997475Y-87073300D01*
X150804925Y-87073300D01*
X150804920Y-87073300D01*
X150616081Y-87110862D01*
X150616067Y-87110866D01*
X150438186Y-87184546D01*
X150438173Y-87184553D01*
X150278080Y-87291525D01*
X150278076Y-87291528D01*
X150141928Y-87427676D01*
X150141925Y-87427680D01*
X150034953Y-87587773D01*
X150034946Y-87587786D01*
X149961266Y-87765667D01*
X149961262Y-87765681D01*
X149923700Y-87954520D01*
X149338699Y-87954520D01*
X149301136Y-87765674D01*
X149248596Y-87638830D01*
X149227453Y-87587786D01*
X149227446Y-87587773D01*
X149120474Y-87427680D01*
X149120471Y-87427676D01*
X149099776Y-87406981D01*
X149066291Y-87345658D01*
X149071275Y-87275966D01*
X149113147Y-87220033D01*
X149178611Y-87195616D01*
X149187457Y-87195300D01*
X149751821Y-87195300D01*
X149751823Y-87195300D01*
X149798593Y-87175927D01*
X149845360Y-87156557D01*
X149845361Y-87156555D01*
X149845363Y-87156555D01*
X150515082Y-86486834D01*
X150576403Y-86453351D01*
X150626952Y-86452900D01*
X150804920Y-86488299D01*
X150804924Y-86488300D01*
X150804925Y-86488300D01*
X150997476Y-86488300D01*
X150997477Y-86488299D01*
X151186326Y-86450736D01*
X151364220Y-86377050D01*
X151524320Y-86270074D01*
X151660474Y-86133920D01*
X151767450Y-85973820D01*
X151841136Y-85795926D01*
X151878700Y-85607075D01*
X151878700Y-85414525D01*
X151841136Y-85225674D01*
X151808295Y-85146388D01*
X151767453Y-85047786D01*
X151767446Y-85047773D01*
X151660474Y-84887680D01*
X151660471Y-84887676D01*
X151524323Y-84751528D01*
X151524319Y-84751525D01*
X151364226Y-84644553D01*
X151364213Y-84644546D01*
X151186332Y-84570866D01*
X151186328Y-84570864D01*
X151186326Y-84570864D01*
X151186322Y-84570863D01*
X151186318Y-84570862D01*
X151035771Y-84540917D01*
X150973860Y-84508533D01*
X150939286Y-84447817D01*
X150943025Y-84378047D01*
X150983891Y-84321375D01*
X151048909Y-84295794D01*
X151059962Y-84295300D01*
X152824420Y-84295300D01*
X152853860Y-84303944D01*
X152883847Y-84310468D01*
X152888862Y-84314222D01*
X152891459Y-84314985D01*
X152912101Y-84331619D01*
X153021506Y-84441024D01*
X153054991Y-84502347D01*
X153050007Y-84572039D01*
X153008135Y-84627972D01*
X152981284Y-84643263D01*
X152978188Y-84644545D01*
X152978182Y-84644548D01*
X152818080Y-84751525D01*
X152818076Y-84751528D01*
X152681928Y-84887676D01*
X152681925Y-84887680D01*
X152574953Y-85047773D01*
X152574946Y-85047786D01*
X152501266Y-85225667D01*
X152501262Y-85225681D01*
X152463700Y-85414520D01*
X152463700Y-85607079D01*
X152501262Y-85795918D01*
X152501266Y-85795932D01*
X152574946Y-85973813D01*
X152574953Y-85973826D01*
X152681925Y-86133919D01*
X152681928Y-86133923D01*
X152818076Y-86270071D01*
X152818080Y-86270074D01*
X152978173Y-86377046D01*
X152978186Y-86377053D01*
X153095057Y-86425462D01*
X153156074Y-86450736D01*
X153337565Y-86486836D01*
X153344920Y-86488299D01*
X153344924Y-86488300D01*
X153344925Y-86488300D01*
X153537476Y-86488300D01*
X153537477Y-86488299D01*
X153726326Y-86450736D01*
X153904220Y-86377050D01*
X154064320Y-86270074D01*
X154200474Y-86133920D01*
X154307450Y-85973820D01*
X154381136Y-85795926D01*
X154418700Y-85607075D01*
X154418700Y-85414525D01*
X154381136Y-85225674D01*
X154348295Y-85146388D01*
X154307453Y-85047786D01*
X154307446Y-85047773D01*
X154200474Y-84887680D01*
X154200471Y-84887676D01*
X154064323Y-84751528D01*
X154064319Y-84751525D01*
X153904226Y-84644553D01*
X153904217Y-84644548D01*
X153772247Y-84589885D01*
X153717844Y-84546044D01*
X153695779Y-84479750D01*
X153695700Y-84475324D01*
X153695700Y-84450178D01*
X153695698Y-84450173D01*
X153692684Y-84442897D01*
X153680299Y-84412994D01*
X153656957Y-84356639D01*
X153578298Y-84277980D01*
X153578291Y-84277974D01*
X153125362Y-83825044D01*
X153125360Y-83825042D01*
X153031826Y-83786301D01*
X153031824Y-83786300D01*
X153031823Y-83786300D01*
X146640577Y-83786300D01*
X146640575Y-83786300D01*
X146640573Y-83786301D01*
X146547039Y-83825042D01*
X146547037Y-83825044D01*
X146475444Y-83896638D01*
X145839596Y-84532485D01*
X145839595Y-84532485D01*
X145839596Y-84532486D01*
X145785442Y-84586639D01*
X145746701Y-84680173D01*
X145746700Y-84680178D01*
X145746700Y-86514019D01*
X145727015Y-86581058D01*
X145710381Y-86601700D01*
X145257381Y-87054700D01*
X145196058Y-87088185D01*
X145126366Y-87083201D01*
X145070433Y-87041329D01*
X145046016Y-86975865D01*
X145045700Y-86967019D01*
X145045700Y-82135579D01*
X145065385Y-82068540D01*
X145082015Y-82047902D01*
X145980300Y-81149616D01*
X146041621Y-81116133D01*
X146067969Y-81113299D01*
X147357026Y-81113299D01*
X147430404Y-81102609D01*
X147543590Y-81047276D01*
X147632676Y-80958190D01*
X147688009Y-80845004D01*
X147698700Y-80771627D01*
X147698700Y-80211339D01*
X148271199Y-80211339D01*
X148308475Y-80398732D01*
X148308477Y-80398738D01*
X148381597Y-80575265D01*
X148487753Y-80734141D01*
X148622858Y-80869246D01*
X148781736Y-80975404D01*
X148958256Y-81048520D01*
X148958263Y-81048522D01*
X148991200Y-81055073D01*
X148991200Y-80433509D01*
X149011539Y-80445252D01*
X149162867Y-80485800D01*
X149319533Y-80485800D01*
X149470861Y-80445252D01*
X149491200Y-80433509D01*
X149491200Y-81055073D01*
X149524136Y-81048522D01*
X149524143Y-81048520D01*
X149700663Y-80975404D01*
X149859541Y-80869246D01*
X149994646Y-80734141D01*
X150100802Y-80575265D01*
X150173922Y-80398738D01*
X150173924Y-80398732D01*
X150211200Y-80211339D01*
X150211200Y-80140800D01*
X149783909Y-80140800D01*
X149795652Y-80120461D01*
X149836200Y-79969133D01*
X149836200Y-79812467D01*
X149795652Y-79661139D01*
X149783909Y-79640800D01*
X150211200Y-79640800D01*
X150211200Y-79570260D01*
X150173924Y-79382867D01*
X150173922Y-79382861D01*
X150100802Y-79206334D01*
X149994646Y-79047458D01*
X149859541Y-78912353D01*
X149700665Y-78806197D01*
X149524136Y-78733076D01*
X149524131Y-78733074D01*
X149491200Y-78726524D01*
X149491200Y-79348090D01*
X149470861Y-79336348D01*
X149319533Y-79295800D01*
X149162867Y-79295800D01*
X149011539Y-79336348D01*
X148991200Y-79348090D01*
X148991200Y-78726525D01*
X148991199Y-78726524D01*
X148958268Y-78733074D01*
X148958263Y-78733076D01*
X148781734Y-78806197D01*
X148622858Y-78912353D01*
X148487753Y-79047458D01*
X148381597Y-79206334D01*
X148308477Y-79382861D01*
X148308475Y-79382867D01*
X148271200Y-79570260D01*
X148271200Y-79640800D01*
X148698491Y-79640800D01*
X148686748Y-79661139D01*
X148646200Y-79812467D01*
X148646200Y-79969133D01*
X148686748Y-80120461D01*
X148698491Y-80140800D01*
X148271200Y-80140800D01*
X148271200Y-80211339D01*
X148271199Y-80211339D01*
X147698700Y-80211339D01*
X147698699Y-79009974D01*
X147688009Y-78936596D01*
X147632676Y-78823410D01*
X147632674Y-78823408D01*
X147632674Y-78823407D01*
X147543592Y-78734325D01*
X147430402Y-78678990D01*
X147357027Y-78668300D01*
X146045374Y-78668300D01*
X145971995Y-78678991D01*
X145858807Y-78734325D01*
X145769725Y-78823407D01*
X145714391Y-78936596D01*
X145703700Y-79009972D01*
X145703700Y-80655019D01*
X145684015Y-80722058D01*
X145667381Y-80742700D01*
X144647037Y-81763045D01*
X144575444Y-81834637D01*
X144575442Y-81834639D01*
X144536701Y-81928173D01*
X144536700Y-81928178D01*
X144536700Y-86884019D01*
X144517015Y-86951058D01*
X144500381Y-86971700D01*
X144272881Y-87199200D01*
X144211558Y-87232685D01*
X144141866Y-87227701D01*
X144085933Y-87185829D01*
X144061516Y-87120365D01*
X144061200Y-87111519D01*
X144061200Y-87040800D01*
X143633909Y-87040800D01*
X143645652Y-87020461D01*
X143686200Y-86869133D01*
X143686200Y-86712467D01*
X143645652Y-86561139D01*
X143633909Y-86540800D01*
X144061200Y-86540800D01*
X144061200Y-86470260D01*
X144023924Y-86282867D01*
X144023922Y-86282861D01*
X143950802Y-86106334D01*
X143844646Y-85947458D01*
X143709541Y-85812353D01*
X143550665Y-85706197D01*
X143374136Y-85633076D01*
X143374131Y-85633074D01*
X143341200Y-85626524D01*
X143341200Y-86248090D01*
X143320861Y-86236348D01*
X143169533Y-86195800D01*
X143012867Y-86195800D01*
X142861539Y-86236348D01*
X142841200Y-86248090D01*
X142841200Y-85626525D01*
X142841199Y-85626524D01*
X142808268Y-85633074D01*
X142808263Y-85633076D01*
X142631734Y-85706197D01*
X142472858Y-85812353D01*
X142337753Y-85947458D01*
X142231597Y-86106334D01*
X142158477Y-86282861D01*
X142158475Y-86282867D01*
X142121200Y-86470260D01*
X142121200Y-86540800D01*
X142548491Y-86540800D01*
X142536748Y-86561139D01*
X142496200Y-86712467D01*
X142496200Y-86869133D01*
X142536748Y-87020461D01*
X142548491Y-87040800D01*
X142121200Y-87040800D01*
X142121200Y-87111339D01*
X142121199Y-87111339D01*
X142158475Y-87298732D01*
X142158477Y-87298738D01*
X142231597Y-87475265D01*
X142337753Y-87634141D01*
X142472858Y-87769246D01*
X142631736Y-87875404D01*
X142808256Y-87948520D01*
X142808263Y-87948522D01*
X142841200Y-87955073D01*
X142841200Y-87333509D01*
X142861539Y-87345252D01*
X143012867Y-87385800D01*
X143169533Y-87385800D01*
X143320861Y-87345252D01*
X143341200Y-87333509D01*
X143341200Y-87961027D01*
X143371338Y-88005275D01*
X143373207Y-88075120D01*
X143341019Y-88131061D01*
X137966181Y-93505900D01*
X137904858Y-93539385D01*
X137835166Y-93534401D01*
X137779233Y-93492529D01*
X137754816Y-93427065D01*
X137754500Y-93418219D01*
X137754500Y-93158778D01*
X137774185Y-93091739D01*
X137790814Y-93071102D01*
X139937921Y-90923994D01*
X139937924Y-90923993D01*
X139955362Y-90906555D01*
X139955363Y-90906555D01*
X140026955Y-90834963D01*
X140026955Y-90834961D01*
X140026957Y-90834960D01*
X140050448Y-90778244D01*
X140065700Y-90741423D01*
X140065700Y-88607579D01*
X140085385Y-88540540D01*
X140102015Y-88519902D01*
X140572299Y-88049617D01*
X140633622Y-88016133D01*
X140659980Y-88013299D01*
X141207026Y-88013299D01*
X141280404Y-88002609D01*
X141393590Y-87947276D01*
X141482676Y-87858190D01*
X141538009Y-87745004D01*
X141548700Y-87671627D01*
X141548699Y-85909974D01*
X141538009Y-85836596D01*
X141482676Y-85723410D01*
X141482674Y-85723408D01*
X141482674Y-85723407D01*
X141393592Y-85634325D01*
X141280402Y-85578990D01*
X141207027Y-85568300D01*
X139895374Y-85568300D01*
X139821995Y-85578991D01*
X139708807Y-85634325D01*
X139619725Y-85723407D01*
X139564391Y-85836596D01*
X139553700Y-85909972D01*
X139553700Y-87671625D01*
X139564391Y-87745004D01*
X139619725Y-87858192D01*
X139708809Y-87947276D01*
X139718004Y-87951771D01*
X139739496Y-87971407D01*
X139762812Y-87988860D01*
X139764989Y-87994697D01*
X139769587Y-87998898D01*
X139777052Y-88027037D01*
X139787230Y-88054324D01*
X139785905Y-88060411D01*
X139787503Y-88066431D01*
X139778568Y-88094141D01*
X139772379Y-88122598D01*
X139767136Y-88129601D01*
X139766063Y-88132930D01*
X139751228Y-88150852D01*
X139667038Y-88235044D01*
X139667037Y-88235045D01*
X139595444Y-88306637D01*
X139595442Y-88306639D01*
X139556701Y-88400173D01*
X139556700Y-88400178D01*
X139556700Y-90534019D01*
X139537015Y-90601058D01*
X139520381Y-90621700D01*
X137338395Y-92803685D01*
X137338396Y-92803686D01*
X137284242Y-92857839D01*
X137245501Y-92951373D01*
X137245500Y-92951378D01*
X137245500Y-111052220D01*
X137225815Y-111119259D01*
X137209181Y-111139901D01*
X134444901Y-113904181D01*
X134383578Y-113937666D01*
X134357220Y-113940500D01*
X129498610Y-113940500D01*
X129431571Y-113920815D01*
X129410929Y-113904181D01*
X129361265Y-113854517D01*
X129361263Y-113854515D01*
X129264237Y-113798497D01*
X129156018Y-113769500D01*
X129043982Y-113769500D01*
X128935763Y-113798497D01*
X128935760Y-113798498D01*
X128838740Y-113854513D01*
X128838734Y-113854517D01*
X128759517Y-113933734D01*
X128759513Y-113933740D01*
X128703498Y-114030760D01*
X128703497Y-114030763D01*
X128674500Y-114138982D01*
X128674500Y-114251018D01*
X128703497Y-114359237D01*
X128759515Y-114456263D01*
X128838737Y-114535485D01*
X128935763Y-114591503D01*
X129043982Y-114620500D01*
X129043984Y-114620500D01*
X129156016Y-114620500D01*
X129156018Y-114620500D01*
X129264237Y-114591503D01*
X129361263Y-114535485D01*
X129410929Y-114485819D01*
X129472252Y-114452334D01*
X129498610Y-114449500D01*
X134564621Y-114449500D01*
X134564623Y-114449500D01*
X134611393Y-114430127D01*
X134658160Y-114410757D01*
X134658161Y-114410755D01*
X134658163Y-114410755D01*
X137487819Y-111581099D01*
X137549142Y-111547614D01*
X137618834Y-111552598D01*
X137674767Y-111594470D01*
X137699184Y-111659934D01*
X137699500Y-111668780D01*
X137699500Y-111989220D01*
X137679815Y-112056259D01*
X137663181Y-112076901D01*
X134565901Y-115174181D01*
X134504578Y-115207666D01*
X134478220Y-115210500D01*
X129598610Y-115210500D01*
X129531571Y-115190815D01*
X129510929Y-115174181D01*
X129461265Y-115124517D01*
X129461263Y-115124515D01*
X129364237Y-115068497D01*
X129256018Y-115039500D01*
X129143982Y-115039500D01*
X129035763Y-115068497D01*
X129035760Y-115068498D01*
X128938740Y-115124513D01*
X128938734Y-115124517D01*
X128859517Y-115203734D01*
X128859513Y-115203740D01*
X128803498Y-115300760D01*
X128803497Y-115300763D01*
X128774500Y-115408982D01*
X128774500Y-115521018D01*
X128803497Y-115629237D01*
X128859515Y-115726263D01*
X128938737Y-115805485D01*
X129035763Y-115861503D01*
X129143982Y-115890500D01*
X129143984Y-115890500D01*
X129256016Y-115890500D01*
X129256018Y-115890500D01*
X129364237Y-115861503D01*
X129461263Y-115805485D01*
X129510929Y-115755819D01*
X129572252Y-115722334D01*
X129598610Y-115719500D01*
X134685621Y-115719500D01*
X134685623Y-115719500D01*
X134732393Y-115700127D01*
X134779160Y-115680757D01*
X134779161Y-115680755D01*
X134779163Y-115680755D01*
X137941819Y-112518099D01*
X138003142Y-112484614D01*
X138072834Y-112489598D01*
X138128767Y-112531470D01*
X138153184Y-112596934D01*
X138153500Y-112605780D01*
X138153500Y-113617220D01*
X138133815Y-113684259D01*
X138117181Y-113704901D01*
X135377901Y-116444181D01*
X135316578Y-116477666D01*
X135290220Y-116480500D01*
X129598610Y-116480500D01*
X129531571Y-116460815D01*
X129510929Y-116444181D01*
X129461265Y-116394517D01*
X129461263Y-116394515D01*
X129364237Y-116338497D01*
X129256018Y-116309500D01*
X129143982Y-116309500D01*
X129035763Y-116338497D01*
X129035760Y-116338498D01*
X128938740Y-116394513D01*
X128938734Y-116394517D01*
X128859517Y-116473734D01*
X128859513Y-116473740D01*
X128803498Y-116570760D01*
X128803497Y-116570763D01*
X128774500Y-116678982D01*
X128774500Y-116791018D01*
X128803497Y-116899237D01*
X128859515Y-116996263D01*
X128938737Y-117075485D01*
X129035763Y-117131503D01*
X129143982Y-117160500D01*
X129143984Y-117160500D01*
X129256016Y-117160500D01*
X129256018Y-117160500D01*
X129364237Y-117131503D01*
X129461263Y-117075485D01*
X129510929Y-117025819D01*
X129572252Y-116992334D01*
X129598610Y-116989500D01*
X131016049Y-116989500D01*
X131083088Y-117009185D01*
X131128843Y-117061989D01*
X131138787Y-117131147D01*
X131109762Y-117194703D01*
X131103730Y-117201181D01*
X130652930Y-117651981D01*
X130591607Y-117685466D01*
X130565249Y-117688300D01*
X129521811Y-117688300D01*
X129454772Y-117668615D01*
X129434131Y-117651982D01*
X129382466Y-117600318D01*
X129382465Y-117600317D01*
X129382463Y-117600315D01*
X129285437Y-117544297D01*
X129177218Y-117515300D01*
X129065182Y-117515300D01*
X128956963Y-117544297D01*
X128956960Y-117544298D01*
X128859940Y-117600313D01*
X128859934Y-117600317D01*
X128780717Y-117679534D01*
X128780713Y-117679540D01*
X128724698Y-117776560D01*
X128724697Y-117776563D01*
X128695700Y-117884782D01*
X128695700Y-117996818D01*
X128717066Y-118076555D01*
X128724697Y-118105036D01*
X128724698Y-118105039D01*
X128743369Y-118137379D01*
X128780715Y-118202063D01*
X128859937Y-118281285D01*
X128956963Y-118337303D01*
X129065182Y-118366300D01*
X129065184Y-118366300D01*
X129177216Y-118366300D01*
X129177218Y-118366300D01*
X129285437Y-118337303D01*
X129382463Y-118281285D01*
X129419620Y-118244128D01*
X129434131Y-118229618D01*
X129495454Y-118196134D01*
X129521811Y-118193300D01*
X130771423Y-118193300D01*
X130771425Y-118193300D01*
X130864230Y-118154859D01*
X131409470Y-117609619D01*
X131470793Y-117576134D01*
X131497151Y-117573300D01*
X131785429Y-117573300D01*
X131852468Y-117592985D01*
X131898223Y-117645789D01*
X131908167Y-117714947D01*
X131905204Y-117729393D01*
X131903497Y-117735762D01*
X131903497Y-117735763D01*
X131874500Y-117843982D01*
X131874500Y-117956018D01*
X131903497Y-118064237D01*
X131959515Y-118161263D01*
X132038737Y-118240485D01*
X132135763Y-118296503D01*
X132243982Y-118325500D01*
X132243984Y-118325500D01*
X132356016Y-118325500D01*
X132356018Y-118325500D01*
X132464237Y-118296503D01*
X132561263Y-118240485D01*
X132640485Y-118161263D01*
X132640485Y-118161262D01*
X132646232Y-118155516D01*
X132647777Y-118157061D01*
X132694950Y-118122613D01*
X132736903Y-118115300D01*
X137081821Y-118115300D01*
X137081823Y-118115300D01*
X137128593Y-118095927D01*
X137175360Y-118076557D01*
X137175361Y-118076555D01*
X137175363Y-118076555D01*
X139715361Y-115536555D01*
X139715363Y-115536555D01*
X139786955Y-115464963D01*
X139786955Y-115464961D01*
X139787020Y-115464897D01*
X139848344Y-115431413D01*
X139888174Y-115434262D01*
X139918034Y-115436398D01*
X139918035Y-115436398D01*
X139918036Y-115436399D01*
X139973968Y-115478271D01*
X139985118Y-115508167D01*
X139998384Y-115543734D01*
X139998700Y-115552580D01*
X139998700Y-116841026D01*
X140037141Y-116933830D01*
X140621536Y-117518225D01*
X140655021Y-117579548D01*
X140650037Y-117649240D01*
X140641242Y-117667906D01*
X140624698Y-117696560D01*
X140624697Y-117696563D01*
X140595700Y-117804782D01*
X140595700Y-117916818D01*
X140624697Y-118025037D01*
X140680715Y-118122063D01*
X140759937Y-118201285D01*
X140856963Y-118257303D01*
X140965182Y-118286300D01*
X140965184Y-118286300D01*
X141077216Y-118286300D01*
X141077218Y-118286300D01*
X141185437Y-118257303D01*
X141282463Y-118201285D01*
X141361685Y-118122063D01*
X141417703Y-118025037D01*
X141446700Y-117916818D01*
X141446700Y-117804782D01*
X141420736Y-117707882D01*
X141422399Y-117638035D01*
X141461562Y-117580172D01*
X141525790Y-117552668D01*
X141594692Y-117564254D01*
X141628192Y-117588110D01*
X141838181Y-117798099D01*
X141871666Y-117859422D01*
X141874500Y-117885780D01*
X141874500Y-117956018D01*
X141903497Y-118064237D01*
X141959515Y-118161263D01*
X142038737Y-118240485D01*
X142135763Y-118296503D01*
X142243982Y-118325500D01*
X142243984Y-118325500D01*
X142356016Y-118325500D01*
X142356018Y-118325500D01*
X142464237Y-118296503D01*
X142561263Y-118240485D01*
X142640485Y-118161263D01*
X142696503Y-118064237D01*
X142725500Y-117956018D01*
X142725500Y-117843982D01*
X142696503Y-117735763D01*
X142640485Y-117638737D01*
X142561263Y-117559515D01*
X142484680Y-117515300D01*
X142464239Y-117503498D01*
X142464238Y-117503497D01*
X142464237Y-117503497D01*
X142356018Y-117474500D01*
X142285780Y-117474500D01*
X142218741Y-117454815D01*
X142198099Y-117438181D01*
X141961099Y-117201181D01*
X141927614Y-117139858D01*
X141932598Y-117070166D01*
X141974470Y-117014233D01*
X142039934Y-116989816D01*
X142048780Y-116989500D01*
X143701390Y-116989500D01*
X143768429Y-117009185D01*
X143789071Y-117025819D01*
X143838737Y-117075485D01*
X143935763Y-117131503D01*
X144043982Y-117160500D01*
X144043984Y-117160500D01*
X144156016Y-117160500D01*
X144156018Y-117160500D01*
X144264237Y-117131503D01*
X144361263Y-117075485D01*
X144440485Y-116996263D01*
X144496503Y-116899237D01*
X144525500Y-116791018D01*
X144525500Y-116678982D01*
X144496503Y-116570763D01*
X144440485Y-116473737D01*
X144361263Y-116394515D01*
X144264237Y-116338497D01*
X144156018Y-116309500D01*
X144043982Y-116309500D01*
X143935763Y-116338497D01*
X143935760Y-116338498D01*
X143838740Y-116394513D01*
X143838734Y-116394517D01*
X143789071Y-116444181D01*
X143727748Y-116477666D01*
X143701390Y-116480500D01*
X141991779Y-116480500D01*
X141924740Y-116460815D01*
X141904098Y-116444181D01*
X141642019Y-116182101D01*
X141608534Y-116120778D01*
X141605700Y-116094420D01*
X141605700Y-115244580D01*
X141625385Y-115177541D01*
X141678189Y-115131786D01*
X141747347Y-115121842D01*
X141810903Y-115150867D01*
X141817381Y-115156899D01*
X142337037Y-115676555D01*
X142430577Y-115715301D01*
X142430578Y-115715301D01*
X142546257Y-115715301D01*
X142546265Y-115715300D01*
X143797189Y-115715300D01*
X143864228Y-115734985D01*
X143884870Y-115751618D01*
X143938737Y-115805485D01*
X144035763Y-115861503D01*
X144143982Y-115890500D01*
X144143984Y-115890500D01*
X144256016Y-115890500D01*
X144256018Y-115890500D01*
X144364237Y-115861503D01*
X144461263Y-115805485D01*
X144540485Y-115726263D01*
X144596503Y-115629237D01*
X144625500Y-115521018D01*
X144625500Y-115408982D01*
X144596503Y-115300763D01*
X144540485Y-115203737D01*
X144461263Y-115124515D01*
X144364237Y-115068497D01*
X144256018Y-115039500D01*
X144143982Y-115039500D01*
X144035763Y-115068497D01*
X144035760Y-115068498D01*
X143938740Y-115124513D01*
X143938733Y-115124518D01*
X143893269Y-115169982D01*
X143831946Y-115203466D01*
X143805589Y-115206300D01*
X142637980Y-115206300D01*
X142570941Y-115186615D01*
X142550299Y-115169981D01*
X142042019Y-114661701D01*
X142008534Y-114600378D01*
X142005700Y-114574020D01*
X142005700Y-114194580D01*
X142025385Y-114127541D01*
X142078189Y-114081786D01*
X142147347Y-114071842D01*
X142210903Y-114100867D01*
X142217381Y-114106899D01*
X142626237Y-114515755D01*
X142719777Y-114554501D01*
X142719778Y-114554501D01*
X142835457Y-114554501D01*
X142835465Y-114554500D01*
X143701390Y-114554500D01*
X143768429Y-114574185D01*
X143789071Y-114590819D01*
X143838737Y-114640485D01*
X143935763Y-114696503D01*
X144043982Y-114725500D01*
X144043984Y-114725500D01*
X144156016Y-114725500D01*
X144156018Y-114725500D01*
X144264237Y-114696503D01*
X144361263Y-114640485D01*
X144440485Y-114561263D01*
X144496503Y-114464237D01*
X144525500Y-114356018D01*
X144525500Y-114243982D01*
X144496503Y-114135763D01*
X144440485Y-114038737D01*
X144361263Y-113959515D01*
X144264237Y-113903497D01*
X144156018Y-113874500D01*
X144043982Y-113874500D01*
X143935763Y-113903497D01*
X143935760Y-113903498D01*
X143838740Y-113959513D01*
X143838734Y-113959517D01*
X143789071Y-114009181D01*
X143727748Y-114042666D01*
X143701390Y-114045500D01*
X142927180Y-114045500D01*
X142860141Y-114025815D01*
X142839499Y-114009181D01*
X142440018Y-113609700D01*
X142406533Y-113548377D01*
X142403699Y-113522019D01*
X142403699Y-113162979D01*
X142423384Y-113095940D01*
X142476188Y-113050185D01*
X142545346Y-113040241D01*
X142608902Y-113069266D01*
X142615380Y-113075298D01*
X142680839Y-113140757D01*
X142753182Y-113170721D01*
X142774377Y-113179500D01*
X142875623Y-113179500D01*
X143701390Y-113179500D01*
X143768429Y-113199185D01*
X143789071Y-113215819D01*
X143838737Y-113265485D01*
X143935763Y-113321503D01*
X144043982Y-113350500D01*
X144043984Y-113350500D01*
X144156016Y-113350500D01*
X144156018Y-113350500D01*
X144264237Y-113321503D01*
X144361263Y-113265485D01*
X144440485Y-113186263D01*
X144496503Y-113089237D01*
X144525500Y-112981018D01*
X144525500Y-112868982D01*
X144496503Y-112760763D01*
X144440485Y-112663737D01*
X144361263Y-112584515D01*
X144277991Y-112536438D01*
X144264239Y-112528498D01*
X144264238Y-112528497D01*
X144264237Y-112528497D01*
X144156018Y-112499500D01*
X144043982Y-112499500D01*
X143935763Y-112528497D01*
X143935760Y-112528498D01*
X143838740Y-112584513D01*
X143838734Y-112584517D01*
X143789071Y-112634181D01*
X143727748Y-112667666D01*
X143701390Y-112670500D01*
X142981780Y-112670500D01*
X142952339Y-112661855D01*
X142922353Y-112655332D01*
X142917337Y-112651577D01*
X142914741Y-112650815D01*
X142894099Y-112634181D01*
X142822019Y-112562101D01*
X142788534Y-112500778D01*
X142785700Y-112474420D01*
X142785700Y-111844979D01*
X142805385Y-111777940D01*
X142858189Y-111732185D01*
X142927347Y-111722241D01*
X142990903Y-111751266D01*
X142997381Y-111757298D01*
X143032174Y-111792091D01*
X143032177Y-111792095D01*
X143110839Y-111870757D01*
X143183182Y-111900721D01*
X143204377Y-111909500D01*
X143305623Y-111909500D01*
X143701390Y-111909500D01*
X143768429Y-111929185D01*
X143789071Y-111945819D01*
X143838737Y-111995485D01*
X143935763Y-112051503D01*
X144043982Y-112080500D01*
X144043984Y-112080500D01*
X144156016Y-112080500D01*
X144156018Y-112080500D01*
X144264237Y-112051503D01*
X144361263Y-111995485D01*
X144440485Y-111916263D01*
X144496503Y-111819237D01*
X144525500Y-111711018D01*
X144525500Y-111598982D01*
X144496503Y-111490763D01*
X144440485Y-111393737D01*
X144361263Y-111314515D01*
X144264237Y-111258497D01*
X144156018Y-111229500D01*
X144043982Y-111229500D01*
X143935763Y-111258497D01*
X143935760Y-111258498D01*
X143838740Y-111314513D01*
X143838734Y-111314517D01*
X143789071Y-111364181D01*
X143727748Y-111397666D01*
X143701390Y-111400500D01*
X143411780Y-111400500D01*
X143382340Y-111391855D01*
X143352353Y-111385332D01*
X143347337Y-111381577D01*
X143344741Y-111380815D01*
X143324098Y-111364181D01*
X143232018Y-111272100D01*
X143198534Y-111210776D01*
X143195700Y-111184419D01*
X143195700Y-110504580D01*
X143215385Y-110437541D01*
X143268189Y-110391786D01*
X143337347Y-110381842D01*
X143400903Y-110410867D01*
X143407381Y-110416899D01*
X143591237Y-110600755D01*
X143684777Y-110639501D01*
X143701391Y-110639501D01*
X143768430Y-110659186D01*
X143789071Y-110675819D01*
X143838737Y-110725485D01*
X143935763Y-110781503D01*
X144043982Y-110810500D01*
X144043984Y-110810500D01*
X144156016Y-110810500D01*
X144156018Y-110810500D01*
X144264237Y-110781503D01*
X144361263Y-110725485D01*
X144440485Y-110646263D01*
X144496503Y-110549237D01*
X144525500Y-110441018D01*
X144525500Y-110328982D01*
X144496503Y-110220763D01*
X144440485Y-110123737D01*
X144361263Y-110044515D01*
X144276888Y-109995801D01*
X144264239Y-109988498D01*
X144264238Y-109988497D01*
X144264237Y-109988497D01*
X144156018Y-109959500D01*
X144043982Y-109959500D01*
X143935763Y-109988497D01*
X143935762Y-109988497D01*
X143867943Y-110027652D01*
X143840880Y-110034216D01*
X143814790Y-110043948D01*
X143807395Y-110042339D01*
X143800042Y-110044123D01*
X143773730Y-110035015D01*
X143746517Y-110029096D01*
X143737823Y-110022587D01*
X143734016Y-110021270D01*
X143718263Y-110007945D01*
X143712019Y-110001701D01*
X143678534Y-109940378D01*
X143675700Y-109914020D01*
X143675700Y-108176810D01*
X143695385Y-108109771D01*
X143748189Y-108064016D01*
X143817347Y-108054072D01*
X143880903Y-108083097D01*
X143887381Y-108089129D01*
X143938737Y-108140485D01*
X144035763Y-108196503D01*
X144143982Y-108225500D01*
X144143984Y-108225500D01*
X144256016Y-108225500D01*
X144256018Y-108225500D01*
X144364237Y-108196503D01*
X144461263Y-108140485D01*
X144540485Y-108061263D01*
X144596503Y-107964237D01*
X144625500Y-107856018D01*
X144625500Y-107743982D01*
X144596503Y-107635763D01*
X144540485Y-107538737D01*
X144461263Y-107459515D01*
X144364237Y-107403497D01*
X144256018Y-107374500D01*
X144256017Y-107374500D01*
X144248168Y-107372397D01*
X144249052Y-107369094D01*
X144199594Y-107347201D01*
X144161138Y-107288866D01*
X144155700Y-107252548D01*
X144155700Y-104297125D01*
X144155700Y-104282685D01*
X144155701Y-104282684D01*
X144155701Y-104207579D01*
X144175386Y-104140539D01*
X144228191Y-104094785D01*
X144287405Y-104086271D01*
X144297348Y-104084842D01*
X144297349Y-104084842D01*
X144324192Y-104097101D01*
X144360904Y-104113867D01*
X144367382Y-104119899D01*
X144465374Y-104217891D01*
X144465377Y-104217895D01*
X144544039Y-104296557D01*
X144616382Y-104326521D01*
X144637577Y-104335300D01*
X144738823Y-104335300D01*
X144992190Y-104335300D01*
X145059229Y-104354985D01*
X145079871Y-104371619D01*
X145083737Y-104375485D01*
X145180763Y-104431503D01*
X145288982Y-104460500D01*
X145288984Y-104460500D01*
X145401016Y-104460500D01*
X145401018Y-104460500D01*
X145509237Y-104431503D01*
X145606263Y-104375485D01*
X145685485Y-104296263D01*
X145741503Y-104199237D01*
X145770500Y-104091018D01*
X145770500Y-103978982D01*
X145741503Y-103870763D01*
X145685485Y-103773737D01*
X145606263Y-103694515D01*
X145509237Y-103638497D01*
X145401018Y-103609500D01*
X145288982Y-103609500D01*
X145180763Y-103638497D01*
X145180760Y-103638498D01*
X145083740Y-103694513D01*
X145083734Y-103694517D01*
X145004516Y-103773735D01*
X145001406Y-103777789D01*
X144998328Y-103780036D01*
X144996745Y-103783503D01*
X144970330Y-103800478D01*
X144944977Y-103818990D01*
X144940241Y-103819815D01*
X144937967Y-103821277D01*
X144903032Y-103826300D01*
X144844979Y-103826300D01*
X144777940Y-103806615D01*
X144757303Y-103789985D01*
X144612016Y-103644699D01*
X144578534Y-103583378D01*
X144575700Y-103557020D01*
X144575700Y-98335579D01*
X144595385Y-98268540D01*
X144612019Y-98247898D01*
X145669098Y-97190819D01*
X145730421Y-97157334D01*
X145756779Y-97154500D01*
X149962634Y-97154500D01*
X150029673Y-97174185D01*
X150075428Y-97226989D01*
X150085372Y-97296147D01*
X150056347Y-97359703D01*
X150050315Y-97366181D01*
X149922089Y-97494406D01*
X149922086Y-97494410D01*
X149818124Y-97649999D01*
X149818119Y-97650008D01*
X149746507Y-97822896D01*
X149746506Y-97822899D01*
X149741115Y-97849999D01*
X149741116Y-97850000D01*
X150226988Y-97850000D01*
X150194075Y-97907007D01*
X150160000Y-98034174D01*
X150160000Y-98165826D01*
X150194075Y-98292993D01*
X150226988Y-98350000D01*
X149741116Y-98350000D01*
X149746506Y-98377100D01*
X149746507Y-98377103D01*
X149818119Y-98549991D01*
X149818124Y-98550000D01*
X149922086Y-98705589D01*
X149922089Y-98705593D01*
X150054406Y-98837910D01*
X150054410Y-98837913D01*
X150209999Y-98941875D01*
X150210012Y-98941882D01*
X150382889Y-99013489D01*
X150382896Y-99013491D01*
X150410000Y-99018882D01*
X150410000Y-98533012D01*
X150467007Y-98565925D01*
X150594174Y-98600000D01*
X150725826Y-98600000D01*
X150852993Y-98565925D01*
X150910000Y-98533012D01*
X150910000Y-99018881D01*
X150937103Y-99013491D01*
X150937110Y-99013489D01*
X151109987Y-98941882D01*
X151110000Y-98941875D01*
X151265589Y-98837913D01*
X151265593Y-98837910D01*
X151397910Y-98705593D01*
X151397913Y-98705589D01*
X151501875Y-98550000D01*
X151501880Y-98549991D01*
X151573492Y-98377103D01*
X151573493Y-98377100D01*
X151578884Y-98350000D01*
X151093012Y-98350000D01*
X151125925Y-98292993D01*
X151160000Y-98165826D01*
X151160000Y-98034174D01*
X151151840Y-98003720D01*
X152222500Y-98003720D01*
X152222500Y-98196279D01*
X152260062Y-98385118D01*
X152260066Y-98385132D01*
X152333746Y-98563013D01*
X152333753Y-98563026D01*
X152440725Y-98723119D01*
X152440728Y-98723123D01*
X152576876Y-98859271D01*
X152576880Y-98859274D01*
X152736973Y-98966246D01*
X152736986Y-98966253D01*
X152864045Y-99018882D01*
X152914874Y-99039936D01*
X153103720Y-99077499D01*
X153103724Y-99077500D01*
X153103725Y-99077500D01*
X153296276Y-99077500D01*
X153296277Y-99077499D01*
X153485126Y-99039936D01*
X153663020Y-98966250D01*
X153823120Y-98859274D01*
X153959274Y-98723120D01*
X154066250Y-98563020D01*
X154139936Y-98385126D01*
X154177500Y-98196275D01*
X154177500Y-98003725D01*
X154139936Y-97814874D01*
X154127896Y-97785806D01*
X154066253Y-97636986D01*
X154066246Y-97636973D01*
X153959274Y-97476880D01*
X153959271Y-97476876D01*
X153823123Y-97340728D01*
X153823119Y-97340725D01*
X153663026Y-97233753D01*
X153663013Y-97233746D01*
X153485132Y-97160066D01*
X153485128Y-97160064D01*
X153485126Y-97160064D01*
X153485122Y-97160063D01*
X153485118Y-97160062D01*
X153296279Y-97122500D01*
X153296275Y-97122500D01*
X153103725Y-97122500D01*
X153103720Y-97122500D01*
X152914881Y-97160062D01*
X152914867Y-97160066D01*
X152736986Y-97233746D01*
X152736973Y-97233753D01*
X152576880Y-97340725D01*
X152576876Y-97340728D01*
X152440728Y-97476876D01*
X152440725Y-97476880D01*
X152333753Y-97636973D01*
X152333746Y-97636986D01*
X152260066Y-97814867D01*
X152260062Y-97814881D01*
X152222500Y-98003720D01*
X151151840Y-98003720D01*
X151125925Y-97907007D01*
X151093012Y-97850000D01*
X151578884Y-97850000D01*
X151578884Y-97849999D01*
X151573493Y-97822899D01*
X151573492Y-97822896D01*
X151501880Y-97650008D01*
X151501875Y-97649999D01*
X151397913Y-97494410D01*
X151397910Y-97494406D01*
X151269685Y-97366181D01*
X151236200Y-97304858D01*
X151241184Y-97235166D01*
X151283056Y-97179233D01*
X151348520Y-97154816D01*
X151357366Y-97154500D01*
X152010621Y-97154500D01*
X152010623Y-97154500D01*
X152057393Y-97135127D01*
X152104160Y-97115757D01*
X152104161Y-97115755D01*
X152104163Y-97115755D01*
X152646099Y-96573819D01*
X152707422Y-96540334D01*
X152733780Y-96537500D01*
X154062559Y-96537500D01*
X154069957Y-96536028D01*
X154099748Y-96530102D01*
X154141922Y-96501922D01*
X154170102Y-96459748D01*
X154177500Y-96422558D01*
X154177500Y-94697442D01*
X154170102Y-94660252D01*
X154170101Y-94660250D01*
X154141922Y-94618077D01*
X154099749Y-94589898D01*
X154062559Y-94582500D01*
X154062558Y-94582500D01*
X152337442Y-94582500D01*
X152337441Y-94582500D01*
X152300250Y-94589898D01*
X152258077Y-94618077D01*
X152229898Y-94660250D01*
X152222500Y-94697441D01*
X152222500Y-96226220D01*
X152202815Y-96293259D01*
X152186181Y-96313901D01*
X151890901Y-96609181D01*
X151829578Y-96642666D01*
X151803220Y-96645500D01*
X151203663Y-96645500D01*
X151136624Y-96625815D01*
X151090869Y-96573011D01*
X151080925Y-96503853D01*
X151109950Y-96440297D01*
X151134772Y-96418398D01*
X151196743Y-96376989D01*
X151283120Y-96319274D01*
X151419274Y-96183120D01*
X151526250Y-96023020D01*
X151599936Y-95845126D01*
X151637500Y-95656275D01*
X151637500Y-95463725D01*
X151599936Y-95274874D01*
X151582619Y-95233066D01*
X151526253Y-95096986D01*
X151526246Y-95096973D01*
X151419274Y-94936880D01*
X151419271Y-94936876D01*
X151283123Y-94800728D01*
X151283119Y-94800725D01*
X151123026Y-94693753D01*
X151123013Y-94693746D01*
X150945132Y-94620066D01*
X150945128Y-94620064D01*
X150945126Y-94620064D01*
X150945122Y-94620063D01*
X150945118Y-94620062D01*
X150756279Y-94582500D01*
X150756275Y-94582500D01*
X150563725Y-94582500D01*
X150563720Y-94582500D01*
X150374881Y-94620062D01*
X150374867Y-94620066D01*
X150196986Y-94693746D01*
X150196973Y-94693753D01*
X150036880Y-94800725D01*
X150036876Y-94800728D01*
X149900728Y-94936876D01*
X149900725Y-94936880D01*
X149793753Y-95096973D01*
X149793746Y-95096986D01*
X149720066Y-95274867D01*
X149720062Y-95274881D01*
X149682500Y-95463720D01*
X149682500Y-95463724D01*
X149682500Y-95463725D01*
X149682500Y-95656275D01*
X149682501Y-95656279D01*
X149710553Y-95797310D01*
X149704325Y-95866901D01*
X149661461Y-95922078D01*
X149595571Y-95945322D01*
X149588935Y-95945500D01*
X145381377Y-95945500D01*
X145381375Y-95945500D01*
X145381373Y-95945501D01*
X145287839Y-95984242D01*
X145287837Y-95984244D01*
X145216244Y-96055838D01*
X143887381Y-97384700D01*
X143826058Y-97418185D01*
X143756366Y-97413201D01*
X143700433Y-97371329D01*
X143676016Y-97305865D01*
X143675700Y-97297019D01*
X143675700Y-96797580D01*
X143695385Y-96730541D01*
X143712019Y-96709899D01*
X146953099Y-93468819D01*
X147014422Y-93435334D01*
X147040780Y-93432500D01*
X156800221Y-93432500D01*
X156867260Y-93452185D01*
X156913015Y-93504989D01*
X156922959Y-93574147D01*
X156893934Y-93637703D01*
X156887908Y-93644174D01*
X156225340Y-94306741D01*
X156199596Y-94332485D01*
X156199595Y-94332485D01*
X156199596Y-94332486D01*
X156145442Y-94386639D01*
X156106701Y-94480173D01*
X156106700Y-94480178D01*
X156106700Y-98774020D01*
X156087015Y-98841059D01*
X156070381Y-98861701D01*
X155222901Y-99709181D01*
X155161578Y-99742666D01*
X155135220Y-99745500D01*
X149450623Y-99745500D01*
X149349377Y-99745500D01*
X149349375Y-99745500D01*
X149349373Y-99745501D01*
X149255839Y-99784242D01*
X146701900Y-102338181D01*
X146640577Y-102371666D01*
X146614219Y-102374500D01*
X146543982Y-102374500D01*
X146435763Y-102403497D01*
X146435760Y-102403498D01*
X146338740Y-102459513D01*
X146338734Y-102459517D01*
X146259517Y-102538734D01*
X146259513Y-102538740D01*
X146203498Y-102635760D01*
X146203497Y-102635763D01*
X146174500Y-102743982D01*
X146174500Y-102856018D01*
X146203497Y-102964237D01*
X146259515Y-103061263D01*
X146338737Y-103140485D01*
X146435763Y-103196503D01*
X146543982Y-103225500D01*
X146543984Y-103225500D01*
X146656016Y-103225500D01*
X146656018Y-103225500D01*
X146764237Y-103196503D01*
X146861263Y-103140485D01*
X146940485Y-103061263D01*
X146996503Y-102964237D01*
X147025500Y-102856018D01*
X147025500Y-102785779D01*
X147045185Y-102718740D01*
X147061819Y-102698098D01*
X149469099Y-100290819D01*
X149530422Y-100257334D01*
X149556780Y-100254500D01*
X155342621Y-100254500D01*
X155342623Y-100254500D01*
X155391398Y-100234297D01*
X155436160Y-100215757D01*
X155436161Y-100215755D01*
X155436163Y-100215755D01*
X156487921Y-99163994D01*
X156487924Y-99163993D01*
X156505362Y-99146555D01*
X156505363Y-99146555D01*
X156576955Y-99074963D01*
X156576955Y-99074961D01*
X156576957Y-99074960D01*
X156600184Y-99018882D01*
X156615700Y-98981423D01*
X156615700Y-94687579D01*
X156635385Y-94620540D01*
X156652019Y-94599898D01*
X157401097Y-93850820D01*
X157462420Y-93817335D01*
X157488778Y-93814501D01*
X172830850Y-93814501D01*
X172830852Y-93814501D01*
X172877622Y-93795128D01*
X172924389Y-93775758D01*
X172924390Y-93775756D01*
X172924392Y-93775756D01*
X175221099Y-91479047D01*
X183708699Y-91479047D01*
X183747032Y-91671754D01*
X183747035Y-91671764D01*
X183822223Y-91853286D01*
X183822230Y-91853299D01*
X183931391Y-92016668D01*
X183931394Y-92016672D01*
X184070327Y-92155605D01*
X184070331Y-92155608D01*
X184233700Y-92264769D01*
X184233713Y-92264776D01*
X184385996Y-92327853D01*
X184415240Y-92339966D01*
X184415244Y-92339966D01*
X184415245Y-92339967D01*
X184607952Y-92378300D01*
X184607955Y-92378300D01*
X185254447Y-92378300D01*
X185384096Y-92352510D01*
X185447160Y-92339966D01*
X185628693Y-92264773D01*
X185792069Y-92155608D01*
X185931008Y-92016669D01*
X186040173Y-91853293D01*
X186115366Y-91671760D01*
X186127910Y-91608696D01*
X186153700Y-91479047D01*
X186153700Y-91282552D01*
X186115367Y-91089845D01*
X186115366Y-91089844D01*
X186115366Y-91089840D01*
X186092655Y-91035011D01*
X186040176Y-90908313D01*
X186040169Y-90908300D01*
X185931008Y-90744931D01*
X185931005Y-90744927D01*
X185792072Y-90605994D01*
X185792068Y-90605991D01*
X185628699Y-90496830D01*
X185628686Y-90496823D01*
X185447164Y-90421635D01*
X185447154Y-90421632D01*
X185254447Y-90383300D01*
X185254445Y-90383300D01*
X184607955Y-90383300D01*
X184607953Y-90383300D01*
X184415245Y-90421632D01*
X184415235Y-90421635D01*
X184233713Y-90496823D01*
X184233700Y-90496830D01*
X184070331Y-90605991D01*
X184070327Y-90605994D01*
X183931394Y-90744927D01*
X183931391Y-90744931D01*
X183822230Y-90908300D01*
X183822223Y-90908313D01*
X183747035Y-91089835D01*
X183747032Y-91089845D01*
X183708700Y-91282552D01*
X183708700Y-91282555D01*
X183708700Y-91479045D01*
X183708700Y-91479047D01*
X183708699Y-91479047D01*
X175221099Y-91479047D01*
X176227921Y-90472224D01*
X176227924Y-90472223D01*
X176245362Y-90454785D01*
X176245363Y-90454785D01*
X176316955Y-90383193D01*
X176316955Y-90383191D01*
X176316957Y-90383190D01*
X176347339Y-90309838D01*
X176355700Y-90289653D01*
X176355700Y-88590799D01*
X183766924Y-88590799D01*
X183766925Y-88590800D01*
X184388491Y-88590800D01*
X184376748Y-88611139D01*
X184336200Y-88762467D01*
X184336200Y-88919133D01*
X184376748Y-89070461D01*
X184388491Y-89090800D01*
X183766924Y-89090800D01*
X183773474Y-89123731D01*
X183773476Y-89123736D01*
X183846597Y-89300265D01*
X183952753Y-89459141D01*
X184087858Y-89594246D01*
X184246734Y-89700402D01*
X184423261Y-89773522D01*
X184423267Y-89773524D01*
X184610660Y-89810800D01*
X184681200Y-89810800D01*
X184681200Y-89383509D01*
X184701539Y-89395252D01*
X184852867Y-89435800D01*
X185009533Y-89435800D01*
X185160861Y-89395252D01*
X185181200Y-89383509D01*
X185181200Y-89810800D01*
X185251739Y-89810800D01*
X185439132Y-89773524D01*
X185439138Y-89773522D01*
X185615665Y-89700402D01*
X185774541Y-89594246D01*
X185909646Y-89459141D01*
X186015802Y-89300265D01*
X186088923Y-89123736D01*
X186088925Y-89123731D01*
X186095475Y-89090800D01*
X185473909Y-89090800D01*
X185485652Y-89070461D01*
X185526200Y-88919133D01*
X185526200Y-88762467D01*
X185485652Y-88611139D01*
X185473909Y-88590800D01*
X186095475Y-88590800D01*
X186095475Y-88590799D01*
X186088925Y-88557868D01*
X186088923Y-88557863D01*
X186015802Y-88381334D01*
X185909646Y-88222458D01*
X185774541Y-88087353D01*
X185615665Y-87981197D01*
X185439138Y-87908077D01*
X185439132Y-87908075D01*
X185251739Y-87870800D01*
X185181200Y-87870800D01*
X185181200Y-88298090D01*
X185160861Y-88286348D01*
X185009533Y-88245800D01*
X184852867Y-88245800D01*
X184701539Y-88286348D01*
X184681200Y-88298090D01*
X184681200Y-87870800D01*
X184610661Y-87870800D01*
X184423267Y-87908075D01*
X184423261Y-87908077D01*
X184246734Y-87981197D01*
X184087858Y-88087353D01*
X183952753Y-88222458D01*
X183846597Y-88381334D01*
X183773476Y-88557863D01*
X183773474Y-88557868D01*
X183766924Y-88590799D01*
X176355700Y-88590799D01*
X176355700Y-86399047D01*
X183708699Y-86399047D01*
X183747032Y-86591754D01*
X183747035Y-86591764D01*
X183822223Y-86773286D01*
X183822230Y-86773299D01*
X183931391Y-86936668D01*
X183931394Y-86936672D01*
X184070327Y-87075605D01*
X184070331Y-87075608D01*
X184233700Y-87184769D01*
X184233713Y-87184776D01*
X184415235Y-87259964D01*
X184415240Y-87259966D01*
X184415244Y-87259966D01*
X184415245Y-87259967D01*
X184607952Y-87298300D01*
X184607955Y-87298300D01*
X185254447Y-87298300D01*
X185412210Y-87266918D01*
X185447160Y-87259966D01*
X185602516Y-87195616D01*
X185628686Y-87184776D01*
X185628686Y-87184775D01*
X185628693Y-87184773D01*
X185792069Y-87075608D01*
X185931008Y-86936669D01*
X186040173Y-86773293D01*
X186115366Y-86591760D01*
X186137379Y-86481097D01*
X186153700Y-86399047D01*
X186153700Y-86202552D01*
X186115367Y-86009845D01*
X186115366Y-86009844D01*
X186115366Y-86009840D01*
X186077811Y-85919173D01*
X186040176Y-85828313D01*
X186040169Y-85828300D01*
X185931008Y-85664931D01*
X185931005Y-85664927D01*
X185792072Y-85525994D01*
X185792068Y-85525991D01*
X185628699Y-85416830D01*
X185628686Y-85416823D01*
X185447164Y-85341635D01*
X185447154Y-85341632D01*
X185254447Y-85303300D01*
X185254445Y-85303300D01*
X184607955Y-85303300D01*
X184607953Y-85303300D01*
X184415245Y-85341632D01*
X184415235Y-85341635D01*
X184233713Y-85416823D01*
X184233700Y-85416830D01*
X184070331Y-85525991D01*
X184070327Y-85525994D01*
X183931394Y-85664927D01*
X183931391Y-85664931D01*
X183822230Y-85828300D01*
X183822223Y-85828313D01*
X183747035Y-86009835D01*
X183747032Y-86009845D01*
X183708700Y-86202552D01*
X183708700Y-86202555D01*
X183708700Y-86399045D01*
X183708700Y-86399047D01*
X183708699Y-86399047D01*
X176355700Y-86399047D01*
X176355700Y-78108524D01*
X176328829Y-78043650D01*
X176316957Y-78014986D01*
X176238298Y-77936327D01*
X176238291Y-77936321D01*
X174122165Y-75820194D01*
X174038549Y-75736578D01*
X182610700Y-75736578D01*
X182610700Y-76025021D01*
X182610701Y-76025038D01*
X182648349Y-76311006D01*
X182648350Y-76311011D01*
X182648351Y-76311017D01*
X182723009Y-76589644D01*
X182723014Y-76589660D01*
X182833391Y-76856136D01*
X182833399Y-76856152D01*
X182977620Y-77105948D01*
X182977631Y-77105964D01*
X183153224Y-77334802D01*
X183153230Y-77334809D01*
X183357190Y-77538769D01*
X183357197Y-77538775D01*
X183496575Y-77645723D01*
X183586044Y-77714375D01*
X183586051Y-77714379D01*
X183835847Y-77858600D01*
X183835863Y-77858608D01*
X184102339Y-77968985D01*
X184102345Y-77968986D01*
X184102355Y-77968991D01*
X184380983Y-78043649D01*
X184666972Y-78081300D01*
X184666979Y-78081300D01*
X184955421Y-78081300D01*
X184955428Y-78081300D01*
X185241417Y-78043649D01*
X185520045Y-77968991D01*
X185520057Y-77968985D01*
X185520060Y-77968985D01*
X185786536Y-77858608D01*
X185786539Y-77858606D01*
X185786545Y-77858604D01*
X186036356Y-77714375D01*
X186265204Y-77538774D01*
X186469174Y-77334804D01*
X186644775Y-77105956D01*
X186789004Y-76856145D01*
X186899391Y-76589645D01*
X186974049Y-76311017D01*
X187011700Y-76025028D01*
X187011700Y-75736572D01*
X186974049Y-75450583D01*
X186899391Y-75171955D01*
X186899386Y-75171945D01*
X186899385Y-75171939D01*
X186789008Y-74905463D01*
X186789000Y-74905447D01*
X186644779Y-74655651D01*
X186644775Y-74655644D01*
X186469174Y-74426796D01*
X186469169Y-74426790D01*
X186265209Y-74222830D01*
X186265202Y-74222824D01*
X186036364Y-74047231D01*
X186036362Y-74047229D01*
X186036356Y-74047225D01*
X186036351Y-74047222D01*
X186036348Y-74047220D01*
X185786552Y-73902999D01*
X185786536Y-73902991D01*
X185520060Y-73792614D01*
X185520048Y-73792610D01*
X185520045Y-73792609D01*
X185241417Y-73717951D01*
X185241411Y-73717950D01*
X185241406Y-73717949D01*
X184955438Y-73680301D01*
X184955433Y-73680300D01*
X184955428Y-73680300D01*
X184666972Y-73680300D01*
X184666966Y-73680300D01*
X184666961Y-73680301D01*
X184380993Y-73717949D01*
X184380986Y-73717950D01*
X184380983Y-73717951D01*
X184102355Y-73792609D01*
X184102339Y-73792614D01*
X183835863Y-73902991D01*
X183835847Y-73902999D01*
X183586051Y-74047220D01*
X183586035Y-74047231D01*
X183357197Y-74222824D01*
X183357190Y-74222830D01*
X183153230Y-74426790D01*
X183153224Y-74426797D01*
X182977631Y-74655635D01*
X182977620Y-74655651D01*
X182833399Y-74905447D01*
X182833391Y-74905463D01*
X182723014Y-75171939D01*
X182723009Y-75171955D01*
X182688065Y-75302370D01*
X182648352Y-75450580D01*
X182648349Y-75450593D01*
X182610701Y-75736561D01*
X182610700Y-75736578D01*
X174038549Y-75736578D01*
X173232213Y-74930242D01*
X173138679Y-74891501D01*
X173138677Y-74891500D01*
X173138676Y-74891500D01*
X173138674Y-74891500D01*
X129719065Y-74891500D01*
X129719057Y-74891499D01*
X129704623Y-74891499D01*
X129603377Y-74891499D01*
X129603376Y-74891499D01*
X129569665Y-74905463D01*
X129509845Y-74930242D01*
X129509835Y-74930246D01*
X122284242Y-82155839D01*
X122245501Y-82249373D01*
X122245500Y-82249378D01*
X115261700Y-82249378D01*
X115261700Y-75736578D01*
X116860700Y-75736578D01*
X116860700Y-76025021D01*
X116860701Y-76025038D01*
X116898349Y-76311006D01*
X116898350Y-76311011D01*
X116898351Y-76311017D01*
X116973009Y-76589644D01*
X116973014Y-76589660D01*
X117083391Y-76856136D01*
X117083399Y-76856152D01*
X117227620Y-77105948D01*
X117227631Y-77105964D01*
X117403224Y-77334802D01*
X117403230Y-77334809D01*
X117607190Y-77538769D01*
X117607197Y-77538775D01*
X117746575Y-77645723D01*
X117836044Y-77714375D01*
X117836051Y-77714379D01*
X118085847Y-77858600D01*
X118085863Y-77858608D01*
X118352339Y-77968985D01*
X118352345Y-77968986D01*
X118352355Y-77968991D01*
X118630983Y-78043649D01*
X118916972Y-78081300D01*
X118916979Y-78081300D01*
X119205421Y-78081300D01*
X119205428Y-78081300D01*
X119491417Y-78043649D01*
X119770045Y-77968991D01*
X119770057Y-77968985D01*
X119770060Y-77968985D01*
X120036536Y-77858608D01*
X120036539Y-77858606D01*
X120036545Y-77858604D01*
X120286356Y-77714375D01*
X120515204Y-77538774D01*
X120719174Y-77334804D01*
X120894775Y-77105956D01*
X121039004Y-76856145D01*
X121149391Y-76589645D01*
X121224049Y-76311017D01*
X121261700Y-76025028D01*
X121261700Y-75736572D01*
X121224049Y-75450583D01*
X121149391Y-75171955D01*
X121149386Y-75171945D01*
X121149385Y-75171939D01*
X121039008Y-74905463D01*
X121039000Y-74905447D01*
X120894779Y-74655651D01*
X120894775Y-74655644D01*
X120719174Y-74426796D01*
X120719169Y-74426790D01*
X120515209Y-74222830D01*
X120515202Y-74222824D01*
X120286364Y-74047231D01*
X120286362Y-74047229D01*
X120286356Y-74047225D01*
X120286351Y-74047222D01*
X120286348Y-74047220D01*
X120036552Y-73902999D01*
X120036536Y-73902991D01*
X119770060Y-73792614D01*
X119770048Y-73792610D01*
X119770045Y-73792609D01*
X119491417Y-73717951D01*
X119491411Y-73717950D01*
X119491406Y-73717949D01*
X119205438Y-73680301D01*
X119205433Y-73680300D01*
X119205428Y-73680300D01*
X118916972Y-73680300D01*
X118916966Y-73680300D01*
X118916961Y-73680301D01*
X118630993Y-73717949D01*
X118630986Y-73717950D01*
X118630983Y-73717951D01*
X118352355Y-73792609D01*
X118352339Y-73792614D01*
X118085863Y-73902991D01*
X118085847Y-73902999D01*
X117836051Y-74047220D01*
X117836035Y-74047231D01*
X117607197Y-74222824D01*
X117607190Y-74222830D01*
X117403230Y-74426790D01*
X117403224Y-74426797D01*
X117227631Y-74655635D01*
X117227620Y-74655651D01*
X117083399Y-74905447D01*
X117083391Y-74905463D01*
X116973014Y-75171939D01*
X116973009Y-75171955D01*
X116938065Y-75302370D01*
X116898352Y-75450580D01*
X116898349Y-75450593D01*
X116860701Y-75736561D01*
X116860700Y-75736578D01*
X115261700Y-75736578D01*
X115261700Y-73634866D01*
X115261965Y-73626756D01*
X115270424Y-73497694D01*
X115276564Y-73404007D01*
X115278679Y-73387953D01*
X115321430Y-73173026D01*
X115325628Y-73157361D01*
X115387549Y-72974948D01*
X115396068Y-72949849D01*
X115402267Y-72934883D01*
X115499195Y-72738333D01*
X115507298Y-72724298D01*
X115629053Y-72542079D01*
X115638910Y-72529233D01*
X115783407Y-72364465D01*
X115794865Y-72353007D01*
X115959633Y-72208510D01*
X115972479Y-72198653D01*
X116154698Y-72076898D01*
X116168733Y-72068795D01*
X116365283Y-71971867D01*
X116380249Y-71965668D01*
X116587145Y-71895437D01*
X116587761Y-71895228D01*
X116603428Y-71891030D01*
X116818353Y-71848279D01*
X116834409Y-71846164D01*
X117039258Y-71832738D01*
X117057158Y-71831565D01*
X117065267Y-71831300D01*
X117101082Y-71831300D01*
X187021318Y-71831300D01*
X187057133Y-71831300D01*
X187065243Y-71831565D01*
G37*
%TD.AperFunction*%
%TD*%
%TA.AperFunction,Conductor*%
%TO.N,/PD/VBUS*%
G36*
X169925782Y-116835025D02*
G01*
X170005182Y-116856300D01*
X170005184Y-116856300D01*
X170117216Y-116856300D01*
X170117218Y-116856300D01*
X170196618Y-116835025D01*
X170228711Y-116830800D01*
X174737200Y-116830800D01*
X174804239Y-116850485D01*
X174849994Y-116903289D01*
X174861200Y-116954800D01*
X174861200Y-118206800D01*
X174841515Y-118273839D01*
X174788711Y-118319594D01*
X174737200Y-118330800D01*
X171128711Y-118330800D01*
X171096618Y-118326575D01*
X171070564Y-118319594D01*
X171017218Y-118305300D01*
X170905182Y-118305300D01*
X170825782Y-118326575D01*
X170793689Y-118330800D01*
X169628711Y-118330800D01*
X169596618Y-118326575D01*
X169570564Y-118319594D01*
X169517218Y-118305300D01*
X169405182Y-118305300D01*
X169325782Y-118326575D01*
X169293689Y-118330800D01*
X167785200Y-118330800D01*
X167718161Y-118311115D01*
X167672406Y-118258311D01*
X167661200Y-118206800D01*
X167661200Y-116954800D01*
X167680885Y-116887761D01*
X167733689Y-116842006D01*
X167785200Y-116830800D01*
X169893689Y-116830800D01*
X169925782Y-116835025D01*
G37*
%TD.AperFunction*%
%TD*%
%TA.AperFunction,Conductor*%
%TO.N,/PD/VBUS*%
G36*
X151322370Y-116747412D02*
G01*
X151400796Y-116792692D01*
X151509015Y-116821689D01*
X151509017Y-116821689D01*
X151621049Y-116821689D01*
X151621051Y-116821689D01*
X151729270Y-116792692D01*
X151807695Y-116747412D01*
X151869695Y-116730800D01*
X152966503Y-116730800D01*
X153033542Y-116750485D01*
X153054184Y-116767119D01*
X153059921Y-116772856D01*
X153156947Y-116828874D01*
X153265166Y-116857871D01*
X153265168Y-116857871D01*
X153377200Y-116857871D01*
X153377202Y-116857871D01*
X153485421Y-116828874D01*
X153582447Y-116772856D01*
X153588184Y-116767119D01*
X153649507Y-116733634D01*
X153675865Y-116730800D01*
X154637200Y-116730800D01*
X154704239Y-116750485D01*
X154749994Y-116803289D01*
X154761200Y-116854800D01*
X154761200Y-119298561D01*
X154741515Y-119365600D01*
X154699010Y-119406057D01*
X154684951Y-119414140D01*
X154667865Y-119418719D01*
X154536635Y-119494485D01*
X154525017Y-119506102D01*
X154510768Y-119514296D01*
X154492136Y-119518781D01*
X154475316Y-119527966D01*
X154448958Y-119530800D01*
X154185200Y-119530800D01*
X154118161Y-119511115D01*
X154072406Y-119458311D01*
X154061200Y-119406800D01*
X154061200Y-117630800D01*
X149961200Y-117630800D01*
X149961200Y-119306800D01*
X149941515Y-119373839D01*
X149888711Y-119419594D01*
X149837200Y-119430800D01*
X149385966Y-119430800D01*
X149377734Y-119429159D01*
X149372613Y-119430079D01*
X149338422Y-119421323D01*
X149337656Y-119421005D01*
X149283288Y-119377121D01*
X149261276Y-119310810D01*
X149261200Y-119306482D01*
X149261200Y-116854800D01*
X149280885Y-116787761D01*
X149333689Y-116742006D01*
X149385200Y-116730800D01*
X151260371Y-116730800D01*
X151322370Y-116747412D01*
G37*
%TD.AperFunction*%
%TD*%
M02*
