%TF.GenerationSoftware,KiCad,Pcbnew,9.0.2-9.0.2-0~ubuntu24.04.1*%
%TF.CreationDate,2025-06-09T23:40:55+02:00*%
%TF.ProjectId,Pilot6Axis,50696c6f-7436-4417-9869-732e6b696361,rev?*%
%TF.SameCoordinates,Original*%
%TF.FileFunction,Soldermask,Top*%
%TF.FilePolarity,Negative*%
%FSLAX46Y46*%
G04 Gerber Fmt 4.6, Leading zero omitted, Abs format (unit mm)*
G04 Created by KiCad (PCBNEW 9.0.2-9.0.2-0~ubuntu24.04.1) date 2025-06-09 23:40:55*
%MOMM*%
%LPD*%
G01*
G04 APERTURE LIST*
G04 Aperture macros list*
%AMRoundRect*
0 Rectangle with rounded corners*
0 $1 Rounding radius*
0 $2 $3 $4 $5 $6 $7 $8 $9 X,Y pos of 4 corners*
0 Add a 4 corners polygon primitive as box body*
4,1,4,$2,$3,$4,$5,$6,$7,$8,$9,$2,$3,0*
0 Add four circle primitives for the rounded corners*
1,1,$1+$1,$2,$3*
1,1,$1+$1,$4,$5*
1,1,$1+$1,$6,$7*
1,1,$1+$1,$8,$9*
0 Add four rect primitives between the rounded corners*
20,1,$1+$1,$2,$3,$4,$5,0*
20,1,$1+$1,$4,$5,$6,$7,0*
20,1,$1+$1,$6,$7,$8,$9,0*
20,1,$1+$1,$8,$9,$2,$3,0*%
%AMFreePoly0*
4,1,6,1.000000,0.000000,0.500000,-0.750000,-0.500000,-0.750000,-0.500000,0.750000,0.500000,0.750000,1.000000,0.000000,1.000000,0.000000,$1*%
%AMFreePoly1*
4,1,6,0.500000,-0.750000,-0.650000,-0.750000,-0.150000,0.000000,-0.650000,0.750000,0.500000,0.750000,0.500000,-0.750000,0.500000,-0.750000,$1*%
G04 Aperture macros list end*
%ADD10RoundRect,0.200000X-0.200000X-0.275000X0.200000X-0.275000X0.200000X0.275000X-0.200000X0.275000X0*%
%ADD11RoundRect,0.244000X-0.269000X0.244000X-0.269000X-0.244000X0.269000X-0.244000X0.269000X0.244000X0*%
%ADD12RoundRect,0.200000X0.275000X-0.200000X0.275000X0.200000X-0.275000X0.200000X-0.275000X-0.200000X0*%
%ADD13RoundRect,0.135000X-0.185000X0.135000X-0.185000X-0.135000X0.185000X-0.135000X0.185000X0.135000X0*%
%ADD14R,1.700000X1.700000*%
%ADD15O,1.700000X1.700000*%
%ADD16RoundRect,0.225000X-0.225000X-0.250000X0.225000X-0.250000X0.225000X0.250000X-0.225000X0.250000X0*%
%ADD17RoundRect,0.244000X-0.244000X-0.269000X0.244000X-0.269000X0.244000X0.269000X-0.244000X0.269000X0*%
%ADD18RoundRect,0.150000X-0.150000X-0.500000X0.150000X-0.500000X0.150000X0.500000X-0.150000X0.500000X0*%
%ADD19RoundRect,0.075000X-0.075000X-0.575000X0.075000X-0.575000X0.075000X0.575000X-0.075000X0.575000X0*%
%ADD20O,1.000000X2.100000*%
%ADD21O,1.000000X1.600000*%
%ADD22RoundRect,0.219000X0.294000X-0.219000X0.294000X0.219000X-0.294000X0.219000X-0.294000X-0.219000X0*%
%ADD23RoundRect,0.150000X0.590000X0.150000X-0.590000X0.150000X-0.590000X-0.150000X0.590000X-0.150000X0*%
%ADD24RoundRect,0.200000X0.200000X0.275000X-0.200000X0.275000X-0.200000X-0.275000X0.200000X-0.275000X0*%
%ADD25RoundRect,0.244000X0.244000X0.269000X-0.244000X0.269000X-0.244000X-0.269000X0.244000X-0.269000X0*%
%ADD26RoundRect,0.218750X-0.218750X-0.256250X0.218750X-0.256250X0.218750X0.256250X-0.218750X0.256250X0*%
%ADD27RoundRect,0.239000X-0.274000X0.239000X-0.274000X-0.239000X0.274000X-0.239000X0.274000X0.239000X0*%
%ADD28RoundRect,0.219000X-0.219000X-0.294000X0.219000X-0.294000X0.219000X0.294000X-0.219000X0.294000X0*%
%ADD29R,0.750000X0.200000*%
%ADD30R,0.200000X0.750000*%
%ADD31R,2.850000X2.850000*%
%ADD32RoundRect,0.219000X0.219000X0.294000X-0.219000X0.294000X-0.219000X-0.294000X0.219000X-0.294000X0*%
%ADD33RoundRect,0.250000X-0.620000X-0.845000X0.620000X-0.845000X0.620000X0.845000X-0.620000X0.845000X0*%
%ADD34O,1.740000X2.190000*%
%ADD35RoundRect,0.150000X-0.512500X-0.150000X0.512500X-0.150000X0.512500X0.150000X-0.512500X0.150000X0*%
%ADD36RoundRect,0.225000X-0.250000X0.225000X-0.250000X-0.225000X0.250000X-0.225000X0.250000X0.225000X0*%
%ADD37RoundRect,0.250000X0.845000X-0.620000X0.845000X0.620000X-0.845000X0.620000X-0.845000X-0.620000X0*%
%ADD38O,2.190000X1.740000*%
%ADD39R,2.000000X1.050000*%
%ADD40FreePoly0,270.000000*%
%ADD41FreePoly1,270.000000*%
%ADD42RoundRect,0.159000X-0.159000X-0.189000X0.159000X-0.189000X0.159000X0.189000X-0.159000X0.189000X0*%
%ADD43RoundRect,0.150000X-0.590000X-0.150000X0.590000X-0.150000X0.590000X0.150000X-0.590000X0.150000X0*%
%ADD44C,1.700000*%
%ADD45R,0.200000X0.600000*%
%ADD46R,0.200000X0.700000*%
%ADD47R,0.600000X0.200000*%
%ADD48R,0.200000X0.650000*%
%ADD49R,0.200000X0.680000*%
%ADD50R,1.000000X0.200000*%
%ADD51R,0.700000X0.200000*%
%ADD52RoundRect,0.150000X0.150000X-0.512500X0.150000X0.512500X-0.150000X0.512500X-0.150000X-0.512500X0*%
%ADD53RoundRect,0.062500X0.062500X-0.337500X0.062500X0.337500X-0.062500X0.337500X-0.062500X-0.337500X0*%
%ADD54RoundRect,0.062500X0.337500X-0.062500X0.337500X0.062500X-0.337500X0.062500X-0.337500X-0.062500X0*%
%ADD55R,3.350000X3.350000*%
%ADD56RoundRect,0.250000X-0.600000X-1.600000X0.600000X-1.600000X0.600000X1.600000X-0.600000X1.600000X0*%
%ADD57RoundRect,0.250001X0.999999X-0.499999X0.999999X0.499999X-0.999999X0.499999X-0.999999X-0.499999X0*%
%ADD58R,1.500000X0.900000*%
%ADD59R,0.900000X1.500000*%
%ADD60C,0.600000*%
%ADD61R,3.800000X3.800000*%
%ADD62RoundRect,0.375000X-0.625000X-0.375000X0.625000X-0.375000X0.625000X0.375000X-0.625000X0.375000X0*%
%ADD63RoundRect,0.500000X-0.500000X-1.400000X0.500000X-1.400000X0.500000X1.400000X-0.500000X1.400000X0*%
%ADD64RoundRect,0.225000X0.225000X0.250000X-0.225000X0.250000X-0.225000X-0.250000X0.225000X-0.250000X0*%
%ADD65RoundRect,0.200000X-0.275000X0.200000X-0.275000X-0.200000X0.275000X-0.200000X0.275000X0.200000X0*%
%ADD66RoundRect,0.244000X0.269000X-0.244000X0.269000X0.244000X-0.269000X0.244000X-0.269000X-0.244000X0*%
G04 APERTURE END LIST*
%TO.C,JP1*%
G36*
X158711200Y-95080800D02*
G01*
X157211200Y-95080800D01*
X157211200Y-97530800D01*
X158711200Y-97530800D01*
X158711200Y-95080800D01*
G37*
%TO.C,JP300*%
G36*
X160811200Y-107205800D02*
G01*
X159311200Y-107205800D01*
X159311200Y-109655800D01*
X160811200Y-109655800D01*
X160811200Y-107205800D01*
G37*
%TD*%
D10*
%TO.C,R16*%
X122675000Y-102400000D03*
X124325000Y-102400000D03*
%TD*%
%TO.C,R27*%
X178111200Y-107530800D03*
X179761200Y-107530800D03*
%TD*%
D11*
%TO.C,C18*%
X177861200Y-117830800D03*
X177861200Y-119390800D03*
%TD*%
D12*
%TO.C,C9*%
X157561200Y-106055800D03*
X157561200Y-104405800D03*
%TD*%
D10*
%TO.C,R2*%
X159961200Y-116830800D03*
X161611200Y-116830800D03*
%TD*%
D13*
%TO.C,R9*%
X156361200Y-103520801D03*
X156361200Y-104540799D03*
%TD*%
D14*
%TO.C,J3*%
X124160000Y-89880000D03*
D15*
X126700000Y-89880000D03*
X124160000Y-87340000D03*
X126700000Y-87340000D03*
X124160000Y-84800001D03*
X126700000Y-84800000D03*
%TD*%
D16*
%TO.C,C6*%
X161059380Y-101558800D03*
X162609380Y-101558800D03*
%TD*%
D12*
%TO.C,C8*%
X159731200Y-120885800D03*
X159731200Y-119235800D03*
%TD*%
D17*
%TO.C,C26*%
X178701200Y-116130800D03*
X180261200Y-116130800D03*
%TD*%
D12*
%TO.C,R5*%
X152161200Y-110855800D03*
X152161200Y-109205800D03*
%TD*%
D18*
%TO.C,J2*%
X148800000Y-118815000D03*
X149600000Y-118815000D03*
D19*
X150750000Y-118815001D03*
X151750000Y-118815000D03*
X152250000Y-118815000D03*
X153250000Y-118815001D03*
D18*
X154400000Y-118815000D03*
X155200000Y-118815000D03*
X155200000Y-118815000D03*
X154400000Y-118815000D03*
D19*
X153750000Y-118815000D03*
X152750000Y-118815000D03*
X151250000Y-118815000D03*
X150250000Y-118815000D03*
D18*
X149600000Y-118815000D03*
X148800000Y-118815000D03*
D20*
X147680000Y-119455000D03*
D21*
X147680000Y-123635000D03*
D20*
X156320000Y-119455000D03*
D21*
X156320000Y-123635000D03*
%TD*%
D22*
%TO.C,R25*%
X177561200Y-99170800D03*
X177561200Y-97530800D03*
%TD*%
D23*
%TO.C,Q3*%
X124979999Y-111850000D03*
X124979999Y-109950000D03*
X123100000Y-110900000D03*
%TD*%
D11*
%TO.C,C19*%
X179061200Y-117850800D03*
X179061200Y-119410800D03*
%TD*%
%TO.C,C17*%
X176661200Y-117850800D03*
X176661200Y-119410800D03*
%TD*%
D24*
%TO.C,R12*%
X125025000Y-104800000D03*
X123375000Y-104800000D03*
%TD*%
D10*
%TO.C,R15*%
X122745000Y-113510000D03*
X124395000Y-113510000D03*
%TD*%
D16*
%TO.C,C5*%
X160284380Y-104758800D03*
X161834380Y-104758800D03*
%TD*%
%TO.C,C1*%
X159986200Y-110830800D03*
X161536200Y-110830800D03*
%TD*%
%TO.C,C15*%
X122795000Y-115105001D03*
X124345000Y-115105001D03*
%TD*%
D12*
%TO.C,R11*%
X125900000Y-115125000D03*
X125900000Y-113475000D03*
%TD*%
D13*
%TO.C,R20*%
X155501200Y-97690801D03*
X155501200Y-98710799D03*
%TD*%
D25*
%TO.C,C44*%
X165594380Y-101358800D03*
X164034380Y-101358800D03*
%TD*%
D26*
%TO.C,D1*%
X159973699Y-112330800D03*
X161548701Y-112330800D03*
%TD*%
D27*
%TO.C,D4*%
X176661200Y-107440800D03*
X176661200Y-109020800D03*
%TD*%
D10*
%TO.C,R1*%
X159961200Y-115330800D03*
X161611200Y-115330800D03*
%TD*%
D28*
%TO.C,R22*%
X179231200Y-86200800D03*
X180871200Y-86200800D03*
%TD*%
D29*
%TO.C,IC4*%
X177461200Y-115530800D03*
X177461200Y-115130800D03*
X177461200Y-114730800D03*
X177461200Y-114330800D03*
X177461200Y-113930800D03*
X177461200Y-113530800D03*
X177461200Y-113130800D03*
X177461200Y-112730800D03*
D30*
X176861200Y-112130800D03*
X176461200Y-112130800D03*
X176061200Y-112130800D03*
X175661200Y-112130800D03*
X175261200Y-112130800D03*
X174861200Y-112130800D03*
X174461200Y-112130800D03*
X174061200Y-112130800D03*
D29*
X173461200Y-112730800D03*
X173461200Y-113130800D03*
X173461200Y-113530800D03*
X173461200Y-113930800D03*
X173461200Y-114330800D03*
X173461200Y-114730800D03*
X173461200Y-115130800D03*
X173461200Y-115530800D03*
D30*
X174061200Y-116130800D03*
X174461200Y-116130800D03*
X174861200Y-116130800D03*
X175261200Y-116130800D03*
X175661200Y-116130800D03*
X176061200Y-116130800D03*
X176461200Y-116130800D03*
X176861200Y-116130800D03*
D31*
X175461200Y-114130800D03*
%TD*%
D32*
%TO.C,R21*%
X165981200Y-115530800D03*
X164341200Y-115530800D03*
%TD*%
D25*
%TO.C,C30*%
X174641200Y-97630800D03*
X173081200Y-97630800D03*
%TD*%
D33*
%TO.C,J7*%
X152851200Y-79880800D03*
D34*
X155391200Y-79880800D03*
%TD*%
D35*
%TO.C,IC1*%
X163296880Y-112208801D03*
X163296880Y-113158800D03*
X163296880Y-114108799D03*
X165571880Y-114108799D03*
X165571880Y-112208801D03*
%TD*%
D36*
%TO.C,C14*%
X125900000Y-100625000D03*
X125900000Y-102175000D03*
%TD*%
D16*
%TO.C,C4*%
X160284380Y-103058800D03*
X161834380Y-103058800D03*
%TD*%
D33*
%TO.C,J10*%
X159119999Y-86800002D03*
D34*
X161659999Y-86800002D03*
%TD*%
D17*
%TO.C,C28*%
X173681200Y-108630800D03*
X175241200Y-108630800D03*
%TD*%
D37*
%TO.C,J15*%
X184931200Y-93920800D03*
D38*
X184931200Y-91380800D03*
X184931200Y-88840800D03*
X184931200Y-86300800D03*
%TD*%
D28*
%TO.C,R6*%
X178141200Y-108930800D03*
X179781200Y-108930800D03*
%TD*%
D39*
%TO.C,SW1*%
X119400000Y-110749998D03*
X119400000Y-115200000D03*
%TD*%
D17*
%TO.C,C23*%
X178701200Y-113730800D03*
X180261200Y-113730800D03*
%TD*%
D40*
%TO.C,JP1*%
X157961200Y-95580800D03*
D41*
X157961200Y-97030800D03*
%TD*%
D25*
%TO.C,C29*%
X174641200Y-96430800D03*
X173081200Y-96430800D03*
%TD*%
D22*
%TO.C,R28*%
X178761200Y-99170800D03*
X178761200Y-97530800D03*
%TD*%
D40*
%TO.C,JP300*%
X160061200Y-107705800D03*
D41*
X160061200Y-109155800D03*
%TD*%
D28*
%TO.C,R24*%
X174741200Y-110330800D03*
X176381200Y-110330800D03*
%TD*%
D33*
%TO.C,J14*%
X140560000Y-79900000D03*
D34*
X143100000Y-79900000D03*
%TD*%
D33*
%TO.C,J6*%
X146701200Y-79890800D03*
D34*
X149241200Y-79890800D03*
%TD*%
D11*
%TO.C,C32*%
X167961200Y-107350800D03*
X167961200Y-108910800D03*
%TD*%
D25*
%TO.C,C39*%
X165594380Y-106158800D03*
X164034380Y-106158800D03*
%TD*%
%TO.C,C42*%
X165594380Y-102558800D03*
X164034380Y-102558800D03*
%TD*%
D42*
%TO.C,R32*%
X177986200Y-105130800D03*
X178986200Y-105130800D03*
%TD*%
D22*
%TO.C,R7*%
X178761200Y-112250800D03*
X178761200Y-110610800D03*
%TD*%
D17*
%TO.C,C43*%
X178206200Y-106130800D03*
X179766200Y-106130800D03*
%TD*%
D43*
%TO.C,Q1*%
X123160000Y-106450000D03*
X123160000Y-108350000D03*
X125039999Y-107400000D03*
%TD*%
D13*
%TO.C,R8*%
X156361200Y-105420801D03*
X156361200Y-106440799D03*
%TD*%
D14*
%TO.C,J19*%
X132810000Y-89800000D03*
D15*
X135350000Y-89800000D03*
X132810000Y-87260000D03*
X135350000Y-87260000D03*
X132810000Y-84720001D03*
X135350000Y-84720000D03*
%TD*%
D16*
%TO.C,C7*%
X161084380Y-100058800D03*
X162634380Y-100058800D03*
%TD*%
D25*
%TO.C,C38*%
X165594380Y-100158800D03*
X164034380Y-100158800D03*
%TD*%
D17*
%TO.C,C27*%
X173681200Y-107430800D03*
X175241200Y-107430800D03*
%TD*%
D28*
%TO.C,R31*%
X178066200Y-104130800D03*
X179706200Y-104130800D03*
%TD*%
D10*
%TO.C,R4*%
X151236200Y-107630800D03*
X152886200Y-107630800D03*
%TD*%
D11*
%TO.C,C33*%
X171861200Y-107350800D03*
X171861200Y-108910800D03*
%TD*%
D33*
%TO.C,J12*%
X165329998Y-86800001D03*
D34*
X167869998Y-86800001D03*
%TD*%
D33*
%TO.C,J13*%
X171529999Y-79850800D03*
D34*
X174069999Y-79850800D03*
%TD*%
D14*
%TO.C,TH1*%
X184761200Y-107455800D03*
D44*
X184761200Y-109995800D03*
%TD*%
D14*
%TO.C,J5*%
X153200000Y-95560000D03*
D15*
X150660000Y-95560000D03*
X153200000Y-98100000D03*
X150660000Y-98100000D03*
%TD*%
D30*
%TO.C,IC3*%
X172761200Y-105280800D03*
D45*
X173161200Y-105355800D03*
X173561200Y-105355800D03*
X173961200Y-105355800D03*
X174361200Y-105355800D03*
X174761200Y-105355800D03*
X175161200Y-105355800D03*
X175561200Y-105355800D03*
D46*
X175961200Y-105305800D03*
D47*
X176261200Y-104455800D03*
X176261200Y-104055800D03*
X176261200Y-103655800D03*
X176261200Y-103255800D03*
X176261200Y-102855800D03*
X176261200Y-102455800D03*
D46*
X175961200Y-101602800D03*
X175561200Y-101605800D03*
D48*
X175161200Y-101580800D03*
D49*
X174761200Y-101595800D03*
D45*
X174361200Y-101555800D03*
X173961200Y-101555800D03*
X173561200Y-101555800D03*
X173161200Y-101555800D03*
D30*
X172761200Y-101630800D03*
D50*
X172661200Y-102555800D03*
X172661200Y-103005800D03*
X172661200Y-103455800D03*
X172661200Y-103905800D03*
X172661200Y-104355800D03*
D51*
X172511200Y-104805800D03*
X176211200Y-104855800D03*
X176211200Y-102055800D03*
X172511200Y-102105800D03*
%TD*%
D52*
%TO.C,U2*%
X151500002Y-115237500D03*
X152450001Y-115237500D03*
X153400000Y-115237500D03*
X153400000Y-112962500D03*
X152450001Y-112962500D03*
X151500002Y-112962500D03*
%TD*%
D25*
%TO.C,C41*%
X165594380Y-103758800D03*
X164034380Y-103758800D03*
%TD*%
D23*
%TO.C,Q4*%
X170891200Y-112450800D03*
X170891200Y-110550800D03*
X169011200Y-111500800D03*
%TD*%
D53*
%TO.C,U3*%
X150650001Y-105970001D03*
X151150001Y-105970001D03*
X151650001Y-105970001D03*
X152150001Y-105970002D03*
X152650001Y-105970001D03*
X153150001Y-105970001D03*
X153650001Y-105970001D03*
D54*
X154600001Y-105020001D03*
X154600001Y-104520001D03*
X154600001Y-104020001D03*
X154600002Y-103520001D03*
X154600001Y-103020001D03*
X154600001Y-102520001D03*
X154600001Y-102020001D03*
D53*
X153650001Y-101070001D03*
X153150001Y-101070001D03*
X152650001Y-101070001D03*
X152150001Y-101070000D03*
X151650001Y-101070001D03*
X151150001Y-101070001D03*
X150650001Y-101070001D03*
D54*
X149700001Y-102020001D03*
X149700001Y-102520001D03*
X149700001Y-103020001D03*
X149700000Y-103520001D03*
X149700001Y-104020001D03*
X149700001Y-104520001D03*
X149700001Y-105020001D03*
D55*
X152150001Y-103520001D03*
%TD*%
D28*
%TO.C,R13*%
X122741200Y-116630800D03*
X124381200Y-116630800D03*
%TD*%
D56*
%TO.C,L1*%
X163484380Y-109158800D03*
X166184380Y-109158800D03*
%TD*%
D25*
%TO.C,C40*%
X165594380Y-104958800D03*
X164034380Y-104958800D03*
%TD*%
D39*
%TO.C,SW2*%
X119400000Y-107499999D03*
X119400000Y-103049997D03*
%TD*%
D11*
%TO.C,C20*%
X180261200Y-117850800D03*
X180261200Y-119410800D03*
%TD*%
D57*
%TO.C,L2*%
X168661200Y-104680800D03*
X168661200Y-100980800D03*
%TD*%
D58*
%TO.C,U4*%
X127845000Y-101495000D03*
X127845000Y-102765000D03*
X127845000Y-104035000D03*
X127845000Y-105305000D03*
X127845000Y-106575000D03*
X127845000Y-107845000D03*
X127845000Y-109115000D03*
X127845000Y-110385000D03*
X127845000Y-111655000D03*
X127845000Y-112925000D03*
X127845000Y-114195000D03*
X127845000Y-115465000D03*
X127845000Y-116735000D03*
X127845000Y-118005000D03*
D59*
X130880000Y-119100000D03*
X132150000Y-119100000D03*
X133420000Y-119099999D03*
X134690000Y-119100000D03*
X135960000Y-119100000D03*
X137230000Y-119100000D03*
X138500000Y-119100000D03*
X139770000Y-119099999D03*
X141040000Y-119100000D03*
X142310000Y-119100000D03*
D58*
X145345000Y-118005000D03*
X145345000Y-116735000D03*
X145345000Y-115465000D03*
X145345000Y-114195000D03*
X145345000Y-112925000D03*
X145345000Y-111655000D03*
X145345000Y-110385000D03*
X145345000Y-109115000D03*
X145345000Y-107845000D03*
X145345000Y-106575000D03*
X145345000Y-105305000D03*
X145345000Y-104035000D03*
X145345000Y-102765000D03*
X145345000Y-101495000D03*
D60*
X133695000Y-108360000D03*
X133695000Y-109760000D03*
X134395000Y-107660000D03*
X134395000Y-109060000D03*
X134395000Y-110460000D03*
X135095000Y-108360000D03*
D61*
X135095000Y-109060000D03*
D60*
X135095000Y-109760000D03*
X135795000Y-107660000D03*
X135795000Y-109060000D03*
X135795000Y-110460000D03*
X136495000Y-108360000D03*
X136495000Y-109760000D03*
%TD*%
D17*
%TO.C,C21*%
X178701200Y-114930800D03*
X180261200Y-114930800D03*
%TD*%
D13*
%TO.C,R19*%
X148341200Y-97640801D03*
X148341200Y-98660799D03*
%TD*%
D11*
%TO.C,C31*%
X169261200Y-107350800D03*
X169261200Y-108910800D03*
%TD*%
D37*
%TO.C,J1*%
X184971200Y-102375800D03*
D38*
X184971200Y-99835800D03*
%TD*%
D14*
%TO.C,J16*%
X148361200Y-85510800D03*
D44*
X148361200Y-88050800D03*
X150901200Y-85510800D03*
X150901200Y-88050800D03*
X153441200Y-85510800D03*
X153441200Y-88050800D03*
%TD*%
D28*
%TO.C,R26*%
X122541200Y-101030800D03*
X124181200Y-101030800D03*
%TD*%
D33*
%TO.C,J9*%
X159111200Y-79860800D03*
D34*
X161651200Y-79860800D03*
%TD*%
D33*
%TO.C,J11*%
X165329999Y-79900002D03*
D34*
X167869999Y-79900002D03*
%TD*%
D11*
%TO.C,C34*%
X170561200Y-107350800D03*
X170561200Y-108910800D03*
%TD*%
D22*
%TO.C,R30*%
X176261200Y-99150800D03*
X176261200Y-97510800D03*
%TD*%
D24*
%TO.C,C12*%
X155786200Y-109135799D03*
X154136200Y-109135799D03*
%TD*%
D17*
%TO.C,C16*%
X160254380Y-106158800D03*
X161814380Y-106158800D03*
%TD*%
D62*
%TO.C,U1*%
X160534380Y-93358800D03*
X160534381Y-95658800D03*
D63*
X166834379Y-95658800D03*
D62*
X160534380Y-97958800D03*
%TD*%
D12*
%TO.C,R3*%
X158231200Y-120925800D03*
X158231200Y-119275800D03*
%TD*%
D11*
%TO.C,C22*%
X175461200Y-117850800D03*
X175461200Y-119410800D03*
%TD*%
D43*
%TO.C,Q2*%
X169011200Y-113950800D03*
X169011200Y-115850800D03*
X170891200Y-114900800D03*
%TD*%
D64*
%TO.C,C24*%
X173936200Y-120730800D03*
X172386200Y-120730800D03*
%TD*%
D65*
%TO.C,C10*%
X157361200Y-110605800D03*
X157361200Y-112255800D03*
%TD*%
D10*
%TO.C,R10*%
X154236200Y-107630800D03*
X155886200Y-107630800D03*
%TD*%
D64*
%TO.C,C25*%
X173936200Y-119230800D03*
X172386200Y-119230800D03*
%TD*%
D33*
%TO.C,J8*%
X140551200Y-86790800D03*
D34*
X143091200Y-86790800D03*
%TD*%
D66*
%TO.C,C45*%
X170561200Y-97210800D03*
X170561200Y-95650800D03*
%TD*%
D64*
%TO.C,C2*%
X161536200Y-113830800D03*
X159986200Y-113830800D03*
%TD*%
D24*
%TO.C,C11*%
X155786200Y-110630800D03*
X154136200Y-110630800D03*
%TD*%
D66*
%TO.C,C37*%
X171761200Y-97210800D03*
X171761200Y-95650800D03*
%TD*%
M02*
