%TF.GenerationSoftware,KiCad,Pcbnew,8.0.8-8.0.8-0~ubuntu22.04.1*%
%TF.CreationDate,2025-02-21T02:47:37+01:00*%
%TF.ProjectId,Pilot6Axis,50696c6f-7436-4417-9869-732e6b696361,rev?*%
%TF.SameCoordinates,Original*%
%TF.FileFunction,Copper,L2,Bot*%
%TF.FilePolarity,Positive*%
%FSLAX46Y46*%
G04 Gerber Fmt 4.6, Leading zero omitted, Abs format (unit mm)*
G04 Created by KiCad (PCBNEW 8.0.8-8.0.8-0~ubuntu22.04.1) date 2025-02-21 02:47:37*
%MOMM*%
%LPD*%
G01*
G04 APERTURE LIST*
G04 Aperture macros list*
%AMRoundRect*
0 Rectangle with rounded corners*
0 $1 Rounding radius*
0 $2 $3 $4 $5 $6 $7 $8 $9 X,Y pos of 4 corners*
0 Add a 4 corners polygon primitive as box body*
4,1,4,$2,$3,$4,$5,$6,$7,$8,$9,$2,$3,0*
0 Add four circle primitives for the rounded corners*
1,1,$1+$1,$2,$3*
1,1,$1+$1,$4,$5*
1,1,$1+$1,$6,$7*
1,1,$1+$1,$8,$9*
0 Add four rect primitives between the rounded corners*
20,1,$1+$1,$2,$3,$4,$5,0*
20,1,$1+$1,$4,$5,$6,$7,0*
20,1,$1+$1,$6,$7,$8,$9,0*
20,1,$1+$1,$8,$9,$2,$3,0*%
G04 Aperture macros list end*
%TA.AperFunction,ComponentPad*%
%ADD10R,1.700000X1.700000*%
%TD*%
%TA.AperFunction,ComponentPad*%
%ADD11O,1.700000X1.700000*%
%TD*%
%TA.AperFunction,ComponentPad*%
%ADD12RoundRect,0.250000X0.620000X0.845000X-0.620000X0.845000X-0.620000X-0.845000X0.620000X-0.845000X0*%
%TD*%
%TA.AperFunction,ComponentPad*%
%ADD13O,1.740000X2.190000*%
%TD*%
%TA.AperFunction,HeatsinkPad*%
%ADD14O,1.000000X2.100000*%
%TD*%
%TA.AperFunction,HeatsinkPad*%
%ADD15O,1.000000X1.600000*%
%TD*%
%TA.AperFunction,ComponentPad*%
%ADD16RoundRect,0.250000X-0.620000X-0.845000X0.620000X-0.845000X0.620000X0.845000X-0.620000X0.845000X0*%
%TD*%
%TA.AperFunction,HeatsinkPad*%
%ADD17C,0.600000*%
%TD*%
%TA.AperFunction,ViaPad*%
%ADD18C,0.550000*%
%TD*%
%TA.AperFunction,Conductor*%
%ADD19C,0.254000*%
%TD*%
%TA.AperFunction,Conductor*%
%ADD20C,0.400000*%
%TD*%
%TA.AperFunction,Conductor*%
%ADD21C,0.500000*%
%TD*%
G04 APERTURE END LIST*
D10*
%TO.P,J3,1,Pin_1*%
%TO.N,/MCU/JOYSTICK2_BTN*%
X124160000Y-89880000D03*
D11*
%TO.P,J3,2,Pin_2*%
%TO.N,/MCU/JOYSTICK2_Z*%
X126700000Y-89880000D03*
%TO.P,J3,3,Pin_3*%
%TO.N,+3.3V*%
X124160000Y-87340000D03*
%TO.P,J3,4,Pin_4*%
%TO.N,/MCU/JOYSTICK2_Y*%
X126700000Y-87340000D03*
%TO.P,J3,5,Pin_5*%
%TO.N,GND*%
X124160000Y-84800001D03*
%TO.P,J3,6,Pin_6*%
%TO.N,/MCU/JOYSTICK2_X*%
X126700000Y-84800000D03*
%TD*%
D12*
%TO.P,J1,1*%
%TO.N,/CHARGER/BAT+*%
X165780000Y-121697501D03*
D13*
%TO.P,J1,2*%
%TO.N,/Power/BAT+*%
X163240000Y-121697501D03*
%TD*%
D14*
%TO.P,J2,S1,SHIELD*%
%TO.N,Net-(J2-SHIELD)*%
X147680000Y-119455000D03*
D15*
X147680000Y-123635000D03*
D14*
X156320000Y-119455000D03*
D15*
X156320000Y-123635000D03*
%TD*%
D16*
%TO.P,J7,1*%
%TO.N,/MCU/BTN2*%
X152979999Y-86820002D03*
D13*
%TO.P,J7,2*%
%TO.N,GND*%
X155519999Y-86820002D03*
%TD*%
D16*
%TO.P,J10,1*%
%TO.N,/MCU/BTN5*%
X159119999Y-86800002D03*
D13*
%TO.P,J10,2*%
%TO.N,GND*%
X161659999Y-86800002D03*
%TD*%
D16*
%TO.P,J14,1*%
%TO.N,/MCU/BTN9*%
X140560000Y-79900000D03*
D13*
%TO.P,J14,2*%
%TO.N,GND*%
X143100000Y-79900000D03*
%TD*%
D16*
%TO.P,J6,1*%
%TO.N,/MCU/BTN1*%
X146799999Y-86800000D03*
D13*
%TO.P,J6,2*%
%TO.N,GND*%
X149339999Y-86800000D03*
%TD*%
D10*
%TO.P,J19,1,Pin_1*%
%TO.N,/MCU/JOYSTICK1_BTN*%
X132810000Y-89800000D03*
D11*
%TO.P,J19,2,Pin_2*%
%TO.N,/MCU/JOYSTICK1_Z*%
X135350000Y-89800000D03*
%TO.P,J19,3,Pin_3*%
%TO.N,+3.3V*%
X132810000Y-87260000D03*
%TO.P,J19,4,Pin_4*%
%TO.N,/MCU/JOYSTICK1_Y*%
X135350000Y-87260000D03*
%TO.P,J19,5,Pin_5*%
%TO.N,GND*%
X132810000Y-84720001D03*
%TO.P,J19,6,Pin_6*%
%TO.N,/MCU/JOYSTICK1_X*%
X135350000Y-84720000D03*
%TD*%
D16*
%TO.P,J18,1*%
%TO.N,/CHARGER/BAT+*%
X169510000Y-121717501D03*
D13*
%TO.P,J18,2*%
%TO.N,GND*%
X172050000Y-121717501D03*
%TD*%
D16*
%TO.P,J15,1*%
%TO.N,/MCU/BTN10*%
X140559999Y-86799999D03*
D13*
%TO.P,J15,2*%
%TO.N,GND*%
X143099999Y-86799999D03*
%TD*%
D16*
%TO.P,J12,1*%
%TO.N,/MCU/BTN7*%
X165329998Y-86800001D03*
D13*
%TO.P,J12,2*%
%TO.N,GND*%
X167869998Y-86800001D03*
%TD*%
D16*
%TO.P,J13,1*%
%TO.N,/MCU/BTN8*%
X171529999Y-86800002D03*
D13*
%TO.P,J13,2*%
%TO.N,GND*%
X174069999Y-86800002D03*
%TD*%
D10*
%TO.P,J5,1,Pin_1*%
%TO.N,/MCU/SCL*%
X153200000Y-95560000D03*
D11*
%TO.P,J5,2,Pin_2*%
%TO.N,/MCU/SDA*%
X150660000Y-95560000D03*
%TO.P,J5,3,Pin_3*%
%TO.N,+3.3V*%
X153200000Y-98100000D03*
%TO.P,J5,4,Pin_4*%
%TO.N,GND*%
X150660000Y-98100000D03*
%TD*%
D17*
%TO.P,U4,39,GND*%
%TO.N,GND*%
X133695000Y-108360000D03*
X133695000Y-109760000D03*
X134395000Y-107660000D03*
X134395000Y-109060000D03*
X134395000Y-110460000D03*
X135095000Y-108360000D03*
X135095000Y-109760000D03*
X135795000Y-107660000D03*
X135795000Y-109060000D03*
X135795000Y-110460000D03*
X136495000Y-108360000D03*
X136495000Y-109760000D03*
%TD*%
D16*
%TO.P,J9,1*%
%TO.N,/MCU/BTN4*%
X159119999Y-79920002D03*
D13*
%TO.P,J9,2*%
%TO.N,GND*%
X161659999Y-79920002D03*
%TD*%
D16*
%TO.P,J11,1*%
%TO.N,/MCU/BTN6*%
X165329999Y-79900002D03*
D13*
%TO.P,J11,2*%
%TO.N,GND*%
X167869999Y-79900002D03*
%TD*%
D16*
%TO.P,J16,1*%
%TO.N,/MCU/BTN11*%
X146769999Y-79900001D03*
D13*
%TO.P,J16,2*%
%TO.N,GND*%
X149309999Y-79900001D03*
%TD*%
D16*
%TO.P,J8,1*%
%TO.N,/MCU/BTN3*%
X152979999Y-79920002D03*
D13*
%TO.P,J8,2*%
%TO.N,GND*%
X155519999Y-79920002D03*
%TD*%
D18*
%TO.N,+3.3V*%
X123500000Y-112600000D03*
X123600000Y-101800000D03*
%TO.N,/CHARGER/VBUS*%
X152500000Y-111900000D03*
X156200000Y-116700000D03*
X149600000Y-116800000D03*
X155110000Y-116700000D03*
X149600000Y-117700000D03*
X157051667Y-116651667D03*
%TO.N,/MCU/JOYSTICK1_Y*%
X129000000Y-110385000D03*
%TO.N,/MCU/JOYSTICK2_X*%
X129000000Y-107845000D03*
%TO.N,/MCU/IO0*%
X121000000Y-107500000D03*
X126102000Y-116200000D03*
X123800000Y-107700000D03*
%TO.N,GND*%
X179220000Y-97980000D03*
X136040000Y-95440000D03*
X179220000Y-90360000D03*
X166520000Y-77660000D03*
X184300000Y-97980000D03*
X186840000Y-90360000D03*
X166520000Y-105600000D03*
X174140000Y-97980000D03*
X186840000Y-87820000D03*
X184300000Y-92900000D03*
X118260000Y-82740000D03*
X184300000Y-95440000D03*
X153820000Y-77660000D03*
X128420000Y-82740000D03*
X179220000Y-87820000D03*
X151280000Y-80200000D03*
X166520000Y-123380000D03*
X158900000Y-97980000D03*
X171600000Y-90360000D03*
X181760000Y-118300000D03*
X136040000Y-103060000D03*
X181760000Y-113220000D03*
X118260000Y-100520000D03*
X161440000Y-95440000D03*
X146200000Y-77660000D03*
X176680000Y-95440000D03*
X174140000Y-80200000D03*
X125880000Y-82740000D03*
X179220000Y-92900000D03*
X146200000Y-95440000D03*
X148740000Y-77660000D03*
X138580000Y-123380000D03*
X128420000Y-95440000D03*
X169060000Y-77660000D03*
X176680000Y-108140000D03*
X169060000Y-82740000D03*
X148740000Y-82740000D03*
X120800000Y-97980000D03*
X118260000Y-90360000D03*
X141120000Y-77660000D03*
X163980000Y-97980000D03*
X158300000Y-103400000D03*
X156360000Y-97980000D03*
X176680000Y-120840000D03*
X176680000Y-110680000D03*
X184300000Y-100520000D03*
X138580000Y-115760000D03*
X161440000Y-108140000D03*
X179220000Y-120840000D03*
X123340000Y-82740000D03*
X128420000Y-77660000D03*
X120800000Y-87820000D03*
X174140000Y-90360000D03*
X138580000Y-120840000D03*
X156360000Y-77660000D03*
X120800000Y-80200000D03*
X169060000Y-108140000D03*
X123340000Y-75120000D03*
X156360000Y-85280000D03*
X136040000Y-80200000D03*
X120800000Y-82740000D03*
X186840000Y-95440000D03*
X156360000Y-113220000D03*
X158900000Y-90360000D03*
X161440000Y-82740000D03*
X136040000Y-105600000D03*
X166520000Y-97980000D03*
X181760000Y-90360000D03*
X128420000Y-92900000D03*
X171600000Y-82740000D03*
X181760000Y-92900000D03*
X125880000Y-92900000D03*
X179220000Y-80200000D03*
X125880000Y-80200000D03*
X118260000Y-95440000D03*
X166520000Y-103060000D03*
X128420000Y-120840000D03*
X123340000Y-97980000D03*
X136040000Y-100520000D03*
X130960000Y-80200000D03*
X158900000Y-95440000D03*
X125880000Y-75120000D03*
X153820000Y-108140000D03*
X171600000Y-123380000D03*
X171600000Y-80200000D03*
X120800000Y-85280000D03*
X174140000Y-82740000D03*
X123600000Y-114400000D03*
X133500000Y-97980000D03*
X130960000Y-113220000D03*
X148740000Y-95440000D03*
X184300000Y-118300000D03*
X136040000Y-123380000D03*
X146200000Y-100520000D03*
X179220000Y-77660000D03*
X166520000Y-90360000D03*
X163980000Y-105600000D03*
X181760000Y-82740000D03*
X160100000Y-103400000D03*
X163980000Y-95440000D03*
X159200000Y-103400000D03*
X123600000Y-116000000D03*
X130960000Y-120840000D03*
X171600000Y-77660000D03*
X181760000Y-100520000D03*
X123340000Y-77660000D03*
X181760000Y-77660000D03*
X128420000Y-75120000D03*
X169060000Y-123380000D03*
X181760000Y-95440000D03*
X169060000Y-103060000D03*
X130960000Y-123380000D03*
X130960000Y-77660000D03*
X138580000Y-77660000D03*
X123340000Y-80200000D03*
X186840000Y-85280000D03*
X161440000Y-97980000D03*
X136040000Y-82740000D03*
X163980000Y-77660000D03*
X181760000Y-120840000D03*
X123340000Y-120840000D03*
X179220000Y-123380000D03*
X146200000Y-120840000D03*
X181760000Y-123380000D03*
X176680000Y-92900000D03*
X186840000Y-82740000D03*
X174140000Y-123380000D03*
X186840000Y-97980000D03*
X186840000Y-100520000D03*
X120800000Y-95440000D03*
X179220000Y-85280000D03*
X141120000Y-82740000D03*
X163980000Y-123380000D03*
X118260000Y-113220000D03*
X163980000Y-103060000D03*
X158900000Y-77660000D03*
X157300000Y-103400000D03*
X136040000Y-97980000D03*
X163980000Y-108140000D03*
X186840000Y-118300000D03*
X125880000Y-77660000D03*
X138580000Y-80200000D03*
X123340000Y-123380000D03*
X174140000Y-120840000D03*
X148740000Y-120840000D03*
X174140000Y-95440000D03*
X133500000Y-120840000D03*
X118260000Y-85280000D03*
X184300000Y-90360000D03*
X169060000Y-85280000D03*
X120800000Y-113220000D03*
X166520000Y-95440000D03*
X169060000Y-95440000D03*
X161440000Y-123380000D03*
X143660000Y-105600000D03*
X133500000Y-82740000D03*
X156360000Y-95440000D03*
X176680000Y-97980000D03*
X153820000Y-82740000D03*
X169060000Y-105600000D03*
X158900000Y-118300000D03*
X143660000Y-118300000D03*
X133500000Y-103060000D03*
X186840000Y-92900000D03*
X125880000Y-123380000D03*
X158900000Y-82740000D03*
X136040000Y-120840000D03*
X118260000Y-87820000D03*
X156360000Y-82740000D03*
X146200000Y-123380000D03*
X118260000Y-118300000D03*
X133500000Y-123380000D03*
X143660000Y-82740000D03*
X128420000Y-123380000D03*
X118260000Y-97980000D03*
X118260000Y-105600000D03*
X179220000Y-82740000D03*
X143660000Y-123380000D03*
X148740000Y-97980000D03*
X184300000Y-87820000D03*
X143660000Y-77660000D03*
X158900000Y-120840000D03*
X156360000Y-110680000D03*
X146200000Y-97980000D03*
X181760000Y-87820000D03*
X118260000Y-92900000D03*
X186840000Y-113220000D03*
X184300000Y-115760000D03*
X118260000Y-80200000D03*
X184300000Y-85280000D03*
X181760000Y-75120000D03*
X186840000Y-115760000D03*
X186840000Y-80200000D03*
X181760000Y-80200000D03*
X166520000Y-82740000D03*
X166520000Y-108140000D03*
X128420000Y-80200000D03*
X120800000Y-90360000D03*
X133500000Y-105600000D03*
X151280000Y-77660000D03*
X179220000Y-75120000D03*
X141120000Y-123380000D03*
X141120000Y-120840000D03*
X146200000Y-82740000D03*
X133500000Y-100520000D03*
X120800000Y-92900000D03*
X176680000Y-123380000D03*
X179220000Y-95440000D03*
X176680000Y-75120000D03*
X184300000Y-82740000D03*
X181760000Y-85280000D03*
X171600000Y-97980000D03*
X152500000Y-114200000D03*
X181760000Y-97980000D03*
X133500000Y-113220000D03*
X184300000Y-80200000D03*
X120800000Y-118300000D03*
X181760000Y-115760000D03*
X133500000Y-77660000D03*
X184300000Y-113220000D03*
X161440000Y-77660000D03*
%TO.N,/MCU/JOYSTICK1_Z*%
X129000000Y-109115000D03*
%TO.N,/MCU/JOYSTICK1_X*%
X129000000Y-111655000D03*
%TO.N,/MCU/JOYSTICK2_BTN*%
X146600000Y-102800000D03*
%TO.N,/MCU/JOYSTICK1_BTN*%
X144100000Y-110385000D03*
%TO.N,/MCU/SCL*%
X144000000Y-104000000D03*
%TO.N,/MCU/SDA*%
X144200000Y-107800000D03*
%TO.N,/MCU/JOYSTICK2_Y*%
X129000000Y-106575000D03*
%TO.N,/MCU/JOYSTICK2_Z*%
X128949000Y-105305000D03*
%TO.N,/USB/RTS*%
X148403137Y-102918001D03*
X125500000Y-110900000D03*
%TO.N,/MCU/BTN5*%
X144200000Y-115465000D03*
%TO.N,/MCU/BTN3*%
X132300000Y-117900000D03*
%TO.N,/MCU/BTN6*%
X144100000Y-114300000D03*
%TO.N,/MCU/BTN9*%
X129100000Y-112925000D03*
%TO.N,/MCU/BTN8*%
X144100000Y-111655000D03*
%TO.N,/MCU/BTN10*%
X129100000Y-114195000D03*
%TO.N,/MCU/BTN1*%
X129200000Y-116735000D03*
%TO.N,/MCU/BTN2*%
X142300000Y-117900000D03*
%TO.N,/MCU/BTN7*%
X144100000Y-112925000D03*
%TO.N,/MCU/BTN11*%
X129200000Y-115465000D03*
%TO.N,/MCU/BTN4*%
X144100000Y-116735000D03*
%TD*%
D19*
%TO.N,+3.3V*%
X121700000Y-101800000D02*
X119200000Y-104300000D01*
X119200000Y-108300000D02*
X123500000Y-112600000D01*
X119200000Y-104300000D02*
X119200000Y-108300000D01*
X123600000Y-101800000D02*
X121700000Y-101800000D01*
D20*
%TO.N,/CHARGER/VBUS*%
X157051667Y-116651667D02*
X155048333Y-116651667D01*
X155048333Y-116651667D02*
X154650000Y-117050000D01*
D21*
X149600000Y-117700000D02*
X149600000Y-116800000D01*
X149600000Y-119220000D02*
X150840000Y-120460000D01*
X149600000Y-117700000D02*
X149600000Y-119220000D01*
X154115000Y-117585000D02*
X154650000Y-117050000D01*
D20*
X155110000Y-116700000D02*
X155000000Y-116700000D01*
D19*
X155110000Y-116700000D02*
X155110000Y-113410000D01*
X155110000Y-113410000D02*
X153600000Y-111900000D01*
D21*
X153310000Y-120460000D02*
X154115000Y-119655000D01*
D20*
X155000000Y-116700000D02*
X154650000Y-117050000D01*
D19*
X153600000Y-111900000D02*
X152500000Y-111900000D01*
D21*
X150840000Y-120460000D02*
X153310000Y-120460000D01*
X154115000Y-119655000D02*
X154115000Y-117585000D01*
D19*
%TO.N,/MCU/JOYSTICK1_Y*%
X136900000Y-90600000D02*
X131816000Y-95684000D01*
X131816000Y-108284000D02*
X129715000Y-110385000D01*
X131816000Y-95684000D02*
X131816000Y-108284000D01*
X136900000Y-88000000D02*
X136900000Y-90600000D01*
X136160000Y-87260000D02*
X136900000Y-88000000D01*
X129715000Y-110385000D02*
X129000000Y-110385000D01*
X135450000Y-87260000D02*
X136160000Y-87260000D01*
%TO.N,/MCU/JOYSTICK2_X*%
X130908000Y-106092000D02*
X130908000Y-88908000D01*
X130908000Y-88908000D02*
X126800000Y-84800000D01*
X129000000Y-107845000D02*
X129155000Y-107845000D01*
X129155000Y-107845000D02*
X130908000Y-106092000D01*
%TO.N,/MCU/IO0*%
X126102000Y-109902000D02*
X126102000Y-116200000D01*
X123900000Y-107700000D02*
X126102000Y-109902000D01*
X123800000Y-107700000D02*
X123900000Y-107700000D01*
X123800000Y-107700000D02*
X123600000Y-107500000D01*
X123600000Y-107500000D02*
X121000000Y-107500000D01*
%TO.N,/MCU/JOYSTICK1_Z*%
X131362000Y-93888000D02*
X135450000Y-89800000D01*
X131362000Y-106938000D02*
X131362000Y-93888000D01*
X129185000Y-109115000D02*
X131362000Y-106938000D01*
X129000000Y-109115000D02*
X129185000Y-109115000D01*
%TO.N,/MCU/JOYSTICK1_X*%
X132270000Y-109130000D02*
X132270000Y-95872053D01*
X137600000Y-86870000D02*
X135450000Y-84720000D01*
X129000000Y-111655000D02*
X129745000Y-111655000D01*
X129745000Y-111655000D02*
X132270000Y-109130000D01*
X132270000Y-95872053D02*
X137600000Y-90542053D01*
X137600000Y-90542053D02*
X137600000Y-86870000D01*
%TO.N,/MCU/JOYSTICK2_BTN*%
X129654000Y-75146000D02*
X122500000Y-82300000D01*
X166442053Y-100000000D02*
X176954000Y-89488053D01*
X176954000Y-89488053D02*
X176954000Y-79011947D01*
X149400000Y-100000000D02*
X166442053Y-100000000D01*
X122500000Y-82300000D02*
X122500000Y-88220000D01*
X122500000Y-88220000D02*
X124160000Y-89880000D01*
X176954000Y-79011947D02*
X173088053Y-75146000D01*
X146600000Y-102800000D02*
X149400000Y-100000000D01*
X173088053Y-75146000D02*
X129654000Y-75146000D01*
%TO.N,/MCU/JOYSTICK1_BTN*%
X142154000Y-109054000D02*
X143485000Y-110385000D01*
X145222000Y-93178000D02*
X142154000Y-96246000D01*
X132910000Y-89800000D02*
X131300000Y-88190000D01*
X138700000Y-75600000D02*
X172900000Y-75600000D01*
X172900000Y-75600000D02*
X176500000Y-79200000D01*
X143485000Y-110385000D02*
X144100000Y-110385000D01*
X131300000Y-88190000D02*
X131300000Y-83000000D01*
X131300000Y-83000000D02*
X138700000Y-75600000D01*
X172622000Y-93178000D02*
X145222000Y-93178000D01*
X142154000Y-96246000D02*
X142154000Y-109054000D01*
X176500000Y-79200000D02*
X176500000Y-89300000D01*
X176500000Y-89300000D02*
X172622000Y-93178000D01*
%TO.N,/MCU/SCL*%
X145600000Y-96900000D02*
X143062000Y-99438000D01*
X143062000Y-99438000D02*
X143062000Y-103097000D01*
X151960000Y-96900000D02*
X145600000Y-96900000D01*
X143062000Y-103097000D02*
X144000000Y-104035000D01*
X153300000Y-95560000D02*
X151960000Y-96900000D01*
%TO.N,/MCU/SDA*%
X144245000Y-107845000D02*
X142608000Y-106208000D01*
X144742000Y-96200000D02*
X150120000Y-96200000D01*
X142608000Y-98334000D02*
X144742000Y-96200000D01*
X150120000Y-96200000D02*
X150760000Y-95560000D01*
X142608000Y-106208000D02*
X142608000Y-98334000D01*
%TO.N,/MCU/JOYSTICK2_Y*%
X129000000Y-106575000D02*
X129225000Y-106575000D01*
X129225000Y-106575000D02*
X130454000Y-105346000D01*
X130454000Y-90994000D02*
X126800000Y-87340000D01*
X130454000Y-105346000D02*
X130454000Y-90994000D01*
%TO.N,/MCU/JOYSTICK2_Z*%
X129720000Y-92800000D02*
X129560000Y-92640000D01*
X130000000Y-104254000D02*
X130000000Y-93080000D01*
X128949000Y-105305000D02*
X130000000Y-104254000D01*
X130000000Y-93080000D02*
X129720000Y-92800000D01*
X129720000Y-92800000D02*
X126800000Y-89880000D01*
%TO.N,/USB/RTS*%
X148403137Y-116696863D02*
X148403137Y-102918001D01*
X142700000Y-122400000D02*
X148403137Y-116696863D01*
X127700000Y-122400000D02*
X142700000Y-122400000D01*
X125500000Y-110900000D02*
X125500000Y-120200000D01*
X125500000Y-120200000D02*
X127700000Y-122400000D01*
%TO.N,/MCU/BTN5*%
X140224000Y-113924000D02*
X141765000Y-115465000D01*
X159219999Y-86800002D02*
X159219999Y-87980001D01*
X155838000Y-91362000D02*
X144406208Y-91362000D01*
X141765000Y-115465000D02*
X144200000Y-115465000D01*
X140224000Y-95544208D02*
X140224000Y-113924000D01*
X144406208Y-91362000D02*
X140224000Y-95544208D01*
X159219999Y-87980001D02*
X155838000Y-91362000D01*
%TO.N,/MCU/BTN3*%
X143842052Y-90000000D02*
X138862000Y-94980052D01*
X148720814Y-90000000D02*
X143842052Y-90000000D01*
X138862000Y-114238000D02*
X135700000Y-117400000D01*
X151200000Y-81800001D02*
X151200000Y-87520814D01*
X135700000Y-117400000D02*
X132800000Y-117400000D01*
X138862000Y-94980052D02*
X138862000Y-114238000D01*
X153079999Y-79920002D02*
X151200000Y-81800001D01*
X132800000Y-117400000D02*
X132250000Y-117950000D01*
X151200000Y-87520814D02*
X148720814Y-90000000D01*
%TO.N,/MCU/BTN6*%
X160284000Y-91816000D02*
X144594260Y-91816000D01*
X142200000Y-114300000D02*
X144100000Y-114300000D01*
X165429999Y-79900002D02*
X163600000Y-81730001D01*
X140678000Y-95732260D02*
X140678000Y-112778000D01*
X163600000Y-88500000D02*
X160284000Y-91816000D01*
X144594260Y-91816000D02*
X140678000Y-95732260D01*
X140678000Y-112778000D02*
X142200000Y-114300000D01*
X163600000Y-81730001D02*
X163600000Y-88500000D01*
%TO.N,/MCU/BTN9*%
X132724000Y-110176000D02*
X129975000Y-112925000D01*
X138500000Y-82060000D02*
X138500000Y-90284105D01*
X140660000Y-79900000D02*
X138500000Y-82060000D01*
X132724000Y-96060105D02*
X132724000Y-110176000D01*
X129975000Y-112925000D02*
X129100000Y-112925000D01*
X138500000Y-90284105D02*
X132724000Y-96060105D01*
%TO.N,/MCU/BTN8*%
X144970364Y-92724000D02*
X166776000Y-92724000D01*
X171629999Y-87870001D02*
X171629999Y-86800002D01*
X166776000Y-92724000D02*
X171629999Y-87870001D01*
X141700000Y-95994364D02*
X144970364Y-92724000D01*
X143255000Y-111655000D02*
X141700000Y-110100000D01*
X144100000Y-111655000D02*
X143255000Y-111655000D01*
X141700000Y-110100000D02*
X141700000Y-95994364D01*
%TO.N,/MCU/BTN10*%
X138954000Y-88505998D02*
X138954000Y-90472157D01*
X137500000Y-91926157D02*
X137500000Y-111209000D01*
X134514000Y-114195000D02*
X129100000Y-114195000D01*
X140659999Y-86799999D02*
X138954000Y-88505998D01*
X137500000Y-111209000D02*
X134514000Y-114195000D01*
X138954000Y-90472157D02*
X137500000Y-91926157D01*
%TO.N,/MCU/BTN1*%
X146899999Y-86800000D02*
X146400000Y-86800000D01*
X138408000Y-94792000D02*
X138408000Y-112892000D01*
X146700001Y-86800000D02*
X146899999Y-86800000D01*
X138408000Y-112892000D02*
X134565000Y-116735000D01*
X134565000Y-116735000D02*
X129200000Y-116735000D01*
X146400000Y-86800000D02*
X138408000Y-94792000D01*
%TO.N,/MCU/BTN2*%
X139316000Y-114916000D02*
X139316000Y-95168104D01*
X144030104Y-90454000D02*
X149446001Y-90454000D01*
X142410000Y-119100000D02*
X142410000Y-118010000D01*
X142410000Y-118010000D02*
X139316000Y-114916000D01*
X149446001Y-90454000D02*
X153079999Y-86820002D01*
X139316000Y-95168104D02*
X144030104Y-90454000D01*
%TO.N,/MCU/BTN7*%
X141132000Y-95920312D02*
X141132000Y-111232000D01*
X165429998Y-86800001D02*
X165429998Y-87895001D01*
X144782312Y-92270000D02*
X141132000Y-95920312D01*
X165429998Y-87895001D02*
X161054999Y-92270000D01*
X141132000Y-111232000D02*
X142825000Y-112925000D01*
X161054999Y-92270000D02*
X144782312Y-92270000D01*
X142825000Y-112925000D02*
X144100000Y-112925000D01*
%TO.N,/MCU/BTN11*%
X144500000Y-87800000D02*
X144500000Y-82270000D01*
X134635000Y-115465000D02*
X137954000Y-112146000D01*
X137954000Y-112146000D02*
X137954000Y-94346000D01*
X129200000Y-115465000D02*
X134635000Y-115465000D01*
X144500000Y-82270000D02*
X146869999Y-79900001D01*
X137954000Y-94346000D02*
X144500000Y-87800000D01*
%TO.N,/MCU/BTN4*%
X141835000Y-116735000D02*
X144100000Y-116735000D01*
X139770000Y-95356156D02*
X139770000Y-114670000D01*
X157400000Y-81740001D02*
X157400000Y-87800000D01*
X154292000Y-90908000D02*
X144218156Y-90908000D01*
X144218156Y-90908000D02*
X139770000Y-95356156D01*
X139770000Y-114670000D02*
X141835000Y-116735000D01*
X157400000Y-87800000D02*
X154292000Y-90908000D01*
X159219999Y-79920002D02*
X157400000Y-81740001D01*
%TD*%
%TA.AperFunction,Conductor*%
%TO.N,GND*%
G36*
X172780022Y-75947185D02*
G01*
X172800664Y-75963819D01*
X176136181Y-79299336D01*
X176169666Y-79360659D01*
X176172500Y-79387017D01*
X176172500Y-89112983D01*
X176152815Y-89180022D01*
X176136181Y-89200664D01*
X172522664Y-92814181D01*
X172461341Y-92847666D01*
X172434983Y-92850500D01*
X167412017Y-92850500D01*
X167344978Y-92830815D01*
X167299223Y-92778011D01*
X167289279Y-92708853D01*
X167318304Y-92645297D01*
X167324336Y-92638819D01*
X171831334Y-88131821D01*
X171892657Y-88098336D01*
X171919015Y-88095502D01*
X172204269Y-88095502D01*
X172234698Y-88092648D01*
X172234700Y-88092648D01*
X172305727Y-88067794D01*
X172362881Y-88047795D01*
X172472149Y-87967152D01*
X172552792Y-87857884D01*
X172580588Y-87778447D01*
X172597645Y-87729703D01*
X172597645Y-87729701D01*
X172600499Y-87699271D01*
X172600499Y-87120541D01*
X173099998Y-87120541D01*
X173137274Y-87307934D01*
X173137276Y-87307940D01*
X173210396Y-87484467D01*
X173316552Y-87643343D01*
X173451657Y-87778448D01*
X173610535Y-87884606D01*
X173787055Y-87957722D01*
X173787062Y-87957724D01*
X173819999Y-87964275D01*
X173819999Y-87342711D01*
X173840338Y-87354454D01*
X173991666Y-87395002D01*
X174148332Y-87395002D01*
X174299660Y-87354454D01*
X174319999Y-87342711D01*
X174319999Y-87964275D01*
X174352935Y-87957724D01*
X174352942Y-87957722D01*
X174529462Y-87884606D01*
X174688340Y-87778448D01*
X174823445Y-87643343D01*
X174929601Y-87484467D01*
X175002721Y-87307940D01*
X175002723Y-87307934D01*
X175039999Y-87120541D01*
X175039999Y-87050002D01*
X174612708Y-87050002D01*
X174624451Y-87029663D01*
X174664999Y-86878335D01*
X174664999Y-86721669D01*
X174624451Y-86570341D01*
X174612708Y-86550002D01*
X175039999Y-86550002D01*
X175039999Y-86479462D01*
X175002723Y-86292069D01*
X175002721Y-86292063D01*
X174929601Y-86115536D01*
X174823445Y-85956660D01*
X174688340Y-85821555D01*
X174529464Y-85715399D01*
X174352935Y-85642278D01*
X174352930Y-85642276D01*
X174319999Y-85635726D01*
X174319999Y-86257292D01*
X174299660Y-86245550D01*
X174148332Y-86205002D01*
X173991666Y-86205002D01*
X173840338Y-86245550D01*
X173819999Y-86257292D01*
X173819999Y-85635727D01*
X173819998Y-85635726D01*
X173787067Y-85642276D01*
X173787062Y-85642278D01*
X173610533Y-85715399D01*
X173451657Y-85821555D01*
X173316552Y-85956660D01*
X173210396Y-86115536D01*
X173137276Y-86292063D01*
X173137274Y-86292069D01*
X173099999Y-86479462D01*
X173099999Y-86550002D01*
X173527290Y-86550002D01*
X173515547Y-86570341D01*
X173474999Y-86721669D01*
X173474999Y-86878335D01*
X173515547Y-87029663D01*
X173527290Y-87050002D01*
X173099999Y-87050002D01*
X173099999Y-87120541D01*
X173099998Y-87120541D01*
X172600499Y-87120541D01*
X172600499Y-85900732D01*
X172597645Y-85870302D01*
X172597645Y-85870300D01*
X172564005Y-85774165D01*
X172552792Y-85742120D01*
X172472149Y-85632852D01*
X172362881Y-85552209D01*
X172362879Y-85552208D01*
X172234699Y-85507355D01*
X172204269Y-85504502D01*
X172204265Y-85504502D01*
X170855733Y-85504502D01*
X170855729Y-85504502D01*
X170825299Y-85507355D01*
X170825297Y-85507355D01*
X170697118Y-85552208D01*
X170697116Y-85552209D01*
X170587849Y-85632852D01*
X170507206Y-85742119D01*
X170507205Y-85742121D01*
X170462352Y-85870300D01*
X170462352Y-85870302D01*
X170459499Y-85900732D01*
X170459499Y-87699271D01*
X170462352Y-87729701D01*
X170462352Y-87729703D01*
X170507205Y-87857881D01*
X170507206Y-87857884D01*
X170587849Y-87967152D01*
X170697117Y-88047795D01*
X170715836Y-88054345D01*
X170727107Y-88058289D01*
X170783883Y-88099011D01*
X170809630Y-88163964D01*
X170796173Y-88232525D01*
X170773833Y-88263011D01*
X166676664Y-92360181D01*
X166615341Y-92393666D01*
X166588983Y-92396500D01*
X161691016Y-92396500D01*
X161623977Y-92376815D01*
X161578222Y-92324011D01*
X161568278Y-92254853D01*
X161597303Y-92191297D01*
X161603335Y-92184819D01*
X165656334Y-88131820D01*
X165717657Y-88098335D01*
X165744015Y-88095501D01*
X166004268Y-88095501D01*
X166034697Y-88092647D01*
X166034699Y-88092647D01*
X166105723Y-88067794D01*
X166162880Y-88047794D01*
X166272148Y-87967151D01*
X166352791Y-87857883D01*
X166376284Y-87790744D01*
X166397644Y-87729702D01*
X166397644Y-87729700D01*
X166400498Y-87699270D01*
X166400498Y-87120540D01*
X166899997Y-87120540D01*
X166937273Y-87307933D01*
X166937275Y-87307939D01*
X167010395Y-87484466D01*
X167116551Y-87643342D01*
X167251656Y-87778447D01*
X167410534Y-87884605D01*
X167587054Y-87957721D01*
X167587061Y-87957723D01*
X167619998Y-87964274D01*
X167619998Y-87342710D01*
X167640337Y-87354453D01*
X167791665Y-87395001D01*
X167948331Y-87395001D01*
X168099659Y-87354453D01*
X168119998Y-87342710D01*
X168119998Y-87964274D01*
X168152934Y-87957723D01*
X168152941Y-87957721D01*
X168329461Y-87884605D01*
X168488339Y-87778447D01*
X168623444Y-87643342D01*
X168729600Y-87484466D01*
X168802720Y-87307939D01*
X168802722Y-87307933D01*
X168839998Y-87120540D01*
X168839998Y-87050001D01*
X168412707Y-87050001D01*
X168424450Y-87029662D01*
X168464998Y-86878334D01*
X168464998Y-86721668D01*
X168424450Y-86570340D01*
X168412707Y-86550001D01*
X168839998Y-86550001D01*
X168839998Y-86479461D01*
X168802722Y-86292068D01*
X168802720Y-86292062D01*
X168729600Y-86115535D01*
X168623444Y-85956659D01*
X168488339Y-85821554D01*
X168329463Y-85715398D01*
X168152934Y-85642277D01*
X168152929Y-85642275D01*
X168119998Y-85635725D01*
X168119998Y-86257291D01*
X168099659Y-86245549D01*
X167948331Y-86205001D01*
X167791665Y-86205001D01*
X167640337Y-86245549D01*
X167619998Y-86257291D01*
X167619998Y-85635726D01*
X167619997Y-85635725D01*
X167587066Y-85642275D01*
X167587061Y-85642277D01*
X167410532Y-85715398D01*
X167251656Y-85821554D01*
X167116551Y-85956659D01*
X167010395Y-86115535D01*
X166937275Y-86292062D01*
X166937273Y-86292068D01*
X166899998Y-86479461D01*
X166899998Y-86550001D01*
X167327289Y-86550001D01*
X167315546Y-86570340D01*
X167274998Y-86721668D01*
X167274998Y-86878334D01*
X167315546Y-87029662D01*
X167327289Y-87050001D01*
X166899998Y-87050001D01*
X166899998Y-87120540D01*
X166899997Y-87120540D01*
X166400498Y-87120540D01*
X166400498Y-85900731D01*
X166397644Y-85870301D01*
X166397644Y-85870299D01*
X166359790Y-85762121D01*
X166352791Y-85742119D01*
X166272148Y-85632851D01*
X166162880Y-85552208D01*
X166162878Y-85552207D01*
X166034698Y-85507354D01*
X166004268Y-85504501D01*
X166004264Y-85504501D01*
X164655732Y-85504501D01*
X164655728Y-85504501D01*
X164625298Y-85507354D01*
X164625296Y-85507354D01*
X164497117Y-85552207D01*
X164497115Y-85552208D01*
X164387848Y-85632851D01*
X164307205Y-85742118D01*
X164307204Y-85742120D01*
X164262351Y-85870299D01*
X164262351Y-85870301D01*
X164259498Y-85900731D01*
X164259498Y-87699270D01*
X164262351Y-87729700D01*
X164262351Y-87729702D01*
X164307204Y-87857880D01*
X164307205Y-87857883D01*
X164387848Y-87967151D01*
X164497116Y-88047794D01*
X164545629Y-88064769D01*
X164602402Y-88105488D01*
X164628150Y-88170441D01*
X164614694Y-88239003D01*
X164592353Y-88269490D01*
X164111530Y-88750313D01*
X164050207Y-88783798D01*
X163980515Y-88778814D01*
X163924582Y-88736942D01*
X163900165Y-88671478D01*
X163904074Y-88630537D01*
X163905178Y-88626413D01*
X163905181Y-88626410D01*
X163927500Y-88543116D01*
X163927500Y-88456884D01*
X163927500Y-81917017D01*
X163947185Y-81849978D01*
X163963815Y-81829340D01*
X164561506Y-81231648D01*
X164622827Y-81198165D01*
X164652834Y-81195647D01*
X164652834Y-81195502D01*
X164654573Y-81195502D01*
X164654990Y-81195467D01*
X164655729Y-81195501D01*
X164655733Y-81195502D01*
X164655737Y-81195502D01*
X166004269Y-81195502D01*
X166034698Y-81192648D01*
X166034700Y-81192648D01*
X166105727Y-81167794D01*
X166162881Y-81147795D01*
X166272149Y-81067152D01*
X166352792Y-80957884D01*
X166380588Y-80878447D01*
X166397645Y-80829703D01*
X166397645Y-80829701D01*
X166400499Y-80799271D01*
X166400499Y-80220541D01*
X166899998Y-80220541D01*
X166937274Y-80407934D01*
X166937276Y-80407940D01*
X167010396Y-80584467D01*
X167116552Y-80743343D01*
X167251657Y-80878448D01*
X167410535Y-80984606D01*
X167587055Y-81057722D01*
X167587062Y-81057724D01*
X167619999Y-81064275D01*
X167619999Y-80442711D01*
X167640338Y-80454454D01*
X167791666Y-80495002D01*
X167948332Y-80495002D01*
X168099660Y-80454454D01*
X168119999Y-80442711D01*
X168119999Y-81064275D01*
X168152935Y-81057724D01*
X168152942Y-81057722D01*
X168329462Y-80984606D01*
X168488340Y-80878448D01*
X168623445Y-80743343D01*
X168729601Y-80584467D01*
X168802721Y-80407940D01*
X168802723Y-80407934D01*
X168839999Y-80220541D01*
X168839999Y-80150002D01*
X168412708Y-80150002D01*
X168424451Y-80129663D01*
X168464999Y-79978335D01*
X168464999Y-79821669D01*
X168424451Y-79670341D01*
X168412708Y-79650002D01*
X168839999Y-79650002D01*
X168839999Y-79579462D01*
X168802723Y-79392069D01*
X168802721Y-79392063D01*
X168729601Y-79215536D01*
X168623445Y-79056660D01*
X168488340Y-78921555D01*
X168329464Y-78815399D01*
X168152935Y-78742278D01*
X168152930Y-78742276D01*
X168119999Y-78735726D01*
X168119999Y-79357292D01*
X168099660Y-79345550D01*
X167948332Y-79305002D01*
X167791666Y-79305002D01*
X167640338Y-79345550D01*
X167619999Y-79357292D01*
X167619999Y-78735727D01*
X167619998Y-78735726D01*
X167587067Y-78742276D01*
X167587062Y-78742278D01*
X167410533Y-78815399D01*
X167251657Y-78921555D01*
X167116552Y-79056660D01*
X167010396Y-79215536D01*
X166937276Y-79392063D01*
X166937274Y-79392069D01*
X166899999Y-79579462D01*
X166899999Y-79650002D01*
X167327290Y-79650002D01*
X167315547Y-79670341D01*
X167274999Y-79821669D01*
X167274999Y-79978335D01*
X167315547Y-80129663D01*
X167327290Y-80150002D01*
X166899999Y-80150002D01*
X166899999Y-80220541D01*
X166899998Y-80220541D01*
X166400499Y-80220541D01*
X166400499Y-79000732D01*
X166397645Y-78970302D01*
X166397645Y-78970300D01*
X166364005Y-78874165D01*
X166352792Y-78842120D01*
X166272149Y-78732852D01*
X166162881Y-78652209D01*
X166162879Y-78652208D01*
X166034699Y-78607355D01*
X166004269Y-78604502D01*
X166004265Y-78604502D01*
X164655733Y-78604502D01*
X164655729Y-78604502D01*
X164625299Y-78607355D01*
X164625297Y-78607355D01*
X164497118Y-78652208D01*
X164497116Y-78652209D01*
X164387849Y-78732852D01*
X164307206Y-78842119D01*
X164307205Y-78842121D01*
X164262352Y-78970300D01*
X164262352Y-78970302D01*
X164259499Y-79000732D01*
X164259499Y-80555985D01*
X164239814Y-80623024D01*
X164223180Y-80643666D01*
X163337936Y-81528909D01*
X163337934Y-81528912D01*
X163294819Y-81603590D01*
X163294819Y-81603591D01*
X163276063Y-81673590D01*
X163272500Y-81686886D01*
X163272500Y-88312983D01*
X163252815Y-88380022D01*
X163236181Y-88400664D01*
X160184664Y-91452181D01*
X160123341Y-91485666D01*
X160096983Y-91488500D01*
X156474017Y-91488500D01*
X156406978Y-91468815D01*
X156361223Y-91416011D01*
X156351279Y-91346853D01*
X156380304Y-91283297D01*
X156386336Y-91276819D01*
X157863155Y-89800000D01*
X159482064Y-88181091D01*
X159495682Y-88157502D01*
X159546249Y-88109287D01*
X159603070Y-88095502D01*
X159794269Y-88095502D01*
X159824698Y-88092648D01*
X159824700Y-88092648D01*
X159895727Y-88067794D01*
X159952881Y-88047795D01*
X160062149Y-87967152D01*
X160142792Y-87857884D01*
X160170588Y-87778447D01*
X160187645Y-87729703D01*
X160187645Y-87729701D01*
X160190499Y-87699271D01*
X160190499Y-87120541D01*
X160689998Y-87120541D01*
X160727274Y-87307934D01*
X160727276Y-87307940D01*
X160800396Y-87484467D01*
X160906552Y-87643343D01*
X161041657Y-87778448D01*
X161200535Y-87884606D01*
X161377055Y-87957722D01*
X161377062Y-87957724D01*
X161409999Y-87964275D01*
X161409999Y-87342711D01*
X161430338Y-87354454D01*
X161581666Y-87395002D01*
X161738332Y-87395002D01*
X161889660Y-87354454D01*
X161909999Y-87342711D01*
X161909999Y-87964275D01*
X161942935Y-87957724D01*
X161942942Y-87957722D01*
X162119462Y-87884606D01*
X162278340Y-87778448D01*
X162413445Y-87643343D01*
X162519601Y-87484467D01*
X162592721Y-87307940D01*
X162592723Y-87307934D01*
X162629999Y-87120541D01*
X162629999Y-87050002D01*
X162202708Y-87050002D01*
X162214451Y-87029663D01*
X162254999Y-86878335D01*
X162254999Y-86721669D01*
X162214451Y-86570341D01*
X162202708Y-86550002D01*
X162629999Y-86550002D01*
X162629999Y-86479462D01*
X162592723Y-86292069D01*
X162592721Y-86292063D01*
X162519601Y-86115536D01*
X162413445Y-85956660D01*
X162278340Y-85821555D01*
X162119464Y-85715399D01*
X161942935Y-85642278D01*
X161942930Y-85642276D01*
X161909999Y-85635726D01*
X161909999Y-86257292D01*
X161889660Y-86245550D01*
X161738332Y-86205002D01*
X161581666Y-86205002D01*
X161430338Y-86245550D01*
X161409999Y-86257292D01*
X161409999Y-85635727D01*
X161409998Y-85635726D01*
X161377067Y-85642276D01*
X161377062Y-85642278D01*
X161200533Y-85715399D01*
X161041657Y-85821555D01*
X160906552Y-85956660D01*
X160800396Y-86115536D01*
X160727276Y-86292063D01*
X160727274Y-86292069D01*
X160689999Y-86479462D01*
X160689999Y-86550002D01*
X161117290Y-86550002D01*
X161105547Y-86570341D01*
X161064999Y-86721669D01*
X161064999Y-86878335D01*
X161105547Y-87029663D01*
X161117290Y-87050002D01*
X160689999Y-87050002D01*
X160689999Y-87120541D01*
X160689998Y-87120541D01*
X160190499Y-87120541D01*
X160190499Y-85900732D01*
X160187645Y-85870302D01*
X160187645Y-85870300D01*
X160154005Y-85774165D01*
X160142792Y-85742120D01*
X160062149Y-85632852D01*
X159952881Y-85552209D01*
X159952879Y-85552208D01*
X159824699Y-85507355D01*
X159794269Y-85504502D01*
X159794265Y-85504502D01*
X158445733Y-85504502D01*
X158445729Y-85504502D01*
X158415299Y-85507355D01*
X158415297Y-85507355D01*
X158287118Y-85552208D01*
X158287116Y-85552209D01*
X158177849Y-85632852D01*
X158097206Y-85742119D01*
X158097205Y-85742121D01*
X158052352Y-85870300D01*
X158052352Y-85870302D01*
X158049499Y-85900732D01*
X158049499Y-87699271D01*
X158052352Y-87729701D01*
X158052352Y-87729703D01*
X158097205Y-87857881D01*
X158097206Y-87857884D01*
X158177849Y-87967152D01*
X158287117Y-88047795D01*
X158342439Y-88067152D01*
X158398594Y-88086803D01*
X158455369Y-88127525D01*
X158481116Y-88192478D01*
X158467659Y-88261039D01*
X158445319Y-88291525D01*
X155738664Y-90998181D01*
X155677341Y-91031666D01*
X155650983Y-91034500D01*
X154928017Y-91034500D01*
X154860978Y-91014815D01*
X154815223Y-90962011D01*
X154805279Y-90892853D01*
X154834304Y-90829297D01*
X154840336Y-90822819D01*
X156220877Y-89442278D01*
X157662065Y-88001090D01*
X157705181Y-87926410D01*
X157727500Y-87843116D01*
X157727500Y-87756884D01*
X157727500Y-81927017D01*
X157747185Y-81859978D01*
X157763815Y-81839340D01*
X158351506Y-81251648D01*
X158412827Y-81218165D01*
X158442834Y-81215647D01*
X158442834Y-81215502D01*
X158444573Y-81215502D01*
X158444990Y-81215467D01*
X158445729Y-81215501D01*
X158445733Y-81215502D01*
X158445737Y-81215502D01*
X159794269Y-81215502D01*
X159824698Y-81212648D01*
X159824700Y-81212648D01*
X159900228Y-81186219D01*
X159952881Y-81167795D01*
X160062149Y-81087152D01*
X160142792Y-80977884D01*
X160177586Y-80878448D01*
X160187645Y-80849703D01*
X160187645Y-80849701D01*
X160190499Y-80819271D01*
X160190499Y-80240541D01*
X160689998Y-80240541D01*
X160727274Y-80427934D01*
X160727276Y-80427940D01*
X160800396Y-80604467D01*
X160906552Y-80763343D01*
X161041657Y-80898448D01*
X161200535Y-81004606D01*
X161377055Y-81077722D01*
X161377062Y-81077724D01*
X161409999Y-81084275D01*
X161409999Y-80462711D01*
X161430338Y-80474454D01*
X161581666Y-80515002D01*
X161738332Y-80515002D01*
X161889660Y-80474454D01*
X161909999Y-80462711D01*
X161909999Y-81084275D01*
X161942935Y-81077724D01*
X161942942Y-81077722D01*
X162119462Y-81004606D01*
X162278340Y-80898448D01*
X162413445Y-80763343D01*
X162519601Y-80604467D01*
X162592721Y-80427940D01*
X162592723Y-80427934D01*
X162629999Y-80240541D01*
X162629999Y-80170002D01*
X162202708Y-80170002D01*
X162214451Y-80149663D01*
X162254999Y-79998335D01*
X162254999Y-79841669D01*
X162214451Y-79690341D01*
X162202708Y-79670002D01*
X162629999Y-79670002D01*
X162629999Y-79599462D01*
X162592723Y-79412069D01*
X162592721Y-79412063D01*
X162519601Y-79235536D01*
X162413445Y-79076660D01*
X162278340Y-78941555D01*
X162119464Y-78835399D01*
X161942935Y-78762278D01*
X161942930Y-78762276D01*
X161909999Y-78755726D01*
X161909999Y-79377292D01*
X161889660Y-79365550D01*
X161738332Y-79325002D01*
X161581666Y-79325002D01*
X161430338Y-79365550D01*
X161409999Y-79377292D01*
X161409999Y-78755727D01*
X161409998Y-78755726D01*
X161377067Y-78762276D01*
X161377062Y-78762278D01*
X161200533Y-78835399D01*
X161041657Y-78941555D01*
X160906552Y-79076660D01*
X160800396Y-79235536D01*
X160727276Y-79412063D01*
X160727274Y-79412069D01*
X160689999Y-79599462D01*
X160689999Y-79670002D01*
X161117290Y-79670002D01*
X161105547Y-79690341D01*
X161064999Y-79841669D01*
X161064999Y-79998335D01*
X161105547Y-80149663D01*
X161117290Y-80170002D01*
X160689999Y-80170002D01*
X160689999Y-80240541D01*
X160689998Y-80240541D01*
X160190499Y-80240541D01*
X160190499Y-79020732D01*
X160187645Y-78990302D01*
X160187645Y-78990300D01*
X160150986Y-78885537D01*
X160142792Y-78862120D01*
X160062149Y-78752852D01*
X159952881Y-78672209D01*
X159952879Y-78672208D01*
X159824699Y-78627355D01*
X159794269Y-78624502D01*
X159794265Y-78624502D01*
X158445733Y-78624502D01*
X158445729Y-78624502D01*
X158415299Y-78627355D01*
X158415297Y-78627355D01*
X158287118Y-78672208D01*
X158287116Y-78672209D01*
X158177849Y-78752852D01*
X158097206Y-78862119D01*
X158097205Y-78862121D01*
X158052352Y-78990300D01*
X158052352Y-78990302D01*
X158049499Y-79020732D01*
X158049499Y-80575985D01*
X158029814Y-80643024D01*
X158013180Y-80663666D01*
X157137936Y-81538909D01*
X157137934Y-81538912D01*
X157094819Y-81613590D01*
X157072500Y-81696886D01*
X157072500Y-87612983D01*
X157052815Y-87680022D01*
X157036181Y-87700664D01*
X154192664Y-90544181D01*
X154131341Y-90577666D01*
X154104983Y-90580500D01*
X150082018Y-90580500D01*
X150014979Y-90560815D01*
X149969224Y-90508011D01*
X149959280Y-90438853D01*
X149988305Y-90375297D01*
X149994337Y-90368819D01*
X150483156Y-89880000D01*
X152211506Y-88151648D01*
X152272827Y-88118165D01*
X152302834Y-88115647D01*
X152302834Y-88115502D01*
X152304573Y-88115502D01*
X152304990Y-88115467D01*
X152305729Y-88115501D01*
X152305733Y-88115502D01*
X152305737Y-88115502D01*
X153654269Y-88115502D01*
X153684698Y-88112648D01*
X153684700Y-88112648D01*
X153760231Y-88086218D01*
X153812881Y-88067795D01*
X153922149Y-87987152D01*
X154002792Y-87877884D01*
X154032446Y-87793137D01*
X154047645Y-87749703D01*
X154047645Y-87749701D01*
X154050499Y-87719271D01*
X154050499Y-87140541D01*
X154549998Y-87140541D01*
X154587274Y-87327934D01*
X154587276Y-87327940D01*
X154660396Y-87504467D01*
X154766552Y-87663343D01*
X154901657Y-87798448D01*
X155060535Y-87904606D01*
X155237055Y-87977722D01*
X155237062Y-87977724D01*
X155269999Y-87984275D01*
X155269999Y-87362711D01*
X155290338Y-87374454D01*
X155441666Y-87415002D01*
X155598332Y-87415002D01*
X155749660Y-87374454D01*
X155769999Y-87362711D01*
X155769999Y-87984275D01*
X155802935Y-87977724D01*
X155802942Y-87977722D01*
X155979462Y-87904606D01*
X156138340Y-87798448D01*
X156273445Y-87663343D01*
X156379601Y-87504467D01*
X156452721Y-87327940D01*
X156452723Y-87327934D01*
X156489999Y-87140541D01*
X156489999Y-87070002D01*
X156062708Y-87070002D01*
X156074451Y-87049663D01*
X156114999Y-86898335D01*
X156114999Y-86741669D01*
X156074451Y-86590341D01*
X156062708Y-86570002D01*
X156489999Y-86570002D01*
X156489999Y-86499462D01*
X156452723Y-86312069D01*
X156452721Y-86312063D01*
X156379601Y-86135536D01*
X156273445Y-85976660D01*
X156138340Y-85841555D01*
X155979464Y-85735399D01*
X155802935Y-85662278D01*
X155802930Y-85662276D01*
X155769999Y-85655726D01*
X155769999Y-86277292D01*
X155749660Y-86265550D01*
X155598332Y-86225002D01*
X155441666Y-86225002D01*
X155290338Y-86265550D01*
X155269999Y-86277292D01*
X155269999Y-85655727D01*
X155269998Y-85655726D01*
X155237067Y-85662276D01*
X155237062Y-85662278D01*
X155060533Y-85735399D01*
X154901657Y-85841555D01*
X154766552Y-85976660D01*
X154660396Y-86135536D01*
X154587276Y-86312063D01*
X154587274Y-86312069D01*
X154549999Y-86499462D01*
X154549999Y-86570002D01*
X154977290Y-86570002D01*
X154965547Y-86590341D01*
X154924999Y-86741669D01*
X154924999Y-86898335D01*
X154965547Y-87049663D01*
X154977290Y-87070002D01*
X154549999Y-87070002D01*
X154549999Y-87140541D01*
X154549998Y-87140541D01*
X154050499Y-87140541D01*
X154050499Y-85920732D01*
X154047645Y-85890302D01*
X154047645Y-85890300D01*
X154007503Y-85775583D01*
X154002792Y-85762120D01*
X153922149Y-85652852D01*
X153812881Y-85572209D01*
X153812879Y-85572208D01*
X153684699Y-85527355D01*
X153654269Y-85524502D01*
X153654265Y-85524502D01*
X152305733Y-85524502D01*
X152305729Y-85524502D01*
X152275299Y-85527355D01*
X152275297Y-85527355D01*
X152147118Y-85572208D01*
X152147116Y-85572209D01*
X152037849Y-85652852D01*
X151957206Y-85762119D01*
X151957205Y-85762121D01*
X151912352Y-85890300D01*
X151912352Y-85890302D01*
X151909499Y-85920732D01*
X151909499Y-87475985D01*
X151889814Y-87543024D01*
X151873184Y-87563661D01*
X151793506Y-87643340D01*
X151728298Y-87708548D01*
X151666975Y-87742032D01*
X151597283Y-87737048D01*
X151541350Y-87695176D01*
X151516933Y-87629712D01*
X151520842Y-87588776D01*
X151527500Y-87563930D01*
X151527500Y-87477698D01*
X151527500Y-81987017D01*
X151547185Y-81919978D01*
X151563815Y-81899340D01*
X152211506Y-81251648D01*
X152272827Y-81218165D01*
X152302834Y-81215647D01*
X152302834Y-81215502D01*
X152304573Y-81215502D01*
X152304990Y-81215467D01*
X152305729Y-81215501D01*
X152305733Y-81215502D01*
X152305737Y-81215502D01*
X153654269Y-81215502D01*
X153684698Y-81212648D01*
X153684700Y-81212648D01*
X153760228Y-81186219D01*
X153812881Y-81167795D01*
X153922149Y-81087152D01*
X154002792Y-80977884D01*
X154037586Y-80878448D01*
X154047645Y-80849703D01*
X154047645Y-80849701D01*
X154050499Y-80819271D01*
X154050499Y-80240541D01*
X154549998Y-80240541D01*
X154587274Y-80427934D01*
X154587276Y-80427940D01*
X154660396Y-80604467D01*
X154766552Y-80763343D01*
X154901657Y-80898448D01*
X155060535Y-81004606D01*
X155237055Y-81077722D01*
X155237062Y-81077724D01*
X155269999Y-81084275D01*
X155269999Y-80462711D01*
X155290338Y-80474454D01*
X155441666Y-80515002D01*
X155598332Y-80515002D01*
X155749660Y-80474454D01*
X155769999Y-80462711D01*
X155769999Y-81084275D01*
X155802935Y-81077724D01*
X155802942Y-81077722D01*
X155979462Y-81004606D01*
X156138340Y-80898448D01*
X156273445Y-80763343D01*
X156379601Y-80604467D01*
X156452721Y-80427940D01*
X156452723Y-80427934D01*
X156489999Y-80240541D01*
X156489999Y-80170002D01*
X156062708Y-80170002D01*
X156074451Y-80149663D01*
X156114999Y-79998335D01*
X156114999Y-79841669D01*
X156074451Y-79690341D01*
X156062708Y-79670002D01*
X156489999Y-79670002D01*
X156489999Y-79599462D01*
X156452723Y-79412069D01*
X156452721Y-79412063D01*
X156379601Y-79235536D01*
X156273445Y-79076660D01*
X156138340Y-78941555D01*
X155979464Y-78835399D01*
X155802935Y-78762278D01*
X155802930Y-78762276D01*
X155769999Y-78755726D01*
X155769999Y-79377292D01*
X155749660Y-79365550D01*
X155598332Y-79325002D01*
X155441666Y-79325002D01*
X155290338Y-79365550D01*
X155269999Y-79377292D01*
X155269999Y-78755727D01*
X155269998Y-78755726D01*
X155237067Y-78762276D01*
X155237062Y-78762278D01*
X155060533Y-78835399D01*
X154901657Y-78941555D01*
X154766552Y-79076660D01*
X154660396Y-79235536D01*
X154587276Y-79412063D01*
X154587274Y-79412069D01*
X154549999Y-79599462D01*
X154549999Y-79670002D01*
X154977290Y-79670002D01*
X154965547Y-79690341D01*
X154924999Y-79841669D01*
X154924999Y-79998335D01*
X154965547Y-80149663D01*
X154977290Y-80170002D01*
X154549999Y-80170002D01*
X154549999Y-80240541D01*
X154549998Y-80240541D01*
X154050499Y-80240541D01*
X154050499Y-79020732D01*
X154047645Y-78990302D01*
X154047645Y-78990300D01*
X154010986Y-78885537D01*
X154002792Y-78862120D01*
X153922149Y-78752852D01*
X153812881Y-78672209D01*
X153812879Y-78672208D01*
X153684699Y-78627355D01*
X153654269Y-78624502D01*
X153654265Y-78624502D01*
X152305733Y-78624502D01*
X152305729Y-78624502D01*
X152275299Y-78627355D01*
X152275297Y-78627355D01*
X152147118Y-78672208D01*
X152147116Y-78672209D01*
X152037849Y-78752852D01*
X151957206Y-78862119D01*
X151957205Y-78862121D01*
X151912352Y-78990300D01*
X151912352Y-78990302D01*
X151909499Y-79020732D01*
X151909499Y-80575985D01*
X151889814Y-80643024D01*
X151873180Y-80663666D01*
X150937936Y-81598909D01*
X150937934Y-81598912D01*
X150894819Y-81673590D01*
X150872500Y-81756886D01*
X150872500Y-87333797D01*
X150852815Y-87400836D01*
X150836181Y-87421478D01*
X148621478Y-89636181D01*
X148560155Y-89669666D01*
X148533797Y-89672500D01*
X144290017Y-89672500D01*
X144222978Y-89652815D01*
X144177223Y-89600011D01*
X144167279Y-89530853D01*
X144196304Y-89467297D01*
X144202336Y-89460819D01*
X144568138Y-89095017D01*
X145689275Y-87973878D01*
X145750596Y-87940395D01*
X145820287Y-87945379D01*
X145850587Y-87961791D01*
X145967112Y-88047790D01*
X145967114Y-88047791D01*
X145967117Y-88047793D01*
X146009844Y-88062744D01*
X146095298Y-88092646D01*
X146125729Y-88095500D01*
X146125733Y-88095500D01*
X147474269Y-88095500D01*
X147504698Y-88092646D01*
X147504700Y-88092646D01*
X147575721Y-88067794D01*
X147632881Y-88047793D01*
X147742149Y-87967150D01*
X147822792Y-87857882D01*
X147850587Y-87778448D01*
X147867645Y-87729701D01*
X147867645Y-87729699D01*
X147870499Y-87699269D01*
X147870499Y-87120539D01*
X148369998Y-87120539D01*
X148407274Y-87307932D01*
X148407276Y-87307938D01*
X148480396Y-87484465D01*
X148586552Y-87643341D01*
X148721657Y-87778446D01*
X148880535Y-87884604D01*
X149057055Y-87957720D01*
X149057062Y-87957722D01*
X149089999Y-87964273D01*
X149089999Y-87342709D01*
X149110338Y-87354452D01*
X149261666Y-87395000D01*
X149418332Y-87395000D01*
X149569660Y-87354452D01*
X149589999Y-87342709D01*
X149589999Y-87964273D01*
X149622935Y-87957722D01*
X149622942Y-87957720D01*
X149799462Y-87884604D01*
X149958340Y-87778446D01*
X150093445Y-87643341D01*
X150199601Y-87484465D01*
X150272721Y-87307938D01*
X150272723Y-87307932D01*
X150309999Y-87120539D01*
X150309999Y-87050000D01*
X149882708Y-87050000D01*
X149894451Y-87029661D01*
X149934999Y-86878333D01*
X149934999Y-86721667D01*
X149894451Y-86570339D01*
X149882708Y-86550000D01*
X150309999Y-86550000D01*
X150309999Y-86479460D01*
X150272723Y-86292067D01*
X150272721Y-86292061D01*
X150199601Y-86115534D01*
X150093445Y-85956658D01*
X149958340Y-85821553D01*
X149799464Y-85715397D01*
X149622935Y-85642276D01*
X149622930Y-85642274D01*
X149589999Y-85635724D01*
X149589999Y-86257290D01*
X149569660Y-86245548D01*
X149418332Y-86205000D01*
X149261666Y-86205000D01*
X149110338Y-86245548D01*
X149089999Y-86257290D01*
X149089999Y-85635725D01*
X149089998Y-85635724D01*
X149057067Y-85642274D01*
X149057062Y-85642276D01*
X148880533Y-85715397D01*
X148721657Y-85821553D01*
X148586552Y-85956658D01*
X148480396Y-86115534D01*
X148407276Y-86292061D01*
X148407274Y-86292067D01*
X148369999Y-86479460D01*
X148369999Y-86550000D01*
X148797290Y-86550000D01*
X148785547Y-86570339D01*
X148744999Y-86721667D01*
X148744999Y-86878333D01*
X148785547Y-87029661D01*
X148797290Y-87050000D01*
X148369999Y-87050000D01*
X148369999Y-87120539D01*
X148369998Y-87120539D01*
X147870499Y-87120539D01*
X147870499Y-85900730D01*
X147867645Y-85870300D01*
X147867645Y-85870298D01*
X147829791Y-85762120D01*
X147822792Y-85742118D01*
X147742149Y-85632850D01*
X147632881Y-85552207D01*
X147632879Y-85552206D01*
X147504699Y-85507353D01*
X147474269Y-85504500D01*
X147474265Y-85504500D01*
X146125733Y-85504500D01*
X146125729Y-85504500D01*
X146095299Y-85507353D01*
X146095297Y-85507353D01*
X145967118Y-85552206D01*
X145967116Y-85552207D01*
X145857849Y-85632850D01*
X145777206Y-85742117D01*
X145777205Y-85742119D01*
X145732352Y-85870298D01*
X145732352Y-85870300D01*
X145729499Y-85900730D01*
X145729499Y-86955983D01*
X145709814Y-87023022D01*
X145693180Y-87043664D01*
X145039181Y-87697663D01*
X144977858Y-87731148D01*
X144908166Y-87726164D01*
X144852233Y-87684292D01*
X144827816Y-87618828D01*
X144827500Y-87609982D01*
X144827500Y-82457016D01*
X144847185Y-82389977D01*
X144863814Y-82369339D01*
X146001506Y-81231647D01*
X146062827Y-81198164D01*
X146092834Y-81195646D01*
X146092834Y-81195501D01*
X146094573Y-81195501D01*
X146094990Y-81195466D01*
X146095729Y-81195500D01*
X146095733Y-81195501D01*
X146095737Y-81195501D01*
X147444269Y-81195501D01*
X147474698Y-81192647D01*
X147474700Y-81192647D01*
X147545724Y-81167794D01*
X147602881Y-81147794D01*
X147712149Y-81067151D01*
X147792792Y-80957883D01*
X147815218Y-80893791D01*
X147837645Y-80829702D01*
X147837645Y-80829700D01*
X147840499Y-80799270D01*
X147840499Y-80220540D01*
X148339998Y-80220540D01*
X148377274Y-80407933D01*
X148377276Y-80407939D01*
X148450396Y-80584466D01*
X148556552Y-80743342D01*
X148691657Y-80878447D01*
X148850535Y-80984605D01*
X149027055Y-81057721D01*
X149027062Y-81057723D01*
X149059999Y-81064274D01*
X149059999Y-80442710D01*
X149080338Y-80454453D01*
X149231666Y-80495001D01*
X149388332Y-80495001D01*
X149539660Y-80454453D01*
X149559999Y-80442710D01*
X149559999Y-81064274D01*
X149592935Y-81057723D01*
X149592942Y-81057721D01*
X149769462Y-80984605D01*
X149928340Y-80878447D01*
X150063445Y-80743342D01*
X150169601Y-80584466D01*
X150242721Y-80407939D01*
X150242723Y-80407933D01*
X150279999Y-80220540D01*
X150279999Y-80150001D01*
X149852708Y-80150001D01*
X149864451Y-80129662D01*
X149904999Y-79978334D01*
X149904999Y-79821668D01*
X149864451Y-79670340D01*
X149852708Y-79650001D01*
X150279999Y-79650001D01*
X150279999Y-79579461D01*
X150242723Y-79392068D01*
X150242721Y-79392062D01*
X150169601Y-79215535D01*
X150063445Y-79056659D01*
X149928340Y-78921554D01*
X149769464Y-78815398D01*
X149592935Y-78742277D01*
X149592930Y-78742275D01*
X149559999Y-78735725D01*
X149559999Y-79357291D01*
X149539660Y-79345549D01*
X149388332Y-79305001D01*
X149231666Y-79305001D01*
X149080338Y-79345549D01*
X149059999Y-79357291D01*
X149059999Y-78735726D01*
X149059998Y-78735725D01*
X149027067Y-78742275D01*
X149027062Y-78742277D01*
X148850533Y-78815398D01*
X148691657Y-78921554D01*
X148556552Y-79056659D01*
X148450396Y-79215535D01*
X148377276Y-79392062D01*
X148377274Y-79392068D01*
X148339999Y-79579461D01*
X148339999Y-79650001D01*
X148767290Y-79650001D01*
X148755547Y-79670340D01*
X148714999Y-79821668D01*
X148714999Y-79978334D01*
X148755547Y-80129662D01*
X148767290Y-80150001D01*
X148339999Y-80150001D01*
X148339999Y-80220540D01*
X148339998Y-80220540D01*
X147840499Y-80220540D01*
X147840499Y-79000731D01*
X147837645Y-78970301D01*
X147837645Y-78970299D01*
X147799791Y-78862121D01*
X147792792Y-78842119D01*
X147712149Y-78732851D01*
X147602881Y-78652208D01*
X147602879Y-78652207D01*
X147474699Y-78607354D01*
X147444269Y-78604501D01*
X147444265Y-78604501D01*
X146095733Y-78604501D01*
X146095729Y-78604501D01*
X146065299Y-78607354D01*
X146065297Y-78607354D01*
X145937118Y-78652207D01*
X145937116Y-78652208D01*
X145827849Y-78732851D01*
X145747206Y-78842118D01*
X145747205Y-78842120D01*
X145702352Y-78970299D01*
X145702352Y-78970301D01*
X145699499Y-79000731D01*
X145699499Y-80555984D01*
X145679814Y-80623023D01*
X145663180Y-80643665D01*
X144237936Y-82068908D01*
X144237934Y-82068911D01*
X144194819Y-82143589D01*
X144172500Y-82226885D01*
X144172500Y-86025384D01*
X144152815Y-86092423D01*
X144100011Y-86138178D01*
X144030853Y-86148122D01*
X143967297Y-86119097D01*
X143945398Y-86094274D01*
X143853450Y-85956664D01*
X143853444Y-85956656D01*
X143718340Y-85821552D01*
X143559464Y-85715396D01*
X143382935Y-85642275D01*
X143382930Y-85642273D01*
X143349999Y-85635723D01*
X143349999Y-86257289D01*
X143329660Y-86245547D01*
X143178332Y-86204999D01*
X143021666Y-86204999D01*
X142870338Y-86245547D01*
X142849999Y-86257289D01*
X142849999Y-85635724D01*
X142849998Y-85635723D01*
X142817067Y-85642273D01*
X142817062Y-85642275D01*
X142640533Y-85715396D01*
X142481657Y-85821552D01*
X142346552Y-85956657D01*
X142240396Y-86115533D01*
X142167276Y-86292060D01*
X142167274Y-86292066D01*
X142129999Y-86479459D01*
X142129999Y-86549999D01*
X142557290Y-86549999D01*
X142545547Y-86570338D01*
X142504999Y-86721666D01*
X142504999Y-86878332D01*
X142545547Y-87029660D01*
X142557290Y-87049999D01*
X142129999Y-87049999D01*
X142129999Y-87120538D01*
X142129998Y-87120538D01*
X142167274Y-87307931D01*
X142167276Y-87307937D01*
X142240396Y-87484464D01*
X142346552Y-87643340D01*
X142481657Y-87778445D01*
X142640535Y-87884603D01*
X142817055Y-87957719D01*
X142817062Y-87957721D01*
X142849999Y-87964272D01*
X142849999Y-87342708D01*
X142870338Y-87354451D01*
X143021666Y-87394999D01*
X143178332Y-87394999D01*
X143329660Y-87354451D01*
X143349999Y-87342708D01*
X143349999Y-87964272D01*
X143382935Y-87957721D01*
X143382942Y-87957719D01*
X143559463Y-87884602D01*
X143696352Y-87793137D01*
X143763030Y-87772259D01*
X143830410Y-87790744D01*
X143877100Y-87842723D01*
X143888276Y-87911693D01*
X143860390Y-87975756D01*
X143852924Y-87983920D01*
X138039181Y-93797664D01*
X137977858Y-93831149D01*
X137908166Y-93826165D01*
X137852233Y-93784293D01*
X137827816Y-93718829D01*
X137827500Y-93709983D01*
X137827500Y-92113174D01*
X137847185Y-92046135D01*
X137863819Y-92025493D01*
X138473301Y-91416011D01*
X139216065Y-90673247D01*
X139259181Y-90598567D01*
X139281500Y-90515272D01*
X139281500Y-90429041D01*
X139281500Y-88693014D01*
X139301185Y-88625975D01*
X139317815Y-88605337D01*
X139791506Y-88131645D01*
X139852827Y-88098162D01*
X139882834Y-88095644D01*
X139882834Y-88095499D01*
X139884573Y-88095499D01*
X139884990Y-88095464D01*
X139885729Y-88095498D01*
X139885733Y-88095499D01*
X139885737Y-88095499D01*
X141234269Y-88095499D01*
X141264698Y-88092645D01*
X141264700Y-88092645D01*
X141344369Y-88064767D01*
X141392881Y-88047792D01*
X141502149Y-87967149D01*
X141582792Y-87857881D01*
X141610587Y-87778447D01*
X141627645Y-87729700D01*
X141627645Y-87729698D01*
X141630499Y-87699268D01*
X141630499Y-85900729D01*
X141627645Y-85870299D01*
X141627645Y-85870297D01*
X141589791Y-85762119D01*
X141582792Y-85742117D01*
X141502149Y-85632849D01*
X141392881Y-85552206D01*
X141392879Y-85552205D01*
X141264699Y-85507352D01*
X141234269Y-85504499D01*
X141234265Y-85504499D01*
X139885733Y-85504499D01*
X139885729Y-85504499D01*
X139855299Y-85507352D01*
X139855297Y-85507352D01*
X139727118Y-85552205D01*
X139727116Y-85552206D01*
X139617849Y-85632849D01*
X139537206Y-85742116D01*
X139537205Y-85742118D01*
X139492352Y-85870297D01*
X139492352Y-85870299D01*
X139489499Y-85900729D01*
X139489499Y-87455982D01*
X139469814Y-87523021D01*
X139453180Y-87543663D01*
X139039181Y-87957662D01*
X138977858Y-87991147D01*
X138908166Y-87986163D01*
X138852233Y-87944291D01*
X138827816Y-87878827D01*
X138827500Y-87869981D01*
X138827500Y-82247016D01*
X138847185Y-82179977D01*
X138863814Y-82159339D01*
X139791507Y-81231646D01*
X139852828Y-81198163D01*
X139882835Y-81195645D01*
X139882835Y-81195500D01*
X139884574Y-81195500D01*
X139884991Y-81195465D01*
X139885730Y-81195499D01*
X139885734Y-81195500D01*
X139885738Y-81195500D01*
X141234270Y-81195500D01*
X141264699Y-81192646D01*
X141264701Y-81192646D01*
X141335722Y-81167794D01*
X141392882Y-81147793D01*
X141502150Y-81067150D01*
X141582793Y-80957882D01*
X141610588Y-80878448D01*
X141627646Y-80829701D01*
X141627646Y-80829699D01*
X141630500Y-80799269D01*
X141630500Y-80220539D01*
X142129999Y-80220539D01*
X142167275Y-80407932D01*
X142167277Y-80407938D01*
X142240397Y-80584465D01*
X142346553Y-80743341D01*
X142481658Y-80878446D01*
X142640536Y-80984604D01*
X142817056Y-81057720D01*
X142817063Y-81057722D01*
X142850000Y-81064273D01*
X142850000Y-80442709D01*
X142870339Y-80454452D01*
X143021667Y-80495000D01*
X143178333Y-80495000D01*
X143329661Y-80454452D01*
X143350000Y-80442709D01*
X143350000Y-81064273D01*
X143382936Y-81057722D01*
X143382943Y-81057720D01*
X143559463Y-80984604D01*
X143718341Y-80878446D01*
X143853446Y-80743341D01*
X143959602Y-80584465D01*
X144032722Y-80407938D01*
X144032724Y-80407932D01*
X144070000Y-80220539D01*
X144070000Y-80150000D01*
X143642709Y-80150000D01*
X143654452Y-80129661D01*
X143695000Y-79978333D01*
X143695000Y-79821667D01*
X143654452Y-79670339D01*
X143642709Y-79650000D01*
X144070000Y-79650000D01*
X144070000Y-79579460D01*
X144032724Y-79392067D01*
X144032722Y-79392061D01*
X143959602Y-79215534D01*
X143853446Y-79056658D01*
X143718341Y-78921553D01*
X143559465Y-78815397D01*
X143382936Y-78742276D01*
X143382931Y-78742274D01*
X143350000Y-78735724D01*
X143350000Y-79357290D01*
X143329661Y-79345548D01*
X143178333Y-79305000D01*
X143021667Y-79305000D01*
X142870339Y-79345548D01*
X142850000Y-79357290D01*
X142850000Y-78735725D01*
X142849999Y-78735724D01*
X142817068Y-78742274D01*
X142817063Y-78742276D01*
X142640534Y-78815397D01*
X142481658Y-78921553D01*
X142346553Y-79056658D01*
X142240397Y-79215534D01*
X142167277Y-79392061D01*
X142167275Y-79392067D01*
X142130000Y-79579460D01*
X142130000Y-79650000D01*
X142557291Y-79650000D01*
X142545548Y-79670339D01*
X142505000Y-79821667D01*
X142505000Y-79978333D01*
X142545548Y-80129661D01*
X142557291Y-80150000D01*
X142130000Y-80150000D01*
X142130000Y-80220539D01*
X142129999Y-80220539D01*
X141630500Y-80220539D01*
X141630500Y-79000730D01*
X141627646Y-78970300D01*
X141627646Y-78970298D01*
X141589792Y-78862120D01*
X141582793Y-78842118D01*
X141502150Y-78732850D01*
X141392882Y-78652207D01*
X141392880Y-78652206D01*
X141264700Y-78607353D01*
X141234270Y-78604500D01*
X141234266Y-78604500D01*
X139885734Y-78604500D01*
X139885730Y-78604500D01*
X139855300Y-78607353D01*
X139855298Y-78607353D01*
X139727119Y-78652206D01*
X139727117Y-78652207D01*
X139617850Y-78732850D01*
X139537207Y-78842117D01*
X139537206Y-78842119D01*
X139492353Y-78970298D01*
X139492353Y-78970300D01*
X139489500Y-79000730D01*
X139489500Y-80555983D01*
X139469815Y-80623022D01*
X139453181Y-80643664D01*
X138237936Y-81858908D01*
X138237934Y-81858911D01*
X138194819Y-81933589D01*
X138172500Y-82016885D01*
X138172500Y-86799363D01*
X138152815Y-86866402D01*
X138100011Y-86912157D01*
X138030853Y-86922101D01*
X137967297Y-86893076D01*
X137929523Y-86834298D01*
X137928725Y-86831457D01*
X137922235Y-86807235D01*
X137905181Y-86743590D01*
X137862065Y-86668910D01*
X137801090Y-86607935D01*
X136375895Y-85182740D01*
X136342410Y-85121417D01*
X136344914Y-85059067D01*
X136385300Y-84925934D01*
X136405583Y-84720000D01*
X136385300Y-84514066D01*
X136325232Y-84316046D01*
X136227685Y-84133550D01*
X136155013Y-84044998D01*
X136096410Y-83973589D01*
X135936452Y-83842317D01*
X135936453Y-83842317D01*
X135936450Y-83842315D01*
X135753954Y-83744768D01*
X135555934Y-83684700D01*
X135555932Y-83684699D01*
X135555934Y-83684699D01*
X135350000Y-83664417D01*
X135144067Y-83684699D01*
X134946043Y-83744769D01*
X134836938Y-83803088D01*
X134763550Y-83842315D01*
X134763548Y-83842316D01*
X134763547Y-83842317D01*
X134603589Y-83973589D01*
X134472317Y-84133547D01*
X134374769Y-84316043D01*
X134314699Y-84514067D01*
X134294417Y-84720000D01*
X134314699Y-84925932D01*
X134314700Y-84925934D01*
X134374768Y-85123954D01*
X134472315Y-85306450D01*
X134506969Y-85348677D01*
X134603589Y-85466410D01*
X134677852Y-85527355D01*
X134763550Y-85597685D01*
X134946046Y-85695232D01*
X135144066Y-85755300D01*
X135144065Y-85755300D01*
X135159752Y-85756845D01*
X135350000Y-85775583D01*
X135555934Y-85755300D01*
X135753954Y-85695232D01*
X135808476Y-85666088D01*
X135876876Y-85651846D01*
X135942120Y-85676845D01*
X135954610Y-85687765D01*
X137236181Y-86969336D01*
X137269666Y-87030659D01*
X137272500Y-87057017D01*
X137272500Y-87609983D01*
X137252815Y-87677022D01*
X137200011Y-87722777D01*
X137130853Y-87732721D01*
X137067297Y-87703696D01*
X137060819Y-87697664D01*
X136393363Y-87030208D01*
X136362384Y-86978524D01*
X136325232Y-86856046D01*
X136227685Y-86673550D01*
X136175702Y-86610209D01*
X136096410Y-86513589D01*
X135936452Y-86382317D01*
X135936453Y-86382317D01*
X135936450Y-86382315D01*
X135753954Y-86284768D01*
X135555934Y-86224700D01*
X135555932Y-86224699D01*
X135555934Y-86224699D01*
X135350000Y-86204417D01*
X135144067Y-86224699D01*
X134946043Y-86284769D01*
X134835898Y-86343643D01*
X134763550Y-86382315D01*
X134763548Y-86382316D01*
X134763547Y-86382317D01*
X134603589Y-86513589D01*
X134472317Y-86673547D01*
X134374769Y-86856043D01*
X134314699Y-87054067D01*
X134294417Y-87260000D01*
X134314699Y-87465932D01*
X134344426Y-87563930D01*
X134374768Y-87663954D01*
X134472315Y-87846450D01*
X134501760Y-87882329D01*
X134603589Y-88006410D01*
X134678387Y-88067794D01*
X134763550Y-88137685D01*
X134946046Y-88235232D01*
X135144066Y-88295300D01*
X135144065Y-88295300D01*
X135159752Y-88296845D01*
X135350000Y-88315583D01*
X135555934Y-88295300D01*
X135753954Y-88235232D01*
X135936450Y-88137685D01*
X136096410Y-88006410D01*
X136165960Y-87921661D01*
X136223701Y-87882329D01*
X136293546Y-87880458D01*
X136349492Y-87912647D01*
X136536181Y-88099336D01*
X136569666Y-88160659D01*
X136572500Y-88187017D01*
X136572500Y-89375239D01*
X136552815Y-89442278D01*
X136500011Y-89488033D01*
X136430853Y-89497977D01*
X136367297Y-89468952D01*
X136329840Y-89411236D01*
X136328740Y-89407610D01*
X136325232Y-89396046D01*
X136227685Y-89213550D01*
X136162063Y-89133589D01*
X136096410Y-89053589D01*
X135946121Y-88930252D01*
X135936450Y-88922315D01*
X135753954Y-88824768D01*
X135555934Y-88764700D01*
X135555932Y-88764699D01*
X135555934Y-88764699D01*
X135350000Y-88744417D01*
X135144067Y-88764699D01*
X134946043Y-88824769D01*
X134870995Y-88864884D01*
X134763550Y-88922315D01*
X134763548Y-88922316D01*
X134763547Y-88922317D01*
X134603589Y-89053589D01*
X134472317Y-89213547D01*
X134374769Y-89396043D01*
X134314699Y-89594067D01*
X134294417Y-89800000D01*
X134314699Y-90005932D01*
X134374769Y-90203958D01*
X134403910Y-90258476D01*
X134418152Y-90326879D01*
X134393152Y-90392122D01*
X134382233Y-90404610D01*
X134072181Y-90714663D01*
X134010858Y-90748148D01*
X133941167Y-90743164D01*
X133885233Y-90701293D01*
X133860816Y-90635828D01*
X133860500Y-90626982D01*
X133860500Y-88930249D01*
X133860499Y-88930247D01*
X133848868Y-88871770D01*
X133848867Y-88871769D01*
X133804552Y-88805447D01*
X133738230Y-88761132D01*
X133738229Y-88761131D01*
X133679752Y-88749500D01*
X133679748Y-88749500D01*
X132374017Y-88749500D01*
X132306978Y-88729815D01*
X132286336Y-88713181D01*
X131663819Y-88090664D01*
X131630334Y-88029341D01*
X131627500Y-88002983D01*
X131627500Y-87771218D01*
X131647185Y-87704179D01*
X131699989Y-87658424D01*
X131769147Y-87648480D01*
X131832703Y-87677505D01*
X131860857Y-87712762D01*
X131932315Y-87846450D01*
X131961760Y-87882329D01*
X132063589Y-88006410D01*
X132138387Y-88067794D01*
X132223550Y-88137685D01*
X132406046Y-88235232D01*
X132604066Y-88295300D01*
X132604065Y-88295300D01*
X132619752Y-88296845D01*
X132810000Y-88315583D01*
X133015934Y-88295300D01*
X133213954Y-88235232D01*
X133396450Y-88137685D01*
X133556410Y-88006410D01*
X133687685Y-87846450D01*
X133785232Y-87663954D01*
X133845300Y-87465934D01*
X133865583Y-87260000D01*
X133845300Y-87054066D01*
X133785232Y-86856046D01*
X133687685Y-86673550D01*
X133635702Y-86610209D01*
X133556410Y-86513589D01*
X133396452Y-86382317D01*
X133396453Y-86382317D01*
X133396450Y-86382315D01*
X133213954Y-86284768D01*
X133015934Y-86224700D01*
X133015932Y-86224699D01*
X133015934Y-86224699D01*
X132810000Y-86204417D01*
X132604067Y-86224699D01*
X132406043Y-86284769D01*
X132295898Y-86343643D01*
X132223550Y-86382315D01*
X132223548Y-86382316D01*
X132223547Y-86382317D01*
X132063589Y-86513589D01*
X131932317Y-86673547D01*
X131860858Y-86807235D01*
X131811895Y-86857079D01*
X131743757Y-86872539D01*
X131678078Y-86848707D01*
X131635709Y-86793149D01*
X131627500Y-86748781D01*
X131627500Y-84927270D01*
X131647185Y-84860231D01*
X131699989Y-84814476D01*
X131769147Y-84804532D01*
X131832703Y-84833557D01*
X131870477Y-84892335D01*
X131873118Y-84903080D01*
X131873745Y-84906232D01*
X131928069Y-85085314D01*
X132016278Y-85250341D01*
X132016283Y-85250348D01*
X132134997Y-85395003D01*
X132279652Y-85513717D01*
X132279659Y-85513722D01*
X132444687Y-85601932D01*
X132560000Y-85636911D01*
X132560000Y-85153013D01*
X132617007Y-85185926D01*
X132744174Y-85220001D01*
X132875826Y-85220001D01*
X133002993Y-85185926D01*
X133060000Y-85153013D01*
X133060000Y-85636911D01*
X133175312Y-85601932D01*
X133340340Y-85513722D01*
X133340347Y-85513717D01*
X133485002Y-85395003D01*
X133603716Y-85250348D01*
X133603721Y-85250341D01*
X133691931Y-85085313D01*
X133726911Y-84970001D01*
X133243012Y-84970001D01*
X133275925Y-84912994D01*
X133310000Y-84785827D01*
X133310000Y-84654175D01*
X133275925Y-84527008D01*
X133243012Y-84470001D01*
X133726911Y-84470001D01*
X133691931Y-84354688D01*
X133603721Y-84189660D01*
X133603716Y-84189653D01*
X133485002Y-84044998D01*
X133340347Y-83926284D01*
X133340340Y-83926279D01*
X133175309Y-83838068D01*
X133060000Y-83803088D01*
X133060000Y-84286989D01*
X133002993Y-84254076D01*
X132875826Y-84220001D01*
X132744174Y-84220001D01*
X132617007Y-84254076D01*
X132560000Y-84286989D01*
X132560000Y-83803088D01*
X132444690Y-83838068D01*
X132279659Y-83926279D01*
X132279652Y-83926284D01*
X132134997Y-84044998D01*
X132016283Y-84189653D01*
X132016278Y-84189660D01*
X131928069Y-84354687D01*
X131873743Y-84533774D01*
X131873117Y-84536924D01*
X131872334Y-84538420D01*
X131871977Y-84539598D01*
X131871753Y-84539530D01*
X131840731Y-84598834D01*
X131780015Y-84633408D01*
X131710245Y-84629667D01*
X131653574Y-84588800D01*
X131627993Y-84523782D01*
X131627500Y-84512731D01*
X131627500Y-83187017D01*
X131647185Y-83119978D01*
X131663819Y-83099336D01*
X138799336Y-75963819D01*
X138860659Y-75930334D01*
X138887017Y-75927500D01*
X172712983Y-75927500D01*
X172780022Y-75947185D01*
G37*
%TD.AperFunction*%
%TA.AperFunction,Conductor*%
G36*
X187065243Y-71831565D02*
G01*
X187287990Y-71846164D01*
X187304048Y-71848279D01*
X187490075Y-71885282D01*
X187518971Y-71891030D01*
X187534638Y-71895228D01*
X187687769Y-71947209D01*
X187742144Y-71965667D01*
X187757121Y-71971870D01*
X187947991Y-72065996D01*
X187953660Y-72068792D01*
X187967708Y-72076902D01*
X188149912Y-72198648D01*
X188162773Y-72208516D01*
X188267695Y-72300530D01*
X188327528Y-72353002D01*
X188338997Y-72364471D01*
X188449360Y-72490317D01*
X188483480Y-72529223D01*
X188493354Y-72542091D01*
X188615097Y-72724292D01*
X188623207Y-72738339D01*
X188720126Y-72934871D01*
X188726333Y-72949857D01*
X188796771Y-73157361D01*
X188800969Y-73173028D01*
X188843718Y-73387940D01*
X188845836Y-73404021D01*
X188860435Y-73626756D01*
X188860700Y-73634866D01*
X188860700Y-123580880D01*
X188860699Y-123580894D01*
X188860699Y-123626700D01*
X188860434Y-123634807D01*
X188845840Y-123857538D01*
X188843723Y-123873620D01*
X188800975Y-124088546D01*
X188796777Y-124104213D01*
X188726344Y-124311715D01*
X188720137Y-124326701D01*
X188623220Y-124523237D01*
X188615110Y-124537284D01*
X188493363Y-124719496D01*
X188483491Y-124732361D01*
X188427414Y-124796307D01*
X188339013Y-124897112D01*
X188327544Y-124908581D01*
X188162787Y-125053072D01*
X188149925Y-125062941D01*
X187967720Y-125184691D01*
X187953672Y-125192801D01*
X187757135Y-125289723D01*
X187742150Y-125295930D01*
X187534646Y-125366369D01*
X187518979Y-125370567D01*
X187304062Y-125413318D01*
X187287980Y-125415436D01*
X187065243Y-125430035D01*
X187057133Y-125430300D01*
X117065267Y-125430300D01*
X117057157Y-125430035D01*
X116834421Y-125415436D01*
X116818340Y-125413318D01*
X116603428Y-125370569D01*
X116587761Y-125366371D01*
X116380257Y-125295933D01*
X116365271Y-125289726D01*
X116168739Y-125192807D01*
X116154692Y-125184697D01*
X115972491Y-125062954D01*
X115959623Y-125053080D01*
X115794871Y-124908597D01*
X115783402Y-124897128D01*
X115730930Y-124837295D01*
X115638916Y-124732373D01*
X115629045Y-124719508D01*
X115507302Y-124537307D01*
X115499192Y-124523260D01*
X115429306Y-124381545D01*
X115402270Y-124326721D01*
X115396066Y-124311742D01*
X115325628Y-124104238D01*
X115321430Y-124088571D01*
X115304606Y-124003995D01*
X146979499Y-124003995D01*
X147006418Y-124139322D01*
X147006421Y-124139332D01*
X147059221Y-124266804D01*
X147059228Y-124266817D01*
X147135885Y-124381541D01*
X147135888Y-124381545D01*
X147233454Y-124479111D01*
X147233458Y-124479114D01*
X147348182Y-124555771D01*
X147348195Y-124555778D01*
X147475667Y-124608578D01*
X147475672Y-124608580D01*
X147475676Y-124608580D01*
X147475677Y-124608581D01*
X147611004Y-124635500D01*
X147611007Y-124635500D01*
X147748995Y-124635500D01*
X147840041Y-124617389D01*
X147884328Y-124608580D01*
X148011811Y-124555775D01*
X148126542Y-124479114D01*
X148224114Y-124381542D01*
X148300775Y-124266811D01*
X148353580Y-124139328D01*
X148375690Y-124028176D01*
X148380500Y-124003995D01*
X155619499Y-124003995D01*
X155646418Y-124139322D01*
X155646421Y-124139332D01*
X155699221Y-124266804D01*
X155699228Y-124266817D01*
X155775885Y-124381541D01*
X155775888Y-124381545D01*
X155873454Y-124479111D01*
X155873458Y-124479114D01*
X155988182Y-124555771D01*
X155988195Y-124555778D01*
X156115667Y-124608578D01*
X156115672Y-124608580D01*
X156115676Y-124608580D01*
X156115677Y-124608581D01*
X156251004Y-124635500D01*
X156251007Y-124635500D01*
X156388995Y-124635500D01*
X156480041Y-124617389D01*
X156524328Y-124608580D01*
X156651811Y-124555775D01*
X156766542Y-124479114D01*
X156864114Y-124381542D01*
X156940775Y-124266811D01*
X156993580Y-124139328D01*
X157015690Y-124028176D01*
X157020500Y-124003995D01*
X157020500Y-123266004D01*
X156993581Y-123130677D01*
X156993580Y-123130676D01*
X156993580Y-123130672D01*
X156993578Y-123130667D01*
X156940778Y-123003195D01*
X156940771Y-123003182D01*
X156864114Y-122888458D01*
X156864111Y-122888454D01*
X156766545Y-122790888D01*
X156766541Y-122790885D01*
X156651817Y-122714228D01*
X156651804Y-122714221D01*
X156524332Y-122661421D01*
X156524322Y-122661418D01*
X156388995Y-122634500D01*
X156388993Y-122634500D01*
X156251007Y-122634500D01*
X156251005Y-122634500D01*
X156115677Y-122661418D01*
X156115667Y-122661421D01*
X155988195Y-122714221D01*
X155988182Y-122714228D01*
X155873458Y-122790885D01*
X155873454Y-122790888D01*
X155775888Y-122888454D01*
X155775885Y-122888458D01*
X155699228Y-123003182D01*
X155699221Y-123003195D01*
X155646421Y-123130667D01*
X155646418Y-123130677D01*
X155619500Y-123266004D01*
X155619500Y-123266007D01*
X155619500Y-124003993D01*
X155619500Y-124003995D01*
X155619499Y-124003995D01*
X148380500Y-124003995D01*
X148380500Y-123266004D01*
X148353581Y-123130677D01*
X148353580Y-123130676D01*
X148353580Y-123130672D01*
X148353578Y-123130667D01*
X148300778Y-123003195D01*
X148300771Y-123003182D01*
X148224114Y-122888458D01*
X148224111Y-122888454D01*
X148126545Y-122790888D01*
X148126541Y-122790885D01*
X148011817Y-122714228D01*
X148011804Y-122714221D01*
X147884332Y-122661421D01*
X147884322Y-122661418D01*
X147748995Y-122634500D01*
X147748993Y-122634500D01*
X147611007Y-122634500D01*
X147611005Y-122634500D01*
X147475677Y-122661418D01*
X147475667Y-122661421D01*
X147348195Y-122714221D01*
X147348182Y-122714228D01*
X147233458Y-122790885D01*
X147233454Y-122790888D01*
X147135888Y-122888454D01*
X147135885Y-122888458D01*
X147059228Y-123003182D01*
X147059221Y-123003195D01*
X147006421Y-123130667D01*
X147006418Y-123130677D01*
X146979500Y-123266004D01*
X146979500Y-123266007D01*
X146979500Y-124003993D01*
X146979500Y-124003995D01*
X146979499Y-124003995D01*
X115304606Y-124003995D01*
X115304606Y-124003993D01*
X115278679Y-123873648D01*
X115276564Y-123857590D01*
X115261965Y-123634843D01*
X115261700Y-123626733D01*
X115261700Y-121630800D01*
X116855978Y-121630800D01*
X116874844Y-121918637D01*
X116874846Y-121918649D01*
X116931117Y-122201545D01*
X116931121Y-122201560D01*
X117023842Y-122474705D01*
X117151419Y-122733406D01*
X117151423Y-122733413D01*
X117311678Y-122973252D01*
X117501872Y-123190127D01*
X117588397Y-123266007D01*
X117718746Y-123380320D01*
X117958589Y-123540578D01*
X118217298Y-123668159D01*
X118490447Y-123760881D01*
X118773361Y-123817156D01*
X119061200Y-123836022D01*
X119349039Y-123817156D01*
X119631953Y-123760881D01*
X119905102Y-123668159D01*
X120163811Y-123540578D01*
X120403654Y-123380320D01*
X120620527Y-123190127D01*
X120810720Y-122973254D01*
X120970978Y-122733411D01*
X121098559Y-122474702D01*
X121191281Y-122201553D01*
X121247556Y-121918639D01*
X121266422Y-121630800D01*
X121247556Y-121342961D01*
X121191281Y-121060047D01*
X121098559Y-120786898D01*
X120970978Y-120528189D01*
X120919764Y-120451542D01*
X120810721Y-120288347D01*
X120620527Y-120071472D01*
X120403652Y-119881278D01*
X120163813Y-119721023D01*
X120163806Y-119721019D01*
X119905105Y-119593442D01*
X119631960Y-119500721D01*
X119631954Y-119500719D01*
X119631953Y-119500719D01*
X119631951Y-119500718D01*
X119631945Y-119500717D01*
X119349049Y-119444446D01*
X119349039Y-119444444D01*
X119061200Y-119425578D01*
X118773361Y-119444444D01*
X118773355Y-119444445D01*
X118773350Y-119444446D01*
X118490454Y-119500717D01*
X118490439Y-119500721D01*
X118217294Y-119593442D01*
X117958593Y-119721019D01*
X117958586Y-119721023D01*
X117718747Y-119881278D01*
X117501872Y-120071472D01*
X117311678Y-120288347D01*
X117151423Y-120528186D01*
X117151419Y-120528193D01*
X117023842Y-120786894D01*
X116931121Y-121060039D01*
X116931117Y-121060054D01*
X116874846Y-121342950D01*
X116874844Y-121342962D01*
X116855978Y-121630800D01*
X115261700Y-121630800D01*
X115261700Y-104256884D01*
X118872500Y-104256884D01*
X118872500Y-108256884D01*
X118872500Y-108343116D01*
X118884659Y-108388493D01*
X118894819Y-108426410D01*
X118937934Y-108501088D01*
X118937936Y-108501091D01*
X122987532Y-112550687D01*
X123021017Y-112612010D01*
X123022589Y-112620721D01*
X123039068Y-112735337D01*
X123039070Y-112735345D01*
X123095867Y-112859714D01*
X123095872Y-112859721D01*
X123185409Y-112963053D01*
X123185413Y-112963057D01*
X123245979Y-113001979D01*
X123300439Y-113036978D01*
X123366036Y-113056239D01*
X123431632Y-113075500D01*
X123431633Y-113075500D01*
X123568367Y-113075500D01*
X123699561Y-113036978D01*
X123814589Y-112963055D01*
X123904130Y-112859718D01*
X123960931Y-112735342D01*
X123980390Y-112600000D01*
X123960931Y-112464658D01*
X123920214Y-112375500D01*
X123904132Y-112340285D01*
X123904127Y-112340278D01*
X123814590Y-112236946D01*
X123814586Y-112236942D01*
X123699559Y-112163021D01*
X123568368Y-112124500D01*
X123568367Y-112124500D01*
X123539017Y-112124500D01*
X123471978Y-112104815D01*
X123451336Y-112088181D01*
X119563819Y-108200664D01*
X119530334Y-108139341D01*
X119527500Y-108112983D01*
X119527500Y-107500000D01*
X120519610Y-107500000D01*
X120539068Y-107635337D01*
X120539070Y-107635345D01*
X120595867Y-107759714D01*
X120595872Y-107759721D01*
X120685409Y-107863053D01*
X120685413Y-107863057D01*
X120742881Y-107899988D01*
X120800439Y-107936978D01*
X120866036Y-107956239D01*
X120931632Y-107975500D01*
X120931633Y-107975500D01*
X121068367Y-107975500D01*
X121199561Y-107936978D01*
X121314589Y-107863055D01*
X121314591Y-107863052D01*
X121320671Y-107857785D01*
X121384228Y-107828762D01*
X121401872Y-107827500D01*
X123255798Y-107827500D01*
X123322837Y-107847185D01*
X123368592Y-107899988D01*
X123395869Y-107959716D01*
X123395872Y-107959721D01*
X123485409Y-108063053D01*
X123485413Y-108063057D01*
X123516812Y-108083235D01*
X123600439Y-108136978D01*
X123666036Y-108156239D01*
X123731632Y-108175500D01*
X123860983Y-108175500D01*
X123928022Y-108195185D01*
X123948664Y-108211819D01*
X125738181Y-110001336D01*
X125771666Y-110062659D01*
X125774500Y-110089017D01*
X125774500Y-110319381D01*
X125754815Y-110386420D01*
X125702011Y-110432175D01*
X125632853Y-110442119D01*
X125615566Y-110438358D01*
X125568369Y-110424500D01*
X125568367Y-110424500D01*
X125431633Y-110424500D01*
X125431632Y-110424500D01*
X125300440Y-110463021D01*
X125185413Y-110536942D01*
X125185409Y-110536946D01*
X125095872Y-110640278D01*
X125095867Y-110640285D01*
X125039070Y-110764654D01*
X125039068Y-110764662D01*
X125019610Y-110900000D01*
X125039068Y-111035337D01*
X125039070Y-111035345D01*
X125095867Y-111159714D01*
X125095869Y-111159716D01*
X125095870Y-111159718D01*
X125142213Y-111213201D01*
X125171238Y-111276755D01*
X125172500Y-111294403D01*
X125172500Y-120156884D01*
X125172500Y-120243116D01*
X125194819Y-120326410D01*
X125237935Y-120401090D01*
X127498910Y-122662065D01*
X127573590Y-122705181D01*
X127656884Y-122727500D01*
X127656886Y-122727500D01*
X142743114Y-122727500D01*
X142743116Y-122727500D01*
X142826410Y-122705181D01*
X142901090Y-122662065D01*
X144196094Y-121367061D01*
X162169500Y-121367061D01*
X162169500Y-122027940D01*
X162210636Y-122234746D01*
X162210638Y-122234754D01*
X162291333Y-122429570D01*
X162291338Y-122429579D01*
X162408487Y-122604904D01*
X162408490Y-122604908D01*
X162557592Y-122754010D01*
X162557596Y-122754013D01*
X162732921Y-122871162D01*
X162732930Y-122871167D01*
X162774665Y-122888454D01*
X162927747Y-122951863D01*
X163120217Y-122990147D01*
X163134560Y-122993000D01*
X163134564Y-122993001D01*
X163134565Y-122993001D01*
X163345436Y-122993001D01*
X163345437Y-122993000D01*
X163552253Y-122951863D01*
X163747072Y-122871166D01*
X163922404Y-122754013D01*
X164071512Y-122604905D01*
X164188665Y-122429573D01*
X164269362Y-122234754D01*
X164310500Y-122027936D01*
X164310500Y-121367066D01*
X164269362Y-121160248D01*
X164188665Y-120965429D01*
X164188664Y-120965428D01*
X164188661Y-120965422D01*
X164076947Y-120798231D01*
X164709500Y-120798231D01*
X164709500Y-122596770D01*
X164712353Y-122627200D01*
X164712353Y-122627202D01*
X164757206Y-122755381D01*
X164757207Y-122755383D01*
X164837850Y-122864651D01*
X164947118Y-122945294D01*
X164989845Y-122960245D01*
X165075299Y-122990147D01*
X165105730Y-122993001D01*
X165105734Y-122993001D01*
X166454270Y-122993001D01*
X166484699Y-122990147D01*
X166484701Y-122990147D01*
X166555728Y-122965293D01*
X166612882Y-122945294D01*
X166722150Y-122864651D01*
X166802793Y-122755383D01*
X166825219Y-122691291D01*
X166847646Y-122627202D01*
X166847646Y-122627200D01*
X166850500Y-122596770D01*
X166850500Y-120818231D01*
X168439500Y-120818231D01*
X168439500Y-122616770D01*
X168442353Y-122647200D01*
X168442353Y-122647202D01*
X168487206Y-122775381D01*
X168487207Y-122775383D01*
X168567850Y-122884651D01*
X168677118Y-122965294D01*
X168719845Y-122980245D01*
X168805299Y-123010147D01*
X168835730Y-123013001D01*
X168835734Y-123013001D01*
X170184270Y-123013001D01*
X170214699Y-123010147D01*
X170214701Y-123010147D01*
X170278790Y-122987720D01*
X170342882Y-122965294D01*
X170452150Y-122884651D01*
X170532793Y-122775383D01*
X170572445Y-122662065D01*
X170577646Y-122647202D01*
X170577646Y-122647200D01*
X170580500Y-122616770D01*
X170580500Y-122038040D01*
X171079999Y-122038040D01*
X171117275Y-122225433D01*
X171117277Y-122225439D01*
X171190397Y-122401966D01*
X171296553Y-122560842D01*
X171431658Y-122695947D01*
X171590536Y-122802105D01*
X171767056Y-122875221D01*
X171767063Y-122875223D01*
X171800000Y-122881774D01*
X171800000Y-122260210D01*
X171820339Y-122271953D01*
X171971667Y-122312501D01*
X172128333Y-122312501D01*
X172279661Y-122271953D01*
X172300000Y-122260210D01*
X172300000Y-122881774D01*
X172332936Y-122875223D01*
X172332943Y-122875221D01*
X172509463Y-122802105D01*
X172668341Y-122695947D01*
X172803446Y-122560842D01*
X172909602Y-122401966D01*
X172982722Y-122225439D01*
X172982724Y-122225433D01*
X173020000Y-122038040D01*
X173020000Y-121967501D01*
X172592709Y-121967501D01*
X172604452Y-121947162D01*
X172645000Y-121795834D01*
X172645000Y-121639168D01*
X172642758Y-121630800D01*
X182605978Y-121630800D01*
X182624844Y-121918637D01*
X182624846Y-121918649D01*
X182681117Y-122201545D01*
X182681121Y-122201560D01*
X182773842Y-122474705D01*
X182901419Y-122733406D01*
X182901423Y-122733413D01*
X183061678Y-122973252D01*
X183251872Y-123190127D01*
X183338397Y-123266007D01*
X183468746Y-123380320D01*
X183708589Y-123540578D01*
X183967298Y-123668159D01*
X184240447Y-123760881D01*
X184523361Y-123817156D01*
X184811200Y-123836022D01*
X185099039Y-123817156D01*
X185381953Y-123760881D01*
X185655102Y-123668159D01*
X185913811Y-123540578D01*
X186153654Y-123380320D01*
X186370527Y-123190127D01*
X186560720Y-122973254D01*
X186720978Y-122733411D01*
X186848559Y-122474702D01*
X186941281Y-122201553D01*
X186997556Y-121918639D01*
X187016422Y-121630800D01*
X186997556Y-121342961D01*
X186941281Y-121060047D01*
X186848559Y-120786898D01*
X186720978Y-120528189D01*
X186669764Y-120451542D01*
X186560721Y-120288347D01*
X186370527Y-120071472D01*
X186153652Y-119881278D01*
X185913813Y-119721023D01*
X185913806Y-119721019D01*
X185655105Y-119593442D01*
X185381960Y-119500721D01*
X185381954Y-119500719D01*
X185381953Y-119500719D01*
X185381951Y-119500718D01*
X185381945Y-119500717D01*
X185099049Y-119444446D01*
X185099039Y-119444444D01*
X184811200Y-119425578D01*
X184523361Y-119444444D01*
X184523355Y-119444445D01*
X184523350Y-119444446D01*
X184240454Y-119500717D01*
X184240439Y-119500721D01*
X183967294Y-119593442D01*
X183708593Y-119721019D01*
X183708586Y-119721023D01*
X183468747Y-119881278D01*
X183251872Y-120071472D01*
X183061678Y-120288347D01*
X182901423Y-120528186D01*
X182901419Y-120528193D01*
X182773842Y-120786894D01*
X182681121Y-121060039D01*
X182681117Y-121060054D01*
X182624846Y-121342950D01*
X182624844Y-121342962D01*
X182605978Y-121630800D01*
X172642758Y-121630800D01*
X172604452Y-121487840D01*
X172592709Y-121467501D01*
X173020000Y-121467501D01*
X173020000Y-121396961D01*
X172982724Y-121209568D01*
X172982722Y-121209562D01*
X172909602Y-121033035D01*
X172803446Y-120874159D01*
X172668341Y-120739054D01*
X172509465Y-120632898D01*
X172332936Y-120559777D01*
X172332931Y-120559775D01*
X172300000Y-120553225D01*
X172300000Y-121174791D01*
X172279661Y-121163049D01*
X172128333Y-121122501D01*
X171971667Y-121122501D01*
X171820339Y-121163049D01*
X171800000Y-121174791D01*
X171800000Y-120553226D01*
X171799999Y-120553225D01*
X171767068Y-120559775D01*
X171767063Y-120559777D01*
X171590534Y-120632898D01*
X171431658Y-120739054D01*
X171296553Y-120874159D01*
X171190397Y-121033035D01*
X171117277Y-121209562D01*
X171117275Y-121209568D01*
X171080000Y-121396961D01*
X171080000Y-121467501D01*
X171507291Y-121467501D01*
X171495548Y-121487840D01*
X171455000Y-121639168D01*
X171455000Y-121795834D01*
X171495548Y-121947162D01*
X171507291Y-121967501D01*
X171080000Y-121967501D01*
X171080000Y-122038040D01*
X171079999Y-122038040D01*
X170580500Y-122038040D01*
X170580500Y-120818231D01*
X170577646Y-120787801D01*
X170577646Y-120787799D01*
X170532793Y-120659620D01*
X170532792Y-120659618D01*
X170519045Y-120640991D01*
X170452150Y-120550351D01*
X170342882Y-120469708D01*
X170342880Y-120469707D01*
X170214700Y-120424854D01*
X170184270Y-120422001D01*
X170184266Y-120422001D01*
X168835734Y-120422001D01*
X168835730Y-120422001D01*
X168805300Y-120424854D01*
X168805298Y-120424854D01*
X168677119Y-120469707D01*
X168677117Y-120469708D01*
X168567850Y-120550351D01*
X168487207Y-120659618D01*
X168487206Y-120659620D01*
X168442353Y-120787799D01*
X168442353Y-120787801D01*
X168439500Y-120818231D01*
X166850500Y-120818231D01*
X166850500Y-120798231D01*
X166847646Y-120767801D01*
X166847646Y-120767799D01*
X166814006Y-120671664D01*
X166802793Y-120639619D01*
X166722150Y-120530351D01*
X166612882Y-120449708D01*
X166612880Y-120449707D01*
X166484700Y-120404854D01*
X166454270Y-120402001D01*
X166454266Y-120402001D01*
X165105734Y-120402001D01*
X165105730Y-120402001D01*
X165075300Y-120404854D01*
X165075298Y-120404854D01*
X164947119Y-120449707D01*
X164947117Y-120449708D01*
X164837850Y-120530351D01*
X164757207Y-120639618D01*
X164757206Y-120639620D01*
X164712353Y-120767799D01*
X164712353Y-120767801D01*
X164709500Y-120798231D01*
X164076947Y-120798231D01*
X164071512Y-120790097D01*
X164071509Y-120790093D01*
X163922407Y-120640991D01*
X163922403Y-120640988D01*
X163747078Y-120523839D01*
X163747069Y-120523834D01*
X163552253Y-120443139D01*
X163552245Y-120443137D01*
X163345439Y-120402001D01*
X163345435Y-120402001D01*
X163134565Y-120402001D01*
X163134560Y-120402001D01*
X162927754Y-120443137D01*
X162927746Y-120443139D01*
X162732930Y-120523834D01*
X162732921Y-120523839D01*
X162557596Y-120640988D01*
X162557592Y-120640991D01*
X162408490Y-120790093D01*
X162408487Y-120790097D01*
X162291338Y-120965422D01*
X162291333Y-120965431D01*
X162210638Y-121160247D01*
X162210636Y-121160255D01*
X162169500Y-121367061D01*
X144196094Y-121367061D01*
X146767819Y-118795336D01*
X146829142Y-118761851D01*
X146898834Y-118766835D01*
X146954767Y-118808707D01*
X146979184Y-118874171D01*
X146979500Y-118883017D01*
X146979500Y-120073993D01*
X146979500Y-120073995D01*
X146979499Y-120073995D01*
X147006418Y-120209322D01*
X147006421Y-120209332D01*
X147059221Y-120336804D01*
X147059228Y-120336817D01*
X147135885Y-120451541D01*
X147135888Y-120451545D01*
X147233454Y-120549111D01*
X147233458Y-120549114D01*
X147348182Y-120625771D01*
X147348195Y-120625778D01*
X147429898Y-120659620D01*
X147475672Y-120678580D01*
X147475676Y-120678580D01*
X147475677Y-120678581D01*
X147611004Y-120705500D01*
X147611007Y-120705500D01*
X147748995Y-120705500D01*
X147840041Y-120687389D01*
X147884328Y-120678580D01*
X147982924Y-120637740D01*
X148011804Y-120625778D01*
X148011804Y-120625777D01*
X148011811Y-120625775D01*
X148126542Y-120549114D01*
X148224114Y-120451542D01*
X148300775Y-120336811D01*
X148312559Y-120308361D01*
X148355911Y-120203701D01*
X148357718Y-120204449D01*
X148391044Y-120153565D01*
X148454847Y-120125089D01*
X148523918Y-120135629D01*
X148576325Y-120181838D01*
X148578822Y-120185974D01*
X148591944Y-120208702D01*
X148649485Y-120308365D01*
X148756635Y-120415515D01*
X148887865Y-120491281D01*
X149034234Y-120530500D01*
X149034236Y-120530500D01*
X149185764Y-120530500D01*
X149185766Y-120530500D01*
X149332135Y-120491281D01*
X149463365Y-120415515D01*
X149570515Y-120308365D01*
X149646281Y-120177135D01*
X149648543Y-120168690D01*
X149684905Y-120109031D01*
X149747752Y-120078500D01*
X149817127Y-120086793D01*
X149855998Y-120113101D01*
X150563386Y-120820490D01*
X150563388Y-120820491D01*
X150563392Y-120820494D01*
X150666110Y-120879798D01*
X150666113Y-120879799D01*
X150683627Y-120884491D01*
X150683630Y-120884493D01*
X150683631Y-120884493D01*
X150704142Y-120889988D01*
X150780691Y-120910500D01*
X150780693Y-120910500D01*
X153369307Y-120910500D01*
X153369309Y-120910500D01*
X153449435Y-120889029D01*
X153466369Y-120884493D01*
X153466370Y-120884492D01*
X153483887Y-120879799D01*
X153586614Y-120820489D01*
X154194156Y-120212945D01*
X154255477Y-120179462D01*
X154325168Y-120184446D01*
X154381102Y-120226317D01*
X154389222Y-120238628D01*
X154429485Y-120308365D01*
X154536635Y-120415515D01*
X154667865Y-120491281D01*
X154814234Y-120530500D01*
X154814236Y-120530500D01*
X154965764Y-120530500D01*
X154965766Y-120530500D01*
X155112135Y-120491281D01*
X155243365Y-120415515D01*
X155350515Y-120308365D01*
X155421177Y-120185974D01*
X155471744Y-120137759D01*
X155540351Y-120124536D01*
X155605216Y-120150504D01*
X155643322Y-120204018D01*
X155644089Y-120203701D01*
X155645469Y-120207033D01*
X155645744Y-120207419D01*
X155646160Y-120208702D01*
X155699221Y-120336804D01*
X155699228Y-120336817D01*
X155775885Y-120451541D01*
X155775888Y-120451545D01*
X155873454Y-120549111D01*
X155873458Y-120549114D01*
X155988182Y-120625771D01*
X155988195Y-120625778D01*
X156069898Y-120659620D01*
X156115672Y-120678580D01*
X156115676Y-120678580D01*
X156115677Y-120678581D01*
X156251004Y-120705500D01*
X156251007Y-120705500D01*
X156388995Y-120705500D01*
X156480041Y-120687389D01*
X156524328Y-120678580D01*
X156622924Y-120637740D01*
X156651804Y-120625778D01*
X156651804Y-120625777D01*
X156651811Y-120625775D01*
X156766542Y-120549114D01*
X156864114Y-120451542D01*
X156940775Y-120336811D01*
X156993580Y-120209328D01*
X157012721Y-120113102D01*
X157020500Y-120073995D01*
X157020500Y-118836004D01*
X156993581Y-118700677D01*
X156993580Y-118700676D01*
X156993580Y-118700672D01*
X156993578Y-118700667D01*
X156940778Y-118573195D01*
X156940771Y-118573182D01*
X156864114Y-118458458D01*
X156864111Y-118458454D01*
X156766545Y-118360888D01*
X156766541Y-118360885D01*
X156651817Y-118284228D01*
X156651804Y-118284221D01*
X156524332Y-118231421D01*
X156524322Y-118231418D01*
X156388995Y-118204500D01*
X156388993Y-118204500D01*
X156251007Y-118204500D01*
X156251005Y-118204500D01*
X156115677Y-118231418D01*
X156115667Y-118231421D01*
X155988195Y-118284221D01*
X155988182Y-118284228D01*
X155873458Y-118360885D01*
X155873454Y-118360888D01*
X155775888Y-118458454D01*
X155775885Y-118458458D01*
X155699228Y-118573182D01*
X155699221Y-118573195D01*
X155646421Y-118700667D01*
X155646418Y-118700677D01*
X155619500Y-118836004D01*
X155619500Y-119604755D01*
X155599815Y-119671794D01*
X155547011Y-119717549D01*
X155477853Y-119727493D01*
X155414297Y-119698468D01*
X155388113Y-119666756D01*
X155375731Y-119645310D01*
X155350515Y-119601635D01*
X155243365Y-119494485D01*
X155177750Y-119456602D01*
X155112136Y-119418719D01*
X155038950Y-119399109D01*
X154965766Y-119379500D01*
X154814234Y-119379500D01*
X154721592Y-119404322D01*
X154651743Y-119402660D01*
X154593881Y-119363497D01*
X154566377Y-119299269D01*
X154565500Y-119284548D01*
X154565500Y-117822965D01*
X154585185Y-117755926D01*
X154601819Y-117735284D01*
X154800161Y-117536942D01*
X155010489Y-117326614D01*
X155061940Y-117237499D01*
X155112506Y-117189284D01*
X155169326Y-117175500D01*
X155178367Y-117175500D01*
X155309561Y-117136978D01*
X155384770Y-117088645D01*
X155410903Y-117071851D01*
X155477941Y-117052167D01*
X155832059Y-117052167D01*
X155899097Y-117071851D01*
X155939873Y-117098055D01*
X156000439Y-117136978D01*
X156066036Y-117156239D01*
X156131632Y-117175500D01*
X156131633Y-117175500D01*
X156268367Y-117175500D01*
X156399561Y-117136978D01*
X156474770Y-117088645D01*
X156500903Y-117071851D01*
X156567941Y-117052167D01*
X156758934Y-117052167D01*
X156825972Y-117071851D01*
X156852101Y-117088642D01*
X156852108Y-117088646D01*
X156983299Y-117127167D01*
X156983300Y-117127167D01*
X157120034Y-117127167D01*
X157251228Y-117088645D01*
X157366256Y-117014722D01*
X157455797Y-116911385D01*
X157512598Y-116787009D01*
X157532057Y-116651667D01*
X157512598Y-116516325D01*
X157486746Y-116459718D01*
X157455799Y-116391952D01*
X157455794Y-116391945D01*
X157366257Y-116288613D01*
X157366253Y-116288609D01*
X157251226Y-116214688D01*
X157120035Y-116176167D01*
X157120034Y-116176167D01*
X156983300Y-116176167D01*
X156983299Y-116176167D01*
X156852108Y-116214687D01*
X156852101Y-116214691D01*
X156825972Y-116231483D01*
X156758934Y-116251167D01*
X156377015Y-116251167D01*
X156342080Y-116246144D01*
X156268368Y-116224500D01*
X156268367Y-116224500D01*
X156131633Y-116224500D01*
X156131632Y-116224500D01*
X156057920Y-116246144D01*
X156022985Y-116251167D01*
X155561500Y-116251167D01*
X155494461Y-116231482D01*
X155448706Y-116178678D01*
X155437500Y-116127167D01*
X155437500Y-113366885D01*
X155437500Y-113366884D01*
X155428881Y-113334719D01*
X155415181Y-113283589D01*
X155372065Y-113208910D01*
X153801090Y-111637935D01*
X153726410Y-111594819D01*
X153726411Y-111594819D01*
X153698645Y-111587379D01*
X153643116Y-111572500D01*
X153643114Y-111572500D01*
X152901872Y-111572500D01*
X152834833Y-111552815D01*
X152820671Y-111542215D01*
X152814586Y-111536942D01*
X152699559Y-111463021D01*
X152568368Y-111424500D01*
X152568367Y-111424500D01*
X152431633Y-111424500D01*
X152431632Y-111424500D01*
X152300440Y-111463021D01*
X152185413Y-111536942D01*
X152185409Y-111536946D01*
X152095872Y-111640278D01*
X152095867Y-111640285D01*
X152039070Y-111764654D01*
X152039068Y-111764662D01*
X152019610Y-111900000D01*
X152039068Y-112035337D01*
X152039070Y-112035345D01*
X152095867Y-112159714D01*
X152095872Y-112159721D01*
X152185409Y-112263053D01*
X152185413Y-112263057D01*
X152245979Y-112301979D01*
X152300439Y-112336978D01*
X152311702Y-112340285D01*
X152431632Y-112375500D01*
X152431633Y-112375500D01*
X152568367Y-112375500D01*
X152699561Y-112336978D01*
X152814589Y-112263055D01*
X152814591Y-112263052D01*
X152820671Y-112257785D01*
X152884228Y-112228762D01*
X152901872Y-112227500D01*
X153412983Y-112227500D01*
X153480022Y-112247185D01*
X153500664Y-112263819D01*
X154746181Y-113509336D01*
X154779666Y-113570659D01*
X154782500Y-113597017D01*
X154782500Y-116299745D01*
X154762815Y-116366784D01*
X154746181Y-116387426D01*
X154536890Y-116596716D01*
X154481311Y-116628808D01*
X154476112Y-116630201D01*
X154373386Y-116689511D01*
X154373383Y-116689513D01*
X153754513Y-117308383D01*
X153754509Y-117308389D01*
X153695201Y-117411112D01*
X153695200Y-117411117D01*
X153664500Y-117525691D01*
X153664500Y-119417035D01*
X153644815Y-119484074D01*
X153628181Y-119504716D01*
X153159716Y-119973181D01*
X153098393Y-120006666D01*
X153072035Y-120009500D01*
X151077966Y-120009500D01*
X151010927Y-119989815D01*
X150990285Y-119973181D01*
X150086819Y-119069715D01*
X150053334Y-119008392D01*
X150050500Y-118982034D01*
X150050500Y-117885156D01*
X150059423Y-117844137D01*
X150058433Y-117843847D01*
X150060927Y-117835349D01*
X150060931Y-117835342D01*
X150080390Y-117700000D01*
X150060931Y-117564658D01*
X150058432Y-117556147D01*
X150059421Y-117555856D01*
X150050500Y-117514841D01*
X150050500Y-116985156D01*
X150059423Y-116944137D01*
X150058433Y-116943847D01*
X150060927Y-116935349D01*
X150060931Y-116935342D01*
X150080390Y-116800000D01*
X150060931Y-116664658D01*
X150031248Y-116599662D01*
X150004132Y-116540285D01*
X150004127Y-116540278D01*
X149914590Y-116436946D01*
X149914586Y-116436942D01*
X149813447Y-116371946D01*
X149799561Y-116363022D01*
X149799560Y-116363021D01*
X149799559Y-116363021D01*
X149668368Y-116324500D01*
X149668367Y-116324500D01*
X149531633Y-116324500D01*
X149531632Y-116324500D01*
X149400440Y-116363021D01*
X149285413Y-116436942D01*
X149285409Y-116436946D01*
X149195872Y-116540278D01*
X149195867Y-116540285D01*
X149139070Y-116664654D01*
X149139068Y-116664662D01*
X149119610Y-116800000D01*
X149139068Y-116935338D01*
X149141567Y-116943847D01*
X149140576Y-116944137D01*
X149149500Y-116985156D01*
X149149500Y-117514841D01*
X149140578Y-117555856D01*
X149141568Y-117556147D01*
X149139068Y-117564658D01*
X149119610Y-117700000D01*
X149139068Y-117835338D01*
X149141567Y-117843847D01*
X149140576Y-117844137D01*
X149149500Y-117885156D01*
X149149500Y-119255579D01*
X149129815Y-119322618D01*
X149077011Y-119368373D01*
X149041695Y-119378517D01*
X149034237Y-119379499D01*
X148887863Y-119418719D01*
X148756635Y-119494485D01*
X148756632Y-119494487D01*
X148649487Y-119601632D01*
X148649485Y-119601635D01*
X148611887Y-119666756D01*
X148561319Y-119714971D01*
X148492712Y-119728193D01*
X148427847Y-119702225D01*
X148387319Y-119645310D01*
X148380500Y-119604755D01*
X148380500Y-118836004D01*
X148353581Y-118700677D01*
X148353580Y-118700676D01*
X148353580Y-118700672D01*
X148353578Y-118700667D01*
X148300778Y-118573195D01*
X148300771Y-118573182D01*
X148224114Y-118458458D01*
X148224111Y-118458454D01*
X148126545Y-118360888D01*
X148126541Y-118360885D01*
X148011817Y-118284228D01*
X148011804Y-118284221D01*
X147884332Y-118231421D01*
X147884322Y-118231418D01*
X147748995Y-118204500D01*
X147748993Y-118204500D01*
X147658017Y-118204500D01*
X147590978Y-118184815D01*
X147545223Y-118132011D01*
X147535279Y-118062853D01*
X147564304Y-117999297D01*
X147570336Y-117992819D01*
X148100134Y-117463021D01*
X148665202Y-116897953D01*
X148708318Y-116823273D01*
X148730637Y-116739979D01*
X148730637Y-116653747D01*
X148730637Y-103312404D01*
X148750322Y-103245365D01*
X148760919Y-103231207D01*
X148807267Y-103177719D01*
X148864068Y-103053343D01*
X148883527Y-102918001D01*
X148864068Y-102782659D01*
X148849466Y-102750686D01*
X148807269Y-102658286D01*
X148807264Y-102658279D01*
X148717727Y-102554947D01*
X148717723Y-102554943D01*
X148602696Y-102481022D01*
X148471505Y-102442501D01*
X148471504Y-102442501D01*
X148334770Y-102442501D01*
X148334769Y-102442501D01*
X148203577Y-102481022D01*
X148088550Y-102554943D01*
X148088546Y-102554947D01*
X147999009Y-102658279D01*
X147999004Y-102658286D01*
X147942207Y-102782655D01*
X147942205Y-102782663D01*
X147922747Y-102918001D01*
X147942205Y-103053338D01*
X147942207Y-103053346D01*
X147999004Y-103177715D01*
X147999006Y-103177717D01*
X147999007Y-103177719D01*
X148045350Y-103231202D01*
X148074375Y-103294756D01*
X148075637Y-103312404D01*
X148075637Y-116509846D01*
X148055952Y-116576885D01*
X148039318Y-116597527D01*
X142600664Y-122036181D01*
X142539341Y-122069666D01*
X142512983Y-122072500D01*
X127887017Y-122072500D01*
X127819978Y-122052815D01*
X127799336Y-122036181D01*
X125863819Y-120100664D01*
X125830334Y-120039341D01*
X125827500Y-120012983D01*
X125827500Y-116780618D01*
X125847185Y-116713579D01*
X125899989Y-116667824D01*
X125969147Y-116657880D01*
X125986426Y-116661638D01*
X126033633Y-116675500D01*
X126033634Y-116675500D01*
X126170367Y-116675500D01*
X126301561Y-116636978D01*
X126416589Y-116563055D01*
X126506130Y-116459718D01*
X126562931Y-116335342D01*
X126582390Y-116200000D01*
X126562931Y-116064658D01*
X126506230Y-115940500D01*
X126506132Y-115940285D01*
X126506129Y-115940281D01*
X126459786Y-115886797D01*
X126430762Y-115823240D01*
X126429500Y-115805595D01*
X126429500Y-109858885D01*
X126429500Y-109858884D01*
X126407181Y-109775590D01*
X126364065Y-109700910D01*
X126303090Y-109639935D01*
X124295675Y-107632520D01*
X124262190Y-107571197D01*
X124261137Y-107565360D01*
X124260930Y-107564655D01*
X124223157Y-107481945D01*
X124204130Y-107440282D01*
X124201239Y-107436946D01*
X124114590Y-107336946D01*
X124114586Y-107336942D01*
X124023736Y-107278558D01*
X123999561Y-107263022D01*
X123999560Y-107263021D01*
X123999559Y-107263021D01*
X123868368Y-107224500D01*
X123868367Y-107224500D01*
X123811045Y-107224500D01*
X123749047Y-107207888D01*
X123726410Y-107194819D01*
X123726411Y-107194819D01*
X123698645Y-107187379D01*
X123643116Y-107172500D01*
X123643114Y-107172500D01*
X121401872Y-107172500D01*
X121334833Y-107152815D01*
X121320671Y-107142215D01*
X121314586Y-107136942D01*
X121199559Y-107063021D01*
X121068368Y-107024500D01*
X121068367Y-107024500D01*
X120931633Y-107024500D01*
X120931632Y-107024500D01*
X120800440Y-107063021D01*
X120685413Y-107136942D01*
X120685409Y-107136946D01*
X120595872Y-107240278D01*
X120595867Y-107240285D01*
X120539070Y-107364654D01*
X120539068Y-107364662D01*
X120519610Y-107500000D01*
X119527500Y-107500000D01*
X119527500Y-104487017D01*
X119547185Y-104419978D01*
X119563819Y-104399336D01*
X121799336Y-102163819D01*
X121860659Y-102130334D01*
X121887017Y-102127500D01*
X123198128Y-102127500D01*
X123265167Y-102147185D01*
X123279329Y-102157785D01*
X123285413Y-102163057D01*
X123345979Y-102201979D01*
X123400439Y-102236978D01*
X123466036Y-102256239D01*
X123531632Y-102275500D01*
X123531633Y-102275500D01*
X123668367Y-102275500D01*
X123799561Y-102236978D01*
X123914589Y-102163055D01*
X124004130Y-102059718D01*
X124060931Y-101935342D01*
X124080390Y-101800000D01*
X124060931Y-101664658D01*
X124048677Y-101637827D01*
X124004132Y-101540285D01*
X124004127Y-101540278D01*
X123914590Y-101436946D01*
X123914586Y-101436942D01*
X123799559Y-101363021D01*
X123668368Y-101324500D01*
X123668367Y-101324500D01*
X123531633Y-101324500D01*
X123531632Y-101324500D01*
X123400440Y-101363021D01*
X123285413Y-101436942D01*
X123279329Y-101442215D01*
X123215772Y-101471238D01*
X123198128Y-101472500D01*
X121743116Y-101472500D01*
X121656884Y-101472500D01*
X121601354Y-101487379D01*
X121573589Y-101494819D01*
X121498911Y-101537934D01*
X121498908Y-101537936D01*
X118937936Y-104098908D01*
X118937934Y-104098911D01*
X118894819Y-104173589D01*
X118894819Y-104173590D01*
X118872500Y-104256884D01*
X115261700Y-104256884D01*
X115261700Y-82256884D01*
X122172500Y-82256884D01*
X122172500Y-88176884D01*
X122172500Y-88263116D01*
X122194819Y-88346410D01*
X122211498Y-88375300D01*
X122237934Y-88421088D01*
X122237936Y-88421091D01*
X123073181Y-89256336D01*
X123106666Y-89317659D01*
X123109500Y-89344017D01*
X123109500Y-90749752D01*
X123121131Y-90808229D01*
X123121132Y-90808230D01*
X123165447Y-90874552D01*
X123231769Y-90918867D01*
X123231770Y-90918868D01*
X123290247Y-90930499D01*
X123290250Y-90930500D01*
X123290252Y-90930500D01*
X125029750Y-90930500D01*
X125029751Y-90930499D01*
X125044568Y-90927552D01*
X125088229Y-90918868D01*
X125088229Y-90918867D01*
X125088231Y-90918867D01*
X125154552Y-90874552D01*
X125198867Y-90808231D01*
X125198867Y-90808229D01*
X125198868Y-90808229D01*
X125210499Y-90749752D01*
X125210500Y-90749750D01*
X125210500Y-89010249D01*
X125210499Y-89010247D01*
X125198868Y-88951770D01*
X125198867Y-88951769D01*
X125154552Y-88885447D01*
X125088230Y-88841132D01*
X125088229Y-88841131D01*
X125029752Y-88829500D01*
X125029748Y-88829500D01*
X123624017Y-88829500D01*
X123556978Y-88809815D01*
X123536336Y-88793181D01*
X122863819Y-88120664D01*
X122830334Y-88059341D01*
X122827500Y-88032983D01*
X122827500Y-87340000D01*
X123104417Y-87340000D01*
X123124699Y-87545932D01*
X123144129Y-87609983D01*
X123184768Y-87743954D01*
X123282315Y-87926450D01*
X123307978Y-87957721D01*
X123413589Y-88086410D01*
X123504063Y-88160659D01*
X123573550Y-88217685D01*
X123756046Y-88315232D01*
X123954066Y-88375300D01*
X123954065Y-88375300D01*
X123972529Y-88377118D01*
X124160000Y-88395583D01*
X124365934Y-88375300D01*
X124563954Y-88315232D01*
X124746450Y-88217685D01*
X124906410Y-88086410D01*
X125037685Y-87926450D01*
X125135232Y-87743954D01*
X125195300Y-87545934D01*
X125215583Y-87340000D01*
X125195300Y-87134066D01*
X125135232Y-86936046D01*
X125037685Y-86753550D01*
X124918183Y-86607935D01*
X124906410Y-86593589D01*
X124767344Y-86479462D01*
X124746450Y-86462315D01*
X124563954Y-86364768D01*
X124365934Y-86304700D01*
X124365932Y-86304699D01*
X124365934Y-86304699D01*
X124160000Y-86284417D01*
X123954067Y-86304699D01*
X123756043Y-86364769D01*
X123723214Y-86382317D01*
X123573550Y-86462315D01*
X123573548Y-86462316D01*
X123573547Y-86462317D01*
X123413589Y-86593589D01*
X123282317Y-86753547D01*
X123184769Y-86936043D01*
X123124699Y-87134067D01*
X123104417Y-87340000D01*
X122827500Y-87340000D01*
X122827500Y-84550001D01*
X123243089Y-84550001D01*
X123726988Y-84550001D01*
X123694075Y-84607008D01*
X123660000Y-84734175D01*
X123660000Y-84865827D01*
X123694075Y-84992994D01*
X123726988Y-85050001D01*
X123243089Y-85050001D01*
X123278068Y-85165313D01*
X123366278Y-85330341D01*
X123366283Y-85330348D01*
X123484997Y-85475003D01*
X123629652Y-85593717D01*
X123629659Y-85593722D01*
X123794687Y-85681932D01*
X123910000Y-85716911D01*
X123910000Y-85233013D01*
X123967007Y-85265926D01*
X124094174Y-85300001D01*
X124225826Y-85300001D01*
X124352993Y-85265926D01*
X124410000Y-85233013D01*
X124410000Y-85716911D01*
X124525312Y-85681932D01*
X124690340Y-85593722D01*
X124690347Y-85593717D01*
X124835002Y-85475003D01*
X124953716Y-85330348D01*
X124953721Y-85330341D01*
X125041931Y-85165313D01*
X125076911Y-85050001D01*
X124593012Y-85050001D01*
X124625925Y-84992994D01*
X124660000Y-84865827D01*
X124660000Y-84734175D01*
X124625925Y-84607008D01*
X124593012Y-84550001D01*
X125076911Y-84550001D01*
X125041931Y-84434688D01*
X124953721Y-84269660D01*
X124953716Y-84269653D01*
X124835002Y-84124998D01*
X124690347Y-84006284D01*
X124690340Y-84006279D01*
X124525309Y-83918068D01*
X124410000Y-83883088D01*
X124410000Y-84366989D01*
X124352993Y-84334076D01*
X124225826Y-84300001D01*
X124094174Y-84300001D01*
X123967007Y-84334076D01*
X123910000Y-84366989D01*
X123910000Y-83883088D01*
X123794690Y-83918068D01*
X123629659Y-84006279D01*
X123629652Y-84006284D01*
X123484997Y-84124998D01*
X123366283Y-84269653D01*
X123366278Y-84269660D01*
X123278068Y-84434688D01*
X123243089Y-84550001D01*
X122827500Y-84550001D01*
X122827500Y-82487017D01*
X122847185Y-82419978D01*
X122863819Y-82399336D01*
X129753336Y-75509819D01*
X129814659Y-75476334D01*
X129841017Y-75473500D01*
X138063983Y-75473500D01*
X138131022Y-75493185D01*
X138176777Y-75545989D01*
X138186721Y-75615147D01*
X138157696Y-75678703D01*
X138151664Y-75685181D01*
X131037936Y-82798908D01*
X131037934Y-82798911D01*
X130994819Y-82873589D01*
X130972500Y-82956885D01*
X130972500Y-88209983D01*
X130952815Y-88277022D01*
X130900011Y-88322777D01*
X130830853Y-88332721D01*
X130767297Y-88303696D01*
X130760819Y-88297664D01*
X127725895Y-85262740D01*
X127692410Y-85201417D01*
X127694914Y-85139067D01*
X127735300Y-85005934D01*
X127755583Y-84800000D01*
X127735300Y-84594066D01*
X127675232Y-84396046D01*
X127577685Y-84213550D01*
X127505013Y-84124998D01*
X127446410Y-84053589D01*
X127286452Y-83922317D01*
X127286453Y-83922317D01*
X127286450Y-83922315D01*
X127103954Y-83824768D01*
X126905934Y-83764700D01*
X126905932Y-83764699D01*
X126905934Y-83764699D01*
X126700000Y-83744417D01*
X126494067Y-83764699D01*
X126296043Y-83824769D01*
X126263214Y-83842317D01*
X126113550Y-83922315D01*
X126113548Y-83922316D01*
X126113547Y-83922317D01*
X125953589Y-84053589D01*
X125822317Y-84213547D01*
X125724769Y-84396043D01*
X125664699Y-84594067D01*
X125644417Y-84800000D01*
X125664699Y-85005932D01*
X125688779Y-85085313D01*
X125724768Y-85203954D01*
X125822315Y-85386450D01*
X125856969Y-85428677D01*
X125953589Y-85546410D01*
X125985026Y-85572209D01*
X126113550Y-85677685D01*
X126296046Y-85775232D01*
X126494066Y-85835300D01*
X126494065Y-85835300D01*
X126512529Y-85837118D01*
X126700000Y-85855583D01*
X126905934Y-85835300D01*
X127103954Y-85775232D01*
X127158476Y-85746088D01*
X127226876Y-85731846D01*
X127292120Y-85756845D01*
X127304610Y-85767765D01*
X130544181Y-89007336D01*
X130577666Y-89068659D01*
X130580500Y-89095017D01*
X130580500Y-90357983D01*
X130560815Y-90425022D01*
X130508011Y-90470777D01*
X130438853Y-90480721D01*
X130375297Y-90451696D01*
X130368819Y-90445664D01*
X127725895Y-87802740D01*
X127692410Y-87741417D01*
X127694914Y-87679067D01*
X127735300Y-87545934D01*
X127755583Y-87340000D01*
X127735300Y-87134066D01*
X127675232Y-86936046D01*
X127577685Y-86753550D01*
X127458183Y-86607935D01*
X127446410Y-86593589D01*
X127307344Y-86479462D01*
X127286450Y-86462315D01*
X127103954Y-86364768D01*
X126905934Y-86304700D01*
X126905932Y-86304699D01*
X126905934Y-86304699D01*
X126700000Y-86284417D01*
X126494067Y-86304699D01*
X126296043Y-86364769D01*
X126263214Y-86382317D01*
X126113550Y-86462315D01*
X126113548Y-86462316D01*
X126113547Y-86462317D01*
X125953589Y-86593589D01*
X125822317Y-86753547D01*
X125724769Y-86936043D01*
X125664699Y-87134067D01*
X125644417Y-87340000D01*
X125664699Y-87545932D01*
X125684129Y-87609983D01*
X125724768Y-87743954D01*
X125822315Y-87926450D01*
X125847978Y-87957721D01*
X125953589Y-88086410D01*
X126044063Y-88160659D01*
X126113550Y-88217685D01*
X126296046Y-88315232D01*
X126494066Y-88375300D01*
X126494065Y-88375300D01*
X126512529Y-88377118D01*
X126700000Y-88395583D01*
X126905934Y-88375300D01*
X127103954Y-88315232D01*
X127158476Y-88286088D01*
X127226876Y-88271846D01*
X127292120Y-88296845D01*
X127304610Y-88307765D01*
X130090181Y-91093336D01*
X130123666Y-91154659D01*
X130126500Y-91181017D01*
X130126500Y-92443983D01*
X130106815Y-92511022D01*
X130054011Y-92556777D01*
X129984853Y-92566721D01*
X129921297Y-92537696D01*
X129914819Y-92531664D01*
X127725895Y-90342740D01*
X127692410Y-90281417D01*
X127694914Y-90219067D01*
X127735300Y-90085934D01*
X127755583Y-89880000D01*
X127735300Y-89674066D01*
X127675232Y-89476046D01*
X127577685Y-89293550D01*
X127471381Y-89164017D01*
X127446410Y-89133589D01*
X127296121Y-89010252D01*
X127286450Y-89002315D01*
X127103954Y-88904768D01*
X126905934Y-88844700D01*
X126905932Y-88844699D01*
X126905934Y-88844699D01*
X126700000Y-88824417D01*
X126494067Y-88844699D01*
X126296043Y-88904769D01*
X126248369Y-88930252D01*
X126113550Y-89002315D01*
X126113548Y-89002316D01*
X126113547Y-89002317D01*
X125953589Y-89133589D01*
X125822317Y-89293547D01*
X125822315Y-89293550D01*
X125795340Y-89344017D01*
X125724769Y-89476043D01*
X125664699Y-89674067D01*
X125644417Y-89880000D01*
X125664699Y-90085932D01*
X125664700Y-90085934D01*
X125724768Y-90283954D01*
X125822315Y-90466450D01*
X125822317Y-90466452D01*
X125953589Y-90626410D01*
X126016065Y-90677682D01*
X126113550Y-90757685D01*
X126296046Y-90855232D01*
X126494066Y-90915300D01*
X126494065Y-90915300D01*
X126512529Y-90917118D01*
X126700000Y-90935583D01*
X126905934Y-90915300D01*
X127103954Y-90855232D01*
X127158476Y-90826088D01*
X127226876Y-90811846D01*
X127292120Y-90836845D01*
X127304610Y-90847765D01*
X129636181Y-93179336D01*
X129669666Y-93240659D01*
X129672500Y-93267017D01*
X129672500Y-104066983D01*
X129652815Y-104134022D01*
X129636181Y-104154664D01*
X128997664Y-104793181D01*
X128936341Y-104826666D01*
X128909983Y-104829500D01*
X128880632Y-104829500D01*
X128749440Y-104868021D01*
X128634413Y-104941942D01*
X128634409Y-104941946D01*
X128544872Y-105045278D01*
X128544867Y-105045285D01*
X128488070Y-105169654D01*
X128488068Y-105169662D01*
X128468610Y-105305000D01*
X128488068Y-105440337D01*
X128488070Y-105440345D01*
X128544867Y-105564714D01*
X128544872Y-105564721D01*
X128634409Y-105668053D01*
X128634413Y-105668057D01*
X128657129Y-105682655D01*
X128749439Y-105741978D01*
X128815036Y-105761239D01*
X128880632Y-105780500D01*
X128880633Y-105780500D01*
X129017367Y-105780500D01*
X129148561Y-105741978D01*
X129263589Y-105668055D01*
X129353130Y-105564718D01*
X129409931Y-105440342D01*
X129426411Y-105325718D01*
X129455434Y-105262165D01*
X129461452Y-105255701D01*
X129914820Y-104802334D01*
X129976142Y-104768850D01*
X130045834Y-104773834D01*
X130101767Y-104815706D01*
X130126184Y-104881170D01*
X130126500Y-104890016D01*
X130126500Y-105158982D01*
X130106815Y-105226021D01*
X130090181Y-105246663D01*
X129251013Y-106085830D01*
X129189690Y-106119315D01*
X129128397Y-106117126D01*
X129068368Y-106099500D01*
X129068367Y-106099500D01*
X128931633Y-106099500D01*
X128931632Y-106099500D01*
X128800440Y-106138021D01*
X128685413Y-106211942D01*
X128685409Y-106211946D01*
X128595872Y-106315278D01*
X128595867Y-106315285D01*
X128539070Y-106439654D01*
X128539068Y-106439662D01*
X128519610Y-106575000D01*
X128539068Y-106710337D01*
X128539070Y-106710345D01*
X128595867Y-106834714D01*
X128595872Y-106834721D01*
X128685409Y-106938053D01*
X128685413Y-106938057D01*
X128745979Y-106976979D01*
X128800439Y-107011978D01*
X128843085Y-107024500D01*
X128931632Y-107050500D01*
X128931633Y-107050500D01*
X129068367Y-107050500D01*
X129193942Y-107013628D01*
X129263811Y-107013628D01*
X129322589Y-107051402D01*
X129351614Y-107114958D01*
X129341671Y-107184116D01*
X129316557Y-107220286D01*
X129196902Y-107339941D01*
X129135579Y-107373426D01*
X129074294Y-107371239D01*
X129068373Y-107369500D01*
X129068367Y-107369500D01*
X128931633Y-107369500D01*
X128931632Y-107369500D01*
X128800440Y-107408021D01*
X128685413Y-107481942D01*
X128685409Y-107481946D01*
X128595872Y-107585278D01*
X128595867Y-107585285D01*
X128539070Y-107709654D01*
X128539068Y-107709662D01*
X128519610Y-107845000D01*
X128539068Y-107980337D01*
X128539070Y-107980345D01*
X128595867Y-108104714D01*
X128595872Y-108104721D01*
X128685409Y-108208053D01*
X128685413Y-108208057D01*
X128745773Y-108246847D01*
X128800439Y-108281978D01*
X128866036Y-108301239D01*
X128931632Y-108320500D01*
X128931633Y-108320500D01*
X129068367Y-108320500D01*
X129199561Y-108281978D01*
X129223597Y-108266531D01*
X129290633Y-108246847D01*
X129357673Y-108266531D01*
X129403428Y-108319335D01*
X129413372Y-108388493D01*
X129384348Y-108452049D01*
X129378315Y-108458528D01*
X129220092Y-108616751D01*
X129158769Y-108650236D01*
X129097476Y-108648047D01*
X129068368Y-108639500D01*
X129068367Y-108639500D01*
X128931633Y-108639500D01*
X128931632Y-108639500D01*
X128800440Y-108678021D01*
X128685413Y-108751942D01*
X128685409Y-108751946D01*
X128595872Y-108855278D01*
X128595867Y-108855285D01*
X128539070Y-108979654D01*
X128539068Y-108979662D01*
X128519610Y-109115000D01*
X128539068Y-109250337D01*
X128539070Y-109250345D01*
X128595867Y-109374714D01*
X128595872Y-109374721D01*
X128685409Y-109478053D01*
X128685413Y-109478057D01*
X128745979Y-109516979D01*
X128800439Y-109551978D01*
X128866036Y-109571239D01*
X128931632Y-109590500D01*
X128931633Y-109590500D01*
X129068367Y-109590500D01*
X129199561Y-109551978D01*
X129314589Y-109478055D01*
X129404130Y-109374718D01*
X129408027Y-109366182D01*
X129433137Y-109330016D01*
X131276820Y-107486333D01*
X131338142Y-107452850D01*
X131407834Y-107457834D01*
X131463767Y-107499706D01*
X131488184Y-107565170D01*
X131488500Y-107574016D01*
X131488500Y-108096983D01*
X131468815Y-108164022D01*
X131452181Y-108184664D01*
X129615664Y-110021181D01*
X129554341Y-110054666D01*
X129527983Y-110057500D01*
X129401872Y-110057500D01*
X129334833Y-110037815D01*
X129320671Y-110027215D01*
X129314586Y-110021942D01*
X129199559Y-109948021D01*
X129068368Y-109909500D01*
X129068367Y-109909500D01*
X128931633Y-109909500D01*
X128931632Y-109909500D01*
X128800440Y-109948021D01*
X128685413Y-110021942D01*
X128685409Y-110021946D01*
X128595872Y-110125278D01*
X128595867Y-110125285D01*
X128539070Y-110249654D01*
X128539068Y-110249662D01*
X128519610Y-110385000D01*
X128539068Y-110520337D01*
X128539070Y-110520345D01*
X128595867Y-110644714D01*
X128595872Y-110644721D01*
X128685409Y-110748053D01*
X128685413Y-110748057D01*
X128711252Y-110764662D01*
X128800439Y-110821978D01*
X128866036Y-110841239D01*
X128931632Y-110860500D01*
X128931633Y-110860500D01*
X129068367Y-110860500D01*
X129199561Y-110821978D01*
X129314589Y-110748055D01*
X129314591Y-110748052D01*
X129320671Y-110742785D01*
X129384228Y-110713762D01*
X129401872Y-110712500D01*
X129758114Y-110712500D01*
X129758116Y-110712500D01*
X129841410Y-110690181D01*
X129916090Y-110647065D01*
X131730819Y-108832336D01*
X131792142Y-108798851D01*
X131861834Y-108803835D01*
X131917767Y-108845707D01*
X131942184Y-108911171D01*
X131942500Y-108920017D01*
X131942500Y-108942983D01*
X131922815Y-109010022D01*
X131906181Y-109030664D01*
X129645664Y-111291181D01*
X129584341Y-111324666D01*
X129557983Y-111327500D01*
X129401872Y-111327500D01*
X129334833Y-111307815D01*
X129320671Y-111297215D01*
X129314586Y-111291942D01*
X129199559Y-111218021D01*
X129068368Y-111179500D01*
X129068367Y-111179500D01*
X128931633Y-111179500D01*
X128931632Y-111179500D01*
X128800440Y-111218021D01*
X128685413Y-111291942D01*
X128685409Y-111291946D01*
X128595872Y-111395278D01*
X128595867Y-111395285D01*
X128539070Y-111519654D01*
X128539068Y-111519662D01*
X128519610Y-111655000D01*
X128539068Y-111790337D01*
X128539070Y-111790345D01*
X128595867Y-111914714D01*
X128595872Y-111914721D01*
X128685409Y-112018053D01*
X128685413Y-112018057D01*
X128712310Y-112035342D01*
X128800439Y-112091978D01*
X128844158Y-112104815D01*
X128931632Y-112130500D01*
X128931633Y-112130500D01*
X129068367Y-112130500D01*
X129199561Y-112091978D01*
X129314589Y-112018055D01*
X129314591Y-112018052D01*
X129320671Y-112012785D01*
X129384228Y-111983762D01*
X129401872Y-111982500D01*
X129788114Y-111982500D01*
X129788116Y-111982500D01*
X129871410Y-111960181D01*
X129946090Y-111917065D01*
X132184819Y-109678336D01*
X132246142Y-109644851D01*
X132315834Y-109649835D01*
X132371767Y-109691707D01*
X132396184Y-109757171D01*
X132396500Y-109766017D01*
X132396500Y-109988983D01*
X132376815Y-110056022D01*
X132360181Y-110076664D01*
X129875664Y-112561181D01*
X129814341Y-112594666D01*
X129787983Y-112597500D01*
X129501872Y-112597500D01*
X129434833Y-112577815D01*
X129420671Y-112567215D01*
X129414586Y-112561942D01*
X129299559Y-112488021D01*
X129168368Y-112449500D01*
X129168367Y-112449500D01*
X129031633Y-112449500D01*
X129031632Y-112449500D01*
X128900440Y-112488021D01*
X128785413Y-112561942D01*
X128785409Y-112561946D01*
X128695872Y-112665278D01*
X128695867Y-112665285D01*
X128639070Y-112789654D01*
X128639068Y-112789662D01*
X128619610Y-112925000D01*
X128639068Y-113060337D01*
X128639070Y-113060345D01*
X128695867Y-113184714D01*
X128695872Y-113184721D01*
X128785409Y-113288053D01*
X128785413Y-113288057D01*
X128835592Y-113320304D01*
X128900439Y-113361978D01*
X128917151Y-113366885D01*
X129031632Y-113400500D01*
X129031633Y-113400500D01*
X129168367Y-113400500D01*
X129299561Y-113361978D01*
X129414589Y-113288055D01*
X129414591Y-113288052D01*
X129420671Y-113282785D01*
X129484228Y-113253762D01*
X129501872Y-113252500D01*
X130018114Y-113252500D01*
X130018116Y-113252500D01*
X130101410Y-113230181D01*
X130176090Y-113187065D01*
X132986065Y-110377090D01*
X133029181Y-110302410D01*
X133051500Y-110219116D01*
X133051500Y-110132884D01*
X133051500Y-96247122D01*
X133071185Y-96180083D01*
X133087819Y-96159441D01*
X136960819Y-92286441D01*
X137022142Y-92252956D01*
X137091834Y-92257940D01*
X137147767Y-92299812D01*
X137172184Y-92365276D01*
X137172500Y-92374122D01*
X137172500Y-111021983D01*
X137152815Y-111089022D01*
X137136181Y-111109664D01*
X134414664Y-113831181D01*
X134353341Y-113864666D01*
X134326983Y-113867500D01*
X129501872Y-113867500D01*
X129434833Y-113847815D01*
X129420671Y-113837215D01*
X129414586Y-113831942D01*
X129323736Y-113773558D01*
X129299561Y-113758022D01*
X129299560Y-113758021D01*
X129299559Y-113758021D01*
X129168368Y-113719500D01*
X129168367Y-113719500D01*
X129031633Y-113719500D01*
X129031632Y-113719500D01*
X128900440Y-113758021D01*
X128785413Y-113831942D01*
X128785409Y-113831946D01*
X128695872Y-113935278D01*
X128695867Y-113935285D01*
X128639070Y-114059654D01*
X128639068Y-114059662D01*
X128619610Y-114195000D01*
X128639068Y-114330337D01*
X128639070Y-114330345D01*
X128695867Y-114454714D01*
X128695872Y-114454721D01*
X128785409Y-114558053D01*
X128785413Y-114558057D01*
X128811241Y-114574655D01*
X128900439Y-114631978D01*
X128966036Y-114651239D01*
X129031632Y-114670500D01*
X129031633Y-114670500D01*
X129168367Y-114670500D01*
X129299561Y-114631978D01*
X129414589Y-114558055D01*
X129414591Y-114558052D01*
X129420671Y-114552785D01*
X129484228Y-114523762D01*
X129501872Y-114522500D01*
X134557114Y-114522500D01*
X134557116Y-114522500D01*
X134640410Y-114500181D01*
X134715090Y-114457065D01*
X137414819Y-111757336D01*
X137476142Y-111723851D01*
X137545834Y-111728835D01*
X137601767Y-111770707D01*
X137626184Y-111836171D01*
X137626500Y-111845017D01*
X137626500Y-111958983D01*
X137606815Y-112026022D01*
X137590181Y-112046664D01*
X134535664Y-115101181D01*
X134474341Y-115134666D01*
X134447983Y-115137500D01*
X129601872Y-115137500D01*
X129534833Y-115117815D01*
X129520671Y-115107215D01*
X129514586Y-115101942D01*
X129399559Y-115028021D01*
X129268368Y-114989500D01*
X129268367Y-114989500D01*
X129131633Y-114989500D01*
X129131632Y-114989500D01*
X129000440Y-115028021D01*
X128885413Y-115101942D01*
X128885409Y-115101946D01*
X128795872Y-115205278D01*
X128795867Y-115205285D01*
X128739070Y-115329654D01*
X128739068Y-115329662D01*
X128719610Y-115465000D01*
X128739068Y-115600337D01*
X128739070Y-115600345D01*
X128795867Y-115724714D01*
X128795872Y-115724721D01*
X128885409Y-115828053D01*
X128885413Y-115828057D01*
X128945979Y-115866979D01*
X129000439Y-115901978D01*
X129066036Y-115921239D01*
X129131632Y-115940500D01*
X129131633Y-115940500D01*
X129268367Y-115940500D01*
X129399561Y-115901978D01*
X129514589Y-115828055D01*
X129514591Y-115828052D01*
X129520671Y-115822785D01*
X129584228Y-115793762D01*
X129601872Y-115792500D01*
X134678115Y-115792500D01*
X134678116Y-115792500D01*
X134731389Y-115778225D01*
X134801237Y-115779886D01*
X134859100Y-115819048D01*
X134886606Y-115883276D01*
X134875021Y-115952178D01*
X134851164Y-115985680D01*
X134465664Y-116371181D01*
X134404341Y-116404666D01*
X134377983Y-116407500D01*
X129601872Y-116407500D01*
X129534833Y-116387815D01*
X129520671Y-116377215D01*
X129514586Y-116371942D01*
X129399559Y-116298021D01*
X129268368Y-116259500D01*
X129268367Y-116259500D01*
X129131633Y-116259500D01*
X129131632Y-116259500D01*
X129000440Y-116298021D01*
X128885413Y-116371942D01*
X128885409Y-116371946D01*
X128795872Y-116475278D01*
X128795867Y-116475285D01*
X128739070Y-116599654D01*
X128739068Y-116599662D01*
X128719610Y-116735000D01*
X128739068Y-116870337D01*
X128739070Y-116870345D01*
X128795867Y-116994714D01*
X128795872Y-116994721D01*
X128885409Y-117098053D01*
X128885413Y-117098057D01*
X128942882Y-117134989D01*
X129000439Y-117171978D01*
X129050247Y-117186603D01*
X129131632Y-117210500D01*
X129131633Y-117210500D01*
X129268367Y-117210500D01*
X129399561Y-117171978D01*
X129514589Y-117098055D01*
X129514591Y-117098052D01*
X129520671Y-117092785D01*
X129584228Y-117063762D01*
X129601872Y-117062500D01*
X132374983Y-117062500D01*
X132442022Y-117082185D01*
X132487777Y-117134989D01*
X132497721Y-117204147D01*
X132468696Y-117267703D01*
X132462664Y-117274181D01*
X132348664Y-117388181D01*
X132287341Y-117421666D01*
X132260983Y-117424500D01*
X132231632Y-117424500D01*
X132100440Y-117463021D01*
X131985413Y-117536942D01*
X131985409Y-117536946D01*
X131895872Y-117640278D01*
X131895867Y-117640285D01*
X131839070Y-117764654D01*
X131839068Y-117764662D01*
X131819610Y-117900000D01*
X131839068Y-118035337D01*
X131839070Y-118035345D01*
X131895867Y-118159714D01*
X131895872Y-118159721D01*
X131985409Y-118263053D01*
X131985413Y-118263057D01*
X132018357Y-118284228D01*
X132100439Y-118336978D01*
X132166036Y-118356239D01*
X132231632Y-118375500D01*
X132231633Y-118375500D01*
X132368367Y-118375500D01*
X132499561Y-118336978D01*
X132614589Y-118263055D01*
X132704130Y-118159718D01*
X132760931Y-118035342D01*
X132777410Y-117920719D01*
X132806434Y-117857166D01*
X132812468Y-117850686D01*
X132899338Y-117763818D01*
X132960661Y-117730333D01*
X132987018Y-117727500D01*
X135743114Y-117727500D01*
X135743116Y-117727500D01*
X135826410Y-117705181D01*
X135901090Y-117662065D01*
X138776819Y-114786336D01*
X138838142Y-114752851D01*
X138907834Y-114757835D01*
X138963767Y-114799707D01*
X138988184Y-114865171D01*
X138988500Y-114874017D01*
X138988500Y-114959116D01*
X139010819Y-115042410D01*
X139045189Y-115101942D01*
X139053934Y-115117088D01*
X139053936Y-115117091D01*
X141787532Y-117850687D01*
X141821017Y-117912010D01*
X141822589Y-117920721D01*
X141839068Y-118035337D01*
X141839070Y-118035345D01*
X141895867Y-118159714D01*
X141895872Y-118159721D01*
X141957999Y-118231420D01*
X141985411Y-118263055D01*
X142025538Y-118288842D01*
X142071293Y-118341644D01*
X142082500Y-118393158D01*
X142082500Y-119143116D01*
X142104819Y-119226410D01*
X142147935Y-119301090D01*
X142208910Y-119362065D01*
X142283590Y-119405181D01*
X142366884Y-119427500D01*
X142366886Y-119427500D01*
X142453114Y-119427500D01*
X142453116Y-119427500D01*
X142536410Y-119405181D01*
X142611090Y-119362065D01*
X142672065Y-119301090D01*
X142715181Y-119226410D01*
X142737500Y-119143116D01*
X142737500Y-118113622D01*
X142748705Y-118062112D01*
X142760931Y-118035342D01*
X142780390Y-117900000D01*
X142760931Y-117764658D01*
X142733768Y-117705180D01*
X142704132Y-117640285D01*
X142704127Y-117640278D01*
X142614590Y-117536946D01*
X142614586Y-117536942D01*
X142499559Y-117463021D01*
X142368368Y-117424500D01*
X142368367Y-117424500D01*
X142339017Y-117424500D01*
X142271978Y-117404815D01*
X142251336Y-117388181D01*
X142137336Y-117274181D01*
X142103851Y-117212858D01*
X142108835Y-117143166D01*
X142150707Y-117087233D01*
X142216171Y-117062816D01*
X142225017Y-117062500D01*
X143698128Y-117062500D01*
X143765167Y-117082185D01*
X143779329Y-117092785D01*
X143785413Y-117098057D01*
X143842882Y-117134989D01*
X143900439Y-117171978D01*
X143950247Y-117186603D01*
X144031632Y-117210500D01*
X144031633Y-117210500D01*
X144168367Y-117210500D01*
X144299561Y-117171978D01*
X144414589Y-117098055D01*
X144504130Y-116994718D01*
X144560931Y-116870342D01*
X144580390Y-116735000D01*
X144560931Y-116599658D01*
X144519915Y-116509846D01*
X144504132Y-116475285D01*
X144504127Y-116475278D01*
X144414590Y-116371946D01*
X144414586Y-116371942D01*
X144299559Y-116298021D01*
X144168368Y-116259500D01*
X144168367Y-116259500D01*
X144031633Y-116259500D01*
X144031632Y-116259500D01*
X143900440Y-116298021D01*
X143785413Y-116371942D01*
X143779329Y-116377215D01*
X143715772Y-116406238D01*
X143698128Y-116407500D01*
X142022017Y-116407500D01*
X141954978Y-116387815D01*
X141934336Y-116371181D01*
X141548835Y-115985680D01*
X141515350Y-115924357D01*
X141520334Y-115854665D01*
X141562206Y-115798732D01*
X141627670Y-115774315D01*
X141668609Y-115778224D01*
X141721884Y-115792500D01*
X143798128Y-115792500D01*
X143865167Y-115812185D01*
X143879329Y-115822785D01*
X143885413Y-115828057D01*
X143945979Y-115866979D01*
X144000439Y-115901978D01*
X144066036Y-115921239D01*
X144131632Y-115940500D01*
X144131633Y-115940500D01*
X144268367Y-115940500D01*
X144399561Y-115901978D01*
X144514589Y-115828055D01*
X144604130Y-115724718D01*
X144660931Y-115600342D01*
X144680390Y-115465000D01*
X144660931Y-115329658D01*
X144648677Y-115302827D01*
X144604132Y-115205285D01*
X144604127Y-115205278D01*
X144514590Y-115101946D01*
X144514586Y-115101942D01*
X144399559Y-115028021D01*
X144259857Y-114987001D01*
X144260851Y-114983614D01*
X144212651Y-114961603D01*
X144174876Y-114902825D01*
X144174876Y-114832955D01*
X144212650Y-114774177D01*
X144258919Y-114748912D01*
X144299558Y-114736979D01*
X144299559Y-114736979D01*
X144414586Y-114663057D01*
X144414586Y-114663056D01*
X144414589Y-114663055D01*
X144504130Y-114559718D01*
X144504890Y-114558055D01*
X144551011Y-114457063D01*
X144560931Y-114435342D01*
X144580390Y-114300000D01*
X144560931Y-114164658D01*
X144539633Y-114118022D01*
X144504132Y-114040285D01*
X144504127Y-114040278D01*
X144414590Y-113936946D01*
X144414586Y-113936942D01*
X144299559Y-113863021D01*
X144168368Y-113824500D01*
X144168367Y-113824500D01*
X144031633Y-113824500D01*
X144031632Y-113824500D01*
X143900440Y-113863021D01*
X143785413Y-113936942D01*
X143779329Y-113942215D01*
X143715772Y-113971238D01*
X143698128Y-113972500D01*
X142387017Y-113972500D01*
X142319978Y-113952815D01*
X142299336Y-113936181D01*
X141041819Y-112678664D01*
X141008334Y-112617341D01*
X141005500Y-112590983D01*
X141005500Y-111868017D01*
X141025185Y-111800978D01*
X141077989Y-111755223D01*
X141147147Y-111745279D01*
X141210703Y-111774304D01*
X141217181Y-111780336D01*
X142562935Y-113126090D01*
X142623910Y-113187065D01*
X142698590Y-113230181D01*
X142781884Y-113252500D01*
X143698128Y-113252500D01*
X143765167Y-113272185D01*
X143779329Y-113282785D01*
X143785413Y-113288057D01*
X143835592Y-113320304D01*
X143900439Y-113361978D01*
X143917151Y-113366885D01*
X144031632Y-113400500D01*
X144031633Y-113400500D01*
X144168367Y-113400500D01*
X144299561Y-113361978D01*
X144414589Y-113288055D01*
X144504130Y-113184718D01*
X144560931Y-113060342D01*
X144580390Y-112925000D01*
X144560931Y-112789658D01*
X144536123Y-112735337D01*
X144504132Y-112665285D01*
X144504127Y-112665278D01*
X144414590Y-112561946D01*
X144414586Y-112561942D01*
X144299559Y-112488021D01*
X144168368Y-112449500D01*
X144168367Y-112449500D01*
X144031633Y-112449500D01*
X144031632Y-112449500D01*
X143900440Y-112488021D01*
X143785413Y-112561942D01*
X143779329Y-112567215D01*
X143715772Y-112596238D01*
X143698128Y-112597500D01*
X143012017Y-112597500D01*
X142944978Y-112577815D01*
X142924336Y-112561181D01*
X141495819Y-111132664D01*
X141462334Y-111071341D01*
X141459500Y-111044983D01*
X141459500Y-110622017D01*
X141479185Y-110554978D01*
X141531989Y-110509223D01*
X141601147Y-110499279D01*
X141664703Y-110528304D01*
X141671181Y-110534336D01*
X142992935Y-111856090D01*
X143053910Y-111917065D01*
X143128590Y-111960181D01*
X143211884Y-111982500D01*
X143698128Y-111982500D01*
X143765167Y-112002185D01*
X143779329Y-112012785D01*
X143785413Y-112018057D01*
X143812310Y-112035342D01*
X143900439Y-112091978D01*
X143944158Y-112104815D01*
X144031632Y-112130500D01*
X144031633Y-112130500D01*
X144168367Y-112130500D01*
X144299561Y-112091978D01*
X144414589Y-112018055D01*
X144504130Y-111914718D01*
X144560931Y-111790342D01*
X144580390Y-111655000D01*
X144560931Y-111519658D01*
X144517474Y-111424500D01*
X144504132Y-111395285D01*
X144504127Y-111395278D01*
X144414590Y-111291946D01*
X144414586Y-111291942D01*
X144299559Y-111218021D01*
X144168368Y-111179500D01*
X144168367Y-111179500D01*
X144031633Y-111179500D01*
X144031632Y-111179500D01*
X143900440Y-111218021D01*
X143785413Y-111291942D01*
X143779329Y-111297215D01*
X143715772Y-111326238D01*
X143698128Y-111327500D01*
X143442017Y-111327500D01*
X143374978Y-111307815D01*
X143354336Y-111291181D01*
X142063819Y-110000664D01*
X142030334Y-109939341D01*
X142027500Y-109912983D01*
X142027500Y-109690017D01*
X142047185Y-109622978D01*
X142099989Y-109577223D01*
X142169147Y-109567279D01*
X142232703Y-109596304D01*
X142239181Y-109602336D01*
X143222935Y-110586090D01*
X143283910Y-110647065D01*
X143358590Y-110690181D01*
X143441884Y-110712500D01*
X143698128Y-110712500D01*
X143765167Y-110732185D01*
X143779329Y-110742785D01*
X143785413Y-110748057D01*
X143811252Y-110764662D01*
X143900439Y-110821978D01*
X143966036Y-110841239D01*
X144031632Y-110860500D01*
X144031633Y-110860500D01*
X144168367Y-110860500D01*
X144299561Y-110821978D01*
X144414589Y-110748055D01*
X144504130Y-110644718D01*
X144506155Y-110640285D01*
X144516383Y-110617887D01*
X144560931Y-110520342D01*
X144580390Y-110385000D01*
X144560931Y-110249658D01*
X144507602Y-110132884D01*
X144504132Y-110125285D01*
X144504127Y-110125278D01*
X144414590Y-110021946D01*
X144414586Y-110021942D01*
X144299559Y-109948021D01*
X144168368Y-109909500D01*
X144168367Y-109909500D01*
X144031633Y-109909500D01*
X144031632Y-109909500D01*
X143900440Y-109948021D01*
X143785413Y-110021942D01*
X143779329Y-110027215D01*
X143715772Y-110056238D01*
X143698128Y-110057500D01*
X143672017Y-110057500D01*
X143604978Y-110037815D01*
X143584336Y-110021181D01*
X142517819Y-108954664D01*
X142484334Y-108893341D01*
X142481500Y-108866983D01*
X142481500Y-106844017D01*
X142501185Y-106776978D01*
X142553989Y-106731223D01*
X142623147Y-106721279D01*
X142686703Y-106750304D01*
X142693181Y-106756336D01*
X143687532Y-107750687D01*
X143721017Y-107812010D01*
X143722589Y-107820721D01*
X143739068Y-107935337D01*
X143739070Y-107935345D01*
X143795867Y-108059714D01*
X143795872Y-108059721D01*
X143885409Y-108163053D01*
X143885413Y-108163057D01*
X143935407Y-108195185D01*
X144000439Y-108236978D01*
X144064922Y-108255912D01*
X144131632Y-108275500D01*
X144131633Y-108275500D01*
X144268367Y-108275500D01*
X144399561Y-108236978D01*
X144514589Y-108163055D01*
X144604130Y-108059718D01*
X144660931Y-107935342D01*
X144680390Y-107800000D01*
X144660931Y-107664658D01*
X144646254Y-107632520D01*
X144604132Y-107540285D01*
X144604127Y-107540278D01*
X144514590Y-107436946D01*
X144514586Y-107436942D01*
X144402113Y-107364662D01*
X144399561Y-107363022D01*
X144399560Y-107363021D01*
X144399559Y-107363021D01*
X144268368Y-107324500D01*
X144268367Y-107324500D01*
X144239017Y-107324500D01*
X144171978Y-107304815D01*
X144151336Y-107288181D01*
X142971819Y-106108664D01*
X142938334Y-106047341D01*
X142935500Y-106020983D01*
X142935500Y-103733017D01*
X142955185Y-103665978D01*
X143007989Y-103620223D01*
X143077147Y-103610279D01*
X143140703Y-103639304D01*
X143147181Y-103645336D01*
X143493409Y-103991564D01*
X143526894Y-104052887D01*
X143528466Y-104061598D01*
X143539068Y-104135337D01*
X143539070Y-104135345D01*
X143595867Y-104259714D01*
X143595872Y-104259721D01*
X143685409Y-104363053D01*
X143685413Y-104363057D01*
X143741866Y-104399336D01*
X143800439Y-104436978D01*
X143866036Y-104456239D01*
X143931632Y-104475500D01*
X143931633Y-104475500D01*
X144068367Y-104475500D01*
X144199561Y-104436978D01*
X144314589Y-104363055D01*
X144404130Y-104259718D01*
X144460931Y-104135342D01*
X144480390Y-104000000D01*
X144460931Y-103864658D01*
X144448677Y-103837827D01*
X144404132Y-103740285D01*
X144404127Y-103740278D01*
X144314590Y-103636946D01*
X144314586Y-103636942D01*
X144199559Y-103563021D01*
X144068368Y-103524500D01*
X144068367Y-103524500D01*
X144004017Y-103524500D01*
X143936978Y-103504815D01*
X143916336Y-103488181D01*
X143425819Y-102997664D01*
X143392334Y-102936341D01*
X143389500Y-102909983D01*
X143389500Y-99625017D01*
X143409185Y-99557978D01*
X143425819Y-99537336D01*
X145699336Y-97263819D01*
X145760659Y-97230334D01*
X145787017Y-97227500D01*
X149884904Y-97227500D01*
X149951943Y-97247185D01*
X149997698Y-97299989D01*
X150007642Y-97369147D01*
X149980757Y-97430165D01*
X149866283Y-97569652D01*
X149866278Y-97569659D01*
X149778068Y-97734687D01*
X149743089Y-97850000D01*
X150226988Y-97850000D01*
X150194075Y-97907007D01*
X150160000Y-98034174D01*
X150160000Y-98165826D01*
X150194075Y-98292993D01*
X150226988Y-98350000D01*
X149743089Y-98350000D01*
X149778068Y-98465312D01*
X149866278Y-98630340D01*
X149866283Y-98630347D01*
X149984997Y-98775002D01*
X150129652Y-98893716D01*
X150129659Y-98893721D01*
X150294687Y-98981931D01*
X150410000Y-99016910D01*
X150410000Y-98533012D01*
X150467007Y-98565925D01*
X150594174Y-98600000D01*
X150725826Y-98600000D01*
X150852993Y-98565925D01*
X150910000Y-98533012D01*
X150910000Y-99016910D01*
X151025312Y-98981931D01*
X151190340Y-98893721D01*
X151190347Y-98893716D01*
X151335002Y-98775002D01*
X151453716Y-98630347D01*
X151453721Y-98630340D01*
X151541931Y-98465312D01*
X151576911Y-98350000D01*
X151093012Y-98350000D01*
X151125925Y-98292993D01*
X151160000Y-98165826D01*
X151160000Y-98100000D01*
X152144417Y-98100000D01*
X152164699Y-98305932D01*
X152164700Y-98305934D01*
X152224768Y-98503954D01*
X152322315Y-98686450D01*
X152322317Y-98686452D01*
X152453589Y-98846410D01*
X152511239Y-98893721D01*
X152613550Y-98977685D01*
X152796046Y-99075232D01*
X152994066Y-99135300D01*
X152994065Y-99135300D01*
X153012529Y-99137118D01*
X153200000Y-99155583D01*
X153405934Y-99135300D01*
X153603954Y-99075232D01*
X153786450Y-98977685D01*
X153946410Y-98846410D01*
X154077685Y-98686450D01*
X154175232Y-98503954D01*
X154235300Y-98305934D01*
X154255583Y-98100000D01*
X154235300Y-97894066D01*
X154175232Y-97696046D01*
X154077685Y-97513550D01*
X154009253Y-97430165D01*
X153946410Y-97353589D01*
X153786452Y-97222317D01*
X153786453Y-97222317D01*
X153786450Y-97222315D01*
X153603954Y-97124768D01*
X153405934Y-97064700D01*
X153405932Y-97064699D01*
X153405934Y-97064699D01*
X153200000Y-97044417D01*
X152994067Y-97064699D01*
X152796043Y-97124769D01*
X152685898Y-97183643D01*
X152613550Y-97222315D01*
X152613548Y-97222316D01*
X152613547Y-97222317D01*
X152453589Y-97353589D01*
X152322317Y-97513547D01*
X152224769Y-97696043D01*
X152224768Y-97696045D01*
X152224768Y-97696046D01*
X152223599Y-97699901D01*
X152164699Y-97894067D01*
X152144417Y-98100000D01*
X151160000Y-98100000D01*
X151160000Y-98034174D01*
X151125925Y-97907007D01*
X151093012Y-97850000D01*
X151576911Y-97850000D01*
X151541931Y-97734687D01*
X151453721Y-97569659D01*
X151453716Y-97569652D01*
X151339243Y-97430165D01*
X151311930Y-97365855D01*
X151323721Y-97296987D01*
X151370873Y-97245427D01*
X151435096Y-97227500D01*
X152003114Y-97227500D01*
X152003116Y-97227500D01*
X152086410Y-97205181D01*
X152161090Y-97162065D01*
X152676336Y-96646819D01*
X152737659Y-96613334D01*
X152764017Y-96610500D01*
X154069750Y-96610500D01*
X154069751Y-96610499D01*
X154084568Y-96607552D01*
X154128229Y-96598868D01*
X154128229Y-96598867D01*
X154128231Y-96598867D01*
X154194552Y-96554552D01*
X154238867Y-96488231D01*
X154238867Y-96488229D01*
X154238868Y-96488229D01*
X154250499Y-96429752D01*
X154250500Y-96429750D01*
X154250500Y-94690249D01*
X154250499Y-94690247D01*
X154238868Y-94631770D01*
X154238867Y-94631769D01*
X154194552Y-94565447D01*
X154128230Y-94521132D01*
X154128229Y-94521131D01*
X154069752Y-94509500D01*
X154069748Y-94509500D01*
X152330252Y-94509500D01*
X152330247Y-94509500D01*
X152271770Y-94521131D01*
X152271769Y-94521132D01*
X152205447Y-94565447D01*
X152161132Y-94631769D01*
X152161131Y-94631770D01*
X152149500Y-94690247D01*
X152149500Y-96195983D01*
X152129815Y-96263022D01*
X152113181Y-96283664D01*
X151860664Y-96536181D01*
X151799341Y-96569666D01*
X151772983Y-96572500D01*
X151428735Y-96572500D01*
X151361696Y-96552815D01*
X151315941Y-96500011D01*
X151305997Y-96430853D01*
X151335022Y-96367297D01*
X151350071Y-96352646D01*
X151406410Y-96306410D01*
X151455066Y-96247122D01*
X151537685Y-96146450D01*
X151635232Y-95963954D01*
X151695300Y-95765934D01*
X151715583Y-95560000D01*
X151695300Y-95354066D01*
X151635232Y-95156046D01*
X151537685Y-94973550D01*
X151485702Y-94910209D01*
X151406410Y-94813589D01*
X151256121Y-94690252D01*
X151246450Y-94682315D01*
X151063954Y-94584768D01*
X150865934Y-94524700D01*
X150865932Y-94524699D01*
X150865934Y-94524699D01*
X150660000Y-94504417D01*
X150454067Y-94524699D01*
X150256043Y-94584769D01*
X150168114Y-94631769D01*
X150073550Y-94682315D01*
X150073548Y-94682316D01*
X150073547Y-94682317D01*
X149913589Y-94813589D01*
X149782317Y-94973547D01*
X149684769Y-95156043D01*
X149624699Y-95354067D01*
X149604417Y-95559999D01*
X149621786Y-95736346D01*
X149608767Y-95804992D01*
X149560702Y-95855702D01*
X149498383Y-95872500D01*
X144785116Y-95872500D01*
X144698884Y-95872500D01*
X144643354Y-95887379D01*
X144615589Y-95894819D01*
X144540911Y-95937934D01*
X144540908Y-95937936D01*
X142693181Y-97785664D01*
X142631858Y-97819149D01*
X142562166Y-97814165D01*
X142506233Y-97772293D01*
X142481816Y-97706829D01*
X142481500Y-97697983D01*
X142481500Y-96433017D01*
X142501185Y-96365978D01*
X142517819Y-96345336D01*
X145321336Y-93541819D01*
X145382659Y-93508334D01*
X145409017Y-93505500D01*
X172174036Y-93505500D01*
X172241075Y-93525185D01*
X172286830Y-93577989D01*
X172296774Y-93647147D01*
X172267749Y-93710703D01*
X172261717Y-93717181D01*
X166342717Y-99636181D01*
X166281394Y-99669666D01*
X166255036Y-99672500D01*
X149443116Y-99672500D01*
X149356884Y-99672500D01*
X149301354Y-99687379D01*
X149273589Y-99694819D01*
X149198911Y-99737934D01*
X149198908Y-99737936D01*
X146648664Y-102288181D01*
X146587341Y-102321666D01*
X146560983Y-102324500D01*
X146531632Y-102324500D01*
X146400440Y-102363021D01*
X146285413Y-102436942D01*
X146285409Y-102436946D01*
X146195872Y-102540278D01*
X146195867Y-102540285D01*
X146139070Y-102664654D01*
X146139068Y-102664662D01*
X146119610Y-102800000D01*
X146139068Y-102935337D01*
X146139070Y-102935345D01*
X146195867Y-103059714D01*
X146195872Y-103059721D01*
X146285409Y-103163053D01*
X146285413Y-103163057D01*
X146345979Y-103201979D01*
X146400439Y-103236978D01*
X146429003Y-103245365D01*
X146531632Y-103275500D01*
X146531633Y-103275500D01*
X146668367Y-103275500D01*
X146799561Y-103236978D01*
X146914589Y-103163055D01*
X147004130Y-103059718D01*
X147007042Y-103053343D01*
X147032469Y-102997664D01*
X147060931Y-102935342D01*
X147077411Y-102820718D01*
X147106434Y-102757165D01*
X147112453Y-102750700D01*
X149499336Y-100363819D01*
X149560659Y-100330334D01*
X149587017Y-100327500D01*
X166485167Y-100327500D01*
X166485169Y-100327500D01*
X166568463Y-100305181D01*
X166643143Y-100262065D01*
X177216065Y-89689143D01*
X177259181Y-89614463D01*
X177281500Y-89531169D01*
X177281500Y-89444937D01*
X177281500Y-78968831D01*
X177259181Y-78885537D01*
X177216065Y-78810857D01*
X177155090Y-78749882D01*
X174286008Y-75880800D01*
X182605978Y-75880800D01*
X182624844Y-76168637D01*
X182624846Y-76168649D01*
X182681117Y-76451545D01*
X182681121Y-76451560D01*
X182773842Y-76724705D01*
X182901419Y-76983406D01*
X182901423Y-76983413D01*
X183061678Y-77223252D01*
X183251872Y-77440127D01*
X183383894Y-77555907D01*
X183468746Y-77630320D01*
X183708589Y-77790578D01*
X183967298Y-77918159D01*
X184240447Y-78010881D01*
X184523361Y-78067156D01*
X184811200Y-78086022D01*
X185099039Y-78067156D01*
X185381953Y-78010881D01*
X185655102Y-77918159D01*
X185913811Y-77790578D01*
X186153654Y-77630320D01*
X186370527Y-77440127D01*
X186560720Y-77223254D01*
X186720978Y-76983411D01*
X186848559Y-76724702D01*
X186941281Y-76451553D01*
X186997556Y-76168639D01*
X187016422Y-75880800D01*
X186997556Y-75592961D01*
X186941281Y-75310047D01*
X186848559Y-75036898D01*
X186720978Y-74778189D01*
X186560720Y-74538346D01*
X186371329Y-74322387D01*
X186370527Y-74321472D01*
X186153652Y-74131278D01*
X185913813Y-73971023D01*
X185913806Y-73971019D01*
X185655105Y-73843442D01*
X185381960Y-73750721D01*
X185381954Y-73750719D01*
X185381953Y-73750719D01*
X185381951Y-73750718D01*
X185381945Y-73750717D01*
X185099049Y-73694446D01*
X185099039Y-73694444D01*
X184811200Y-73675578D01*
X184523361Y-73694444D01*
X184523355Y-73694445D01*
X184523350Y-73694446D01*
X184240454Y-73750717D01*
X184240439Y-73750721D01*
X183967294Y-73843442D01*
X183708593Y-73971019D01*
X183708586Y-73971023D01*
X183468747Y-74131278D01*
X183251872Y-74321472D01*
X183061678Y-74538347D01*
X182901423Y-74778186D01*
X182901419Y-74778193D01*
X182773842Y-75036894D01*
X182681121Y-75310039D01*
X182681117Y-75310054D01*
X182624846Y-75592950D01*
X182624844Y-75592962D01*
X182605978Y-75880800D01*
X174286008Y-75880800D01*
X173289143Y-74883935D01*
X173214463Y-74840819D01*
X173214464Y-74840819D01*
X173186698Y-74833379D01*
X173131169Y-74818500D01*
X129697116Y-74818500D01*
X129610884Y-74818500D01*
X129555354Y-74833379D01*
X129527589Y-74840819D01*
X129452911Y-74883934D01*
X129452908Y-74883936D01*
X122237936Y-82098908D01*
X122237934Y-82098911D01*
X122194819Y-82173589D01*
X122183659Y-82215237D01*
X122172500Y-82256884D01*
X115261700Y-82256884D01*
X115261700Y-75880800D01*
X116855978Y-75880800D01*
X116874844Y-76168637D01*
X116874846Y-76168649D01*
X116931117Y-76451545D01*
X116931121Y-76451560D01*
X117023842Y-76724705D01*
X117151419Y-76983406D01*
X117151423Y-76983413D01*
X117311678Y-77223252D01*
X117501872Y-77440127D01*
X117633894Y-77555907D01*
X117718746Y-77630320D01*
X117958589Y-77790578D01*
X118217298Y-77918159D01*
X118490447Y-78010881D01*
X118773361Y-78067156D01*
X119061200Y-78086022D01*
X119349039Y-78067156D01*
X119631953Y-78010881D01*
X119905102Y-77918159D01*
X120163811Y-77790578D01*
X120403654Y-77630320D01*
X120620527Y-77440127D01*
X120810720Y-77223254D01*
X120970978Y-76983411D01*
X121098559Y-76724702D01*
X121191281Y-76451553D01*
X121247556Y-76168639D01*
X121266422Y-75880800D01*
X121247556Y-75592961D01*
X121191281Y-75310047D01*
X121098559Y-75036898D01*
X120970978Y-74778189D01*
X120810720Y-74538346D01*
X120621329Y-74322387D01*
X120620527Y-74321472D01*
X120403652Y-74131278D01*
X120163813Y-73971023D01*
X120163806Y-73971019D01*
X119905105Y-73843442D01*
X119631960Y-73750721D01*
X119631954Y-73750719D01*
X119631953Y-73750719D01*
X119631951Y-73750718D01*
X119631945Y-73750717D01*
X119349049Y-73694446D01*
X119349039Y-73694444D01*
X119061200Y-73675578D01*
X118773361Y-73694444D01*
X118773355Y-73694445D01*
X118773350Y-73694446D01*
X118490454Y-73750717D01*
X118490439Y-73750721D01*
X118217294Y-73843442D01*
X117958593Y-73971019D01*
X117958586Y-73971023D01*
X117718747Y-74131278D01*
X117501872Y-74321472D01*
X117311678Y-74538347D01*
X117151423Y-74778186D01*
X117151419Y-74778193D01*
X117023842Y-75036894D01*
X116931121Y-75310039D01*
X116931117Y-75310054D01*
X116874846Y-75592950D01*
X116874844Y-75592962D01*
X116855978Y-75880800D01*
X115261700Y-75880800D01*
X115261700Y-73634866D01*
X115261965Y-73626756D01*
X115270424Y-73497694D01*
X115276564Y-73404007D01*
X115278679Y-73387953D01*
X115321430Y-73173026D01*
X115325628Y-73157361D01*
X115387549Y-72974948D01*
X115396068Y-72949849D01*
X115402267Y-72934883D01*
X115499195Y-72738333D01*
X115507298Y-72724298D01*
X115629053Y-72542079D01*
X115638910Y-72529233D01*
X115783407Y-72364465D01*
X115794865Y-72353007D01*
X115959633Y-72208510D01*
X115972479Y-72198653D01*
X116154698Y-72076898D01*
X116168733Y-72068795D01*
X116365283Y-71971867D01*
X116380249Y-71965668D01*
X116587145Y-71895437D01*
X116587761Y-71895228D01*
X116603428Y-71891030D01*
X116818353Y-71848279D01*
X116834409Y-71846164D01*
X117039258Y-71832738D01*
X117057158Y-71831565D01*
X117065267Y-71831300D01*
X117101082Y-71831300D01*
X187021318Y-71831300D01*
X187057133Y-71831300D01*
X187065243Y-71831565D01*
G37*
%TD.AperFunction*%
%TD*%
M02*
