%TF.GenerationSoftware,KiCad,Pcbnew,9.0.2-9.0.2-0~ubuntu24.04.1*%
%TF.CreationDate,2025-05-23T01:46:12+02:00*%
%TF.ProjectId,Pilot6Axis,50696c6f-7436-4417-9869-732e6b696361,rev?*%
%TF.SameCoordinates,Original*%
%TF.FileFunction,Soldermask,Bot*%
%TF.FilePolarity,Negative*%
%FSLAX46Y46*%
G04 Gerber Fmt 4.6, Leading zero omitted, Abs format (unit mm)*
G04 Created by KiCad (PCBNEW 9.0.2-9.0.2-0~ubuntu24.04.1) date 2025-05-23 01:46:12*
%MOMM*%
%LPD*%
G01*
G04 APERTURE LIST*
G04 Aperture macros list*
%AMRoundRect*
0 Rectangle with rounded corners*
0 $1 Rounding radius*
0 $2 $3 $4 $5 $6 $7 $8 $9 X,Y pos of 4 corners*
0 Add a 4 corners polygon primitive as box body*
4,1,4,$2,$3,$4,$5,$6,$7,$8,$9,$2,$3,0*
0 Add four circle primitives for the rounded corners*
1,1,$1+$1,$2,$3*
1,1,$1+$1,$4,$5*
1,1,$1+$1,$6,$7*
1,1,$1+$1,$8,$9*
0 Add four rect primitives between the rounded corners*
20,1,$1+$1,$2,$3,$4,$5,0*
20,1,$1+$1,$4,$5,$6,$7,0*
20,1,$1+$1,$6,$7,$8,$9,0*
20,1,$1+$1,$8,$9,$2,$3,0*%
G04 Aperture macros list end*
%ADD10R,1.700000X1.700000*%
%ADD11O,1.700000X1.700000*%
%ADD12RoundRect,0.244000X0.244000X0.269000X-0.244000X0.269000X-0.244000X-0.269000X0.244000X-0.269000X0*%
%ADD13C,0.650000*%
%ADD14O,1.000000X2.100000*%
%ADD15O,1.000000X1.600000*%
%ADD16RoundRect,0.250000X-0.620000X-0.845000X0.620000X-0.845000X0.620000X0.845000X-0.620000X0.845000X0*%
%ADD17O,1.740000X2.190000*%
%ADD18RoundRect,0.250000X0.845000X-0.620000X0.845000X0.620000X-0.845000X0.620000X-0.845000X-0.620000X0*%
%ADD19O,2.190000X1.740000*%
%ADD20RoundRect,0.244000X-0.244000X-0.269000X0.244000X-0.269000X0.244000X0.269000X-0.244000X0.269000X0*%
%ADD21C,1.700000*%
G04 APERTURE END LIST*
D10*
%TO.C,J3*%
X124160000Y-89880000D03*
D11*
X126700000Y-89880000D03*
X124160000Y-87340000D03*
X126700000Y-87340000D03*
X124160000Y-84800001D03*
X126700000Y-84800000D03*
%TD*%
D12*
%TO.C,C36*%
X173941200Y-101730800D03*
X172381200Y-101730800D03*
%TD*%
D13*
%TO.C,J2*%
X149110000Y-119955000D03*
X154890000Y-119955000D03*
D14*
X147680000Y-119455000D03*
D15*
X147680000Y-123635000D03*
D14*
X156320000Y-119455000D03*
D15*
X156320000Y-123635000D03*
%TD*%
D16*
%TO.C,J7*%
X152851200Y-79880800D03*
D17*
X155391200Y-79880800D03*
%TD*%
D16*
%TO.C,J10*%
X159119999Y-86800002D03*
D17*
X161659999Y-86800002D03*
%TD*%
D18*
%TO.C,J15*%
X184931200Y-93920800D03*
D19*
X184931200Y-91380800D03*
X184931200Y-88840800D03*
X184931200Y-86300800D03*
%TD*%
D16*
%TO.C,J14*%
X140560000Y-79900000D03*
D17*
X143100000Y-79900000D03*
%TD*%
D16*
%TO.C,J6*%
X146701200Y-79890800D03*
D17*
X149241200Y-79890800D03*
%TD*%
D10*
%TO.C,J19*%
X132810000Y-89800000D03*
D11*
X135350000Y-89800000D03*
X132810000Y-87260000D03*
X135350000Y-87260000D03*
X132810000Y-84720001D03*
X135350000Y-84720000D03*
%TD*%
D20*
%TO.C,C35*%
X172081200Y-105130800D03*
X173641200Y-105130800D03*
%TD*%
D16*
%TO.C,J12*%
X165329998Y-86800001D03*
D17*
X167869998Y-86800001D03*
%TD*%
D16*
%TO.C,J13*%
X171529999Y-79850800D03*
D17*
X174069999Y-79850800D03*
%TD*%
D10*
%TO.C,TH1*%
X184761200Y-107455800D03*
D21*
X184761200Y-109995800D03*
%TD*%
D10*
%TO.C,J5*%
X153200000Y-95560000D03*
D11*
X150660000Y-95560000D03*
X153200000Y-98100000D03*
X150660000Y-98100000D03*
%TD*%
D18*
%TO.C,J1*%
X184971200Y-102375800D03*
D19*
X184971200Y-99835800D03*
%TD*%
D10*
%TO.C,J16*%
X148361200Y-85510800D03*
D21*
X148361200Y-88050800D03*
X150901200Y-85510800D03*
X150901200Y-88050800D03*
X153441200Y-85510800D03*
X153441200Y-88050800D03*
%TD*%
D16*
%TO.C,J9*%
X159111200Y-79860800D03*
D17*
X161651200Y-79860800D03*
%TD*%
D16*
%TO.C,J11*%
X165329999Y-79900002D03*
D17*
X167869999Y-79900002D03*
%TD*%
D16*
%TO.C,J8*%
X140551200Y-86790800D03*
D17*
X143091200Y-86790800D03*
%TD*%
M02*
