%TF.GenerationSoftware,KiCad,Pcbnew,8.0.8-8.0.8-0~ubuntu22.04.1*%
%TF.CreationDate,2025-02-21T02:47:37+01:00*%
%TF.ProjectId,Pilot6Axis,50696c6f-7436-4417-9869-732e6b696361,rev?*%
%TF.SameCoordinates,Original*%
%TF.FileFunction,Legend,Bot*%
%TF.FilePolarity,Positive*%
%FSLAX46Y46*%
G04 Gerber Fmt 4.6, Leading zero omitted, Abs format (unit mm)*
G04 Created by KiCad (PCBNEW 8.0.8-8.0.8-0~ubuntu22.04.1) date 2025-02-21 02:47:37*
%MOMM*%
%LPD*%
G01*
G04 APERTURE LIST*
G04 Aperture macros list*
%AMRoundRect*
0 Rectangle with rounded corners*
0 $1 Rounding radius*
0 $2 $3 $4 $5 $6 $7 $8 $9 X,Y pos of 4 corners*
0 Add a 4 corners polygon primitive as box body*
4,1,4,$2,$3,$4,$5,$6,$7,$8,$9,$2,$3,0*
0 Add four circle primitives for the rounded corners*
1,1,$1+$1,$2,$3*
1,1,$1+$1,$4,$5*
1,1,$1+$1,$6,$7*
1,1,$1+$1,$8,$9*
0 Add four rect primitives between the rounded corners*
20,1,$1+$1,$2,$3,$4,$5,0*
20,1,$1+$1,$4,$5,$6,$7,0*
20,1,$1+$1,$6,$7,$8,$9,0*
20,1,$1+$1,$8,$9,$2,$3,0*%
G04 Aperture macros list end*
%ADD10C,0.150000*%
%ADD11C,0.100000*%
%ADD12C,0.200000*%
%ADD13C,0.300000*%
%ADD14R,1.700000X1.700000*%
%ADD15O,1.700000X1.700000*%
%ADD16RoundRect,0.250000X0.620000X0.845000X-0.620000X0.845000X-0.620000X-0.845000X0.620000X-0.845000X0*%
%ADD17O,1.740000X2.190000*%
%ADD18C,0.650000*%
%ADD19O,1.000000X2.100000*%
%ADD20O,1.000000X1.600000*%
%ADD21RoundRect,0.250000X-0.620000X-0.845000X0.620000X-0.845000X0.620000X0.845000X-0.620000X0.845000X0*%
G04 APERTURE END LIST*
D10*
X166995849Y-72833952D02*
X166995849Y-73643476D01*
X166995849Y-73643476D02*
X167043468Y-73738714D01*
X167043468Y-73738714D02*
X167091087Y-73786333D01*
X167091087Y-73786333D02*
X167186325Y-73833952D01*
X167186325Y-73833952D02*
X167329182Y-73833952D01*
X167329182Y-73833952D02*
X167424420Y-73786333D01*
X166995849Y-73453000D02*
X167091087Y-73500619D01*
X167091087Y-73500619D02*
X167281563Y-73500619D01*
X167281563Y-73500619D02*
X167376801Y-73453000D01*
X167376801Y-73453000D02*
X167424420Y-73405380D01*
X167424420Y-73405380D02*
X167472039Y-73310142D01*
X167472039Y-73310142D02*
X167472039Y-73024428D01*
X167472039Y-73024428D02*
X167424420Y-72929190D01*
X167424420Y-72929190D02*
X167376801Y-72881571D01*
X167376801Y-72881571D02*
X167281563Y-72833952D01*
X167281563Y-72833952D02*
X167091087Y-72833952D01*
X167091087Y-72833952D02*
X166995849Y-72881571D01*
X166519658Y-73500619D02*
X166519658Y-72833952D01*
X166519658Y-72500619D02*
X166567277Y-72548238D01*
X166567277Y-72548238D02*
X166519658Y-72595857D01*
X166519658Y-72595857D02*
X166472039Y-72548238D01*
X166472039Y-72548238D02*
X166519658Y-72500619D01*
X166519658Y-72500619D02*
X166519658Y-72595857D01*
X166186325Y-72833952D02*
X165805373Y-72833952D01*
X166043468Y-72500619D02*
X166043468Y-73357761D01*
X166043468Y-73357761D02*
X165995849Y-73453000D01*
X165995849Y-73453000D02*
X165900611Y-73500619D01*
X165900611Y-73500619D02*
X165805373Y-73500619D01*
X165472039Y-73500619D02*
X165472039Y-72500619D01*
X165043468Y-73500619D02*
X165043468Y-72976809D01*
X165043468Y-72976809D02*
X165091087Y-72881571D01*
X165091087Y-72881571D02*
X165186325Y-72833952D01*
X165186325Y-72833952D02*
X165329182Y-72833952D01*
X165329182Y-72833952D02*
X165424420Y-72881571D01*
X165424420Y-72881571D02*
X165472039Y-72929190D01*
X164138706Y-72833952D02*
X164138706Y-73500619D01*
X164567277Y-72833952D02*
X164567277Y-73357761D01*
X164567277Y-73357761D02*
X164519658Y-73453000D01*
X164519658Y-73453000D02*
X164424420Y-73500619D01*
X164424420Y-73500619D02*
X164281563Y-73500619D01*
X164281563Y-73500619D02*
X164186325Y-73453000D01*
X164186325Y-73453000D02*
X164138706Y-73405380D01*
X163662515Y-73500619D02*
X163662515Y-72500619D01*
X163662515Y-72881571D02*
X163567277Y-72833952D01*
X163567277Y-72833952D02*
X163376801Y-72833952D01*
X163376801Y-72833952D02*
X163281563Y-72881571D01*
X163281563Y-72881571D02*
X163233944Y-72929190D01*
X163233944Y-72929190D02*
X163186325Y-73024428D01*
X163186325Y-73024428D02*
X163186325Y-73310142D01*
X163186325Y-73310142D02*
X163233944Y-73405380D01*
X163233944Y-73405380D02*
X163281563Y-73453000D01*
X163281563Y-73453000D02*
X163376801Y-73500619D01*
X163376801Y-73500619D02*
X163567277Y-73500619D01*
X163567277Y-73500619D02*
X163662515Y-73453000D01*
X162757753Y-73405380D02*
X162710134Y-73453000D01*
X162710134Y-73453000D02*
X162757753Y-73500619D01*
X162757753Y-73500619D02*
X162805372Y-73453000D01*
X162805372Y-73453000D02*
X162757753Y-73405380D01*
X162757753Y-73405380D02*
X162757753Y-73500619D01*
X161852992Y-73453000D02*
X161948230Y-73500619D01*
X161948230Y-73500619D02*
X162138706Y-73500619D01*
X162138706Y-73500619D02*
X162233944Y-73453000D01*
X162233944Y-73453000D02*
X162281563Y-73405380D01*
X162281563Y-73405380D02*
X162329182Y-73310142D01*
X162329182Y-73310142D02*
X162329182Y-73024428D01*
X162329182Y-73024428D02*
X162281563Y-72929190D01*
X162281563Y-72929190D02*
X162233944Y-72881571D01*
X162233944Y-72881571D02*
X162138706Y-72833952D01*
X162138706Y-72833952D02*
X161948230Y-72833952D01*
X161948230Y-72833952D02*
X161852992Y-72881571D01*
X161281563Y-73500619D02*
X161376801Y-73453000D01*
X161376801Y-73453000D02*
X161424420Y-73405380D01*
X161424420Y-73405380D02*
X161472039Y-73310142D01*
X161472039Y-73310142D02*
X161472039Y-73024428D01*
X161472039Y-73024428D02*
X161424420Y-72929190D01*
X161424420Y-72929190D02*
X161376801Y-72881571D01*
X161376801Y-72881571D02*
X161281563Y-72833952D01*
X161281563Y-72833952D02*
X161138706Y-72833952D01*
X161138706Y-72833952D02*
X161043468Y-72881571D01*
X161043468Y-72881571D02*
X160995849Y-72929190D01*
X160995849Y-72929190D02*
X160948230Y-73024428D01*
X160948230Y-73024428D02*
X160948230Y-73310142D01*
X160948230Y-73310142D02*
X160995849Y-73405380D01*
X160995849Y-73405380D02*
X161043468Y-73453000D01*
X161043468Y-73453000D02*
X161138706Y-73500619D01*
X161138706Y-73500619D02*
X161281563Y-73500619D01*
X160519658Y-73500619D02*
X160519658Y-72833952D01*
X160519658Y-72929190D02*
X160472039Y-72881571D01*
X160472039Y-72881571D02*
X160376801Y-72833952D01*
X160376801Y-72833952D02*
X160233944Y-72833952D01*
X160233944Y-72833952D02*
X160138706Y-72881571D01*
X160138706Y-72881571D02*
X160091087Y-72976809D01*
X160091087Y-72976809D02*
X160091087Y-73500619D01*
X160091087Y-72976809D02*
X160043468Y-72881571D01*
X160043468Y-72881571D02*
X159948230Y-72833952D01*
X159948230Y-72833952D02*
X159805373Y-72833952D01*
X159805373Y-72833952D02*
X159710134Y-72881571D01*
X159710134Y-72881571D02*
X159662515Y-72976809D01*
X159662515Y-72976809D02*
X159662515Y-73500619D01*
X158472040Y-72453000D02*
X159329182Y-73738714D01*
X158233944Y-72500619D02*
X157567278Y-73500619D01*
X157567278Y-72500619D02*
X158233944Y-73500619D01*
X157186325Y-73119666D02*
X156424421Y-73119666D01*
X155472040Y-73500619D02*
X155948230Y-73500619D01*
X155948230Y-73500619D02*
X155948230Y-72500619D01*
X154757754Y-73453000D02*
X154852992Y-73500619D01*
X154852992Y-73500619D02*
X155043468Y-73500619D01*
X155043468Y-73500619D02*
X155138706Y-73453000D01*
X155138706Y-73453000D02*
X155186325Y-73357761D01*
X155186325Y-73357761D02*
X155186325Y-72976809D01*
X155186325Y-72976809D02*
X155138706Y-72881571D01*
X155138706Y-72881571D02*
X155043468Y-72833952D01*
X155043468Y-72833952D02*
X154852992Y-72833952D01*
X154852992Y-72833952D02*
X154757754Y-72881571D01*
X154757754Y-72881571D02*
X154710135Y-72976809D01*
X154710135Y-72976809D02*
X154710135Y-73072047D01*
X154710135Y-73072047D02*
X155186325Y-73167285D01*
X154281563Y-73500619D02*
X154281563Y-72833952D01*
X154281563Y-72929190D02*
X154233944Y-72881571D01*
X154233944Y-72881571D02*
X154138706Y-72833952D01*
X154138706Y-72833952D02*
X153995849Y-72833952D01*
X153995849Y-72833952D02*
X153900611Y-72881571D01*
X153900611Y-72881571D02*
X153852992Y-72976809D01*
X153852992Y-72976809D02*
X153852992Y-73500619D01*
X153852992Y-72976809D02*
X153805373Y-72881571D01*
X153805373Y-72881571D02*
X153710135Y-72833952D01*
X153710135Y-72833952D02*
X153567278Y-72833952D01*
X153567278Y-72833952D02*
X153472039Y-72881571D01*
X153472039Y-72881571D02*
X153424420Y-72976809D01*
X153424420Y-72976809D02*
X153424420Y-73500619D01*
X152805373Y-73500619D02*
X152900611Y-73453000D01*
X152900611Y-73453000D02*
X152948230Y-73405380D01*
X152948230Y-73405380D02*
X152995849Y-73310142D01*
X152995849Y-73310142D02*
X152995849Y-73024428D01*
X152995849Y-73024428D02*
X152948230Y-72929190D01*
X152948230Y-72929190D02*
X152900611Y-72881571D01*
X152900611Y-72881571D02*
X152805373Y-72833952D01*
X152805373Y-72833952D02*
X152662516Y-72833952D01*
X152662516Y-72833952D02*
X152567278Y-72881571D01*
X152567278Y-72881571D02*
X152519659Y-72929190D01*
X152519659Y-72929190D02*
X152472040Y-73024428D01*
X152472040Y-73024428D02*
X152472040Y-73310142D01*
X152472040Y-73310142D02*
X152519659Y-73405380D01*
X152519659Y-73405380D02*
X152567278Y-73453000D01*
X152567278Y-73453000D02*
X152662516Y-73500619D01*
X152662516Y-73500619D02*
X152805373Y-73500619D01*
X152043468Y-72833952D02*
X152043468Y-73500619D01*
X152043468Y-72929190D02*
X151995849Y-72881571D01*
X151995849Y-72881571D02*
X151900611Y-72833952D01*
X151900611Y-72833952D02*
X151757754Y-72833952D01*
X151757754Y-72833952D02*
X151662516Y-72881571D01*
X151662516Y-72881571D02*
X151614897Y-72976809D01*
X151614897Y-72976809D02*
X151614897Y-73500619D01*
X151138706Y-73119666D02*
X150376802Y-73119666D01*
X149995849Y-72500619D02*
X149329183Y-73500619D01*
X149329183Y-72500619D02*
X149995849Y-73500619D01*
X148233945Y-72453000D02*
X149091087Y-73738714D01*
X147900611Y-73500619D02*
X147900611Y-72500619D01*
X147900611Y-72500619D02*
X147519659Y-72500619D01*
X147519659Y-72500619D02*
X147424421Y-72548238D01*
X147424421Y-72548238D02*
X147376802Y-72595857D01*
X147376802Y-72595857D02*
X147329183Y-72691095D01*
X147329183Y-72691095D02*
X147329183Y-72833952D01*
X147329183Y-72833952D02*
X147376802Y-72929190D01*
X147376802Y-72929190D02*
X147424421Y-72976809D01*
X147424421Y-72976809D02*
X147519659Y-73024428D01*
X147519659Y-73024428D02*
X147900611Y-73024428D01*
X146900611Y-73500619D02*
X146900611Y-72833952D01*
X146900611Y-72500619D02*
X146948230Y-72548238D01*
X146948230Y-72548238D02*
X146900611Y-72595857D01*
X146900611Y-72595857D02*
X146852992Y-72548238D01*
X146852992Y-72548238D02*
X146900611Y-72500619D01*
X146900611Y-72500619D02*
X146900611Y-72595857D01*
X146281564Y-73500619D02*
X146376802Y-73453000D01*
X146376802Y-73453000D02*
X146424421Y-73357761D01*
X146424421Y-73357761D02*
X146424421Y-72500619D01*
X145757754Y-73500619D02*
X145852992Y-73453000D01*
X145852992Y-73453000D02*
X145900611Y-73405380D01*
X145900611Y-73405380D02*
X145948230Y-73310142D01*
X145948230Y-73310142D02*
X145948230Y-73024428D01*
X145948230Y-73024428D02*
X145900611Y-72929190D01*
X145900611Y-72929190D02*
X145852992Y-72881571D01*
X145852992Y-72881571D02*
X145757754Y-72833952D01*
X145757754Y-72833952D02*
X145614897Y-72833952D01*
X145614897Y-72833952D02*
X145519659Y-72881571D01*
X145519659Y-72881571D02*
X145472040Y-72929190D01*
X145472040Y-72929190D02*
X145424421Y-73024428D01*
X145424421Y-73024428D02*
X145424421Y-73310142D01*
X145424421Y-73310142D02*
X145472040Y-73405380D01*
X145472040Y-73405380D02*
X145519659Y-73453000D01*
X145519659Y-73453000D02*
X145614897Y-73500619D01*
X145614897Y-73500619D02*
X145757754Y-73500619D01*
X145138706Y-72833952D02*
X144757754Y-72833952D01*
X144995849Y-72500619D02*
X144995849Y-73357761D01*
X144995849Y-73357761D02*
X144948230Y-73453000D01*
X144948230Y-73453000D02*
X144852992Y-73500619D01*
X144852992Y-73500619D02*
X144757754Y-73500619D01*
X144662516Y-73595857D02*
X143900611Y-73595857D01*
X143233944Y-72500619D02*
X143424420Y-72500619D01*
X143424420Y-72500619D02*
X143519658Y-72548238D01*
X143519658Y-72548238D02*
X143567277Y-72595857D01*
X143567277Y-72595857D02*
X143662515Y-72738714D01*
X143662515Y-72738714D02*
X143710134Y-72929190D01*
X143710134Y-72929190D02*
X143710134Y-73310142D01*
X143710134Y-73310142D02*
X143662515Y-73405380D01*
X143662515Y-73405380D02*
X143614896Y-73453000D01*
X143614896Y-73453000D02*
X143519658Y-73500619D01*
X143519658Y-73500619D02*
X143329182Y-73500619D01*
X143329182Y-73500619D02*
X143233944Y-73453000D01*
X143233944Y-73453000D02*
X143186325Y-73405380D01*
X143186325Y-73405380D02*
X143138706Y-73310142D01*
X143138706Y-73310142D02*
X143138706Y-73072047D01*
X143138706Y-73072047D02*
X143186325Y-72976809D01*
X143186325Y-72976809D02*
X143233944Y-72929190D01*
X143233944Y-72929190D02*
X143329182Y-72881571D01*
X143329182Y-72881571D02*
X143519658Y-72881571D01*
X143519658Y-72881571D02*
X143614896Y-72929190D01*
X143614896Y-72929190D02*
X143662515Y-72976809D01*
X143662515Y-72976809D02*
X143710134Y-73072047D01*
X142948230Y-73595857D02*
X142186325Y-73595857D01*
X141519658Y-73500619D02*
X141519658Y-72976809D01*
X141519658Y-72976809D02*
X141567277Y-72881571D01*
X141567277Y-72881571D02*
X141662515Y-72833952D01*
X141662515Y-72833952D02*
X141852991Y-72833952D01*
X141852991Y-72833952D02*
X141948229Y-72881571D01*
X141519658Y-73453000D02*
X141614896Y-73500619D01*
X141614896Y-73500619D02*
X141852991Y-73500619D01*
X141852991Y-73500619D02*
X141948229Y-73453000D01*
X141948229Y-73453000D02*
X141995848Y-73357761D01*
X141995848Y-73357761D02*
X141995848Y-73262523D01*
X141995848Y-73262523D02*
X141948229Y-73167285D01*
X141948229Y-73167285D02*
X141852991Y-73119666D01*
X141852991Y-73119666D02*
X141614896Y-73119666D01*
X141614896Y-73119666D02*
X141519658Y-73072047D01*
X141138705Y-73500619D02*
X140614896Y-72833952D01*
X141138705Y-72833952D02*
X140614896Y-73500619D01*
X140233943Y-73500619D02*
X140233943Y-72833952D01*
X140233943Y-72500619D02*
X140281562Y-72548238D01*
X140281562Y-72548238D02*
X140233943Y-72595857D01*
X140233943Y-72595857D02*
X140186324Y-72548238D01*
X140186324Y-72548238D02*
X140233943Y-72500619D01*
X140233943Y-72500619D02*
X140233943Y-72595857D01*
X139805372Y-73453000D02*
X139710134Y-73500619D01*
X139710134Y-73500619D02*
X139519658Y-73500619D01*
X139519658Y-73500619D02*
X139424420Y-73453000D01*
X139424420Y-73453000D02*
X139376801Y-73357761D01*
X139376801Y-73357761D02*
X139376801Y-73310142D01*
X139376801Y-73310142D02*
X139424420Y-73214904D01*
X139424420Y-73214904D02*
X139519658Y-73167285D01*
X139519658Y-73167285D02*
X139662515Y-73167285D01*
X139662515Y-73167285D02*
X139757753Y-73119666D01*
X139757753Y-73119666D02*
X139805372Y-73024428D01*
X139805372Y-73024428D02*
X139805372Y-72976809D01*
X139805372Y-72976809D02*
X139757753Y-72881571D01*
X139757753Y-72881571D02*
X139662515Y-72833952D01*
X139662515Y-72833952D02*
X139519658Y-72833952D01*
X139519658Y-72833952D02*
X139424420Y-72881571D01*
D11*
G36*
X162633544Y-103301474D02*
G01*
X159692275Y-103301474D01*
X159692275Y-101903218D01*
X159803386Y-101903218D01*
X159803386Y-102903218D01*
X159807192Y-102922352D01*
X159812046Y-102927206D01*
X159813854Y-102933833D01*
X159825098Y-102940258D01*
X159834252Y-102949412D01*
X159841118Y-102949412D01*
X159847080Y-102952819D01*
X159859573Y-102949412D01*
X159872520Y-102949412D01*
X159877374Y-102944557D01*
X159884001Y-102942750D01*
X159896798Y-102928025D01*
X160374814Y-102091496D01*
X160374814Y-102903218D01*
X160378620Y-102922352D01*
X160405680Y-102949412D01*
X160443948Y-102949412D01*
X160471008Y-102922352D01*
X160474814Y-102903218D01*
X160474814Y-101903218D01*
X160471008Y-101884084D01*
X160466153Y-101879229D01*
X160464346Y-101872603D01*
X160453101Y-101866177D01*
X160452226Y-101865302D01*
X160709099Y-101865302D01*
X160716545Y-101883334D01*
X161573688Y-103169048D01*
X161587468Y-103182858D01*
X161624994Y-103190363D01*
X161656835Y-103169135D01*
X161664340Y-103131610D01*
X161656893Y-103113578D01*
X161326177Y-102617503D01*
X161851005Y-102617503D01*
X161851005Y-102712741D01*
X161851493Y-102715197D01*
X161851131Y-102716286D01*
X161853247Y-102724013D01*
X161854811Y-102731875D01*
X161855622Y-102732686D01*
X161856284Y-102735102D01*
X161903902Y-102830339D01*
X161908813Y-102836667D01*
X161913268Y-102843334D01*
X161960887Y-102890954D01*
X161967553Y-102895408D01*
X161973882Y-102900320D01*
X162069120Y-102947939D01*
X162071535Y-102948600D01*
X162072347Y-102949412D01*
X162080208Y-102950975D01*
X162087936Y-102953092D01*
X162089024Y-102952729D01*
X162091481Y-102953218D01*
X162329576Y-102953218D01*
X162337438Y-102951654D01*
X162345387Y-102950652D01*
X162488244Y-102903033D01*
X162505192Y-102893372D01*
X162522307Y-102859143D01*
X162510205Y-102822839D01*
X162475977Y-102805725D01*
X162456621Y-102808165D01*
X162321463Y-102853218D01*
X162103285Y-102853218D01*
X162025862Y-102814507D01*
X161989716Y-102778360D01*
X161951005Y-102700938D01*
X161951005Y-102629306D01*
X161989716Y-102551882D01*
X162025861Y-102515738D01*
X162108933Y-102474202D01*
X162294084Y-102427915D01*
X162299036Y-102425575D01*
X162304318Y-102424129D01*
X162399555Y-102376511D01*
X162405888Y-102371595D01*
X162412550Y-102367144D01*
X162460169Y-102319526D01*
X162464623Y-102312859D01*
X162469535Y-102306531D01*
X162517154Y-102211293D01*
X162517815Y-102208877D01*
X162518627Y-102208066D01*
X162520190Y-102200204D01*
X162522307Y-102192477D01*
X162521944Y-102191388D01*
X162522433Y-102188932D01*
X162522433Y-102093694D01*
X162521944Y-102091237D01*
X162522307Y-102090149D01*
X162520190Y-102082421D01*
X162518627Y-102074560D01*
X162517815Y-102073748D01*
X162517154Y-102071333D01*
X162469535Y-101976095D01*
X162464623Y-101969766D01*
X162460169Y-101963100D01*
X162412550Y-101915482D01*
X162405888Y-101911030D01*
X162399555Y-101906115D01*
X162304318Y-101858497D01*
X162301902Y-101857835D01*
X162301091Y-101857024D01*
X162293229Y-101855460D01*
X162285502Y-101853344D01*
X162284413Y-101853706D01*
X162281957Y-101853218D01*
X162043862Y-101853218D01*
X162036000Y-101854781D01*
X162028050Y-101855784D01*
X161885194Y-101903403D01*
X161868245Y-101913064D01*
X161851131Y-101947293D01*
X161863232Y-101983597D01*
X161897461Y-102000711D01*
X161916816Y-101998271D01*
X162051975Y-101953218D01*
X162270154Y-101953218D01*
X162347577Y-101991929D01*
X162383721Y-102028074D01*
X162422433Y-102105497D01*
X162422433Y-102177128D01*
X162383721Y-102254551D01*
X162347577Y-102290696D01*
X162264506Y-102332232D01*
X162079354Y-102378520D01*
X162074401Y-102380859D01*
X162069120Y-102382306D01*
X161973882Y-102429925D01*
X161967553Y-102434836D01*
X161960887Y-102439291D01*
X161913269Y-102486910D01*
X161908817Y-102493571D01*
X161903902Y-102499905D01*
X161856284Y-102595142D01*
X161855622Y-102597557D01*
X161854811Y-102598369D01*
X161853247Y-102606230D01*
X161851131Y-102613958D01*
X161851493Y-102615046D01*
X161851005Y-102617503D01*
X161326177Y-102617503D01*
X160799751Y-101827864D01*
X160785970Y-101814055D01*
X160748445Y-101806550D01*
X160716604Y-101827777D01*
X160709099Y-101865302D01*
X160452226Y-101865302D01*
X160443948Y-101857024D01*
X160437082Y-101857024D01*
X160431120Y-101853617D01*
X160418628Y-101857024D01*
X160405680Y-101857024D01*
X160400824Y-101861879D01*
X160394200Y-101863686D01*
X160381402Y-101878411D01*
X159903386Y-102714939D01*
X159903386Y-101903218D01*
X159899580Y-101884084D01*
X159872520Y-101857024D01*
X159834252Y-101857024D01*
X159807192Y-101884084D01*
X159803386Y-101903218D01*
X159692275Y-101903218D01*
X159692275Y-101695439D01*
X162633544Y-101695439D01*
X162633544Y-103301474D01*
G37*
D12*
X186156644Y-104246585D02*
X186156644Y-103446585D01*
X186156644Y-103446585D02*
X185851882Y-103446585D01*
X185851882Y-103446585D02*
X185775692Y-103484680D01*
X185775692Y-103484680D02*
X185737597Y-103522775D01*
X185737597Y-103522775D02*
X185699501Y-103598966D01*
X185699501Y-103598966D02*
X185699501Y-103713251D01*
X185699501Y-103713251D02*
X185737597Y-103789442D01*
X185737597Y-103789442D02*
X185775692Y-103827537D01*
X185775692Y-103827537D02*
X185851882Y-103865632D01*
X185851882Y-103865632D02*
X186156644Y-103865632D01*
X185356644Y-104246585D02*
X185356644Y-103713251D01*
X185356644Y-103446585D02*
X185394740Y-103484680D01*
X185394740Y-103484680D02*
X185356644Y-103522775D01*
X185356644Y-103522775D02*
X185318549Y-103484680D01*
X185318549Y-103484680D02*
X185356644Y-103446585D01*
X185356644Y-103446585D02*
X185356644Y-103522775D01*
X184861407Y-104246585D02*
X184937597Y-104208490D01*
X184937597Y-104208490D02*
X184975692Y-104132299D01*
X184975692Y-104132299D02*
X184975692Y-103446585D01*
X184442359Y-104246585D02*
X184518549Y-104208490D01*
X184518549Y-104208490D02*
X184556644Y-104170394D01*
X184556644Y-104170394D02*
X184594740Y-104094204D01*
X184594740Y-104094204D02*
X184594740Y-103865632D01*
X184594740Y-103865632D02*
X184556644Y-103789442D01*
X184556644Y-103789442D02*
X184518549Y-103751347D01*
X184518549Y-103751347D02*
X184442359Y-103713251D01*
X184442359Y-103713251D02*
X184328073Y-103713251D01*
X184328073Y-103713251D02*
X184251882Y-103751347D01*
X184251882Y-103751347D02*
X184213787Y-103789442D01*
X184213787Y-103789442D02*
X184175692Y-103865632D01*
X184175692Y-103865632D02*
X184175692Y-104094204D01*
X184175692Y-104094204D02*
X184213787Y-104170394D01*
X184213787Y-104170394D02*
X184251882Y-104208490D01*
X184251882Y-104208490D02*
X184328073Y-104246585D01*
X184328073Y-104246585D02*
X184442359Y-104246585D01*
X183947120Y-103713251D02*
X183642358Y-103713251D01*
X183832834Y-103446585D02*
X183832834Y-104132299D01*
X183832834Y-104132299D02*
X183794739Y-104208490D01*
X183794739Y-104208490D02*
X183718549Y-104246585D01*
X183718549Y-104246585D02*
X183642358Y-104246585D01*
X182423310Y-103446585D02*
X182575691Y-103446585D01*
X182575691Y-103446585D02*
X182651882Y-103484680D01*
X182651882Y-103484680D02*
X182689977Y-103522775D01*
X182689977Y-103522775D02*
X182766167Y-103637061D01*
X182766167Y-103637061D02*
X182804263Y-103789442D01*
X182804263Y-103789442D02*
X182804263Y-104094204D01*
X182804263Y-104094204D02*
X182766167Y-104170394D01*
X182766167Y-104170394D02*
X182728072Y-104208490D01*
X182728072Y-104208490D02*
X182651882Y-104246585D01*
X182651882Y-104246585D02*
X182499501Y-104246585D01*
X182499501Y-104246585D02*
X182423310Y-104208490D01*
X182423310Y-104208490D02*
X182385215Y-104170394D01*
X182385215Y-104170394D02*
X182347120Y-104094204D01*
X182347120Y-104094204D02*
X182347120Y-103903728D01*
X182347120Y-103903728D02*
X182385215Y-103827537D01*
X182385215Y-103827537D02*
X182423310Y-103789442D01*
X182423310Y-103789442D02*
X182499501Y-103751347D01*
X182499501Y-103751347D02*
X182651882Y-103751347D01*
X182651882Y-103751347D02*
X182728072Y-103789442D01*
X182728072Y-103789442D02*
X182766167Y-103827537D01*
X182766167Y-103827537D02*
X182804263Y-103903728D01*
X181051881Y-104246585D02*
X181051881Y-103827537D01*
X181051881Y-103827537D02*
X181089976Y-103751347D01*
X181089976Y-103751347D02*
X181166167Y-103713251D01*
X181166167Y-103713251D02*
X181318548Y-103713251D01*
X181318548Y-103713251D02*
X181394738Y-103751347D01*
X181051881Y-104208490D02*
X181128072Y-104246585D01*
X181128072Y-104246585D02*
X181318548Y-104246585D01*
X181318548Y-104246585D02*
X181394738Y-104208490D01*
X181394738Y-104208490D02*
X181432834Y-104132299D01*
X181432834Y-104132299D02*
X181432834Y-104056109D01*
X181432834Y-104056109D02*
X181394738Y-103979918D01*
X181394738Y-103979918D02*
X181318548Y-103941823D01*
X181318548Y-103941823D02*
X181128072Y-103941823D01*
X181128072Y-103941823D02*
X181051881Y-103903728D01*
X180747119Y-104246585D02*
X180328071Y-103713251D01*
X180747119Y-103713251D02*
X180328071Y-104246585D01*
X180023309Y-104246585D02*
X180023309Y-103713251D01*
X180023309Y-103446585D02*
X180061405Y-103484680D01*
X180061405Y-103484680D02*
X180023309Y-103522775D01*
X180023309Y-103522775D02*
X179985214Y-103484680D01*
X179985214Y-103484680D02*
X180023309Y-103446585D01*
X180023309Y-103446585D02*
X180023309Y-103522775D01*
X179680453Y-104208490D02*
X179604262Y-104246585D01*
X179604262Y-104246585D02*
X179451881Y-104246585D01*
X179451881Y-104246585D02*
X179375691Y-104208490D01*
X179375691Y-104208490D02*
X179337595Y-104132299D01*
X179337595Y-104132299D02*
X179337595Y-104094204D01*
X179337595Y-104094204D02*
X179375691Y-104018013D01*
X179375691Y-104018013D02*
X179451881Y-103979918D01*
X179451881Y-103979918D02*
X179566167Y-103979918D01*
X179566167Y-103979918D02*
X179642357Y-103941823D01*
X179642357Y-103941823D02*
X179680453Y-103865632D01*
X179680453Y-103865632D02*
X179680453Y-103827537D01*
X179680453Y-103827537D02*
X179642357Y-103751347D01*
X179642357Y-103751347D02*
X179566167Y-103713251D01*
X179566167Y-103713251D02*
X179451881Y-103713251D01*
X179451881Y-103713251D02*
X179375691Y-103751347D01*
X185813787Y-105534540D02*
X185813787Y-104734540D01*
X185813787Y-105496445D02*
X185889978Y-105534540D01*
X185889978Y-105534540D02*
X186042359Y-105534540D01*
X186042359Y-105534540D02*
X186118549Y-105496445D01*
X186118549Y-105496445D02*
X186156644Y-105458349D01*
X186156644Y-105458349D02*
X186194740Y-105382159D01*
X186194740Y-105382159D02*
X186194740Y-105153587D01*
X186194740Y-105153587D02*
X186156644Y-105077397D01*
X186156644Y-105077397D02*
X186118549Y-105039302D01*
X186118549Y-105039302D02*
X186042359Y-105001206D01*
X186042359Y-105001206D02*
X185889978Y-105001206D01*
X185889978Y-105001206D02*
X185813787Y-105039302D01*
X185128072Y-105496445D02*
X185204263Y-105534540D01*
X185204263Y-105534540D02*
X185356644Y-105534540D01*
X185356644Y-105534540D02*
X185432834Y-105496445D01*
X185432834Y-105496445D02*
X185470930Y-105420254D01*
X185470930Y-105420254D02*
X185470930Y-105115492D01*
X185470930Y-105115492D02*
X185432834Y-105039302D01*
X185432834Y-105039302D02*
X185356644Y-105001206D01*
X185356644Y-105001206D02*
X185204263Y-105001206D01*
X185204263Y-105001206D02*
X185128072Y-105039302D01*
X185128072Y-105039302D02*
X185089977Y-105115492D01*
X185089977Y-105115492D02*
X185089977Y-105191683D01*
X185089977Y-105191683D02*
X185470930Y-105267873D01*
X184785216Y-105496445D02*
X184709025Y-105534540D01*
X184709025Y-105534540D02*
X184556644Y-105534540D01*
X184556644Y-105534540D02*
X184480454Y-105496445D01*
X184480454Y-105496445D02*
X184442358Y-105420254D01*
X184442358Y-105420254D02*
X184442358Y-105382159D01*
X184442358Y-105382159D02*
X184480454Y-105305968D01*
X184480454Y-105305968D02*
X184556644Y-105267873D01*
X184556644Y-105267873D02*
X184670930Y-105267873D01*
X184670930Y-105267873D02*
X184747120Y-105229778D01*
X184747120Y-105229778D02*
X184785216Y-105153587D01*
X184785216Y-105153587D02*
X184785216Y-105115492D01*
X184785216Y-105115492D02*
X184747120Y-105039302D01*
X184747120Y-105039302D02*
X184670930Y-105001206D01*
X184670930Y-105001206D02*
X184556644Y-105001206D01*
X184556644Y-105001206D02*
X184480454Y-105039302D01*
X184099501Y-105534540D02*
X184099501Y-105001206D01*
X184099501Y-104734540D02*
X184137597Y-104772635D01*
X184137597Y-104772635D02*
X184099501Y-104810730D01*
X184099501Y-104810730D02*
X184061406Y-104772635D01*
X184061406Y-104772635D02*
X184099501Y-104734540D01*
X184099501Y-104734540D02*
X184099501Y-104810730D01*
X183375692Y-105001206D02*
X183375692Y-105648825D01*
X183375692Y-105648825D02*
X183413787Y-105725016D01*
X183413787Y-105725016D02*
X183451883Y-105763111D01*
X183451883Y-105763111D02*
X183528073Y-105801206D01*
X183528073Y-105801206D02*
X183642359Y-105801206D01*
X183642359Y-105801206D02*
X183718549Y-105763111D01*
X183375692Y-105496445D02*
X183451883Y-105534540D01*
X183451883Y-105534540D02*
X183604264Y-105534540D01*
X183604264Y-105534540D02*
X183680454Y-105496445D01*
X183680454Y-105496445D02*
X183718549Y-105458349D01*
X183718549Y-105458349D02*
X183756645Y-105382159D01*
X183756645Y-105382159D02*
X183756645Y-105153587D01*
X183756645Y-105153587D02*
X183718549Y-105077397D01*
X183718549Y-105077397D02*
X183680454Y-105039302D01*
X183680454Y-105039302D02*
X183604264Y-105001206D01*
X183604264Y-105001206D02*
X183451883Y-105001206D01*
X183451883Y-105001206D02*
X183375692Y-105039302D01*
X182994739Y-105001206D02*
X182994739Y-105534540D01*
X182994739Y-105077397D02*
X182956644Y-105039302D01*
X182956644Y-105039302D02*
X182880454Y-105001206D01*
X182880454Y-105001206D02*
X182766168Y-105001206D01*
X182766168Y-105001206D02*
X182689977Y-105039302D01*
X182689977Y-105039302D02*
X182651882Y-105115492D01*
X182651882Y-105115492D02*
X182651882Y-105534540D01*
X181966167Y-105496445D02*
X182042358Y-105534540D01*
X182042358Y-105534540D02*
X182194739Y-105534540D01*
X182194739Y-105534540D02*
X182270929Y-105496445D01*
X182270929Y-105496445D02*
X182309025Y-105420254D01*
X182309025Y-105420254D02*
X182309025Y-105115492D01*
X182309025Y-105115492D02*
X182270929Y-105039302D01*
X182270929Y-105039302D02*
X182194739Y-105001206D01*
X182194739Y-105001206D02*
X182042358Y-105001206D01*
X182042358Y-105001206D02*
X181966167Y-105039302D01*
X181966167Y-105039302D02*
X181928072Y-105115492D01*
X181928072Y-105115492D02*
X181928072Y-105191683D01*
X181928072Y-105191683D02*
X182309025Y-105267873D01*
X181242358Y-105534540D02*
X181242358Y-104734540D01*
X181242358Y-105496445D02*
X181318549Y-105534540D01*
X181318549Y-105534540D02*
X181470930Y-105534540D01*
X181470930Y-105534540D02*
X181547120Y-105496445D01*
X181547120Y-105496445D02*
X181585215Y-105458349D01*
X181585215Y-105458349D02*
X181623311Y-105382159D01*
X181623311Y-105382159D02*
X181623311Y-105153587D01*
X181623311Y-105153587D02*
X181585215Y-105077397D01*
X181585215Y-105077397D02*
X181547120Y-105039302D01*
X181547120Y-105039302D02*
X181470930Y-105001206D01*
X181470930Y-105001206D02*
X181318549Y-105001206D01*
X181318549Y-105001206D02*
X181242358Y-105039302D01*
X180251881Y-105534540D02*
X180251881Y-104734540D01*
X180251881Y-105039302D02*
X180175691Y-105001206D01*
X180175691Y-105001206D02*
X180023310Y-105001206D01*
X180023310Y-105001206D02*
X179947119Y-105039302D01*
X179947119Y-105039302D02*
X179909024Y-105077397D01*
X179909024Y-105077397D02*
X179870929Y-105153587D01*
X179870929Y-105153587D02*
X179870929Y-105382159D01*
X179870929Y-105382159D02*
X179909024Y-105458349D01*
X179909024Y-105458349D02*
X179947119Y-105496445D01*
X179947119Y-105496445D02*
X180023310Y-105534540D01*
X180023310Y-105534540D02*
X180175691Y-105534540D01*
X180175691Y-105534540D02*
X180251881Y-105496445D01*
X179604262Y-105001206D02*
X179413786Y-105534540D01*
X179223309Y-105001206D02*
X179413786Y-105534540D01*
X179413786Y-105534540D02*
X179489976Y-105725016D01*
X179489976Y-105725016D02*
X179528071Y-105763111D01*
X179528071Y-105763111D02*
X179604262Y-105801206D01*
X178309023Y-105534540D02*
X178309023Y-104734540D01*
X178309023Y-104734540D02*
X178004261Y-104734540D01*
X178004261Y-104734540D02*
X177928071Y-104772635D01*
X177928071Y-104772635D02*
X177889976Y-104810730D01*
X177889976Y-104810730D02*
X177851880Y-104886921D01*
X177851880Y-104886921D02*
X177851880Y-105001206D01*
X177851880Y-105001206D02*
X177889976Y-105077397D01*
X177889976Y-105077397D02*
X177928071Y-105115492D01*
X177928071Y-105115492D02*
X178004261Y-105153587D01*
X178004261Y-105153587D02*
X178309023Y-105153587D01*
X177166166Y-105534540D02*
X177166166Y-105115492D01*
X177166166Y-105115492D02*
X177204261Y-105039302D01*
X177204261Y-105039302D02*
X177280452Y-105001206D01*
X177280452Y-105001206D02*
X177432833Y-105001206D01*
X177432833Y-105001206D02*
X177509023Y-105039302D01*
X177166166Y-105496445D02*
X177242357Y-105534540D01*
X177242357Y-105534540D02*
X177432833Y-105534540D01*
X177432833Y-105534540D02*
X177509023Y-105496445D01*
X177509023Y-105496445D02*
X177547119Y-105420254D01*
X177547119Y-105420254D02*
X177547119Y-105344064D01*
X177547119Y-105344064D02*
X177509023Y-105267873D01*
X177509023Y-105267873D02*
X177432833Y-105229778D01*
X177432833Y-105229778D02*
X177242357Y-105229778D01*
X177242357Y-105229778D02*
X177166166Y-105191683D01*
X176899499Y-105001206D02*
X176594737Y-105001206D01*
X176785213Y-104734540D02*
X176785213Y-105420254D01*
X176785213Y-105420254D02*
X176747118Y-105496445D01*
X176747118Y-105496445D02*
X176670928Y-105534540D01*
X176670928Y-105534540D02*
X176594737Y-105534540D01*
X176328070Y-105534540D02*
X176328070Y-105001206D01*
X176328070Y-105153587D02*
X176289975Y-105077397D01*
X176289975Y-105077397D02*
X176251880Y-105039302D01*
X176251880Y-105039302D02*
X176175689Y-105001206D01*
X176175689Y-105001206D02*
X176099499Y-105001206D01*
X175909023Y-105001206D02*
X175718547Y-105534540D01*
X175528070Y-105001206D02*
X175718547Y-105534540D01*
X175718547Y-105534540D02*
X175794737Y-105725016D01*
X175794737Y-105725016D02*
X175832832Y-105763111D01*
X175832832Y-105763111D02*
X175909023Y-105801206D01*
X175223308Y-105534540D02*
X175223308Y-104734540D01*
X175147118Y-105229778D02*
X174918546Y-105534540D01*
X174918546Y-105001206D02*
X175223308Y-105305968D01*
X173966165Y-105534540D02*
X173966165Y-104734540D01*
X173966165Y-104734540D02*
X173775689Y-104734540D01*
X173775689Y-104734540D02*
X173661403Y-104772635D01*
X173661403Y-104772635D02*
X173585213Y-104848825D01*
X173585213Y-104848825D02*
X173547118Y-104925016D01*
X173547118Y-104925016D02*
X173509022Y-105077397D01*
X173509022Y-105077397D02*
X173509022Y-105191683D01*
X173509022Y-105191683D02*
X173547118Y-105344064D01*
X173547118Y-105344064D02*
X173585213Y-105420254D01*
X173585213Y-105420254D02*
X173661403Y-105496445D01*
X173661403Y-105496445D02*
X173775689Y-105534540D01*
X173775689Y-105534540D02*
X173966165Y-105534540D01*
X172823308Y-105001206D02*
X172823308Y-105534540D01*
X173166165Y-105001206D02*
X173166165Y-105420254D01*
X173166165Y-105420254D02*
X173128070Y-105496445D01*
X173128070Y-105496445D02*
X173051880Y-105534540D01*
X173051880Y-105534540D02*
X172937594Y-105534540D01*
X172937594Y-105534540D02*
X172861403Y-105496445D01*
X172861403Y-105496445D02*
X172823308Y-105458349D01*
X172099498Y-105534540D02*
X172099498Y-104734540D01*
X172099498Y-105496445D02*
X172175689Y-105534540D01*
X172175689Y-105534540D02*
X172328070Y-105534540D01*
X172328070Y-105534540D02*
X172404260Y-105496445D01*
X172404260Y-105496445D02*
X172442355Y-105458349D01*
X172442355Y-105458349D02*
X172480451Y-105382159D01*
X172480451Y-105382159D02*
X172480451Y-105153587D01*
X172480451Y-105153587D02*
X172442355Y-105077397D01*
X172442355Y-105077397D02*
X172404260Y-105039302D01*
X172404260Y-105039302D02*
X172328070Y-105001206D01*
X172328070Y-105001206D02*
X172175689Y-105001206D01*
X172175689Y-105001206D02*
X172099498Y-105039302D01*
X171794736Y-105001206D02*
X171375688Y-105001206D01*
X171375688Y-105001206D02*
X171794736Y-105534540D01*
X171794736Y-105534540D02*
X171375688Y-105534540D01*
X171070926Y-105534540D02*
X171070926Y-105001206D01*
X171070926Y-104734540D02*
X171109022Y-104772635D01*
X171109022Y-104772635D02*
X171070926Y-104810730D01*
X171070926Y-104810730D02*
X171032831Y-104772635D01*
X171032831Y-104772635D02*
X171070926Y-104734540D01*
X171070926Y-104734540D02*
X171070926Y-104810730D01*
X170689974Y-105001206D02*
X170689974Y-105534540D01*
X170689974Y-105077397D02*
X170651879Y-105039302D01*
X170651879Y-105039302D02*
X170575689Y-105001206D01*
X170575689Y-105001206D02*
X170461403Y-105001206D01*
X170461403Y-105001206D02*
X170385212Y-105039302D01*
X170385212Y-105039302D02*
X170347117Y-105115492D01*
X170347117Y-105115492D02*
X170347117Y-105534540D01*
X170461403Y-104696445D02*
X170575689Y-104810730D01*
X170004260Y-105496445D02*
X169928069Y-105534540D01*
X169928069Y-105534540D02*
X169775688Y-105534540D01*
X169775688Y-105534540D02*
X169699498Y-105496445D01*
X169699498Y-105496445D02*
X169661402Y-105420254D01*
X169661402Y-105420254D02*
X169661402Y-105382159D01*
X169661402Y-105382159D02*
X169699498Y-105305968D01*
X169699498Y-105305968D02*
X169775688Y-105267873D01*
X169775688Y-105267873D02*
X169889974Y-105267873D01*
X169889974Y-105267873D02*
X169966164Y-105229778D01*
X169966164Y-105229778D02*
X170004260Y-105153587D01*
X170004260Y-105153587D02*
X170004260Y-105115492D01*
X170004260Y-105115492D02*
X169966164Y-105039302D01*
X169966164Y-105039302D02*
X169889974Y-105001206D01*
X169889974Y-105001206D02*
X169775688Y-105001206D01*
X169775688Y-105001206D02*
X169699498Y-105039302D01*
X169318545Y-105534540D02*
X169318545Y-104734540D01*
X169242355Y-105229778D02*
X169013783Y-105534540D01*
X169013783Y-105001206D02*
X169318545Y-105305968D01*
X168670926Y-105534540D02*
X168670926Y-105001206D01*
X168670926Y-104734540D02*
X168709022Y-104772635D01*
X168709022Y-104772635D02*
X168670926Y-104810730D01*
X168670926Y-104810730D02*
X168632831Y-104772635D01*
X168632831Y-104772635D02*
X168670926Y-104734540D01*
X168670926Y-104734540D02*
X168670926Y-104810730D01*
X185699501Y-106822495D02*
X185966168Y-106441542D01*
X186156644Y-106822495D02*
X186156644Y-106022495D01*
X186156644Y-106022495D02*
X185851882Y-106022495D01*
X185851882Y-106022495D02*
X185775692Y-106060590D01*
X185775692Y-106060590D02*
X185737597Y-106098685D01*
X185737597Y-106098685D02*
X185699501Y-106174876D01*
X185699501Y-106174876D02*
X185699501Y-106289161D01*
X185699501Y-106289161D02*
X185737597Y-106365352D01*
X185737597Y-106365352D02*
X185775692Y-106403447D01*
X185775692Y-106403447D02*
X185851882Y-106441542D01*
X185851882Y-106441542D02*
X186156644Y-106441542D01*
X185356644Y-106403447D02*
X185089978Y-106403447D01*
X184975692Y-106822495D02*
X185356644Y-106822495D01*
X185356644Y-106822495D02*
X185356644Y-106022495D01*
X185356644Y-106022495D02*
X184975692Y-106022495D01*
X184747120Y-106022495D02*
X184480453Y-106822495D01*
X184480453Y-106822495D02*
X184213787Y-106022495D01*
X183528073Y-106822495D02*
X183985216Y-106822495D01*
X183756644Y-106822495D02*
X183756644Y-106022495D01*
X183756644Y-106022495D02*
X183832835Y-106136780D01*
X183832835Y-106136780D02*
X183909025Y-106212971D01*
X183909025Y-106212971D02*
X183985216Y-106251066D01*
X183185215Y-106746304D02*
X183147120Y-106784400D01*
X183147120Y-106784400D02*
X183185215Y-106822495D01*
X183185215Y-106822495D02*
X183223311Y-106784400D01*
X183223311Y-106784400D02*
X183185215Y-106746304D01*
X183185215Y-106746304D02*
X183185215Y-106822495D01*
X182651882Y-106022495D02*
X182575692Y-106022495D01*
X182575692Y-106022495D02*
X182499501Y-106060590D01*
X182499501Y-106060590D02*
X182461406Y-106098685D01*
X182461406Y-106098685D02*
X182423311Y-106174876D01*
X182423311Y-106174876D02*
X182385216Y-106327257D01*
X182385216Y-106327257D02*
X182385216Y-106517733D01*
X182385216Y-106517733D02*
X182423311Y-106670114D01*
X182423311Y-106670114D02*
X182461406Y-106746304D01*
X182461406Y-106746304D02*
X182499501Y-106784400D01*
X182499501Y-106784400D02*
X182575692Y-106822495D01*
X182575692Y-106822495D02*
X182651882Y-106822495D01*
X182651882Y-106822495D02*
X182728073Y-106784400D01*
X182728073Y-106784400D02*
X182766168Y-106746304D01*
X182766168Y-106746304D02*
X182804263Y-106670114D01*
X182804263Y-106670114D02*
X182842359Y-106517733D01*
X182842359Y-106517733D02*
X182842359Y-106327257D01*
X182842359Y-106327257D02*
X182804263Y-106174876D01*
X182804263Y-106174876D02*
X182766168Y-106098685D01*
X182766168Y-106098685D02*
X182728073Y-106060590D01*
X182728073Y-106060590D02*
X182651882Y-106022495D01*
X179642358Y-106098685D02*
X179604262Y-106060590D01*
X179604262Y-106060590D02*
X179528072Y-106022495D01*
X179528072Y-106022495D02*
X179337596Y-106022495D01*
X179337596Y-106022495D02*
X179261405Y-106060590D01*
X179261405Y-106060590D02*
X179223310Y-106098685D01*
X179223310Y-106098685D02*
X179185215Y-106174876D01*
X179185215Y-106174876D02*
X179185215Y-106251066D01*
X179185215Y-106251066D02*
X179223310Y-106365352D01*
X179223310Y-106365352D02*
X179680453Y-106822495D01*
X179680453Y-106822495D02*
X179185215Y-106822495D01*
X178423310Y-106822495D02*
X178880453Y-106822495D01*
X178651881Y-106822495D02*
X178651881Y-106022495D01*
X178651881Y-106022495D02*
X178728072Y-106136780D01*
X178728072Y-106136780D02*
X178804262Y-106212971D01*
X178804262Y-106212971D02*
X178880453Y-106251066D01*
X178080452Y-106746304D02*
X178042357Y-106784400D01*
X178042357Y-106784400D02*
X178080452Y-106822495D01*
X178080452Y-106822495D02*
X178118548Y-106784400D01*
X178118548Y-106784400D02*
X178080452Y-106746304D01*
X178080452Y-106746304D02*
X178080452Y-106822495D01*
X177547119Y-106022495D02*
X177470929Y-106022495D01*
X177470929Y-106022495D02*
X177394738Y-106060590D01*
X177394738Y-106060590D02*
X177356643Y-106098685D01*
X177356643Y-106098685D02*
X177318548Y-106174876D01*
X177318548Y-106174876D02*
X177280453Y-106327257D01*
X177280453Y-106327257D02*
X177280453Y-106517733D01*
X177280453Y-106517733D02*
X177318548Y-106670114D01*
X177318548Y-106670114D02*
X177356643Y-106746304D01*
X177356643Y-106746304D02*
X177394738Y-106784400D01*
X177394738Y-106784400D02*
X177470929Y-106822495D01*
X177470929Y-106822495D02*
X177547119Y-106822495D01*
X177547119Y-106822495D02*
X177623310Y-106784400D01*
X177623310Y-106784400D02*
X177661405Y-106746304D01*
X177661405Y-106746304D02*
X177699500Y-106670114D01*
X177699500Y-106670114D02*
X177737596Y-106517733D01*
X177737596Y-106517733D02*
X177737596Y-106327257D01*
X177737596Y-106327257D02*
X177699500Y-106174876D01*
X177699500Y-106174876D02*
X177661405Y-106098685D01*
X177661405Y-106098685D02*
X177623310Y-106060590D01*
X177623310Y-106060590D02*
X177547119Y-106022495D01*
X176975691Y-106098685D02*
X176937595Y-106060590D01*
X176937595Y-106060590D02*
X176861405Y-106022495D01*
X176861405Y-106022495D02*
X176670929Y-106022495D01*
X176670929Y-106022495D02*
X176594738Y-106060590D01*
X176594738Y-106060590D02*
X176556643Y-106098685D01*
X176556643Y-106098685D02*
X176518548Y-106174876D01*
X176518548Y-106174876D02*
X176518548Y-106251066D01*
X176518548Y-106251066D02*
X176556643Y-106365352D01*
X176556643Y-106365352D02*
X177013786Y-106822495D01*
X177013786Y-106822495D02*
X176518548Y-106822495D01*
X176175690Y-106746304D02*
X176137595Y-106784400D01*
X176137595Y-106784400D02*
X176175690Y-106822495D01*
X176175690Y-106822495D02*
X176213786Y-106784400D01*
X176213786Y-106784400D02*
X176175690Y-106746304D01*
X176175690Y-106746304D02*
X176175690Y-106822495D01*
X175832834Y-106098685D02*
X175794738Y-106060590D01*
X175794738Y-106060590D02*
X175718548Y-106022495D01*
X175718548Y-106022495D02*
X175528072Y-106022495D01*
X175528072Y-106022495D02*
X175451881Y-106060590D01*
X175451881Y-106060590D02*
X175413786Y-106098685D01*
X175413786Y-106098685D02*
X175375691Y-106174876D01*
X175375691Y-106174876D02*
X175375691Y-106251066D01*
X175375691Y-106251066D02*
X175413786Y-106365352D01*
X175413786Y-106365352D02*
X175870929Y-106822495D01*
X175870929Y-106822495D02*
X175375691Y-106822495D01*
X174880452Y-106022495D02*
X174804262Y-106022495D01*
X174804262Y-106022495D02*
X174728071Y-106060590D01*
X174728071Y-106060590D02*
X174689976Y-106098685D01*
X174689976Y-106098685D02*
X174651881Y-106174876D01*
X174651881Y-106174876D02*
X174613786Y-106327257D01*
X174613786Y-106327257D02*
X174613786Y-106517733D01*
X174613786Y-106517733D02*
X174651881Y-106670114D01*
X174651881Y-106670114D02*
X174689976Y-106746304D01*
X174689976Y-106746304D02*
X174728071Y-106784400D01*
X174728071Y-106784400D02*
X174804262Y-106822495D01*
X174804262Y-106822495D02*
X174880452Y-106822495D01*
X174880452Y-106822495D02*
X174956643Y-106784400D01*
X174956643Y-106784400D02*
X174994738Y-106746304D01*
X174994738Y-106746304D02*
X175032833Y-106670114D01*
X175032833Y-106670114D02*
X175070929Y-106517733D01*
X175070929Y-106517733D02*
X175070929Y-106327257D01*
X175070929Y-106327257D02*
X175032833Y-106174876D01*
X175032833Y-106174876D02*
X174994738Y-106098685D01*
X174994738Y-106098685D02*
X174956643Y-106060590D01*
X174956643Y-106060590D02*
X174880452Y-106022495D01*
X174309024Y-106098685D02*
X174270928Y-106060590D01*
X174270928Y-106060590D02*
X174194738Y-106022495D01*
X174194738Y-106022495D02*
X174004262Y-106022495D01*
X174004262Y-106022495D02*
X173928071Y-106060590D01*
X173928071Y-106060590D02*
X173889976Y-106098685D01*
X173889976Y-106098685D02*
X173851881Y-106174876D01*
X173851881Y-106174876D02*
X173851881Y-106251066D01*
X173851881Y-106251066D02*
X173889976Y-106365352D01*
X173889976Y-106365352D02*
X174347119Y-106822495D01*
X174347119Y-106822495D02*
X173851881Y-106822495D01*
X173128071Y-106022495D02*
X173509023Y-106022495D01*
X173509023Y-106022495D02*
X173547119Y-106403447D01*
X173547119Y-106403447D02*
X173509023Y-106365352D01*
X173509023Y-106365352D02*
X173432833Y-106327257D01*
X173432833Y-106327257D02*
X173242357Y-106327257D01*
X173242357Y-106327257D02*
X173166166Y-106365352D01*
X173166166Y-106365352D02*
X173128071Y-106403447D01*
X173128071Y-106403447D02*
X173089976Y-106479638D01*
X173089976Y-106479638D02*
X173089976Y-106670114D01*
X173089976Y-106670114D02*
X173128071Y-106746304D01*
X173128071Y-106746304D02*
X173166166Y-106784400D01*
X173166166Y-106784400D02*
X173242357Y-106822495D01*
X173242357Y-106822495D02*
X173432833Y-106822495D01*
X173432833Y-106822495D02*
X173509023Y-106784400D01*
X173509023Y-106784400D02*
X173547119Y-106746304D01*
D11*
G36*
X167249959Y-102011931D02*
G01*
X167329665Y-102091637D01*
X167372433Y-102262707D01*
X167372433Y-102583730D01*
X167329665Y-102754799D01*
X167249957Y-102834508D01*
X167172535Y-102873219D01*
X167005666Y-102873219D01*
X166983031Y-102861902D01*
X167071098Y-102773835D01*
X167148523Y-102735123D01*
X167231957Y-102735123D01*
X167251091Y-102731317D01*
X167278151Y-102704257D01*
X167278151Y-102665989D01*
X167251091Y-102638929D01*
X167231957Y-102635123D01*
X167136719Y-102635123D01*
X167134262Y-102635611D01*
X167133174Y-102635249D01*
X167125446Y-102637365D01*
X167117585Y-102638929D01*
X167116773Y-102639740D01*
X167114358Y-102640402D01*
X167019120Y-102688021D01*
X167012785Y-102692936D01*
X167006126Y-102697387D01*
X166898624Y-102804889D01*
X166848534Y-102754798D01*
X166805767Y-102583730D01*
X166805767Y-102262707D01*
X166848534Y-102091637D01*
X166928240Y-102011931D01*
X167005666Y-101973219D01*
X167172535Y-101973219D01*
X167249959Y-102011931D01*
G37*
G36*
X167583544Y-103179442D02*
G01*
X165598462Y-103179442D01*
X165598462Y-103022002D01*
X166658274Y-103022002D01*
X166675388Y-103056230D01*
X166711693Y-103068331D01*
X166730509Y-103063178D01*
X166825746Y-103015560D01*
X166832079Y-103010644D01*
X166838741Y-103006193D01*
X166908496Y-102936437D01*
X166971501Y-102967940D01*
X166973916Y-102968601D01*
X166974728Y-102969413D01*
X166982589Y-102970976D01*
X166990317Y-102973093D01*
X166991405Y-102972730D01*
X166993862Y-102973219D01*
X167184338Y-102973219D01*
X167186794Y-102972730D01*
X167187883Y-102973093D01*
X167195610Y-102970976D01*
X167203472Y-102969413D01*
X167204283Y-102968601D01*
X167206699Y-102967940D01*
X167301936Y-102920322D01*
X167308263Y-102915411D01*
X167314932Y-102910955D01*
X167410170Y-102815716D01*
X167413179Y-102811212D01*
X167414988Y-102810127D01*
X167417603Y-102804590D01*
X167421008Y-102799495D01*
X167421008Y-102797384D01*
X167423321Y-102792488D01*
X167470940Y-102602012D01*
X167471237Y-102595894D01*
X167472433Y-102589885D01*
X167472433Y-102256552D01*
X167471237Y-102250542D01*
X167470940Y-102244425D01*
X167423321Y-102053949D01*
X167421008Y-102049052D01*
X167421008Y-102046942D01*
X167417604Y-102041848D01*
X167414988Y-102036310D01*
X167413177Y-102035223D01*
X167410169Y-102030721D01*
X167314931Y-101935483D01*
X167308269Y-101931031D01*
X167301936Y-101926116D01*
X167206699Y-101878498D01*
X167204283Y-101877836D01*
X167203472Y-101877025D01*
X167195610Y-101875461D01*
X167187883Y-101873345D01*
X167186794Y-101873707D01*
X167184338Y-101873219D01*
X166993862Y-101873219D01*
X166991405Y-101873707D01*
X166990317Y-101873345D01*
X166982589Y-101875461D01*
X166974728Y-101877025D01*
X166973916Y-101877836D01*
X166971501Y-101878498D01*
X166876263Y-101926117D01*
X166869928Y-101931032D01*
X166863269Y-101935483D01*
X166768031Y-102030721D01*
X166765022Y-102035223D01*
X166763212Y-102036310D01*
X166760595Y-102041848D01*
X166757192Y-102046942D01*
X166757192Y-102049052D01*
X166754879Y-102053949D01*
X166707260Y-102244425D01*
X166706962Y-102250542D01*
X166705767Y-102256552D01*
X166705767Y-102589885D01*
X166706962Y-102595894D01*
X166707260Y-102602012D01*
X166754879Y-102792488D01*
X166757192Y-102797384D01*
X166757192Y-102799495D01*
X166760596Y-102804590D01*
X166763212Y-102810127D01*
X166765020Y-102811212D01*
X166768030Y-102815716D01*
X166827914Y-102875600D01*
X166773769Y-102929745D01*
X166685787Y-102973736D01*
X166670375Y-102985697D01*
X166658274Y-103022002D01*
X165598462Y-103022002D01*
X165598462Y-101999323D01*
X165709573Y-101999323D01*
X165709573Y-102037591D01*
X165736633Y-102064651D01*
X165774901Y-102064651D01*
X165791122Y-102053812D01*
X165830395Y-102014539D01*
X165954356Y-101973219D01*
X166033368Y-101973219D01*
X166157329Y-102014539D01*
X166238482Y-102095692D01*
X166280019Y-102178766D01*
X166324814Y-102357945D01*
X166324814Y-102488492D01*
X166280019Y-102667670D01*
X166238482Y-102750744D01*
X166157328Y-102831898D01*
X166033368Y-102873219D01*
X165954356Y-102873219D01*
X165830396Y-102831899D01*
X165791123Y-102792625D01*
X165774902Y-102781786D01*
X165736633Y-102781786D01*
X165709573Y-102808845D01*
X165709573Y-102847114D01*
X165720411Y-102863335D01*
X165768030Y-102910955D01*
X165770112Y-102912346D01*
X165770626Y-102913373D01*
X165777584Y-102917339D01*
X165784251Y-102921794D01*
X165785400Y-102921794D01*
X165787575Y-102923034D01*
X165930431Y-102970653D01*
X165938381Y-102971655D01*
X165946243Y-102973219D01*
X166041481Y-102973219D01*
X166049343Y-102971655D01*
X166057292Y-102970653D01*
X166200149Y-102923034D01*
X166202324Y-102921794D01*
X166203473Y-102921794D01*
X166210143Y-102917336D01*
X166217097Y-102913373D01*
X166217609Y-102912347D01*
X166219694Y-102910955D01*
X166314932Y-102815716D01*
X166319385Y-102809050D01*
X166324297Y-102802722D01*
X166371916Y-102707484D01*
X166373362Y-102702202D01*
X166375702Y-102697250D01*
X166423321Y-102506774D01*
X166423618Y-102500656D01*
X166424814Y-102494647D01*
X166424814Y-102351790D01*
X166423618Y-102345780D01*
X166423321Y-102339663D01*
X166375702Y-102149187D01*
X166373362Y-102144234D01*
X166371916Y-102138953D01*
X166324297Y-102043715D01*
X166319381Y-102037380D01*
X166314931Y-102030721D01*
X166219693Y-101935483D01*
X166217610Y-101934091D01*
X166217097Y-101933065D01*
X166210136Y-101929097D01*
X166203472Y-101924644D01*
X166202324Y-101924644D01*
X166200149Y-101923404D01*
X166057292Y-101875785D01*
X166049343Y-101874782D01*
X166041481Y-101873219D01*
X165946243Y-101873219D01*
X165938381Y-101874782D01*
X165930431Y-101875785D01*
X165787575Y-101923404D01*
X165785400Y-101924644D01*
X165784251Y-101924644D01*
X165777584Y-101929098D01*
X165770626Y-101933065D01*
X165770112Y-101934091D01*
X165768030Y-101935483D01*
X165720412Y-101983102D01*
X165709573Y-101999323D01*
X165598462Y-101999323D01*
X165598462Y-101762108D01*
X167583544Y-101762108D01*
X167583544Y-103179442D01*
G37*
D12*
X162728700Y-101630801D02*
X162728699Y-109130800D01*
D13*
X167761200Y-109130800D02*
X157696199Y-109130801D01*
X157696200Y-101630801D01*
X167761201Y-101630800D01*
X167761200Y-109130800D01*
X187290791Y-109130800D02*
X167696200Y-109130801D01*
X167696200Y-101630801D01*
X187290791Y-101630800D01*
X187290791Y-109130800D01*
G36*
X172389671Y-115929871D02*
G01*
X172496031Y-115983052D01*
X172596637Y-116083658D01*
X172649171Y-116241259D01*
X172649171Y-116424060D01*
X171449171Y-116424060D01*
X171449171Y-116241257D01*
X171501704Y-116083658D01*
X171602311Y-115983051D01*
X171708670Y-115929872D01*
X171960492Y-115866917D01*
X172137850Y-115866917D01*
X172389671Y-115929871D01*
G37*
G36*
X173115838Y-120033584D02*
G01*
X170982504Y-120033584D01*
X170982504Y-119074060D01*
X171149171Y-119074060D01*
X171149171Y-119216917D01*
X171150629Y-119231728D01*
X171150349Y-119235678D01*
X171151530Y-119240872D01*
X171152053Y-119246181D01*
X171153570Y-119249843D01*
X171156869Y-119264351D01*
X171228297Y-119478637D01*
X171240286Y-119505488D01*
X171243816Y-119509558D01*
X171245879Y-119514538D01*
X171264534Y-119537269D01*
X171407391Y-119680126D01*
X171418893Y-119689566D01*
X171421489Y-119692559D01*
X171425998Y-119695397D01*
X171430121Y-119698781D01*
X171433783Y-119700297D01*
X171446375Y-119708224D01*
X171589231Y-119779653D01*
X171591373Y-119780472D01*
X171592243Y-119781117D01*
X171604514Y-119785501D01*
X171616695Y-119790162D01*
X171617775Y-119790238D01*
X171619934Y-119791010D01*
X171905648Y-119862438D01*
X171910719Y-119863187D01*
X171912764Y-119864035D01*
X171923786Y-119865120D01*
X171934737Y-119866740D01*
X171936924Y-119866414D01*
X171942028Y-119866917D01*
X172156314Y-119866917D01*
X172161417Y-119866414D01*
X172163605Y-119866740D01*
X172174555Y-119865120D01*
X172185578Y-119864035D01*
X172187622Y-119863187D01*
X172192694Y-119862438D01*
X172478408Y-119791010D01*
X172480566Y-119790238D01*
X172481647Y-119790162D01*
X172493821Y-119785503D01*
X172506099Y-119781117D01*
X172506969Y-119780472D01*
X172509110Y-119779653D01*
X172651967Y-119708224D01*
X172664560Y-119700296D01*
X172668220Y-119698781D01*
X172672339Y-119695399D01*
X172676853Y-119692559D01*
X172679449Y-119689565D01*
X172690951Y-119680126D01*
X172833808Y-119537269D01*
X172852463Y-119514539D01*
X172854526Y-119509557D01*
X172858056Y-119505488D01*
X172870044Y-119478637D01*
X172941473Y-119264352D01*
X172944772Y-119249842D01*
X172946289Y-119246181D01*
X172946811Y-119240872D01*
X172947993Y-119235678D01*
X172947712Y-119231728D01*
X172949171Y-119216917D01*
X172949171Y-119002632D01*
X172946289Y-118973368D01*
X172944227Y-118968390D01*
X172943845Y-118963013D01*
X172933335Y-118935550D01*
X172861906Y-118792692D01*
X172846241Y-118767806D01*
X172802026Y-118729460D01*
X172746504Y-118710952D01*
X172688123Y-118715100D01*
X172635774Y-118741275D01*
X172597428Y-118785490D01*
X172578920Y-118841012D01*
X172583068Y-118899393D01*
X172593578Y-118926856D01*
X172649171Y-119038042D01*
X172649171Y-119192574D01*
X172596637Y-119350175D01*
X172496031Y-119450781D01*
X172389671Y-119503962D01*
X172137850Y-119566917D01*
X171960492Y-119566917D01*
X171708670Y-119503961D01*
X171602311Y-119450782D01*
X171501704Y-119350175D01*
X171449171Y-119192576D01*
X171449171Y-119098400D01*
X171501704Y-118940801D01*
X171504160Y-118938346D01*
X171792028Y-118938346D01*
X171792028Y-119074060D01*
X171794910Y-119103324D01*
X171817308Y-119157396D01*
X171858692Y-119198780D01*
X171912764Y-119221178D01*
X171971292Y-119221178D01*
X172025364Y-119198780D01*
X172066748Y-119157396D01*
X172089146Y-119103324D01*
X172092028Y-119074060D01*
X172092028Y-118788346D01*
X172089146Y-118759082D01*
X172066748Y-118705010D01*
X172025364Y-118663626D01*
X171971292Y-118641228D01*
X171942028Y-118638346D01*
X171442028Y-118638346D01*
X171412764Y-118641228D01*
X171381089Y-118654348D01*
X171358692Y-118663625D01*
X171335962Y-118682280D01*
X171264534Y-118753708D01*
X171245879Y-118776439D01*
X171243816Y-118781418D01*
X171240286Y-118785489D01*
X171228297Y-118812340D01*
X171156869Y-119026626D01*
X171153570Y-119041133D01*
X171152053Y-119044796D01*
X171151530Y-119050104D01*
X171150349Y-119055299D01*
X171150629Y-119059248D01*
X171149171Y-119074060D01*
X170982504Y-119074060D01*
X170982504Y-117298823D01*
X171149537Y-117298823D01*
X171152053Y-117308047D01*
X171152053Y-117317610D01*
X171159688Y-117336042D01*
X171164937Y-117355287D01*
X171170791Y-117362846D01*
X171174451Y-117371682D01*
X171188558Y-117385789D01*
X171200772Y-117401561D01*
X171213035Y-117410266D01*
X171215835Y-117413066D01*
X171218582Y-117414204D01*
X171224750Y-117418582D01*
X172234336Y-117995489D01*
X171299171Y-117995489D01*
X171269907Y-117998371D01*
X171215835Y-118020769D01*
X171174451Y-118062153D01*
X171152053Y-118116225D01*
X171152053Y-118174753D01*
X171174451Y-118228825D01*
X171215835Y-118270209D01*
X171269907Y-118292607D01*
X171299171Y-118295489D01*
X172799171Y-118295489D01*
X172806697Y-118294747D01*
X172809649Y-118295123D01*
X172813470Y-118294080D01*
X172828435Y-118292607D01*
X172846867Y-118284971D01*
X172866112Y-118279723D01*
X172873671Y-118273868D01*
X172882507Y-118270209D01*
X172896614Y-118256101D01*
X172912386Y-118243888D01*
X172917130Y-118235585D01*
X172923891Y-118228825D01*
X172931525Y-118210394D01*
X172941424Y-118193072D01*
X172942629Y-118183586D01*
X172946289Y-118174753D01*
X172946289Y-118154803D01*
X172948805Y-118135012D01*
X172946289Y-118125786D01*
X172946289Y-118116225D01*
X172938655Y-118097796D01*
X172933406Y-118078548D01*
X172927549Y-118070986D01*
X172923891Y-118062153D01*
X172909785Y-118048047D01*
X172897570Y-118032274D01*
X172885306Y-118023568D01*
X172882507Y-118020769D01*
X172879759Y-118019630D01*
X172873592Y-118015253D01*
X171864005Y-117438346D01*
X172799171Y-117438346D01*
X172828435Y-117435464D01*
X172882507Y-117413066D01*
X172923891Y-117371682D01*
X172946289Y-117317610D01*
X172946289Y-117259082D01*
X172923891Y-117205010D01*
X172882507Y-117163626D01*
X172828435Y-117141228D01*
X172799171Y-117138346D01*
X171299171Y-117138346D01*
X171291645Y-117139087D01*
X171288694Y-117138712D01*
X171284873Y-117139754D01*
X171269907Y-117141228D01*
X171251474Y-117148863D01*
X171232230Y-117154112D01*
X171224670Y-117159966D01*
X171215835Y-117163626D01*
X171201727Y-117177733D01*
X171185956Y-117189947D01*
X171181211Y-117198249D01*
X171174451Y-117205010D01*
X171166816Y-117223440D01*
X171156918Y-117240763D01*
X171155712Y-117250248D01*
X171152053Y-117259082D01*
X171152053Y-117279031D01*
X171149537Y-117298823D01*
X170982504Y-117298823D01*
X170982504Y-116216917D01*
X171149171Y-116216917D01*
X171149171Y-116574060D01*
X171152053Y-116603324D01*
X171174451Y-116657396D01*
X171215835Y-116698780D01*
X171269907Y-116721178D01*
X171299171Y-116724060D01*
X172799171Y-116724060D01*
X172828435Y-116721178D01*
X172882507Y-116698780D01*
X172923891Y-116657396D01*
X172946289Y-116603324D01*
X172949171Y-116574060D01*
X172949171Y-116216917D01*
X172947712Y-116202105D01*
X172947993Y-116198156D01*
X172946811Y-116192961D01*
X172946289Y-116187653D01*
X172944772Y-116183991D01*
X172941473Y-116169482D01*
X172870044Y-115955197D01*
X172858056Y-115928346D01*
X172854526Y-115924276D01*
X172852463Y-115919295D01*
X172833808Y-115896565D01*
X172690951Y-115753708D01*
X172679449Y-115744268D01*
X172676853Y-115741275D01*
X172672339Y-115738434D01*
X172668220Y-115735053D01*
X172664560Y-115733537D01*
X172651967Y-115725610D01*
X172509110Y-115654181D01*
X172506969Y-115653361D01*
X172506099Y-115652717D01*
X172493821Y-115648330D01*
X172481647Y-115643672D01*
X172480566Y-115643595D01*
X172478408Y-115642824D01*
X172192694Y-115571396D01*
X172187622Y-115570646D01*
X172185578Y-115569799D01*
X172174555Y-115568713D01*
X172163605Y-115567094D01*
X172161417Y-115567419D01*
X172156314Y-115566917D01*
X171942028Y-115566917D01*
X171936924Y-115567419D01*
X171934737Y-115567094D01*
X171923786Y-115568713D01*
X171912764Y-115569799D01*
X171910719Y-115570646D01*
X171905648Y-115571396D01*
X171619934Y-115642824D01*
X171617775Y-115643595D01*
X171616695Y-115643672D01*
X171604514Y-115648332D01*
X171592243Y-115652717D01*
X171591373Y-115653361D01*
X171589231Y-115654181D01*
X171446375Y-115725610D01*
X171433783Y-115733536D01*
X171430121Y-115735053D01*
X171425998Y-115738436D01*
X171421489Y-115741275D01*
X171418893Y-115744267D01*
X171407391Y-115753708D01*
X171264534Y-115896565D01*
X171245879Y-115919296D01*
X171243816Y-115924275D01*
X171240286Y-115928346D01*
X171228297Y-115955197D01*
X171156869Y-116169483D01*
X171153570Y-116183990D01*
X171152053Y-116187653D01*
X171151530Y-116192961D01*
X171150349Y-116198156D01*
X171150629Y-116202105D01*
X171149171Y-116216917D01*
X170982504Y-116216917D01*
X170982504Y-115400250D01*
X173115838Y-115400250D01*
X173115838Y-120033584D01*
G37*
G36*
X169624828Y-118125939D02*
G01*
X169177742Y-118274968D01*
X169177742Y-117976909D01*
X169624828Y-118125939D01*
G37*
G36*
X169234885Y-116815881D02*
G01*
X169182351Y-116973483D01*
X169153173Y-117002661D01*
X169063761Y-117047367D01*
X168920295Y-117047367D01*
X168830882Y-117002661D01*
X168793878Y-116965657D01*
X168749171Y-116876242D01*
X168749171Y-116490224D01*
X169234885Y-116490224D01*
X169234885Y-116815881D01*
G37*
G36*
X169949171Y-116804814D02*
G01*
X169904464Y-116894228D01*
X169867460Y-116931231D01*
X169778047Y-116975939D01*
X169706010Y-116975939D01*
X169616596Y-116931232D01*
X169579592Y-116894228D01*
X169534885Y-116804814D01*
X169534885Y-116490224D01*
X169949171Y-116490224D01*
X169949171Y-116804814D01*
G37*
G36*
X170415838Y-120082581D02*
G01*
X168282504Y-120082581D01*
X168282504Y-119310960D01*
X168452053Y-119310960D01*
X168452053Y-119369488D01*
X168474451Y-119423560D01*
X168515835Y-119464944D01*
X168569907Y-119487342D01*
X168599171Y-119490224D01*
X169949171Y-119490224D01*
X169949171Y-119768796D01*
X169952053Y-119798060D01*
X169974451Y-119852132D01*
X170015835Y-119893516D01*
X170069907Y-119915914D01*
X170128435Y-119915914D01*
X170182507Y-119893516D01*
X170223891Y-119852132D01*
X170246289Y-119798060D01*
X170249171Y-119768796D01*
X170249171Y-118911653D01*
X170246289Y-118882389D01*
X170223891Y-118828317D01*
X170182507Y-118786933D01*
X170128435Y-118764535D01*
X170069907Y-118764535D01*
X170015835Y-118786933D01*
X169974451Y-118828317D01*
X169952053Y-118882389D01*
X169949171Y-118911653D01*
X169949171Y-119190224D01*
X168599171Y-119190224D01*
X168569907Y-119193106D01*
X168515835Y-119215504D01*
X168474451Y-119256888D01*
X168452053Y-119310960D01*
X168282504Y-119310960D01*
X168282504Y-117607178D01*
X168450349Y-117607178D01*
X168454498Y-117665559D01*
X168480672Y-117717906D01*
X168524886Y-117756253D01*
X168551737Y-117768241D01*
X168877742Y-117876909D01*
X168877742Y-118374968D01*
X168551737Y-118483637D01*
X168524886Y-118495625D01*
X168480672Y-118533972D01*
X168454498Y-118586319D01*
X168450349Y-118644700D01*
X168468857Y-118700224D01*
X168507204Y-118744438D01*
X168559551Y-118770612D01*
X168617932Y-118774761D01*
X168646605Y-118768241D01*
X170146605Y-118268241D01*
X170173456Y-118256253D01*
X170181553Y-118249230D01*
X170191138Y-118244438D01*
X170203459Y-118230231D01*
X170217671Y-118217906D01*
X170222464Y-118208318D01*
X170229485Y-118200224D01*
X170235433Y-118182379D01*
X170243844Y-118165558D01*
X170244603Y-118154870D01*
X170247994Y-118144700D01*
X170246660Y-118125939D01*
X170247994Y-118107178D01*
X170244603Y-118097007D01*
X170243844Y-118086320D01*
X170235433Y-118069498D01*
X170229485Y-118051654D01*
X170222464Y-118043559D01*
X170217671Y-118033972D01*
X170203459Y-118021646D01*
X170191138Y-118007440D01*
X170181553Y-118002647D01*
X170173456Y-117995625D01*
X170146605Y-117983637D01*
X168646605Y-117483637D01*
X168617932Y-117477117D01*
X168559551Y-117481266D01*
X168507204Y-117507440D01*
X168468857Y-117551654D01*
X168450349Y-117607178D01*
X168282504Y-117607178D01*
X168282504Y-116340224D01*
X168449171Y-116340224D01*
X168449171Y-116911653D01*
X168452053Y-116940917D01*
X168454116Y-116945897D01*
X168454498Y-116951272D01*
X168465007Y-116978735D01*
X168536436Y-117121592D01*
X168544364Y-117134187D01*
X168545879Y-117137844D01*
X168549258Y-117141961D01*
X168552101Y-117146478D01*
X168555095Y-117149075D01*
X168564533Y-117160575D01*
X168635961Y-117232004D01*
X168647466Y-117241446D01*
X168650061Y-117244438D01*
X168654571Y-117247277D01*
X168658692Y-117250659D01*
X168662351Y-117252174D01*
X168674946Y-117260103D01*
X168817804Y-117331531D01*
X168845267Y-117342041D01*
X168850642Y-117342422D01*
X168855621Y-117344485D01*
X168884885Y-117347367D01*
X169099171Y-117347367D01*
X169128435Y-117344485D01*
X169133413Y-117342422D01*
X169138789Y-117342041D01*
X169166253Y-117331531D01*
X169309110Y-117260103D01*
X169321703Y-117252175D01*
X169325363Y-117250660D01*
X169329482Y-117247278D01*
X169333996Y-117244438D01*
X169336592Y-117241444D01*
X169348094Y-117232005D01*
X169419523Y-117160576D01*
X169420493Y-117159393D01*
X169421676Y-117160576D01*
X169433178Y-117170016D01*
X169435774Y-117173009D01*
X169440283Y-117175847D01*
X169444406Y-117179231D01*
X169448068Y-117180747D01*
X169460660Y-117188674D01*
X169603518Y-117260103D01*
X169630981Y-117270613D01*
X169636358Y-117270995D01*
X169641336Y-117273057D01*
X169670600Y-117275939D01*
X169813457Y-117275939D01*
X169842721Y-117273057D01*
X169847701Y-117270993D01*
X169853076Y-117270612D01*
X169880539Y-117260103D01*
X170023396Y-117188674D01*
X170035989Y-117180746D01*
X170039649Y-117179231D01*
X170043768Y-117175849D01*
X170048282Y-117173009D01*
X170050878Y-117170015D01*
X170062380Y-117160576D01*
X170133808Y-117089148D01*
X170143248Y-117077645D01*
X170146241Y-117075050D01*
X170149079Y-117070540D01*
X170152463Y-117066418D01*
X170153979Y-117062755D01*
X170161906Y-117050164D01*
X170233335Y-116907306D01*
X170243845Y-116879843D01*
X170244227Y-116874465D01*
X170246289Y-116869488D01*
X170249171Y-116840224D01*
X170249171Y-116340224D01*
X170246289Y-116310960D01*
X170223891Y-116256888D01*
X170182507Y-116215504D01*
X170128435Y-116193106D01*
X170099171Y-116190224D01*
X168599171Y-116190224D01*
X168569907Y-116193106D01*
X168515835Y-116215504D01*
X168474451Y-116256888D01*
X168452053Y-116310960D01*
X168449171Y-116340224D01*
X168282504Y-116340224D01*
X168282504Y-115321464D01*
X168450349Y-115321464D01*
X168451682Y-115340225D01*
X168450349Y-115358986D01*
X168453738Y-115369153D01*
X168454498Y-115379845D01*
X168462909Y-115396668D01*
X168468857Y-115414510D01*
X168475879Y-115422606D01*
X168480672Y-115432192D01*
X168494880Y-115444515D01*
X168507204Y-115458724D01*
X168516789Y-115463516D01*
X168524886Y-115470539D01*
X168551737Y-115482527D01*
X170051737Y-115982528D01*
X170080411Y-115989048D01*
X170138791Y-115984898D01*
X170191138Y-115958724D01*
X170229485Y-115914510D01*
X170247994Y-115858986D01*
X170243844Y-115800606D01*
X170217671Y-115748258D01*
X170173456Y-115709911D01*
X170146605Y-115697923D01*
X169073511Y-115340225D01*
X170146605Y-114982527D01*
X170173456Y-114970539D01*
X170217671Y-114932192D01*
X170243844Y-114879844D01*
X170247994Y-114821464D01*
X170229485Y-114765940D01*
X170191138Y-114721726D01*
X170138791Y-114695552D01*
X170080411Y-114691402D01*
X170051737Y-114697922D01*
X168551737Y-115197923D01*
X168524886Y-115209911D01*
X168516789Y-115216933D01*
X168507204Y-115221726D01*
X168494880Y-115235934D01*
X168480672Y-115248258D01*
X168475879Y-115257843D01*
X168468857Y-115265940D01*
X168462909Y-115283781D01*
X168454498Y-115300605D01*
X168453738Y-115311296D01*
X168450349Y-115321464D01*
X168282504Y-115321464D01*
X168282504Y-114524735D01*
X170415838Y-114524735D01*
X170415838Y-120082581D01*
G37*
%LPC*%
D14*
%TO.C,J3*%
X124160000Y-89880000D03*
D15*
X126700000Y-89880000D03*
X124160000Y-87340000D03*
X126700000Y-87340000D03*
X124160000Y-84800001D03*
X126700000Y-84800000D03*
%TD*%
D16*
%TO.C,J1*%
X165780000Y-121697501D03*
D17*
X163240000Y-121697501D03*
%TD*%
D18*
%TO.C,J2*%
X149110000Y-119955000D03*
X154890000Y-119955000D03*
D19*
X147680000Y-119455000D03*
D20*
X147680000Y-123635000D03*
D19*
X156320000Y-119455000D03*
D20*
X156320000Y-123635000D03*
%TD*%
D21*
%TO.C,J7*%
X152979999Y-86820002D03*
D17*
X155519999Y-86820002D03*
%TD*%
D21*
%TO.C,J10*%
X159119999Y-86800002D03*
D17*
X161659999Y-86800002D03*
%TD*%
D21*
%TO.C,J14*%
X140560000Y-79900000D03*
D17*
X143100000Y-79900000D03*
%TD*%
D21*
%TO.C,J6*%
X146799999Y-86800000D03*
D17*
X149339999Y-86800000D03*
%TD*%
D14*
%TO.C,J19*%
X132810000Y-89800000D03*
D15*
X135350000Y-89800000D03*
X132810000Y-87260000D03*
X135350000Y-87260000D03*
X132810000Y-84720001D03*
X135350000Y-84720000D03*
%TD*%
D21*
%TO.C,J18*%
X169510000Y-121717501D03*
D17*
X172050000Y-121717501D03*
%TD*%
D21*
%TO.C,J15*%
X140559999Y-86799999D03*
D17*
X143099999Y-86799999D03*
%TD*%
D21*
%TO.C,J12*%
X165329998Y-86800001D03*
D17*
X167869998Y-86800001D03*
%TD*%
D21*
%TO.C,J13*%
X171529999Y-86800002D03*
D17*
X174069999Y-86800002D03*
%TD*%
D14*
%TO.C,J5*%
X153200000Y-95560000D03*
D15*
X150660000Y-95560000D03*
X153200000Y-98100000D03*
X150660000Y-98100000D03*
%TD*%
D21*
%TO.C,J9*%
X159119999Y-79920002D03*
D17*
X161659999Y-79920002D03*
%TD*%
D21*
%TO.C,J11*%
X165329999Y-79900002D03*
D17*
X167869999Y-79900002D03*
%TD*%
D21*
%TO.C,J16*%
X146769999Y-79900001D03*
D17*
X149309999Y-79900001D03*
%TD*%
D21*
%TO.C,J8*%
X152979999Y-79920002D03*
D17*
X155519999Y-79920002D03*
%TD*%
%LPD*%
M02*
