M48
; DRILL file {KiCad 9.0.2-9.0.2-0~ubuntu24.04.1} date 2025-05-23T01:49:29+0200
; FORMAT={-:-/ absolute / inch / decimal}
; #@! TF.CreationDate,2025-05-23T01:49:29+02:00
; #@! TF.GenerationSoftware,Kicad,Pcbnew,9.0.2-9.0.2-0~ubuntu24.04.1
; #@! TF.FileFunction,Plated,1,2,PTH
FMAT,2
INCH
; #@! TA.AperFunction,Plated,PTH,ComponentDrill
T1C0.0079
; #@! TA.AperFunction,Plated,PTH,ViaDrill
T2C0.0138
; #@! TA.AperFunction,Plated,PTH,ViaDrill
T3C0.0157
; #@! TA.AperFunction,Plated,PTH,ComponentDrill
T4C0.0236
; #@! TA.AperFunction,Plated,PTH,ComponentDrill
T5C0.0394
; #@! TA.AperFunction,Plated,PTH,ComponentDrill
T6C0.0469
%
G90
G05
T1
X5.2636Y-4.2661
X5.2636Y-4.3213
X5.2911Y-4.2386
X5.2911Y-4.2937
X5.2911Y-4.3488
X5.3187Y-4.2661
X5.3187Y-4.3213
X5.3463Y-4.2386
X5.3463Y-4.2937
X5.3463Y-4.3488
X5.3738Y-4.2661
X5.3738Y-4.3213
T2
X4.7638Y-4.2323
X4.8622Y-4.4331
X4.8646Y-4.0327
X4.8661Y-4.5039
X4.874Y-4.2402
X4.9409Y-4.3661
X4.9646Y-4.5748
X5.0767Y-4.1459
X5.0787Y-4.1959
X5.0787Y-4.2459
X5.0787Y-4.2959
X5.0787Y-4.3459
X5.0787Y-4.3959
X5.0827Y-4.4459
X5.0827Y-4.4959
X5.0835Y-4.6433
X5.0866Y-4.5459
X5.0866Y-4.5959
X5.2087Y-4.6417
X5.552Y-4.6402
X5.6024Y-4.6417
X5.6732Y-4.3459
X5.6732Y-4.3959
X5.6732Y-4.4459
X5.6732Y-4.5
X5.6732Y-4.5959
X5.6772Y-4.2441
X5.6772Y-4.5459
X5.7222Y-4.0959
X5.7717Y-4.0472
X5.8426Y-4.0519
X5.8922Y-4.6114
X5.8922Y-4.639
X5.9671Y-4.5825
X5.9749Y-4.7532
X6.0039Y-4.4055
X6.0039Y-4.4961
X6.0142Y-4.7532
X6.0335Y-4.3511
X6.0336Y-4.3199
X6.0339Y-4.2926
X6.0363Y-4.584
X6.0531Y-4.7606
X6.0693Y-4.8201
X6.0811Y-4.6075
X6.0811Y-4.6351
X6.093Y-4.4067
X6.2308Y-4.4185
X6.3056Y-4.2099
X6.3725Y-4.2256
X6.3725Y-4.2847
X6.3725Y-4.3162
X6.3726Y-4.2546
X6.3882Y-4.454
X6.404Y-4.5366
X6.4151Y-4.1949
X6.4158Y-4.0445
X6.4158Y-4.08
X6.4158Y-4.1193
X6.4158Y-4.1587
X6.4315Y-4.5366
X6.4738Y-4.4551
X6.4906Y-4.2492
X6.4906Y-4.3516
X6.5339Y-4.4618
X6.6044Y-4.35
X6.6126Y-4.6154
X6.6126Y-4.6469
X6.6363Y-4.3508
X6.6422Y-4.4307
X6.6441Y-4.6469
X6.6481Y-4.6154
X6.6701Y-4.3508
X6.6717Y-4.6744
X6.6749Y-4.43
X6.6796Y-3.765
X6.6835Y-3.8044
X6.6953Y-4.5839
X6.7225Y-4.3918
X6.7268Y-4.5563
X6.7308Y-4.6744
X6.7465Y-4.0553
X6.7504Y-4.0908
X6.8016Y-4.2414
X6.8095Y-3.7571
X6.8398Y-4.1008
X6.8406Y-4.6414
X6.841Y-3.7571
X6.841Y-4.0406
X6.841Y-4.0721
X6.8418Y-4.613
X6.8528Y-4.1823
X6.8693Y-4.6122
X6.8697Y-4.6426
X6.8725Y-4.0406
X6.8725Y-4.0721
X6.8725Y-4.0996
X6.8725Y-4.2492
X6.8725Y-4.2768
X6.8725Y-4.3083
X6.8764Y-4.4579
X6.8764Y-4.5288
X6.8796Y-4.3437
X6.8882Y-3.9461
X6.904Y-4.0406
X6.904Y-4.0721
X6.904Y-4.0996
X6.9079Y-4.4933
X6.9079Y-4.4933
X6.9079Y-4.6036
X6.9158Y-4.3122
X6.9394Y-4.4579
X6.9434Y-4.5288
X6.9562Y-4.2561
X6.9827Y-4.0918
X6.9867Y-4.0091
X7.03Y-3.9618
X7.0378Y-4.4193
X7.0457Y-4.0996
X7.0536Y-4.2335
X7.0772Y-4.1469
T3
X6.1088Y-4.2256
X6.1222Y-4.1089
T5
X4.8882Y-3.3386
X4.8882Y-3.4386
X4.8882Y-3.5386
X4.9882Y-3.3386
X4.9882Y-3.4386
X4.9882Y-3.5386
X5.2287Y-3.3354
X5.2287Y-3.4354
X5.2287Y-3.5354
X5.3287Y-3.3354
X5.3287Y-3.4354
X5.3287Y-3.5354
X5.841Y-3.3666
X5.841Y-3.4666
X5.9315Y-3.7622
X5.9315Y-3.8622
X5.941Y-3.3666
X5.941Y-3.4666
X6.0315Y-3.7622
X6.0315Y-3.8622
X6.041Y-3.3666
X6.041Y-3.4666
X7.2741Y-4.2305
X7.2741Y-4.3305
T6
X5.5335Y-3.417
X5.5339Y-3.1457
X5.6335Y-3.417
X5.6339Y-3.1457
X5.7756Y-3.1453
X5.8756Y-3.1453
X6.0178Y-3.1449
X6.1178Y-3.1449
X6.2642Y-3.1441
X6.2646Y-3.4173
X6.3642Y-3.1441
X6.3646Y-3.4173
X6.5091Y-3.4173
X6.5091Y-3.1457
X6.6091Y-3.4173
X6.6091Y-3.1457
X6.7531Y-3.1437
X6.8531Y-3.1437
X7.2808Y-3.3977
X7.2808Y-3.4977
X7.2808Y-3.5977
X7.2808Y-3.6977
X7.2823Y-3.9305
X7.2823Y-4.0305
T4
G00X5.8142Y-4.6813
M15
G01X5.8142Y-4.7246
M16
G05
G00X5.8142Y-4.8557
M15
G01X5.8142Y-4.8793
M16
G05
G00X6.1543Y-4.6813
M15
G01X6.1543Y-4.7246
M16
G05
G00X6.1543Y-4.8557
M15
G01X6.1543Y-4.8793
M16
G05
M30
