M48
; DRILL file {KiCad 8.0.8-8.0.8-0~ubuntu22.04.1} date 2025-02-19T22:06:23+0100
; FORMAT={-:-/ absolute / inch / decimal}
; #@! TF.CreationDate,2025-02-19T22:06:23+01:00
; #@! TF.GenerationSoftware,Kicad,Pcbnew,8.0.8-8.0.8-0~ubuntu22.04.1
; #@! TF.FileFunction,Plated,1,2,PTH
FMAT,2
INCH
; #@! TA.AperFunction,Plated,PTH,ComponentDrill
T1C0.0079
; #@! TA.AperFunction,Plated,PTH,ViaDrill
T2C0.0138
; #@! TA.AperFunction,Plated,PTH,ComponentDrill
T3C0.0236
; #@! TA.AperFunction,Plated,PTH,ComponentDrill
T4C0.0394
; #@! TA.AperFunction,Plated,PTH,ComponentDrill
T5C0.0469
%
G90
G05
T1
X5.2636Y-4.2661
X5.2636Y-4.3213
X5.2911Y-4.2386
X5.2911Y-4.2937
X5.2911Y-4.3488
X5.3187Y-4.2661
X5.3187Y-4.3213
X5.3463Y-4.2386
X5.3463Y-4.2937
X5.3463Y-4.3488
X5.3738Y-4.2661
X5.3738Y-4.3213
T2
X4.6559Y-3.1575
X4.6559Y-3.2575
X4.6559Y-3.3575
X4.6559Y-3.4575
X4.6559Y-3.5575
X4.6559Y-3.6575
X4.6559Y-3.7575
X4.6559Y-3.8575
X4.6559Y-3.9575
X4.6559Y-4.1575
X4.6559Y-4.4575
X4.6559Y-4.6575
X4.7559Y-3.1575
X4.7559Y-3.2575
X4.7559Y-3.3575
X4.7559Y-3.4575
X4.7559Y-3.5575
X4.7559Y-3.6575
X4.7559Y-3.7575
X4.7559Y-3.8575
X4.7559Y-4.4575
X4.7559Y-4.6575
X4.7638Y-4.2323
X4.8559Y-2.9575
X4.8559Y-3.0575
X4.8559Y-3.1575
X4.8559Y-3.2575
X4.8559Y-3.8575
X4.8559Y-4.7575
X4.8559Y-4.8575
X4.8622Y-4.4331
X4.8661Y-4.0079
X4.8661Y-4.5039
X4.8661Y-4.5669
X4.874Y-4.2402
X4.9409Y-4.3661
X4.9559Y-2.9575
X4.9559Y-3.0575
X4.9559Y-3.1575
X4.9559Y-3.2575
X4.9559Y-3.6575
X4.9559Y-4.8575
X4.9646Y-4.5748
X5.0559Y-2.9575
X5.0559Y-3.0575
X5.0559Y-3.1575
X5.0559Y-3.2575
X5.0559Y-3.6575
X5.0559Y-3.7575
X5.0559Y-4.7575
X5.0559Y-4.8575
X5.0767Y-4.1459
X5.0787Y-4.1959
X5.0787Y-4.2459
X5.0787Y-4.2959
X5.0787Y-4.3459
X5.0787Y-4.3959
X5.0827Y-4.4459
X5.0827Y-4.4959
X5.0866Y-4.5459
X5.0866Y-4.5959
X5.1559Y-3.0575
X5.1559Y-3.1575
X5.1559Y-4.4575
X5.1559Y-4.7575
X5.1559Y-4.8575
X5.2087Y-4.6417
X5.2559Y-3.0575
X5.2559Y-3.2575
X5.2559Y-3.8575
X5.2559Y-3.9575
X5.2559Y-4.0575
X5.2559Y-4.1575
X5.2559Y-4.4575
X5.2559Y-4.7575
X5.2559Y-4.8575
X5.3559Y-3.1575
X5.3559Y-3.2575
X5.3559Y-3.7575
X5.3559Y-3.8575
X5.3559Y-3.9575
X5.3559Y-4.0575
X5.3559Y-4.1575
X5.3559Y-4.7575
X5.3559Y-4.8575
X5.4559Y-3.0575
X5.4559Y-3.1575
X5.4559Y-4.5575
X5.4559Y-4.7575
X5.4559Y-4.8575
X5.5559Y-3.0575
X5.5559Y-3.2575
X5.5559Y-4.7575
X5.5559Y-4.8575
X5.6024Y-4.6417
X5.6559Y-3.0575
X5.6559Y-3.2575
X5.6559Y-4.1575
X5.6559Y-4.6575
X5.6559Y-4.8575
X5.6693Y-4.0945
X5.6732Y-4.3459
X5.6732Y-4.3959
X5.6732Y-4.4459
X5.6732Y-4.5
X5.6732Y-4.5959
X5.6772Y-4.2441
X5.6772Y-4.5459
X5.7559Y-3.0575
X5.7559Y-3.2575
X5.7559Y-3.7575
X5.7559Y-3.8575
X5.7559Y-3.9575
X5.7559Y-4.7575
X5.7559Y-4.8575
X5.7717Y-4.0472
X5.8426Y-4.0519
X5.8559Y-3.0575
X5.8559Y-3.2575
X5.8559Y-3.7575
X5.8559Y-3.8575
X5.8559Y-4.7575
X5.8898Y-4.5984
X5.8898Y-4.6339
X5.9559Y-3.0575
X5.9559Y-3.1575
X6.0039Y-4.4055
X6.0039Y-4.4961
X6.0559Y-3.0575
X6.0559Y-3.2575
X6.0559Y-4.2575
X6.1067Y-4.5945
X6.1496Y-4.5945
X6.1559Y-3.0575
X6.1559Y-3.2575
X6.1559Y-3.3575
X6.1559Y-3.7575
X6.1559Y-3.8575
X6.1559Y-4.3575
X6.1559Y-4.4575
X6.1831Y-4.5926
X6.1929Y-4.0709
X6.2323Y-4.0709
X6.2559Y-3.0575
X6.2559Y-3.2575
X6.2559Y-3.5575
X6.2559Y-3.7575
X6.2559Y-3.8575
X6.2559Y-4.6575
X6.2559Y-4.7575
X6.2677Y-4.0709
X6.3031Y-4.0709
X6.3559Y-3.0575
X6.3559Y-3.2575
X6.3559Y-3.7575
X6.3559Y-3.8575
X6.3559Y-4.2575
X6.3559Y-4.8575
X6.4559Y-3.0575
X6.4559Y-3.7575
X6.4559Y-3.8575
X6.4559Y-4.0575
X6.4559Y-4.1575
X6.4559Y-4.2575
X6.4559Y-4.8575
X6.5559Y-3.0575
X6.5559Y-3.2575
X6.5559Y-3.5575
X6.5559Y-3.7575
X6.5559Y-3.8575
X6.5559Y-4.0575
X6.5559Y-4.1575
X6.5559Y-4.2575
X6.5559Y-4.8575
X6.6559Y-3.0575
X6.6559Y-3.2575
X6.6559Y-3.3575
X6.6559Y-3.7575
X6.6559Y-4.0575
X6.6559Y-4.1575
X6.6559Y-4.2575
X6.6559Y-4.8575
X6.7559Y-3.0575
X6.7559Y-3.1575
X6.7559Y-3.2575
X6.7559Y-3.5575
X6.7559Y-3.8575
X6.7559Y-4.8575
X6.8559Y-3.1575
X6.8559Y-3.2575
X6.8559Y-3.5575
X6.8559Y-3.7575
X6.8559Y-3.8575
X6.8559Y-4.7575
X6.8559Y-4.8575
X6.9559Y-2.9575
X6.9559Y-3.6575
X6.9559Y-3.7575
X6.9559Y-3.8575
X6.9559Y-4.2575
X6.9559Y-4.3575
X6.9559Y-4.7575
X6.9559Y-4.8575
X7.0559Y-2.9575
X7.0559Y-3.0575
X7.0559Y-3.1575
X7.0559Y-3.2575
X7.0559Y-3.3575
X7.0559Y-3.4575
X7.0559Y-3.5575
X7.0559Y-3.6575
X7.0559Y-3.7575
X7.0559Y-3.8575
X7.0559Y-4.7575
X7.0559Y-4.8575
X7.1559Y-2.9575
X7.1559Y-3.0575
X7.1559Y-3.1575
X7.1559Y-3.2575
X7.1559Y-3.3575
X7.1559Y-3.4575
X7.1559Y-3.5575
X7.1559Y-3.6575
X7.1559Y-3.7575
X7.1559Y-3.8575
X7.1559Y-3.9575
X7.1559Y-4.4575
X7.1559Y-4.5575
X7.1559Y-4.6575
X7.1559Y-4.7575
X7.1559Y-4.8575
X7.2559Y-3.1575
X7.2559Y-3.2575
X7.2559Y-3.3575
X7.2559Y-3.4575
X7.2559Y-3.5575
X7.2559Y-3.6575
X7.2559Y-3.7575
X7.2559Y-3.8575
X7.2559Y-3.9575
X7.2559Y-4.4575
X7.2559Y-4.5575
X7.2559Y-4.6575
X7.3559Y-3.1575
X7.3559Y-3.2575
X7.3559Y-3.3575
X7.3559Y-3.4575
X7.3559Y-3.5575
X7.3559Y-3.6575
X7.3559Y-3.7575
X7.3559Y-3.8575
X7.3559Y-3.9575
X7.3559Y-4.4575
X7.3559Y-4.5575
X7.3559Y-4.6575
T4
X4.8882Y-3.3386
X4.8882Y-3.4386
X4.8882Y-3.5386
X4.9882Y-3.3386
X4.9882Y-3.4386
X4.9882Y-3.5386
X5.2287Y-3.3354
X5.2287Y-3.4354
X5.2287Y-3.5354
X5.3287Y-3.3354
X5.3287Y-3.4354
X5.3287Y-3.5354
X5.9315Y-3.7622
X5.9315Y-3.8622
X6.0315Y-3.7622
X6.0315Y-3.8622
T5
X5.5339Y-3.4173
X5.5339Y-3.1457
X5.6339Y-3.4173
X5.6339Y-3.1457
X5.7783Y-3.1457
X5.7795Y-3.4173
X5.8783Y-3.1457
X5.8795Y-3.4173
X6.0228Y-3.1465
X6.0228Y-3.4181
X6.1228Y-3.1465
X6.1228Y-3.4181
X6.2646Y-3.1465
X6.2646Y-3.4173
X6.3646Y-3.1465
X6.3646Y-3.4173
X6.4268Y-4.7912
X6.5091Y-3.4173
X6.5091Y-3.1457
X6.5268Y-4.7912
X6.6091Y-3.4173
X6.6091Y-3.1457
X6.6736Y-4.792
X6.7531Y-3.4173
X6.7736Y-4.792
X6.8531Y-3.4173
T3
G00X5.8142Y-4.6813
M15
G01X5.8142Y-4.7246
M16
G05
G00X5.8142Y-4.8557
M15
G01X5.8142Y-4.8793
M16
G05
G00X6.1543Y-4.6813
M15
G01X6.1543Y-4.7246
M16
G05
G00X6.1543Y-4.8557
M15
G01X6.1543Y-4.8793
M16
G05
M30
