%TF.GenerationSoftware,KiCad,Pcbnew,8.0.8-8.0.8-0~ubuntu22.04.1*%
%TF.CreationDate,2025-02-21T02:47:37+01:00*%
%TF.ProjectId,Pilot6Axis,50696c6f-7436-4417-9869-732e6b696361,rev?*%
%TF.SameCoordinates,Original*%
%TF.FileFunction,Soldermask,Top*%
%TF.FilePolarity,Negative*%
%FSLAX46Y46*%
G04 Gerber Fmt 4.6, Leading zero omitted, Abs format (unit mm)*
G04 Created by KiCad (PCBNEW 8.0.8-8.0.8-0~ubuntu22.04.1) date 2025-02-21 02:47:37*
%MOMM*%
%LPD*%
G01*
G04 APERTURE LIST*
G04 Aperture macros list*
%AMRoundRect*
0 Rectangle with rounded corners*
0 $1 Rounding radius*
0 $2 $3 $4 $5 $6 $7 $8 $9 X,Y pos of 4 corners*
0 Add a 4 corners polygon primitive as box body*
4,1,4,$2,$3,$4,$5,$6,$7,$8,$9,$2,$3,0*
0 Add four circle primitives for the rounded corners*
1,1,$1+$1,$2,$3*
1,1,$1+$1,$4,$5*
1,1,$1+$1,$6,$7*
1,1,$1+$1,$8,$9*
0 Add four rect primitives between the rounded corners*
20,1,$1+$1,$2,$3,$4,$5,0*
20,1,$1+$1,$4,$5,$6,$7,0*
20,1,$1+$1,$6,$7,$8,$9,0*
20,1,$1+$1,$8,$9,$2,$3,0*%
G04 Aperture macros list end*
%ADD10RoundRect,0.200000X-0.200000X-0.275000X0.200000X-0.275000X0.200000X0.275000X-0.200000X0.275000X0*%
%ADD11RoundRect,0.200000X0.275000X-0.200000X0.275000X0.200000X-0.275000X0.200000X-0.275000X-0.200000X0*%
%ADD12RoundRect,0.218750X0.256250X-0.218750X0.256250X0.218750X-0.256250X0.218750X-0.256250X-0.218750X0*%
%ADD13RoundRect,0.135000X0.135000X0.185000X-0.135000X0.185000X-0.135000X-0.185000X0.135000X-0.185000X0*%
%ADD14R,1.700000X1.700000*%
%ADD15O,1.700000X1.700000*%
%ADD16RoundRect,0.225000X0.225000X0.250000X-0.225000X0.250000X-0.225000X-0.250000X0.225000X-0.250000X0*%
%ADD17RoundRect,0.200000X-0.275000X0.200000X-0.275000X-0.200000X0.275000X-0.200000X0.275000X0.200000X0*%
%ADD18RoundRect,0.250000X0.620000X0.845000X-0.620000X0.845000X-0.620000X-0.845000X0.620000X-0.845000X0*%
%ADD19O,1.740000X2.190000*%
%ADD20C,0.650000*%
%ADD21RoundRect,0.150000X-0.150000X-0.500000X0.150000X-0.500000X0.150000X0.500000X-0.150000X0.500000X0*%
%ADD22RoundRect,0.075000X-0.075000X-0.575000X0.075000X-0.575000X0.075000X0.575000X-0.075000X0.575000X0*%
%ADD23O,1.000000X2.100000*%
%ADD24O,1.000000X1.600000*%
%ADD25RoundRect,0.150000X0.590000X0.150000X-0.590000X0.150000X-0.590000X-0.150000X0.590000X-0.150000X0*%
%ADD26RoundRect,0.200000X0.200000X0.275000X-0.200000X0.275000X-0.200000X-0.275000X0.200000X-0.275000X0*%
%ADD27RoundRect,0.225000X-0.250000X0.225000X-0.250000X-0.225000X0.250000X-0.225000X0.250000X0.225000X0*%
%ADD28RoundRect,0.225000X0.250000X-0.225000X0.250000X0.225000X-0.250000X0.225000X-0.250000X-0.225000X0*%
%ADD29RoundRect,0.225000X-0.225000X-0.250000X0.225000X-0.250000X0.225000X0.250000X-0.225000X0.250000X0*%
%ADD30RoundRect,0.135000X-0.135000X-0.185000X0.135000X-0.185000X0.135000X0.185000X-0.135000X0.185000X0*%
%ADD31RoundRect,0.218750X0.218750X0.256250X-0.218750X0.256250X-0.218750X-0.256250X0.218750X-0.256250X0*%
%ADD32RoundRect,0.250000X-0.620000X-0.845000X0.620000X-0.845000X0.620000X0.845000X-0.620000X0.845000X0*%
%ADD33RoundRect,0.150000X0.512500X0.150000X-0.512500X0.150000X-0.512500X-0.150000X0.512500X-0.150000X0*%
%ADD34R,2.000000X1.050000*%
%ADD35RoundRect,0.250000X-0.312500X-0.625000X0.312500X-0.625000X0.312500X0.625000X-0.312500X0.625000X0*%
%ADD36RoundRect,0.135000X-0.185000X0.135000X-0.185000X-0.135000X0.185000X-0.135000X0.185000X0.135000X0*%
%ADD37RoundRect,0.150000X-0.590000X-0.150000X0.590000X-0.150000X0.590000X0.150000X-0.590000X0.150000X0*%
%ADD38RoundRect,0.150000X0.150000X-0.512500X0.150000X0.512500X-0.150000X0.512500X-0.150000X-0.512500X0*%
%ADD39RoundRect,0.062500X0.062500X-0.337500X0.062500X0.337500X-0.062500X0.337500X-0.062500X-0.337500X0*%
%ADD40RoundRect,0.062500X0.337500X-0.062500X0.337500X0.062500X-0.337500X0.062500X-0.337500X-0.062500X0*%
%ADD41R,3.350000X3.350000*%
%ADD42RoundRect,0.250000X-1.600000X0.600000X-1.600000X-0.600000X1.600000X-0.600000X1.600000X0.600000X0*%
%ADD43R,1.500000X0.900000*%
%ADD44R,0.900000X1.500000*%
%ADD45C,0.600000*%
%ADD46R,3.800000X3.800000*%
%ADD47RoundRect,0.375000X-0.375000X0.625000X-0.375000X-0.625000X0.375000X-0.625000X0.375000X0.625000X0*%
%ADD48RoundRect,0.500000X-1.400000X0.500000X-1.400000X-0.500000X1.400000X-0.500000X1.400000X0.500000X0*%
%ADD49RoundRect,0.175000X-1.250000X-0.175000X1.250000X-0.175000X1.250000X0.175000X-1.250000X0.175000X0*%
%ADD50R,4.570000X4.450000*%
G04 APERTURE END LIST*
D10*
%TO.C,R16*%
X122675000Y-102400000D03*
X124325000Y-102400000D03*
%TD*%
D11*
%TO.C,C9*%
X158570000Y-106295000D03*
X158570000Y-104645000D03*
%TD*%
D12*
%TO.C,D3*%
X177350000Y-115325002D03*
X177350000Y-113750000D03*
%TD*%
D11*
%TO.C,R2*%
X174500001Y-104350000D03*
X174500001Y-102700000D03*
%TD*%
D13*
%TO.C,R9*%
X157314999Y-104460000D03*
X156295001Y-104460000D03*
%TD*%
D14*
%TO.C,J3*%
X124160000Y-89880000D03*
D15*
X126700000Y-89880000D03*
X124160000Y-87340000D03*
X126700000Y-87340000D03*
X124160000Y-84800001D03*
X126700000Y-84800000D03*
%TD*%
D16*
%TO.C,C6*%
X179375000Y-109000000D03*
X177825000Y-109000000D03*
%TD*%
D17*
%TO.C,C8*%
X158300000Y-122175000D03*
X158300000Y-123825000D03*
%TD*%
D18*
%TO.C,J1*%
X165780000Y-121697501D03*
D19*
X163240000Y-121697501D03*
%TD*%
D11*
%TO.C,R5*%
X153450001Y-111225000D03*
X153450001Y-109575000D03*
%TD*%
D20*
%TO.C,J2*%
X149110000Y-119955000D03*
X154890000Y-119955000D03*
D21*
X148800000Y-118815000D03*
X149600000Y-118815000D03*
D22*
X150750000Y-118815001D03*
X151750000Y-118815000D03*
X152250000Y-118815000D03*
X153250000Y-118815001D03*
D21*
X154400000Y-118815000D03*
X155200000Y-118815000D03*
X155200000Y-118815000D03*
X154400000Y-118815000D03*
D22*
X153750000Y-118815000D03*
X152750000Y-118815000D03*
X151250000Y-118815000D03*
X150250000Y-118815000D03*
D21*
X149600000Y-118815000D03*
X148800000Y-118815000D03*
D23*
X147680000Y-119455000D03*
D24*
X147680000Y-123635000D03*
D23*
X156320000Y-119455000D03*
D24*
X156320000Y-123635000D03*
%TD*%
D25*
%TO.C,Q3*%
X124979999Y-111850000D03*
X124979999Y-109950000D03*
X123100000Y-110900000D03*
%TD*%
D26*
%TO.C,R12*%
X125025000Y-104800000D03*
X123375000Y-104800000D03*
%TD*%
%TO.C,R7*%
X150025000Y-115400000D03*
X148375000Y-115400000D03*
%TD*%
D10*
%TO.C,R15*%
X122745000Y-113510000D03*
X124395000Y-113510000D03*
%TD*%
D27*
%TO.C,C5*%
X177700000Y-105925000D03*
X177700000Y-107475000D03*
%TD*%
D28*
%TO.C,C1*%
X179399999Y-104274999D03*
X179399999Y-102724999D03*
%TD*%
D29*
%TO.C,C15*%
X122795000Y-115105001D03*
X124345000Y-115105001D03*
%TD*%
D11*
%TO.C,R11*%
X125900000Y-115125000D03*
X125900000Y-113475000D03*
%TD*%
D30*
%TO.C,R20*%
X155551201Y-93380800D03*
X156571199Y-93380800D03*
%TD*%
D31*
%TO.C,D1*%
X176087502Y-105899999D03*
X174512500Y-105899999D03*
%TD*%
D11*
%TO.C,R1*%
X176199999Y-104325000D03*
X176199999Y-102675000D03*
%TD*%
D32*
%TO.C,J7*%
X152979999Y-86820002D03*
D19*
X155519999Y-86820002D03*
%TD*%
D33*
%TO.C,IC1*%
X172737500Y-105849999D03*
X172737500Y-104900000D03*
X172737500Y-103950001D03*
X170462500Y-103950001D03*
X170462500Y-105849999D03*
%TD*%
D27*
%TO.C,C14*%
X125900000Y-100625000D03*
X125900000Y-102175000D03*
%TD*%
%TO.C,C4*%
X179400000Y-105925000D03*
X179400000Y-107475000D03*
%TD*%
D32*
%TO.C,J10*%
X159119999Y-86800002D03*
D19*
X161659999Y-86800002D03*
%TD*%
D27*
%TO.C,C13*%
X124350000Y-118230001D03*
X124350000Y-119780001D03*
%TD*%
D11*
%TO.C,R21*%
X178950000Y-118450000D03*
X178950000Y-116800000D03*
%TD*%
D34*
%TO.C,SW1*%
X119400000Y-110749998D03*
X119400000Y-115200000D03*
%TD*%
D29*
%TO.C,C3*%
X170825000Y-102400000D03*
X172375000Y-102400000D03*
%TD*%
D35*
%TO.C,R23*%
X158675000Y-112600000D03*
X161600000Y-112600000D03*
%TD*%
D32*
%TO.C,J14*%
X140560000Y-79900000D03*
D19*
X143100000Y-79900000D03*
%TD*%
D36*
%TO.C,R17*%
X163512500Y-114490001D03*
X163512500Y-115509999D03*
%TD*%
D32*
%TO.C,J6*%
X146799999Y-86800000D03*
D19*
X149339999Y-86800000D03*
%TD*%
D37*
%TO.C,Q1*%
X123160000Y-106450000D03*
X123160000Y-108350000D03*
X125039999Y-107400000D03*
%TD*%
D30*
%TO.C,R8*%
X156295001Y-105460000D03*
X157314999Y-105460000D03*
%TD*%
D14*
%TO.C,J19*%
X132810000Y-89800000D03*
D15*
X135350000Y-89800000D03*
X132810000Y-87260000D03*
X135350000Y-87260000D03*
X132810000Y-84720001D03*
X135350000Y-84720000D03*
%TD*%
D32*
%TO.C,J18*%
X169510000Y-121717501D03*
D19*
X172050000Y-121717501D03*
%TD*%
D32*
%TO.C,J15*%
X140559999Y-86799999D03*
D19*
X143099999Y-86799999D03*
%TD*%
D16*
%TO.C,C7*%
X179375000Y-110600000D03*
X177825000Y-110600000D03*
%TD*%
D11*
%TO.C,R4*%
X151450001Y-111225000D03*
X151450001Y-109575000D03*
%TD*%
D32*
%TO.C,J12*%
X165329998Y-86800001D03*
D19*
X167869998Y-86800001D03*
%TD*%
D32*
%TO.C,J13*%
X171529999Y-86800002D03*
D19*
X174069999Y-86800002D03*
%TD*%
D14*
%TO.C,J5*%
X153200000Y-95560000D03*
D15*
X150660000Y-95560000D03*
X153200000Y-98100000D03*
X150660000Y-98100000D03*
%TD*%
D36*
%TO.C,R18*%
X163512500Y-116390001D03*
X163512500Y-117409999D03*
%TD*%
D38*
%TO.C,U2*%
X151500002Y-115237500D03*
X152450001Y-115237500D03*
X153400000Y-115237500D03*
X153400000Y-112962500D03*
X152450001Y-112962500D03*
X151500002Y-112962500D03*
%TD*%
D28*
%TO.C,C16*%
X180562500Y-115312501D03*
X180562500Y-113762501D03*
%TD*%
D39*
%TO.C,U3*%
X150650001Y-105970001D03*
X151150001Y-105970001D03*
X151650001Y-105970001D03*
X152150001Y-105970002D03*
X152650001Y-105970001D03*
X153150001Y-105970001D03*
X153650001Y-105970001D03*
D40*
X154600001Y-105020001D03*
X154600001Y-104520001D03*
X154600001Y-104020001D03*
X154600002Y-103520001D03*
X154600001Y-103020001D03*
X154600001Y-102520001D03*
X154600001Y-102020001D03*
D39*
X153650001Y-101070001D03*
X153150001Y-101070001D03*
X152650001Y-101070001D03*
X152150001Y-101070000D03*
X151650001Y-101070001D03*
X151150001Y-101070001D03*
X150650001Y-101070001D03*
D40*
X149700001Y-102020001D03*
X149700001Y-102520001D03*
X149700001Y-103020001D03*
X149700000Y-103520001D03*
X149700001Y-104020001D03*
X149700001Y-104520001D03*
X149700001Y-105020001D03*
D41*
X152150001Y-103520001D03*
%TD*%
D42*
%TO.C,L1*%
X173800000Y-107850000D03*
X173800000Y-110550000D03*
%TD*%
D34*
%TO.C,SW2*%
X119400000Y-107499999D03*
X119400000Y-103049997D03*
%TD*%
D17*
%TO.C,R22*%
X177350000Y-116812501D03*
X177350000Y-118462501D03*
%TD*%
D43*
%TO.C,U4*%
X127845000Y-101495000D03*
X127845000Y-102765000D03*
X127845000Y-104035000D03*
X127845000Y-105305000D03*
X127845000Y-106575000D03*
X127845000Y-107845000D03*
X127845000Y-109115000D03*
X127845000Y-110385000D03*
X127845000Y-111655000D03*
X127845000Y-112925000D03*
X127845000Y-114195000D03*
X127845000Y-115465000D03*
X127845000Y-116735000D03*
X127845000Y-118005000D03*
D44*
X130880000Y-119100000D03*
X132150000Y-119100000D03*
X133420000Y-119099999D03*
X134690000Y-119100000D03*
X135960000Y-119100000D03*
X137230000Y-119100000D03*
X138500000Y-119100000D03*
X139770000Y-119099999D03*
X141040000Y-119100000D03*
X142310000Y-119100000D03*
D43*
X145345000Y-118005000D03*
X145345000Y-116735000D03*
X145345000Y-115465000D03*
X145345000Y-114195000D03*
X145345000Y-112925000D03*
X145345000Y-111655000D03*
X145345000Y-110385000D03*
X145345000Y-109115000D03*
X145345000Y-107845000D03*
X145345000Y-106575000D03*
X145345000Y-105305000D03*
X145345000Y-104035000D03*
X145345000Y-102765000D03*
X145345000Y-101495000D03*
D45*
X133695000Y-108360000D03*
X133695000Y-109760000D03*
X134395000Y-107660000D03*
X134395000Y-109060000D03*
X134395000Y-110460000D03*
X135095000Y-108360000D03*
D46*
X135095000Y-109060000D03*
D45*
X135095000Y-109760000D03*
X135795000Y-107660000D03*
X135795000Y-109060000D03*
X135795000Y-110460000D03*
X136495000Y-108360000D03*
X136495000Y-109760000D03*
%TD*%
D26*
%TO.C,R13*%
X124395000Y-116670000D03*
X122745000Y-116670000D03*
%TD*%
D13*
%TO.C,R19*%
X148071199Y-93380800D03*
X147051201Y-93380800D03*
%TD*%
D10*
%TO.C,R6*%
X154900000Y-115400000D03*
X156550000Y-115400000D03*
%TD*%
D32*
%TO.C,J9*%
X159119999Y-79920002D03*
D19*
X161659999Y-79920002D03*
%TD*%
D32*
%TO.C,J11*%
X165329999Y-79900002D03*
D19*
X167869999Y-79900002D03*
%TD*%
D12*
%TO.C,D2*%
X178950000Y-115312501D03*
X178950000Y-113737499D03*
%TD*%
D17*
%TO.C,C12*%
X155050001Y-107520001D03*
X155050001Y-109170001D03*
%TD*%
D26*
%TO.C,R14*%
X124325000Y-100900000D03*
X122675000Y-100900000D03*
%TD*%
D47*
%TO.C,U1*%
X186200000Y-104350000D03*
X183900000Y-104350001D03*
D48*
X183900000Y-110649999D03*
D47*
X181600000Y-104350000D03*
%TD*%
D17*
%TO.C,R3*%
X159900000Y-122175000D03*
X159900000Y-123825000D03*
%TD*%
D32*
%TO.C,J16*%
X146769999Y-79900001D03*
D19*
X149309999Y-79900001D03*
%TD*%
D11*
%TO.C,C10*%
X160110000Y-106295000D03*
X160110000Y-104645000D03*
%TD*%
D10*
%TO.C,R10*%
X158175000Y-107800000D03*
X159825000Y-107800000D03*
%TD*%
D32*
%TO.C,J8*%
X152979999Y-79920002D03*
D19*
X155519999Y-79920002D03*
%TD*%
D49*
%TO.C,J17*%
X165799999Y-113730000D03*
X165800000Y-115000000D03*
X165800000Y-116270000D03*
X165799999Y-117540000D03*
X174100001Y-117540000D03*
X174100000Y-116270000D03*
X174100000Y-115000000D03*
X174100001Y-113730000D03*
D50*
X169950000Y-115635000D03*
%TD*%
D27*
%TO.C,C2*%
X177800001Y-102725000D03*
X177800001Y-104275000D03*
%TD*%
D17*
%TO.C,C11*%
X156545002Y-107520001D03*
X156545002Y-109170001D03*
%TD*%
M02*
