M48
; DRILL file {KiCad 9.0.2-9.0.2-0~ubuntu24.04.1} date 2025-07-19T23:39:05+0200
; FORMAT={-:-/ absolute / inch / decimal}
; #@! TF.CreationDate,2025-07-19T23:39:05+02:00
; #@! TF.GenerationSoftware,Kicad,Pcbnew,9.0.2-9.0.2-0~ubuntu24.04.1
; #@! TF.FileFunction,Plated,1,2,PTH
FMAT,2
INCH
; #@! TA.AperFunction,Plated,PTH,ComponentDrill
T1C0.0079
; #@! TA.AperFunction,Plated,PTH,ViaDrill
T2C0.0138
; #@! TA.AperFunction,Plated,PTH,ComponentDrill
T3C0.0236
; #@! TA.AperFunction,Plated,PTH,ComponentDrill
T4C0.0295
; #@! TA.AperFunction,Plated,PTH,ComponentDrill
T5C0.0394
%
G90
G05
T1
X5.3193Y-3.5209
X5.3193Y-3.576
X5.3469Y-3.4933
X5.3469Y-3.5485
X5.3469Y-3.6036
X5.3745Y-3.5209
X5.3745Y-3.576
X5.402Y-3.4933
X5.402Y-3.5485
X5.402Y-3.6036
X5.4296Y-3.5209
X5.4296Y-3.576
T2
X2.7488Y-4.3733
X2.7488Y-4.4733
X2.7488Y-4.5733
X2.7488Y-4.6733
X2.7488Y-4.7733
X2.7488Y-4.8733
X2.7488Y-4.9733
X2.7488Y-5.0733
X2.7488Y-5.1733
X2.7488Y-5.2733
X2.8488Y-4.2733
X2.8488Y-4.4733
X2.8488Y-4.5733
X2.8488Y-4.6733
X2.8488Y-4.7733
X2.8488Y-4.8733
X2.8488Y-4.9733
X2.8488Y-5.0733
X2.8488Y-5.1733
X2.8488Y-5.2733
X2.8488Y-5.3733
X2.9488Y-4.1733
X2.9488Y-4.3733
X2.9488Y-4.4733
X2.9488Y-4.5733
X2.9488Y-4.6733
X2.9488Y-4.7733
X2.9488Y-4.8733
X2.9488Y-4.9733
X2.9488Y-5.0733
X2.9488Y-5.1733
X2.9488Y-5.2733
X2.9488Y-5.3733
X2.9488Y-5.4733
X3.0488Y-4.1733
X3.0488Y-4.3733
X3.0488Y-4.4733
X3.0488Y-4.5733
X3.0488Y-4.6733
X3.0488Y-4.7733
X3.0488Y-4.8733
X3.0488Y-4.9733
X3.0488Y-5.0733
X3.0488Y-5.1733
X3.0488Y-5.2733
X3.0488Y-5.3733
X3.0488Y-5.4733
X3.0488Y-5.5733
X3.1488Y-4.1733
X3.1488Y-4.3733
X3.1488Y-4.4733
X3.1488Y-4.5733
X3.1488Y-4.6733
X3.1488Y-4.7733
X3.1488Y-4.8733
X3.1488Y-4.9733
X3.1488Y-5.0733
X3.1488Y-5.1733
X3.1488Y-5.2733
X3.1488Y-5.3733
X3.1488Y-5.4733
X3.1488Y-5.5733
X3.2488Y-4.1733
X3.2488Y-4.3733
X3.2488Y-4.4733
X3.2488Y-4.5733
X3.2488Y-4.6733
X3.2488Y-4.7733
X3.2488Y-4.8733
X3.2488Y-4.9733
X3.2488Y-5.0733
X3.2488Y-5.1733
X3.2488Y-5.2733
X3.2488Y-5.3733
X3.2488Y-5.4733
X3.2488Y-5.5733
X3.3488Y-4.1733
X3.3488Y-4.3733
X3.3488Y-4.8733
X3.3488Y-4.9733
X3.3488Y-5.0733
X3.3488Y-5.1733
X3.3488Y-5.2733
X3.3488Y-5.3733
X3.3488Y-5.4733
X3.3488Y-5.5733
X3.3488Y-5.6733
X3.4488Y-4.3733
X3.4488Y-4.4733
X3.4488Y-4.5733
X3.4488Y-4.6733
X3.4488Y-4.9733
X3.4488Y-5.0733
X3.4488Y-5.1733
X3.4488Y-5.2733
X3.4488Y-5.3733
X3.4488Y-5.5733
X3.4488Y-5.6733
X3.5488Y-4.1733
X3.5488Y-4.3733
X3.5488Y-4.4733
X3.5488Y-4.5733
X3.5488Y-4.6733
X3.5488Y-4.7733
X3.5488Y-4.8733
X3.5488Y-4.9733
X3.5488Y-5.0733
X3.5488Y-5.1733
X3.5488Y-5.2733
X3.5488Y-5.3733
X3.5488Y-5.4733
X3.5488Y-5.5733
X3.5488Y-5.6733
X3.6488Y-4.3733
X3.6488Y-4.4733
X3.6488Y-4.5733
X3.6488Y-4.6733
X3.6488Y-4.9733
X3.6488Y-5.0733
X3.6488Y-5.1733
X3.6488Y-5.2733
X3.6488Y-5.3733
X3.6488Y-5.5733
X3.6488Y-5.6733
X3.7488Y-4.1733
X3.7488Y-4.3733
X3.7488Y-4.4733
X3.7488Y-4.5733
X3.7488Y-4.6733
X3.7488Y-4.7733
X3.7488Y-4.8733
X3.7488Y-4.9733
X3.7488Y-5.0733
X3.7488Y-5.1733
X3.7488Y-5.2733
X3.7488Y-5.3733
X3.7488Y-5.4733
X3.7488Y-5.5733
X3.7488Y-5.6733
X3.8488Y-4.1733
X3.8488Y-4.3733
X3.8488Y-4.4733
X3.8488Y-4.5733
X3.8488Y-4.6733
X3.8488Y-4.7733
X3.8488Y-4.8733
X3.8488Y-4.9733
X3.8488Y-5.0733
X3.8488Y-5.1733
X3.8488Y-5.2733
X3.8488Y-5.3733
X3.8488Y-5.4733
X3.8488Y-5.5733
X3.8488Y-5.6733
X3.9488Y-4.1733
X3.9488Y-4.5733
X3.9488Y-4.6733
X3.9488Y-4.7733
X3.9488Y-4.8733
X3.9488Y-4.9733
X3.9488Y-5.0733
X3.9488Y-5.1733
X3.9488Y-5.2733
X3.9488Y-5.5733
X4.0488Y-4.1733
X4.0488Y-4.4733
X4.0488Y-4.5733
X4.0488Y-4.6733
X4.0488Y-4.7733
X4.0488Y-4.8733
X4.0488Y-4.9733
X4.0488Y-5.0733
X4.0488Y-5.1733
X4.0488Y-5.2733
X4.0488Y-5.5733
X4.1488Y-4.1733
X4.1488Y-4.3733
X4.1488Y-4.5733
X4.1488Y-4.6733
X4.1488Y-4.7733
X4.1488Y-4.8733
X4.1488Y-4.9733
X4.1488Y-5.0733
X4.1488Y-5.1733
X4.1488Y-5.2733
X4.1488Y-5.3733
X4.1488Y-5.4733
X4.1488Y-5.5733
X4.2488Y-4.1733
X4.2488Y-4.6733
X4.2488Y-4.7733
X4.2488Y-4.8733
X4.2488Y-4.9733
X4.2488Y-5.1733
X4.2488Y-5.2733
X4.2488Y-5.3733
X4.2488Y-5.4733
X4.3488Y-4.1733
X4.3488Y-4.3733
X4.3488Y-4.4733
X4.3488Y-4.5733
X4.3488Y-4.6733
X4.3488Y-4.7733
X4.3488Y-4.8733
X4.3488Y-4.9733
X4.3488Y-5.0733
X4.3488Y-5.1733
X4.3488Y-5.2733
X4.3488Y-5.3733
X4.3488Y-5.4733
X4.4488Y-4.1733
X4.4488Y-4.3733
X4.4488Y-4.4733
X4.4488Y-4.5733
X4.4488Y-4.6733
X4.4488Y-4.7733
X4.4488Y-4.8733
X4.4488Y-4.9733
X4.4488Y-5.0733
X4.4488Y-5.1733
X4.4488Y-5.2733
X4.4488Y-5.3733
X4.5488Y-4.1733
X4.5488Y-4.3733
X4.5488Y-4.4733
X4.5488Y-4.5733
X4.5488Y-4.6733
X4.5488Y-4.7733
X4.5488Y-4.8733
X4.5488Y-4.9733
X4.5488Y-5.0733
X4.5488Y-5.1733
X4.5488Y-5.2733
X4.6488Y-4.1733
X4.6488Y-4.3733
X4.6488Y-4.4733
X4.6488Y-4.5733
X4.6488Y-4.6733
X4.6488Y-4.7733
X4.6488Y-4.8733
X4.6488Y-4.9733
X4.6488Y-5.0733
X4.6488Y-5.1733
X4.6488Y-5.2733
X4.7488Y-4.1733
X4.7488Y-4.5733
X4.7488Y-4.6733
X4.7488Y-4.7733
X4.7488Y-4.8733
X4.7488Y-5.1733
X4.8488Y-4.4733
X4.8488Y-4.5733
X4.8488Y-4.6733
X4.8488Y-4.7733
X4.8488Y-4.8733
X4.8488Y-4.9733
X4.8488Y-5.0733
X4.9237Y-3.8477
X4.9308Y-3.7465
X4.9339Y-3.5981
X4.9488Y-4.5733
X4.9488Y-4.6733
X4.9488Y-4.7733
X4.9488Y-4.8733
X4.9815Y-2.9429
X4.9827Y-2.9146
X5.016Y-3.2963
X5.0199Y-3.3422
X5.0199Y-3.3963
X5.0199Y-3.4463
X5.0213Y-3.25
X5.0221Y-3.0406
X5.0441Y-3.0091
X5.0488Y-4.4733
X5.0488Y-4.5733
X5.0488Y-4.6733
X5.0488Y-4.7733
X5.0488Y-4.8733
X5.0488Y-4.9733
X5.0772Y-2.8398
X5.0788Y-3.0116
X5.0804Y-2.8044
X5.1062Y-3.0082
X5.1304Y-3.2059
X5.1323Y-2.8044
X5.1323Y-2.8359
X5.1323Y-3.017
X5.1402Y-3.3162
X5.1488Y-4.4733
X5.1488Y-4.5733
X5.1488Y-4.6733
X5.1488Y-4.7733
X5.1488Y-4.8733
X5.1488Y-4.9733
X5.1717Y-3.3398
X5.1874Y-2.8359
X5.1882Y-2.804
X5.1953Y-3.0166
X5.2056Y-3.4878
X5.213Y-3.7276
X5.2465Y-3.013
X5.2488Y-4.4733
X5.2488Y-4.5733
X5.2488Y-4.6733
X5.2488Y-4.7733
X5.2488Y-4.8733
X5.3075Y-2.887
X5.3351Y-2.8595
X5.3488Y-4.4733
X5.3488Y-4.5733
X5.3488Y-4.8733
X5.4355Y-3.2963
X5.4488Y-4.4733
X5.4488Y-4.5733
X5.4488Y-4.6733
X5.4488Y-4.7733
X5.5378Y-3.1981
X5.5488Y-4.4733
X5.5488Y-4.5733
X5.6087Y-4.2177
X5.6178Y-3.8465
X5.6488Y-4.4733
X5.6488Y-4.5733
X5.6488Y-4.6733
X5.6488Y-4.7733
X5.6874Y-4.0681
X5.6914Y-4.2536
X5.6926Y-4.1603
X5.7032Y-4.3437
X5.713Y-3.4477
X5.7374Y-3.4201
X5.7488Y-4.4733
X5.7488Y-4.5733
X5.7488Y-4.6733
X5.7658Y-3.3965
X5.7682Y-4.3398
X5.7705Y-3.3622
X5.778Y-4.0764
X5.7859Y-4.1603
X5.7859Y-4.2544
X5.7906Y-4.4733
X5.7973Y-3.3363
X5.8016Y-3.8319
X5.8292Y-4.3162
X5.8296Y-3.8941
X5.83Y-3.3063
X5.8488Y-4.4733
X5.867Y-3.2492
X5.8674Y-3.2792
X5.8697Y-4.2268
X5.904Y-4.4697
X5.9276Y-4.0969
X5.9438Y-4.4607
X5.9438Y-4.4883
X5.9488Y-4.6733
X6.0187Y-4.4318
X6.026Y-4.1587
X6.0488Y-4.6733
X6.0497Y-4.0288
X6.0556Y-4.2548
X6.0556Y-4.3453
X6.0863Y-4.2237
X6.0879Y-4.4332
X6.1048Y-4.6099
X6.1071Y-4.6677
X6.1126Y-3.7807
X6.1249Y-4.1618
X6.1328Y-4.4568
X6.1328Y-4.4843
X6.1446Y-4.256
X6.1638Y-2.7768
X6.1796Y-4.4697
X6.2189Y-4.2851
X6.2488Y-4.6733
X6.3115Y-4.0406
X6.3165Y-3.5001
X6.3371Y-3.8886
X6.3469Y-3.9489
X6.3488Y-4.4733
X6.3488Y-4.5733
X6.3488Y-4.6733
X6.3488Y-4.7733
X6.3489Y-4.0681
X6.3834Y-3.5159
X6.3834Y-3.5749
X6.3834Y-3.6064
X6.3835Y-3.5449
X6.3991Y-3.7442
X6.4138Y-3.9855
X6.4256Y-3.8122
X6.4256Y-3.9225
X6.426Y-3.4852
X6.4267Y-3.3348
X6.4267Y-3.3702
X6.4267Y-3.4096
X6.4267Y-3.4489
X6.4488Y-4.4733
X6.4488Y-4.5733
X6.4488Y-4.6733
X6.4488Y-4.7733
X6.4847Y-3.7453
X6.5015Y-3.5395
X6.5015Y-3.6418
X6.5457Y-3.9166
X6.5488Y-4.4733
X6.5488Y-4.5733
X6.6153Y-3.6403
X6.6235Y-3.9056
X6.6235Y-3.9371
X6.6472Y-3.6411
X6.6488Y-4.4733
X6.6488Y-4.5733
X6.6488Y-4.6733
X6.6488Y-4.7733
X6.6531Y-3.721
X6.655Y-3.9371
X6.656Y-2.9776
X6.656Y-3.017
X6.656Y-3.0563
X6.656Y-3.1351
X6.656Y-3.0956
X6.659Y-3.9056
X6.681Y-3.6411
X6.6826Y-3.9647
X6.6857Y-3.7202
X6.7062Y-3.8741
X6.7334Y-3.682
X6.7377Y-3.8466
X6.7417Y-3.9647
X6.7488Y-4.4733
X6.7488Y-4.5733
X6.7488Y-4.8733
X6.7574Y-3.3456
X6.7613Y-3.381
X6.8125Y-3.5316
X6.8488Y-4.4733
X6.8488Y-4.5733
X6.8488Y-4.6733
X6.8488Y-4.7733
X6.8488Y-4.8733
X6.8507Y-3.3911
X6.8515Y-3.9316
X6.8519Y-3.3308
X6.8519Y-3.3623
X6.8527Y-3.9033
X6.8637Y-3.4726
X6.8802Y-3.9025
X6.8806Y-3.9328
X6.8834Y-3.3308
X6.8834Y-3.3623
X6.8834Y-3.3899
X6.8834Y-3.5395
X6.8834Y-3.567
X6.8834Y-3.5985
X6.8873Y-3.7481
X6.8873Y-3.819
X6.8905Y-3.634
X6.8991Y-3.2363
X6.9119Y-4.0406
X6.9149Y-3.3308
X6.9149Y-3.3623
X6.9149Y-3.3899
X6.9188Y-3.7836
X6.9188Y-3.7836
X6.9188Y-3.8938
X6.9267Y-3.6025
X6.9315Y-3.0234
X6.9315Y-2.9382
X6.9315Y-2.9776
X6.9488Y-4.1733
X6.9488Y-4.3733
X6.9488Y-4.4733
X6.9488Y-4.5733
X6.9488Y-4.6733
X6.9488Y-4.7733
X6.9488Y-4.8733
X6.9488Y-4.9733
X6.9503Y-3.7481
X6.9512Y-4.0406
X6.9543Y-3.819
X6.9671Y-3.5464
X6.9906Y-4.0406
X6.9936Y-3.382
X6.9976Y-3.2993
X7.03Y-4.0406
X7.0409Y-3.2521
X7.0487Y-3.7096
X7.0488Y-4.1733
X7.0488Y-4.3733
X7.0488Y-4.4733
X7.0488Y-4.5733
X7.0488Y-4.6733
X7.0488Y-4.7733
X7.0488Y-4.8733
X7.0488Y-4.9733
X7.0566Y-3.3899
X7.0645Y-3.5237
X7.0693Y-4.0406
X7.0881Y-3.4371
X7.0969Y-3.7138
X7.1087Y-4.0406
X7.1323Y-3.7138
X7.1481Y-4.0406
X7.1488Y-4.1733
X7.1488Y-4.5733
X7.1488Y-4.6733
X7.1488Y-4.7733
X7.1488Y-4.8733
X7.1638Y-3.7138
X7.2488Y-4.1733
X7.2488Y-4.3733
X7.2488Y-4.4733
X7.2488Y-4.5733
X7.2488Y-4.6733
X7.2488Y-4.7733
X7.2488Y-4.8733
X7.2488Y-4.9733
X7.2488Y-5.0733
X7.2488Y-5.1733
X7.3488Y-4.1733
X7.3488Y-4.5733
X7.3488Y-4.6733
X7.3488Y-4.7733
X7.3488Y-4.8733
X7.3488Y-5.1733
X7.4488Y-4.1733
X7.4488Y-4.3733
X7.4488Y-4.4733
X7.4488Y-4.5733
X7.4488Y-4.6733
X7.4488Y-4.7733
X7.4488Y-4.8733
X7.4488Y-4.9733
X7.4488Y-5.0733
X7.4488Y-5.1733
X7.4488Y-5.2733
X7.5488Y-4.1733
X7.5488Y-4.3733
X7.5488Y-4.4733
X7.5488Y-4.5733
X7.5488Y-4.6733
X7.5488Y-4.7733
X7.5488Y-4.8733
X7.5488Y-4.9733
X7.5488Y-5.0733
X7.5488Y-5.1733
X7.5488Y-5.2733
X7.5488Y-5.3733
X7.6488Y-4.1733
X7.6488Y-4.3733
X7.6488Y-4.4733
X7.6488Y-4.5733
X7.6488Y-4.6733
X7.6488Y-4.7733
X7.6488Y-4.8733
X7.6488Y-4.9733
X7.6488Y-5.0733
X7.6488Y-5.1733
X7.6488Y-5.2733
X7.6488Y-5.3733
X7.7488Y-4.1733
X7.7488Y-4.6733
X7.7488Y-4.7733
X7.7488Y-4.8733
X7.7488Y-4.9733
X7.7488Y-5.2733
X7.7488Y-5.3733
X7.7488Y-5.4733
X7.8488Y-4.1733
X7.8488Y-4.3733
X7.8488Y-4.4733
X7.8488Y-4.5733
X7.8488Y-4.6733
X7.8488Y-4.7733
X7.8488Y-4.8733
X7.8488Y-4.9733
X7.8488Y-5.0733
X7.8488Y-5.1733
X7.8488Y-5.2733
X7.8488Y-5.3733
X7.8488Y-5.4733
X7.9488Y-4.1733
X7.9488Y-4.3733
X7.9488Y-4.6733
X7.9488Y-4.7733
X7.9488Y-4.8733
X7.9488Y-4.9733
X7.9488Y-5.2733
X7.9488Y-5.4733
X7.9488Y-5.5733
X8.0488Y-4.1733
X8.0488Y-4.4733
X8.0488Y-4.5733
X8.0488Y-4.6733
X8.0488Y-4.7733
X8.0488Y-4.8733
X8.0488Y-4.9733
X8.0488Y-5.0733
X8.0488Y-5.1733
X8.0488Y-5.2733
X8.0488Y-5.5733
X8.1488Y-4.1733
X8.1488Y-4.4733
X8.1488Y-4.5733
X8.1488Y-4.6733
X8.1488Y-4.7733
X8.1488Y-4.8733
X8.1488Y-4.9733
X8.1488Y-5.0733
X8.1488Y-5.1733
X8.1488Y-5.2733
X8.1488Y-5.3733
X8.1488Y-5.4733
X8.1488Y-5.5733
X8.1488Y-5.6733
X8.2488Y-4.1733
X8.2488Y-4.8733
X8.2488Y-4.9733
X8.2488Y-5.0733
X8.2488Y-5.1733
X8.2488Y-5.2733
X8.2488Y-5.3733
X8.2488Y-5.4733
X8.2488Y-5.5733
X8.2488Y-5.6733
X8.3488Y-4.1733
X8.3488Y-4.3733
X8.3488Y-4.4733
X8.3488Y-4.5733
X8.3488Y-4.6733
X8.3488Y-4.7733
X8.3488Y-4.9733
X8.3488Y-5.0733
X8.3488Y-5.1733
X8.3488Y-5.2733
X8.3488Y-5.3733
X8.3488Y-5.4733
X8.3488Y-5.5733
X8.3488Y-5.6733
X8.4488Y-4.3733
X8.4488Y-4.4733
X8.4488Y-4.5733
X8.4488Y-4.6733
X8.4488Y-4.9733
X8.4488Y-5.0733
X8.4488Y-5.1733
X8.4488Y-5.2733
X8.4488Y-5.3733
X8.4488Y-5.5733
X8.4488Y-5.6733
X8.5488Y-4.1733
X8.5488Y-4.3733
X8.5488Y-4.4733
X8.5488Y-4.5733
X8.5488Y-4.6733
X8.5488Y-4.7733
X8.5488Y-4.8733
X8.5488Y-4.9733
X8.5488Y-5.0733
X8.5488Y-5.1733
X8.5488Y-5.2733
X8.5488Y-5.3733
X8.5488Y-5.4733
X8.5488Y-5.5733
X8.5488Y-5.6733
X8.6488Y-4.3733
X8.6488Y-4.4733
X8.6488Y-4.5733
X8.6488Y-4.6733
X8.6488Y-4.9733
X8.6488Y-5.0733
X8.6488Y-5.1733
X8.6488Y-5.2733
X8.6488Y-5.3733
X8.6488Y-5.5733
X8.6488Y-5.6733
X8.7488Y-4.1733
X8.7488Y-4.3733
X8.7488Y-4.4733
X8.7488Y-4.5733
X8.7488Y-4.6733
X8.7488Y-4.7733
X8.7488Y-4.8733
X8.7488Y-4.9733
X8.7488Y-5.0733
X8.7488Y-5.1733
X8.7488Y-5.2733
X8.7488Y-5.3733
X8.7488Y-5.4733
X8.7488Y-5.5733
X8.7488Y-5.6733
X8.8488Y-4.1733
X8.8488Y-4.3733
X8.8488Y-4.4733
X8.8488Y-4.5733
X8.8488Y-4.6733
X8.8488Y-4.7733
X8.8488Y-4.8733
X8.8488Y-4.9733
X8.8488Y-5.0733
X8.8488Y-5.1733
X8.8488Y-5.2733
X8.8488Y-5.3733
X8.8488Y-5.4733
X8.8488Y-5.5733
X8.9488Y-4.1733
X8.9488Y-4.2733
X8.9488Y-4.4733
X8.9488Y-4.5733
X8.9488Y-4.6733
X8.9488Y-4.7733
X8.9488Y-4.8733
X8.9488Y-4.9733
X8.9488Y-5.0733
X8.9488Y-5.1733
X8.9488Y-5.2733
X8.9488Y-5.3733
X8.9488Y-5.4733
X8.9488Y-5.5733
X9.0488Y-4.1733
X9.0488Y-4.2733
X9.0488Y-4.3733
X9.0488Y-4.6733
X9.0488Y-4.7733
X9.0488Y-4.8733
X9.0488Y-4.9733
X9.0488Y-5.2733
X9.0488Y-5.3733
X9.0488Y-5.4733
X9.1488Y-4.1733
X9.1488Y-4.2733
X9.1488Y-4.3733
X9.1488Y-4.4733
X9.1488Y-4.5733
X9.1488Y-4.6733
X9.1488Y-4.7733
X9.1488Y-4.8733
X9.1488Y-4.9733
X9.1488Y-5.0733
X9.1488Y-5.1733
X9.1488Y-5.2733
X9.1488Y-5.3733
X9.1488Y-5.4733
X9.2488Y-4.3733
X9.2488Y-4.6733
X9.2488Y-4.7733
X9.2488Y-4.8733
X9.2488Y-4.9733
X9.2488Y-5.2733
X9.2488Y-5.3733
X9.3488Y-4.2733
X9.3488Y-4.3733
X9.3488Y-4.4733
X9.3488Y-4.5733
X9.3488Y-4.6733
X9.3488Y-4.7733
X9.3488Y-4.8733
X9.3488Y-4.9733
X9.3488Y-5.0733
T4
X4.9768Y-2.5918
X5.0556Y-2.5918
X5.1343Y-2.5918
X5.213Y-2.5918
X5.2918Y-2.5918
X5.3705Y-2.5918
X5.4493Y-2.5918
X5.528Y-2.5918
X5.6067Y-2.5918
X5.6855Y-2.5918
X5.7642Y-2.5918
X5.7642Y-2.8614
X5.843Y-2.5918
X5.843Y-2.8614
X5.9217Y-2.8614
X6.0004Y-2.8614
X6.0556Y-2.5878
X6.0792Y-2.8614
X6.1343Y-2.5878
X6.1579Y-2.8614
X6.213Y-2.5878
X6.2918Y-2.5878
X6.3705Y-2.5878
X6.4493Y-2.5878
X6.6855Y-2.5878
X6.7642Y-2.5878
X6.7721Y-2.891
X6.843Y-2.5878
X6.8508Y-2.891
X6.9217Y-2.5878
X7.0004Y-2.5878
X7.0792Y-2.5878
T5
X5.4839Y-2.8307
X5.4839Y-2.9307
X5.5839Y-2.8307
X5.5839Y-2.9307
X7.028Y-2.8294
X7.028Y-2.9294
T3
G00X5.8658Y-4.5305
M15
G01X5.8658Y-4.5739
M16
G05
G00X5.8658Y-4.705
M15
G01X5.8658Y-4.7286
M16
G05
G00X6.206Y-4.5305
M15
G01X6.206Y-4.5739
M16
G05
G00X6.206Y-4.705
M15
G01X6.206Y-4.7286
M16
G05
M30
