%TF.GenerationSoftware,KiCad,Pcbnew,9.0.2-9.0.2-0~ubuntu24.04.1*%
%TF.CreationDate,2025-07-19T23:39:05+02:00*%
%TF.ProjectId,Pilot6Axis_v2,50696c6f-7436-4417-9869-735f76322e6b,rev?*%
%TF.SameCoordinates,Original*%
%TF.FileFunction,Soldermask,Bot*%
%TF.FilePolarity,Negative*%
%FSLAX46Y46*%
G04 Gerber Fmt 4.6, Leading zero omitted, Abs format (unit mm)*
G04 Created by KiCad (PCBNEW 9.0.2-9.0.2-0~ubuntu24.04.1) date 2025-07-19 23:39:05*
%MOMM*%
%LPD*%
G01*
G04 APERTURE LIST*
G04 Aperture macros list*
%AMRoundRect*
0 Rectangle with rounded corners*
0 $1 Rounding radius*
0 $2 $3 $4 $5 $6 $7 $8 $9 X,Y pos of 4 corners*
0 Add a 4 corners polygon primitive as box body*
4,1,4,$2,$3,$4,$5,$6,$7,$8,$9,$2,$3,0*
0 Add four circle primitives for the rounded corners*
1,1,$1+$1,$2,$3*
1,1,$1+$1,$4,$5*
1,1,$1+$1,$6,$7*
1,1,$1+$1,$8,$9*
0 Add four rect primitives between the rounded corners*
20,1,$1+$1,$2,$3,$4,$5,0*
20,1,$1+$1,$4,$5,$6,$7,0*
20,1,$1+$1,$6,$7,$8,$9,0*
20,1,$1+$1,$8,$9,$2,$3,0*%
G04 Aperture macros list end*
%ADD10RoundRect,0.250000X-0.350000X-0.625000X0.350000X-0.625000X0.350000X0.625000X-0.350000X0.625000X0*%
%ADD11O,1.200000X1.750000*%
%ADD12C,0.650000*%
%ADD13O,1.000000X2.100000*%
%ADD14O,1.000000X1.600000*%
%ADD15RoundRect,0.250000X0.350000X0.625000X-0.350000X0.625000X-0.350000X-0.625000X0.350000X-0.625000X0*%
%ADD16R,1.700000X1.700000*%
%ADD17C,1.700000*%
%ADD18RoundRect,0.244000X0.244000X0.269000X-0.244000X0.269000X-0.244000X-0.269000X0.244000X-0.269000X0*%
%ADD19RoundRect,0.225000X-0.525000X1.275000X-0.525000X-1.275000X0.525000X-1.275000X0.525000X1.275000X0*%
%ADD20RoundRect,0.219000X-0.294000X0.219000X-0.294000X-0.219000X0.294000X-0.219000X0.294000X0.219000X0*%
%ADD21RoundRect,0.239000X-0.274000X0.239000X-0.274000X-0.239000X0.274000X-0.239000X0.274000X0.239000X0*%
%ADD22RoundRect,0.244000X-0.244000X-0.269000X0.244000X-0.269000X0.244000X0.269000X-0.244000X0.269000X0*%
G04 APERTURE END LIST*
D10*
%TO.C,J9*%
X169811200Y-65730800D03*
D11*
X171811200Y-65730800D03*
X173811200Y-65730800D03*
X175811200Y-65730800D03*
X177811200Y-65730800D03*
X179811200Y-65730800D03*
%TD*%
D12*
%TO.C,J3*%
X150421200Y-116125800D03*
X156201200Y-116125800D03*
D13*
X148991200Y-115625800D03*
D14*
X148991200Y-119805800D03*
D13*
X157631200Y-115625800D03*
D14*
X157631200Y-119805800D03*
%TD*%
D10*
%TO.C,J8*%
X126411200Y-65830800D03*
D11*
X128411200Y-65830800D03*
X130411200Y-65830800D03*
X132411200Y-65830800D03*
X134411200Y-65830800D03*
X136411200Y-65830800D03*
X138411200Y-65830800D03*
X140411200Y-65830800D03*
X142411200Y-65830800D03*
X144411200Y-65830800D03*
X146411200Y-65830800D03*
X148411200Y-65830800D03*
%TD*%
D15*
%TO.C,J4*%
X156411200Y-72680800D03*
D11*
X154411200Y-72680800D03*
X152411200Y-72680800D03*
X150411200Y-72680800D03*
X148411200Y-72680800D03*
X146411200Y-72680800D03*
%TD*%
D16*
%TO.C,TH1*%
X178511200Y-74405800D03*
D17*
X178511200Y-71865800D03*
%TD*%
D10*
%TO.C,J1*%
X172011200Y-73430800D03*
D11*
X174011200Y-73430800D03*
%TD*%
D10*
%TO.C,J10*%
X153811200Y-65730800D03*
D11*
X155811200Y-65730800D03*
X157811200Y-65730800D03*
X159811200Y-65730800D03*
X161811200Y-65730800D03*
X163811200Y-65730800D03*
%TD*%
D16*
%TO.C,J6*%
X141831200Y-71900800D03*
D17*
X139291200Y-71900800D03*
X141831200Y-74440800D03*
X139291200Y-74440800D03*
%TD*%
D18*
%TO.C,C28*%
X174218020Y-83702800D03*
X172658020Y-83702800D03*
%TD*%
D19*
%TO.C,U12*%
X181561200Y-112630800D03*
X181561200Y-127630800D03*
X186561200Y-112630800D03*
X186561200Y-127630800D03*
%TD*%
%TO.C,U7*%
X213561200Y-124130800D03*
X213561200Y-139130800D03*
X218561200Y-124130800D03*
X218561200Y-139130800D03*
%TD*%
D20*
%TO.C,R14*%
X151461200Y-79620800D03*
X151461200Y-81260800D03*
%TD*%
D21*
%TO.C,D5*%
X156061200Y-79850800D03*
X156061200Y-81430800D03*
%TD*%
D20*
%TO.C,R13*%
X148481200Y-79820800D03*
X148481200Y-81460800D03*
%TD*%
D21*
%TO.C,D4*%
X153061200Y-79850800D03*
X153061200Y-81430800D03*
%TD*%
D19*
%TO.C,U9*%
X87561200Y-124130800D03*
X87561200Y-139130800D03*
X92561200Y-124130800D03*
X92561200Y-139130800D03*
%TD*%
D21*
%TO.C,D7*%
X153061200Y-76440800D03*
X153061200Y-78020800D03*
%TD*%
D19*
%TO.C,U18*%
X166061200Y-105130800D03*
X166061200Y-120130800D03*
X171061200Y-105130800D03*
X171061200Y-120130800D03*
%TD*%
%TO.C,U6*%
X230061200Y-114630800D03*
X230061200Y-129630800D03*
X235061200Y-114630800D03*
X235061200Y-129630800D03*
%TD*%
D22*
%TO.C,C27*%
X172358020Y-87102800D03*
X173918020Y-87102800D03*
%TD*%
D19*
%TO.C,U10*%
X87561200Y-105630800D03*
X87561200Y-120630800D03*
X92561200Y-105630800D03*
X92561200Y-120630800D03*
%TD*%
%TO.C,U11*%
X197061200Y-114630800D03*
X197061200Y-129630800D03*
X202061200Y-114630800D03*
X202061200Y-129630800D03*
%TD*%
%TO.C,U8*%
X104061200Y-114630800D03*
X104061200Y-129630800D03*
X109061200Y-114630800D03*
X109061200Y-129630800D03*
%TD*%
D21*
%TO.C,D3*%
X150081200Y-79850800D03*
X150081200Y-81430800D03*
%TD*%
D19*
%TO.C,U15*%
X119561200Y-112630800D03*
X119561200Y-127630800D03*
X124561200Y-112630800D03*
X124561200Y-127630800D03*
%TD*%
%TO.C,U13*%
X71061200Y-114630800D03*
X71061200Y-129630800D03*
X76061200Y-114630800D03*
X76061200Y-129630800D03*
%TD*%
D21*
%TO.C,D8*%
X156061200Y-76340800D03*
X156061200Y-77920800D03*
%TD*%
D20*
%TO.C,R28*%
X154541200Y-79620800D03*
X154541200Y-81260800D03*
%TD*%
D19*
%TO.C,U16*%
X135061200Y-105130800D03*
X135061200Y-120130800D03*
X140061200Y-105130800D03*
X140061200Y-120130800D03*
%TD*%
D20*
%TO.C,R32*%
X154561200Y-76310800D03*
X154561200Y-77950800D03*
%TD*%
D21*
%TO.C,D6*%
X150061200Y-76440800D03*
X150061200Y-78020800D03*
%TD*%
D20*
%TO.C,R31*%
X151421200Y-76410800D03*
X151421200Y-78050800D03*
%TD*%
%TO.C,R30*%
X148331200Y-76310800D03*
X148331200Y-77950800D03*
%TD*%
D19*
%TO.C,U5*%
X213561200Y-105630800D03*
X213561200Y-120630800D03*
X218561200Y-105630800D03*
X218561200Y-120630800D03*
%TD*%
M02*
