%TF.GenerationSoftware,KiCad,Pcbnew,9.0.2-9.0.2-0~ubuntu24.04.1*%
%TF.CreationDate,2025-07-25T01:35:49+02:00*%
%TF.ProjectId,Pilot6Axis_v2,50696c6f-7436-4417-9869-735f76322e6b,rev?*%
%TF.SameCoordinates,Original*%
%TF.FileFunction,Profile,NP*%
%FSLAX46Y46*%
G04 Gerber Fmt 4.6, Leading zero omitted, Abs format (unit mm)*
G04 Created by KiCad (PCBNEW 9.0.2-9.0.2-0~ubuntu24.04.1) date 2025-07-25 01:35:49*
%MOMM*%
%LPD*%
G01*
G04 APERTURE LIST*
%ADD10C,0.200000*%
%TA.AperFunction,Profile*%
%ADD11C,0.200000*%
%TD*%
%TA.AperFunction,Profile*%
%ADD12C,0.100000*%
%TD*%
G04 APERTURE END LIST*
D10*
X218967274Y-145939693D02*
X218920347Y-145946876D01*
X218873389Y-145953982D01*
X218826401Y-145961013D01*
X218779383Y-145967966D01*
X218732335Y-145974844D01*
X218685257Y-145981645D01*
X218638151Y-145988369D01*
X218591014Y-145995017D01*
X218543849Y-146001588D01*
X218496655Y-146008082D01*
X218449432Y-146014500D01*
X218402181Y-146020840D01*
X218354901Y-146027104D01*
X218307593Y-146033291D01*
X218260257Y-146039401D01*
X218212893Y-146045433D01*
X218165502Y-146051389D01*
X218118083Y-146057267D01*
X218070637Y-146063069D01*
X218023164Y-146068792D01*
X217975664Y-146074439D01*
X217928137Y-146080008D01*
X217880584Y-146085500D01*
X217833005Y-146090914D01*
X217785399Y-146096251D01*
X217737768Y-146101510D01*
X217690111Y-146106692D01*
X217642428Y-146111796D01*
X217594720Y-146116822D01*
X217546987Y-146121770D01*
X217499229Y-146126641D01*
X217451446Y-146131433D01*
X217403639Y-146136148D01*
X217355808Y-146140785D01*
X217307952Y-146145344D01*
X217260072Y-146149824D01*
X217212169Y-146154227D01*
X217164242Y-146158551D01*
X217116292Y-146162797D01*
X217068319Y-146166965D01*
X217020322Y-146171055D01*
X216972304Y-146175066D01*
X216924262Y-146178999D01*
X216876198Y-146182853D01*
X216828112Y-146186629D01*
X216780005Y-146190326D01*
X216731875Y-146193945D01*
X216683724Y-146197486D01*
X216635552Y-146200947D01*
X216587359Y-146204330D01*
X216539145Y-146207634D01*
X216490911Y-146210860D01*
X216442655Y-146214006D01*
X216394380Y-146217074D01*
X216346085Y-146220063D01*
X216297770Y-146222973D01*
X216249435Y-146225804D01*
X216201081Y-146228556D01*
X216152708Y-146231229D01*
X216104316Y-146233823D01*
X216055905Y-146236338D01*
X216007476Y-146238774D01*
X215959029Y-146241130D01*
X215910563Y-146243407D01*
X215862080Y-146245606D01*
X215813579Y-146247724D01*
X215765061Y-146249764D01*
X215716525Y-146251724D01*
X215667973Y-146253605D01*
X215619404Y-146255406D01*
X215570818Y-146257128D01*
X215522216Y-146258771D01*
X215473598Y-146260334D01*
X215424965Y-146261817D01*
X215376315Y-146263221D01*
X215327650Y-146264545D01*
X215278971Y-146265790D01*
X215230276Y-146266955D01*
X215181566Y-146268041D01*
X215132842Y-146269046D01*
X215084104Y-146269972D01*
X215035352Y-146270819D01*
X214986586Y-146271585D01*
X214937807Y-146272272D01*
X214889014Y-146272879D01*
X214840208Y-146273406D01*
X214791389Y-146273853D01*
X214742558Y-146274220D01*
X214693714Y-146274508D01*
X214644858Y-146274715D01*
X214595990Y-146274843D01*
X214547111Y-146274891D01*
X214542446Y-146274891D01*
D11*
X182792445Y-91880800D02*
X182792445Y-73880800D01*
D12*
X102311200Y-111630800D02*
G75*
G02*
X98811200Y-111630800I-1750000J0D01*
G01*
X98811200Y-111630800D02*
G75*
G02*
X102311200Y-111630800I1750000J0D01*
G01*
D11*
X123292444Y-62349220D02*
X182792445Y-62349220D01*
D10*
X111522077Y-139583661D02*
X111484994Y-139606567D01*
X111447904Y-139629454D01*
X111411022Y-139652190D01*
X111374132Y-139674906D01*
X111337446Y-139697474D01*
X111300752Y-139720022D01*
X111264256Y-139742425D01*
X111227754Y-139764809D01*
X111191445Y-139787050D01*
X111155130Y-139809272D01*
X111119005Y-139831355D01*
X111082872Y-139853417D01*
X111046926Y-139875343D01*
X111010973Y-139897250D01*
X110975202Y-139919022D01*
X110939424Y-139940774D01*
X110903824Y-139962395D01*
X110868218Y-139983996D01*
X110832787Y-140005468D01*
X110797349Y-140026920D01*
X110762083Y-140048245D01*
X110726809Y-140069550D01*
X110691704Y-140090731D01*
X110656592Y-140111892D01*
X110621646Y-140132930D01*
X110586692Y-140153949D01*
X110551901Y-140174847D01*
X110517103Y-140195726D01*
X110482463Y-140216486D01*
X110447818Y-140237226D01*
X110413328Y-140257850D01*
X110378831Y-140278454D01*
X110344488Y-140298943D01*
X110310138Y-140319413D01*
X110275939Y-140339770D01*
X110241733Y-140360108D01*
X110207675Y-140380334D01*
X110173610Y-140400540D01*
X110139691Y-140420638D01*
X110105765Y-140440715D01*
X110071982Y-140460685D01*
X110038193Y-140480636D01*
X110004544Y-140500480D01*
X109970888Y-140520304D01*
X109937371Y-140540025D01*
X109903847Y-140559725D01*
X109870459Y-140579323D01*
X109837065Y-140598901D01*
X109803804Y-140618377D01*
X109770537Y-140637834D01*
X109737401Y-140657191D01*
X109704259Y-140676528D01*
X109671246Y-140695767D01*
X109638227Y-140714986D01*
X109605335Y-140734107D01*
X109572437Y-140753210D01*
X109539664Y-140772216D01*
X109506885Y-140791203D01*
X109474230Y-140810095D01*
X109441568Y-140828967D01*
X109409028Y-140847746D01*
X109376481Y-140866505D01*
X109344054Y-140885173D01*
X109311621Y-140903821D01*
X109279306Y-140922377D01*
X109246985Y-140940915D01*
X109214780Y-140959362D01*
X109182569Y-140977790D01*
X109150472Y-140996129D01*
X109118369Y-141014449D01*
X109086380Y-141032681D01*
X109054384Y-141050893D01*
X109022499Y-141069019D01*
X108990608Y-141087126D01*
X108958827Y-141105147D01*
X108927040Y-141123149D01*
X108895361Y-141141066D01*
X108863676Y-141158963D01*
X108832098Y-141176778D01*
X108800513Y-141194572D01*
X108769034Y-141212285D01*
X108737549Y-141229978D01*
X108706168Y-141247589D01*
X108674780Y-141265181D01*
X108643495Y-141282692D01*
X108612204Y-141300184D01*
X108581015Y-141317596D01*
X108549819Y-141334989D01*
X108518723Y-141352303D01*
X108487621Y-141369597D01*
X108456618Y-141386814D01*
X108425608Y-141404011D01*
X108394696Y-141421132D01*
X108363778Y-141438232D01*
X108332956Y-141455257D01*
X108302128Y-141472262D01*
X108271394Y-141489192D01*
X108240655Y-141506102D01*
X108210010Y-141522938D01*
X108179358Y-141539754D01*
X108148799Y-141556497D01*
X108118234Y-141573220D01*
X108087760Y-141589870D01*
X108057281Y-141606500D01*
X108026891Y-141623059D01*
X107996496Y-141639598D01*
X107966190Y-141656065D01*
X107935878Y-141672513D01*
X107905654Y-141688891D01*
X107875424Y-141705249D01*
X107845282Y-141721536D01*
X107815133Y-141737805D01*
X107785070Y-141754004D01*
X107755002Y-141770183D01*
X107725018Y-141786294D01*
X107695029Y-141802385D01*
X107665124Y-141818409D01*
X107635213Y-141834413D01*
X107605385Y-141850349D01*
X107575551Y-141866266D01*
X107545799Y-141882117D01*
X107516042Y-141897948D01*
X107486366Y-141913713D01*
X107456683Y-141929458D01*
X107427082Y-141945138D01*
X107397474Y-141960799D01*
X107367946Y-141976395D01*
X107338412Y-141991971D01*
X107308957Y-142007483D01*
X107279495Y-142022976D01*
X107250112Y-142038405D01*
X107220723Y-142053814D01*
X107191410Y-142069160D01*
X107162092Y-142084487D01*
X107132850Y-142099752D01*
X107103602Y-142114997D01*
X107074430Y-142130180D01*
X107045251Y-142145343D01*
X107016147Y-142160446D01*
X106987038Y-142175528D01*
X106958002Y-142190550D01*
X106928960Y-142205552D01*
X106899991Y-142220494D01*
X106871016Y-142235417D01*
X106842114Y-142250280D01*
X106813206Y-142265123D01*
X106784369Y-142279907D01*
X106755526Y-142294671D01*
X106726754Y-142309377D01*
X106697977Y-142324063D01*
X106669269Y-142338691D01*
X106640556Y-142353300D01*
X106611912Y-142367850D01*
X106583262Y-142382381D01*
X106554681Y-142396855D01*
X106526094Y-142411309D01*
X106497575Y-142425707D01*
X106469051Y-142440085D01*
X106440593Y-142454406D01*
X106412130Y-142468708D01*
X106383734Y-142482955D01*
X106355332Y-142497181D01*
X106326995Y-142511352D01*
X106298653Y-142525504D01*
X106270377Y-142539600D01*
X106242094Y-142553677D01*
X106213877Y-142567700D01*
X106185654Y-142581702D01*
X106157494Y-142595651D01*
X106129330Y-142609580D01*
X106101228Y-142623456D01*
X106073121Y-142637312D01*
X106045077Y-142651114D01*
X106017027Y-142664897D01*
X105989039Y-142678627D01*
X105961046Y-142692338D01*
X105933115Y-142705996D01*
X105905178Y-142719634D01*
X105877302Y-142733220D01*
X105849420Y-142746787D01*
X105821599Y-142760302D01*
X105793772Y-142773797D01*
X105766006Y-142787241D01*
X105738234Y-142800666D01*
X105710521Y-142814039D01*
X105682802Y-142827393D01*
X105655143Y-142840697D01*
X105627478Y-142853981D01*
X105599871Y-142867214D01*
X105572259Y-142880428D01*
X105544705Y-142893592D01*
X105517145Y-142906737D01*
X105489642Y-142919832D01*
X105462134Y-142932907D01*
X105434683Y-142945933D01*
X105407226Y-142958940D01*
X105379826Y-142971898D01*
X105352420Y-142984836D01*
X105325070Y-142997726D01*
X105297714Y-143010596D01*
X105270414Y-143023418D01*
X105243108Y-143036221D01*
X105215857Y-143048975D01*
X105188601Y-143061711D01*
X105161399Y-143074398D01*
X105134191Y-143087066D01*
X105107038Y-143099687D01*
X105079879Y-143112288D01*
X105052773Y-143124843D01*
X105025662Y-143137377D01*
X104998604Y-143149866D01*
X104971541Y-143162334D01*
X104944530Y-143174757D01*
X104917513Y-143187160D01*
X104890549Y-143199517D01*
X104863580Y-143211854D01*
X104836662Y-143224146D01*
X104809738Y-143236418D01*
X104782866Y-143248645D01*
X104755989Y-143260852D01*
X104729162Y-143273014D01*
X104702330Y-143285157D01*
X104675548Y-143297255D01*
X104648761Y-143309333D01*
X104622024Y-143321367D01*
X104595282Y-143333381D01*
X104568589Y-143345351D01*
X104541890Y-143357301D01*
X104515241Y-143369208D01*
X104488587Y-143381095D01*
X104461981Y-143392938D01*
X104435370Y-143404762D01*
X104408808Y-143416542D01*
X104382240Y-143428303D01*
X104355720Y-143440020D01*
X104329194Y-143451718D01*
X104302717Y-143463373D01*
X104276234Y-143475009D01*
X104249798Y-143486602D01*
X104223357Y-143498176D01*
X104196963Y-143509707D01*
X104170563Y-143521218D01*
X104144210Y-143532688D01*
X104117852Y-143544138D01*
X104091539Y-143555546D01*
X104065222Y-143566934D01*
X104038950Y-143578281D01*
X104012673Y-143589608D01*
X103986441Y-143600894D01*
X103960204Y-143612161D01*
X103934013Y-143623386D01*
X103907815Y-143634592D01*
X103881663Y-143645756D01*
X103855505Y-143656902D01*
X103829392Y-143668006D01*
X103803273Y-143679092D01*
X103777199Y-143690136D01*
X103751119Y-143701161D01*
X103725083Y-143712146D01*
X103699041Y-143723112D01*
X103673043Y-143734037D01*
X103647040Y-143744943D01*
X103621080Y-143755809D01*
X103595115Y-143766656D01*
X103569192Y-143777463D01*
X103543264Y-143788250D01*
X103517378Y-143798998D01*
X103491487Y-143809727D01*
X103480093Y-143814442D01*
D11*
X67554934Y-103630800D02*
X67554934Y-127787380D01*
D10*
X91542444Y-146274891D02*
X91494562Y-146274851D01*
X91446674Y-146274731D01*
X91398780Y-146274531D01*
X91350880Y-146274251D01*
X91302974Y-146273891D01*
X91255062Y-146273451D01*
X91207145Y-146272931D01*
X91159222Y-146272331D01*
X91111294Y-146271650D01*
X91063361Y-146270890D01*
X91015423Y-146270050D01*
X90967481Y-146269129D01*
X90919534Y-146268129D01*
X90871582Y-146267048D01*
X90823626Y-146265887D01*
X90775666Y-146264646D01*
X90727702Y-146263325D01*
X90679734Y-146261924D01*
X90631763Y-146260443D01*
X90583788Y-146258881D01*
X90535810Y-146257240D01*
X90487829Y-146255518D01*
X90439845Y-146253716D01*
X90391858Y-146251834D01*
X90343868Y-146249872D01*
X90295876Y-146247830D01*
X90247882Y-146245707D01*
X90199885Y-146243504D01*
X90151887Y-146241222D01*
X90103887Y-146238859D01*
X90055885Y-146236415D01*
X90007882Y-146233892D01*
X89959877Y-146231289D01*
X89911871Y-146228605D01*
X89863865Y-146225841D01*
X89815857Y-146222997D01*
X89767849Y-146220073D01*
X89719840Y-146217068D01*
X89671831Y-146213984D01*
X89623822Y-146210819D01*
X89575813Y-146207574D01*
X89527805Y-146204249D01*
X89479796Y-146200844D01*
X89431788Y-146197359D01*
X89383781Y-146193793D01*
X89335775Y-146190148D01*
X89287770Y-146186422D01*
X89239766Y-146182616D01*
X89191763Y-146178730D01*
X89143762Y-146174764D01*
X89095763Y-146170717D01*
X89047766Y-146166591D01*
X88999770Y-146162384D01*
X88951777Y-146158098D01*
X88903787Y-146153731D01*
X88855799Y-146149284D01*
X88807813Y-146144757D01*
X88759831Y-146140150D01*
X88711852Y-146135463D01*
X88663876Y-146130696D01*
X88615904Y-146125849D01*
X88567935Y-146120922D01*
X88519970Y-146115914D01*
X88472009Y-146110827D01*
X88424052Y-146105660D01*
X88376099Y-146100413D01*
X88328151Y-146095085D01*
X88280207Y-146089678D01*
X88232269Y-146084191D01*
X88184335Y-146078624D01*
X88136407Y-146072977D01*
X88088484Y-146067250D01*
X88040566Y-146061443D01*
X87992654Y-146055556D01*
X87944748Y-146049590D01*
X87896848Y-146043543D01*
X87848955Y-146037417D01*
X87801067Y-146031211D01*
X87753187Y-146024925D01*
X87705313Y-146018559D01*
X87657446Y-146012114D01*
X87609586Y-146005589D01*
X87561733Y-145998983D01*
X87513888Y-145992299D01*
X87466051Y-145985534D01*
X87418221Y-145978690D01*
X87370399Y-145971766D01*
X87322586Y-145964763D01*
X87274780Y-145957680D01*
X87226984Y-145950517D01*
X87179196Y-145943275D01*
X87131417Y-145935953D01*
X87083646Y-145928552D01*
X87035886Y-145921071D01*
X86988134Y-145913510D01*
X86940392Y-145905870D01*
X86892660Y-145898151D01*
X86844938Y-145890352D01*
X86797225Y-145882474D01*
X86749524Y-145874516D01*
X86701832Y-145866480D01*
X86654151Y-145858363D01*
X86606481Y-145850168D01*
X86558822Y-145841893D01*
X86511175Y-145833539D01*
X86463538Y-145825105D01*
X86415913Y-145816593D01*
X86368300Y-145808001D01*
X86320699Y-145799330D01*
X86273109Y-145790580D01*
X86225532Y-145781751D01*
X86177967Y-145772843D01*
X86130415Y-145763856D01*
X86082876Y-145754790D01*
X86035350Y-145745645D01*
X85987836Y-145736421D01*
X85940336Y-145727118D01*
X85892850Y-145717736D01*
X85845377Y-145708275D01*
X85797918Y-145698736D01*
X85750473Y-145689117D01*
X85703042Y-145679420D01*
X85655626Y-145669644D01*
X85608224Y-145659790D01*
X85560836Y-145649857D01*
X85513464Y-145639845D01*
X85466107Y-145629755D01*
X85418765Y-145619586D01*
X85371438Y-145609339D01*
X85324127Y-145599013D01*
X85276832Y-145588609D01*
X85229553Y-145578126D01*
X85182290Y-145567565D01*
X85135043Y-145556926D01*
X85087813Y-145546208D01*
X85040599Y-145535412D01*
X84993402Y-145524538D01*
X84946223Y-145513586D01*
X84899060Y-145502555D01*
X84851915Y-145491447D01*
X84804788Y-145480260D01*
X84757678Y-145468996D01*
X84710586Y-145457653D01*
X84663512Y-145446233D01*
X84616456Y-145434734D01*
X84569419Y-145423158D01*
X84522401Y-145411504D01*
X84475401Y-145399772D01*
X84428420Y-145387963D01*
X84381459Y-145376076D01*
X84334517Y-145364111D01*
X84287594Y-145352069D01*
X84240691Y-145339949D01*
X84193808Y-145327751D01*
X84146945Y-145315477D01*
X84100102Y-145303124D01*
X84076688Y-145296919D01*
X84053279Y-145290695D01*
X84029876Y-145284451D01*
X84006477Y-145278188D01*
X83983084Y-145271905D01*
X83959696Y-145265604D01*
X83936313Y-145259283D01*
X83912936Y-145252942D01*
X83889563Y-145246583D01*
X83866196Y-145240204D01*
X83842835Y-145233805D01*
X83819479Y-145227388D01*
X83796128Y-145220951D01*
X83772782Y-145214495D01*
X83749442Y-145208020D01*
X83726107Y-145201525D01*
X83702778Y-145195012D01*
X83679454Y-145188479D01*
X83656136Y-145181926D01*
X83632823Y-145175355D01*
X83609516Y-145168764D01*
X83586214Y-145162154D01*
X83562918Y-145155525D01*
X83539627Y-145148877D01*
X83516342Y-145142209D01*
X83493063Y-145135523D01*
X83469790Y-145128817D01*
X83446522Y-145122092D01*
X83423260Y-145115348D01*
X83400003Y-145108584D01*
X83376752Y-145101802D01*
X83353507Y-145095000D01*
X83330268Y-145088179D01*
X83307035Y-145081339D01*
X83283808Y-145074480D01*
X83260586Y-145067602D01*
X83237370Y-145060705D01*
X83214160Y-145053788D01*
X83190957Y-145046853D01*
X83167758Y-145039898D01*
X83144567Y-145032924D01*
X83121381Y-145025932D01*
X83098201Y-145018920D01*
X83075027Y-145011889D01*
X83051859Y-145004839D01*
X83028697Y-144997770D01*
X83005542Y-144990682D01*
X82982392Y-144983574D01*
X82959249Y-144976448D01*
X82936111Y-144969303D01*
X82912980Y-144962139D01*
X82889855Y-144954956D01*
X82866737Y-144947753D01*
X82843624Y-144940532D01*
X82820518Y-144933292D01*
X82797418Y-144926033D01*
X82774325Y-144918754D01*
X82751238Y-144911457D01*
X82728157Y-144904141D01*
X82705083Y-144896806D01*
X82682015Y-144889452D01*
X82658953Y-144882079D01*
X82635898Y-144874687D01*
X82612849Y-144867276D01*
X82589807Y-144859846D01*
X82566772Y-144852398D01*
X82543743Y-144844930D01*
X82520720Y-144837443D01*
X82497704Y-144829938D01*
X82474695Y-144822414D01*
X82451692Y-144814871D01*
X82428696Y-144807308D01*
X82405707Y-144799728D01*
X82382724Y-144792128D01*
X82359748Y-144784509D01*
X82336778Y-144776872D01*
X82313816Y-144769215D01*
X82290860Y-144761540D01*
X82267911Y-144753846D01*
X82244968Y-144746134D01*
X82222033Y-144738402D01*
X82199104Y-144730652D01*
X82176183Y-144722883D01*
X82153268Y-144715095D01*
X82130360Y-144707288D01*
X82107459Y-144699462D01*
X82084566Y-144691618D01*
X82061678Y-144683755D01*
X82038799Y-144675874D01*
X82015925Y-144667973D01*
X81993060Y-144660054D01*
X81970201Y-144652116D01*
X81947349Y-144644160D01*
X81924504Y-144636184D01*
X81901667Y-144628190D01*
X81878836Y-144620177D01*
X81856013Y-144612146D01*
X81833197Y-144604096D01*
X81810389Y-144596027D01*
X81787587Y-144587940D01*
X81764793Y-144579834D01*
X81742005Y-144571709D01*
X81719226Y-144563566D01*
X81696453Y-144555404D01*
X81673688Y-144547224D01*
X81650930Y-144539024D01*
X81628180Y-144530807D01*
X81605437Y-144522570D01*
X81582702Y-144514315D01*
X81559973Y-144506042D01*
X81537253Y-144497750D01*
X81514540Y-144489439D01*
X81491834Y-144481110D01*
X81469136Y-144472762D01*
X81446446Y-144464396D01*
X81423762Y-144456011D01*
X81401087Y-144447608D01*
X81378419Y-144439186D01*
X81355759Y-144430746D01*
X81333106Y-144422287D01*
X81310462Y-144413810D01*
X81287824Y-144405314D01*
X81265195Y-144396800D01*
X81242573Y-144388267D01*
X81219960Y-144379716D01*
X81197353Y-144371146D01*
X81174755Y-144362558D01*
X81152164Y-144353952D01*
X81129582Y-144345327D01*
X81107006Y-144336683D01*
X81084440Y-144328022D01*
X81061880Y-144319342D01*
X81039329Y-144310643D01*
X81016786Y-144301926D01*
X80994251Y-144293191D01*
X80971723Y-144284438D01*
X80949204Y-144275666D01*
X80926692Y-144266875D01*
X80904190Y-144258067D01*
X80881694Y-144249240D01*
X80859207Y-144240395D01*
X80836728Y-144231531D01*
X80814257Y-144222649D01*
X80791794Y-144213749D01*
X80769340Y-144204831D01*
X80746893Y-144195894D01*
X80724455Y-144186939D01*
X80702025Y-144177966D01*
X80679604Y-144168975D01*
X80657190Y-144159965D01*
X80634785Y-144150937D01*
X80612388Y-144141891D01*
X80590000Y-144132827D01*
X80567619Y-144123744D01*
X80545248Y-144114643D01*
X80522884Y-144105524D01*
X80500529Y-144096388D01*
X80478182Y-144087232D01*
X80455844Y-144078059D01*
X80433514Y-144068867D01*
X80411193Y-144059658D01*
X80388880Y-144050430D01*
X80366576Y-144041184D01*
X80344280Y-144031920D01*
X80321993Y-144022638D01*
X80299714Y-144013337D01*
X80277445Y-144004019D01*
X80255183Y-143994683D01*
X80232931Y-143985328D01*
X80210687Y-143975956D01*
X80188452Y-143966565D01*
X80166225Y-143957157D01*
X80144007Y-143947730D01*
X80121798Y-143938285D01*
X80099598Y-143928823D01*
X80077406Y-143919342D01*
X80055223Y-143909844D01*
X80033049Y-143900327D01*
X80010884Y-143890792D01*
X79988727Y-143881240D01*
X79966581Y-143871669D01*
X79944442Y-143862081D01*
X79922313Y-143852475D01*
X79900191Y-143842850D01*
X79878080Y-143833208D01*
X79855977Y-143823548D01*
X79833884Y-143813870D01*
X79811799Y-143804174D01*
X79789724Y-143794460D01*
X79767656Y-143784728D01*
X79745599Y-143774979D01*
X79723550Y-143765211D01*
X79701512Y-143755427D01*
X79679481Y-143745623D01*
X79657460Y-143735803D01*
X79635448Y-143725964D01*
X79613446Y-143716108D01*
X79591452Y-143706233D01*
X79570269Y-143696702D01*
X173296767Y-126237288D02*
X173266169Y-126222250D01*
X173235561Y-126207229D01*
X173204972Y-126192240D01*
X173174373Y-126177268D01*
X173143794Y-126162329D01*
X173113205Y-126147407D01*
X173082636Y-126132516D01*
X173052056Y-126117643D01*
X173021496Y-126102802D01*
X172990926Y-126087978D01*
X172960376Y-126073186D01*
X172929816Y-126058411D01*
X172899276Y-126043669D01*
X172868725Y-126028943D01*
X172838194Y-126014249D01*
X172807653Y-125999573D01*
X172777133Y-125984928D01*
X172746602Y-125970301D01*
X172716091Y-125955706D01*
X172685570Y-125941127D01*
X172655069Y-125926581D01*
X172624558Y-125912052D01*
X172594067Y-125897555D01*
X172563566Y-125883075D01*
X172533085Y-125868627D01*
X172502593Y-125854196D01*
X172472123Y-125839797D01*
X172441641Y-125825415D01*
X172411181Y-125811065D01*
X172380709Y-125796732D01*
X172350259Y-125782431D01*
X172319798Y-125768147D01*
X172289357Y-125753895D01*
X172258906Y-125739660D01*
X172228476Y-125725457D01*
X172198035Y-125711271D01*
X172167615Y-125697117D01*
X172137185Y-125682980D01*
X172106775Y-125668874D01*
X172076354Y-125654786D01*
X172045955Y-125640730D01*
X172015545Y-125626691D01*
X171985156Y-125612683D01*
X171954756Y-125598693D01*
X171924377Y-125584734D01*
X171893988Y-125570793D01*
X171863620Y-125556883D01*
X171833241Y-125542990D01*
X171802883Y-125529129D01*
X171772515Y-125515285D01*
X171742167Y-125501473D01*
X171711809Y-125487678D01*
X171681472Y-125473914D01*
X171651125Y-125460168D01*
X171620798Y-125446453D01*
X171590462Y-125432755D01*
X171560146Y-125419089D01*
X171529820Y-125405440D01*
X171499514Y-125391822D01*
X171469199Y-125378222D01*
X171438904Y-125364653D01*
X171408599Y-125351102D01*
X171378315Y-125337581D01*
X171348021Y-125324079D01*
X171317748Y-125310607D01*
X171287464Y-125297153D01*
X171257202Y-125283730D01*
X171226929Y-125270324D01*
X171196677Y-125256949D01*
X171166415Y-125243592D01*
X171136174Y-125230266D01*
X171105923Y-125216958D01*
X171075693Y-125203680D01*
X171045453Y-125190420D01*
X171015234Y-125177191D01*
X170985005Y-125163979D01*
X170954796Y-125150799D01*
X170924578Y-125137636D01*
X170894380Y-125124503D01*
X170864173Y-125111389D01*
X170833986Y-125098305D01*
X170803790Y-125085239D01*
X170773614Y-125072203D01*
X170743429Y-125059185D01*
X170713264Y-125046198D01*
X170683090Y-125033229D01*
X170652936Y-125020290D01*
X170622773Y-125007369D01*
X170592630Y-124994478D01*
X170562478Y-124981605D01*
X170532347Y-124968763D01*
X170502206Y-124955938D01*
X170472085Y-124943144D01*
X170441956Y-124930368D01*
X170411846Y-124917622D01*
X170381728Y-124904894D01*
X170351630Y-124892196D01*
X170321522Y-124879516D01*
X170291435Y-124866867D01*
X170261339Y-124854235D01*
X170231263Y-124841633D01*
X170201179Y-124829050D01*
X170171114Y-124816497D01*
X170141040Y-124803961D01*
X170110987Y-124791456D01*
X170080925Y-124778968D01*
X170050883Y-124766511D01*
X170020832Y-124754072D01*
X169990801Y-124741663D01*
X169960762Y-124729271D01*
X169930743Y-124716910D01*
X169900714Y-124704567D01*
X169870707Y-124692253D01*
X169840690Y-124679958D01*
X169810693Y-124667693D01*
X169780688Y-124655445D01*
X169750703Y-124643228D01*
X169720709Y-124631028D01*
X169690735Y-124618859D01*
X169660753Y-124606707D01*
X169630791Y-124594585D01*
X169600820Y-124582482D01*
X169570869Y-124570408D01*
X169540910Y-124558352D01*
X169510971Y-124546326D01*
X169481023Y-124534317D01*
X169451095Y-124522339D01*
X169421159Y-124510379D01*
X169391243Y-124498448D01*
X169361318Y-124486535D01*
X169331414Y-124474652D01*
X169301501Y-124462787D01*
X169271608Y-124450952D01*
X169241706Y-124439135D01*
X169211825Y-124427347D01*
X169181935Y-124415578D01*
X169152066Y-124403837D01*
X169122188Y-124392115D01*
X169092330Y-124380423D01*
X169062463Y-124368749D01*
X169032617Y-124357103D01*
X169002762Y-124345477D01*
X168972928Y-124333879D01*
X168943085Y-124322300D01*
X168913262Y-124310750D01*
X168883431Y-124299218D01*
X168853619Y-124287716D01*
X168823800Y-124276231D01*
X168794001Y-124264776D01*
X168764193Y-124253339D01*
X168734405Y-124241931D01*
X168704609Y-124230542D01*
X168674834Y-124219182D01*
X168645050Y-124207839D01*
X168615286Y-124196526D01*
X168585513Y-124185232D01*
X168555761Y-124173966D01*
X168526001Y-124162718D01*
X168496261Y-124151500D01*
X168466512Y-124140300D01*
X168436784Y-124129129D01*
X168407047Y-124117976D01*
X168377330Y-124106852D01*
X168347606Y-124095746D01*
X168317901Y-124084669D01*
X168288188Y-124073611D01*
X168258496Y-124062581D01*
X168228795Y-124051569D01*
X168199114Y-124040587D01*
X168169425Y-124029623D01*
X168139756Y-124018687D01*
X168110080Y-124007770D01*
X168080423Y-123996882D01*
X168050758Y-123986011D01*
X168021113Y-123975170D01*
X167991460Y-123964347D01*
X167961827Y-123953552D01*
X167932186Y-123942776D01*
X167902565Y-123932029D01*
X167872936Y-123921300D01*
X167843327Y-123910599D01*
X167813711Y-123899917D01*
X167784114Y-123889263D01*
X167754509Y-123878628D01*
X167724924Y-123868021D01*
X167695332Y-123857433D01*
X167665759Y-123846873D01*
X167636178Y-123836331D01*
X167606618Y-123825818D01*
X167577049Y-123815324D01*
X167547500Y-123804857D01*
X167517944Y-123794409D01*
X167488408Y-123783989D01*
X167458864Y-123773588D01*
X167429339Y-123763215D01*
X167399807Y-123752861D01*
X167370295Y-123742534D01*
X167340775Y-123732227D01*
X167311275Y-123721947D01*
X167281767Y-123711686D01*
X167252279Y-123701453D01*
X167222784Y-123691238D01*
X167193308Y-123681052D01*
X167163824Y-123670884D01*
X167134361Y-123660744D01*
X167104889Y-123650622D01*
X167075438Y-123640529D01*
X167045979Y-123630454D01*
X167016540Y-123620407D01*
X166987093Y-123610378D01*
X166957666Y-123600378D01*
X166928231Y-123590396D01*
X166898817Y-123580442D01*
X166869394Y-123570506D01*
X166839992Y-123560598D01*
X166810582Y-123550709D01*
X166781191Y-123540848D01*
X166751794Y-123531005D01*
X166722415Y-123521190D01*
X166693030Y-123511393D01*
X166663664Y-123501624D01*
X166634291Y-123491874D01*
X166604937Y-123482152D01*
X166575576Y-123472448D01*
X166546235Y-123462771D01*
X166516886Y-123453114D01*
X166487557Y-123443483D01*
X166458221Y-123433872D01*
X166428904Y-123424288D01*
X166399580Y-123414722D01*
X166370276Y-123405184D01*
X166340964Y-123395665D01*
X166311672Y-123386173D01*
X166282373Y-123376700D01*
X166253093Y-123367254D01*
X166223806Y-123357827D01*
X166194538Y-123348427D01*
X166165264Y-123339046D01*
X166136008Y-123329693D01*
X166106746Y-123320357D01*
X166077503Y-123311050D01*
X166048253Y-123301760D01*
X166019023Y-123292498D01*
X165989785Y-123283255D01*
X165960567Y-123274039D01*
X165931342Y-123264842D01*
X165902136Y-123255672D01*
X165872923Y-123246520D01*
X165843730Y-123237396D01*
X165814530Y-123228290D01*
X165785348Y-123219212D01*
X165756161Y-123210152D01*
X165726992Y-123201119D01*
X165697816Y-123192105D01*
X165668660Y-123183118D01*
X165639497Y-123174149D01*
X165610353Y-123165208D01*
X165581202Y-123156285D01*
X165552070Y-123147389D01*
X165522932Y-123138512D01*
X165493813Y-123129662D01*
X165464687Y-123120831D01*
X165435580Y-123112026D01*
X165406467Y-123103241D01*
X165377372Y-123094481D01*
X165348271Y-123085741D01*
X165319189Y-123077028D01*
X165290101Y-123068333D01*
X165261031Y-123059665D01*
X165231955Y-123051016D01*
X165202898Y-123042393D01*
X165173834Y-123033790D01*
X165144789Y-123025212D01*
X165115738Y-123016654D01*
X165086706Y-123008122D01*
X165057667Y-122999609D01*
X165028647Y-122991123D01*
X164999621Y-122982656D01*
X164970614Y-122974214D01*
X164941600Y-122965792D01*
X164912605Y-122957396D01*
X164883603Y-122949020D01*
X164854621Y-122940669D01*
X164825632Y-122932337D01*
X164796662Y-122924032D01*
X164767685Y-122915746D01*
X164738728Y-122907485D01*
X164709764Y-122899244D01*
X164680818Y-122891029D01*
X164651867Y-122882833D01*
X164622934Y-122874663D01*
X164593995Y-122866512D01*
X164565075Y-122858388D01*
X164536148Y-122850282D01*
X164507240Y-122842202D01*
X164478326Y-122834141D01*
X164449431Y-122826107D01*
X164420529Y-122818091D01*
X164391646Y-122810101D01*
X164362757Y-122802130D01*
X164333887Y-122794186D01*
X164305010Y-122786260D01*
X164276152Y-122778360D01*
X164247288Y-122770479D01*
X164218442Y-122762624D01*
X164189591Y-122754789D01*
X164160757Y-122746978D01*
X164131918Y-122739187D01*
X164103098Y-122731422D01*
X164074271Y-122723676D01*
X164045463Y-122715955D01*
X164016649Y-122708254D01*
X163987853Y-122700578D01*
X163959051Y-122692922D01*
X163930268Y-122685291D01*
X163901479Y-122677679D01*
X163872708Y-122670093D01*
X163843931Y-122662525D01*
X163815173Y-122654984D01*
X163786409Y-122647461D01*
X163757663Y-122639964D01*
X163728911Y-122632486D01*
X163700177Y-122625034D01*
X163671438Y-122617601D01*
X163642717Y-122610193D01*
X163613990Y-122602804D01*
X163585282Y-122595441D01*
X163556568Y-122588097D01*
X163527871Y-122580778D01*
X163499170Y-122573478D01*
X163470486Y-122566204D01*
X163441797Y-122558949D01*
X163413126Y-122551719D01*
X163384449Y-122544508D01*
X163355790Y-122537323D01*
X163327126Y-122530156D01*
X163298479Y-122523015D01*
X163269828Y-122515893D01*
X163241194Y-122508796D01*
X163212554Y-122501719D01*
X163183933Y-122494666D01*
X163155306Y-122487633D01*
X163126697Y-122480625D01*
X163098083Y-122473636D01*
X163069486Y-122466672D01*
X163040884Y-122459727D01*
X163012300Y-122452807D01*
X162983711Y-122445907D01*
X162955139Y-122439031D01*
X162926562Y-122432175D01*
X162898003Y-122425343D01*
X162869438Y-122418531D01*
X162840891Y-122411744D01*
X162812339Y-122404976D01*
X162783805Y-122398232D01*
X162755265Y-122391508D01*
X162726743Y-122384809D01*
X162698216Y-122378129D01*
X162669707Y-122371474D01*
X162641192Y-122364838D01*
X162612695Y-122358227D01*
X162584193Y-122351635D01*
X162555708Y-122345068D01*
X162527218Y-122338520D01*
X162498746Y-122331996D01*
X162470268Y-122325492D01*
X162441809Y-122319013D01*
X162413343Y-122312553D01*
X162384896Y-122306117D01*
X162356443Y-122299701D01*
X162328008Y-122293309D01*
X162299568Y-122286936D01*
X162271146Y-122280588D01*
X162242718Y-122274260D01*
X162214308Y-122267956D01*
X162185892Y-122261671D01*
X162157494Y-122255410D01*
X162129091Y-122249169D01*
X162100706Y-122242952D01*
X162072315Y-122236755D01*
X162043942Y-122230582D01*
X162015564Y-122224428D01*
X161987203Y-122218298D01*
X161958838Y-122212188D01*
X161930489Y-122206102D01*
X161902136Y-122200036D01*
X161873800Y-122193993D01*
X161845459Y-122187970D01*
X161817135Y-122181972D01*
X161788806Y-122175992D01*
X161760495Y-122170037D01*
X161732179Y-122164101D01*
X161703880Y-122158189D01*
X161675576Y-122152297D01*
X161647289Y-122146429D01*
X161618998Y-122140580D01*
X161590723Y-122134755D01*
X161562444Y-122128949D01*
X161534182Y-122123168D01*
X161505915Y-122117406D01*
X161477666Y-122111667D01*
X161449411Y-122105949D01*
X161421174Y-122100254D01*
X161392932Y-122094578D01*
X161364707Y-122088927D01*
X161336477Y-122083295D01*
X161308264Y-122077686D01*
X161280046Y-122072098D01*
X161251846Y-122066532D01*
X161223641Y-122060987D01*
X161195452Y-122055465D01*
X161167259Y-122049963D01*
X161139084Y-122044484D01*
X161110903Y-122039025D01*
X161082739Y-122033589D01*
X161054571Y-122028173D01*
X161026419Y-122022781D01*
X160998263Y-122017408D01*
X160970124Y-122012058D01*
X160941980Y-122006728D01*
X160913853Y-122001422D01*
X160885722Y-121996135D01*
X160857607Y-121990872D01*
X160829488Y-121985628D01*
X160801386Y-121980408D01*
X160773278Y-121975207D01*
X160745188Y-121970030D01*
X160717093Y-121964872D01*
X160689015Y-121959738D01*
X160660933Y-121954623D01*
X160632867Y-121949531D01*
X160604797Y-121944459D01*
X160576743Y-121939411D01*
X160548685Y-121934382D01*
X160520643Y-121929376D01*
X160492598Y-121924390D01*
X160464568Y-121919427D01*
X160436535Y-121914483D01*
X160408517Y-121909563D01*
X160380496Y-121904663D01*
X160352491Y-121899785D01*
X160324481Y-121894927D01*
X160313036Y-121892948D01*
D11*
X182792445Y-91880800D02*
X182792445Y-103630800D01*
D10*
X214542446Y-146274891D02*
X214517850Y-146274881D01*
X214493256Y-146274851D01*
X214468665Y-146274801D01*
X214444076Y-146274731D01*
X214419489Y-146274641D01*
X214394905Y-146274531D01*
X214370323Y-146274401D01*
X214345743Y-146274251D01*
X214321166Y-146274081D01*
X214296591Y-146273891D01*
X214272019Y-146273681D01*
X214247448Y-146273451D01*
X214222881Y-146273202D01*
X214198315Y-146272932D01*
X214173752Y-146272642D01*
X214149191Y-146272332D01*
X214124634Y-146272002D01*
X214100078Y-146271653D01*
X214075525Y-146271283D01*
X214050974Y-146270893D01*
X214026426Y-146270484D01*
X214001880Y-146270054D01*
X213977337Y-146269604D01*
X213952796Y-146269135D01*
X213928258Y-146268645D01*
X213903722Y-146268136D01*
X213879189Y-146267607D01*
X213854658Y-146267057D01*
X213830130Y-146266488D01*
X213805604Y-146265899D01*
X213781081Y-146265290D01*
X213756560Y-146264660D01*
X213732042Y-146264011D01*
X213707526Y-146263342D01*
X213683014Y-146262653D01*
X213658503Y-146261945D01*
X213633996Y-146261216D01*
X213609491Y-146260467D01*
X213584989Y-146259698D01*
X213560488Y-146258910D01*
X213535992Y-146258101D01*
X213511497Y-146257273D01*
X213487005Y-146256424D01*
X213462515Y-146255556D01*
X213438029Y-146254668D01*
X213413545Y-146253760D01*
X213389064Y-146252832D01*
X213364585Y-146251884D01*
X213340110Y-146250916D01*
X213315636Y-146249928D01*
X213291166Y-146248920D01*
X213266698Y-146247893D01*
X213242233Y-146246845D01*
X213217770Y-146245778D01*
X213193311Y-146244691D01*
X213168854Y-146243583D01*
X213144400Y-146242456D01*
X213119948Y-146241309D01*
X213095500Y-146240143D01*
X213071054Y-146238956D01*
X213046612Y-146237749D01*
X213022171Y-146236523D01*
X212997734Y-146235276D01*
X212973299Y-146234010D01*
X212948868Y-146232724D01*
X212924439Y-146231417D01*
X212900013Y-146230092D01*
X212875589Y-146228746D01*
X212851169Y-146227380D01*
X212826751Y-146225994D01*
X212802337Y-146224589D01*
X212777925Y-146223164D01*
X212753517Y-146221719D01*
X212729110Y-146220253D01*
X212704707Y-146218769D01*
X212680307Y-146217264D01*
X212655910Y-146215739D01*
X212631515Y-146214195D01*
X212607124Y-146212630D01*
X212582735Y-146211046D01*
X212558350Y-146209442D01*
X212533967Y-146207818D01*
X212509588Y-146206174D01*
X212485211Y-146204511D01*
X212460838Y-146202827D01*
X212436466Y-146201124D01*
X212412099Y-146199401D01*
X212387734Y-146197658D01*
X212363373Y-146195895D01*
X212339014Y-146194113D01*
X212314658Y-146192310D01*
X212290305Y-146190488D01*
X212265956Y-146188646D01*
X212241609Y-146186784D01*
X212217266Y-146184902D01*
X212192925Y-146183000D01*
X212168588Y-146181079D01*
X212144254Y-146179138D01*
X212119923Y-146177177D01*
X212095594Y-146175196D01*
X212071270Y-146173195D01*
X212046948Y-146171175D01*
X212022629Y-146169134D01*
X211998313Y-146167074D01*
X211974001Y-146164994D01*
X211949691Y-146162894D01*
X211925386Y-146160775D01*
X211901082Y-146158636D01*
X211876783Y-146156476D01*
X211852485Y-146154297D01*
X211828192Y-146152099D01*
X211803901Y-146149880D01*
X211779615Y-146147642D01*
X211755330Y-146145384D01*
X211731050Y-146143106D01*
X211706772Y-146140808D01*
X211682498Y-146138491D01*
X211658227Y-146136153D01*
X211633959Y-146133796D01*
X211609694Y-146131420D01*
X211585433Y-146129023D01*
X211561175Y-146126607D01*
X211536920Y-146124171D01*
X211512668Y-146121715D01*
X211488421Y-146119239D01*
X211464175Y-146116743D01*
X211439934Y-146114228D01*
X211415695Y-146111693D01*
X211391461Y-146109138D01*
X211367228Y-146106564D01*
X211343001Y-146103970D01*
X211318775Y-146101356D01*
X211294554Y-146098722D01*
X211270335Y-146096068D01*
X211246121Y-146093395D01*
X211221908Y-146090702D01*
X211197701Y-146087989D01*
X211173495Y-146085257D01*
X211149294Y-146082504D01*
X211125096Y-146079732D01*
X211100902Y-146076941D01*
X211076710Y-146074129D01*
X211052523Y-146071298D01*
X211028338Y-146068447D01*
X211004157Y-146065576D01*
X210979979Y-146062686D01*
X210955806Y-146059775D01*
X210931635Y-146056845D01*
X210907468Y-146053896D01*
X210883304Y-146050926D01*
X210859144Y-146047937D01*
X210834987Y-146044929D01*
X210810835Y-146041900D01*
X210786685Y-146038852D01*
X210762539Y-146035784D01*
X210738396Y-146032696D01*
X210714257Y-146029589D01*
X210690121Y-146026462D01*
X210665990Y-146023315D01*
X210641861Y-146020148D01*
X210617736Y-146016962D01*
X210593614Y-146013756D01*
X210569497Y-146010531D01*
X210545382Y-146007285D01*
X210521272Y-146004020D01*
X210497165Y-146000735D01*
X210473062Y-145997431D01*
X210448962Y-145994107D01*
X210424866Y-145990763D01*
X210400773Y-145987400D01*
X210376684Y-145984016D01*
X210352599Y-145980613D01*
X210328518Y-145977191D01*
X210304439Y-145973749D01*
X210280365Y-145970287D01*
X210256294Y-145966805D01*
X210232228Y-145963304D01*
X210208164Y-145959783D01*
X210184105Y-145956242D01*
X210160048Y-145952682D01*
X210135997Y-145949102D01*
X210111948Y-145945502D01*
X210087903Y-145941883D01*
X210063862Y-145938244D01*
X210039825Y-145934586D01*
X210015791Y-145930907D01*
X209991762Y-145927209D01*
X209967735Y-145923492D01*
X209943713Y-145919754D01*
X209919694Y-145915997D01*
X209895680Y-145912221D01*
X209871669Y-145908425D01*
X209847662Y-145904609D01*
X209823658Y-145900773D01*
X209799659Y-145896918D01*
X209775663Y-145893043D01*
X209751672Y-145889149D01*
X209727683Y-145885235D01*
X209703699Y-145881301D01*
X209679719Y-145877347D01*
X209655742Y-145873375D01*
X209631769Y-145869382D01*
X209607801Y-145865370D01*
X209583836Y-145861338D01*
X209559875Y-145857286D01*
X209535917Y-145853215D01*
X209511965Y-145849124D01*
X209488015Y-145845014D01*
X209464070Y-145840884D01*
X209440128Y-145836734D01*
X209416191Y-145832565D01*
X209392257Y-145828376D01*
X209368327Y-145824167D01*
X209344401Y-145819939D01*
X209320480Y-145815691D01*
X209296562Y-145811424D01*
X209272648Y-145807137D01*
X209248738Y-145802830D01*
X209224832Y-145798504D01*
X209200930Y-145794159D01*
X209177032Y-145789793D01*
X209153138Y-145785408D01*
X209129249Y-145781004D01*
X209105362Y-145776579D01*
X209081481Y-145772136D01*
X209057603Y-145767672D01*
X209033729Y-145763189D01*
X209009859Y-145758687D01*
X208985994Y-145754165D01*
X208962132Y-145749623D01*
X208938275Y-145745062D01*
X208914421Y-145740481D01*
X208890572Y-145735880D01*
X208866726Y-145731260D01*
X208842885Y-145726621D01*
X208819048Y-145721961D01*
X208795215Y-145717283D01*
X208771386Y-145712584D01*
X208747562Y-145707866D01*
X208723741Y-145703129D01*
X208699925Y-145698372D01*
X208676112Y-145693595D01*
X208652304Y-145688799D01*
X208628500Y-145683983D01*
X208604700Y-145679148D01*
X208580904Y-145674293D01*
X208557113Y-145669418D01*
X208533326Y-145664524D01*
X208509543Y-145659611D01*
X208485764Y-145654677D01*
X208461989Y-145649725D01*
X208438219Y-145644753D01*
X208414453Y-145639761D01*
X208390690Y-145634749D01*
X208366933Y-145629719D01*
X208343179Y-145624668D01*
X208319430Y-145619598D01*
X208295685Y-145614509D01*
X208271945Y-145609400D01*
X208248208Y-145604271D01*
X208224476Y-145599123D01*
X208200748Y-145593955D01*
X208177025Y-145588768D01*
X208153305Y-145583561D01*
X208129591Y-145578335D01*
X208105880Y-145573089D01*
X208082174Y-145567824D01*
X208058471Y-145562539D01*
X208034774Y-145557235D01*
X208011081Y-145551911D01*
X207987392Y-145546567D01*
X207963707Y-145541204D01*
X207940027Y-145535822D01*
X207916351Y-145530420D01*
X207892680Y-145524999D01*
X207869013Y-145519557D01*
X207845351Y-145514097D01*
X207821692Y-145508617D01*
X207798039Y-145503117D01*
X207774389Y-145497598D01*
X207750744Y-145492060D01*
X207727103Y-145486502D01*
X207703468Y-145480924D01*
X207679836Y-145475327D01*
X207656209Y-145469711D01*
X207632586Y-145464074D01*
X207608968Y-145458419D01*
X207585353Y-145452744D01*
X207561745Y-145447049D01*
X207538139Y-145441335D01*
X207514539Y-145435602D01*
X207490943Y-145429849D01*
X207467352Y-145424076D01*
X207443765Y-145418284D01*
X207420183Y-145412473D01*
X207396605Y-145406642D01*
X207373032Y-145400791D01*
X207349463Y-145394921D01*
X207325899Y-145389032D01*
X207302339Y-145383123D01*
X207278785Y-145377195D01*
X207255234Y-145371247D01*
X207231688Y-145365280D01*
X207208147Y-145359293D01*
X207184610Y-145353287D01*
X207161078Y-145347261D01*
X207157150Y-145346253D01*
D11*
X233292445Y-103630800D02*
X238529955Y-103630800D01*
X238529955Y-127787380D02*
X238529955Y-103630800D01*
D10*
X202604796Y-143814442D02*
X202552722Y-143792861D01*
X202500582Y-143771167D01*
X202448375Y-143749358D01*
X202396100Y-143727434D01*
X202343757Y-143705394D01*
X202291345Y-143683239D01*
X202238863Y-143660968D01*
X202186311Y-143638580D01*
X202133688Y-143616075D01*
X202080993Y-143593452D01*
X202028226Y-143570711D01*
X201975386Y-143547852D01*
X201922473Y-143524874D01*
X201869484Y-143501776D01*
X201816421Y-143478558D01*
X201763282Y-143455220D01*
X201710066Y-143431761D01*
X201656773Y-143408181D01*
X201603402Y-143384478D01*
X201549951Y-143360653D01*
X201496422Y-143336705D01*
X201442811Y-143312634D01*
X201389120Y-143288438D01*
X201335346Y-143264118D01*
X201281490Y-143239672D01*
X201227550Y-143215101D01*
X201173526Y-143190404D01*
X201119416Y-143165579D01*
X201065220Y-143140627D01*
X201010937Y-143115548D01*
X200956566Y-143090339D01*
X200902106Y-143065001D01*
X200847556Y-143039533D01*
X200792916Y-143013935D01*
X200738184Y-142988206D01*
X200683360Y-142962344D01*
X200628442Y-142936351D01*
X200573430Y-142910224D01*
X200518323Y-142883963D01*
X200463119Y-142857568D01*
X200407818Y-142831038D01*
X200352418Y-142804372D01*
X200296919Y-142777569D01*
X200241319Y-142750629D01*
X200185618Y-142723551D01*
X200129814Y-142696335D01*
X200073906Y-142668978D01*
X200017894Y-142641482D01*
X199961775Y-142613844D01*
X199905550Y-142586065D01*
X199849216Y-142558143D01*
X199792772Y-142530077D01*
X199736218Y-142501868D01*
X199679552Y-142473513D01*
X199622773Y-142445012D01*
X199565880Y-142416364D01*
X199508870Y-142387569D01*
X199451744Y-142358625D01*
X199394500Y-142329531D01*
X199337135Y-142300287D01*
X199279650Y-142270892D01*
X199222043Y-142241344D01*
X199164311Y-142211643D01*
X199106455Y-142181788D01*
X199048471Y-142151777D01*
X198990360Y-142121610D01*
X198932119Y-142091286D01*
X198873746Y-142060803D01*
X198815241Y-142030161D01*
X198756601Y-141999358D01*
X198697826Y-141968393D01*
X198638912Y-141937266D01*
X198579859Y-141905975D01*
X198520666Y-141874518D01*
X198461329Y-141842895D01*
X198401848Y-141811105D01*
X198342220Y-141779146D01*
X198282445Y-141747016D01*
X198222519Y-141714715D01*
X198162441Y-141682242D01*
X198102209Y-141649594D01*
X198041821Y-141616772D01*
X197981275Y-141583772D01*
X197920569Y-141550594D01*
X197859701Y-141517236D01*
X197798669Y-141483697D01*
X197737470Y-141449976D01*
X197676102Y-141416070D01*
X197614563Y-141381979D01*
X197552851Y-141347700D01*
X197490962Y-141313232D01*
X197428896Y-141278573D01*
X197366649Y-141243722D01*
X197304218Y-141208676D01*
X197241601Y-141173435D01*
X197178796Y-141137996D01*
X197115799Y-141102357D01*
X197052609Y-141066516D01*
X196989221Y-141030472D01*
X196925633Y-140994223D01*
X196861842Y-140957765D01*
X196797845Y-140921098D01*
X196733639Y-140884219D01*
X196669221Y-140847126D01*
X196604586Y-140809817D01*
X196539733Y-140772289D01*
X196474657Y-140734539D01*
X196409355Y-140696567D01*
X196343823Y-140658368D01*
X196278058Y-140619940D01*
X196212055Y-140581282D01*
X196145810Y-140542389D01*
X196079320Y-140503260D01*
X196012581Y-140463891D01*
X195945587Y-140424280D01*
X195878336Y-140384423D01*
X195810821Y-140344318D01*
X195743038Y-140303960D01*
X195674984Y-140263348D01*
X195606652Y-140222477D01*
X195538037Y-140181344D01*
X195469135Y-140139946D01*
X195399939Y-140098278D01*
X195330445Y-140056337D01*
X195260646Y-140014119D01*
X195190536Y-139971620D01*
X195120110Y-139928836D01*
X195049361Y-139885762D01*
X194978282Y-139842394D01*
X194906867Y-139798727D01*
X194835108Y-139754756D01*
X194762998Y-139710477D01*
X194690530Y-139665884D01*
X194617695Y-139620973D01*
X194544487Y-139575736D01*
X194470895Y-139530170D01*
X194396912Y-139484267D01*
X194322529Y-139438021D01*
X194247735Y-139391427D01*
X194172522Y-139344477D01*
X194096878Y-139297165D01*
X194020794Y-139249482D01*
X193944257Y-139201423D01*
X193867257Y-139152978D01*
X193789781Y-139104139D01*
X193711817Y-139054899D01*
X193633352Y-139005248D01*
X193554371Y-138955175D01*
X193474860Y-138904673D01*
X193394804Y-138853730D01*
X193314187Y-138802335D01*
X193232991Y-138750478D01*
X193151201Y-138698145D01*
X193068795Y-138645324D01*
X192985756Y-138592003D01*
X192902063Y-138538167D01*
X192817693Y-138483800D01*
X192732623Y-138428888D01*
X192646829Y-138373414D01*
X192560284Y-138317360D01*
X192472961Y-138260706D01*
X192384831Y-138203434D01*
X192295861Y-138145521D01*
X192206018Y-138086946D01*
X192115266Y-138027682D01*
X192023566Y-137967704D01*
X191930876Y-137906984D01*
X191837152Y-137845491D01*
X191742345Y-137783192D01*
X191646402Y-137720052D01*
X191549266Y-137656031D01*
X191450874Y-137591088D01*
X191351158Y-137525176D01*
X191250044Y-137458243D01*
X191147448Y-137390236D01*
X191043280Y-137321090D01*
X190937437Y-137250737D01*
X190829806Y-137179101D01*
X190720260Y-137106095D01*
X190608654Y-137031621D01*
X190494823Y-136955567D01*
X190378581Y-136877807D01*
X190259709Y-136798192D01*
X190137952Y-136716550D01*
X190013012Y-136632678D01*
X189884529Y-136546333D01*
X189752068Y-136457220D01*
X189615092Y-136364975D01*
X189472924Y-136269139D01*
X189324691Y-136169120D01*
X189169227Y-136064127D01*
X189004914Y-135953065D01*
X188829388Y-135834330D01*
X188649352Y-135712460D01*
D11*
X123292444Y-73880800D02*
X123292444Y-62349220D01*
D10*
X238529955Y-127787380D02*
X238529945Y-127806822D01*
X238529915Y-127826260D01*
X238529865Y-127845676D01*
X238529795Y-127865087D01*
X238529705Y-127884477D01*
X238529595Y-127903862D01*
X238529465Y-127923226D01*
X238529316Y-127942585D01*
X238529146Y-127961923D01*
X238528956Y-127981255D01*
X238528747Y-128000567D01*
X238528518Y-128019874D01*
X238528268Y-128039159D01*
X238527999Y-128058439D01*
X238527711Y-128077698D01*
X238527402Y-128096952D01*
X238527073Y-128116185D01*
X238526725Y-128135413D01*
X238526357Y-128154619D01*
X238525969Y-128173821D01*
X238525562Y-128193001D01*
X238525134Y-128212176D01*
X238524688Y-128231330D01*
X238524221Y-128250479D01*
X238523734Y-128269607D01*
X238523228Y-128288730D01*
X238522703Y-128307831D01*
X238522157Y-128326927D01*
X238521592Y-128346002D01*
X238521007Y-128365073D01*
X238520403Y-128384121D01*
X238519779Y-128403165D01*
X238519136Y-128422187D01*
X238518472Y-128441205D01*
X238517790Y-128460201D01*
X238517088Y-128479192D01*
X238516366Y-128498161D01*
X238515625Y-128517126D01*
X238514864Y-128536069D01*
X238514084Y-128555008D01*
X238513284Y-128573924D01*
X238512465Y-128592836D01*
X238511626Y-128611727D01*
X238510768Y-128630613D01*
X238509890Y-128649477D01*
X238508993Y-128668336D01*
X238508077Y-128687173D01*
X238507141Y-128706006D01*
X238506186Y-128724817D01*
X238505211Y-128743624D01*
X238504218Y-128762409D01*
X238503204Y-128781189D01*
X238502172Y-128799947D01*
X238501120Y-128818701D01*
X238500049Y-128837433D01*
X238498958Y-128856160D01*
X238497849Y-128874865D01*
X238496720Y-128893566D01*
X238495572Y-128912245D01*
X238494404Y-128930919D01*
X238493217Y-128949572D01*
X238492011Y-128968220D01*
X238490786Y-128986846D01*
X238489542Y-129005467D01*
X238488279Y-129024067D01*
X238486996Y-129042662D01*
X238485694Y-129061235D01*
X238484373Y-129079804D01*
X238483033Y-129098351D01*
X238481674Y-129116893D01*
X238480296Y-129135413D01*
X238478898Y-129153929D01*
X238477482Y-129172423D01*
X238476047Y-129190912D01*
X238474592Y-129209379D01*
X238473119Y-129227842D01*
X238471626Y-129246283D01*
X238470115Y-129264719D01*
X238468584Y-129283134D01*
X238467035Y-129301543D01*
X238465466Y-129319932D01*
X238463879Y-129338315D01*
X238462273Y-129356677D01*
X238460647Y-129375033D01*
X238459003Y-129393369D01*
X238457340Y-129411699D01*
X238455658Y-129430008D01*
X238453957Y-129448312D01*
X238452237Y-129466594D01*
X238450498Y-129484872D01*
X238448741Y-129503128D01*
X238446964Y-129521378D01*
X238445170Y-129539608D01*
X238443355Y-129557832D01*
X238441523Y-129576036D01*
X238439671Y-129594234D01*
X238437801Y-129612410D01*
X238435912Y-129630582D01*
X238434005Y-129648732D01*
X238432078Y-129666877D01*
X238430133Y-129685001D01*
X238428169Y-129703120D01*
X238426186Y-129721217D01*
X238424185Y-129739309D01*
X238422165Y-129757381D01*
X238420126Y-129775446D01*
X238418069Y-129793491D01*
X238415993Y-129811530D01*
X238413899Y-129829549D01*
X238411785Y-129847561D01*
X238409654Y-129865553D01*
X238407503Y-129883540D01*
X238405335Y-129901505D01*
X238403147Y-129919465D01*
X238400941Y-129937404D01*
X238398716Y-129955338D01*
X238396473Y-129973251D01*
X238394211Y-129991158D01*
X238391932Y-130009044D01*
X238389633Y-130026925D01*
X238387316Y-130044785D01*
X238384980Y-130062640D01*
X238382626Y-130080473D01*
X238380253Y-130098301D01*
X238377863Y-130116109D01*
X238375453Y-130133910D01*
X238373026Y-130151691D01*
X238370579Y-130169467D01*
X238368115Y-130187221D01*
X238365632Y-130204970D01*
X238363131Y-130222699D01*
X238360611Y-130240421D01*
X238358074Y-130258124D01*
X238355517Y-130275820D01*
X238352943Y-130293496D01*
X238350350Y-130311165D01*
X238347739Y-130328815D01*
X238345109Y-130346459D01*
X238342462Y-130364082D01*
X238339795Y-130381699D01*
X238337111Y-130399296D01*
X238334408Y-130416887D01*
X238331688Y-130434458D01*
X238328949Y-130452023D01*
X238326192Y-130469567D01*
X238323416Y-130487105D01*
X238320623Y-130504624D01*
X238317811Y-130522136D01*
X238314982Y-130539628D01*
X238312133Y-130557114D01*
X238309268Y-130574580D01*
X238306383Y-130592039D01*
X238303481Y-130609479D01*
X238300560Y-130626912D01*
X238297622Y-130644326D01*
X238294665Y-130661733D01*
X238291691Y-130679120D01*
X238288697Y-130696501D01*
X238285687Y-130713862D01*
X238282657Y-130731217D01*
X238279611Y-130748552D01*
X238276546Y-130765881D01*
X238273463Y-130783190D01*
X238270362Y-130800492D01*
X238267243Y-130817775D01*
X238264106Y-130835051D01*
X238260952Y-130852308D01*
X238257778Y-130869558D01*
X238254588Y-130886789D01*
X238251379Y-130904013D01*
X238248153Y-130921217D01*
X238244907Y-130938415D01*
X238241646Y-130955594D01*
X238238365Y-130972766D01*
X238235067Y-130989918D01*
X238231750Y-131007064D01*
X238228417Y-131024190D01*
X238225064Y-131041310D01*
X238221695Y-131058410D01*
X238218307Y-131075504D01*
X238214903Y-131092578D01*
X238211479Y-131109646D01*
X238208039Y-131126694D01*
X238204579Y-131143736D01*
X238201103Y-131160758D01*
X238197608Y-131177774D01*
X238194097Y-131194770D01*
X238190567Y-131211760D01*
X238187020Y-131228731D01*
X238183454Y-131245695D01*
X238179871Y-131262639D01*
X238176270Y-131279577D01*
X238172652Y-131296496D01*
X238169016Y-131313408D01*
X238165363Y-131330300D01*
X238161690Y-131347186D01*
X238158002Y-131364053D01*
X238154294Y-131380914D01*
X238150571Y-131397754D01*
X238146828Y-131414589D01*
X238143069Y-131431404D01*
X238139291Y-131448212D01*
X238135497Y-131465002D01*
X238131684Y-131481784D01*
X238127854Y-131498548D01*
X238124006Y-131515305D01*
X238120141Y-131532042D01*
X238116258Y-131548774D01*
X238112358Y-131565485D01*
X238108440Y-131582191D01*
X238104505Y-131598877D01*
X238100551Y-131615557D01*
X238096581Y-131632217D01*
X238092593Y-131648871D01*
X238088588Y-131665506D01*
X238084564Y-131682134D01*
X238080525Y-131698743D01*
X238076466Y-131715345D01*
X238072391Y-131731929D01*
X238068298Y-131748505D01*
X238064188Y-131765063D01*
X238060060Y-131781614D01*
X238055915Y-131798146D01*
X238051752Y-131814672D01*
X238047573Y-131831178D01*
X238043375Y-131847678D01*
X238039161Y-131864159D01*
X238034928Y-131880634D01*
X238030679Y-131897089D01*
X238026411Y-131913538D01*
X238022128Y-131929967D01*
X238017826Y-131946391D01*
X238013507Y-131962795D01*
X238009170Y-131979192D01*
X238004818Y-131995571D01*
X238000446Y-132011943D01*
X237996059Y-132028297D01*
X237991652Y-132044643D01*
X237987230Y-132060971D01*
X237982789Y-132077292D01*
X237978333Y-132093595D01*
X237973857Y-132109890D01*
X237969366Y-132126167D01*
X237964856Y-132142438D01*
X237960331Y-132158689D01*
X237955786Y-132174934D01*
X237951226Y-132191160D01*
X237946647Y-132207380D01*
X237942053Y-132223581D01*
X237937440Y-132239775D01*
X237932811Y-132255950D01*
X237928163Y-132272119D01*
X237923500Y-132288269D01*
X237918818Y-132304413D01*
X237914120Y-132320538D01*
X237909404Y-132336656D01*
X237904672Y-132352755D01*
X237899921Y-132368848D01*
X237895155Y-132384923D01*
X237890370Y-132400990D01*
X237885570Y-132417040D01*
X237880750Y-132433082D01*
X237875916Y-132449106D01*
X237871062Y-132465123D01*
X237866193Y-132481122D01*
X237861306Y-132497114D01*
X237856403Y-132513088D01*
X237851481Y-132529055D01*
X237846544Y-132545003D01*
X237841588Y-132560945D01*
X237836617Y-132576868D01*
X237831627Y-132592785D01*
X237826622Y-132608684D01*
X237821597Y-132624575D01*
X237816558Y-132640448D01*
X237811500Y-132656315D01*
X237806427Y-132672163D01*
X237801334Y-132688005D01*
X237796227Y-132703828D01*
X237791101Y-132719644D01*
X237785960Y-132735443D01*
X237780800Y-132751234D01*
X237775624Y-132767007D01*
X237770430Y-132782774D01*
X237765221Y-132798522D01*
X237759993Y-132814264D01*
X237754750Y-132829987D01*
X237749488Y-132845704D01*
X237744211Y-132861403D01*
X237738915Y-132877094D01*
X237733604Y-132892768D01*
X237728275Y-132908435D01*
X237722930Y-132924084D01*
X237717567Y-132939726D01*
X237712188Y-132955350D01*
X237706791Y-132970967D01*
X237701379Y-132986566D01*
X237695948Y-133002158D01*
X237690502Y-133017733D01*
X237685037Y-133033301D01*
X237679558Y-133048850D01*
X237674059Y-133064393D01*
X237668546Y-133079918D01*
X237663014Y-133095436D01*
X237657467Y-133110937D01*
X237651901Y-133126430D01*
X237646320Y-133141906D01*
X237640721Y-133157375D01*
X237635106Y-133172826D01*
X237629473Y-133188270D01*
X237623825Y-133203696D01*
X237618158Y-133219116D01*
X237612477Y-133234518D01*
X237606776Y-133249912D01*
X237601061Y-133265290D01*
X237595327Y-133280660D01*
X237589579Y-133296013D01*
X237583811Y-133311358D01*
X237578029Y-133326687D01*
X237572228Y-133342008D01*
X237566412Y-133357311D01*
X237560578Y-133372608D01*
X237554728Y-133387887D01*
X237548860Y-133403160D01*
X237542978Y-133418414D01*
X237537076Y-133433662D01*
X237531160Y-133448893D01*
X237525225Y-133464116D01*
X237519275Y-133479322D01*
X237513307Y-133494521D01*
X237507324Y-133509702D01*
X237501322Y-133524877D01*
X237495305Y-133540034D01*
X237489270Y-133555184D01*
X237483220Y-133570317D01*
X237477152Y-133585443D01*
X237471069Y-133600552D01*
X237464967Y-133615653D01*
X237458850Y-133630738D01*
X237452715Y-133645815D01*
X237446565Y-133660875D01*
X237440396Y-133675928D01*
X237434213Y-133690964D01*
X237428011Y-133705993D01*
X237421794Y-133721005D01*
X237415559Y-133736009D01*
X237409309Y-133750997D01*
X237403041Y-133765977D01*
X237396757Y-133780941D01*
X237390456Y-133795897D01*
X237384139Y-133810837D01*
X237377804Y-133825769D01*
X237371454Y-133840684D01*
X237365086Y-133855592D01*
X237358703Y-133870483D01*
X237352301Y-133885367D01*
X237345885Y-133900234D01*
X237339451Y-133915094D01*
X237333001Y-133929938D01*
X237326533Y-133944773D01*
X237320051Y-133959593D01*
X237313549Y-133974404D01*
X237307034Y-133989200D01*
X237300499Y-134003988D01*
X237293950Y-134018759D01*
X237287383Y-134033523D01*
X237280801Y-134048270D01*
X237274200Y-134063010D01*
X237267585Y-134077734D01*
X237260951Y-134092450D01*
X237254302Y-134107150D01*
X237247636Y-134121842D01*
X237240954Y-134136518D01*
X237234254Y-134151186D01*
X237227539Y-134165838D01*
X237220806Y-134180483D01*
X237214058Y-134195111D01*
X237207292Y-134209732D01*
X237200511Y-134224336D01*
X237193712Y-134238933D01*
X237186898Y-134253514D01*
X237180065Y-134268087D01*
X237173218Y-134282644D01*
X237166353Y-134297194D01*
X237159473Y-134311727D01*
X237152574Y-134326253D01*
X237145661Y-134340763D01*
X237138729Y-134355265D01*
X237131783Y-134369751D01*
X237124818Y-134384229D01*
X237117839Y-134398692D01*
X237110841Y-134413147D01*
X237103829Y-134427586D01*
X237096798Y-134442017D01*
X237089752Y-134456432D01*
X237082689Y-134470840D01*
X237075610Y-134485232D01*
X237068513Y-134499616D01*
X237061402Y-134513984D01*
X237054272Y-134528345D01*
X237047127Y-134542690D01*
X237039965Y-134557027D01*
X237032787Y-134571348D01*
X237025591Y-134585662D01*
X237018381Y-134599960D01*
X237011152Y-134614250D01*
X237003908Y-134628525D01*
X236996646Y-134642791D01*
X236989370Y-134657042D01*
X236982075Y-134671286D01*
X236971672Y-134691522D01*
D11*
X123292444Y-73880800D02*
X123292444Y-91880800D01*
X182792445Y-103630800D02*
X195792445Y-103630800D01*
D12*
X72311200Y-106630800D02*
G75*
G02*
X68811200Y-106630800I-1750000J0D01*
G01*
X68811200Y-106630800D02*
G75*
G02*
X72311200Y-106630800I1750000J0D01*
G01*
D10*
X188649352Y-135712460D02*
X188461641Y-135585309D01*
X188256912Y-135446538D01*
X188027124Y-135290691D01*
X187754291Y-135105562D01*
X187462463Y-134907492D01*
X187251044Y-134763993D01*
X187039481Y-134620418D01*
X186827764Y-134476782D01*
X186615886Y-134333102D01*
X186509884Y-134261250D01*
X186403838Y-134189393D01*
X186297749Y-134117533D01*
X186191613Y-134045672D01*
X186085432Y-133973811D01*
X185979202Y-133901954D01*
X185872924Y-133830101D01*
X185766597Y-133758256D01*
X185660219Y-133686419D01*
X185553790Y-133614593D01*
X185447307Y-133542780D01*
X185340771Y-133470982D01*
X185234181Y-133399201D01*
X185127534Y-133327439D01*
X185020831Y-133255698D01*
X184914070Y-133183980D01*
X184807250Y-133112286D01*
X184700370Y-133040620D01*
X184593430Y-132968983D01*
X184486427Y-132897376D01*
X184379362Y-132825803D01*
X184272233Y-132754264D01*
X184165038Y-132682763D01*
X184057778Y-132611300D01*
X183950450Y-132539879D01*
X183843054Y-132468500D01*
X183735590Y-132397166D01*
X183628055Y-132325880D01*
X183574261Y-132290255D01*
X183520449Y-132254642D01*
X183466619Y-132219042D01*
X183412770Y-132183456D01*
X183358904Y-132147882D01*
X183305019Y-132112322D01*
X183251115Y-132076776D01*
X183197193Y-132041243D01*
X183143252Y-132005725D01*
X183089292Y-131970222D01*
X183035313Y-131934733D01*
X182981314Y-131899259D01*
X182927297Y-131863801D01*
X182873260Y-131828358D01*
X182819203Y-131792931D01*
X182765126Y-131757520D01*
X182711030Y-131722125D01*
X182656914Y-131686746D01*
X182602777Y-131651384D01*
X182548621Y-131616040D01*
X182494444Y-131580712D01*
X182440246Y-131545402D01*
X182386028Y-131510110D01*
X182331789Y-131474836D01*
X182277529Y-131439580D01*
X182223249Y-131404343D01*
X182168947Y-131369124D01*
X182114624Y-131333925D01*
X182060279Y-131298745D01*
X182005913Y-131263584D01*
X181951525Y-131228443D01*
X181897115Y-131193322D01*
X181842684Y-131158221D01*
X181788230Y-131123141D01*
X181733755Y-131088081D01*
X181679257Y-131053043D01*
X181624736Y-131018026D01*
X181570193Y-130983030D01*
X181515628Y-130948056D01*
X181461039Y-130913105D01*
X181406428Y-130878175D01*
X181351793Y-130843268D01*
X181297136Y-130808384D01*
X181242455Y-130773523D01*
X181187750Y-130738685D01*
X181133022Y-130703870D01*
X181078270Y-130669080D01*
X181023495Y-130634313D01*
X180968695Y-130599571D01*
X180913872Y-130564853D01*
X180859024Y-130530160D01*
X180804151Y-130495492D01*
X180749255Y-130460849D01*
X180694333Y-130426232D01*
X180639387Y-130391641D01*
X180584416Y-130357075D01*
X180529420Y-130322536D01*
X180474399Y-130288024D01*
X180419353Y-130253538D01*
X180364281Y-130219079D01*
X180309184Y-130184648D01*
X180254061Y-130150244D01*
X180198912Y-130115868D01*
X180143738Y-130081520D01*
X180088537Y-130047200D01*
X180033310Y-130012909D01*
X179978057Y-129978646D01*
X179922778Y-129944413D01*
X179867472Y-129910209D01*
X179812139Y-129876034D01*
X179756780Y-129841889D01*
X179701393Y-129807775D01*
X179645980Y-129773690D01*
X179590539Y-129739636D01*
X179535071Y-129705613D01*
X179479576Y-129671621D01*
X179424053Y-129637660D01*
X179368502Y-129603731D01*
X179312923Y-129569833D01*
X179257317Y-129535968D01*
X179201682Y-129502135D01*
X179146020Y-129468334D01*
X179090328Y-129434567D01*
X179034609Y-129400832D01*
X178978861Y-129367131D01*
X178923084Y-129333463D01*
X178867278Y-129299829D01*
X178811443Y-129266229D01*
X178755579Y-129232663D01*
X178699686Y-129199132D01*
X178643764Y-129165636D01*
X178587812Y-129132174D01*
X178531830Y-129098748D01*
X178475818Y-129065358D01*
X178419777Y-129032003D01*
X178363706Y-128998685D01*
X178307604Y-128965402D01*
X178251473Y-128932157D01*
X178195310Y-128898948D01*
X178139118Y-128865776D01*
X178082894Y-128832642D01*
X178026640Y-128799545D01*
X177970355Y-128766485D01*
X177914039Y-128733464D01*
X177857692Y-128700482D01*
X177801313Y-128667537D01*
X177744903Y-128634632D01*
X177688462Y-128601766D01*
X177631988Y-128568939D01*
X177575483Y-128536151D01*
X177518946Y-128503404D01*
X177462377Y-128470696D01*
X177405776Y-128438029D01*
X177349142Y-128405402D01*
X177292476Y-128372816D01*
X177235778Y-128340271D01*
X177179046Y-128307768D01*
X177122282Y-128275306D01*
X177065485Y-128242886D01*
X177008654Y-128210508D01*
X176951791Y-128178172D01*
X176894894Y-128145879D01*
X176837963Y-128113629D01*
X176780999Y-128081421D01*
X176724002Y-128049258D01*
X176666970Y-128017137D01*
X176609904Y-127985061D01*
X176552804Y-127953028D01*
X176495670Y-127921040D01*
X176438502Y-127889097D01*
X176381299Y-127857198D01*
X176324061Y-127825344D01*
X176266789Y-127793536D01*
X176209481Y-127761773D01*
X176152139Y-127730056D01*
X176094762Y-127698385D01*
X176037349Y-127666761D01*
X175979901Y-127635183D01*
X175922417Y-127603652D01*
X175864897Y-127572168D01*
X175807342Y-127540731D01*
X175749751Y-127509342D01*
X175692124Y-127478001D01*
X175634460Y-127446708D01*
X175576760Y-127415463D01*
X175519024Y-127384267D01*
X175461251Y-127353119D01*
X175403442Y-127322021D01*
X175345595Y-127290972D01*
X175287712Y-127259973D01*
X175229792Y-127229023D01*
X175171834Y-127198124D01*
X175113839Y-127167275D01*
X175055807Y-127136476D01*
X174997737Y-127105728D01*
X174939629Y-127075032D01*
X174881483Y-127044387D01*
X174823299Y-127013793D01*
X174765078Y-126983251D01*
X174706818Y-126952761D01*
X174648519Y-126922324D01*
X174590182Y-126891939D01*
X174531807Y-126861607D01*
X174473392Y-126831329D01*
X174414939Y-126801103D01*
X174356447Y-126770931D01*
X174297916Y-126740813D01*
X174239345Y-126710749D01*
X174180735Y-126680740D01*
X174122085Y-126650785D01*
X174063396Y-126620884D01*
X174004667Y-126591039D01*
X173945898Y-126561250D01*
X173887089Y-126531516D01*
X173828240Y-126501837D01*
X173769350Y-126472215D01*
X173710420Y-126442649D01*
X173651449Y-126413140D01*
X173592438Y-126383688D01*
X173533386Y-126354293D01*
X173474293Y-126324955D01*
X173415159Y-126295675D01*
X173355984Y-126266452D01*
X173296767Y-126237288D01*
D11*
X182792445Y-62349220D02*
X182792445Y-73880800D01*
D10*
X98927740Y-145346253D02*
X98880705Y-145358283D01*
X98833651Y-145370236D01*
X98786577Y-145382111D01*
X98739484Y-145393908D01*
X98692372Y-145405628D01*
X98645240Y-145417270D01*
X98598090Y-145428834D01*
X98550920Y-145440321D01*
X98503731Y-145451730D01*
X98456523Y-145463061D01*
X98409297Y-145474315D01*
X98362051Y-145485491D01*
X98314787Y-145496589D01*
X98267504Y-145507609D01*
X98220203Y-145518551D01*
X98172883Y-145529416D01*
X98125545Y-145540203D01*
X98078188Y-145550912D01*
X98030813Y-145561543D01*
X97983420Y-145572096D01*
X97936009Y-145582571D01*
X97888579Y-145592968D01*
X97841132Y-145603288D01*
X97793666Y-145613529D01*
X97746183Y-145623692D01*
X97698682Y-145633778D01*
X97651163Y-145643785D01*
X97603627Y-145653715D01*
X97556072Y-145663566D01*
X97508501Y-145673339D01*
X97460912Y-145683034D01*
X97413305Y-145692652D01*
X97365682Y-145702191D01*
X97318040Y-145711651D01*
X97270382Y-145721034D01*
X97222707Y-145730339D01*
X97175015Y-145739565D01*
X97127305Y-145748713D01*
X97079579Y-145757783D01*
X97031836Y-145766775D01*
X96984077Y-145775688D01*
X96936300Y-145784523D01*
X96888508Y-145793280D01*
X96840698Y-145801959D01*
X96792872Y-145810559D01*
X96745030Y-145819081D01*
X96697171Y-145827525D01*
X96649297Y-145835890D01*
X96601406Y-145844177D01*
X96553499Y-145852385D01*
X96505576Y-145860515D01*
X96457637Y-145868567D01*
X96409682Y-145876540D01*
X96361712Y-145884435D01*
X96313725Y-145892251D01*
X96265723Y-145899989D01*
X96217706Y-145907648D01*
X96169673Y-145915228D01*
X96121625Y-145922730D01*
X96073561Y-145930154D01*
X96025482Y-145937499D01*
X95977388Y-145944765D01*
X95929278Y-145951953D01*
X95881154Y-145959062D01*
X95833015Y-145966092D01*
X95784861Y-145973044D01*
X95736692Y-145979917D01*
X95688508Y-145986711D01*
X95640309Y-145993427D01*
X95592096Y-146000064D01*
X95543869Y-146006622D01*
X95495627Y-146013101D01*
X95447370Y-146019502D01*
X95399100Y-146025824D01*
X95350815Y-146032067D01*
X95302516Y-146038231D01*
X95254203Y-146044316D01*
X95205876Y-146050323D01*
X95157535Y-146056250D01*
X95109180Y-146062099D01*
X95060811Y-146067868D01*
X95012429Y-146073559D01*
X94964033Y-146079171D01*
X94915623Y-146084704D01*
X94867201Y-146090158D01*
X94818764Y-146095533D01*
X94770315Y-146100829D01*
X94721852Y-146106045D01*
X94673376Y-146111183D01*
X94624887Y-146116242D01*
X94576385Y-146121222D01*
X94527870Y-146126122D01*
X94479342Y-146130944D01*
X94430801Y-146135686D01*
X94382248Y-146140349D01*
X94333682Y-146144933D01*
X94285103Y-146149438D01*
X94236512Y-146153864D01*
X94187909Y-146158210D01*
X94139293Y-146162478D01*
X94090665Y-146166666D01*
X94042025Y-146170774D01*
X93993373Y-146174804D01*
X93944709Y-146178754D01*
X93896033Y-146182625D01*
X93847345Y-146186417D01*
X93798646Y-146190129D01*
X93749934Y-146193762D01*
X93701211Y-146197316D01*
X93652477Y-146200790D01*
X93603731Y-146204185D01*
X93554974Y-146207500D01*
X93506205Y-146210737D01*
X93457425Y-146213893D01*
X93408635Y-146216970D01*
X93359833Y-146219968D01*
X93311020Y-146222886D01*
X93262196Y-146225725D01*
X93213361Y-146228484D01*
X93164516Y-146231164D01*
X93115660Y-146233764D01*
X93066793Y-146236285D01*
X93017916Y-146238726D01*
X92969028Y-146241088D01*
X92920130Y-146243369D01*
X92871222Y-146245572D01*
X92822304Y-146247694D01*
X92773375Y-146249738D01*
X92724437Y-146251701D01*
X92675488Y-146253585D01*
X92626530Y-146255389D01*
X92577562Y-146257113D01*
X92528584Y-146258758D01*
X92479597Y-146260323D01*
X92430600Y-146261808D01*
X92381593Y-146263213D01*
X92332577Y-146264539D01*
X92283552Y-146265785D01*
X92234518Y-146266951D01*
X92185474Y-146268037D01*
X92136422Y-146269044D01*
X92087360Y-146269970D01*
X92038290Y-146270817D01*
X91989211Y-146271584D01*
X91940123Y-146272271D01*
X91891026Y-146272878D01*
X91841921Y-146273406D01*
X91792807Y-146273853D01*
X91743685Y-146274220D01*
X91694555Y-146274508D01*
X91645416Y-146274715D01*
X91596269Y-146274843D01*
X91547114Y-146274891D01*
X91542444Y-146274891D01*
X127873926Y-128908072D02*
X127801337Y-128951022D01*
X127728525Y-128994196D01*
X127655486Y-129037597D01*
X127582217Y-129081228D01*
X127508713Y-129125092D01*
X127434969Y-129169192D01*
X127360982Y-129213531D01*
X127286746Y-129258112D01*
X127212256Y-129302937D01*
X127137509Y-129348012D01*
X127062498Y-129393338D01*
X126987219Y-129438920D01*
X126911666Y-129484761D01*
X126835834Y-129530865D01*
X126759716Y-129577236D01*
X126683308Y-129623877D01*
X126606603Y-129670793D01*
X126529594Y-129717988D01*
X126452276Y-129765467D01*
X126374641Y-129813233D01*
X126296683Y-129861292D01*
X126218395Y-129909649D01*
X126139768Y-129958308D01*
X126060796Y-130007275D01*
X125981470Y-130056555D01*
X125901782Y-130106154D01*
X125821724Y-130156077D01*
X125741286Y-130206331D01*
X125660459Y-130256922D01*
X125579235Y-130307857D01*
X125497602Y-130359141D01*
X125415550Y-130410783D01*
X125333069Y-130462789D01*
X125250147Y-130515168D01*
X125166772Y-130567926D01*
X125082932Y-130621074D01*
X124998614Y-130674619D01*
X124913805Y-130728570D01*
X124828491Y-130782937D01*
X124742656Y-130837731D01*
X124656286Y-130892960D01*
X124569364Y-130948638D01*
X124481872Y-131004774D01*
X124393794Y-131061382D01*
X124305110Y-131118474D01*
X124215800Y-131176064D01*
X124125843Y-131234165D01*
X124035217Y-131292794D01*
X123943898Y-131351965D01*
X123851862Y-131411697D01*
X123759082Y-131472006D01*
X123665529Y-131532913D01*
X123571174Y-131594436D01*
X123475984Y-131656599D01*
X123379926Y-131719424D01*
X123282963Y-131782936D01*
X123185056Y-131847161D01*
X123086163Y-131912129D01*
X122986237Y-131977870D01*
X122885230Y-132044418D01*
X122783089Y-132111808D01*
X122679755Y-132180080D01*
X122575166Y-132249277D01*
X122469254Y-132319444D01*
X122361941Y-132390635D01*
X122253146Y-132462904D01*
X122142777Y-132536315D01*
X122030730Y-132610936D01*
X121916893Y-132686845D01*
X121801137Y-132764128D01*
X121683318Y-132842885D01*
X121563273Y-132923224D01*
X121440813Y-133005275D01*
X121315723Y-133089184D01*
X121187750Y-133175122D01*
X121056597Y-133263290D01*
X120921912Y-133353928D01*
X120783267Y-133447325D01*
X120640138Y-133543838D01*
X120491869Y-133643911D01*
X120337619Y-133748116D01*
X120176275Y-133857208D01*
X120006313Y-133972220D01*
X119825542Y-134094640D01*
X119630590Y-134226756D01*
X119415743Y-134372446D01*
X119169707Y-134539376D01*
X118862560Y-134747850D01*
X118732099Y-134836412D01*
X118506581Y-134989500D01*
X118281189Y-135142475D01*
X118055913Y-135295318D01*
X117943314Y-135371684D01*
X117830741Y-135448009D01*
X117718190Y-135524292D01*
X117605661Y-135600530D01*
X117493152Y-135676720D01*
X117380663Y-135752861D01*
X117268191Y-135828949D01*
X117155734Y-135904982D01*
X117043293Y-135980958D01*
X116930865Y-136056875D01*
X116818448Y-136132729D01*
X116706042Y-136208520D01*
X116593645Y-136284243D01*
X116481256Y-136359898D01*
X116368873Y-136435480D01*
X116256494Y-136510989D01*
X116144119Y-136586422D01*
X116031745Y-136661775D01*
X115919373Y-136737048D01*
X115806999Y-136812236D01*
X115694623Y-136887339D01*
X115582243Y-136962353D01*
X115526051Y-136999827D01*
X115469857Y-137037277D01*
X115413662Y-137074704D01*
X115357466Y-137112107D01*
X115301267Y-137149486D01*
X115245066Y-137186842D01*
X115188862Y-137224172D01*
X115132656Y-137261478D01*
X115076448Y-137298759D01*
X115020236Y-137336014D01*
X114964022Y-137373244D01*
X114907804Y-137410447D01*
X114851582Y-137447624D01*
X114795358Y-137484775D01*
X114739129Y-137521899D01*
X114682896Y-137558995D01*
X114626660Y-137596064D01*
X114570418Y-137633105D01*
X114514173Y-137670118D01*
X114457923Y-137707103D01*
X114401667Y-137744059D01*
X114345407Y-137780985D01*
X114289142Y-137817883D01*
X114232871Y-137854751D01*
X114176595Y-137891589D01*
X114120313Y-137928396D01*
X114064025Y-137965173D01*
X114007731Y-138001920D01*
X113951431Y-138038635D01*
X113895124Y-138075318D01*
X113838811Y-138111970D01*
X113782491Y-138148590D01*
X113726164Y-138185178D01*
X113669830Y-138221733D01*
X113613488Y-138258255D01*
X113557139Y-138294744D01*
X113500782Y-138331199D01*
X113444418Y-138367620D01*
X113388045Y-138404008D01*
X113331664Y-138440360D01*
X113275275Y-138476678D01*
X113218877Y-138512961D01*
X113162470Y-138549209D01*
X113106055Y-138585421D01*
X113049630Y-138621597D01*
X112993196Y-138657737D01*
X112936753Y-138693840D01*
X112880300Y-138729907D01*
X112823837Y-138765936D01*
X112767364Y-138801928D01*
X112710881Y-138837882D01*
X112654388Y-138873798D01*
X112597884Y-138909675D01*
X112541370Y-138945514D01*
X112484844Y-138981314D01*
X112428308Y-139017075D01*
X112371760Y-139052796D01*
X112315201Y-139088477D01*
X112258631Y-139124118D01*
X112202048Y-139159719D01*
X112145454Y-139195279D01*
X112088847Y-139230798D01*
X112032228Y-139266275D01*
X111975597Y-139301711D01*
X111918953Y-139337105D01*
X111862297Y-139372456D01*
X111805627Y-139407765D01*
X111748944Y-139443031D01*
X111692248Y-139478254D01*
X111635538Y-139513434D01*
X111578814Y-139548569D01*
X111522077Y-139583661D01*
D11*
X67554934Y-103630800D02*
X72792444Y-103630800D01*
D10*
X68007734Y-131745240D02*
X67999782Y-131712987D01*
X67991896Y-131680671D01*
X67984077Y-131648291D01*
X67976325Y-131615848D01*
X67968641Y-131583341D01*
X67961023Y-131550769D01*
X67953472Y-131518134D01*
X67945988Y-131485434D01*
X67938572Y-131452670D01*
X67931223Y-131419842D01*
X67923942Y-131386948D01*
X67916728Y-131353990D01*
X67909582Y-131320968D01*
X67902503Y-131287880D01*
X67895493Y-131254727D01*
X67888550Y-131221508D01*
X67881675Y-131188225D01*
X67874869Y-131154875D01*
X67868130Y-131121460D01*
X67861460Y-131087980D01*
X67854858Y-131054433D01*
X67848325Y-131020820D01*
X67841861Y-130987141D01*
X67835465Y-130953396D01*
X67829138Y-130919584D01*
X67822879Y-130885705D01*
X67816690Y-130851760D01*
X67810570Y-130817748D01*
X67804519Y-130783669D01*
X67798537Y-130749523D01*
X67792625Y-130715310D01*
X67786782Y-130681029D01*
X67781009Y-130646680D01*
X67775306Y-130612264D01*
X67769672Y-130577781D01*
X67764109Y-130543229D01*
X67758615Y-130508609D01*
X67753191Y-130473921D01*
X67747838Y-130439165D01*
X67742555Y-130404340D01*
X67737343Y-130369447D01*
X67732201Y-130334485D01*
X67727130Y-130299455D01*
X67722129Y-130264355D01*
X67717200Y-130229186D01*
X67712342Y-130193948D01*
X67707554Y-130158641D01*
X67702839Y-130123264D01*
X67698194Y-130087817D01*
X67693621Y-130052301D01*
X67689120Y-130016715D01*
X67684690Y-129981059D01*
X67680332Y-129945333D01*
X67676046Y-129909536D01*
X67671833Y-129873669D01*
X67667691Y-129837732D01*
X67663622Y-129801724D01*
X67659625Y-129765645D01*
X67655701Y-129729496D01*
X67651850Y-129693275D01*
X67648071Y-129656983D01*
X67644366Y-129620620D01*
X67640733Y-129584185D01*
X67637174Y-129547679D01*
X67633688Y-129511101D01*
X67630276Y-129474452D01*
X67626937Y-129437730D01*
X67623672Y-129400937D01*
X67620481Y-129364071D01*
X67617364Y-129327133D01*
X67614321Y-129290122D01*
X67611352Y-129253039D01*
X67608457Y-129215884D01*
X67605638Y-129178655D01*
X67602892Y-129141354D01*
X67600222Y-129103979D01*
X67597627Y-129066531D01*
X67595106Y-129029010D01*
X67592661Y-128991416D01*
X67590291Y-128953748D01*
X67587997Y-128916006D01*
X67585778Y-128878191D01*
X67583635Y-128840301D01*
X67581568Y-128802338D01*
X67579577Y-128764300D01*
X67577662Y-128726188D01*
X67575823Y-128688002D01*
X67574061Y-128649741D01*
X67572376Y-128611406D01*
X67570767Y-128572995D01*
X67569235Y-128534510D01*
X67567780Y-128495950D01*
X67566403Y-128457315D01*
X67565103Y-128418604D01*
X67563880Y-128379818D01*
X67562734Y-128340957D01*
X67561667Y-128302020D01*
X67560677Y-128263007D01*
X67559766Y-128223919D01*
X67558933Y-128184754D01*
X67558178Y-128145513D01*
X67557501Y-128106197D01*
X67556903Y-128066804D01*
X67556385Y-128027334D01*
X67555944Y-127987788D01*
X67555584Y-127948165D01*
X67555302Y-127908466D01*
X67555100Y-127868690D01*
X67554977Y-127828836D01*
X67554934Y-127788906D01*
X67554934Y-127787380D01*
D12*
X205811200Y-137630800D02*
G75*
G02*
X202311200Y-137630800I-1750000J0D01*
G01*
X202311200Y-137630800D02*
G75*
G02*
X205811200Y-137630800I1750000J0D01*
G01*
D11*
X98927740Y-145346253D02*
X103480093Y-143814442D01*
D10*
X230101438Y-141764446D02*
X230061796Y-141789667D01*
X230022097Y-141814829D01*
X229982340Y-141839934D01*
X229942525Y-141864980D01*
X229902653Y-141889967D01*
X229862725Y-141914896D01*
X229822739Y-141939766D01*
X229782697Y-141964577D01*
X229742598Y-141989329D01*
X229702443Y-142014022D01*
X229662232Y-142038656D01*
X229621965Y-142063230D01*
X229581641Y-142087744D01*
X229541263Y-142112198D01*
X229500828Y-142136593D01*
X229460339Y-142160928D01*
X229419794Y-142185202D01*
X229379194Y-142209416D01*
X229338540Y-142233570D01*
X229297831Y-142257662D01*
X229257067Y-142281695D01*
X229216250Y-142305666D01*
X229175378Y-142329576D01*
X229134452Y-142353425D01*
X229093473Y-142377213D01*
X229052440Y-142400940D01*
X229011354Y-142424605D01*
X228970214Y-142448208D01*
X228929022Y-142471749D01*
X228887777Y-142495228D01*
X228846480Y-142518646D01*
X228805130Y-142542001D01*
X228763727Y-142565293D01*
X228722273Y-142588523D01*
X228680767Y-142611691D01*
X228639209Y-142634795D01*
X228597600Y-142657837D01*
X228555940Y-142680815D01*
X228514229Y-142703731D01*
X228472466Y-142726583D01*
X228430653Y-142749372D01*
X228388790Y-142772097D01*
X228346876Y-142794758D01*
X228304913Y-142817355D01*
X228262899Y-142839889D01*
X228220836Y-142862358D01*
X228178723Y-142884763D01*
X228136561Y-142907104D01*
X228094350Y-142929380D01*
X228052090Y-142951591D01*
X228009781Y-142973738D01*
X227967424Y-142995820D01*
X227925019Y-143017836D01*
X227882565Y-143039788D01*
X227840064Y-143061674D01*
X227797515Y-143083495D01*
X227754919Y-143105250D01*
X227712275Y-143126939D01*
X227669585Y-143148563D01*
X227626847Y-143170121D01*
X227584063Y-143191612D01*
X227541233Y-143213037D01*
X227498356Y-143234397D01*
X227455433Y-143255689D01*
X227412465Y-143276915D01*
X227369451Y-143298074D01*
X227326392Y-143319167D01*
X227283288Y-143340192D01*
X227240138Y-143361150D01*
X227196944Y-143382042D01*
X227153706Y-143402865D01*
X227110423Y-143423622D01*
X227067096Y-143444310D01*
X227023726Y-143464931D01*
X226980312Y-143485484D01*
X226936854Y-143505969D01*
X226893353Y-143526386D01*
X226849810Y-143546735D01*
X226806223Y-143567016D01*
X226762594Y-143587228D01*
X226718923Y-143607371D01*
X226675210Y-143627446D01*
X226631455Y-143647452D01*
X226587658Y-143667389D01*
X226543820Y-143687257D01*
X226499941Y-143707056D01*
X226456021Y-143726785D01*
X226412060Y-143746445D01*
X226368059Y-143766036D01*
X226324017Y-143785557D01*
X226279935Y-143805008D01*
X226235814Y-143824389D01*
X226191653Y-143843701D01*
X226147452Y-143862942D01*
X226103213Y-143882113D01*
X226058935Y-143901213D01*
X226014618Y-143920244D01*
X225970262Y-143939203D01*
X225925869Y-143958092D01*
X225881437Y-143976910D01*
X225836968Y-143995657D01*
X225792461Y-144014334D01*
X225747917Y-144032939D01*
X225703336Y-144051473D01*
X225658719Y-144069935D01*
X225614064Y-144088326D01*
X225569374Y-144106646D01*
X225524647Y-144124893D01*
X225479885Y-144143069D01*
X225435087Y-144161174D01*
X225390253Y-144179206D01*
X225345385Y-144197166D01*
X225300481Y-144215054D01*
X225255543Y-144232869D01*
X225210571Y-144250612D01*
X225165564Y-144268283D01*
X225120523Y-144285881D01*
X225075449Y-144303406D01*
X225030342Y-144320858D01*
X224985201Y-144338238D01*
X224940027Y-144355544D01*
X224894820Y-144372777D01*
X224849582Y-144389937D01*
X224804310Y-144407024D01*
X224759007Y-144424037D01*
X224713672Y-144440977D01*
X224668306Y-144457843D01*
X224622908Y-144474636D01*
X224577480Y-144491354D01*
X224532020Y-144507999D01*
X224486531Y-144524569D01*
X224441011Y-144541066D01*
X224395460Y-144557488D01*
X224349881Y-144573836D01*
X224304271Y-144590109D01*
X224258633Y-144606308D01*
X224212965Y-144622433D01*
X224167269Y-144638483D01*
X224121544Y-144654458D01*
X224075790Y-144670358D01*
X224030009Y-144686183D01*
X223984200Y-144701933D01*
X223938364Y-144717608D01*
X223892500Y-144733208D01*
X223846609Y-144748732D01*
X223800691Y-144764181D01*
X223754747Y-144779555D01*
X223708777Y-144794853D01*
X223662781Y-144810075D01*
X223616758Y-144825222D01*
X223570711Y-144840292D01*
X223524638Y-144855287D01*
X223478540Y-144870206D01*
X223455482Y-144877637D01*
X223432417Y-144885049D01*
X223409347Y-144892442D01*
X223386270Y-144899816D01*
X223363187Y-144907170D01*
X223340099Y-144914506D01*
X223317004Y-144921823D01*
X223293903Y-144929120D01*
X223270797Y-144936398D01*
X223247684Y-144943658D01*
X223224566Y-144950898D01*
X223201441Y-144958119D01*
X223178311Y-144965321D01*
X223155175Y-144972504D01*
X223132034Y-144979667D01*
X223108886Y-144986812D01*
X223085734Y-144993937D01*
X223062575Y-145001043D01*
X223039411Y-145008130D01*
X223016241Y-145015197D01*
X222993066Y-145022246D01*
X222969885Y-145029275D01*
X222946698Y-145036285D01*
X222923506Y-145043276D01*
X222900309Y-145050247D01*
X222877106Y-145057200D01*
X222853898Y-145064133D01*
X222830685Y-145071046D01*
X222807466Y-145077941D01*
X222784242Y-145084816D01*
X222761013Y-145091671D01*
X222737779Y-145098508D01*
X222714539Y-145105325D01*
X222691294Y-145112123D01*
X222668045Y-145118901D01*
X222644790Y-145125660D01*
X222621530Y-145132400D01*
X222598265Y-145139121D01*
X222574995Y-145145821D01*
X222551720Y-145152503D01*
X222528441Y-145159165D01*
X222505156Y-145165808D01*
X222481866Y-145172431D01*
X222458572Y-145179035D01*
X222435273Y-145185620D01*
X222411969Y-145192185D01*
X222388660Y-145198731D01*
X222365347Y-145205257D01*
X222342029Y-145211763D01*
X222318706Y-145218251D01*
X222295379Y-145224718D01*
X222272047Y-145231167D01*
X222248711Y-145237596D01*
X222225370Y-145244005D01*
X222202025Y-145250395D01*
X222178675Y-145256765D01*
X222155322Y-145263116D01*
X222131963Y-145269447D01*
X222108600Y-145275758D01*
X222085233Y-145282050D01*
X222061862Y-145288323D01*
X222038486Y-145294576D01*
X222015106Y-145300809D01*
X221991722Y-145307023D01*
X221968334Y-145313217D01*
X221944941Y-145319392D01*
X221921545Y-145325547D01*
X221898144Y-145331682D01*
X221874740Y-145337798D01*
X221851332Y-145343894D01*
X221827920Y-145349970D01*
X221804503Y-145356027D01*
X221781083Y-145362064D01*
X221757659Y-145368082D01*
X221734231Y-145374080D01*
X221710799Y-145380058D01*
X221687364Y-145386016D01*
X221663924Y-145391955D01*
X221640482Y-145397874D01*
X221617035Y-145403774D01*
X221593585Y-145409653D01*
X221570131Y-145415513D01*
X221546674Y-145421354D01*
X221523212Y-145427174D01*
X221499748Y-145432975D01*
X221476280Y-145438756D01*
X221452809Y-145444517D01*
X221429334Y-145450259D01*
X221405856Y-145455980D01*
X221382374Y-145461683D01*
X221358890Y-145467365D01*
X221335401Y-145473027D01*
X221311910Y-145478670D01*
X221288415Y-145484293D01*
X221264918Y-145489896D01*
X221241416Y-145495479D01*
X221217913Y-145501042D01*
X221194405Y-145506586D01*
X221170896Y-145512110D01*
X221147382Y-145517614D01*
X221123866Y-145523098D01*
X221100346Y-145528562D01*
X221076825Y-145534006D01*
X221053299Y-145539431D01*
X221029772Y-145544836D01*
X221006240Y-145550221D01*
X220982708Y-145555585D01*
X220959171Y-145560931D01*
X220935632Y-145566256D01*
X220912090Y-145571561D01*
X220888546Y-145576846D01*
X220864998Y-145582112D01*
X220841449Y-145587357D01*
X220817896Y-145592583D01*
X220794342Y-145597789D01*
X220770784Y-145602975D01*
X220747225Y-145608140D01*
X220723662Y-145613286D01*
X220700098Y-145618412D01*
X220676530Y-145623518D01*
X220652961Y-145628604D01*
X220629388Y-145633671D01*
X220605815Y-145638717D01*
X220582238Y-145643743D01*
X220558660Y-145648749D01*
X220535078Y-145653735D01*
X220511496Y-145658701D01*
X220487910Y-145663648D01*
X220464324Y-145668574D01*
X220440733Y-145673480D01*
X220417143Y-145678366D01*
X220393549Y-145683233D01*
X220369954Y-145688079D01*
X220346356Y-145692905D01*
X220322757Y-145697711D01*
X220299156Y-145702498D01*
X220275553Y-145707264D01*
X220251948Y-145712010D01*
X220228342Y-145716736D01*
X220204733Y-145721442D01*
X220181123Y-145726128D01*
X220157511Y-145730794D01*
X220133898Y-145735439D01*
X220110282Y-145740065D01*
X220086666Y-145744671D01*
X220063047Y-145749257D01*
X220039428Y-145753822D01*
X220015806Y-145758368D01*
X219992184Y-145762893D01*
X219968559Y-145767398D01*
X219944934Y-145771883D01*
X219921306Y-145776349D01*
X219897679Y-145780794D01*
X219874048Y-145785219D01*
X219850418Y-145789623D01*
X219826785Y-145794008D01*
X219803152Y-145798372D01*
X219779517Y-145802717D01*
X219755882Y-145807041D01*
X219732244Y-145811346D01*
X219708607Y-145815630D01*
X219684967Y-145819894D01*
X219661327Y-145824137D01*
X219637685Y-145828361D01*
X219614044Y-145832564D01*
X219590400Y-145836748D01*
X219566757Y-145840911D01*
X219543111Y-145845054D01*
X219519466Y-145849177D01*
X219495818Y-145853280D01*
X219472172Y-145857362D01*
X219448523Y-145861425D01*
X219424875Y-145865467D01*
X219401224Y-145869489D01*
X219377575Y-145873491D01*
X219353923Y-145877473D01*
X219330272Y-145881434D01*
X219306619Y-145885376D01*
X219282968Y-145889297D01*
X219259313Y-145893198D01*
X219235661Y-145897079D01*
X219212006Y-145900939D01*
X219188352Y-145904780D01*
X219164696Y-145908600D01*
X219141042Y-145912400D01*
X219117385Y-145916180D01*
X219093730Y-145919939D01*
X219070073Y-145923679D01*
X219046418Y-145927398D01*
X219022760Y-145931097D01*
X218999105Y-145934775D01*
X218975447Y-145938434D01*
X218967274Y-145939693D01*
X71407568Y-137965353D02*
X71395187Y-137951636D01*
X71382823Y-137937909D01*
X71370482Y-137924178D01*
X71358159Y-137910436D01*
X71345860Y-137896690D01*
X71333577Y-137882934D01*
X71321319Y-137869175D01*
X71309078Y-137855404D01*
X71296860Y-137841631D01*
X71284660Y-137827846D01*
X71272484Y-137814059D01*
X71260325Y-137800260D01*
X71248189Y-137786459D01*
X71236071Y-137772646D01*
X71223977Y-137758831D01*
X71211899Y-137745004D01*
X71199846Y-137731175D01*
X71187810Y-137717335D01*
X71175798Y-137703492D01*
X71163803Y-137689638D01*
X71151831Y-137675781D01*
X71139877Y-137661913D01*
X71127947Y-137648043D01*
X71116034Y-137634161D01*
X71104145Y-137620277D01*
X71092273Y-137606382D01*
X71080425Y-137592485D01*
X71068594Y-137578576D01*
X71056787Y-137564665D01*
X71044998Y-137550743D01*
X71033232Y-137536819D01*
X71021483Y-137522884D01*
X71009758Y-137508946D01*
X70998051Y-137494997D01*
X70986367Y-137481046D01*
X70974701Y-137467084D01*
X70963058Y-137453120D01*
X70951433Y-137439145D01*
X70939831Y-137425168D01*
X70928247Y-137411180D01*
X70916687Y-137397189D01*
X70905144Y-137383188D01*
X70893625Y-137369184D01*
X70882123Y-137355170D01*
X70870645Y-137341153D01*
X70859184Y-137327126D01*
X70847747Y-137313097D01*
X70836328Y-137299057D01*
X70824932Y-137285015D01*
X70813553Y-137270962D01*
X70802199Y-137256907D01*
X70790861Y-137242841D01*
X70779548Y-137228773D01*
X70768252Y-137214695D01*
X70756979Y-137200615D01*
X70745724Y-137186524D01*
X70734493Y-137172431D01*
X70723279Y-137158328D01*
X70712089Y-137144222D01*
X70700917Y-137130106D01*
X70689768Y-137115988D01*
X70678636Y-137101860D01*
X70667529Y-137087729D01*
X70656438Y-137073588D01*
X70645372Y-137059445D01*
X70634323Y-137045292D01*
X70623297Y-137031137D01*
X70612289Y-137016972D01*
X70601305Y-137002804D01*
X70590338Y-136988627D01*
X70579395Y-136974447D01*
X70568470Y-136960258D01*
X70557568Y-136946066D01*
X70546683Y-136931864D01*
X70535822Y-136917660D01*
X70524979Y-136903446D01*
X70514160Y-136889231D01*
X70503358Y-136875005D01*
X70492579Y-136860777D01*
X70481818Y-136846539D01*
X70471081Y-136832300D01*
X70460361Y-136818050D01*
X70449665Y-136803798D01*
X70438987Y-136789537D01*
X70428332Y-136775274D01*
X70417695Y-136761000D01*
X70407081Y-136746725D01*
X70396485Y-136732441D01*
X70385912Y-136718154D01*
X70375357Y-136703857D01*
X70364826Y-136689559D01*
X70354312Y-136675251D01*
X70343822Y-136660941D01*
X70333349Y-136646621D01*
X70322900Y-136632300D01*
X70312468Y-136617969D01*
X70302061Y-136603636D01*
X70291670Y-136589293D01*
X70281303Y-136574949D01*
X70270954Y-136560595D01*
X70260629Y-136546239D01*
X70250321Y-136531874D01*
X70240036Y-136517507D01*
X70229769Y-136503131D01*
X70219526Y-136488752D01*
X70209300Y-136474365D01*
X70199098Y-136459975D01*
X70188914Y-136445576D01*
X70178753Y-136431176D01*
X70168609Y-136416766D01*
X70158489Y-136402354D01*
X70148387Y-136387933D01*
X70138308Y-136373510D01*
X70128247Y-136359078D01*
X70118210Y-136344645D01*
X70108190Y-136330202D01*
X70098193Y-136315757D01*
X70088214Y-136301303D01*
X70078259Y-136286848D01*
X70068321Y-136272383D01*
X70058407Y-136257917D01*
X70048510Y-136243441D01*
X70038637Y-136228964D01*
X70028782Y-136214478D01*
X70018949Y-136199990D01*
X70009135Y-136185493D01*
X69999344Y-136170994D01*
X69989571Y-136156487D01*
X69979821Y-136141977D01*
X69970089Y-136127459D01*
X69960380Y-136112939D01*
X69950689Y-136098411D01*
X69941021Y-136083880D01*
X69931371Y-136069341D01*
X69921744Y-136054800D01*
X69912135Y-136040250D01*
X69902550Y-136025699D01*
X69892982Y-136011139D01*
X69883437Y-135996577D01*
X69873911Y-135982007D01*
X69864407Y-135967435D01*
X69854921Y-135952854D01*
X69845459Y-135938272D01*
X69836014Y-135923681D01*
X69826593Y-135909088D01*
X69817189Y-135894487D01*
X69807809Y-135879884D01*
X69798446Y-135865272D01*
X69789107Y-135850660D01*
X69779785Y-135836038D01*
X69770487Y-135821415D01*
X69761206Y-135806783D01*
X69751949Y-135792150D01*
X69742709Y-135777508D01*
X69733493Y-135762865D01*
X69724294Y-135748214D01*
X69715119Y-135733561D01*
X69705961Y-135718899D01*
X69696827Y-135704236D01*
X69687710Y-135689564D01*
X69678617Y-135674891D01*
X69669541Y-135660210D01*
X69660489Y-135645527D01*
X69651454Y-135630836D01*
X69642443Y-135616143D01*
X69633449Y-135601442D01*
X69624478Y-135586740D01*
X69615526Y-135572029D01*
X69606596Y-135557317D01*
X69597684Y-135542597D01*
X69588795Y-135527875D01*
X69579925Y-135513145D01*
X69571077Y-135498414D01*
X69562247Y-135483674D01*
X69553440Y-135468933D01*
X69544651Y-135454184D01*
X69535885Y-135439433D01*
X69527137Y-135424674D01*
X69518412Y-135409915D01*
X69509705Y-135395146D01*
X69501020Y-135380377D01*
X69492354Y-135365599D01*
X69483711Y-135350820D01*
X69475085Y-135336033D01*
X69466483Y-135321245D01*
X69457898Y-135306448D01*
X69449336Y-135291651D01*
X69440793Y-135276845D01*
X69432272Y-135262038D01*
X69423769Y-135247223D01*
X69415289Y-135232407D01*
X69406827Y-135217583D01*
X69398387Y-135202757D01*
X69389966Y-135187924D01*
X69381568Y-135173089D01*
X69373187Y-135158247D01*
X69364830Y-135143403D01*
X69356490Y-135128551D01*
X69348173Y-135113699D01*
X69339875Y-135098838D01*
X69331598Y-135083976D01*
X69323340Y-135069106D01*
X69315105Y-135054235D01*
X69306888Y-135039356D01*
X69298693Y-135024476D01*
X69290517Y-135009588D01*
X69282363Y-134994700D01*
X69274227Y-134979803D01*
X69266114Y-134964905D01*
X69258019Y-134949999D01*
X69249946Y-134935093D01*
X69241892Y-134920178D01*
X69233860Y-134905263D01*
X69225847Y-134890339D01*
X69217856Y-134875415D01*
X69209883Y-134860483D01*
X69201933Y-134845550D01*
X69194000Y-134830609D01*
X69186091Y-134815667D01*
X69178199Y-134800717D01*
X69170330Y-134785767D01*
X69162479Y-134770809D01*
X69154651Y-134755850D01*
X69146841Y-134740883D01*
X69139053Y-134725915D01*
X69131283Y-134710939D01*
X69123536Y-134695963D01*
X69115807Y-134680979D01*
X69108101Y-134665994D01*
X69100412Y-134651001D01*
X69092746Y-134636008D01*
X69085099Y-134621006D01*
X69077473Y-134606005D01*
X69069866Y-134590995D01*
X69062281Y-134575984D01*
X69054715Y-134560966D01*
X69047170Y-134545947D01*
X69039644Y-134530921D01*
X69032141Y-134515894D01*
X69024655Y-134500858D01*
X69017192Y-134485823D01*
X69009747Y-134470780D01*
X69002325Y-134455736D01*
X68994920Y-134440684D01*
X68987538Y-134425632D01*
X68980174Y-134410572D01*
X68972833Y-134395511D01*
X68965509Y-134380443D01*
X68958208Y-134365374D01*
X68950925Y-134350298D01*
X68943664Y-134335221D01*
X68936422Y-134320136D01*
X68929202Y-134305051D01*
X68922000Y-134289958D01*
X68914820Y-134274865D01*
X68907659Y-134259764D01*
X68900519Y-134244663D01*
X68893398Y-134229554D01*
X68886299Y-134214444D01*
X68879219Y-134199327D01*
X68872160Y-134184210D01*
X68865120Y-134169084D01*
X68858102Y-134153959D01*
X68851102Y-134138826D01*
X68844125Y-134123692D01*
X68837165Y-134108551D01*
X68830228Y-134093409D01*
X68823309Y-134078260D01*
X68816412Y-134063111D01*
X68809533Y-134047954D01*
X68802677Y-134032796D01*
X68795838Y-134017631D01*
X68789022Y-134002466D01*
X68782224Y-133987293D01*
X68775448Y-133972120D01*
X68768690Y-133956939D01*
X68761955Y-133941758D01*
X68755237Y-133926570D01*
X68748542Y-133911381D01*
X68741865Y-133896184D01*
X68735210Y-133880988D01*
X68728573Y-133865784D01*
X68721958Y-133850579D01*
X68715362Y-133835367D01*
X68708787Y-133820155D01*
X68702231Y-133804936D01*
X68695697Y-133789716D01*
X68689181Y-133774488D01*
X68682687Y-133759261D01*
X68676211Y-133744026D01*
X68669757Y-133728791D01*
X68663322Y-133713548D01*
X68656908Y-133698305D01*
X68650513Y-133683055D01*
X68644140Y-133667805D01*
X68637785Y-133652547D01*
X68631451Y-133637289D01*
X68625137Y-133622023D01*
X68618843Y-133606758D01*
X68612569Y-133591485D01*
X68606316Y-133576212D01*
X68600081Y-133560931D01*
X68593869Y-133545651D01*
X68587674Y-133530363D01*
X68581502Y-133515075D01*
X68575348Y-133499779D01*
X68569215Y-133484483D01*
X68563101Y-133469181D01*
X68557008Y-133453877D01*
X68550935Y-133438567D01*
X68544882Y-133423257D01*
X68538848Y-133407939D01*
X68532836Y-133392621D01*
X68526843Y-133377296D01*
X68520870Y-133361971D01*
X68514917Y-133346638D01*
X68508985Y-133331305D01*
X68503071Y-133315965D01*
X68497179Y-133300625D01*
X68491306Y-133285278D01*
X68485454Y-133269931D01*
X68479620Y-133254576D01*
X68473808Y-133239222D01*
X68468015Y-133223860D01*
X68462243Y-133208498D01*
X68456489Y-133193129D01*
X68450757Y-133177760D01*
X68445044Y-133162383D01*
X68439352Y-133147007D01*
X68433679Y-133131624D01*
X68428027Y-133116240D01*
X68422393Y-133100849D01*
X68416781Y-133085458D01*
X68411188Y-133070060D01*
X68405616Y-133054662D01*
X68400063Y-133039257D01*
X68394530Y-133023852D01*
X68389017Y-133008440D01*
X68383525Y-132993027D01*
X68378051Y-132977608D01*
X68372599Y-132962189D01*
X68367166Y-132946762D01*
X68361753Y-132931336D01*
X68356360Y-132915902D01*
X68350987Y-132900468D01*
X68345633Y-132885028D01*
X68340301Y-132869587D01*
X68334987Y-132854139D01*
X68329694Y-132838691D01*
X68324421Y-132823236D01*
X68319168Y-132807782D01*
X68313934Y-132792320D01*
X68308721Y-132776858D01*
X68303527Y-132761389D01*
X68298354Y-132745920D01*
X68293199Y-132730444D01*
X68288066Y-132714968D01*
X68282952Y-132699486D01*
X68277858Y-132684003D01*
X68272784Y-132668513D01*
X68267730Y-132653023D01*
X68262695Y-132637526D01*
X68257682Y-132622030D01*
X68252687Y-132606526D01*
X68247713Y-132591022D01*
X68242758Y-132575512D01*
X68237824Y-132560001D01*
X68232908Y-132544484D01*
X68228014Y-132528966D01*
X68223138Y-132513442D01*
X68218284Y-132497917D01*
X68213448Y-132482386D01*
X68208633Y-132466855D01*
X68203837Y-132451317D01*
X68199062Y-132435779D01*
X68194306Y-132420234D01*
X68189571Y-132404689D01*
X68184854Y-132389137D01*
X68180159Y-132373585D01*
X68175482Y-132358027D01*
X68170826Y-132342468D01*
X68166189Y-132326902D01*
X68161573Y-132311337D01*
X68156976Y-132295765D01*
X68152399Y-132280193D01*
X68147842Y-132264614D01*
X68143305Y-132249035D01*
X68138787Y-132233449D01*
X68134290Y-132217863D01*
X68129812Y-132202271D01*
X68125355Y-132186678D01*
X68120917Y-132171079D01*
X68116499Y-132155479D01*
X68112100Y-132139874D01*
X68107722Y-132124267D01*
X68103363Y-132108655D01*
X68099025Y-132093042D01*
X68094706Y-132077423D01*
X68090407Y-132061803D01*
X68086127Y-132046177D01*
X68081868Y-132030551D01*
X68077628Y-132014918D01*
X68073409Y-131999285D01*
X68069209Y-131983646D01*
X68065029Y-131968006D01*
X68060868Y-131952360D01*
X68056728Y-131936714D01*
X68052607Y-131921061D01*
X68048507Y-131905408D01*
X68044425Y-131889749D01*
X68040364Y-131874089D01*
X68036322Y-131858423D01*
X68032301Y-131842757D01*
X68028299Y-131827085D01*
X68024317Y-131811412D01*
X68020355Y-131795733D01*
X68016413Y-131780053D01*
X68012490Y-131764367D01*
X68007734Y-131745240D01*
D11*
X123292444Y-103630800D02*
X123292444Y-91880800D01*
D12*
X103811200Y-137630800D02*
G75*
G02*
X100311200Y-137630800I-1750000J0D01*
G01*
X100311200Y-137630800D02*
G75*
G02*
X103811200Y-137630800I1750000J0D01*
G01*
D11*
X233292445Y-103630800D02*
X195792445Y-103630800D01*
D12*
X237311200Y-106630800D02*
G75*
G02*
X233811200Y-106630800I-1750000J0D01*
G01*
X233811200Y-106630800D02*
G75*
G02*
X237311200Y-106630800I1750000J0D01*
G01*
X154792445Y-91130800D02*
G75*
G02*
X151292445Y-91130800I-1750000J0D01*
G01*
X151292445Y-91130800D02*
G75*
G02*
X154792445Y-91130800I1750000J0D01*
G01*
D10*
X140952250Y-123016022D02*
X140895573Y-123032705D01*
X140838863Y-123049481D01*
X140782120Y-123066350D01*
X140725344Y-123083313D01*
X140668536Y-123100368D01*
X140611694Y-123117517D01*
X140554818Y-123134760D01*
X140497909Y-123152097D01*
X140440967Y-123169527D01*
X140383990Y-123187051D01*
X140326978Y-123204670D01*
X140269933Y-123222383D01*
X140212853Y-123240190D01*
X140155738Y-123258092D01*
X140098588Y-123276089D01*
X140041403Y-123294180D01*
X139984182Y-123312367D01*
X139926926Y-123330649D01*
X139869634Y-123349026D01*
X139812306Y-123367499D01*
X139754941Y-123386067D01*
X139697541Y-123404731D01*
X139640104Y-123423492D01*
X139582629Y-123442348D01*
X139525118Y-123461301D01*
X139467570Y-123480350D01*
X139409984Y-123499495D01*
X139352361Y-123518738D01*
X139294699Y-123538077D01*
X139237000Y-123557514D01*
X139179262Y-123577048D01*
X139121486Y-123596679D01*
X139063670Y-123616408D01*
X139005816Y-123636234D01*
X138947923Y-123656159D01*
X138889990Y-123676181D01*
X138832018Y-123696302D01*
X138774006Y-123716522D01*
X138715953Y-123736840D01*
X138657861Y-123757257D01*
X138599728Y-123777773D01*
X138541554Y-123798388D01*
X138483339Y-123819102D01*
X138425082Y-123839916D01*
X138366784Y-123860830D01*
X138308445Y-123881843D01*
X138250063Y-123902957D01*
X138191639Y-123924171D01*
X138133173Y-123945486D01*
X138074664Y-123966901D01*
X138016112Y-123988417D01*
X137957517Y-124010034D01*
X137898879Y-124031752D01*
X137840196Y-124053572D01*
X137781470Y-124075493D01*
X137722699Y-124097516D01*
X137663884Y-124119642D01*
X137605025Y-124141869D01*
X137546120Y-124164199D01*
X137487170Y-124186632D01*
X137428174Y-124209167D01*
X137369133Y-124231806D01*
X137310045Y-124254548D01*
X137250911Y-124277393D01*
X137191731Y-124300342D01*
X137132503Y-124323395D01*
X137073229Y-124346552D01*
X137013906Y-124369814D01*
X136954537Y-124393180D01*
X136895119Y-124416651D01*
X136835652Y-124440227D01*
X136776138Y-124463908D01*
X136716574Y-124487695D01*
X136656961Y-124511587D01*
X136597298Y-124535586D01*
X136537586Y-124559690D01*
X136477824Y-124583901D01*
X136418011Y-124608219D01*
X136358147Y-124632644D01*
X136298233Y-124657176D01*
X136238267Y-124681815D01*
X136178249Y-124706562D01*
X136118180Y-124731417D01*
X136058058Y-124756380D01*
X135997883Y-124781451D01*
X135937656Y-124806631D01*
X135877375Y-124831920D01*
X135817041Y-124857318D01*
X135756653Y-124882826D01*
X135696210Y-124908443D01*
X135635713Y-124934170D01*
X135575161Y-124960007D01*
X135514554Y-124985955D01*
X135453890Y-125012014D01*
X135393171Y-125038184D01*
X135332396Y-125064465D01*
X135271563Y-125090858D01*
X135210674Y-125117363D01*
X135149727Y-125143980D01*
X135088723Y-125170709D01*
X135027660Y-125197551D01*
X134966538Y-125224506D01*
X134905358Y-125251575D01*
X134844118Y-125278757D01*
X134782818Y-125306054D01*
X134721458Y-125333464D01*
X134660038Y-125360989D01*
X134598557Y-125388629D01*
X134537014Y-125416385D01*
X134475410Y-125444255D01*
X134413743Y-125472242D01*
X134352014Y-125500345D01*
X134290222Y-125528564D01*
X134228367Y-125556900D01*
X134166447Y-125585354D01*
X134104464Y-125613925D01*
X134042415Y-125642613D01*
X133980302Y-125671420D01*
X133918122Y-125700346D01*
X133855877Y-125729390D01*
X133793565Y-125758554D01*
X133731186Y-125787837D01*
X133668740Y-125817240D01*
X133606226Y-125846763D01*
X133543643Y-125876408D01*
X133480992Y-125906173D01*
X133418271Y-125936060D01*
X133355480Y-125966068D01*
X133292619Y-125996199D01*
X133229687Y-126026452D01*
X133166683Y-126056829D01*
X133103608Y-126087329D01*
X133040460Y-126117952D01*
X132977239Y-126148700D01*
X132913945Y-126179573D01*
X132850576Y-126210570D01*
X132787133Y-126241693D01*
X132723615Y-126272942D01*
X132660021Y-126304317D01*
X132596351Y-126335819D01*
X132532604Y-126367448D01*
X132468780Y-126399205D01*
X132404877Y-126431090D01*
X132340896Y-126463103D01*
X132276836Y-126495245D01*
X132212696Y-126527517D01*
X132148475Y-126559919D01*
X132084174Y-126592451D01*
X132019791Y-126625114D01*
X131955325Y-126657909D01*
X131890776Y-126690835D01*
X131826144Y-126723894D01*
X131761427Y-126757085D01*
X131696626Y-126790410D01*
X131631738Y-126823869D01*
X131566765Y-126857463D01*
X131501704Y-126891191D01*
X131436555Y-126925055D01*
X131371318Y-126959055D01*
X131305992Y-126993192D01*
X131240576Y-127027466D01*
X131175069Y-127061877D01*
X131109470Y-127096427D01*
X131043779Y-127131116D01*
X130977995Y-127165944D01*
X130912118Y-127200913D01*
X130846145Y-127236022D01*
X130780077Y-127271273D01*
X130713913Y-127306665D01*
X130647652Y-127342200D01*
X130581292Y-127377878D01*
X130514834Y-127413701D01*
X130448276Y-127449667D01*
X130381617Y-127485779D01*
X130314857Y-127522037D01*
X130247994Y-127558442D01*
X130181028Y-127594993D01*
X130113958Y-127631693D01*
X130046782Y-127668541D01*
X129979500Y-127705539D01*
X129912110Y-127742687D01*
X129844612Y-127779986D01*
X129777005Y-127817437D01*
X129709288Y-127855040D01*
X129641459Y-127892797D01*
X129573518Y-127930707D01*
X129505463Y-127968772D01*
X129437293Y-128006994D01*
X129369007Y-128045371D01*
X129300605Y-128083906D01*
X129232084Y-128122600D01*
X129163444Y-128161452D01*
X129094683Y-128200465D01*
X129025800Y-128239638D01*
X128956795Y-128278973D01*
X128887665Y-128318472D01*
X128818409Y-128358134D01*
X128749027Y-128397960D01*
X128679516Y-128437953D01*
X128609876Y-128478112D01*
X128540104Y-128518439D01*
X128470200Y-128558935D01*
X128400163Y-128599601D01*
X128329989Y-128640438D01*
X128259679Y-128681447D01*
X128189231Y-128722629D01*
X128118642Y-128763985D01*
X128047912Y-128805517D01*
X127977039Y-128847226D01*
X127906021Y-128889112D01*
X127873926Y-128908072D01*
D11*
X95542444Y-103630800D02*
X72792444Y-103630800D01*
X95542444Y-103630800D02*
X123292444Y-103630800D01*
D10*
X160313036Y-121892948D02*
X160256316Y-121883189D01*
X160199564Y-121873505D01*
X160142782Y-121863897D01*
X160085967Y-121854365D01*
X160029122Y-121844909D01*
X159972247Y-121835529D01*
X159915340Y-121826225D01*
X159858403Y-121816997D01*
X159801436Y-121807845D01*
X159744439Y-121798769D01*
X159687412Y-121789770D01*
X159630356Y-121780847D01*
X159573270Y-121772000D01*
X159516154Y-121763230D01*
X159459010Y-121754536D01*
X159401836Y-121745918D01*
X159344634Y-121737378D01*
X159287404Y-121728913D01*
X159230145Y-121720526D01*
X159172858Y-121712215D01*
X159115543Y-121703981D01*
X159058200Y-121695824D01*
X159000830Y-121687743D01*
X158943432Y-121679740D01*
X158886007Y-121671813D01*
X158828556Y-121663964D01*
X158771077Y-121656191D01*
X158713572Y-121648496D01*
X158656041Y-121640878D01*
X158598483Y-121633337D01*
X158540900Y-121625874D01*
X158483290Y-121618488D01*
X158425656Y-121611179D01*
X158367995Y-121603947D01*
X158310310Y-121596793D01*
X158252600Y-121589717D01*
X158194865Y-121582718D01*
X158137105Y-121575796D01*
X158079322Y-121568953D01*
X158021514Y-121562187D01*
X157963682Y-121555498D01*
X157905826Y-121548888D01*
X157847947Y-121542355D01*
X157790045Y-121535900D01*
X157732119Y-121529524D01*
X157674171Y-121523225D01*
X157616200Y-121517004D01*
X157558206Y-121510861D01*
X157500191Y-121504796D01*
X157442153Y-121498809D01*
X157384093Y-121492901D01*
X157326012Y-121487070D01*
X157267910Y-121481318D01*
X157209786Y-121475645D01*
X157151642Y-121470049D01*
X157093476Y-121464532D01*
X157035290Y-121459093D01*
X156977084Y-121453733D01*
X156918858Y-121448451D01*
X156860612Y-121443248D01*
X156802346Y-121438123D01*
X156744061Y-121433077D01*
X156685756Y-121428110D01*
X156627433Y-121423221D01*
X156569091Y-121418411D01*
X156510730Y-121413679D01*
X156452351Y-121409026D01*
X156393954Y-121404453D01*
X156335538Y-121399958D01*
X156277106Y-121395541D01*
X156218656Y-121391204D01*
X156160188Y-121386946D01*
X156101704Y-121382767D01*
X156043203Y-121378666D01*
X155984685Y-121374645D01*
X155926151Y-121370703D01*
X155867601Y-121366839D01*
X155809035Y-121363055D01*
X155750454Y-121359350D01*
X155691857Y-121355725D01*
X155633245Y-121352178D01*
X155574618Y-121348711D01*
X155515976Y-121345323D01*
X155457320Y-121342014D01*
X155398649Y-121338785D01*
X155339965Y-121335634D01*
X155281266Y-121332564D01*
X155222555Y-121329572D01*
X155163830Y-121326660D01*
X155105091Y-121323828D01*
X155046340Y-121321075D01*
X154987577Y-121318401D01*
X154928801Y-121315807D01*
X154870012Y-121313293D01*
X154811212Y-121310858D01*
X154752401Y-121308503D01*
X154693577Y-121306227D01*
X154634743Y-121304031D01*
X154575898Y-121301914D01*
X154517042Y-121299877D01*
X154458175Y-121297920D01*
X154399298Y-121296043D01*
X154340411Y-121294245D01*
X154281515Y-121292527D01*
X154222609Y-121290888D01*
X154163693Y-121289330D01*
X154104769Y-121287851D01*
X154045836Y-121286452D01*
X153986894Y-121285133D01*
X153927944Y-121283894D01*
X153868986Y-121282734D01*
X153810020Y-121281654D01*
X153751046Y-121280655D01*
X153692065Y-121279735D01*
X153633077Y-121278895D01*
X153574082Y-121278135D01*
X153515081Y-121277455D01*
X153456073Y-121276854D01*
X153397059Y-121276334D01*
X153338039Y-121275894D01*
X153279013Y-121275533D01*
X153219983Y-121275253D01*
X153160947Y-121275052D01*
X153101906Y-121274932D01*
X153042860Y-121274891D01*
X153042445Y-121274891D01*
D11*
X207157150Y-145346253D02*
X202604796Y-143814442D01*
D10*
X153042445Y-121274891D02*
X152984499Y-121274931D01*
X152926539Y-121275051D01*
X152868563Y-121275251D01*
X152810572Y-121275531D01*
X152752566Y-121275891D01*
X152694546Y-121276331D01*
X152636512Y-121276852D01*
X152578464Y-121277452D01*
X152520402Y-121278133D01*
X152462327Y-121278894D01*
X152404238Y-121279735D01*
X152346136Y-121280656D01*
X152288022Y-121281657D01*
X152229895Y-121282739D01*
X152171756Y-121283900D01*
X152113604Y-121285142D01*
X152055441Y-121286465D01*
X151997266Y-121287867D01*
X151939080Y-121289350D01*
X151880882Y-121290913D01*
X151822674Y-121292557D01*
X151764455Y-121294281D01*
X151706225Y-121296085D01*
X151647985Y-121297970D01*
X151589736Y-121299935D01*
X151531476Y-121301980D01*
X151473207Y-121304105D01*
X151414929Y-121306311D01*
X151356642Y-121308598D01*
X151298346Y-121310965D01*
X151240041Y-121313412D01*
X151181728Y-121315940D01*
X151123408Y-121318548D01*
X151065079Y-121321236D01*
X151006743Y-121324005D01*
X150948399Y-121326855D01*
X150890048Y-121329784D01*
X150831691Y-121332795D01*
X150773327Y-121335885D01*
X150714956Y-121339056D01*
X150656579Y-121342308D01*
X150598197Y-121345640D01*
X150539809Y-121349053D01*
X150481415Y-121352546D01*
X150423016Y-121356119D01*
X150364613Y-121359773D01*
X150306205Y-121363507D01*
X150247792Y-121367322D01*
X150189375Y-121371217D01*
X150130954Y-121375193D01*
X150072530Y-121379249D01*
X150014102Y-121383385D01*
X149955671Y-121387602D01*
X149897237Y-121391899D01*
X149838800Y-121396277D01*
X149780361Y-121400735D01*
X149721919Y-121405274D01*
X149663476Y-121409892D01*
X149605031Y-121414592D01*
X149546584Y-121419371D01*
X149488137Y-121424231D01*
X149429688Y-121429172D01*
X149371239Y-121434193D01*
X149312789Y-121439294D01*
X149254339Y-121444475D01*
X149195888Y-121449737D01*
X149137439Y-121455079D01*
X149078989Y-121460501D01*
X149020541Y-121466003D01*
X148962093Y-121471586D01*
X148903647Y-121477249D01*
X148845202Y-121482992D01*
X148786759Y-121488816D01*
X148728318Y-121494720D01*
X148669880Y-121500703D01*
X148611443Y-121506767D01*
X148553010Y-121512912D01*
X148494580Y-121519136D01*
X148436153Y-121525440D01*
X148377729Y-121531825D01*
X148319309Y-121538289D01*
X148260893Y-121544834D01*
X148202482Y-121551458D01*
X148144075Y-121558163D01*
X148085673Y-121564947D01*
X148027275Y-121571812D01*
X147968883Y-121578756D01*
X147910497Y-121585781D01*
X147852116Y-121592885D01*
X147793742Y-121600069D01*
X147735373Y-121607333D01*
X147677011Y-121614677D01*
X147618656Y-121622100D01*
X147560308Y-121629603D01*
X147501968Y-121637186D01*
X147443634Y-121644849D01*
X147385309Y-121652591D01*
X147326992Y-121660413D01*
X147268682Y-121668315D01*
X147210382Y-121676296D01*
X147152090Y-121684356D01*
X147093807Y-121692497D01*
X147035534Y-121700716D01*
X146977270Y-121709015D01*
X146919016Y-121717394D01*
X146860772Y-121725852D01*
X146802538Y-121734389D01*
X146744315Y-121743005D01*
X146686102Y-121751701D01*
X146627901Y-121760476D01*
X146569711Y-121769330D01*
X146511532Y-121778264D01*
X146453366Y-121787276D01*
X146395211Y-121796368D01*
X146337069Y-121805539D01*
X146278939Y-121814788D01*
X146220822Y-121824117D01*
X146191768Y-121828811D01*
X146162718Y-121833525D01*
X146133671Y-121838258D01*
X146104627Y-121843011D01*
X146075587Y-121847784D01*
X146046550Y-121852576D01*
X146017517Y-121857388D01*
X145988487Y-121862220D01*
X145959461Y-121867072D01*
X145930438Y-121871943D01*
X145901419Y-121876834D01*
X145872403Y-121881745D01*
X145843391Y-121886675D01*
X145814383Y-121891625D01*
X145785378Y-121896595D01*
X145756377Y-121901584D01*
X145727380Y-121906593D01*
X145698387Y-121911621D01*
X145669397Y-121916670D01*
X145640412Y-121921737D01*
X145611430Y-121926825D01*
X145582452Y-121931932D01*
X145553478Y-121937059D01*
X145524508Y-121942205D01*
X145495543Y-121947371D01*
X145466581Y-121952556D01*
X145437623Y-121957761D01*
X145408669Y-121962986D01*
X145379720Y-121968230D01*
X145350774Y-121973494D01*
X145321833Y-121978777D01*
X145292896Y-121984080D01*
X145263964Y-121989403D01*
X145235035Y-121994745D01*
X145206112Y-122000106D01*
X145177192Y-122005487D01*
X145148277Y-122010888D01*
X145119366Y-122016308D01*
X145090459Y-122021748D01*
X145061557Y-122027207D01*
X145032660Y-122032685D01*
X145003767Y-122038184D01*
X144974879Y-122043701D01*
X144945995Y-122049238D01*
X144917116Y-122054795D01*
X144888242Y-122060371D01*
X144859372Y-122065966D01*
X144830507Y-122071581D01*
X144801647Y-122077216D01*
X144772792Y-122082870D01*
X144743941Y-122088543D01*
X144715095Y-122094236D01*
X144686255Y-122099948D01*
X144657418Y-122105680D01*
X144628588Y-122111430D01*
X144599761Y-122117201D01*
X144570941Y-122122991D01*
X144542125Y-122128800D01*
X144513314Y-122134628D01*
X144484508Y-122140476D01*
X144455708Y-122146344D01*
X144426912Y-122152230D01*
X144398122Y-122158136D01*
X144369336Y-122164062D01*
X144340557Y-122170006D01*
X144311782Y-122175970D01*
X144283013Y-122181954D01*
X144254249Y-122187956D01*
X144225491Y-122193978D01*
X144196737Y-122200020D01*
X144167990Y-122206080D01*
X144139247Y-122212160D01*
X144110511Y-122218259D01*
X144081779Y-122224378D01*
X144053054Y-122230515D01*
X144024334Y-122236672D01*
X143995620Y-122242848D01*
X143966911Y-122249044D01*
X143938208Y-122255258D01*
X143909510Y-122261492D01*
X143880819Y-122267745D01*
X143852133Y-122274018D01*
X143823453Y-122280309D01*
X143794779Y-122286620D01*
X143766111Y-122292950D01*
X143737448Y-122299299D01*
X143708792Y-122305667D01*
X143680141Y-122312055D01*
X143651497Y-122318461D01*
X143622858Y-122324887D01*
X143594226Y-122331332D01*
X143565599Y-122337796D01*
X143536979Y-122344279D01*
X143508364Y-122350781D01*
X143479757Y-122357303D01*
X143451154Y-122363843D01*
X143422559Y-122370403D01*
X143393969Y-122376981D01*
X143365387Y-122383579D01*
X143336809Y-122390196D01*
X143308240Y-122396832D01*
X143279675Y-122403487D01*
X143251118Y-122410160D01*
X143222566Y-122416854D01*
X143194022Y-122423565D01*
X143165483Y-122430297D01*
X143136952Y-122437046D01*
X143108426Y-122443816D01*
X143079909Y-122450604D01*
X143051396Y-122457411D01*
X143022891Y-122464237D01*
X142994392Y-122471082D01*
X142965901Y-122477945D01*
X142937415Y-122484828D01*
X142908937Y-122491730D01*
X142880465Y-122498651D01*
X142852001Y-122505591D01*
X142823542Y-122512549D01*
X142795092Y-122519527D01*
X142766647Y-122526523D01*
X142738211Y-122533538D01*
X142709780Y-122540573D01*
X142681357Y-122547625D01*
X142652941Y-122554698D01*
X142624532Y-122561788D01*
X142596130Y-122568898D01*
X142567735Y-122576026D01*
X142539347Y-122583174D01*
X142510967Y-122590339D01*
X142482593Y-122597525D01*
X142454228Y-122604728D01*
X142425868Y-122611951D01*
X142397517Y-122619192D01*
X142369172Y-122626452D01*
X142340836Y-122633731D01*
X142312506Y-122641028D01*
X142284185Y-122648344D01*
X142255870Y-122655680D01*
X142227563Y-122663033D01*
X142199263Y-122670406D01*
X142170972Y-122677797D01*
X142142686Y-122685207D01*
X142114410Y-122692635D01*
X142086140Y-122700083D01*
X142057879Y-122707548D01*
X142029624Y-122715033D01*
X142001379Y-122722536D01*
X141973140Y-122730058D01*
X141944910Y-122737598D01*
X141916686Y-122745158D01*
X141888472Y-122752735D01*
X141860264Y-122760332D01*
X141832065Y-122767946D01*
X141803873Y-122775580D01*
X141775690Y-122783232D01*
X141747514Y-122790903D01*
X141719347Y-122798592D01*
X141691186Y-122806300D01*
X141663036Y-122814026D01*
X141634892Y-122821771D01*
X141606757Y-122829534D01*
X141578629Y-122837316D01*
X141550511Y-122845116D01*
X141522399Y-122852935D01*
X141494298Y-122860772D01*
X141466202Y-122868628D01*
X141438117Y-122876501D01*
X141410039Y-122884394D01*
X141381970Y-122892305D01*
X141353908Y-122900235D01*
X141325857Y-122908182D01*
X141297811Y-122916149D01*
X141269777Y-122924133D01*
X141241748Y-122932137D01*
X141213731Y-122940158D01*
X141185719Y-122948198D01*
X141157719Y-122956256D01*
X141129725Y-122964332D01*
X141101741Y-122972427D01*
X141073765Y-122980540D01*
X141045799Y-122988671D01*
X141017839Y-122996821D01*
X140989891Y-123004989D01*
X140961949Y-123013176D01*
X140952250Y-123016022D01*
D12*
X207311200Y-111380800D02*
G75*
G02*
X203811200Y-111380800I-1750000J0D01*
G01*
X203811200Y-111380800D02*
G75*
G02*
X207311200Y-111380800I1750000J0D01*
G01*
D10*
X236971672Y-134691522D02*
X236956603Y-134720684D01*
X236941447Y-134749839D01*
X236926204Y-134778989D01*
X236910874Y-134808132D01*
X236895456Y-134837270D01*
X236879952Y-134866401D01*
X236864360Y-134895526D01*
X236848681Y-134924646D01*
X236832914Y-134953759D01*
X236817059Y-134982866D01*
X236801117Y-135011967D01*
X236785087Y-135041062D01*
X236768969Y-135070150D01*
X236752763Y-135099233D01*
X236736469Y-135128309D01*
X236720086Y-135157379D01*
X236703616Y-135186443D01*
X236687057Y-135215501D01*
X236670409Y-135244552D01*
X236653673Y-135273597D01*
X236636849Y-135302636D01*
X236619935Y-135331668D01*
X236602933Y-135360694D01*
X236585842Y-135389714D01*
X236568662Y-135418728D01*
X236551392Y-135447735D01*
X236534033Y-135476735D01*
X236516586Y-135505729D01*
X236499048Y-135534716D01*
X236481421Y-135563697D01*
X236463705Y-135592672D01*
X236445899Y-135621640D01*
X236428003Y-135650601D01*
X236410017Y-135679555D01*
X236391941Y-135708503D01*
X236373775Y-135737444D01*
X236355519Y-135766379D01*
X236337172Y-135795306D01*
X236318735Y-135824227D01*
X236300208Y-135853141D01*
X236281590Y-135882048D01*
X236262882Y-135910948D01*
X236244083Y-135939841D01*
X236225193Y-135968727D01*
X236206212Y-135997606D01*
X236187140Y-136026478D01*
X236167977Y-136055343D01*
X236148722Y-136084200D01*
X236129377Y-136113051D01*
X236109940Y-136141894D01*
X236090411Y-136170729D01*
X236070791Y-136199558D01*
X236051079Y-136228379D01*
X236031276Y-136257192D01*
X236011380Y-136285998D01*
X235991393Y-136314796D01*
X235971313Y-136343587D01*
X235951142Y-136372370D01*
X235930878Y-136401145D01*
X235910522Y-136429913D01*
X235890073Y-136458673D01*
X235869532Y-136487425D01*
X235848898Y-136516169D01*
X235828172Y-136544904D01*
X235807353Y-136573632D01*
X235786441Y-136602352D01*
X235765436Y-136631063D01*
X235744338Y-136659767D01*
X235723146Y-136688462D01*
X235701862Y-136717148D01*
X235680484Y-136745826D01*
X235659013Y-136774496D01*
X235637448Y-136803157D01*
X235615790Y-136831809D01*
X235594038Y-136860453D01*
X235572193Y-136889088D01*
X235550253Y-136917714D01*
X235528220Y-136946331D01*
X235506092Y-136974940D01*
X235483871Y-137003539D01*
X235461555Y-137032129D01*
X235439145Y-137060709D01*
X235416641Y-137089281D01*
X235394042Y-137117843D01*
X235371349Y-137146396D01*
X235348561Y-137174939D01*
X235325679Y-137203473D01*
X235302702Y-137231996D01*
X235279630Y-137260511D01*
X235256463Y-137289015D01*
X235233201Y-137317509D01*
X235209844Y-137345994D01*
X235186392Y-137374468D01*
X235162845Y-137402932D01*
X235139202Y-137431386D01*
X235115464Y-137459829D01*
X235091631Y-137488262D01*
X235067702Y-137516684D01*
X235043678Y-137545096D01*
X235019558Y-137573497D01*
X234995342Y-137601887D01*
X234971030Y-137630267D01*
X234946623Y-137658635D01*
X234922119Y-137686992D01*
X234897520Y-137715338D01*
X234872825Y-137743672D01*
X234848033Y-137771996D01*
X234823145Y-137800307D01*
X234798161Y-137828607D01*
X234773081Y-137856896D01*
X234747904Y-137885172D01*
X234722631Y-137913437D01*
X234697261Y-137941689D01*
X234671795Y-137969930D01*
X234646232Y-137998158D01*
X234620573Y-138026374D01*
X234594816Y-138054577D01*
X234568963Y-138082767D01*
X234543014Y-138110945D01*
X234516967Y-138139111D01*
X234490823Y-138167263D01*
X234464582Y-138195402D01*
X234438244Y-138223528D01*
X234411809Y-138251640D01*
X234385277Y-138279740D01*
X234358648Y-138307825D01*
X234331921Y-138335897D01*
X234305098Y-138363956D01*
X234278177Y-138392000D01*
X234251158Y-138420030D01*
X234224042Y-138448046D01*
X234196829Y-138476048D01*
X234169518Y-138504036D01*
X234142109Y-138532009D01*
X234114603Y-138559967D01*
X234087000Y-138587910D01*
X234059299Y-138615838D01*
X234031500Y-138643752D01*
X234003603Y-138671650D01*
X233975609Y-138699533D01*
X233947517Y-138727400D01*
X233919327Y-138755251D01*
X233891039Y-138783087D01*
X233862654Y-138810907D01*
X233834171Y-138838711D01*
X233805589Y-138866498D01*
X233776910Y-138894270D01*
X233748133Y-138922024D01*
X233719258Y-138949762D01*
X233690286Y-138977484D01*
X233661215Y-139005188D01*
X233632046Y-139032875D01*
X233602780Y-139060545D01*
X233573415Y-139088197D01*
X233543952Y-139115832D01*
X233514392Y-139143450D01*
X233484733Y-139171049D01*
X233454977Y-139198630D01*
X233425122Y-139226193D01*
X233395170Y-139253738D01*
X233365119Y-139281264D01*
X233334971Y-139308771D01*
X233304724Y-139336260D01*
X233274380Y-139363729D01*
X233243938Y-139391179D01*
X233213398Y-139418610D01*
X233182759Y-139446021D01*
X233152023Y-139473413D01*
X233121190Y-139500785D01*
X233090258Y-139528136D01*
X233059228Y-139555468D01*
X233028101Y-139582779D01*
X232996876Y-139610069D01*
X232965553Y-139637339D01*
X232934133Y-139664587D01*
X232902615Y-139691815D01*
X232870999Y-139719021D01*
X232839285Y-139746205D01*
X232807475Y-139773368D01*
X232775566Y-139800509D01*
X232743560Y-139827628D01*
X232711457Y-139854725D01*
X232679256Y-139881799D01*
X232646958Y-139908850D01*
X232614563Y-139935879D01*
X232582071Y-139962885D01*
X232549481Y-139989867D01*
X232516794Y-140016826D01*
X232484011Y-140043761D01*
X232451130Y-140070673D01*
X232418153Y-140097560D01*
X232385078Y-140124424D01*
X232351907Y-140151262D01*
X232318640Y-140178076D01*
X232285276Y-140204866D01*
X232251815Y-140231630D01*
X232218258Y-140258369D01*
X232184604Y-140285082D01*
X232150855Y-140311770D01*
X232117009Y-140338431D01*
X232083067Y-140365067D01*
X232049029Y-140391676D01*
X232014895Y-140418259D01*
X231980666Y-140444815D01*
X231946341Y-140471344D01*
X231911921Y-140497845D01*
X231877405Y-140524319D01*
X231842793Y-140550766D01*
X231808087Y-140577184D01*
X231773286Y-140603575D01*
X231738389Y-140629937D01*
X231703398Y-140656271D01*
X231668312Y-140682575D01*
X231633132Y-140708851D01*
X231597857Y-140735097D01*
X231562488Y-140761314D01*
X231527024Y-140787501D01*
X231491467Y-140813658D01*
X231455816Y-140839785D01*
X231420071Y-140865881D01*
X231384233Y-140891947D01*
X231348302Y-140917981D01*
X231312277Y-140943985D01*
X231276159Y-140969957D01*
X231239948Y-140995897D01*
X231203645Y-141021805D01*
X231167249Y-141047681D01*
X231130761Y-141073525D01*
X231094180Y-141099336D01*
X231057508Y-141125114D01*
X231020743Y-141150858D01*
X230983887Y-141176570D01*
X230946940Y-141202247D01*
X230909902Y-141227891D01*
X230872772Y-141253500D01*
X230835552Y-141279075D01*
X230798241Y-141304615D01*
X230760840Y-141330120D01*
X230723349Y-141355590D01*
X230685767Y-141381024D01*
X230648096Y-141406422D01*
X230610336Y-141431784D01*
X230572486Y-141457110D01*
X230534547Y-141482399D01*
X230496520Y-141507651D01*
X230458404Y-141532866D01*
X230420199Y-141558044D01*
X230381907Y-141583184D01*
X230343527Y-141608285D01*
X230305059Y-141633349D01*
X230266504Y-141658374D01*
X230227862Y-141683360D01*
X230189134Y-141708307D01*
X230150318Y-141733214D01*
X230111417Y-141758082D01*
X230101438Y-141764446D01*
X79570269Y-143696702D02*
X79547752Y-143686549D01*
X79525242Y-143676377D01*
X79502755Y-143666194D01*
X79480276Y-143655992D01*
X79457821Y-143645779D01*
X79435373Y-143635547D01*
X79412950Y-143625304D01*
X79390533Y-143615043D01*
X79368141Y-143604771D01*
X79345757Y-143594480D01*
X79323397Y-143584179D01*
X79301044Y-143573859D01*
X79278716Y-143563528D01*
X79256395Y-143553178D01*
X79234099Y-143542818D01*
X79211811Y-143532440D01*
X79189547Y-143522050D01*
X79167292Y-143511643D01*
X79145061Y-143501225D01*
X79122837Y-143490788D01*
X79100639Y-143480341D01*
X79078449Y-143469876D01*
X79056284Y-143459401D01*
X79034126Y-143448907D01*
X79011994Y-143438402D01*
X78989870Y-143427880D01*
X78967772Y-143417347D01*
X78945681Y-143406796D01*
X78923616Y-143396235D01*
X78901559Y-143385656D01*
X78879527Y-143375067D01*
X78857504Y-143364460D01*
X78835506Y-143353842D01*
X78813517Y-143343207D01*
X78791553Y-143332561D01*
X78769598Y-143321898D01*
X78747669Y-143311225D01*
X78725748Y-143300534D01*
X78703853Y-143289833D01*
X78681967Y-143279114D01*
X78660106Y-143268385D01*
X78638255Y-143257639D01*
X78616429Y-143246882D01*
X78594612Y-143236108D01*
X78572822Y-143225325D01*
X78551040Y-143214524D01*
X78529284Y-143203713D01*
X78507537Y-143192884D01*
X78485817Y-143182046D01*
X78464106Y-143171190D01*
X78442421Y-143160326D01*
X78420745Y-143149443D01*
X78399095Y-143138551D01*
X78377455Y-143127641D01*
X78355841Y-143116723D01*
X78334237Y-143105786D01*
X78312659Y-143094841D01*
X78291091Y-143083878D01*
X78269549Y-143072906D01*
X78248017Y-143061916D01*
X78226511Y-143050918D01*
X78205015Y-143039902D01*
X78183546Y-143028877D01*
X78162087Y-143017835D01*
X78140654Y-143006784D01*
X78119231Y-142995715D01*
X78097835Y-142984638D01*
X78076449Y-142973544D01*
X78055090Y-142962441D01*
X78033740Y-142951320D01*
X78012418Y-142940191D01*
X77991106Y-142929045D01*
X77969821Y-142917890D01*
X77948546Y-142906718D01*
X77927298Y-142895538D01*
X77906060Y-142884340D01*
X77884850Y-142873135D01*
X77863650Y-142861911D01*
X77842477Y-142850680D01*
X77821314Y-142839432D01*
X77800179Y-142828175D01*
X77779054Y-142816901D01*
X77757957Y-142805620D01*
X77736870Y-142794321D01*
X77715811Y-142783014D01*
X77694762Y-142771690D01*
X77673741Y-142760358D01*
X77652730Y-142749010D01*
X77631747Y-142737653D01*
X77610774Y-142726279D01*
X77589830Y-142714898D01*
X77568896Y-142703500D01*
X77547990Y-142692094D01*
X77527094Y-142680671D01*
X77506227Y-142669241D01*
X77485370Y-142657793D01*
X77464541Y-142646339D01*
X77443723Y-142634867D01*
X77422934Y-142623388D01*
X77402155Y-142611892D01*
X77381404Y-142600389D01*
X77360664Y-142588869D01*
X77339953Y-142577342D01*
X77319252Y-142565797D01*
X77298580Y-142554246D01*
X77277918Y-142542678D01*
X77257285Y-142531103D01*
X77236663Y-142519512D01*
X77216070Y-142507913D01*
X77195487Y-142496297D01*
X77174934Y-142484675D01*
X77154391Y-142473036D01*
X77133877Y-142461391D01*
X77113374Y-142449728D01*
X77092900Y-142438059D01*
X77072437Y-142426373D01*
X77052003Y-142414681D01*
X77031580Y-142402972D01*
X77011186Y-142391256D01*
X76990803Y-142379524D01*
X76970449Y-142367786D01*
X76950106Y-142356030D01*
X76929793Y-142344269D01*
X76909490Y-142332491D01*
X76889217Y-142320707D01*
X76868956Y-142308906D01*
X76848723Y-142297099D01*
X76828502Y-142285275D01*
X76808310Y-142273445D01*
X76788129Y-142261599D01*
X76767978Y-142249747D01*
X76747838Y-142237879D01*
X76727728Y-142226004D01*
X76707629Y-142214113D01*
X76687560Y-142202216D01*
X76667502Y-142190303D01*
X76647473Y-142178384D01*
X76627457Y-142166449D01*
X76607469Y-142154508D01*
X76587494Y-142142550D01*
X76567548Y-142130587D01*
X76547613Y-142118608D01*
X76527709Y-142106623D01*
X76507816Y-142094622D01*
X76487953Y-142082615D01*
X76468101Y-142070592D01*
X76448279Y-142058564D01*
X76428469Y-142046519D01*
X76408689Y-142034470D01*
X76388921Y-142022404D01*
X76369183Y-142010332D01*
X76349456Y-141998245D01*
X76329760Y-141986152D01*
X76310075Y-141974043D01*
X76290420Y-141961930D01*
X76270778Y-141949800D01*
X76251165Y-141937665D01*
X76231564Y-141925514D01*
X76211993Y-141913358D01*
X76192435Y-141901186D01*
X76172906Y-141889009D01*
X76153390Y-141876816D01*
X76133903Y-141864618D01*
X76114429Y-141852404D01*
X76094985Y-141840186D01*
X76075554Y-141827952D01*
X76056152Y-141815713D01*
X76036763Y-141803458D01*
X76017403Y-141791198D01*
X75998057Y-141778923D01*
X75978740Y-141766643D01*
X75959436Y-141754347D01*
X75940162Y-141742047D01*
X75920900Y-141729731D01*
X75901669Y-141717410D01*
X75882450Y-141705074D01*
X75863261Y-141692733D01*
X75844085Y-141680377D01*
X75824940Y-141668016D01*
X75805806Y-141655640D01*
X75786704Y-141643259D01*
X75767614Y-141630863D01*
X75748554Y-141618463D01*
X75729507Y-141606047D01*
X75710490Y-141593627D01*
X75691486Y-141581191D01*
X75672512Y-141568751D01*
X75653551Y-141556296D01*
X75634621Y-141543837D01*
X75615703Y-141531362D01*
X75596816Y-141518884D01*
X75577942Y-141506390D01*
X75559098Y-141493892D01*
X75540267Y-141481378D01*
X75521467Y-141468861D01*
X75502679Y-141456328D01*
X75483922Y-141443792D01*
X75465178Y-141431240D01*
X75446465Y-141418685D01*
X75427764Y-141406114D01*
X75409094Y-141393540D01*
X75390437Y-141380951D01*
X75371811Y-141368357D01*
X75353198Y-141355749D01*
X75334615Y-141343137D01*
X75316046Y-141330510D01*
X75297507Y-141317880D01*
X75278981Y-141305234D01*
X75260486Y-141292585D01*
X75242005Y-141279920D01*
X75223553Y-141267253D01*
X75205116Y-141254570D01*
X75186708Y-141241884D01*
X75168314Y-141229183D01*
X75149951Y-141216479D01*
X75131601Y-141203760D01*
X75113282Y-141191037D01*
X75094976Y-141178300D01*
X75076701Y-141165559D01*
X75058439Y-141152804D01*
X75040208Y-141140045D01*
X75021991Y-141127272D01*
X75003804Y-141114495D01*
X74985630Y-141101704D01*
X74967488Y-141088910D01*
X74949358Y-141076101D01*
X74931260Y-141063289D01*
X74913175Y-141050462D01*
X74895121Y-141037632D01*
X74877081Y-141024788D01*
X74859071Y-141011940D01*
X74841075Y-140999078D01*
X74823110Y-140986214D01*
X74805158Y-140973334D01*
X74787237Y-140960452D01*
X74769330Y-140947555D01*
X74751454Y-140934656D01*
X74733591Y-140921742D01*
X74715759Y-140908826D01*
X74697941Y-140895894D01*
X74680154Y-140882961D01*
X74662380Y-140870012D01*
X74644638Y-140857062D01*
X74626909Y-140844096D01*
X74609211Y-140831129D01*
X74591527Y-140818147D01*
X74573873Y-140805162D01*
X74556234Y-140792163D01*
X74538625Y-140779162D01*
X74521030Y-140766146D01*
X74503467Y-140753128D01*
X74485917Y-140740096D01*
X74468398Y-140727061D01*
X74450893Y-140714012D01*
X74433418Y-140700961D01*
X74415958Y-140687896D01*
X74398529Y-140674828D01*
X74381113Y-140661746D01*
X74363729Y-140648663D01*
X74346358Y-140635564D01*
X74329019Y-140622464D01*
X74311693Y-140609350D01*
X74294399Y-140596234D01*
X74277118Y-140583103D01*
X74259868Y-140569971D01*
X74242633Y-140556824D01*
X74225428Y-140543676D01*
X74208238Y-140530513D01*
X74191078Y-140517349D01*
X74173933Y-140504170D01*
X74156818Y-140490990D01*
X74139718Y-140477796D01*
X74122648Y-140464600D01*
X74105593Y-140451389D01*
X74088569Y-140438178D01*
X74071559Y-140424952D01*
X74054579Y-140411725D01*
X74037614Y-140398483D01*
X74020680Y-140385241D01*
X74003761Y-140371984D01*
X73986872Y-140358726D01*
X73969997Y-140345453D01*
X73953153Y-140332180D01*
X73936324Y-140318892D01*
X73919526Y-140305603D01*
X73902742Y-140292300D01*
X73885988Y-140278996D01*
X73869249Y-140265678D01*
X73852541Y-140252359D01*
X73835848Y-140239025D01*
X73819185Y-140225691D01*
X73802537Y-140212343D01*
X73785919Y-140198993D01*
X73769317Y-140185630D01*
X73752744Y-140172266D01*
X73736187Y-140158888D01*
X73719660Y-140145509D01*
X73703148Y-140132116D01*
X73686666Y-140118722D01*
X73670200Y-140105314D01*
X73653763Y-140091905D01*
X73637342Y-140078483D01*
X73620951Y-140065060D01*
X73604575Y-140051623D01*
X73588230Y-140038185D01*
X73571899Y-140024734D01*
X73555599Y-140011282D01*
X73539314Y-139997816D01*
X73523059Y-139984349D01*
X73506820Y-139970869D01*
X73490610Y-139957388D01*
X73474416Y-139943893D01*
X73458252Y-139930398D01*
X73442103Y-139916889D01*
X73425985Y-139903380D01*
X73409882Y-139889857D01*
X73393809Y-139876334D01*
X73377751Y-139862797D01*
X73361723Y-139849259D01*
X73345711Y-139835708D01*
X73329729Y-139822157D01*
X73313762Y-139808592D01*
X73297825Y-139795026D01*
X73281904Y-139781447D01*
X73266013Y-139767868D01*
X73250137Y-139754276D01*
X73234291Y-139740683D01*
X73218461Y-139727076D01*
X73202660Y-139713470D01*
X73186875Y-139699850D01*
X73171121Y-139686229D01*
X73155381Y-139672596D01*
X73139672Y-139658962D01*
X73123978Y-139645315D01*
X73108314Y-139631667D01*
X73092666Y-139618007D01*
X73077048Y-139604346D01*
X73061445Y-139590672D01*
X73045872Y-139576998D01*
X73030315Y-139563310D01*
X73014788Y-139549623D01*
X72999276Y-139535922D01*
X72983794Y-139522222D01*
X72968328Y-139508508D01*
X72952891Y-139494794D01*
X72937470Y-139481067D01*
X72922080Y-139467340D01*
X72906704Y-139453600D01*
X72891359Y-139439860D01*
X72876029Y-139426107D01*
X72860730Y-139412354D01*
X72845445Y-139398589D01*
X72830191Y-139384823D01*
X72814952Y-139371044D01*
X72799743Y-139357265D01*
X72784550Y-139343474D01*
X72769387Y-139329682D01*
X72754239Y-139315878D01*
X72739121Y-139302074D01*
X72724019Y-139288257D01*
X72708946Y-139274440D01*
X72693890Y-139260610D01*
X72678863Y-139246781D01*
X72663851Y-139232938D01*
X72648870Y-139219096D01*
X72633904Y-139205242D01*
X72618968Y-139191387D01*
X72604048Y-139177520D01*
X72589157Y-139163653D01*
X72574282Y-139149774D01*
X72559437Y-139135895D01*
X72544608Y-139122003D01*
X72529808Y-139108111D01*
X72515024Y-139094207D01*
X72500270Y-139080303D01*
X72485531Y-139066387D01*
X72470822Y-139052471D01*
X72456129Y-139038542D01*
X72441466Y-139024614D01*
X72426818Y-139010674D01*
X72412200Y-138996734D01*
X72397598Y-138982781D01*
X72383025Y-138968829D01*
X72368468Y-138954864D01*
X72353941Y-138940900D01*
X72339429Y-138926924D01*
X72324947Y-138912948D01*
X72310481Y-138898959D01*
X72296044Y-138884972D01*
X72281624Y-138870971D01*
X72267232Y-138856972D01*
X72252857Y-138842960D01*
X72238511Y-138828949D01*
X72224181Y-138814925D01*
X72209880Y-138800902D01*
X72195595Y-138786867D01*
X72181340Y-138772832D01*
X72167100Y-138758785D01*
X72152890Y-138744739D01*
X72138696Y-138730681D01*
X72124531Y-138716623D01*
X72110382Y-138702553D01*
X72096263Y-138688484D01*
X72082159Y-138674403D01*
X72068085Y-138660322D01*
X72054026Y-138646229D01*
X72039997Y-138632138D01*
X72025984Y-138618034D01*
X72012000Y-138603930D01*
X71998032Y-138589815D01*
X71984093Y-138575701D01*
X71970171Y-138561574D01*
X71956277Y-138547449D01*
X71942400Y-138533311D01*
X71928551Y-138519174D01*
X71914719Y-138505025D01*
X71900915Y-138490877D01*
X71887128Y-138476717D01*
X71873370Y-138462559D01*
X71859628Y-138448388D01*
X71845915Y-138434218D01*
X71832218Y-138420036D01*
X71818550Y-138405855D01*
X71804898Y-138391662D01*
X71791275Y-138377470D01*
X71777668Y-138363267D01*
X71764090Y-138349064D01*
X71750528Y-138334849D01*
X71736995Y-138320636D01*
X71723478Y-138306411D01*
X71709990Y-138292187D01*
X71696519Y-138277950D01*
X71683076Y-138263716D01*
X71669649Y-138249469D01*
X71656251Y-138235223D01*
X71642869Y-138220966D01*
X71629516Y-138206710D01*
X71616179Y-138192442D01*
X71602871Y-138178175D01*
X71589579Y-138163896D01*
X71576316Y-138149619D01*
X71563069Y-138135330D01*
X71549850Y-138121042D01*
X71536648Y-138106743D01*
X71523474Y-138092445D01*
X71510317Y-138078135D01*
X71497188Y-138063826D01*
X71484076Y-138049506D01*
X71470992Y-138035187D01*
X71457924Y-138020856D01*
X71444885Y-138006527D01*
X71431862Y-137992186D01*
X71407568Y-137965353D01*
M02*
