0
SECTION
2
HEADER
9
$INSUNITS
70
4
9
$ACADVER
1
AC1014
9
$HANDSEED
5
FFFF
0
ENDSEC
0
SECTION
2
TABLES
0
TABLE
2
VPORT
5
8
100
AcDbSymbolTable
0
ENDTAB
0
TABLE
2
LTYPE
5
5
100
AcDbSymbolTable
0
LTYPE
5
14
100
AcDbSymbolTableRecord
100
AcDbLinetypeTableRecord
2
BYBLOCK
70
0
0
LTYPE
5
15
100
AcDbSymbolTableRecord
100
AcDbLinetypeTableRecord
2
BYLAYER
70
0
0
LTYPE
5
16
100
AcDbSymbolTableRecord
100
AcDbLinetypeTableRecord
2
DASHED
70
0
3
Dashed __ __ __ __ __ __ __ __ __ __ __ __ __ _
72
65
73
2
40
0.75
49
0.5
74
0
49
-0.25
74
0
0
ENDTAB
0
TABLE
2
LAYER
5
2
100
AcDbSymbolTable
70
2
0
LAYER
5
50
100
AcDbSymbolTableRecord
100
AcDbLayerTableRecord
2
0
70
0
62
7
6
CONTINUOUS
0
ENDTAB
0
TABLE
2
STYLE
5
3
100
AcDbSymbolTable
70
1
0
STYLE
5
11
100
AcDbSymbolTableRecord
100
AcDbTextStyleTableRecord
2
STANDARD
70
0
0
ENDTAB
0
TABLE
2
VIEW
5
6
100
AcDbSymbolTable
70
0
0
ENDTAB
0
TABLE
2
UCS
5
7
100
AcDbSymbolTable
70
0
0
ENDTAB
0
TABLE
2
APPID
5
9
100
AcDbSymbolTable
70
2
0
APPID
5
12
100
AcDbSymbolTableRecord
100
AcDbRegAppTableRecord
2
ACAD
70
0
0
ENDTAB
0
TABLE
2
DIMSTYLE
5
A
100
AcDbSymbolTable
70
1
0
ENDTAB
0
TABLE
2
BLOCK_RECORD
5
1
100
AcDbSymbolTable
70
1
0
BLOCK_RECORD
5
1F
100
AcDbSymbolTableRecord
100
AcDbBlockTableRecord
2
*MODEL_SPACE
0
BLOCK_RECORD
5
1B
100
AcDbSymbolTableRecord
100
AcDbBlockTableRecord
2
*PAPER_SPACE
0
ENDTAB
0
ENDSEC
0
SECTION
2
BLOCKS
0
BLOCK
5
20
100
AcDbEntity
100
AcDbBlockBegin
2
*MODEL_SPACE
0
ENDBLK
5
21
100
AcDbEntity
100
AcDbBlockEnd
0
BLOCK
5
1C
100
AcDbEntity
100
AcDbBlockBegin
2
*PAPER_SPACE
0
ENDBLK
5
1D
100
AcDbEntity
100
AcDbBlockEnd
0
ENDSEC
0
SECTION
2
ENTITIES
0
LINE
5
100
100
AcDbEntity
8
0
100
AcDbLine
10
22.749999865889563
20
15.53158048206679
30
0
11
82.250000916421385
21
15.53158048206679
31
0
0
LINE
5
101
100
AcDbEntity
8
0
100
AcDbLine
10
22.749999865889553
20
3.9999999254941949
30
0
11
22.749999865889563
21
15.53158048206679
31
0
0
LINE
5
102
100
AcDbEntity
8
0
100
AcDbLine
10
22.749999865889553
20
3.9999999254941949
30
0
11
22.749999865889553
21
-14.000000074505806
31
0
0
LINE
5
103
100
AcDbEntity
8
0
100
AcDbLine
10
22.749999865889553
20
-25.750000074505806
30
0
11
22.749999865889553
21
-14.000000074505806
31
0
0
LINE
5
104
100
AcDbEntity
8
0
100
AcDbLine
10
-5
20
-25.750000074505806
30
0
11
22.749999865889553
21
-25.750000074505806
31
0
0
LINE
5
105
100
AcDbEntity
8
0
100
AcDbLine
10
-5
20
-25.750000074505806
30
0
11
-27.750000134110451
21
-25.750000074505806
31
0
0
LINE
5
106
100
AcDbEntity
8
0
100
AcDbLine
10
-32.987509617030668
20
-25.750000074505806
30
0
11
-27.750000134110451
21
-25.750000074505806
31
0
0
LINE
5
107
100
AcDbEntity
8
0
100
AcDbLine
10
-32.987509617030668
20
-25.750000074505806
30
0
11
-32.987509617030682
21
-49.906580482066872
31
0
0
SPLINE
5
108
100
AcDbEntity
8
0
100
AcDbSpline
70
0
71
3
72
17
73
13
74
0
42
0.000000001
43
0.0000000001
44
0.0000000001
40
0
40
0
40
0
40
0
40
1.317357898281543
40
1.317357898281543
40
1.317357898281543
40
2.4026524947880548
40
2.4026524947880548
40
2.4026524947880548
40
3.216215113357741
40
3.216215113357741
40
3.216215113357741
40
3.6636847315268053
40
3.6636847315268053
40
3.6636847315268053
40
3.6636847315268053
10
-9.0000001341104579
20
-68.394090881408445
30
0
10
-13.119861729020863
20
-68.394090881408445
30
0
10
-17.220542655853226
20
-67.505723012384436
30
0
10
-20.972174928543474
20
-65.815902424614237
30
0
10
-24.062926681686253
20
-64.423757468892802
30
0
10
-26.948181071066003
20
-62.504468947914887
30
0
10
-29.134876271618573
20
-60.084552669453842
30
0
10
-30.774074954724377
20
-58.270525924493114
30
0
10
-31.962880158624166
20
-56.171709119642443
30
0
10
-32.534710367890092
20
-53.86443974313157
30
0
10
-32.849224136784258
20
-52.595412721295681
30
0
10
-32.987509617030682
20
-51.264544120941771
30
0
10
-32.987509617030682
20
-49.906580482066865
30
0
0
SPLINE
5
109
100
AcDbEntity
8
0
100
AcDbSpline
70
0
71
3
72
8
73
4
74
0
42
0.000000001
43
0.0000000001
44
0.0000000001
40
5.9540186999652907
40
5.9540186999652907
40
5.9540186999652907
40
5.9540186999652907
40
6.7500630512793114
40
6.7500630512793114
40
6.7500630512793114
40
6.7500630512793114
10
-1.6147043607120919
20
-67.465453192220778
30
0
10
-4.0289992190066846
20
-68.085080436683711
30
0
10
-6.5052912072758362
20
-68.394090881408459
30
0
10
-9.0000001341104561
20
-68.394090881408459
30
0
0
LINE
5
110
100
AcDbEntity
8
0
100
AcDbLine
10
-1.6147043607120919
20
-67.465453192220778
30
0
11
2.9376490908768904
21
-65.933642316513328
31
0
0
SPLINE
5
111
100
AcDbEntity
8
0
100
AcDbSpline
70
0
71
3
72
17
73
13
74
0
42
0.000000001
43
0.0000000001
44
0.0000000001
40
0
40
0
40
0
40
0
40
1.1670823644268029
40
1.1670823644268029
40
1.1670823644268029
40
2.5545799536941924
40
2.5545799536941924
40
2.5545799536941924
40
4.5035246054245368
40
4.5035246054245368
40
4.5035246054245368
40
5.4453174731478162
40
5.4453174731478162
40
5.4453174731478162
40
5.4453174731478162
10
52.500000782310948
20
-43.394090881408445
30
0
10
48.426438770929309
20
-43.394090881408445
30
0
10
44.319781919297057
20
-43.98718414303589
30
0
10
40.409805795873069
20
-45.135221702845115
30
0
10
35.761391415960574
20
-46.500077684887188
30
0
10
31.403786770304762
20
-48.620374736474488
30
0
10
27.331482269948822
20
-51.027272262196213
30
0
10
21.611331015216365
20
-54.408114215583097
30
0
10
16.39144740330017
20
-58.358225420539327
30
0
10
10.979632930446733
20
-61.702860719901253
30
0
10
8.3644697612670189
20
-63.319096289894439
30
0
10
5.6961984825638909
20
-64.792722715957041
30
0
10
2.9376490908768913
20
-65.933642316513328
30
0
0
SPLINE
5
112
100
AcDbEntity
8
0
100
AcDbSpline
70
0
71
3
72
17
73
13
74
0
42
0.000000001
43
0.0000000001
44
0.0000000001
40
1.3050391083339496
40
1.3050391083339496
40
1.3050391083339496
40
1.3050391083339496
40
2.9618605620707932
40
2.9618605620707932
40
2.9618605620707932
40
4.7393874499501063
40
4.7393874499501063
40
4.7393874499501063
40
6.0555113476809312
40
6.0555113476809312
40
6.0555113476809312
40
6.7514598765462202
40
6.7514598765462202
40
6.7514598765462202
40
6.7514598765462202
10
102.06235247374495
20
-65.933642316513314
30
0
10
97.206125250402081
20
-63.925135656975613
30
0
10
92.665082506291697
20
-60.918153280029898
30
0
10
88.106908052634424
20
-57.831659681010372
30
0
10
83.216654107197954
20
-54.520303862222185
30
0
10
78.253512469002743
20
-51.061194388014641
30
0
10
72.754322926086175
20
-48.35648801183617
30
0
10
68.682589989197197
20
-46.353857996894249
30
0
10
64.31297525509197
20
-44.796971257725048
30
0
10
59.770592033869569
20
-44.012148320398971
30
0
10
57.368641179696525
20
-43.597144558524015
30
0
10
54.929126245496001
20
-43.394090881408438
30
0
10
52.500000782310963
20
-43.394090881408438
30
0
0
LINE
5
113
100
AcDbEntity
8
0
100
AcDbLine
10
82.250000916421385
20
-14.000000074505806
30
0
11
82.250000916421385
21
-25.750000074505806
31
0
0
LINE
5
114
100
AcDbEntity
8
0
100
AcDbLine
10
82.250000916421385
20
-14.000000074505806
30
0
11
82.250000916421385
21
3.9999999254941954
31
0
0
LINE
5
115
100
AcDbEntity
8
0
100
AcDbLine
10
82.250000916421385
20
15.53158048206679
30
0
11
82.250000916421385
21
3.9999999254941954
31
0
0
LINE
5
116
100
AcDbEntity
8
0
100
AcDbLine
10
82.250000916421385
20
-25.750000074505806
30
0
11
95.250000916421385
21
-25.750000074505806
31
0
0
LINE
5
117
100
AcDbEntity
8
0
100
AcDbLine
10
132.75000091642138
20
-25.750000074505806
30
0
11
95.250000916421385
21
-25.750000074505806
31
0
0
LINE
5
118
100
AcDbEntity
8
0
100
AcDbLine
10
132.75000091642138
20
-25.750000074505806
30
0
11
137.98751118165268
21
-25.750000074505827
31
0
0
LINE
5
119
100
AcDbEntity
8
0
100
AcDbLine
10
137.98751118165259
20
-49.906580482066822
30
0
11
137.98751118165268
21
-25.750000074505827
31
0
0
SPLINE
5
120
100
AcDbEntity
8
0
100
AcDbSpline
70
0
71
3
72
17
73
13
74
0
42
0.000000001
43
0.0000000001
44
0.0000000001
40
0
40
0
40
0
40
0
40
0.80925144836135232
40
0.80925144836135232
40
0.80925144836135232
40
1.9110376994124945
40
1.9110376994124945
40
1.9110376994124945
40
3.1906197294832261
40
3.1906197294832261
40
3.1906197294832261
40
3.6646968692760926
40
3.6646968692760926
40
3.6646968692760926
40
3.6646968692760926
10
137.98751118165259
20
-49.906580482066822
30
0
10
137.98751118165259
20
-52.362465746583041
30
0
10
137.50892701976079
20
-54.715046338272273
30
0
10
136.42922824703936
20
-56.810721741412642
30
0
10
134.95923117076589
20
-59.663958952815321
30
0
10
132.4407856167642
20
-62.046757428613148
30
0
10
129.55899373376209
20
-63.88364564716143
30
0
10
126.21216570393764
20
-66.016953403961466
30
0
10
122.36760357690075
20
-67.45200425873233
30
0
10
118.42482985977503
20
-68.058893409150159
30
0
10
116.96405685520092
20
-68.283742043969994
30
0
10
115.48261489276433
20
-68.394090881408431
30
0
10
114.00000169873238
20
-68.394090881408431
30
0
0
SPLINE
5
121
100
AcDbEntity
8
0
100
AcDbSpline
70
0
71
3
72
8
73
4
74
0
42
0.000000001
43
0.0000000001
44
0.0000000001
40
0
40
0
40
0
40
0
40
0.79631809494426176
40
0.79631809494426176
40
0.79631809494426176
40
0.79631809494426176
10
114.00000169873236
20
-68.394090881408474
30
0
10
111.5044348917103
20
-68.394090881408474
30
0
10
109.02969840133613
20
-68.085259479826007
30
0
10
106.61470592533374
20
-67.465453192220707
30
0
0
LINE
5
122
100
AcDbEntity
8
0
100
AcDbLine
10
106.61470592533374
20
-67.465453192220707
30
0
11
102.06235247374495
21
-65.933642316513314
31
0
0
ENDSEC
0
SECTION
2
OBJECTS
0
DICTIONARY
5
C
100
AcDbDictionary
3
ACAD_GROUP
350
D
3
ACAD_MLINESTYLE
350
17
0
DICTIONARY
5
D
100
AcDbDictionary
0
DICTIONARY
5
1A
330
C
100
AcDbDictionary
0
DICTIONARY
5
17
100
AcDbDictionary
0
ENDSEC
0
EOF
